<svg width="927" height="571" viewBox="0 0 927 571" fill="none" xmlns="http://www.w3.org/2000/svg">
<path d="M74.5813 560.485C74.5813 560.485 89.0162 549.496 110.26 549.223C110.26 549.223 50.6132 542.686 51.4302 530.703C52.2472 518.719 89.2881 524.441 112.983 540.509C112.983 540.509 86.0202 520.534 90.9306 511.584C95.7475 502.804 133.954 521.515 140.491 560.698L74.5813 560.485Z" fill="#F8BC22"/>
<path d="M716.34 537.816C716.34 537.816 762.244 433.987 786.481 433.527C819.456 432.902 740.945 524.883 740.945 524.883C740.945 524.883 800.721 452.446 823.021 467.313C844.504 481.634 764.815 526.716 764.815 526.716C764.815 526.716 828.733 495.624 837.173 514.41C843.415 528.304 795.846 534.516 766.652 537.817C766.652 537.817 829.471 531.377 825.334 546.523C823.021 554.989 775.374 551.716 775.374 551.716C775.374 551.716 804.569 554.164 807.598 560.889H716.341L716.34 537.816Z" fill="#F8BC22"/>
<path d="M319.445 330.496C319.445 317.935 314.625 307.75 308.662 307.641L308.654 307.631C308.654 307.631 308.62 307.634 308.607 307.635C308.593 307.635 308.58 307.631 308.567 307.631C308.418 307.631 308.275 307.665 308.128 307.677C303.364 308.093 266.48 310.871 235.653 310.871C191.762 310.871 157.059 307.631 157.059 307.631C145.492 333.309 157.059 353.362 157.059 353.362H308.654C308.656 353.359 308.657 353.355 308.66 353.352C314.623 353.244 319.445 343.058 319.445 330.496Z" fill="#1CA8CB"/>
<path d="M157.282 353.363C163.29 353.363 168.161 343.125 168.161 330.496C168.161 317.867 163.29 307.63 157.282 307.63C151.273 307.63 146.402 317.867 146.402 330.496C146.402 343.125 151.273 353.363 157.282 353.363Z" fill="#0D0D0C"/>
<path d="M160.455 311.928C154.946 309.035 149.301 315.659 149.301 330.164C149.301 344.67 153.249 350.073 156.508 350.073C166.148 350.073 167.422 316.915 158.333 316.089C149.245 315.263 150.358 343.464 156.6 343.464C162.247 343.464 162.446 319.295 157.283 321.385C153.995 322.717 153.584 336.355 156.789 336.565C157.702 336.624 158.917 334.318 158.825 330.669" stroke="white" stroke-width="0.25" stroke-miterlimit="10" stroke-linecap="round"/>
<path d="M203.778 353.361C203.778 353.361 207.172 347.154 207.172 331.133C207.172 315.111 201.092 309.562 201.092 309.562H193.891C193.891 309.562 200.377 315.11 200.377 331.133C200.377 347.154 196.576 353.361 196.576 353.361H203.778Z" fill="white"/>
<path d="M270.242 353.361C270.242 353.361 273.637 347.154 273.637 331.133C273.637 315.111 267.557 309.562 267.557 309.562H260.355C260.355 309.562 266.842 315.11 266.842 331.133C266.842 347.154 263.041 353.361 263.041 353.361H270.242Z" fill="white"/>
<path d="M265.686 540.39H158.735C153.096 540.39 148.523 535.817 148.523 530.178V363.573C148.523 357.934 153.096 353.361 158.735 353.361H265.686C271.325 353.361 275.896 357.932 275.896 363.573V530.179C275.896 535.819 271.325 540.39 265.686 540.39Z" fill="#F8BC22"/>
<path d="M265.686 540.39H158.735C153.096 540.39 148.523 535.817 148.523 530.178V363.573C148.523 357.934 153.096 353.361 158.735 353.361H265.686C271.325 353.361 275.896 357.932 275.896 363.573V530.179C275.896 535.819 271.325 540.39 265.686 540.39Z" fill="#113D48"/>
<path d="M176.849 540.39C171.209 540.39 166.637 535.817 166.637 530.178V363.573C166.637 357.934 171.209 353.361 176.849 353.361" stroke="#0D0D0C" stroke-width="0.5" stroke-miterlimit="10" stroke-linecap="round"/>
<path d="M300.885 540.39H193.935C188.295 540.39 183.723 535.817 183.723 530.178V363.573C183.723 357.934 188.295 353.361 193.935 353.361H300.885C306.525 353.361 311.096 357.932 311.096 363.573V530.179C311.097 535.819 306.525 540.39 300.885 540.39Z" fill="#F8BC22"/>
<path d="M166.638 544.346C166.236 544.346 165.847 544.385 165.461 544.441V540.39H158.516V552.467C158.516 556.952 162.152 560.588 166.636 560.588C171.121 560.588 174.757 556.952 174.757 552.467C174.757 547.983 171.124 544.346 166.638 544.346Z" fill="#0D0D0C"/>
<path d="M206.735 544.346C206.336 544.346 205.944 544.385 205.559 544.441V540.39H198.613V552.467C198.613 556.952 202.249 560.588 206.734 560.588C211.219 560.588 214.856 556.952 214.856 552.467C214.856 547.983 211.222 544.346 206.735 544.346Z" fill="#0D0D0C"/>
<path d="M261.181 544.346C260.779 544.346 260.39 544.385 260.004 544.441V540.39H253.059V552.467C253.059 556.952 256.695 560.588 261.179 560.588C265.664 560.588 269.3 556.952 269.3 552.467C269.3 547.983 265.665 544.346 261.181 544.346Z" fill="#0D0D0C"/>
<path d="M301.278 544.346C300.877 544.346 300.487 544.385 300.102 544.441V540.39H293.156V552.467C293.156 556.952 296.792 560.588 301.277 560.588C305.762 560.588 309.399 556.952 309.399 552.467C309.399 547.983 305.763 544.346 301.278 544.346Z" fill="#0D0D0C"/>
<path d="M204.555 524.049H195.635C193.846 524.049 192.395 522.598 192.395 520.809V375.808C192.395 374.019 193.846 372.567 195.635 372.567H204.555C206.345 372.567 207.796 374.019 207.796 375.808V520.809C207.796 522.598 206.346 524.049 204.555 524.049Z" stroke="#0D0D0C" stroke-width="0.5" stroke-miterlimit="10" stroke-linecap="round"/>
<path d="M236.102 524.049H227.182C225.393 524.049 223.941 522.598 223.941 520.809V375.808C223.941 374.019 225.393 372.567 227.182 372.567H236.102C237.892 372.567 239.343 374.019 239.343 375.808V520.809C239.343 522.598 237.892 524.049 236.102 524.049Z" stroke="#0D0D0C" stroke-width="0.5" stroke-miterlimit="10" stroke-linecap="round"/>
<path d="M267.649 524.049H258.729C256.94 524.049 255.488 522.598 255.488 520.809V375.808C255.488 374.019 256.94 372.567 258.729 372.567H267.649C269.439 372.567 270.89 374.019 270.89 375.808V520.809C270.89 522.598 269.439 524.049 267.649 524.049Z" stroke="#0D0D0C" stroke-width="0.5" stroke-miterlimit="10" stroke-linecap="round"/>
<path d="M299.196 524.049H290.276C288.486 524.049 287.035 522.598 287.035 520.809V375.808C287.035 374.019 288.486 372.567 290.276 372.567H299.196C300.985 372.567 302.437 374.019 302.437 375.808V520.809C302.438 522.598 300.987 524.049 299.196 524.049Z" stroke="#0D0D0C" stroke-width="0.5" stroke-miterlimit="10" stroke-linecap="round"/>
<path d="M218.242 255.053H214.203V360.723H218.242V255.053Z" fill="#0D0D0C"/>
<path d="M280.626 255.053H276.586V360.723H280.626V255.053Z" fill="#0D0D0C"/>
<path d="M216.219 259.644V247.524H278.603V259.644" stroke="#1CA8CB" stroke-width="5" stroke-miterlimit="10" stroke-linejoin="round"/>
<path d="M711.853 560.887H519.762C513.56 560.887 508.531 555.859 508.531 549.657V409.198C508.531 402.996 513.56 397.968 519.762 397.968H711.853C718.055 397.968 723.083 402.996 723.083 409.198V549.657C723.085 555.859 718.056 560.887 711.853 560.887Z" fill="#0D0D0C"/>
<path d="M535.949 560.887C529.747 560.887 524.719 555.859 524.719 549.657V409.198C524.719 402.996 529.747 397.968 535.949 397.968" stroke="white" stroke-width="0.5" stroke-miterlimit="10" stroke-linecap="round"/>
<path d="M747.323 560.887H555.23C549.028 560.887 544 555.859 544 549.657V409.198C544 402.996 549.028 397.968 555.23 397.968H747.323C753.525 397.968 758.553 402.996 758.553 409.198V549.657C758.553 555.859 753.525 560.887 747.323 560.887Z" fill="url(#paint0_linear_4_45080)"/>
<path d="M747.323 560.887H555.23C549.028 560.887 544 555.859 544 549.657V409.198C544 402.996 549.028 397.968 555.23 397.968H747.323C753.525 397.968 758.553 402.996 758.553 409.198V549.657C758.553 555.859 753.525 560.887 747.323 560.887Z" fill="#113D48"/>
<path d="M555.234 553.697C553.008 553.697 551.195 551.885 551.195 549.657V409.198C551.195 406.971 553.008 405.158 555.234 405.158H747.327C749.555 405.158 751.367 406.971 751.367 409.198V549.657C751.367 551.885 749.555 553.697 747.327 553.697H555.234Z" stroke="#0D0D0C" stroke-width="0.75" stroke-linecap="round" stroke-linejoin="round" stroke-dasharray="5 5"/>
<path d="M534.316 409.494L532.011 408.837C530.851 408.506 530.257 407.222 530.755 406.124L534.098 398.769C534.502 397.88 535.494 397.42 536.434 397.689C537.373 397.956 537.974 398.871 537.849 399.839L536.812 407.852C536.658 409.047 535.476 409.825 534.316 409.494Z" fill="white"/>
<path d="M724.356 504.818L679.088 523.741L678.154 521.507C679.296 521.03 679.835 519.717 679.358 518.575C678.88 517.432 677.567 516.893 676.425 517.371L675.408 514.938C676.55 514.461 677.09 513.148 676.612 512.006C676.135 510.864 674.829 510.342 673.687 510.819L672.67 508.387C673.812 507.909 674.351 506.596 673.874 505.454C673.396 504.312 672.083 503.773 670.941 504.25L669.924 501.818C671.066 501.341 671.605 500.027 671.128 498.885C670.65 497.743 669.337 497.204 668.195 497.682L667.262 495.448L712.53 476.525L713.463 478.759C712.321 479.237 711.782 480.55 712.259 481.692C712.737 482.834 714.05 483.373 715.192 482.896L716.209 485.328C715.067 485.805 714.528 487.119 715.005 488.261C715.483 489.403 716.796 489.942 717.938 489.464L718.955 491.897C717.813 492.374 717.266 493.672 717.744 494.812C718.221 495.954 719.534 496.494 720.676 496.016L721.693 498.448C720.551 498.926 720.012 500.239 720.489 501.381C720.967 502.523 722.28 503.062 723.422 502.585L724.356 504.818Z" fill="white"/>
<path d="M719.211 504.129L709.41 480.686L672.501 496.116L682.302 519.559L719.211 504.129Z" stroke="#0D0D0C" stroke-width="0.25" stroke-miterlimit="10" stroke-linecap="round" stroke-linejoin="round"/>
<path opacity="0.5" d="M614.446 459.626L610.328 462.861L613.252 467.205L608.333 469.003L609.765 474.04L604.53 474.228L604.342 479.462L599.305 478.031L597.509 482.949L593.163 480.025L589.93 484.143L586.697 480.025L582.352 482.949L580.555 478.03L575.517 479.461L575.328 474.228L570.096 474.038L571.527 469.001L566.608 467.205L569.532 462.861L565.414 459.626L569.532 456.393L566.609 452.048L571.527 450.252L570.097 445.215L575.33 445.025L575.518 439.792L580.555 441.223L582.352 436.306L586.697 439.228L589.93 435.11L593.163 439.228L597.509 436.306L599.307 441.223L604.344 439.794L604.532 445.026L609.765 445.216L608.335 450.252L613.252 452.049L610.328 456.393L614.446 459.626Z" fill="white"/>
<path d="M695.212 454.936L665.223 449.747L667.103 438.888L697.091 444.077L695.212 454.936Z" fill="url(#paint1_linear_4_45080)"/>
<path d="M292.241 184.999C292.241 184.999 283.308 185.824 281.156 178.394C281.156 178.394 286.209 177.112 290.478 181.219C290.478 181.219 288.134 177.43 288.684 174.493C288.684 174.493 293.326 176.083 293.822 182.568L292.241 184.999Z" fill="#0D0D0C"/>
<path d="M404.898 247.524C404.898 247.524 429.888 254.961 434.019 257.715C438.149 260.469 446.413 298.34 445.495 309.081C444.58 319.787 415.016 329.324 415.016 329.324L404.898 247.524Z" fill="url(#paint2_linear_4_45080)"/>
<path d="M444.811 113.573L448.984 97.3271C448.984 97.3271 425.436 100.266 421.992 99.5767C418.549 98.8877 416.141 98.8057 414.257 99.1409C412.374 99.476 410.034 101.481 411.641 103.101C413.246 104.72 422.44 106.233 423.037 107.06C423.633 107.886 427.513 114.393 427.513 114.393L423.984 163.633L396.442 148.451L391.555 182.478C391.555 182.478 435.674 202.769 445.588 193.542C455.998 183.853 444.811 113.573 444.811 113.573Z" fill="#FFC793"/>
<path d="M368.188 480.631L370.725 530.107L402.368 528.278L407.711 480.631H368.188Z" fill="url(#paint3_linear_4_45080)"/>
<path d="M368.187 521.386C368.187 521.386 387.802 508.841 413.447 509.635L403.578 535.34C403.578 535.34 418.864 531.484 431.809 530.933C451.914 530.078 444.754 560.698 444.754 560.698H364.881C364.881 560.698 362.954 551.182 369.012 539.335C369.014 533.555 368.187 524.553 368.187 521.386Z" fill="#113D48"/>
<path d="M445.715 554.409C445.356 558.091 444.752 560.695 444.752 560.695H364.882C364.882 560.695 364.206 557.372 364.911 552.194C368.981 552.439 380.833 553.388 386.37 556.682L445.715 554.409Z" fill="#0D0D0C"/>
<path d="M399.448 536.58C399.448 536.58 389.119 529.866 392.872 524.875C396.906 519.509 402.442 527.01 402.064 535.686C402.064 535.686 402.649 520.31 408.536 520.33C415.63 520.356 404.818 535.891 404.818 535.891C404.818 535.891 407.206 532.357 413.678 530.108C420.151 527.858 424.971 536.35 429.332 537.406" stroke="#0D0D0C" stroke-width="0.5" stroke-miterlimit="10" stroke-linecap="round" stroke-linejoin="round"/>
<path d="M257.582 445.18L227.309 484.999L252.911 504.201L288.07 470.927L257.582 445.18Z" fill="url(#paint4_linear_4_45080)"/>
<path d="M227.997 482.185C227.997 482.185 255.42 481.45 270.503 499.811L247.184 509.727L252.785 530.108C252.785 530.108 267.42 528.47 274.175 537.816C281.612 548.103 270.411 560.59 270.411 560.59H235.066L195.957 508.441C195.957 508.441 206.672 493.638 218.103 492.123L227.997 482.185Z" fill="#113D48"/>
<path d="M246.554 509.452C246.554 509.452 263.844 509.373 262.893 515.94C261.943 522.508 246.554 511.113 246.554 511.113C246.554 511.113 258.621 521.281 255.891 524.011C252.658 527.243 245.762 513.882 245.762 513.882C245.762 513.882 247.582 517.478 247.424 524.78C247.266 532.083 242.043 540.39 242.043 540.39" stroke="#0D0D0C" stroke-width="0.5" stroke-miterlimit="10" stroke-linecap="round" stroke-linejoin="round"/>
<path d="M407.668 240.474C407.668 240.474 414.574 258.501 420.425 304.782C425.538 345.222 425.634 434.44 416.795 469.144C415.517 474.157 412.718 477.217 410.649 478.558C409.754 483.034 406.885 496.369 406.885 496.369L367.224 490.378C367.224 490.378 366.399 482.942 366.077 479.136C351.951 464.188 365.802 411.859 368.126 388.407C360.456 342.637 364.306 244.166 364.306 244.166L407.668 240.474Z" fill="#1B1B1B"/>
<path d="M382.92 300.547L376.174 310.327C376.174 310.327 374.822 360.136 367.472 384.156C364.927 366.422 363.848 342.344 363.488 319.159C366.782 311.881 369.428 306.056 369.428 306.056L382.92 300.547Z" fill="#0D0D0C"/>
<path d="M327.215 245.526C327.215 245.526 317.835 255.506 315.494 265.962C311.894 282.041 315.494 302.124 315.494 302.124L308.775 363.381C308.775 363.381 275.527 397.88 261.691 419.206C250.865 435.893 255.779 443.485 255.779 443.485L243.559 460.29L277.986 482.183L287.764 475.714C287.764 475.714 295.525 475.565 302.223 470.206C308.921 464.848 354.85 406.25 364.387 377.813C375.137 345.761 373.666 242.515 373.666 242.515L327.215 245.526Z" fill="#1B1B1B"/>
<path d="M379.997 139.118C379.997 139.118 396.756 145.986 400.336 152.871C405.563 162.923 397.928 188.649 399.355 200.42C400.782 212.191 409.699 241.086 408.273 242.513C406.846 243.939 374.385 256.424 326.943 245.723C326.943 245.723 328.944 229.911 328.727 220.752C326.589 207.15 314.22 164.273 312.793 149.648C320.046 143.108 352.506 134.148 352.506 134.148L379.997 139.118Z" fill="url(#paint5_linear_4_45080)"/>
<mask id="mask0_4_45080" style="mask-type:luminance" maskUnits="userSpaceOnUse" x="312" y="134" width="97" height="117">
<path d="M380.001 139.118C380.001 139.118 396.76 145.986 400.34 152.871C405.567 162.923 397.932 188.649 399.359 200.42C400.786 212.191 409.703 241.086 408.277 242.513C406.85 243.939 374.388 256.424 326.947 245.723C326.947 245.723 328.948 229.911 328.731 220.752C326.593 207.15 314.224 164.273 312.797 149.648C320.05 143.108 352.51 134.148 352.51 134.148L380.001 139.118Z" fill="white"/>
</mask>
<g mask="url(#mask0_4_45080)">
<path d="M293.824 152.965C293.824 152.965 312.737 171.312 339.731 163.188C370.655 153.882 359.816 118.996 359.816 118.996" stroke="url(#paint6_linear_4_45080)" stroke-width="2" stroke-miterlimit="10"/>
<path d="M315.191 209.334C315.191 209.334 329.232 188.057 354.22 192.086C379.208 196.114 373.148 232.515 357.725 228.062C340.504 223.09 357.909 197.399 382.513 208.232C407.117 219.066 399.406 252.483 399.406 252.483" stroke="#113D48" stroke-width="2" stroke-miterlimit="10"/>
<path d="M395.732 135.705C395.732 135.705 377.672 147.616 381.774 165.264C386.368 185.028 417.765 183.812 417.765 183.812" stroke="#113D48" stroke-width="2" stroke-miterlimit="10"/>
</g>
<path d="M330.779 172.767C330.779 172.767 327.543 185.769 323.429 197.347C320.624 186.071 317.374 173.313 315.188 163.188L330.779 172.767Z" fill="#0D0D0C"/>
<path d="M346.661 85.8193C346.661 85.8193 342.987 91.4647 339.797 99.269C336.296 107.83 335.551 114.371 343.84 115.283C354.648 115.575 363.736 109.413 363.736 109.413L371.126 88.9117" fill="url(#paint7_linear_4_45080)"/>
<path d="M349.831 85.3086C349.831 85.3086 335.181 104.985 339.588 112.812C342.663 118.273 362.297 114.049 367.682 111.526C374.935 108.129 378.79 95.827 378.79 95.827" fill="#0D0D0C"/>
<path d="M377.095 123.828C377.095 123.828 384.531 125.618 389.589 122.763C396.824 118.681 404.227 77.2982 388.329 69.1832C372.432 61.0682 348.311 69.1415 351.235 90.2142C351.989 95.6424 355.375 111.743 355.375 111.743L352.508 134.149C352.508 134.149 360.623 142.099 379.997 139.117L377.095 123.828Z" fill="url(#paint8_linear_4_45080)"/>
<path d="M273.824 555.632C272.169 558.638 270.415 560.594 270.415 560.594H235.075L195.953 508.441C195.953 508.441 199.424 503.667 203.746 499.926C203.746 499.926 208.697 507.698 211.271 517.621L237.635 555.63H273.824V555.632Z" fill="#0D0D0C"/>
<path d="M346.707 297.101C346.707 297.101 341.074 359.874 337.526 371.28C332.385 387.805 270.414 456.982 270.414 456.982" stroke="#0D0D0C" stroke-width="0.5" stroke-miterlimit="10" stroke-linecap="round" stroke-linejoin="round"/>
<path d="M256.918 445.18C256.918 445.18 268.348 459.6 286.802 473.509" stroke="#0D0D0C" stroke-width="0.5" stroke-miterlimit="10" stroke-linecap="round" stroke-linejoin="round"/>
<path d="M367.27 479.155C367.27 479.155 392.885 482.276 408.308 479.155" stroke="#0D0D0C" stroke-width="0.5" stroke-miterlimit="10" stroke-linecap="round" stroke-linejoin="round"/>
<path d="M337.842 267.356L307.136 212.455C307.136 212.455 324.97 184.52 329.491 175.778C337.065 161.135 325.497 143.691 312.795 149.65C312.795 149.65 308.054 153.516 300.021 167.379C290.652 183.547 275.915 213.973 278.538 219.158C282.858 227.696 324.622 276.721 324.622 276.721C324.484 283.331 329.098 292.489 329.098 292.489L346.243 271.901C343.901 269.972 337.842 267.356 337.842 267.356Z" fill="#FFC793"/>
<path d="M347.546 268.827L325.418 294.705L329.731 298.894L350.922 271.265L347.546 268.827Z" fill="#0D0D0C"/>
<path d="M366.519 82.1472C366.519 82.1472 382.347 74.6881 395.498 79.4389C395.498 79.4389 397.173 83.9753 397.573 88.0702C397.573 88.0702 409.031 79.4231 406.79 74.5501C405.206 71.1067 400.937 72.5537 400.937 72.5537C400.937 72.5537 410.055 60.561 403.072 54.9271C396.415 49.5565 386.684 58.0943 386.684 58.0943C386.684 58.0943 368.643 56.9925 356.525 62.6394C344.406 68.2848 348.527 87.049 348.527 87.049L353.807 98.5829L361.751 96.5764L361.349 93.3488C361.349 93.3488 367.314 91.282 366.519 82.1472Z" fill="#0D0D0C"/>
<path d="M386.69 58.0943C386.69 58.0943 367.635 60.1654 347.413 88.7807C347.413 88.7807 328.667 72.5537 347.856 53.8254C355.069 46.7848 373.929 40.3987 386.69 58.0943Z" fill="url(#paint9_linear_4_45080)"/>
<path d="M359.802 94.2222C358.932 91.7684 355.745 85.3564 349.662 88.5351C342.571 92.2416 349.397 107.704 356.157 106.81C362.917 105.916 360.898 97.3131 359.802 94.2222Z" fill="url(#paint10_linear_4_45080)"/>
<path d="M370.875 56.5593C370.616 56.6988 370.358 56.8426 370.104 56.9908C367.362 58.5815 366.541 62.1629 368.339 64.7735C368.339 64.7735 374.829 60.04 380.182 58.6103C377.977 55.7768 374.037 54.8606 370.875 56.5593Z" fill="#0D0D0C"/>
<path d="M377.095 123.828C377.095 123.828 367.917 121.412 362.949 113.854C362.949 113.854 364.38 126.623 378.358 130.475L377.095 123.828Z" fill="#0D0D0C"/>
<path d="M423.977 163.633L431.946 168.135L424.351 158.415L423.977 163.633Z" fill="url(#paint11_linear_4_45080)"/>
<path d="M327.898 142.118C327.898 142.118 391.553 172.06 421.507 266.801L430.621 263.867C430.621 263.867 408.433 181.975 340.651 135.704L327.898 142.118Z" fill="url(#paint12_linear_4_45080)"/>
<path d="M419.512 265.428L431.405 262.03L433.742 269.835L422.082 273.358L419.512 265.428Z" fill="#0D0D0C"/>
<path d="M426.932 319.518C425.494 307.752 421.596 285.66 420.359 278.698L437.677 273.247C437.677 273.247 441.659 294.431 442.553 303.164C443.654 313.947 430.756 318.262 426.932 319.518Z" stroke="#0D0D0C" stroke-width="0.25" stroke-miterlimit="10" stroke-linecap="round" stroke-linejoin="round" stroke-dasharray="2 2"/>
<path d="M289.102 188.076C289.102 188.076 300.802 198.225 313.255 202.777L318.865 193.771C318.865 193.771 304.612 184.361 294.606 177.204L289.102 188.076Z" fill="#A4C9A1"/>
<path d="M458.2 71.1396C457.892 71.1784 457.595 71.2518 457.303 71.3467L409.05 82.4879C406.207 82.8489 404.397 87.056 405.01 91.8844C405.623 96.7128 408.426 100.335 411.269 99.9735L460.775 98.7063C461.081 98.725 461.387 98.7222 461.695 98.6833C466.176 98.1152 469.025 91.4874 468.058 83.8816C467.095 76.2758 462.681 70.5715 458.2 71.1396Z" fill="#113D48"/>
<path d="M466.617 84.0515C467.431 90.465 464.972 96.06 461.125 96.5476C457.277 97.0366 453.497 92.2327 452.683 85.8192C451.869 79.4058 454.328 73.8107 458.176 73.3231C462.025 72.8355 465.803 77.6381 466.617 84.0515Z" fill="url(#paint13_linear_4_45080)"/>
<path d="M435.083 74.0742C434.775 74.113 434.476 74.1864 434.185 74.2813L385.933 85.4225C383.089 85.7835 381.28 89.9906 381.893 94.819C382.505 99.6474 385.307 103.271 388.152 102.908L437.658 101.641C437.964 101.66 438.272 101.657 438.58 101.618C443.06 101.05 445.909 94.422 444.943 86.8162C443.978 79.2104 439.562 73.506 435.083 74.0742Z" fill="#113D48"/>
<path d="M443.5 86.9861C444.314 93.3995 441.855 98.9946 438.007 99.4822C434.16 99.9712 430.38 95.1672 429.566 88.7538C428.752 82.3403 431.211 76.7453 435.059 76.2577C438.906 75.7701 442.686 80.5741 443.5 86.9861Z" fill="url(#paint14_linear_4_45080)"/>
<path d="M397.043 93.5193C397.043 93.5193 399.724 102.722 399.77 136.07C399.79 150.878 395.261 178.048 414.46 176.283C434.428 174.446 440.155 129.595 435.019 101.711L431.948 101.79C431.948 101.79 435.207 117.252 433.28 133.41C431.353 149.568 430.159 173.3 414.598 175.044C399.807 176.703 403.668 144.436 403.902 136.256C404.22 125.146 404.728 102.103 402.434 92.5557L397.043 93.5193Z" fill="#0D0D0C"/>
<path d="M386.273 86.8613L428.596 78.5996" stroke="#0D0D0C" stroke-width="0.5" stroke-miterlimit="10" stroke-linecap="round" stroke-linejoin="round"/>
<path d="M588.38 254.097C583.035 261.226 570.043 274.92 570.043 274.92C567.668 275.919 534.708 242.162 535.646 240.925C535.603 236.783 533.432 232.405 532.036 228.313C530.948 225.127 530.215 219.795 528.39 217.534C527.248 216.119 524.706 215.98 523.657 220.711C523.176 222.883 523.783 226.753 523.485 227.931C523.186 229.109 521.536 226.808 519.038 223.894C516.538 220.98 508.518 210.667 506.951 209.649C504.361 207.966 501.978 211.94 506.045 217.721C508.624 221.386 511.738 224.964 513.316 227.181C509.434 226.785 508.981 230.3 508.892 230.651C507.315 230.799 506.401 231.458 505.88 231.94C505.3 232.476 504.801 233.811 505.549 234.899C503.018 236.696 503.971 239.416 504.447 240.259C504.922 241.102 508.066 243.934 510.357 243.549C513.983 250.002 515.722 251.485 521.346 252.849C523.237 253.308 535.306 281.493 561.747 302.791C563.904 304.529 568.682 308.937 573.524 307.253C585.702 303.016 613.5 275.961 613.5 275.961C604.748 267.717 593.948 258.491 588.38 254.097Z" fill="url(#paint15_linear_4_45080)"/>
<path d="M514.685 231.411C515.529 232.724 517.137 234.559 517.381 236.259C517.551 237.436 516.554 238.513 515.398 238.238C513.968 237.899 512.511 236.16 511.535 235.298C510.403 234.132 509.241 232.865 508.905 231.221C508.944 232.944 510.066 234.414 511.129 235.674C511.952 236.623 513.393 238.146 514.793 238.828C514.946 239.829 515.079 242.267 512.5 241.309C509.285 240.117 505.848 235.271 505.848 235.271C506.144 236.081 508.346 239.321 510.807 241.033C511.024 241.525 511.354 242.592 510.57 243.357C510.57 243.357 511.53 243.13 511.561 241.497C512.158 241.823 512.762 242.044 513.347 242.093C515.952 242.316 515.831 240.118 515.647 239.121C516.452 239.282 517.197 239.051 517.741 238.109C519.093 235.767 516.224 233.042 514.685 231.411Z" fill="url(#paint16_linear_4_45080)"/>
<path d="M637.887 234.861C637.887 234.861 616.078 229.177 611.128 230.407C606.831 231.474 593.438 247.018 580.375 262.245C583.836 266.353 596.73 280.087 604.294 287.217L637.887 234.861Z" fill="#1CA8CB"/>
<path d="M595.712 351.176C634.266 365.331 675.552 347.278 675.552 347.278C675.552 347.278 669.13 333.083 668.457 330.698C667.968 329.017 670.741 283.717 670.741 283.717C670.741 283.717 660.969 256.224 653.021 249.803C645.102 243.382 626.208 242.252 626.208 242.252C626.208 242.252 603.306 263.395 600.677 270.58C598.017 277.734 598.378 287.304 596.795 307.403C594.693 334.09 595.712 351.176 595.712 351.176Z" fill="#1CA8CB"/>
<path d="M655.332 274.804L661.737 309.345L676.367 308.6L675.555 293.82L655.332 274.804Z" fill="#1C1C23"/>
<path d="M607.464 240.449L569.271 265.116L526.746 263.126L493.438 282.412L531.124 359.53L559.17 339.286L597.479 339.96L633.381 315.554L607.464 240.449Z" fill="white" stroke="#1C1C23" stroke-width="0.5" stroke-miterlimit="10" stroke-linecap="round" stroke-linejoin="round"/>
<path opacity="0.3" d="M499.078 284.131L528.525 267.307L570.928 269.516L605.18 247.062L628.226 313.841L595.842 335.619L557.436 335.214L532.752 353.034L499.078 284.131Z" fill="#113D48"/>
<path d="M526.742 263.126L559.166 339.286" stroke="#1C1C23" stroke-width="0.5" stroke-miterlimit="10" stroke-linecap="round" stroke-linejoin="round"/>
<path d="M569.27 265.116L597.478 339.96" stroke="#1C1C23" stroke-width="0.5" stroke-miterlimit="10" stroke-linecap="round" stroke-linejoin="round"/>
<path d="M696.518 289.938C683.957 292.903 673.752 293.595 665.616 293.371C665.616 293.371 669.213 301.758 670.174 304.915C664.99 303.117 646.251 294.647 635.23 289.551C635.1 287.862 635.246 285.695 626.929 280.049C622.108 276.777 621.871 272.514 619.355 273.361C617.292 274.056 617.876 277.521 619.415 280.153C619.644 280.544 619.929 280.952 620.228 281.36C617.4 280.96 612.391 279.457 612.391 279.457C612.391 279.457 606.816 277.315 603.823 276.64C601.487 276.114 599.489 277.197 599.68 278.55C597.334 277.552 595.685 277.128 593.87 277.594C592.191 278.025 591.685 279.757 593.765 281.318C594.59 281.938 597.579 284.246 598.941 285.02C598.121 284.704 597.313 284.356 596.533 284.245C593.317 283.79 591.712 286.437 595.292 288.525C597.055 289.554 598.541 290.435 599.709 291.213C599.447 291.144 599.178 291.071 598.938 291.022C596.579 290.537 593.7 292.583 597.493 294.903C601.083 297.099 603.334 298.484 605.445 299.33C614.406 302.918 623.246 305.27 626.574 304.538C644.911 317.362 660.451 326.09 678.237 334.873C691.115 341.234 701.847 336.292 703.383 324.523C703.983 319.945 698.885 298.393 696.518 289.938Z" fill="url(#paint17_linear_4_45080)"/>
<path d="M617.297 287.213C617.297 287.213 611.112 285.674 608.379 284.494C607.473 284.106 600.361 281.152 599.304 279.705C598.934 279.198 598.93 278.597 598.93 278.252C599.16 278.338 599.419 278.439 599.678 278.554C599.678 278.554 599.739 279.007 599.98 279.288C600.715 280.148 604.841 282.236 608.897 283.876C612.364 285.285 617.297 287.213 617.297 287.213Z" fill="url(#paint18_linear_4_45080)"/>
<path d="M615.73 291.931C614.824 291.787 609.042 290.852 606.755 289.975C605.245 289.399 601.002 287.156 598.168 285.487C597.334 284.984 596.658 284.552 596.184 284.207C596.299 284.221 596.414 284.236 596.529 284.25C597.262 284.351 598.025 284.653 598.787 284.941C598.873 284.984 598.931 285.012 598.931 285.012C598.931 285.012 603.088 287.788 607.1 289.342C610.15 290.521 614.867 291.715 615.73 291.931Z" fill="url(#paint19_linear_4_45080)"/>
<path d="M613.413 296.188C612.579 296.073 605.848 295.066 603.46 293.916C601.432 292.966 598.584 291.571 597.477 291.025C597.951 290.924 598.455 290.924 598.944 291.025C599.159 291.068 599.433 291.14 599.677 291.197C599.692 291.212 599.706 291.212 599.706 291.212C599.706 291.212 603.144 293.024 605.819 293.945C608.307 294.807 612.766 296.001 613.413 296.188Z" fill="url(#paint20_linear_4_45080)"/>
<path d="M682.733 247.192C680.742 243.609 654.587 236.915 654.587 236.915L644.488 252.037L654.579 272.621L664.42 301.238C667.717 300.802 688.381 295.014 698.408 291.482C692.66 272.263 684.629 250.602 682.733 247.192Z" fill="#1CA8CB"/>
<path d="M697.446 201.704C690.181 225.225 662.115 237.443 634.76 228.995C607.404 220.546 591.117 194.629 598.382 171.107C605.647 147.586 633.713 135.367 661.068 143.816C688.423 152.266 704.711 178.183 697.446 201.704Z" fill="#1CA8CB"/>
<path opacity="0.5" d="M677.238 196.506C673.055 210.046 656.404 216.927 640.044 211.874C623.685 206.821 613.814 191.749 617.995 178.208C622.177 164.667 638.829 157.786 655.188 162.839C671.548 167.893 681.42 182.965 677.238 196.506Z" fill="#113D48"/>
<path d="M676.919 231.062C647.275 244.179 620.983 228.962 617.775 224.1C621.227 218.088 630.116 206.553 627.383 201.533C624.636 196.513 617.646 195.938 617.775 183.525C617.79 182.605 617.833 181.742 617.905 180.936C619.401 164.453 633.611 171.803 635.049 171.53L664.65 172.609C665.973 173.745 667.512 175.241 668.965 177.082C672.748 181.785 676.085 188.775 674.1 197.779V197.793C670.288 211.328 671.755 224.287 676.919 231.062Z" fill="#0D0D0C"/>
<path d="M654.27 215.134C664.452 203.146 663.625 189.02 663.625 189.02C663.723 165.195 630.909 165.291 623.316 181.344C618.35 191.842 616.549 210.287 619.214 217.204C621.821 223.97 627.677 227.692 634.947 226.868L632.657 233.345C632.657 233.345 629.625 232.813 628.873 232.712C624.945 239.35 624.126 257.906 637.884 257.202C651.643 256.499 656.925 237.532 656.925 237.532L652.103 236.043L654.27 215.134Z" fill="url(#paint21_linear_4_45080)"/>
<path d="M668.404 192.126C665.096 206.135 659.947 207.214 659.947 207.214C659.947 207.214 659.487 203.992 657.387 201.015C654.409 196.757 649.605 191.824 650.77 187.523C649.519 188.3 647.577 188.976 644.471 189.192C635.639 189.796 625.168 184.186 620.81 188.113C620.81 188.113 619.041 188.099 618.452 185.337C618.452 185.337 617.963 183.582 617.905 180.936C617.891 180.734 617.891 180.533 617.891 180.317C617.891 176.089 619.027 169.904 624.492 164.798C632.504 157.319 651.705 158.426 661.184 170.048C661.184 170.048 662.665 170.925 664.65 172.608C665.973 173.744 667.512 175.24 668.965 177.081C670.015 180.691 669.929 185.697 668.404 192.126Z" fill="#0D0D0C"/>
<path d="M656.268 200.146C656.268 200.146 662.473 195.712 665.707 199.01C670.237 203.628 661.031 214.633 656.396 212.757C650.852 210.515 656.268 200.146 656.268 200.146Z" fill="url(#paint22_linear_4_45080)"/>
<path d="M670.172 304.914C670.172 304.914 682.086 308.897 687.261 311.883C687.261 311.883 679.141 303.627 668.797 301.236L670.172 304.914Z" fill="#1C1C23"/>
<path d="M634.952 226.869C634.952 226.869 642.002 225.52 647.354 219.697C647.354 219.697 644.296 227.671 633.387 231.297L634.952 226.869Z" fill="#1C1C23"/>
<path d="M538.337 437.826L513.447 460.812C513.447 460.812 499.509 453.852 496.387 443.355C509.129 425.231 518.297 412.377 518.297 412.377" fill="url(#paint23_linear_4_45080)"/>
<path d="M449.96 438.181L493.564 480.05C495.124 481.507 497.542 481.491 499.077 480.004C502.635 476.568 508.407 473.507 511.656 466.845C513.083 463.906 513.637 462.727 513.457 460.801C513.457 460.801 508.876 458.262 507.439 455.449C505.958 452.548 507.277 448.167 507.446 447.54C507.606 446.951 514.392 442.336 513.743 438.645C510.868 431.422 499.892 424.663 498.622 423.93C494.632 429.802 491.688 432.909 488.993 434.1C481.981 431.536 474.766 427.697 462.531 424.633C458.071 423.528 453.124 424.148 448.077 430.603C447.04 432.531 448.347 436.701 449.96 438.181Z" fill="url(#paint24_linear_4_45080)"/>
<path d="M448.073 430.604C448.794 429.785 499.7 479.427 499.7 479.427C499.727 479.731 497.62 484.772 493.059 487.069C493.059 487.069 457.025 445.895 446.213 435.659C445.038 434.546 447.121 431.727 448.073 430.604Z" fill="#0D0D0C"/>
<path d="M490.215 434.687C490.215 434.687 496.541 439.817 497.615 447.534" stroke="white" stroke-width="0.75" stroke-miterlimit="10" stroke-linecap="round"/>
<path d="M490.118 445.457C488.076 437.897 483.191 432.943 483.191 432.943" stroke="white" stroke-width="0.75" stroke-miterlimit="10" stroke-linecap="round"/>
<path d="M475.227 429.844C475.227 429.844 480.422 432.841 483.429 443.019" stroke="white" stroke-width="0.75" stroke-miterlimit="10" stroke-linecap="round"/>
<path d="M675.551 347.277C675.551 347.277 670.733 349.082 666.396 350.532C649.279 342.986 606.867 318.163 591.479 323.907C572.299 331.069 514.223 417.143 514.223 417.143C518.61 426.961 534.766 440.526 545.169 442.109C545.169 442.109 592.525 392.988 601.218 379.032C601.218 379.032 622.047 395.489 632.5 397.996H678.051C678.051 397.996 693.697 375.511 675.551 347.277Z" fill="url(#paint25_linear_4_45080)"/>
<path d="M681.31 358.755C675.6 355.533 666.395 350.528 666.395 350.528C670.738 349.09 675.557 347.277 675.557 347.277C678.102 351.233 679.972 355.073 681.31 358.755Z" fill="#0D0D0C"/>
<path d="M632.5 397.996H650.61C650.61 397.996 619.303 361.778 593.78 374.723C590.966 376.15 587.355 379.374 584.83 383.353C577.759 394.485 572.689 411.186 571.285 414.331C577.729 407.312 584.359 399.962 589.839 393.548L589.815 393.463L610.415 380.081L632.5 397.996Z" fill="#0D0D0C"/>
<path d="M608.258 479.877L619.169 513.987C619.169 513.987 635.615 514.848 643.955 506.824C641.683 483.516 639.95 466.918 639.95 466.918" fill="url(#paint26_linear_4_45080)"/>
<path d="M652.055 536.324C656.977 541.72 658.355 549.572 658.454 553.227L613.975 560.283C613.153 557.427 610.328 549.704 619.398 543.084C619.457 543.061 618.539 514.612 618.539 514.612C614.653 512.367 611.382 507.438 608.613 500.327L637.24 492.559C638.302 499.3 639.936 504.978 643.907 506.322C643.907 506.322 646.251 507.109 647.088 511.567C647.429 513.378 647.308 518.847 647.308 518.847L652.055 536.324Z" fill="url(#paint27_linear_4_45080)"/>
<path d="M660.653 560.284H613.269C612.767 559.654 612.175 556.331 612.916 554.608C612.916 554.608 625.367 554.884 638.499 553.338C652.958 551.637 658.054 549.483 658.054 549.483C658.962 550.897 661.302 555.365 660.653 560.284Z" fill="#0D0D0C"/>
<path d="M635.834 534.384C623.784 538.322 619.396 543.083 619.396 543.083C619.409 543.081 619.379 542.041 619.285 538.651C628.069 534.392 635.834 534.384 635.834 534.384Z" fill="url(#paint28_linear_4_45080)"/>
<path d="M623.023 514.151C627.261 515.789 636.713 514.011 639.507 510.935" stroke="white" stroke-width="0.75" stroke-miterlimit="10" stroke-linecap="round"/>
<path d="M623.152 521.421C629.093 523.28 637.848 521.779 641.284 517.897" stroke="white" stroke-width="0.75" stroke-miterlimit="10" stroke-linecap="round"/>
<path d="M622.738 528.87C627.797 531.467 638.374 530.047 643.679 525.18" stroke="white" stroke-width="0.75" stroke-miterlimit="10" stroke-linecap="round"/>
<path d="M644.172 483.672C631.055 487.714 612.428 489.915 608.228 490.361C600.893 467.261 582.569 408.333 582.799 396.899C583.13 380.186 592.91 375.31 599.268 373.555C618.843 368.161 633.169 390.196 637.887 415.899C641.396 435.057 643.381 468.081 644.172 483.672Z" fill="url(#paint29_linear_4_45080)"/>
<path d="M769.776 382.584C773.934 382.584 777.305 379.212 777.305 375.054C777.305 370.896 773.934 367.524 769.776 367.524C765.617 367.524 762.246 370.896 762.246 375.054C762.246 379.212 765.617 382.584 769.776 382.584Z" fill="#0D0D0C"/>
<path d="M232.246 154.142C235.389 154.142 237.938 151.593 237.938 148.45C237.938 145.307 235.389 142.759 232.246 142.759C229.103 142.759 226.555 145.307 226.555 148.45C226.555 151.593 229.103 154.142 232.246 154.142Z" fill="#0D0D0C"/>
<path d="M234.147 76.1296C231.515 72.426 228.399 70.0182 225.215 68.4994C219.029 65.2632 211.605 64.4131 204.467 66.7691C197.307 69.1322 191.847 74.231 188.823 80.5079C187.167 83.6247 186.097 87.4132 186.185 91.9554C186.176 94.7558 186.57 97.6065 187.498 100.417C187.531 100.519 187.58 100.595 187.606 100.677C194.526 123.371 224.903 137.189 227.426 136.356C229.928 135.531 246.119 106.349 238.194 83.9857L238.106 83.7196C237.179 80.9077 235.82 78.3763 234.147 76.1296ZM216.473 103.163C210.338 105.186 203.736 101.86 201.713 95.7267C199.695 89.6138 203.022 83.0105 209.156 80.9868C215.269 78.9703 221.872 82.2957 223.889 88.41C225.912 94.5429 222.587 101.145 216.473 103.163Z" fill="#113D48"/>
<path d="M789.717 289.764C787.303 284.701 784.025 281.112 780.473 278.588C773.637 273.34 764.79 270.732 755.608 272.081C746.4 273.435 738.677 278.479 733.666 285.468C730.991 288.907 728.885 293.286 728.029 298.83C727.425 302.234 727.3 305.784 727.831 309.398C727.851 309.531 727.893 309.631 727.907 309.738C731.506 338.805 765.516 362.054 768.763 361.578C771.982 361.104 797.864 329.052 792.972 300.174L792.922 299.832C792.391 296.218 791.277 292.851 789.717 289.764ZM762.489 318.888C754.599 320.048 747.276 314.602 746.116 306.713C744.96 298.851 750.407 291.527 758.296 290.367C766.158 289.212 773.482 294.657 774.638 302.52C775.797 310.41 770.35 317.732 762.489 318.888Z" fill="#113D48"/>
<path d="M232.246 148.451C250.7 65.4267 415.181 -70.6278 555.867 46.6668C615.737 96.5821 606.034 159.682 560.825 168.135C480.952 183.068 476.071 55.7066 592.404 17.2734C687.443 -14.125 837.259 48.5726 845.611 187.358C852.97 309.622 769.78 375.054 769.78 375.054" stroke="#0D0D0C" stroke-width="0.75" stroke-miterlimit="10" stroke-linecap="round" stroke-linejoin="round" stroke-dasharray="7 7"/>
<path d="M471.52 546.645L486.787 550.041L482.094 535.121L471.52 546.645Z" fill="#0D0D0C"/>
<path opacity="0.1" d="M766.09 257.642C772.84 257.642 778.313 252.17 778.313 245.419C778.313 238.669 772.84 233.196 766.09 233.196C759.34 233.196 753.867 238.669 753.867 245.419C753.867 252.17 759.34 257.642 766.09 257.642Z" fill="url(#paint30_linear_4_45080)"/>
<path opacity="0.1" d="M792.175 268.878C794.253 268.878 795.937 267.194 795.937 265.117C795.937 263.039 794.253 261.355 792.175 261.355C790.098 261.355 788.414 263.039 788.414 265.117C788.414 267.194 790.098 268.878 792.175 268.878Z" fill="url(#paint31_linear_4_45080)"/>
<path d="M79.0167 222.918C81.7636 222.918 83.9904 220.691 83.9904 217.944C83.9904 215.198 81.7636 212.971 79.0167 212.971C76.2698 212.971 74.043 215.198 74.043 217.944C74.043 220.691 76.2698 222.918 79.0167 222.918Z" fill="white"/>
<path d="M1 560.699H926.216" stroke="#0D0D0C" stroke-miterlimit="10" stroke-linecap="round"/>
<path d="M468.828 569.91H753.868" stroke="#0D0D0C" stroke-miterlimit="10" stroke-linecap="round"/>
<path d="M330.84 569.91H450.098" stroke="#0D0D0C" stroke-miterlimit="10" stroke-linecap="round"/>
<path d="M148.516 569.91H311.091" stroke="#0D0D0C" stroke-miterlimit="10" stroke-linecap="round"/>
<defs>
<linearGradient id="paint0_linear_4_45080" x1="651.276" y1="399.122" x2="651.276" y2="546.441" gradientUnits="userSpaceOnUse">
<stop stop-color="#E4816F"/>
<stop offset="1" stop-color="#E25E52"/>
</linearGradient>
<linearGradient id="paint1_linear_4_45080" x1="696.846" y1="457.049" x2="668.888" y2="445.026" gradientUnits="userSpaceOnUse">
<stop stop-color="#E6832C"/>
<stop offset="1" stop-color="#E9A347"/>
</linearGradient>
<linearGradient id="paint2_linear_4_45080" x1="424.979" y1="321.292" x2="425.347" y2="257.577" gradientUnits="userSpaceOnUse">
<stop stop-color="#E6832C"/>
<stop offset="1" stop-color="#E9A347"/>
</linearGradient>
<linearGradient id="paint3_linear_4_45080" x1="392.009" y1="450.109" x2="384.573" y2="510.151" gradientUnits="userSpaceOnUse">
<stop stop-color="#FFCBCA"/>
<stop offset="1" stop-color="#E994A8"/>
</linearGradient>
<linearGradient id="paint4_linear_4_45080" x1="257.69" y1="430.589" x2="257.69" y2="496.691" gradientUnits="userSpaceOnUse">
<stop stop-color="#FFCBCA"/>
<stop offset="1" stop-color="#E994A8"/>
</linearGradient>
<linearGradient id="paint5_linear_4_45080" x1="360.611" y1="251.014" x2="360.611" y2="126.799" gradientUnits="userSpaceOnUse">
<stop stop-color="#53B0B1"/>
<stop offset="1" stop-color="#6ACAD8"/>
</linearGradient>
<linearGradient id="paint6_linear_4_45080" x1="292.823" y1="142.635" x2="363.095" y2="142.635" gradientUnits="userSpaceOnUse">
<stop stop-color="#53B0B1"/>
<stop offset="1" stop-color="#6ACAD8"/>
</linearGradient>
<linearGradient id="paint7_linear_4_45080" x1="369.513" y1="49.6329" x2="351.519" y2="106.186" gradientUnits="userSpaceOnUse">
<stop stop-color="#8AB9FD"/>
<stop offset="1" stop-color="#0056E9"/>
</linearGradient>
<linearGradient id="paint8_linear_4_45080" x1="374.121" y1="66.6545" x2="374.956" y2="139.546" gradientUnits="userSpaceOnUse">
<stop stop-color="#FFCBCA"/>
<stop offset="1" stop-color="#E994A8"/>
</linearGradient>
<linearGradient id="paint9_linear_4_45080" x1="367.496" y1="48.9903" x2="349.501" y2="105.544" gradientUnits="userSpaceOnUse">
<stop stop-color="#8AB9FD"/>
<stop offset="1" stop-color="#0056E9"/>
</linearGradient>
<linearGradient id="paint10_linear_4_45080" x1="353.445" y1="65.6133" x2="354.34" y2="143.701" gradientUnits="userSpaceOnUse">
<stop stop-color="#FFCBCA"/>
<stop offset="1" stop-color="#E994A8"/>
</linearGradient>
<linearGradient id="paint11_linear_4_45080" x1="423.977" y1="163.275" x2="431.947" y2="163.275" gradientUnits="userSpaceOnUse">
<stop stop-color="#FFCBCA"/>
<stop offset="1" stop-color="#E994A8"/>
</linearGradient>
<linearGradient id="paint12_linear_4_45080" x1="327.899" y1="201.252" x2="430.621" y2="201.252" gradientUnits="userSpaceOnUse">
<stop stop-color="#E4816F"/>
<stop offset="1" stop-color="#E25E52"/>
</linearGradient>
<linearGradient id="paint13_linear_4_45080" x1="457.685" y1="69.453" x2="461.275" y2="97.7335" gradientUnits="userSpaceOnUse">
<stop stop-color="#113D48"/>
<stop offset="1" stop-color="white"/>
</linearGradient>
<linearGradient id="paint14_linear_4_45080" x1="434.568" y1="72.388" x2="438.157" y2="100.668" gradientUnits="userSpaceOnUse">
<stop stop-color="#113D48"/>
<stop offset="1" stop-color="white"/>
</linearGradient>
<linearGradient id="paint15_linear_4_45080" x1="569.427" y1="152.802" x2="553.189" y2="290.345" gradientUnits="userSpaceOnUse">
<stop stop-color="#FFCBCA"/>
<stop offset="1" stop-color="#E994A8"/>
</linearGradient>
<linearGradient id="paint16_linear_4_45080" x1="505.849" y1="237.289" x2="518.093" y2="237.289" gradientUnits="userSpaceOnUse">
<stop stop-color="#FFCBCA"/>
<stop offset="1" stop-color="#E994A8"/>
</linearGradient>
<linearGradient id="paint17_linear_4_45080" x1="661.926" y1="182.939" x2="647.956" y2="301.271" gradientUnits="userSpaceOnUse">
<stop stop-color="#FFCBCA"/>
<stop offset="1" stop-color="#E994A8"/>
</linearGradient>
<linearGradient id="paint18_linear_4_45080" x1="598.93" y1="282.732" x2="617.297" y2="282.732" gradientUnits="userSpaceOnUse">
<stop stop-color="#FFCBCA"/>
<stop offset="1" stop-color="#E994A8"/>
</linearGradient>
<linearGradient id="paint19_linear_4_45080" x1="596.184" y1="288.069" x2="615.73" y2="288.069" gradientUnits="userSpaceOnUse">
<stop stop-color="#FFCBCA"/>
<stop offset="1" stop-color="#E994A8"/>
</linearGradient>
<linearGradient id="paint20_linear_4_45080" x1="597.477" y1="293.569" x2="613.413" y2="293.569" gradientUnits="userSpaceOnUse">
<stop stop-color="#FFCBCA"/>
<stop offset="1" stop-color="#E994A8"/>
</linearGradient>
<linearGradient id="paint21_linear_4_45080" x1="642.906" y1="180.17" x2="628.86" y2="299.152" gradientUnits="userSpaceOnUse">
<stop stop-color="#FFCBCA"/>
<stop offset="1" stop-color="#E994A8"/>
</linearGradient>
<linearGradient id="paint22_linear_4_45080" x1="663.085" y1="182.553" x2="649.038" y2="301.535" gradientUnits="userSpaceOnUse">
<stop stop-color="#FFCBCA"/>
<stop offset="1" stop-color="#E994A8"/>
</linearGradient>
<linearGradient id="paint23_linear_4_45080" x1="536.192" y1="414.86" x2="495.403" y2="467.904" gradientUnits="userSpaceOnUse">
<stop stop-color="#FFCBCA"/>
<stop offset="1" stop-color="#E994A8"/>
</linearGradient>
<linearGradient id="paint24_linear_4_45080" x1="514.066" y1="451.861" x2="448.166" y2="453.311" gradientUnits="userSpaceOnUse">
<stop stop-color="#E6832C"/>
<stop offset="1" stop-color="#E9A347"/>
</linearGradient>
<linearGradient id="paint25_linear_4_45080" x1="599.271" y1="335.318" x2="599.271" y2="404.074" gradientUnits="userSpaceOnUse">
<stop stop-color="#E4816F"/>
<stop offset="1" stop-color="#E25E52"/>
</linearGradient>
<linearGradient id="paint26_linear_4_45080" x1="622.198" y1="459.875" x2="632.069" y2="529.91" gradientUnits="userSpaceOnUse">
<stop stop-color="#FFCBCA"/>
<stop offset="1" stop-color="#E994A8"/>
</linearGradient>
<linearGradient id="paint27_linear_4_45080" x1="624.927" y1="492.718" x2="636.624" y2="559.073" gradientUnits="userSpaceOnUse">
<stop stop-color="#E6832C"/>
<stop offset="1" stop-color="#E9A347"/>
</linearGradient>
<linearGradient id="paint28_linear_4_45080" x1="627.028" y1="535.403" x2="628.143" y2="541.731" gradientUnits="userSpaceOnUse">
<stop stop-color="#E6832C"/>
<stop offset="1" stop-color="#E9A347"/>
</linearGradient>
<linearGradient id="paint29_linear_4_45080" x1="613.484" y1="378.189" x2="613.484" y2="478.772" gradientUnits="userSpaceOnUse">
<stop stop-color="#E4816F"/>
<stop offset="1" stop-color="#E25E52"/>
</linearGradient>
<linearGradient id="paint30_linear_4_45080" x1="714.446" y1="194.218" x2="778.894" y2="258.115" gradientUnits="userSpaceOnUse">
<stop stop-color="#8AB9FD"/>
<stop offset="1" stop-color="#0056E9"/>
</linearGradient>
<linearGradient id="paint31_linear_4_45080" x1="785.674" y1="258.616" x2="796.166" y2="269.108" gradientUnits="userSpaceOnUse">
<stop stop-color="#8AB9FD"/>
<stop offset="1" stop-color="#0056E9"/>
</linearGradient>
</defs>
</svg>
