<svg width="20" height="20" viewBox="0 0 20 20" fill="none" xmlns="http://www.w3.org/2000/svg">
<path d="M15.6001 8.92958C15.4395 9.08191 15.2248 9.16699 15.0014 9.16699C14.778 9.16699 14.5633 9.08191 14.4027 8.92958C12.9319 7.52673 10.9609 5.95958 11.9221 3.68437C12.4418 2.45418 13.6894 1.66699 15.0014 1.66699C16.3134 1.66699 17.5609 2.45418 18.0806 3.68437C19.0406 5.95672 17.0745 7.53157 15.6001 8.92958Z" stroke="#113D48"/>
<path d="M15 5H15.0075" stroke="#113D48" stroke-width="2" stroke-linecap="round" stroke-linejoin="round"/>
<path d="M4.16797 18.333C5.54868 18.333 6.66797 17.2137 6.66797 15.833C6.66797 14.4523 5.54868 13.333 4.16797 13.333C2.78726 13.333 1.66797 14.4523 1.66797 15.833C1.66797 17.2137 2.78726 18.333 4.16797 18.333Z" stroke="#113D48" stroke-linecap="round" stroke-linejoin="round"/>
<path d="M9.16667 5.83301H7.91667C6.30583 5.83301 5 6.9523 5 8.33301C5 9.71376 6.30583 10.833 7.91667 10.833H10.4167C12.0275 10.833 13.3333 11.9523 13.3333 13.333C13.3333 14.7138 12.0275 15.833 10.4167 15.833H9.16667" stroke="#113D48" stroke-linecap="round" stroke-linejoin="round"/>
</svg>
