<svg width="40" height="59" viewBox="0 0 40 59" fill="none" xmlns="http://www.w3.org/2000/svg">
<path opacity="0.2" d="M30.2295 22.4793C28.105 17.9618 23.3436 15.1423 18.3574 15.4217L14.5311 7.28662C14.6415 6.58144 14.5397 5.86925 14.2349 5.22223C13.4076 3.46261 11.9426 2.12953 10.1096 1.46923C8.277 0.809329 6.29768 0.900647 4.53728 1.72836C0.900975 3.43919 -0.666253 7.78965 1.04419 11.4267C1.34507 12.066 1.82741 12.5959 2.44166 12.9627L6.15953 20.8679C2.29493 24.5413 1.22097 30.2237 3.49298 35.0549L12.3976 53.9893C13.3373 55.9881 14.5631 57.2271 16.1447 57.777C17.6078 58.2855 19.1204 58.1828 21.1863 57.3988C21.5375 57.7555 21.9707 58.0322 22.446 58.2031C22.816 58.3366 23.2012 58.4041 23.5898 58.4041C24.0859 58.4041 24.5666 58.296 25.0185 58.0829C25.8342 57.7005 26.4507 57.023 26.7559 56.1754C26.9268 55.7005 26.9897 55.1916 26.9393 54.6952L30.5885 52.9789C31.2199 53.6181 32.0878 53.9818 32.9916 53.9818C33.4869 53.9818 33.9669 53.8745 34.4188 53.6626C35.7101 53.0558 36.4832 51.6685 36.3333 50.2554C38.1097 49.2162 39.1388 48.1211 39.6621 46.7174C40.2467 45.1486 40.0742 43.4148 39.1337 41.4156L30.2295 22.4793ZM11.2518 17.7807L7.80364 10.4492C7.91369 9.74243 7.81222 9.03024 7.509 8.38516C7.49222 8.35004 7.49105 8.31375 7.50432 8.27628C7.52578 8.21853 7.56559 8.1998 7.57963 8.19278C7.62295 8.1717 7.66627 8.18146 7.68774 8.18926C7.7252 8.20253 7.75485 8.22868 7.76968 8.2599C8.07408 8.90888 8.55876 9.44312 9.17262 9.80839L12.6197 17.1372L11.2518 17.7807Z" fill="black"/>
<path d="M38.4106 40.2688L29.5063 21.3337C27.3186 16.682 22.5358 14.0678 17.6909 14.3963L13.7825 6.08645C13.9008 5.4082 13.811 4.71162 13.5121 4.07708C12.707 2.36429 11.2811 1.0675 9.49687 0.424767C7.71306 -0.218357 5.78759 -0.128605 4.07363 0.676472C0.534494 2.34165 -0.990586 6.57543 0.674202 10.1153C0.978984 10.7632 1.46757 11.2638 2.04553 11.5963L5.84964 19.6849C2.08533 23.1827 0.821716 28.8503 3.1226 33.7435L12.0272 52.6779C12.9439 54.6268 14.133 55.8326 15.662 56.3641C16.2516 56.569 16.8433 56.6599 17.4419 56.6599C18.4967 56.6599 19.5722 56.3766 20.6919 55.9415C21.0361 56.3208 21.4696 56.6131 21.9652 56.7914C22.3164 56.9179 22.6805 56.9807 23.0431 56.9807C23.5036 56.9807 23.9617 56.8793 24.389 56.6779C25.157 56.3177 25.7381 55.6796 26.0253 54.8816C26.2045 54.3832 26.256 53.8603 26.1818 53.351L30.0862 51.5142C30.6915 52.1823 31.5543 52.5588 32.4449 52.5588C32.896 52.5588 33.3542 52.4621 33.7889 52.258C35.0833 51.6496 35.7748 50.2712 35.577 48.9229C37.1352 48.0289 38.3516 46.9779 38.9323 45.4209C39.4978 43.9028 39.3269 42.2181 38.4106 40.2688ZM7.05433 9.24861C7.16867 8.58909 7.0914 7.89016 6.78584 7.24001C6.73667 7.13582 6.75267 7.04177 6.77453 6.98089C6.79677 6.9204 6.84477 6.83728 6.94936 6.78811C7.1156 6.70889 7.32282 6.78499 7.40009 6.94851C7.69863 7.58578 8.17863 8.09973 8.77726 8.44158L12.3328 16.0022L10.6118 16.8116L7.05433 9.24861Z" fill="white"/>
<path d="M24.1454 53.2834C24.4322 53.8942 24.1704 54.6224 23.5597 54.9092C22.9493 55.1968 22.2211 54.9342 21.9343 54.3234L20.2051 50.6469C19.9179 50.0358 20.1801 49.308 20.7909 49.0208C21.4016 48.7336 22.1294 48.9958 22.4166 49.6062L24.1454 53.2834Z" fill="url(#paint0_linear_1424_22448)"/>
<path d="M33.5443 48.8633C33.8311 49.4744 33.5693 50.2022 32.9582 50.4894C32.3474 50.7762 31.6196 50.5136 31.3328 49.9037L29.6036 46.2268C29.3168 45.6164 29.5786 44.8878 30.1894 44.6006C30.8001 44.3138 31.5279 44.576 31.8147 45.1868L33.5443 48.8633Z" fill="url(#paint1_linear_1424_22448)"/>
<path d="M18.3563 20.3955L16.8815 21.0886L9.71936 5.85846C9.0376 4.40987 7.30531 3.78586 5.85749 4.46684C4.40968 5.14821 3.78528 6.88012 4.46665 8.32871L11.63 23.5592L10.1553 24.2527L2.99231 9.02257C1.92889 6.76149 2.90372 4.0563 5.16442 2.99327C7.42511 1.92946 10.1299 2.9043 11.1933 5.16538L18.3563 20.3955Z" fill="url(#paint2_linear_1424_22448)"/>
<path d="M11.0629 6.80298C10.3511 7.13821 9.50156 6.83225 9.16712 6.11966C8.62897 4.97702 7.26154 4.48375 6.11891 5.02151C4.9751 5.55927 4.48221 6.9267 5.02036 8.07012C5.35558 8.78231 5.05003 9.6307 4.33705 9.9667C3.62407 10.3019 2.77567 9.99558 2.44045 9.28377C1.23381 6.71752 2.33977 3.64863 4.90525 2.4416C7.4715 1.23496 10.5408 2.3413 11.7466 4.90678C12.0815 5.61859 11.7759 6.46776 11.0629 6.80298Z" fill="url(#paint3_linear_1424_22448)"/>
<path d="M4.88812 32.9118C2.49474 27.8223 4.67972 21.7567 9.76892 19.3633L14.192 17.2829C19.2815 14.8899 25.3471 17.0749 27.7401 22.1637L36.6444 41.0988C39.0377 46.1876 34.5117 47.2748 29.4225 49.6678L24.9994 51.7486C19.9102 54.1416 16.1861 56.9342 13.7927 51.8458L4.88812 32.9118Z" fill="url(#paint4_linear_1424_22448)"/>
<path d="M19.6819 49.5382C19.8021 49.7923 19.6921 50.0959 19.438 50.2157C19.184 50.3351 18.8804 50.2258 18.7606 49.9714L8.053 27.2029C7.93319 26.9484 8.04247 26.6456 8.2973 26.525C8.55135 26.4052 8.85496 26.5153 8.97438 26.7697L19.6819 49.5382Z" fill="url(#paint5_linear_1424_22448)"/>
<path d="M22.8155 48.0643C22.9345 48.3179 22.8256 48.6219 22.5712 48.7413C22.3171 48.8611 22.0135 48.7515 21.8941 48.4971L11.1866 25.7286C11.0668 25.4741 11.176 25.1701 11.4301 25.0503C11.6845 24.9309 11.9881 25.0402 12.1079 25.295L22.8155 48.0643Z" fill="url(#paint6_linear_1424_22448)"/>
<path d="M25.9482 46.5885C26.068 46.8433 25.9587 47.1461 25.7043 47.2663C25.4499 47.3858 25.1462 47.2757 25.0272 47.0217L14.3189 24.2536C14.1995 23.9991 14.3087 23.6955 14.5632 23.5757C14.8168 23.4563 15.1205 23.5656 15.2403 23.8204L25.9482 46.5885Z" fill="url(#paint7_linear_1424_22448)"/>
<path d="M29.0812 45.1153C29.2011 45.3697 29.0914 45.6729 28.8373 45.7927C28.5825 45.9129 28.2789 45.8036 28.1599 45.5492L17.4519 22.7803C17.3321 22.5259 17.4414 22.2227 17.6958 22.1036C17.9503 21.9831 18.2531 22.0931 18.3733 22.3475L29.0812 45.1153Z" fill="url(#paint8_linear_1424_22448)"/>
<path d="M32.2137 43.641C32.3335 43.8954 32.2246 44.1986 31.9706 44.3184C31.7161 44.4378 31.4129 44.3286 31.2927 44.0745L20.5856 21.3056C20.4661 21.0512 20.575 20.748 20.8295 20.629C21.0839 20.5084 21.3871 20.6188 21.5069 20.8729L32.2137 43.641Z" fill="url(#paint9_linear_1424_22448)"/>
<defs>
<linearGradient id="paint0_linear_1424_22448" x1="20.8241" y1="53.3164" x2="23.5264" y2="50.614" gradientUnits="userSpaceOnUse">
<stop stop-color="#34395D"/>
<stop offset="1" stop-color="#34393F"/>
</linearGradient>
<linearGradient id="paint1_linear_1424_22448" x1="30.2228" y1="48.8963" x2="32.925" y2="46.194" gradientUnits="userSpaceOnUse">
<stop stop-color="#34395D"/>
<stop offset="1" stop-color="#34393F"/>
</linearGradient>
<linearGradient id="paint2_linear_1424_22448" x1="4.5836" y1="18.681" x2="14.8363" y2="8.42836" gradientUnits="userSpaceOnUse">
<stop stop-color="#34395D"/>
<stop offset="1" stop-color="#34393F"/>
</linearGradient>
<linearGradient id="paint3_linear_1424_22448" x1="2.74352" y1="9.70695" x2="9.86063" y2="2.58983" gradientUnits="userSpaceOnUse">
<stop stop-color="#F3881E"/>
<stop offset="1" stop-color="#F3511E"/>
</linearGradient>
<linearGradient id="paint4_linear_1424_22448" x1="8.30033" y1="46.9738" x2="30.8534" y2="24.4208" gradientUnits="userSpaceOnUse">
<stop stop-color="#F1E108"/>
<stop offset="1" stop-color="#F1B708"/>
</linearGradient>
<linearGradient id="paint5_linear_1424_22448" x1="10.4925" y1="41.7458" x2="17.2428" y2="34.9954" gradientUnits="userSpaceOnUse">
<stop stop-color="#F3881E"/>
<stop offset="1" stop-color="#F3511E"/>
</linearGradient>
<linearGradient id="paint6_linear_1424_22448" x1="13.6255" y1="40.2715" x2="20.3761" y2="33.5209" gradientUnits="userSpaceOnUse">
<stop stop-color="#F3881E"/>
<stop offset="1" stop-color="#F3511E"/>
</linearGradient>
<linearGradient id="paint7_linear_1424_22448" x1="16.7586" y1="38.7962" x2="23.5087" y2="32.0462" gradientUnits="userSpaceOnUse">
<stop stop-color="#F3881E"/>
<stop offset="1" stop-color="#F3511E"/>
</linearGradient>
<linearGradient id="paint8_linear_1424_22448" x1="19.8912" y1="37.323" x2="26.6418" y2="30.5724" gradientUnits="userSpaceOnUse">
<stop stop-color="#F3881E"/>
<stop offset="1" stop-color="#F3511E"/>
</linearGradient>
<linearGradient id="paint9_linear_1424_22448" x1="23.0243" y1="35.8489" x2="29.7748" y2="29.0984" gradientUnits="userSpaceOnUse">
<stop stop-color="#F3881E"/>
<stop offset="1" stop-color="#F3511E"/>
</linearGradient>
</defs>
</svg>
