<?xml version="1.0" encoding="utf-8"?>
<!-- Generator: Adobe Illustrator 23.0.2, SVG Export Plug-In . SVG Version: 6.00 Build 0)  -->
<svg version="1.1" id="Layer_1" xmlns="http://www.w3.org/2000/svg" xmlns:xlink="http://www.w3.org/1999/xlink" x="0px" y="0px"
	 viewBox="0 0 40 60" style="enable-background:new 0 0 40 60;" xml:space="preserve">
<style type="text/css">
	.st0{fill:#458350;}
	.st1{fill:#7E604D;}
	.st2{fill:#8E6E59;}
	.st3{fill:#AC866B;}
	.st4{fill:#51A560;}
	.st5{fill:#A0775C;}
	.st6{fill:#B08568;}
	.st7{fill:#CE9C7A;}
</style>
<g id="_x31_5">
	<g>
		<g>
			<g>
				<g>
					<path class="st0" d="M16.3,27.7l0.4-0.4l0.5,0.1l-0.4-0.2l0.9-0.2l0.6,0.4L18,26.9l1.3,0.2l0.5,0.5l0.1-0.2l0.8,0.8
						c0,0,0.1-0.3,0.1-0.2s1.2,1.2,1.2,1.2s-1.3-0.9-1.9-0.9h-1.1l0.1-0.5l-0.3,0.4l-0.8,0.1l0.3-0.6l-0.5,0.5l-0.6,0.1l0.2-0.5
						l-0.3,0.1l-0.5,0.3L16.3,27.7z"/>
					<path class="st0" d="M27.8,29.9l-0.3-0.5L27,29.4l0.5-0.1l-0.8-0.5L26,29.1l0.3-0.3L25,28.6L24.3,29l-0.1-0.3l-1,0.6
						c0,0,0.1-0.3,0-0.2S21.6,30,21.6,30s1.5-0.6,2.1-0.5l1.1,0.3l0.1-0.5l0.2,0.5l0.7,0.2l-0.2-0.7L26,30l0.6,0.2l-0.1-0.5l0.3,0.1
						l0.3,0.5L27.8,29.9z"/>
					<path class="st0" d="M28.3,27.2l-0.5-0.3l-0.5,0.1l0.3-0.3l-0.9-0.2l-0.6,0.5l0.2-0.5l-1.4,0.5l-0.5,0.6l-0.1-0.2l-0.7,0.9
						c0,0-0.1-0.3-0.1-0.2s-1.2,1.4-1.2,1.4s1.2-1.1,1.8-1.2l1.1-0.2l-0.1-0.5l0.3,0.3l0.8-0.1L26,27.3l0.6,0.4l0.6-0.1l-0.3-0.5
						h0.3l0.5,0.3L28.3,27.2z"/>
					<path class="st0" d="M25.8,23.4c-0.2,0.1-0.3,0.1-0.5,0.2c-0.1,0.2-0.1,0.3-0.2,0.6c0-0.2,0-0.3,0-0.5
						c-0.2,0.3-0.5,0.5-0.7,0.7c0,0.3,0,0.6,0,0.8c-0.1-0.2-0.1-0.3-0.2-0.5c-0.2,0.5-0.4,0.8-0.7,1.3c0,0.3,0,0.6-0.1,0.8
						c-0.1-0.1-0.2-0.1-0.2-0.1c0,0.4-0.1,0.8-0.2,1.2c0,0-0.2-0.2-0.2-0.2c0.1,0.1-0.6,2-0.6,2c0.1,0,0.9-1.7,1.3-2.1
						c0.3-0.3,0.6-0.6,0.9-0.9c-0.1-0.1-0.2-0.2-0.3-0.3c0.2,0,0.3,0.1,0.5,0.1c0.2-0.2,0.4-0.5,0.6-0.7c-0.2-0.1-0.5-0.1-0.7-0.2
						c0.2-0.1,0.5-0.1,0.7-0.1c0.1-0.2,0.3-0.4,0.4-0.6c-0.2-0.1-0.3-0.1-0.5-0.1c0.1-0.1,0.2-0.2,0.2-0.3c0.2-0.1,0.3-0.2,0.5-0.2
						C25.9,23.9,25.9,23.7,25.8,23.4z"/>
					<path class="st0" d="M17.7,24.6l0.6-0.1l0.5,0.4l-0.2-0.5l1,0.5l0.3,0.8v-0.6l1.1,1.2l0.2,0.9l0.2-0.2l0.3,1.4
						c0,0,0.2-0.2,0.2-0.2c-0.1,0.1,0.5,2.1,0.5,2.1s-0.7-1.9-1.2-2.3L20,27.2l0.3-0.3L19.8,27l-0.7-0.5l0.6-0.3L19,26.2l-0.6-0.5
						l0.5-0.3l-0.3-0.2H18L17.7,24.6z"/>
					<path class="st0" d="M19.3,22.8l0.7,0.3l0.3,0.5l0.2-0.5l0.7,0.8l-0.1,1l0.2-0.7l0.6,1v0.9l0.3-0.5l-0.1,1.7
						c0,0,0.5-0.5,0.5-0.4c-0.1,0.1-0.3,2.4-0.3,2.4s-0.3-1.3-0.6-2.1c-0.1-0.3-0.3-0.4-0.5-0.6L20.6,26l0.6-0.3l-0.5,0.1l-0.6-0.7
						l0.5-0.2l-0.5-0.1l-0.5-0.6l-0.3-0.6L19.3,22.8z"/>
					<path class="st0" d="M17.8,29.6c0.1-0.1,0.1-0.2,0.2-0.3c0,0,0,0,0.1-0.1c0.1,0,0.1-0.1,0.2-0.1c0.1-0.1,0.1-0.2,0-0.2l0,0
						c-0.1-0.1-0.1-0.1,0-0.2c0.2-0.1,0.3-0.2,0.5-0.3h0.1c0.2,0.1,0.5,0.1,0.7,0.2c-0.1-0.1-0.1-0.1-0.2-0.1
						c-0.1-0.1-0.1-0.2,0.1-0.2c0.2-0.1,0.4-0.1,0.6-0.1c0,0,0,0,0.1,0c0.1,0.1,0.2,0.1,0.3,0.1c0.1,0.1,0.2-0.1,0.1-0.2l-0.1-0.1
						c0.3,0.2,0.7,0.4,1,0.6c0.1,0.1,0.2-0.1,0.2-0.1c-0.1-0.1-0.1-0.2-0.1-0.2c0.1,0,0.6,0.5,1,1c0.1,0.1,0,0.2-0.1,0.2
						c-0.3-0.2-0.7-0.4-1-0.5c-0.3-0.1-0.4,0-0.5,0l0,0c-0.3,0-1-0.4-1.2-0.3c0-0.2,0.5,0.1,0.4-0.1c0,0.1-0.1,0.2-0.1,0.2
						s-0.1,0.1-0.1,0.1c-0.2,0.1-0.3,0.1-0.5,0.2c-0.1,0-0.1,0-0.1-0.1s0-0.1,0-0.2c-0.1,0.1-0.1,0.2-0.2,0.2L19,29.4
						c-0.1,0.1-0.3,0.1-0.4,0.2l0,0c-0.1,0.1-0.3,0.1-0.4,0.2c0,0,0,0-0.1,0c-0.1,0-0.2,0-0.3,0C17.8,29.8,17.7,29.7,17.8,29.6z"/>
					<path class="st0" d="M24.2,22.4c-0.1,0.3-0.2,0.5-0.2,0.8c-0.1,0.2-0.3,0.3-0.4,0.5c0.2,0,0.4-0.1,0.6-0.1
						c-0.2,0.3-0.3,0.6-0.3,0.9c-0.3,0.2-0.6,0.3-0.8,0.5c0.2-0.1,0.4-0.2,0.6-0.3c-0.2,0.3-0.3,0.7-0.3,1c-0.2,0.2-0.4,0.5-0.5,0.7
						c0.2-0.1,0.3-0.1,0.6-0.2c-0.3,0.4-0.7,0.8-0.8,1.4c0,0,0.6-0.2,0.6-0.2c-0.2-0.1-0.8,2.2-0.6,2.3c-0.1,0-0.4-1.5-0.4-2.4
						c0-0.4-0.1-0.6-0.2-0.8c0-0.3,0-0.7,0.1-1.1c0.2,0.1,0.5,0.1,0.6,0.2c-0.1-0.1-0.3-0.2-0.4-0.3c0-0.3,0.1-0.6,0.1-1
						c0.1,0.1,0.3,0.2,0.4,0.2c-0.1-0.2-0.1-0.3-0.2-0.5c0.1-0.2,0.2-0.5,0.3-0.7s0.3-0.5,0.5-0.6C23.7,22.7,23.9,22.5,24.2,22.4z"
						/>
				</g>
				<g>
					<path class="st1" d="M22.1,30.3c-0.1,0-0.1,0-0.1-0.1l-0.6-1.1c0-0.1,0-0.1,0.1-0.2c0.1-0.1,0.1,0,0.1,0.1l0.6,1.1
						C22.3,30.1,22.3,30.3,22.1,30.3C22.2,30.3,22.1,30.3,22.1,30.3z"/>
				</g>
				<g>
					<path class="st1" d="M21.9,31C21.9,31,21.8,31,21.9,31l-0.7-0.9c-0.1-0.1-0.1-0.1,0-0.2s0.1-0.1,0.2,0l0.7,0.8
						c0.1,0.1,0.1,0.1,0,0.2C21.9,31,21.9,31,21.9,31z"/>
				</g>
				<g>
					<path class="st1" d="M22.4,29.8L22.4,29.8c-0.1,0-0.1-0.1-0.1-0.1l0.1-0.9c0-0.1,0.1-0.1,0.1-0.1s0.1,0.1,0.1,0.1l-0.1,0.9
						C22.5,29.7,22.5,29.8,22.4,29.8z"/>
				</g>
				<g>
					<path class="st1" d="M22.5,30.4L22.5,30.4c-0.1-0.1-0.1-0.1-0.1-0.2l0.5-0.8c0.1-0.1,0.1-0.1,0.1-0.1c0.1,0.1,0.1,0.1,0.1,0.2
						L22.5,30.4C22.6,30.4,22.6,30.4,22.5,30.4z"/>
				</g>
				<g>
					<path class="st1" d="M22.6,31.2L22.6,31.2c-0.1-0.1-0.1-0.1-0.1-0.2l0.5-0.9c0.1-0.1,0.1-0.1,0.1-0.1c0.1,0.1,0.1,0.1,0,0.2
						l-0.5,0.9C22.7,31.2,22.7,31.2,22.6,31.2z"/>
				</g>
				<path class="st1" d="M22.4,30.9L21.7,31c-0.1,0.4-0.1,0.8-0.1,1.2l-0.1-0.1c0-0.1-0.1-0.1-0.1-0.1c-0.1,0.1-0.1,0.1-0.1,0.2
					l0.2,0.5c0,0.3,0,0.6-0.1,0.9h-0.1c-0.1,0-0.1,0.1-0.1,0.2l0.1,0.3c0,0.4,0,0.8,0,1.2h-0.1c-0.1,0-0.1,0.1-0.1,0.2l0.1,0.3
					c0,0.5,0,0.8,0,1.3c-0.1,0-0.1-0.1-0.1,0c-0.1,0.1-0.1,0.1-0.1,0.2l0.2,0.3c0,0.6,0,1.1,0,1.7L21.6,39c-0.1-0.1-0.1-0.1-0.1-0.1
					c-0.1,0.1-0.1,0.1-0.1,0.2l0.2,0.5c0,0.5,0,0.9,0,1.4h1v-0.1C21.6,37.7,21.7,34.3,22.4,30.9z"/>
				<path class="st1" d="M22.9,30.5c0,0.6-0.3,0.7-0.6,0.7l0,0h-0.1c-0.4,0-0.8-0.2-0.8-0.8c0-0.7,0.5-1.6,0.8-1.6
					c0.2,0,0.4,0.3,0.5,0.6C22.9,29.8,22.9,30.2,22.9,30.5z"/>
			</g>
			<path class="st2" d="M22.9,30.5c0,0.6-0.3,0.7-0.6,0.7l0,0c-0.1-0.1-0.1-0.1-0.2-0.2c-0.4-0.5-0.2-1.1,0.2-1.5
				c0.1-0.1,0.3-0.2,0.4-0.1C22.9,29.8,22.9,30.2,22.9,30.5z"/>
			<path class="st2" d="M22.9,38c0.1-0.1,0-0.1-0.1-0.2c-0.1,0-0.1,0-0.1,0c0-0.1,0-0.2,0-0.3c0-0.4,0-0.7,0-1.1l0.1-0.3
				c0-0.1,0-0.1-0.1-0.2h-0.1c0-0.5,0-1,0-1.4l0.1-0.3c0-0.1,0-0.1-0.1-0.2h-0.1c0-0.2,0-0.3,0-0.5c0-0.2,0-0.5,0-0.7l0.2-0.5
				c0-0.1,0-0.1-0.1-0.2c-0.1,0-0.1,0-0.1,0.1c0-0.5-0.1-1-0.1-1.4h-0.3c-0.6,3.1-0.7,6.3,0.2,9.3v0.1l0,0c0.1,0.2,0.1,0.4,0.2,0.6
				c0-0.3,0-0.6,0-1l0.2-0.3c0-0.1,0-0.1-0.1-0.2c-0.1,0-0.1,0-0.1,0c0-0.5,0-0.9,0-1.3L22.9,38z"/>
			<path class="st3" d="M22.4,31.5c-0.1,0.1-0.5,5.9,0.1,8.2C22.5,38.2,22.4,31.5,22.4,31.5z"/>
		</g>
		<path class="st0" d="M21.6,40.9l0.1-0.3c0.1,0.1,0.2-0.1,0.2-0.1c0.2,0.2,0.3,0.3,0.3,0.3l0.1-0.2c0.1-0.1,0.3,0.2,0.3,0.2
			c0.1-0.1,0.2-0.2,0.2-0.2l0.1,0.2l0.1-0.3l0.1,0.3v0.3L21.6,40.9z"/>
	</g>
	<g>
		<g>
			<g>
				<g>
					<path class="st4" d="M11.7,25.2l0.5-0.5l0.6,0.1l-0.5-0.3l1.1-0.3l0.7,0.5l-0.3-0.5l1.6,0.2l0.6,0.6l0.1-0.3l1,1
						c0,0,0.1-0.3,0.1-0.3c0,0.1,1.5,1.5,1.5,1.5s-1.5-1.1-2.2-1.2H15l0.1-0.6l-0.2,0.5l-1,0.1l0.4-0.7l-0.6,0.6L13,25.7l0.3-0.6
						l-0.4,0.1l-0.6,0.4L11.7,25.2z"/>
					<path class="st4" d="M25.8,27.8l-0.3-0.6l-0.6-0.1l0.5-0.2l-1-0.6l-0.8,0.3l0.5-0.4l-1.6-0.2l-0.8,0.5l-0.1-0.3L20.2,27
						c0,0,0.1-0.3,0-0.3c-0.1,0.1-1.9,1.1-1.9,1.1s1.9-0.7,2.5-0.6l1.4,0.3l0.1-0.6l0.2,0.6l0.9,0.3l-0.1-0.7l0.5,0.7l0.7,0.2
						l-0.1-0.6l0.4,0.2l0.5,0.6L25.8,27.8z"/>
					<path class="st4" d="M26.4,24.5l-0.5-0.4l-0.6,0.1l0.5-0.3l-1.2-0.2l-0.7,0.6l0.3-0.5l-1.6,0.5l-0.6,0.7l-0.2-0.3l-0.9,1.1
						c0,0-0.1-0.3-0.1-0.2c0,0.1-1.4,1.7-1.4,1.7s1.5-1.4,2.2-1.5l1.4-0.2l-0.1-0.6l0.4,0.5l1-0.1l-0.5-0.7l0.7,0.5l0.7-0.1
						l-0.3-0.5h0.4l0.6,0.3L26.4,24.5z"/>
					<path class="st4" d="M23.4,20c-0.2,0.1-0.4,0.2-0.6,0.2c-0.1,0.2-0.2,0.5-0.2,0.7c0-0.2,0-0.5,0-0.6c-0.2,0.3-0.5,0.6-0.8,0.9
						c0,0.3,0,0.7,0,1c-0.1-0.2-0.1-0.4-0.2-0.6c-0.2,0.6-0.5,1.1-0.8,1.5c0,0.3,0,0.7-0.1,1c-0.1-0.1-0.2-0.1-0.3-0.1
						c-0.1,0.5-0.1,1-0.2,1.5c0,0-0.2-0.3-0.2-0.2c0.1,0.1-0.7,2.4-0.7,2.4c0.1,0,1.1-2,1.6-2.6c0.4-0.3,0.7-0.7,1.1-1.1
						c-0.2-0.1-0.3-0.2-0.5-0.4c0.2,0.1,0.4,0.1,0.6,0.1c0.2-0.3,0.5-0.6,0.7-0.8c-0.3-0.1-0.6-0.1-0.8-0.2c0.3-0.1,0.6-0.1,0.8-0.2
						c0.2-0.2,0.3-0.5,0.5-0.7c-0.2-0.1-0.4-0.1-0.6-0.1c0.1-0.1,0.2-0.2,0.3-0.4c0.2-0.1,0.4-0.2,0.6-0.3
						C23.4,20.6,23.4,20.2,23.4,20z"/>
					<path class="st4" d="M13.5,21.3l0.7-0.1l0.5,0.5l-0.3-0.6l1.2,0.6l0.4,1V22l1.3,1.4l0.3,1.1l0.3-0.2l0.3,1.6
						c0,0,0.2-0.3,0.2-0.2c-0.1,0.1,0.6,2.5,0.6,2.5s-0.8-2.3-1.4-2.8l-1.2-1l0.3-0.5l-0.6,0.2l-0.9-0.6l0.7-0.4L15,23.3l-0.7-0.5
						l0.6-0.3l-0.4-0.2h-0.7L13.5,21.3z"/>
					<path class="st4" d="M15.4,19.2l0.8,0.5l0.4,0.6l0.3-0.6l0.8,0.9l-0.1,1.1l0.2-0.8l0.7,1.2v1.1l0.5-0.6l-0.2,2.1
						c0,0,0.6-0.6,0.6-0.5S19,27.3,19,27.3s-0.3-1.6-0.7-2.5c-0.2-0.4-0.4-0.5-0.5-0.7L17.1,23l0.6-0.3l-0.6,0.1l-0.7-0.8l0.5-0.2
						l-0.6-0.2l-0.6-0.7l-0.3-0.7L15.4,19.2z"/>
					<path class="st4" d="M13.6,27.5c0.1-0.1,0.1-0.2,0.2-0.3c0,0,0,0,0-0.1C13.9,27,13.9,27,14,27s0.1-0.2,0-0.2l0,0
						c-0.1-0.1-0.1-0.2,0-0.2c0.2-0.1,0.4-0.2,0.6-0.3h0.1c0.3,0.1,0.6,0.2,0.8,0.2c-0.1-0.1-0.2-0.1-0.3-0.1
						c-0.1-0.1-0.1-0.2,0.1-0.2C15.5,26,15.7,26,16,26h0.1c0.2,0.1,0.3,0.1,0.5,0.2c0.1,0.1,0.2-0.1,0.2-0.2l-0.1-0.1
						c0.5,0.2,0.8,0.5,1.2,0.7c0.1,0.1,0.2-0.1,0.2-0.2S18,26.3,18,26.3c0.1,0,0.7,0.6,1.2,1.2c0.1,0.1-0.1,0.3-0.2,0.2
						c-0.4-0.2-0.8-0.5-1.2-0.6c-0.3-0.1-0.5,0-0.6,0l0,0c-0.3,0-1.2-0.5-1.5-0.5c0-0.2,0.5,0.1,0.5-0.1c0,0.1-0.1,0.2-0.1,0.3
						s-0.1,0.1-0.1,0.1c-0.2,0.1-0.3,0.1-0.5,0.2c-0.1,0-0.2,0-0.2-0.1c0-0.1,0-0.2,0-0.2c-0.1,0.1-0.1,0.2-0.2,0.3l-0.1,0.1
						c-0.2,0.1-0.3,0.2-0.5,0.2l0,0c-0.2,0.1-0.3,0.1-0.5,0.2h-0.1c-0.1,0-0.3,0-0.4,0C13.6,27.7,13.5,27.6,13.6,27.5z"/>
					<path class="st4" d="M21.5,18.7c-0.1,0.3-0.2,0.6-0.2,0.9c-0.2,0.2-0.3,0.4-0.5,0.6c0.2-0.1,0.5-0.1,0.7-0.1
						c-0.2,0.4-0.3,0.7-0.4,1.1c-0.3,0.2-0.7,0.4-1,0.6c0.2-0.2,0.5-0.3,0.7-0.4c-0.2,0.4-0.3,0.8-0.4,1.2c-0.2,0.2-0.5,0.5-0.6,0.8
						c0.2-0.1,0.5-0.1,0.7-0.2c-0.5,0.5-0.8,1-1.1,1.7c0,0,0.7-0.3,0.7-0.2c-0.3-0.1-1,2.7-0.7,2.8c-0.1,0-0.5-1.8-0.5-2.9
						c0-0.5-0.2-0.7-0.2-1c0-0.5,0.1-0.9,0.1-1.3c0.3,0.1,0.5,0.1,0.8,0.2c-0.2-0.1-0.3-0.2-0.5-0.3c0-0.4,0.1-0.8,0.2-1.2
						c0.2,0.1,0.3,0.2,0.5,0.3c-0.1-0.2-0.2-0.3-0.2-0.6c0.1-0.3,0.2-0.6,0.3-0.9c0.2-0.3,0.3-0.5,0.6-0.8
						C20.7,19.1,21.1,18.9,21.5,18.7z"/>
				</g>
				<g>
					<path class="st5" d="M18.9,28.3c-0.1,0-0.1,0-0.1-0.1l-0.7-1.3c-0.1-0.1,0-0.2,0.1-0.2c0.1-0.1,0.1,0,0.2,0.1l0.7,1.3
						C19,28.2,19,28.3,18.9,28.3C18.9,28.3,18.9,28.3,18.9,28.3z"/>
				</g>
				<g>
					<path class="st5" d="M18.5,29.2c-0.1,0-0.1,0-0.1-0.1l-0.8-1.1c-0.1-0.1-0.1-0.2,0-0.2c0.1-0.1,0.1-0.1,0.2,0l0.8,1.1
						C18.6,29,18.6,29.1,18.5,29.2C18.6,29.1,18.5,29.2,18.5,29.2z"/>
				</g>
				<g>
					<path class="st5" d="M19.2,27.7L19.2,27.7c-0.1,0-0.1-0.1-0.1-0.2l0.1-1.1c0-0.1,0.1-0.1,0.1-0.1s0.1,0.1,0.1,0.2l-0.1,1.1
						C19.3,27.6,19.3,27.7,19.2,27.7z"/>
				</g>
				<g>
					<path class="st5" d="M19.4,28.4L19.4,28.4c-0.1-0.1-0.1-0.1-0.1-0.2l0.5-1c0.1-0.1,0.1-0.1,0.2-0.1c0.1,0.1,0.1,0.1,0.1,0.2
						l-0.5,1C19.4,28.3,19.4,28.4,19.4,28.4z"/>
				</g>
				<g>
					<path class="st5" d="M19.5,29.4L19.5,29.4c-0.1-0.1-0.1-0.1-0.1-0.2l0.6-1.1c0.1-0.1,0.1-0.1,0.2-0.1c0.1,0.1,0.1,0.1,0.1,0.2
						l-0.6,1.1C19.6,29.4,19.5,29.4,19.5,29.4z"/>
				</g>
				<path class="st5" d="M19.2,29.1l-0.7,0.1c-0.1,0.5-0.1,1-0.1,1.5l-0.1-0.2c-0.1-0.1-0.1-0.1-0.2-0.1C18,30.4,18,30.5,18,30.5
					l0.3,0.6c0,0.3,0,0.7-0.1,1.1c0,0-0.1,0-0.1,0c-0.1,0.1-0.1,0.1-0.1,0.2l0.1,0.4c0,0.5,0,1,0,1.5c-0.1,0-0.1,0-0.1,0
					C18,34.3,18,34.4,18,34.4l0.2,0.4c0,0.5,0,1.1,0,1.6c-0.1-0.1-0.1-0.1-0.1,0C18,36.4,18,36.5,18,36.6l0.2,0.3c0,0.7,0,1.4,0,2.1
					l-0.1-0.2c-0.1-0.1-0.1-0.1-0.2-0.1c-0.1,0.1-0.1,0.1-0.1,0.2l0.3,0.6c0,0.6,0,1.1,0,1.6h1.2v-0.1
					C18.2,37.3,18.4,33.1,19.2,29.1z"/>
				<path class="st5" d="M19.8,28.6c0,0.7-0.3,0.8-0.8,0.8l0,0c-0.1,0-0.1,0-0.1,0c-0.5,0-1-0.2-1-1c0-0.8,0.5-1.9,1-1.9
					c0.3,0,0.5,0.3,0.6,0.7C19.8,27.7,19.8,28.2,19.8,28.6z"/>
			</g>
			<path class="st6" d="M19.8,28.6c0,0.7-0.3,0.8-0.8,0.8l0,0c-0.1-0.1-0.2-0.1-0.2-0.2c-0.5-0.6-0.2-1.4,0.3-1.8
				c0.2-0.2,0.3-0.2,0.5-0.2C19.8,27.7,19.8,28.2,19.8,28.6z"/>
			<path class="st6" d="M19.8,37.6c0.1-0.1,0-0.2-0.1-0.2s-0.1,0-0.1,0c0-0.1,0-0.2,0-0.3c0-0.5,0-0.9,0-1.4l0.2-0.4
				c0-0.1,0-0.2-0.1-0.2s-0.1,0-0.1,0c0-0.6,0-1.1,0-1.7l0.1-0.5c0-0.1,0-0.2-0.1-0.2h-0.1c0-0.2,0-0.3,0-0.5c0-0.3,0-0.6-0.1-0.8
				l0.2-0.6c0-0.1,0-0.2-0.1-0.2s-0.1,0-0.1,0.1c-0.1-0.6-0.1-1.1-0.1-1.6h-0.3c-0.7,3.8-0.8,7.7,0.3,11.3v0.1l0,0
				c0.1,0.2,0.1,0.5,0.2,0.7c0-0.4,0-0.8,0-1.2l0.2-0.3c0.1-0.1,0-0.2-0.1-0.2c-0.1-0.1-0.1,0-0.1,0c0-0.5,0-1.1,0-1.6L19.8,37.6z"
				/>
			<path class="st7" d="M19.2,29.7c-0.1,0.1-0.6,7.1,0.2,10C19.4,37.9,19.2,29.7,19.2,29.7z"/>
		</g>
		<polygon class="st0" points="19.7,41.2 19.7,40.7 19.5,41.2 		"/>
		<path class="st0" d="M19.5,41.2c0-0.2-0.1-0.5-0.3-0.2c0,0-0.3-0.3-0.5,0.1l-0.6-0.5l0.2,0.6C18.3,41.2,19.5,41.2,19.5,41.2z"/>
	</g>
</g>
</svg>
