<?xml version="1.0" encoding="utf-8"?>
<!-- Generator: Adobe Illustrator 23.0.2, SVG Export Plug-In . SVG Version: 6.00 Build 0)  -->
<svg version="1.1" id="Layer_1" xmlns="http://www.w3.org/2000/svg" xmlns:xlink="http://www.w3.org/1999/xlink" x="0px" y="0px"
	 viewBox="0 0 44 40" style="enable-background:new 0 0 44 40;" xml:space="preserve">
<style type="text/css">
	.st0{fill:#2F363E;}
	.st1{fill:#24292F;}
	.st2{fill:#46505C;}
	.st3{fill:#D0D0D0;}
	.st4{fill:#EDEDED;}
</style>
<g>
	<path class="st0" d="M25.6,20c0,2-1.6,3.6-3.6,3.6S18.5,22,18.5,20s1.6-3.6,3.6-3.6S25.6,18,25.6,20z"/>
	<path class="st1" d="M24.1,20c0,1.2-1,2.1-2.1,2.1c-1.1,0-2.1-1-2.1-2.1c0-1.2,1-2.1,2.1-2.1C23.1,17.9,24.1,18.8,24.1,20z"/>
	<g>
		<path class="st1" d="M22,23.4c-1.9,0-3.4-1.5-3.4-3.4s1.5-3.4,3.4-3.4c1.9,0,3.4,1.5,3.4,3.4S23.9,23.4,22,23.4z M22,16.8
			c-1.8,0-3.2,1.5-3.2,3.2c0,1.8,1.5,3.2,3.2,3.2c1.7,0,3.2-1.5,3.2-3.2C25.2,18.2,23.8,16.8,22,16.8z"/>
	</g>
	<path class="st2" d="M18.8,20c0,0,0-0.1,0-0.2c0,0,0-0.1,0-0.1c0,0,0-0.1,0-0.1c0-0.1,0-0.2,0-0.3c0-0.1,0-0.1,0-0.2
		c0-0.1,0-0.1,0.1-0.2c0-0.1,0.1-0.2,0.2-0.4s0.1-0.3,0.2-0.4c0.1-0.1,0.2-0.2,0.3-0.4c0.1-0.1,0.2-0.2,0.4-0.3
		c0.1-0.1,0.3-0.2,0.4-0.2c0.1-0.1,0.3-0.1,0.4-0.2c0.1,0,0.1,0,0.2-0.1c0.1,0,0.1,0,0.2,0c0.1,0,0.2,0,0.3,0c0,0,0.1,0,0.1,0
		c0,0,0.1,0,0.1,0c0.1,0,0.2,0,0.2,0s-0.1,0-0.2,0c0,0-0.1,0-0.1,0c0,0-0.1,0-0.1,0c-0.1,0-0.2,0-0.3,0.1c-0.1,0-0.1,0-0.2,0.1
		c-0.1,0-0.1,0-0.2,0.1c-0.1,0-0.2,0.1-0.4,0.2c-0.1,0.1-0.2,0.1-0.4,0.2c-0.1,0.1-0.2,0.2-0.4,0.3c-0.1,0.1-0.2,0.2-0.3,0.4
		c-0.1,0.1-0.2,0.2-0.2,0.4c-0.1,0.1-0.1,0.2-0.2,0.4c0,0.1,0,0.1-0.1,0.2c0,0.1,0,0.1-0.1,0.2c0,0.1-0.1,0.2-0.1,0.3
		c0,0,0,0.1,0,0.1c0,0,0,0.1,0,0.1C18.8,19.9,18.8,20,18.8,20z"/>
	<path class="st1" d="M25.2,20c0,0,0,0.1,0,0.2c0,0,0,0.1,0,0.1c0,0,0,0.1,0,0.1c0,0.1,0,0.2,0,0.3c0,0.1,0,0.1,0,0.2
		c0,0.1,0,0.1-0.1,0.2c0,0.1-0.1,0.2-0.2,0.4c-0.1,0.1-0.1,0.3-0.2,0.4c-0.1,0.1-0.2,0.2-0.3,0.4c-0.1,0.1-0.2,0.2-0.4,0.3
		c-0.1,0.1-0.3,0.2-0.4,0.2c-0.1,0.1-0.3,0.1-0.4,0.2c-0.1,0-0.1,0-0.2,0.1c-0.1,0-0.1,0-0.2,0c-0.1,0-0.2,0-0.3,0c0,0-0.1,0-0.1,0
		s-0.1,0-0.1,0c-0.1,0-0.2,0-0.2,0s0.1,0,0.2,0c0,0,0.1,0,0.1,0c0,0,0.1,0,0.1,0c0.1,0,0.2,0,0.3-0.1c0.1,0,0.1,0,0.2-0.1
		c0.1,0,0.1,0,0.2-0.1c0.1,0,0.2-0.1,0.4-0.2c0.1-0.1,0.2-0.1,0.4-0.2c0.1-0.1,0.2-0.2,0.4-0.3c0.1-0.1,0.2-0.2,0.3-0.4
		c0.1-0.1,0.2-0.2,0.2-0.4c0.1-0.1,0.1-0.2,0.2-0.4c0-0.1,0-0.1,0.1-0.2c0-0.1,0-0.1,0.1-0.2c0-0.1,0.1-0.2,0.1-0.3c0,0,0-0.1,0-0.1
		c0,0,0-0.1,0-0.1C25.2,20.1,25.2,20,25.2,20z"/>
	<rect x="21.8" y="16.3" class="st0" width="0.4" height="0.2"/>
	<rect x="20.6" y="16.5" transform="matrix(0.9396 -0.3422 0.3422 0.9396 -4.4364 8.1216)" class="st0" width="0.4" height="0.2"/>
	<rect x="19.5" y="17.1" transform="matrix(0.7661 -0.6427 0.6427 0.7661 -6.4863 16.6902)" class="st0" width="0.4" height="0.2"/>
	<rect x="18.7" y="18.1" transform="matrix(0.5 -0.866 0.866 0.5 -6.3162 25.4777)" class="st0" width="0.4" height="0.2"/>
	<rect x="18.3" y="19.3" transform="matrix(0.1735 -0.9848 0.9848 0.1735 -3.808 34.2271)" class="st0" width="0.4" height="0.2"/>
	<rect x="18.3" y="20.4" transform="matrix(0.9847 -0.1741 0.1741 0.9847 -3.306 3.5301)" class="st0" width="0.2" height="0.4"/>
	<rect x="18.8" y="21.6" transform="matrix(0.8658 -0.5003 0.5003 0.8658 -8.3666 12.3769)" class="st0" width="0.2" height="0.4"/>
	
		<rect x="19.6" y="22.5" transform="matrix(0.6427 -0.7661 0.7661 0.6427 -10.3752 23.2284)" class="st0" width="0.2" height="0.4"/>
	<rect x="20.6" y="23.1" transform="matrix(0.3418 -0.9398 0.9398 0.3418 -8.2782 34.8971)" class="st0" width="0.2" height="0.4"/>
	<rect x="21.8" y="23.5" class="st0" width="0.4" height="0.2"/>
	<rect x="23" y="23.2" transform="matrix(0.9396 -0.3422 0.3422 0.9396 -6.5938 9.3575)" class="st0" width="0.4" height="0.2"/>
	<rect x="24.1" y="22.6" transform="matrix(0.7659 -0.643 0.643 0.7659 -8.9359 20.9366)" class="st0" width="0.4" height="0.2"/>
	<rect x="24.9" y="21.7" transform="matrix(0.4999 -0.8661 0.8661 0.4999 -6.314 32.6495)" class="st0" width="0.4" height="0.2"/>
	<rect x="25.3" y="20.5" transform="matrix(0.1734 -0.9849 0.9849 0.1734 0.8 42.1885)" class="st0" width="0.4" height="0.2"/>
	<rect x="25.4" y="19.1" transform="matrix(0.9847 -0.1743 0.1743 0.9847 -2.9844 4.743)" class="st0" width="0.2" height="0.4"/>
	<rect x="25" y="18" transform="matrix(0.8658 -0.5004 0.5004 0.8658 -5.7537 15.0032)" class="st0" width="0.2" height="0.4"/>
	<rect x="24.2" y="17" transform="matrix(0.6424 -0.7664 0.7664 0.6424 -4.5383 24.7998)" class="st0" width="0.2" height="0.4"/>
	<rect x="23.1" y="16.4" transform="matrix(0.3415 -0.9399 0.9399 0.3415 -0.3434 32.7686)" class="st0" width="0.2" height="0.4"/>
	<path class="st3" d="M24,20c0,1.1-0.9,2-2,2c-1.1,0-2-0.9-2-2s0.9-2,2-2C23.1,18,24,18.9,24,20z"/>
	<path class="st1" d="M23.6,20c0,0.9-0.7,1.6-1.6,1.6c-0.9,0-1.6-0.7-1.6-1.6c0-0.9,0.7-1.6,1.6-1.6C22.9,18.4,23.6,19.1,23.6,20z"
		/>
	<path class="st4" d="M23.5,20c0,0.8-0.7,1.5-1.5,1.5s-1.5-0.7-1.5-1.5s0.7-1.5,1.5-1.5S23.5,19.2,23.5,20z"/>
	<path class="st0" d="M23.4,20c0,0.8-0.6,1.4-1.4,1.4c-0.8,0-1.4-0.6-1.4-1.4c0-0.8,0.6-1.4,1.4-1.4C22.8,18.6,23.4,19.2,23.4,20z"
		/>
	<path class="st1" d="M22.5,20c0,0.3-0.2,0.5-0.5,0.5c-0.3,0-0.5-0.2-0.5-0.5s0.2-0.5,0.5-0.5C22.3,19.5,22.5,19.7,22.5,20z"/>
	<path class="st4" d="M21.1,18.8c-0.1,0.1-0.2,0.2-0.3,0.3c0.4,0.2,0.6,0.4,0.8,0.8c0.1-0.1,0.2-0.2,0.3-0.3
		C21.5,19.5,21.3,19.2,21.1,18.8z"/>
	<path class="st4" d="M20.6,19.8c0,0.1,0,0.3,0,0.4c0.4-0.1,0.7-0.1,1.1,0c0-0.1,0-0.3,0-0.4C21.3,19.9,20.9,19.9,20.6,19.8z"/>
	<path class="st4" d="M20.8,20.9c0.1,0.1,0.2,0.2,0.3,0.3c0.2-0.4,0.4-0.6,0.8-0.8c-0.1-0.1-0.2-0.2-0.3-0.3
		C21.5,20.5,21.2,20.7,20.8,20.9z"/>
	<path class="st4" d="M21.8,21.5c0.1,0,0.3,0,0.4,0c-0.1-0.4-0.1-0.7,0-1.1c-0.1,0-0.3,0-0.4,0C21.9,20.7,21.9,21.1,21.8,21.5z"/>
	<path class="st4" d="M22.9,21.2c0.1-0.1,0.2-0.2,0.3-0.3c-0.4-0.2-0.6-0.4-0.8-0.8c-0.1,0.1-0.2,0.2-0.3,0.3
		C22.5,20.5,22.8,20.8,22.9,21.2z"/>
	<path class="st4" d="M23.5,20.2c0-0.1,0-0.3,0-0.4c-0.4,0.1-0.7,0.1-1.1,0c0,0.1,0,0.3,0,0.4C22.7,20.1,23.1,20.1,23.5,20.2z"/>
	<path class="st4" d="M23.2,19.1c-0.1-0.1-0.2-0.2-0.3-0.3c-0.2,0.4-0.4,0.6-0.8,0.8c0.1,0.1,0.2,0.2,0.3,0.3
		C22.5,19.5,22.8,19.3,23.2,19.1z"/>
	<path class="st1" d="M22.4,20c0,0.2-0.2,0.4-0.4,0.4c-0.2,0-0.4-0.2-0.4-0.4c0-0.2,0.2-0.4,0.4-0.4C22.3,19.6,22.4,19.8,22.4,20z"
		/>
	<path class="st4" d="M22.4,20c0,0.2-0.2,0.4-0.4,0.4c-0.2,0-0.4-0.2-0.4-0.4c0-0.2,0.2-0.4,0.4-0.4C22.2,19.6,22.4,19.8,22.4,20z"
		/>
	<polygon class="st3" points="22,19.8 22.1,19.9 22.2,20 22.1,20 22.2,20.2 22,20.1 21.9,20.2 21.9,20 21.8,20 21.9,19.9 	"/>
</g>
</svg>
