<?xml version="1.0" encoding="utf-8"?>
<!-- Generator: Adobe Illustrator 23.0.2, SVG Export Plug-In . SVG Version: 6.00 Build 0)  -->
<svg version="1.1" id="Layer_1" xmlns="http://www.w3.org/2000/svg" xmlns:xlink="http://www.w3.org/1999/xlink" x="0px" y="0px"
	 viewBox="0 0 30 41" style="enable-background:new 0 0 30 41;" xml:space="preserve">
<style type="text/css">
	.st0{fill:#5457A6;}
	.st1{fill:#231F20;}
	.st2{fill:#F179AF;}
	.st3{fill:#8651A0;}
	.st4{fill:#009E9A;}
	.st5{fill:#1D1F00;}
	.st6{fill:#000001;}
	.st7{fill:#141415;}
	.st8{fill:#E2E3E4;}
	.st9{fill:#66686A;}
	.st10{fill:#434444;}
	.st11{fill:#434647;}
	.st12{fill:#787A7C;}
	.st13{fill:#FFFFFF;}
	.st14{fill:#3F3F40;}
</style>
<g>
	<g>
		<path class="st0" d="M11.5,18.7c0,0-0.2,0-0.2,0.4v0.7v1.5v0.7c0,0.3,0.2,0.4,0.2,0.4l1.4,0.4v-1.2v-2.1v-1.2L11.5,18.7z"/>
		<path class="st1" d="M12.9,18.3v4.4l-1.4-0.4c0,0-0.2,0-0.2-0.4v-2.8c0-0.3,0.2-0.4,0.2-0.4L12.9,18.3z M12.8,22.7v-4.3l-1.4,0.4
			c0,0-0.2,0-0.2,0.3v2.8c0,0.3,0.2,0.3,0.2,0.3l0,0L12.8,22.7z"/>
	</g>
	<g>
		<path class="st2" d="M13.4,24.7L13.4,24.7c0,0.4-0.3,0.7-0.7,0.7h-0.2c-0.4,0-0.7-0.3-0.7-0.7l0,0c0-0.4,0.3-0.7,0.7-0.7h0.2
			C13.1,24,13.4,24.3,13.4,24.7z"/>
		<path class="st1" d="M13.4,24.1v1.1c0,0.1-0.1,0.2-0.2,0.2h-1.3c-0.1,0-0.2-0.1-0.2-0.2v-1.1c0-0.1,0.1-0.2,0.2-0.2h1.3
			C13.3,24,13.4,24,13.4,24.1z M11.8,25.2c0,0.1,0.1,0.1,0.1,0.1h1.3c0.1,0,0.1-0.1,0.1-0.1v-1.1c0-0.1-0.1-0.1-0.1-0.1h-1.3
			c-0.1,0-0.1,0.1-0.1,0.1V25.2z"/>
	</g>
	<g>
		<path class="st3" d="M13.6,24.4v0.5c0,0.4-0.4,0.8-0.8,0.8h0c-0.4,0-0.8-0.4-0.8-0.8v-0.5c0-0.4,0.4-0.8,0.8-0.8h0
			C13.3,23.6,13.6,24,13.6,24.4z"/>
		<path class="st1" d="M13.7,23.8v1.7c0,0.1-0.1,0.2-0.2,0.2h-1.2c-0.1,0-0.2-0.1-0.2-0.2v-1.7c0-0.1,0.1-0.2,0.2-0.2h1.2
			C13.6,23.6,13.7,23.7,13.7,23.8z M12.1,25.5c0,0.1,0.1,0.2,0.2,0.2h1.2c0.1,0,0.2-0.1,0.2-0.2v-1.7c0-0.1-0.1-0.2-0.2-0.2h-1.2
			c-0.1,0-0.2,0.1-0.2,0.2V25.5z"/>
	</g>
	<g>
		<path class="st4" d="M18.8,17.9v5.3c0,1.8-1.4,3.2-3.2,3.2h0c-1.8,0-3.2-1.4-3.2-3.2v-5.3c0-1.8,1.4-3.2,3.2-3.2h0
			C17.3,14.7,18.8,16.1,18.8,17.9z"/>
		<path class="st1" d="M18.8,15.3v10.5c0,0.3-0.3,0.6-0.6,0.6h-5.2c-0.3,0-0.6-0.3-0.6-0.6V15.3c0-0.3,0.3-0.6,0.6-0.6h5.2
			C18.5,14.6,18.8,14.9,18.8,15.3z M12.4,25.7c0,0.3,0.3,0.6,0.6,0.6h5.2c0.3,0,0.6-0.3,0.6-0.6V15.3c0-0.3-0.3-0.6-0.6-0.6h-5.2
			c-0.3,0-0.6,0.3-0.6,0.6V25.7z"/>
	</g>
	<g>
		<path class="st0" d="M14.5,26.3h3.6c0.3,0,0.6-0.3,0.6-0.6V15.3c0-0.3-0.3-0.6-0.6-0.6h-3.6V26.3z"/>
		<path class="st1" d="M18.8,15.3v10.5c0,0.3-0.3,0.6-0.6,0.6h-3.6V14.6h3.6C18.5,14.6,18.8,14.9,18.8,15.3z M14.5,26.3h3.6
			c0.3,0,0.6-0.3,0.6-0.6V15.3c0-0.3-0.3-0.6-0.6-0.6h-3.6V26.3z"/>
	</g>
	<g>
		<path class="st5" d="M13.8,15.8v1c0,0.3-0.3,0.6-0.6,0.6h0c-0.3,0-0.6-0.3-0.6-0.6v-1c0-0.3,0.3-0.6,0.6-0.6h0
			C13.5,15.2,13.8,15.5,13.8,15.8z"/>
		<path class="st6" d="M13.8,15.4v1.8c0,0.1-0.1,0.2-0.2,0.2h-0.9c-0.1,0-0.2-0.1-0.2-0.2v-1.8c0-0.1,0.1-0.2,0.2-0.2h0.9
			C13.7,15.2,13.8,15.3,13.8,15.4z M12.6,17.2c0,0.1,0.1,0.1,0.1,0.1h0.9c0.1,0,0.1-0.1,0.1-0.1v-1.8c0-0.1-0.1-0.1-0.1-0.1h-0.9
			c-0.1,0-0.1,0.1-0.1,0.1V17.2z"/>
	</g>
	<g>
		<path d="M12.2,20.1v0.8c0,0.2-0.2,0.4-0.4,0.4h0c-0.2,0-0.4-0.2-0.4-0.4v-0.8c0-0.2,0.2-0.4,0.4-0.4h0
			C12,19.7,12.2,19.9,12.2,20.1z"/>
		<path class="st7" d="M12.2,19.9v1.3c0,0.1-0.1,0.1-0.1,0.1h-0.5c-0.1,0-0.1-0.1-0.1-0.1v-1.3c0-0.1,0.1-0.1,0.1-0.1h0.5
			C12.1,19.7,12.2,19.8,12.2,19.9z M11.4,21.1C11.4,21.2,11.5,21.2,11.4,21.1l0.6,0.1c0,0,0.1,0,0.1-0.1v-1.3c0,0,0-0.1-0.1-0.1
			h-0.5c0,0-0.1,0-0.1,0.1V21.1z"/>
	</g>
	<path class="st8" d="M12,20.3v0.4c0,0.1-0.1,0.2-0.2,0.2l0,0c-0.1,0-0.2-0.1-0.2-0.2v-0.4c0-0.1,0.1-0.2,0.2-0.2l0,0
		C11.9,20.1,12,20.2,12,20.3z"/>
	<g>
		<path class="st9" d="M13.7,16.1v0.8c0,0.3-0.2,0.5-0.5,0.5h0c-0.3,0-0.5-0.2-0.5-0.5v-0.8c0-0.3,0.2-0.5,0.5-0.5h0
			C13.5,15.6,13.7,15.8,13.7,16.1z"/>
		<path class="st1" d="M13.7,15.7v1.5c0,0.1-0.1,0.1-0.1,0.1h-0.7c-0.1,0-0.1-0.1-0.1-0.1v-1.5c0-0.1,0.1-0.1,0.1-0.1h0.7
			C13.7,15.6,13.7,15.6,13.7,15.7z M12.8,17.2c0,0.1,0,0.1,0.1,0.1h0.7c0.1,0,0.1,0,0.1-0.1v-1.5c0-0.1,0-0.1-0.1-0.1h-0.7
			c-0.1,0-0.1,0-0.1,0.1V17.2z"/>
	</g>
	<g>
		<g>
			<g>
				<circle class="st10" cx="15.8" cy="20.5" r="2.9"/>
				<path class="st7" d="M18.7,20.5c0,1.6-1.3,2.9-2.9,2.9c-1.6,0-2.9-1.3-2.9-2.9c0-1.6,1.3-2.9,2.9-2.9
					C17.4,17.6,18.7,18.9,18.7,20.5z M12.9,20.5c0,1.6,1.3,2.9,2.9,2.9c1.6,0,2.9-1.3,2.9-2.9c0-1.6-1.3-2.9-2.9-2.9
					C14.2,17.6,12.9,18.9,12.9,20.5z"/>
			</g>
			<g>
				<circle class="st4" cx="15.7" cy="20.5" r="2.8"/>
				<path class="st1" d="M18.5,20.5c0,1.6-1.3,2.8-2.8,2.8c-1.6,0-2.8-1.3-2.8-2.8c0-1.6,1.3-2.8,2.8-2.8
					C17.3,17.7,18.5,18.9,18.5,20.5z M12.9,20.5c0,1.6,1.3,2.8,2.8,2.8s2.8-1.3,2.8-2.8c0-1.6-1.3-2.8-2.8-2.8S12.9,18.9,12.9,20.5z
					"/>
			</g>
			<g>
				<path class="st0" d="M18.3,20.5c0,1.4-1.2,2.6-2.6,2.6c-1.4,0-2.6-1.2-2.6-2.6c0-1.4,1.2-2.6,2.6-2.6
					C17.1,17.9,18.3,19.1,18.3,20.5z M13.2,20.5c0,1.4,1.1,2.5,2.5,2.5c1.4,0,2.5-1.1,2.5-2.5c0-1.4-1.1-2.5-2.5-2.5
					C14.3,18,13.2,19.1,13.2,20.5z"/>
				<path class="st1" d="M18.3,20.5c0,1.4-1.2,2.6-2.6,2.6c-1.4,0-2.6-1.2-2.6-2.6c0-1.4,1.2-2.6,2.6-2.6
					C17.1,17.9,18.3,19.1,18.3,20.5z M13.1,20.5c0,1.4,1.2,2.6,2.6,2.6c1.4,0,2.6-1.2,2.6-2.6c0-1.4-1.2-2.6-2.6-2.6
					C14.2,17.9,13.1,19.1,13.1,20.5z M18.2,20.5c0,1.4-1.1,2.5-2.5,2.5c-1.4,0-2.5-1.1-2.5-2.5c0-1.4,1.1-2.5,2.5-2.5
					C17,18,18.2,19.1,18.2,20.5z M13.2,20.5c0,1.4,1.1,2.4,2.4,2.4c1.4,0,2.4-1.1,2.4-2.4c0-1.4-1.1-2.4-2.4-2.4
					C14.3,18.1,13.2,19.1,13.2,20.5z"/>
			</g>
			<g>
				<g>
					<circle class="st0" cx="15.7" cy="20.5" r="2.1"/>
					<path class="st1" d="M17.8,20.5c0,1.2-1,2.1-2.1,2.1c-1.2,0-2.1-1-2.1-2.1c0-1.2,1-2.1,2.1-2.1C16.9,18.4,17.8,19.3,17.8,20.5z
						 M13.6,20.5c0,1.2,0.9,2.1,2.1,2.1c1.2,0,2.1-0.9,2.1-2.1c0-1.2-0.9-2.1-2.1-2.1C14.5,18.4,13.6,19.3,13.6,20.5z"/>
				</g>
				<g>
					<circle class="st4" cx="15.7" cy="20.5" r="1.9"/>
					<path class="st1" d="M17.6,20.5c0,1.1-0.9,1.9-1.9,1.9s-1.9-0.9-1.9-1.9s0.9-1.9,1.9-1.9S17.6,19.4,17.6,20.5z M13.8,20.5
						c0,1.1,0.9,1.9,1.9,1.9s1.9-0.9,1.9-1.9c0-1.1-0.9-1.9-1.9-1.9S13.8,19.4,13.8,20.5z"/>
				</g>
			</g>
		</g>
		<g>
			<g>
				<g>
					<g>
						<circle class="st5" cx="15.7" cy="20.5" r="1.3"/>
						<path class="st6" d="M17,20.5c0,0.7-0.6,1.3-1.3,1.3c-0.7,0-1.3-0.6-1.3-1.3c0-0.7,0.6-1.3,1.3-1.3C16.4,19.2,17,19.8,17,20.5
							z M14.4,20.5c0,0.7,0.6,1.3,1.3,1.3c0.7,0,1.3-0.6,1.3-1.3c0-0.7-0.6-1.3-1.3-1.3C15,19.2,14.4,19.8,14.4,20.5z"/>
					</g>
					<g>
						<circle class="st11" cx="15.7" cy="20.5" r="1"/>
						<path class="st6" d="M16.7,20.5c0,0.5-0.4,1-1,1c-0.5,0-1-0.4-1-1c0-0.5,0.4-1,1-1C16.2,19.5,16.7,20,16.7,20.5z M14.8,20.5
							c0,0.5,0.4,0.9,0.9,0.9c0.5,0,0.9-0.4,0.9-0.9c0-0.5-0.4-0.9-0.9-0.9C15.2,19.6,14.8,20,14.8,20.5z"/>
					</g>
					<g>
						<path class="st12" d="M15.7,20.1c0.2,0,0.4,0.2,0.4,0.4c0,0.2-0.2,0.4-0.4,0.4c-0.2,0-0.4-0.2-0.4-0.4
							C15.3,20.3,15.5,20.1,15.7,20.1z"/>
						<path class="st6" d="M16.1,20.5c0,0.2-0.2,0.4-0.4,0.4c-0.2,0-0.4-0.2-0.4-0.4c0-0.2,0.2-0.4,0.4-0.4
							C15.9,20.1,16.1,20.3,16.1,20.5z M15.3,20.5c0,0.2,0.2,0.4,0.4,0.4c0.2,0,0.4-0.2,0.4-0.4s-0.2-0.4-0.4-0.4
							C15.5,20.1,15.3,20.3,15.3,20.5z"/>
					</g>
				</g>
			</g>
			<path class="st13" d="M15.4,20.5c0.2,0,0.3,0.1,0.3,0.3s-0.1,0.3-0.3,0.3c-0.2,0-0.3-0.1-0.3-0.3S15.2,20.5,15.4,20.5z"/>
			<path class="st13" d="M15.8,20.9c0.1,0,0.1,0.1,0.1,0.1c0,0.1-0.1,0.1-0.1,0.1c-0.1,0-0.1-0.1-0.1-0.1
				C15.7,21,15.8,20.9,15.8,20.9z"/>
		</g>
	</g>
	<g>
		<path class="st5" d="M17.9,23c0.2,0,0.4,0.2,0.4,0.4c0,0.2-0.2,0.4-0.4,0.4c-0.2,0-0.4-0.2-0.4-0.4C17.5,23.1,17.7,23,17.9,23z"/>
		<path class="st6" d="M18.3,23.3c0,0.2-0.2,0.4-0.4,0.4s-0.4-0.2-0.4-0.4c0-0.2,0.2-0.4,0.4-0.4S18.3,23.1,18.3,23.3z M17.6,23.3
			c0,0.2,0.2,0.4,0.4,0.4c0.2,0,0.4-0.2,0.4-0.4c0-0.2-0.2-0.4-0.4-0.4C17.7,23,17.6,23.1,17.6,23.3z"/>
	</g>
	<g>
		<path class="st14" d="M15.4,14.8h-1.1h-1.1c-0.8,0-0.7,0.8-0.7,0.8v1.1l0,1.5l0.3-2.6c0-0.7,0.6-0.6,0.6-0.6h4.3
			c0,0,0.6,0,0.6,0.6l0.3,2.6l0-1.5v-1.1c0,0,0.1-0.8-0.7-0.8H15.4z"/>
		<path class="st7" d="M18.6,15.6C18.6,15.6,18.6,15.6,18.6,15.6l0,1.2l0,1.5l0,0l-0.3-2.6c0-0.2-0.1-0.4-0.2-0.5
			c-0.2-0.2-0.4-0.2-0.4-0.2l-4.3,0c0,0-0.3,0-0.4,0.2c-0.1,0.1-0.2,0.3-0.2,0.5l-0.3,2.6l0,0l0-1.5v-1.1c0,0,0-0.4,0.2-0.6
			c0.1-0.1,0.3-0.2,0.6-0.2h4.6c0.3,0,0.4,0.1,0.6,0.2C18.6,15.2,18.6,15.4,18.6,15.6z M18.6,16.7v-1.1c0,0,0-0.4-0.2-0.6
			c-0.1-0.1-0.3-0.2-0.6-0.2h-4.6c-0.2,0-0.4,0.1-0.6,0.2c-0.2,0.2-0.2,0.6-0.2,0.6l0,1.1l0,1.2l0.2-2.2c0-0.2,0.1-0.4,0.2-0.5
			c0.2-0.2,0.5-0.2,0.5-0.2l4.3,0c0,0,0.3,0,0.5,0.2c0.1,0.1,0.2,0.3,0.2,0.5l0.2,2.2L18.6,16.7z"/>
	</g>
	<g>
		<path class="st14" d="M15.4,26.1h-1.1h-1.1c-0.8,0-0.7-0.8-0.7-0.8v-1.1l0-1.5l0.3,2.6c0,0.7,0.6,0.6,0.6,0.6h4.3
			c0,0,0.6,0,0.6-0.6l0.3-2.6l0,1.5v1.1c0,0,0.1,0.8-0.7,0.8H15.4z"/>
		<path class="st7" d="M18.6,25.4c0,0.1,0,0.4-0.2,0.5c-0.1,0.1-0.3,0.2-0.6,0.2h-4.6c-0.3,0-0.4-0.1-0.6-0.2
			c-0.2-0.2-0.2-0.6-0.2-0.6l0-1.1l0-1.5l0,0l0.3,2.6c0,0.2,0.1,0.4,0.2,0.5c0.2,0.2,0.4,0.2,0.4,0.2l4.3,0c0,0,0.3,0,0.4-0.2
			c0.1-0.1,0.2-0.3,0.2-0.5l0.3-2.6l0,0l0,1.5L18.6,25.4C18.6,25.3,18.6,25.4,18.6,25.4z M12.5,25.4c0,0.1,0,0.3,0.2,0.5
			c0.1,0.1,0.3,0.2,0.6,0.2h4.6c0.2,0,0.4-0.1,0.6-0.2c0.2-0.2,0.2-0.6,0.2-0.6l0-1.1l0-1.2l-0.2,2.2c0,0.2-0.1,0.4-0.2,0.5
			c-0.2,0.2-0.5,0.2-0.5,0.2l-4.3,0c0,0-0.3,0-0.5-0.2c-0.1-0.1-0.2-0.3-0.2-0.5L12.5,23l0,1.2L12.5,25.4
			C12.5,25.3,12.5,25.4,12.5,25.4z"/>
	</g>
</g>
</svg>
