<svg width="65" height="58" viewBox="0 0 65 58" fill="none" xmlns="http://www.w3.org/2000/svg">
<path d="M49.8537 3.8556C48.6792 1.47776 46.3013 0 43.6476 0C42.5935 0 41.534 0.24778 40.5847 0.717324L30.2355 5.83098C28.9302 4.43809 27.1136 3.6482 25.1889 3.6482C23.579 3.6482 22.0102 4.21494 20.77 5.24438L1.23598 21.4683C-0.218517 22.6764 -0.417681 24.8338 0.789719 26.2877L26.0657 56.7211C26.6461 57.4199 27.4791 57.8587 28.3833 57.9422C28.4887 57.9525 28.5941 57.9573 28.6988 57.9573C29.4942 57.9573 30.2684 57.6801 30.8851 57.1681L35.2643 53.5308C35.4231 53.6143 35.5901 53.6862 35.7626 53.7444C36.6222 54.0359 37.562 53.9743 38.3758 53.5712L61.1419 42.322C62.799 41.504 64.0379 40.0879 64.6313 38.3377C65.2234 36.5868 65.0995 34.71 64.2802 33.0536L49.8537 3.8556Z" fill="white"/>
<path d="M42.1013 3.78555L19.3359 15.0341L36.8604 50.5018L59.6258 39.2533C61.3575 38.3977 62.0679 36.2998 61.2123 34.5681L46.7865 5.37145C45.9303 3.63974 43.833 2.92996 42.1013 3.78555Z" fill="#073259"/>
<path d="M41.3612 13.7937C41.3598 13.791 41.3598 13.791 41.3557 13.7896C41.3516 13.7883 41.3461 13.7841 41.342 13.7828C41.3174 13.7746 41.2941 13.7616 41.2688 13.7533C41.2387 13.741 41.2126 13.7294 41.1832 13.7198C41.1271 13.6959 41.0675 13.6733 41.01 13.6534C40.9512 13.6308 40.893 13.611 40.8355 13.5918C40.6397 13.5227 40.4406 13.4666 40.2434 13.4152C40.2037 13.4036 40.1634 13.3926 40.1223 13.3851C40.0634 13.3694 40.0025 13.3577 39.9416 13.3468C39.8205 13.3173 39.6993 13.2941 39.5782 13.2783C39.5131 13.2653 39.4542 13.2571 39.392 13.2496C39.3283 13.2393 39.2667 13.2325 39.2086 13.2263C39.1463 13.2188 39.086 13.2147 39.0278 13.2085C38.9012 13.1955 38.7766 13.1873 38.6514 13.1839C38.5905 13.1791 38.5275 13.1763 38.4625 13.177C38.3482 13.175 38.2352 13.1757 38.1189 13.1777C37.9204 13.1859 37.7239 13.1996 37.5254 13.2222C37.4926 13.2249 37.459 13.2277 37.4234 13.2311C37.3803 13.2352 37.342 13.24 37.303 13.2455C37.2174 13.2598 37.1305 13.2715 37.0449 13.2865C36.9964 13.2934 36.9471 13.3037 36.8971 13.3146C36.8307 13.3262 36.7616 13.3399 36.6965 13.355C36.6596 13.3632 36.6219 13.3707 36.5891 13.3803C36.5576 13.3858 36.5268 13.394 36.4967 13.4015C36.4693 13.4084 36.4385 13.4159 36.4084 13.4241C36.3783 13.4323 36.3475 13.4405 36.3201 13.4467C36.2468 13.4652 36.1722 13.4885 36.0976 13.5117C36.0312 13.5302 35.9662 13.5521 35.9012 13.574C35.8362 13.5959 35.7711 13.6171 35.7075 13.6418C35.652 13.6623 35.6 13.6808 35.5487 13.7027C35.5281 13.7095 35.507 13.7164 35.4851 13.7273C35.4214 13.752 35.3618 13.7773 35.3023 13.8033C35.2332 13.8307 35.1599 13.8629 35.0949 13.8985C35.0922 13.8998 35.0922 13.8998 35.0894 13.9012C35.073 13.9094 35.0572 13.9135 35.0408 13.9217C35.0066 13.9354 34.9731 13.9519 34.9395 13.9676C34.906 13.984 34.8731 14.0004 34.8409 14.0196C34.8245 14.0278 34.8122 14.0374 34.7951 14.0456C34.7273 14.0757 34.6623 14.1106 34.5986 14.149C34.5172 14.1928 34.4364 14.2386 34.355 14.2893C34.3009 14.3194 34.251 14.3509 34.1983 14.3831C34.0915 14.4529 33.9874 14.5206 33.8861 14.5946C33.6897 14.7321 33.4966 14.8786 33.3187 15.0347C33.1982 15.1387 33.0785 15.2455 32.9648 15.3564C32.8567 15.4645 32.7478 15.5727 32.6452 15.6856C32.6438 15.6897 32.6397 15.6952 32.637 15.6966C32.5329 15.8129 32.4296 15.9327 32.331 16.0532C32.2687 16.1285 32.2112 16.2085 32.153 16.2852C31.7478 16.8246 31.4152 17.4207 31.1681 18.058C31.1229 18.1695 31.0784 18.2879 31.0401 18.4064C31.0203 18.457 31.0018 18.5111 30.9881 18.5658C30.9682 18.6309 30.9484 18.6952 30.9285 18.7602C30.9087 18.8184 30.895 18.88 30.8793 18.9396C30.8498 19.0539 30.8211 19.1709 30.7971 19.2893C30.7944 19.2907 30.7971 19.2962 30.7944 19.2975C30.4467 20.9327 30.6246 22.6877 31.4179 24.3017C32.2099 25.9129 33.4898 27.1258 34.997 27.85C34.9998 27.8486 35.0025 27.8541 35.0052 27.8527C35.2071 27.9492 35.4125 28.0375 35.6185 28.1148C35.6513 28.1258 35.6815 28.1388 35.7123 28.1511C35.7451 28.1621 35.7752 28.1751 35.8074 28.1833C35.9984 28.251 36.1928 28.3099 36.3872 28.3626C36.6719 28.4393 36.9615 28.4961 37.2496 28.5372C37.3489 28.5502 37.4481 28.5632 37.5501 28.5748C38.0504 28.6282 38.5542 28.6316 39.0497 28.5837C39.1503 28.5721 39.2489 28.5618 39.3523 28.5488C39.3619 28.5474 39.3755 28.5474 39.3879 28.5447C39.4748 28.5331 39.5645 28.5201 39.6528 28.5036C39.7411 28.4879 39.8266 28.4728 39.9135 28.4543C40.0395 28.4304 40.162 28.401 40.2866 28.3674C40.3927 28.3394 40.5022 28.3092 40.6089 28.2743C40.7294 28.2394 40.8465 28.1983 40.9669 28.1566C41.0251 28.1347 41.0806 28.1148 41.1374 28.0902C41.2243 28.058 41.3078 28.0238 41.3865 27.9882C41.4748 27.9519 41.5624 27.9122 41.648 27.8698C41.6822 27.8561 41.7158 27.8397 41.7486 27.8233C41.7822 27.8068 41.815 27.7904 41.8472 27.7712C42.0121 27.6871 42.175 27.5994 42.3304 27.5029C42.379 27.4756 42.4262 27.4454 42.4762 27.4139C42.5344 27.3784 42.5912 27.34 42.648 27.3017C42.7048 27.2634 42.7616 27.225 42.817 27.184C42.8807 27.1388 42.9444 27.0936 43.0039 27.0471C43.0258 27.0293 43.0511 27.0101 43.0758 26.9909C43.1004 26.9718 43.1257 26.9526 43.1476 26.9348C43.2003 26.8951 43.2544 26.8513 43.3071 26.8048C43.3585 26.7623 43.4112 26.7158 43.4611 26.6706C43.4858 26.6515 43.5111 26.6254 43.5378 26.6022C43.5645 26.5789 43.5905 26.5556 43.6138 26.5337C43.6665 26.4872 43.7123 26.4406 43.7637 26.3914C43.8123 26.3435 43.8609 26.2955 43.9054 26.2463C43.9095 26.2408 43.9136 26.2353 43.919 26.2326C43.9622 26.1874 44.0053 26.1422 44.047 26.0943C44.0902 26.0491 44.1319 26.0012 44.1737 25.9533C44.175 25.9492 44.1792 25.9437 44.1819 25.9424C44.2613 25.852 44.3393 25.7582 44.4125 25.6638C44.5474 25.4906 44.6788 25.3099 44.7972 25.1244C44.8349 25.0683 44.8711 25.0087 44.9074 24.9499C45.2072 24.4625 45.4591 23.9396 45.6466 23.3838C45.6665 23.3256 45.6863 23.2681 45.7055 23.2106C45.7377 23.095 45.7746 22.9806 45.8047 22.8663C45.8061 22.8622 45.8075 22.8581 45.8088 22.854C46.2633 21.1216 46.121 19.2222 45.2702 17.4919C44.4214 15.7616 43.008 14.4933 41.3612 13.7937ZM44.3393 17.4892L41.9752 18.6507C41.4591 17.6706 40.8636 16.8013 40.2243 16.0812C40.6671 15.6329 41.0457 15.1654 41.3482 14.6904C42.5706 15.2825 43.6295 16.2332 44.3393 17.4892ZM42.4796 22.483C41.6617 22.6514 40.8212 22.9197 39.9786 23.2825L38.8971 21.0813L41.5994 19.7534C42.0203 20.6808 42.3119 21.6097 42.4796 22.483ZM35.8204 27.3058C36.1209 26.9177 36.4864 26.5351 36.8991 26.171C37.6172 26.8903 38.3694 27.4283 39.1093 27.7452C38.2037 27.8465 37.2934 27.7644 36.4358 27.5159C36.3824 27.5043 36.3296 27.4892 36.2763 27.4708C36.1989 27.4468 36.125 27.4215 36.049 27.3934C35.9731 27.3647 35.8978 27.3366 35.8204 27.3058ZM35.4529 22.774L38.1579 21.4447L39.2311 23.6288C38.4159 24.0327 37.6562 24.5091 36.9854 25.0313C36.4282 24.3879 35.9053 23.6241 35.4529 22.774ZM33.3885 16.1031C33.1873 16.8827 33.1544 17.8095 33.2859 18.8177C32.7444 18.919 32.2181 18.9745 31.7246 18.9765C31.8012 18.7123 31.8936 18.4536 31.9991 18.2058C32.0408 18.1025 32.0873 18.0012 32.1352 17.9019C32.177 17.8191 32.2194 17.737 32.2612 17.6541C32.2988 17.5836 32.3365 17.5138 32.3769 17.4426C32.6555 16.9621 32.9936 16.5104 33.3885 16.1031ZM36.3577 17.7821C35.6144 18.1442 34.8512 18.4296 34.1031 18.6288C33.9032 16.9704 34.1859 15.5877 34.9573 14.9334L36.3577 17.7821ZM35.6972 14.5699C36.6534 14.368 37.8786 14.945 39.034 16.0511C38.4611 16.5425 37.8054 16.9984 37.0894 17.4022L35.6972 14.5699ZM34.2386 19.442C35.062 19.2298 35.9032 18.9197 36.7212 18.5207L37.7944 20.7048L35.0894 22.034C34.6931 21.1572 34.409 20.2797 34.2386 19.442ZM40.995 27.2168C40.006 27.4283 38.7383 26.8068 37.5474 25.6357C38.162 25.1655 38.8546 24.7356 39.5952 24.3681L40.995 27.2168ZM41.7335 26.8541L40.3413 24.0217C41.0983 23.7014 41.8602 23.4612 42.5994 23.3071C42.7698 24.8978 42.4803 26.2189 41.7335 26.8541ZM38.5337 20.342L37.4522 18.1408C38.2551 17.6979 38.9806 17.1942 39.613 16.6493C40.2017 17.3153 40.7602 18.1168 41.2359 19.0142L38.5337 20.342ZM37.9081 14.0128C37.9621 14.0107 38.0183 14.0066 38.0737 14.0073C38.1305 14.0039 38.188 14.0025 38.2434 14.0032C38.3564 14.0025 38.47 14.0018 38.5816 14.0052C38.6931 14.0087 38.8033 14.0162 38.9183 14.0258C38.9834 14.0319 39.0477 14.0374 39.1141 14.0463C39.1716 14.0525 39.227 14.0593 39.2825 14.0668C39.3817 14.0798 39.4864 14.097 39.5857 14.1168C39.6822 14.1312 39.7787 14.1524 39.8711 14.1729C40.1065 14.2256 40.3393 14.2934 40.5706 14.3721C40.3194 14.7499 40.0107 15.1216 39.6528 15.483C38.9786 14.8314 38.2729 14.3392 37.5836 14.0422C37.6904 14.0306 37.7992 14.0217 37.9081 14.0128ZM31.5377 19.8006C32.1339 19.8102 32.7684 19.7527 33.4261 19.6288C33.6103 20.5214 33.9183 21.4557 34.3509 22.3989L31.9867 23.5604C31.4706 22.3359 31.3399 21.0354 31.5377 19.8006ZM32.3495 24.2989L34.7136 23.1367C35.1969 24.0573 35.7486 24.8725 36.3413 25.5611C35.8416 26.006 35.4077 26.4735 35.0511 26.9513C33.9539 26.3537 33.0038 25.4557 32.3495 24.2989ZM44.8143 23.2743C44.7753 23.3831 44.7356 23.4851 44.6911 23.5823C44.6562 23.672 44.6165 23.7596 44.5734 23.8465C44.4488 24.1107 44.3065 24.366 44.1518 24.6104C44.1292 24.6419 44.1086 24.6761 44.0861 24.7076C44.0792 24.7212 44.0696 24.7363 44.058 24.7486C44.0231 24.8034 43.9827 24.8616 43.9437 24.915C43.878 25.0053 43.8102 25.0977 43.739 25.184C43.6719 25.2716 43.5987 25.3599 43.5262 25.4434C43.4522 25.5241 43.379 25.6049 43.3037 25.6829C43.4892 24.956 43.5309 24.0963 43.4269 23.1648C43.9334 23.1045 44.4166 23.0874 44.8677 23.1169C44.8506 23.1737 44.8342 23.2236 44.8143 23.2743ZM45.0915 22.3065C44.5303 22.2558 43.9286 22.2695 43.3003 22.3482C43.1237 21.4009 42.8006 20.4009 42.3386 19.3906L44.7028 18.2284C45.2633 19.5583 45.3694 20.9772 45.0915 22.3065Z" fill="#F79237"/>
<path d="M51.7408 30.5837L37.9023 37.4219L39.7802 41.222L53.6186 34.3839L51.7408 30.5837Z" fill="#F79237"/>
<path opacity="0.2" d="M36.6783 50.1333L50.421 38.7191C51.907 37.485 52.111 35.2796 50.8769 33.7937L30.6522 9.44238L19.3359 15.0338L36.6783 50.1333Z" fill="#073259"/>
<path d="M22.9559 7.87716L3.42188 24.1011L28.6979 54.5346L48.2319 38.3106C49.7179 37.0765 49.9218 34.8712 48.6877 33.3852L27.8806 8.33302C26.6472 6.84773 24.4419 6.64306 22.9559 7.87716Z" fill="#084F84"/>
<path d="M24.5585 17.7839C24.5565 17.7812 24.5565 17.7812 24.5524 17.7812C24.5483 17.7805 24.5414 17.7777 24.5373 17.7777C24.5113 17.775 24.4853 17.7682 24.4592 17.7661C24.4271 17.7606 24.399 17.7558 24.3682 17.7531C24.308 17.7428 24.245 17.7346 24.1841 17.7291C24.1211 17.7209 24.0602 17.7154 24 17.7093C23.794 17.6874 23.5866 17.6792 23.3833 17.6751C23.3415 17.673 23.3005 17.6716 23.2587 17.6744C23.1978 17.673 23.1355 17.6757 23.0746 17.6792C22.95 17.6785 22.8268 17.684 22.705 17.697C22.6393 17.6997 22.5797 17.7045 22.5174 17.712C22.4531 17.7168 22.3915 17.7244 22.334 17.7319C22.2717 17.7394 22.2122 17.749 22.154 17.7565C22.0273 17.7729 21.9048 17.7942 21.7823 17.8202C21.7221 17.8298 21.6598 17.8414 21.5968 17.8571C21.4853 17.8818 21.375 17.9085 21.2628 17.9372C21.0711 17.9913 20.8836 18.0502 20.6961 18.1179C20.6646 18.1282 20.6331 18.1385 20.5989 18.1501C20.5578 18.1638 20.5215 18.1782 20.4852 18.1918C20.4052 18.2261 20.3237 18.2576 20.2436 18.2918C20.1984 18.3096 20.1526 18.3315 20.106 18.3534C20.0444 18.3808 19.9801 18.4095 19.9206 18.4389C19.8863 18.4554 19.8514 18.4718 19.8213 18.4889C19.7919 18.5012 19.7638 18.5163 19.7364 18.5313C19.7111 18.5444 19.6831 18.5594 19.6557 18.5738C19.6276 18.5888 19.6002 18.6039 19.5749 18.6162C19.5078 18.6518 19.4407 18.6908 19.3737 18.7305C19.3134 18.7641 19.2552 18.8003 19.1971 18.8366C19.1389 18.8729 19.0807 18.9085 19.0246 18.9475C18.9753 18.9804 18.9288 19.0105 18.8843 19.044C18.8658 19.0556 18.8473 19.0666 18.8281 19.0823C18.772 19.1207 18.72 19.1597 18.668 19.1987C18.607 19.2411 18.5434 19.2897 18.488 19.3397C18.4859 19.3418 18.4859 19.3417 18.4832 19.3438C18.4688 19.3554 18.4551 19.363 18.4407 19.3746C18.4099 19.3958 18.3819 19.4191 18.3531 19.4431C18.3244 19.4663 18.2963 19.4903 18.2696 19.5163C18.2553 19.5279 18.2457 19.5402 18.2313 19.5519C18.1724 19.5971 18.117 19.6463 18.0643 19.6984C17.9952 19.76 17.9274 19.8236 17.8596 19.8914C17.8138 19.9331 17.7727 19.9749 17.7289 20.0194C17.6413 20.1118 17.5557 20.2021 17.4743 20.298C17.3148 20.478 17.1615 20.6648 17.0246 20.8578C16.9315 20.9872 16.8398 21.1186 16.7549 21.2528C16.6748 21.3828 16.594 21.5135 16.5201 21.647C16.5201 21.6511 16.5167 21.658 16.5146 21.6593C16.44 21.7969 16.3682 21.9373 16.2997 22.0776C16.2566 22.1652 16.219 22.2562 16.18 22.3445C15.911 22.9633 15.7262 23.6203 15.6331 24.2973C15.6153 24.4164 15.5988 24.5416 15.5892 24.6655C15.5817 24.7196 15.577 24.7764 15.5756 24.8332C15.5715 24.901 15.5674 24.9681 15.5633 25.0358C15.5578 25.0967 15.5578 25.1604 15.5564 25.2213C15.5544 25.3397 15.5537 25.4602 15.5571 25.5807C15.555 25.5827 15.5585 25.5875 15.5564 25.5896C15.5975 27.261 16.1779 28.9263 17.3244 30.3124C18.4688 31.6957 19.9952 32.5787 21.629 32.9332C21.6311 32.9312 21.6352 32.936 21.6379 32.9339C21.8569 32.9811 22.0766 33.0195 22.2957 33.0468C22.3306 33.0503 22.3627 33.055 22.3949 33.0605C22.4298 33.0639 22.462 33.0694 22.4948 33.0701C22.6967 33.0913 22.8994 33.1043 23.0999 33.1098C23.3949 33.118 23.6899 33.1064 23.9794 33.079C24.0794 33.0687 24.1786 33.0585 24.2806 33.0462C24.7796 32.9818 25.2704 32.8682 25.7413 32.7067C25.8364 32.6717 25.9295 32.6389 26.0274 32.6026C26.0363 32.5992 26.0499 32.5958 26.0616 32.5903C26.1437 32.5588 26.2279 32.5253 26.3101 32.489C26.3922 32.4527 26.4723 32.4192 26.5524 32.3802C26.6687 32.3275 26.7817 32.2707 26.8953 32.2091C26.9925 32.157 27.0917 32.1029 27.1869 32.0441C27.2957 31.9818 27.4004 31.9154 27.5079 31.847C27.5592 31.812 27.6085 31.7799 27.6578 31.7429C27.7351 31.6909 27.8077 31.6389 27.8761 31.5862C27.9535 31.5301 28.0294 31.4712 28.1034 31.4103C28.1342 31.389 28.1622 31.3658 28.191 31.3418C28.2197 31.3185 28.2478 31.2946 28.2745 31.2686C28.4155 31.1481 28.5538 31.0256 28.6824 30.8956C28.7235 30.8579 28.7618 30.8175 28.8036 30.7758C28.8522 30.7279 28.898 30.6772 28.9446 30.6272C28.9911 30.5766 29.0377 30.5266 29.0822 30.4739C29.1335 30.4151 29.1855 30.3569 29.2327 30.2973C29.2505 30.2747 29.2704 30.2501 29.2902 30.2262C29.3101 30.2015 29.3299 30.1776 29.3471 30.155C29.3888 30.1043 29.4312 30.0489 29.4723 29.9914C29.5127 29.938 29.5531 29.8805 29.5914 29.8251C29.6113 29.8004 29.6297 29.7696 29.6496 29.7409C29.6701 29.7121 29.69 29.6834 29.7078 29.6567C29.7481 29.5992 29.7823 29.543 29.8207 29.4835C29.857 29.4253 29.8933 29.3678 29.9247 29.3096C29.9275 29.3035 29.9302 29.2973 29.935 29.2932C29.9665 29.2391 29.998 29.1851 30.0274 29.129C30.0589 29.0749 30.0883 29.0187 30.1178 28.9619C30.1184 28.9578 30.1212 28.951 30.1232 28.9496C30.1794 28.8428 30.2334 28.7347 30.2834 28.6252C30.3744 28.4253 30.46 28.2193 30.5318 28.0112C30.5551 27.9475 30.577 27.8818 30.5989 27.8161C30.7776 27.272 30.9015 26.7052 30.9549 26.1207C30.9603 26.0598 30.9665 25.9989 30.972 25.9386C30.9767 25.8189 30.9856 25.6991 30.9884 25.5807C30.9891 25.5766 30.9891 25.5718 30.9898 25.5677C31.0301 23.7771 30.4504 21.9626 29.2218 20.4766C27.9918 18.9872 26.3224 18.0823 24.5585 17.7839ZM28.3128 20.6874L26.2827 22.3664C25.553 21.5327 24.7721 20.8257 23.9829 20.2733C24.31 19.7346 24.5695 19.1918 24.7536 18.6593C26.0801 18.9509 27.3306 19.6306 28.3128 20.6874ZM27.6626 25.9763C26.9062 26.3295 26.1506 26.786 25.4155 27.3343L23.8528 25.4444L26.1732 23.5259C26.7974 24.3302 27.2971 25.1659 27.6626 25.9763ZM22.3039 32.2125C22.5065 31.7648 22.7727 31.3083 23.0896 30.8586C23.9548 31.3918 24.8118 31.7402 25.605 31.8771C24.7474 32.1858 23.8433 32.3172 22.9514 32.2741C22.8966 32.2754 22.8419 32.2727 22.7858 32.2672C22.705 32.2618 22.627 32.2542 22.5469 32.2446C22.4661 32.2344 22.386 32.2248 22.3039 32.2125ZM20.8952 27.89L23.2176 25.9694L24.7686 27.8449C24.0691 28.4274 23.4415 29.0667 22.9096 29.7306C22.2183 29.2337 21.5325 28.6122 20.8952 27.89ZM17.3388 21.8804C17.3237 22.6854 17.5071 23.5943 17.8685 24.5444C17.3654 24.7682 16.8665 24.9448 16.3867 25.0611C16.3997 24.786 16.4298 24.5129 16.4749 24.248C16.4921 24.1378 16.5133 24.0283 16.5366 23.9208C16.5585 23.8312 16.5797 23.7408 16.6016 23.6511C16.6221 23.5745 16.6427 23.4971 16.6652 23.4184C16.8247 22.8859 17.0492 22.3678 17.3388 21.8804ZM20.6167 22.8243C19.9774 23.3486 19.3011 23.8038 18.6201 24.1713C18.041 22.6046 17.9952 21.1939 18.5941 20.378L20.6167 22.8243ZM19.2286 19.8531C20.1115 19.4348 21.4374 19.7114 22.8179 20.5197C22.3744 21.1303 21.8425 21.7264 21.2395 22.2849L19.2286 19.8531ZM18.9404 24.9311C19.6926 24.5334 20.4387 24.0365 21.1416 23.4588L22.6926 25.3343L20.3702 27.2549C19.7809 26.4937 19.3011 25.7052 18.9404 24.9311ZM27.3162 30.9257C26.4031 31.3603 25.026 31.0503 23.5955 30.1878C24.0842 29.5875 24.6578 29.0092 25.2929 28.4801L27.3162 30.9257ZM27.9507 30.4007L25.9398 27.9688C26.6016 27.4814 27.2868 27.0708 27.9699 26.7497C28.5045 28.2583 28.5298 29.6101 27.9507 30.4007ZM23.3278 24.8099L21.7652 22.9201C22.4435 22.3028 23.0321 21.6443 23.5209 20.968C24.2478 21.4793 24.9774 22.1296 25.6482 22.8914L23.3278 24.8099ZM21.2505 18.7983C21.3025 18.7832 21.3566 18.7668 21.41 18.7545C21.464 18.7374 21.5202 18.723 21.5742 18.7107C21.6844 18.684 21.794 18.6573 21.9035 18.6347C22.013 18.6121 22.1218 18.5943 22.2354 18.5765C22.2998 18.5676 22.3641 18.558 22.4305 18.5512C22.488 18.5437 22.5434 18.5375 22.5989 18.532C22.6988 18.5217 22.8042 18.5142 22.9055 18.5108C23.0027 18.5026 23.1013 18.5012 23.1958 18.4992C23.4374 18.4957 23.679 18.5074 23.9226 18.5307C23.7659 18.9564 23.5523 19.3897 23.2875 19.8243C22.4805 19.3465 21.6796 19.0324 20.9404 18.903C21.0424 18.866 21.1464 18.8318 21.2505 18.7983ZM16.3962 25.9058C16.978 25.7771 17.5824 25.5731 18.193 25.3007C18.579 26.1262 19.0958 26.964 19.7351 27.7799L17.7049 29.4589C16.9192 28.3877 16.4907 27.1529 16.3962 25.9058ZM18.2299 30.0934L20.2601 28.4144C20.9439 29.1981 21.67 29.8627 22.4058 30.3945C22.0232 30.9435 21.7097 31.4986 21.4736 32.0461C20.2669 31.7197 19.1348 31.0667 18.2299 30.0934ZM30.1171 26.2042C30.1041 26.3192 30.089 26.4273 30.0685 26.5327C30.0548 26.6279 30.037 26.7224 30.0151 26.8168C29.9548 27.1022 29.8761 27.3842 29.7817 27.658C29.7673 27.6936 29.755 27.732 29.7406 27.7682C29.7372 27.7833 29.731 27.8004 29.7228 27.8148C29.7016 27.8764 29.6756 27.9421 29.6503 28.003C29.6078 28.1063 29.5627 28.2118 29.5134 28.3124C29.4689 28.413 29.4175 28.5157 29.3662 28.6142C29.3135 28.71 29.2601 28.8059 29.2054 28.899C29.217 28.1488 29.0589 27.3028 28.7413 26.4205C29.2204 26.2446 29.6859 26.1159 30.1315 26.0393C30.1294 26.0981 30.1239 26.1501 30.1171 26.2042ZM30.1616 25.1987C29.6037 25.2795 29.0219 25.4328 28.4292 25.6546C28.037 24.7737 27.4915 23.8763 26.807 23.0009L28.8371 21.3219C29.6913 22.4855 30.1239 23.8408 30.1616 25.1987Z" fill="#FFAE4B"/>
<path d="M38.5703 31.7424L26.6953 41.6045L29.4035 44.8655L41.2785 35.0034L38.5703 31.7424Z" fill="#FFAE4B"/>
</svg>
