<?xml version="1.0" encoding="utf-8"?>
<!-- Generator: Adobe Illustrator 23.0.2, SVG Export Plug-In . SVG Version: 6.00 Build 0)  -->
<svg version="1.1" id="Layer_1" xmlns="http://www.w3.org/2000/svg" xmlns:xlink="http://www.w3.org/1999/xlink" x="0px" y="0px"
	 viewBox="0 0 40 40" style="enable-background:new 0 0 40 40;" xml:space="preserve">
<style type="text/css">
	.st0{fill:#36484D;}
	.st1{fill:#FEAF5A;}
	.st2{fill:#E66137;}
	.st3{opacity:0.3;fill:#1D1D1B;enable-background:new    ;}
</style>
<g>
	<g>
		<g>
			<g>
				<path class="st0" d="M24.6,17.1c-0.2,0.3-0.3,0.6-0.5,0.9c0,0,0,0,0,0c0,0,0,0,0,0c0,0,0,0.1-0.1,0.3c0,0,0,0,0,0.1c0,0,0,0,0,0
					c-0.2,0.4-0.6,1.3-0.8,1.4l0,0l0,0.3v0.1l0,0.3l0,0.4c0,0.1-0.2,0.2-0.3,0.2c-0.6-0.2-1.4-0.4-1.8-0.4c-0.1,0-0.2-0.2-0.2-0.3
					c0-0.1,0.1-0.3,0.1-0.4c0-0.1,0-0.2,0.1-0.3c0,0,0-0.1,0-0.1c0-0.1,0-0.2,0.1-0.3c0,0,0-0.1,0-0.1c0,0-0.2-0.6-0.4-0.8
					c0,0,0,0,0,0c0,0,0,0,0-0.1c-0.1-0.1-0.1-0.3-0.2-0.5v0c0-0.1,0-0.3,0-0.3c0-0.1,0-0.2-0.1-0.4c0-0.1,0-0.2,0-0.4
					c0.2-0.1,0.4-0.2,0.7-0.2l0,0c0,0.1,0.3,0.6,0.4,0.6c0.1-0.1,0.2-0.3,0.3-0.4c0.1-0.3,0.1-0.7,0.2-1c0,0,0-0.1,0-0.1
					c0.2,0,0.4,0,0.7,0c0,0.3,0,0.6-0.1,0.8c0,0,0,0.1,0,0.2c0,0,0,0,0.1,0c0.1-0.3,0.2-0.6,0.3-0.9c0,0,0,0,0-0.1
					c0.3,0,0.5,0,0.7,0.2c0,0.3-0.1,0.5-0.2,0.8c0,0.1,0,0.2,0,0.3c0,0,0,0,0.1,0c0.1-0.2,0.2-0.4,0.2-0.6c0-0.1,0.1-0.2,0.1-0.4
					c0.4,0,0.5,0.1,0.5,0.3c-0.1,0.3-0.2,0.6-0.4,0.9c0,0,0,0.1,0,0.1l0,0l0,0c0.1-0.1,0.2-0.4,0.4-0.6C24.4,16.9,24.6,17,24.6,17.1
					z"/>
				<path class="st1" d="M23,20.3c0,0-0.1,0-0.1,0c-0.5-0.2-1.1-0.4-1.7-0.4h0c-0.1,0-0.1,0-0.2,0c0,0,0,0-0.1,0
					c0-0.1,0-0.2,0.1-0.3h0c0.1,0,0.1,0,0.2,0h0c0.6,0.1,1.2,0.2,1.7,0.4c0,0,0.1,0,0.1,0C23.1,20.1,23.1,20.2,23,20.3z"/>
				<path class="st2" d="M23,20.7c0,0-0.1,0-0.1,0c-0.5-0.2-1.1-0.4-1.7-0.4h0c-0.1,0-0.1,0-0.2,0c0,0-0.1,0-0.1,0
					c0-0.1,0-0.2,0.1-0.3h0c0.1,0,0.1,0,0.2,0h0c0.6,0.1,1.2,0.2,1.7,0.4c0,0,0.1,0,0.2,0.1C23.1,20.5,23,20.6,23,20.7z"/>
				<path class="st2" d="M22.2,17.1c0,0.1-0.1,0.2-0.2,0.1c-0.1,0-0.2-0.1-0.2-0.2c0-0.1,0.1-0.2,0.2-0.1
					C22.1,16.9,22.2,17,22.2,17.1z"/>
				<path class="st2" d="M20.8,17.8c0,0.1,0,0.2-0.1,0.3c-0.1,0-0.2,0-0.3,0c0-0.1,0-0.2,0.1-0.3C20.7,17.7,20.8,17.8,20.8,17.8z"/>
				<path class="st2" d="M22.9,17.3c0,0.1-0.1,0.1-0.3,0.1c-0.1,0-0.2-0.1-0.2-0.2c0-0.1,0.1-0.1,0.3-0.1S23,17.1,22.9,17.3z"/>
				<path class="st2" d="M23.6,17.5c0,0.1-0.2,0.1-0.3,0c-0.1,0-0.2-0.2-0.1-0.3c0-0.1,0.2-0.1,0.3,0C23.6,17.3,23.7,17.4,23.6,17.5
					z"/>
				<path class="st2" d="M24.1,18c0,0.1-0.2,0-0.3,0c-0.1-0.1-0.1-0.2,0-0.3c0-0.1,0.2,0,0.3,0C24.1,17.8,24.2,17.9,24.1,18z"/>
			</g>
			<path class="st1" d="M22.1,18.8C22.1,18.9,22,18.9,22.1,18.8L22.1,18.8c-0.1,0.1-0.2,0-0.2,0V18c0,0,0-0.1,0.1-0.1l0,0
				c0,0,0.1,0,0.1,0.1V18.8z"/>
			<path class="st1" d="M22.4,18.9C22.4,19,22.4,19,22.4,18.9L22.4,18.9c-0.1,0-0.1,0-0.1,0l0.2-0.8c0,0,0,0,0.1,0l0,0
				c0,0,0,0,0,0.1L22.4,18.9z"/>
			<path class="st1" d="M22.8,19C22.8,19.1,22.7,19.1,22.8,19L22.8,19c-0.1,0-0.1,0-0.1,0l0.4-0.7c0,0,0,0,0.1,0l0,0c0,0,0,0,0,0.1
				L22.8,19z"/>
		</g>
		<path class="st3" d="M20.6,18.6c0.1,0.3,0.3,0.7,0.3,0.8c0,0,0,0,0,0.1c0,0-0.1,0.1-0.1,0.3c0,0,0,0.1,0,0.1
			c-0.1,0.1-0.1,0.2-0.1,0.3c0,0.2-0.1,0.3-0.1,0.4c0,0.1,0,0.3,0.2,0.3c0.4,0,1.3,0.2,1.8,0.4c0.1,0,0.3,0,0.3-0.2l0-0.4
			c0-0.1,0.1-0.2,0-0.3v-0.1c0.1-0.1,0.1-0.2,0-0.3l0,0c0.2-0.1,0.4-0.6,0.6-1C22.7,19.3,21.6,19.2,20.6,18.6z"/>
	</g>
	<g>
		<g>
			<g>
				<path class="st0" d="M15.4,21.1c0.3,0.2,0.5,0.4,0.8,0.7c0,0,0,0,0,0c0,0,0,0,0,0c0,0,0.1,0.1,0.2,0.2l0,0l0,0
					c0.3,0.3,1,0.9,1.3,1l0,0l0.2,0.3l0,0.1l0.1,0.3l0.2,0.4c0.1,0.1,0.2,0.1,0.4,0c0.4-0.4,1.2-0.8,1.6-1c0.1-0.1,0.1-0.2,0-0.4
					c-0.1-0.1-0.2-0.2-0.3-0.4c0-0.1-0.1-0.2-0.2-0.2c0,0,0-0.1-0.1-0.1c-0.1-0.1-0.1-0.2-0.2-0.2c0,0,0,0,0,0c0,0,0-0.6,0-0.9v0
					c0,0,0,0,0-0.1c0-0.1,0-0.3,0-0.5v0c0-0.1,0-0.2-0.1-0.3c0-0.1,0-0.2,0-0.4c0-0.1-0.1-0.2-0.1-0.3c-0.2,0-0.4,0-0.7,0l0,0
					c0.1,0.1-0.1,0.7-0.1,0.7c-0.2,0-0.3-0.2-0.4-0.3c-0.2-0.2-0.4-0.6-0.5-0.8c0,0,0-0.1-0.1-0.1c-0.2,0-0.4,0.1-0.6,0.3
					c0.1,0.3,0.3,0.5,0.4,0.8c0,0,0,0.1,0.1,0.2c0,0,0,0-0.1,0c-0.2-0.2-0.4-0.5-0.6-0.8c0,0,0,0,0-0.1c-0.2,0.1-0.4,0.2-0.6,0.4
					c0.1,0.2,0.3,0.4,0.4,0.7c0,0.1,0.1,0.2,0.1,0.2l0,0c-0.1-0.1-0.3-0.3-0.4-0.4c0-0.1-0.2-0.2-0.3-0.3c-0.3,0.1-0.4,0.3-0.4,0.4
					c0.2,0.3,0.4,0.5,0.7,0.8c0,0,0,0.1,0.1,0.1c0,0,0,0,0,0l0,0c-0.1-0.1-0.3-0.2-0.6-0.4C15.5,20.7,15.4,20.9,15.4,21.1z"/>
				<path class="st1" d="M18,23.4C18,23.4,18,23.4,18,23.4c0.5-0.5,1-0.8,1.5-1.1c0,0,0,0,0,0c0,0,0.1-0.1,0.2-0.1c0,0,0,0,0.1,0
					c0-0.1-0.1-0.2-0.2-0.2h0c-0.1,0-0.1,0.1-0.2,0.1c0,0,0,0,0,0c-0.5,0.3-1,0.6-1.4,1c0,0-0.1,0.1-0.1,0.1
					C17.9,23.3,17.9,23.4,18,23.4z"/>
				<path class="st2" d="M18.2,23.8C18.3,23.7,18.3,23.7,18.2,23.8c0.5-0.5,1-0.8,1.5-1.1c0,0,0,0,0,0c0,0,0.1-0.1,0.2-0.1
					s0.1,0,0.1,0c0-0.1,0-0.2-0.2-0.2c0,0,0,0,0,0c-0.1,0-0.1,0.1-0.2,0.1c0,0,0,0,0,0c-0.5,0.3-1,0.6-1.4,1c0,0-0.1,0.1-0.1,0.1
					C18.1,23.7,18.1,23.7,18.2,23.8z"/>
				<path class="st2" d="M17.7,20.2c0,0.1,0.2,0.1,0.3,0c0.1,0,0.2-0.2,0.1-0.3c0-0.1-0.2-0.1-0.3,0C17.7,20,17.6,20.1,17.7,20.2z"
					/>
				<path class="st2" d="M19.2,20.3c0,0.1,0.1,0.2,0.2,0.2c0.1,0,0.2,0,0.2-0.1s-0.1-0.2-0.2-0.2C19.3,20.2,19.2,20.2,19.2,20.3z"/>
				<path class="st2" d="M17,20.6c0,0.1,0.2,0.1,0.3,0c0.1-0.1,0.1-0.2,0.1-0.3c0-0.1-0.2-0.1-0.3,0C17,20.3,17,20.5,17,20.6z"/>
				<path class="st2" d="M16.5,21.1c0.1,0,0.2,0,0.3,0c0.1-0.1,0.1-0.2,0-0.3c-0.1,0-0.2,0-0.3,0C16.4,20.9,16.4,21,16.5,21.1z"/>
				<path class="st2" d="M16.2,21.7c0.1,0,0.2,0,0.3-0.1c0-0.1,0-0.2,0-0.3c-0.1,0-0.2,0-0.3,0.1C16.1,21.5,16.1,21.6,16.2,21.7z"/>
			</g>
			<path class="st1" d="M18.4,21.7C18.4,21.8,18.4,21.8,18.4,21.7L18.4,21.7c0.1,0,0.1,0,0.1,0l-0.3-0.8c0,0,0,0-0.1,0l0,0
				c0,0,0,0,0,0.1L18.4,21.7z"/>
			<path class="st1" d="M18.1,22C18.1,22,18.2,22,18.1,22L18.1,22C18.2,21.9,18.2,21.9,18.1,22l-0.4-0.8c0,0-0.1,0-0.1,0l0,0
				c0,0,0,0.1,0,0.1L18.1,22z"/>
			<path class="st1" d="M17.8,22.2C17.9,22.2,17.9,22.2,17.8,22.2L17.8,22.2C17.9,22.1,17.9,22.1,17.8,22.2l-0.5-0.6
				c0,0-0.1,0-0.1,0l0,0c0,0,0,0.1,0,0.1L17.8,22.2z"/>
		</g>
		<path class="st3" d="M19.6,21c0,0.3,0,0.8,0,0.8c0,0,0,0,0,0c0.1,0,0.1,0.1,0.2,0.2c0,0,0,0,0.1,0.1c0.1,0,0.2,0.1,0.2,0.2
			c0.1,0.1,0.2,0.3,0.3,0.4c0.1,0.1,0,0.3,0,0.4c-0.4,0.2-1.1,0.6-1.6,1c-0.1,0.1-0.3,0-0.4,0l-0.2-0.4c-0.1,0-0.1-0.1-0.1-0.3
			l0-0.1c-0.1,0-0.1-0.1-0.2-0.3l0,0c-0.2,0-0.6-0.4-0.9-0.7C18,22.4,19,21.9,19.6,21z"/>
	</g>
</g>
</svg>
