<?xml version="1.0" encoding="utf-8"?>
<!-- Generator: Adobe Illustrator 23.0.2, SVG Export Plug-In . SVG Version: 6.00 Build 0)  -->
<svg version="1.1" id="Layer_1" xmlns="http://www.w3.org/2000/svg" xmlns:xlink="http://www.w3.org/1999/xlink" x="0px" y="0px"
	 viewBox="0 0 48 40" style="enable-background:new 0 0 48 40;" xml:space="preserve">
<style type="text/css">
	.st0{fill:#F05A30;}
	.st1{fill:#421006;}
	.st2{fill:#F66A24;}
	.st3{fill:#E55213;}
	.st4{fill:none;stroke:#421006;stroke-miterlimit:10;}
	.st5{fill:#EDDDC6;}
	.st6{fill:none;stroke:#421006;stroke-width:1.5;stroke-miterlimit:10;}
	.st7{fill:#DB3D1A;}
	.st8{fill:#FF5A41;}
</style>
<g>
	<path class="st0" d="M23.4,14.9l-0.7,1.4c-0.9,1.6,0.7,4.5,3.6,6.5l0.7-1.4C24.2,19.4,22.6,16.5,23.4,14.9z"/>
	<g>
		<path class="st1" d="M22,18.5c0,0,0.9,0.5,1.1,0.7c0.1,0.1,0.1,1.2,0.1,1.4c0,0.1-0.4,0.6-0.9,1c0.2,0.6,0.4,0.7,0.4,0.7l1.1,0.1
			l1.9-1l0.2-2.3L25,18.6l-2.2-0.2L22,18.5z"/>
		<path class="st1" d="M28.9,20.5L28.9,20.5c0.1,0.1-0.6,1-2.4,2.3s-3.2,2-4.1,2.3l0-0.3l0.6-0.8"/>
		<path class="st2" d="M22,18.3c0,0,0.1-1.7,1.4-2.6c1.2-0.8,2.3-1.3,4.5,0c0.1,0,0.8,0.8,1.1,0.9c0,0,0.2,2.3-0.1,3.8
			c-0.6,0.9-4.9,4-6.6,4.2c-0.3-0.3-0.5-0.5-0.5-0.5s-0.1-0.6-0.1-2.1c0,0,0.3-0.5,0.7-0.7c0.2,0.5,0.3,0.6,0.3,0.6s0.5,0.2,0.7,0.2
			c0.2,0,1.6-0.5,2-0.8c0.4-0.2,0.4-0.6,0.4-1.1c0-0.4,0.1-1.1,0-1.3c-0.1-0.2-0.6-0.4-1.2-0.5c-0.5-0.1-2.6-0.1-2.6-0.1
			S22,18.5,22,18.3z"/>
		<path class="st3" d="M27,18c0,0-0.2,0.3-0.6,0.6c0,0.4,0,2-0.2,2.5c-0.2,0.4-0.4,0.7-0.7,0.9c0,0,2.4-1.9,2.7-2.2s0.8-1,0.8-1
			v-0.4l-0.2-0.6L27,18z"/>
		<path class="st3" d="M26.4,17.6l-0.1-0.3c0,0-1.5,0-3-0.3c0.6-1,1.7-1.8,1.7-1.8l-1.2,0.3c-0.1,0-0.3,0.1-0.4,0.2
			c-1.2,0.8-1.4,2.6-1.4,2.6c0,0.2,0,0.2,0,0.2s2,0,2.6,0.1l1.2-0.1L26.4,17.6z"/>
		<path class="st4" d="M22,18.3c0,0,0.1-1.7,1.4-2.6c1.2-0.8,2.3-1.3,4.5,0c0.1,0,0.8,0.8,1.1,0.9c0,0,0.2,2.3-0.1,3.8
			c-0.6,0.9-4.9,4-6.6,4.2c-0.3-0.3-0.5-0.5-0.5-0.5s-0.1-0.6-0.1-2.1c0,0,0.3-0.5,0.7-0.7c0.2,0.5,0.3,0.6,0.3,0.6s0.5,0.2,0.7,0.2
			c0.2,0,1.6-0.5,2-0.8c0.4-0.2,0.4-0.6,0.4-1.1c0-0.4,0.1-1.1,0-1.3c-0.1-0.2-0.6-0.4-1.2-0.5c-0.5-0.1-2.6-0.1-2.6-0.1
			S22,18.5,22,18.3z"/>
		<path class="st1" d="M25.2,15.1c0,0,1.5,0,2.7,0.9c0,0-0.4,1.4-0.9,2c-0.5,0.6-0.7,0-0.4-0.7C26.9,16.6,26.4,15.4,25.2,15.1z"/>
		<path class="st5" d="M25.4,20.8c0,0,0-1.8,0.6-1.7c0.6,0.1,0,2,0,2l-0.4,0L25.4,20.8"/>
		<path class="st6" d="M24.1,22.2c0,0-0.1-0.6,0.2-0.9c0.4-0.3,0.9-0.5,1-0.6s0.4,0.2,0.4,0.4s-0.5,0.7-0.5,0.7L24.1,22.2z"/>
		<path class="st5" d="M24.1,22.2c0,0-0.1-0.6,0.2-0.9c0.4-0.3,0.9-0.5,1-0.6s0.4,0.2,0.4,0.4s-0.5,0.7-0.5,0.7L24.1,22.2z"/>
		<path class="st1" d="M23.8,22.6c0.5-0.1,1.7-0.7,2-1c0.2-0.3,0.4-1.2,0.4-1.9c0-0.7,0-0.8-0.6-1.1s-1.1-0.3-1.7-0.3
			c-0.5,0-1.5,0-1.8,0c0,0,0,0.1,0,0.1c-0.1,0.1,0,0.1,0,0.1s2,0,2.6,0.1c0.5,0.1,1,0.3,1.2,0.5c0.1,0.2,0,0.8,0,1.3
			c0,0.4-0.1,0.8-0.4,1.1c-0.4,0.2-1.7,0.8-2,0.8s-0.7-0.2-0.7-0.2s-0.1-0.1-0.3-0.6c-0.4,0.1-0.6,0.6-0.7,0.7
			C22.2,22.4,23.4,22.7,23.8,22.6z"/>
		<g>
			<path class="st2" d="M25.4,21.5c-0.2,0.1-0.4,0.3-0.6,0.4c-0.2,0.1-0.4,0.2-0.7,0.3c-0.1,0-0.2,0.1-0.3,0.1c0,0-0.1,0-0.2,0
				c0,0-0.1,0-0.2,0c-0.2,0-0.4-0.2-0.7-0.3h0l0,0c0,0,0-0.1,0-0.1s0-0.1,0-0.1c0-0.1,0-0.2-0.1-0.3c0,0.1,0.1,0.2,0.2,0.3l0.1,0.1
				c0,0,0,0.1,0.1,0.1l0,0c0.2,0,0.4,0.1,0.7,0.2c0,0,0.2,0,0.3,0L24,22C24.4,21.8,24.9,21.7,25.4,21.5z"/>
		</g>
		<polyline class="st1" points="19.2,17.3 20,18 21.2,18.2 21.8,17.9 20.6,16.9 19.5,17 		"/>
		<path class="st7" d="M25.2,15.1v-0.1c0,0-0.9-0.1-3,0.8c-2.1,0.9-3.3,1.4-3.3,1.4l0.1,0.2l1.5,0.1l0.7,0.5l1.5,0.1l0.6-0.3l3,0.2
			l0.8-1.4v-0.1l-2.2-0.3l-0.7,0.6c0,0-0.7-0.2-1.2-0.4C23.8,15.9,25.2,15.1,25.2,15.1z"/>
		<path class="st8" d="M22.2,15.6C20.2,16.5,19,17,18.9,17l1.6,0.1l0.7,0.6l1.2,0.1l-1-0.3L20.8,17L20,16.9l3.6-1.8
			C23.2,15.3,22.8,15.5,22.2,15.6z"/>
		<path class="st4" d="M25.2,15.1v-0.1c0,0-0.9-0.1-3,0.8c-2.1,0.9-3.3,1.4-3.3,1.4l0.1,0.2l1.5,0.1l0.7,0.5l1.5,0.1l0.6-0.3l3,0.2
			l0.8-1.4v-0.1l-2.2-0.3l-0.7,0.6c0,0-0.7-0.2-1.2-0.4C23.8,15.9,25.2,15.1,25.2,15.1z"/>
		<path class="st1" d="M25.7,21.1c0,0-0.1-0.3-0.3-0.3c-0.2,0-1,0.5-1.2,0.8C24.5,21.4,25.5,20.9,25.7,21.1z"/>
		<path class="st1" d="M25.7,19.3c0,0-0.2,0.5-0.2,1.2c0.2,0.1,0.2,0.2,0.2,0.2s-0.1-0.2-0.1-0.4C25.6,20.1,25.7,19.3,25.7,19.3z"/>
		<path class="st5" d="M24,20.9c0,0-0.1-0.3-0.3-0.3c-0.2,0-0.5,0.2-0.8,0.6c-0.2,0.3-0.2,0.5-0.2,0.6c0,0.1,0.1,0.2,0.1,0.2
			s-0.1-0.2,0-0.4c0.3,0,0.7-0.2,1-0.9C23.8,20.8,24,20.8,24,20.9z"/>
		<path class="st5" d="M23.5,20.5c0,0-0.1-0.8-0.1-1c0-0.2-0.3-0.4-0.5-0.6c0.3,0.1,0.6,0.4,0.6,0.6c0,0.1,0.2,0.9,0.2,0.9
			s0.2,0.1,0.3,0.3C23.8,20.5,23.5,20.5,23.5,20.5z"/>
		<polyline class="st4" points="18.9,17.1 20.6,17.2 21.2,17.9 22.6,18 23.4,17.6 26.2,17.9 27.2,16.6 		"/>
		<polyline class="st1" points="20.5,17.2 22.5,16.4 20.6,17.3 		"/>
		<polygon class="st1" points="23.3,17.6 24.1,17 23.5,17.6 		"/>
		<polygon class="st1" points="26.1,17.9 26.2,18 26.2,17.8 		"/>
		<polygon class="st1" points="21.2,17.8 22.9,16.6 21.3,17.9 		"/>
		<polygon class="st1" points="25.2,14.9 22.8,16.4 23,16.5 25.2,15.1 		"/>
		<path class="st1" d="M28,16.2c0,0-0.4,1.1-1,1.8c-0.3,0.8-0.2,2.1,0.4,2.3c0.7-0.4,1.6-1.6,1.6-1.6s0-1.5-0.1-1.7
			c0,0-0.2,0.5-0.5,0.7c0,0,0.2-0.4,0.4-0.8C28.6,16.7,28.1,16.3,28,16.2z"/>
		<path class="st1" d="M29,18.9c0,0-0.9,1-1.5,1.5c-0.6,0.9-1.4,1.7-1.7,1.9s0.1,0.4,0.7,0.1c0.6-0.3,2-1.6,2.3-1.9
			C29,19.6,29,18.9,29,18.9z"/>
		<path class="st1" d="M22.2,22.2c0,0,0,2,0,2.4c0,0-0.3-0.3-0.4-0.4c0-0.4-0.1-2-0.1-2.1C21.8,22,22.2,22.2,22.2,22.2z"/>
		<g>
			<polygon class="st2" points="22.2,22.5 21.7,22.1 22.3,22.2 			"/>
		</g>
		<polygon class="st2" points="22.7,22.4 23.1,22.3 22.7,22.5 		"/>
		<path class="st7" d="M25.2,22.1l-0.8,0.4l-0.2,1.3c0,0,0.9-0.4,1-0.6V22.1z"/>
		<path class="st7" d="M24.2,22.6L24,23.8c0,0-0.5,0.3-1.7,0.7c0,0,1-0.6,1.4-0.9C24.1,23.1,24.2,22.6,24.2,22.6z"/>
		<g>
			<g>
				<path class="st1" d="M24.1,17.2c-0.1,0-0.1,0.1-0.2,0.1c0,0-0.1,0-0.1,0.1c0,0,0,0,0,0.1c0,0,0,0,0,0s0,0,0.1,0
					C24,17.4,24.1,17.3,24.1,17.2C24.1,17.2,24.1,17.2,24.1,17.2L24.1,17.2z"/>
			</g>
		</g>
		<g>
			<g>
				<path class="st1" d="M23.9,17.3C23.9,17.4,23.9,17.4,23.9,17.3c-0.2,0.1,0,0.3,0,0.2c0,0-0.1,0-0.1,0c0,0,0.1,0,0.1,0
					C24,17.5,24,17.5,23.9,17.3C24.1,17.4,24,17.3,23.9,17.3L23.9,17.3z"/>
			</g>
		</g>
		<g>
			<g>
				<path class="st1" d="M24,17.4C23.9,17.4,23.9,17.4,24,17.4c-0.1,0.1-0.1,0.1-0.1,0.1c0,0,0,0,0,0c0,0,0,0,0.1,0c0,0,0,0,0,0
					C24.1,17.5,24,17.4,24,17.4L24,17.4z"/>
			</g>
		</g>
		<g>
			<g>
				<path class="st1" d="M24,17.4C24,17.4,24,17.4,24,17.4c-0.1,0.1-0.1,0.2,0,0.2c0,0,0,0,0,0C24.1,17.5,24.1,17.4,24,17.4L24,17.4
					z"/>
			</g>
		</g>
		<g>
			<g>
				<path class="st1" d="M24,17.6L24,17.6C24.1,17.7,24.2,17.6,24,17.6L24,17.6C24.1,17.4,24,17.5,24,17.6L24,17.6z"/>
			</g>
		</g>
		<g>
			<g>
				<path class="st1" d="M26.9,16.6c-0.1,0.1-0.2,0.2-0.3,0.3c0,0,0,0,0,0C26.8,16.9,26.9,16.7,26.9,16.6C27,16.6,27,16.6,26.9,16.6
					L26.9,16.6z"/>
			</g>
		</g>
		<g>
			<g>
				<path class="st1" d="M26.9,16.6C26.8,16.6,26.8,16.6,26.9,16.6c-0.1,0.1-0.1,0.1,0,0.1l0,0C26.9,16.7,26.9,16.7,26.9,16.6
					C26.9,16.7,26.9,16.6,26.9,16.6C26.9,16.6,26.9,16.6,26.9,16.6L26.9,16.6z"/>
			</g>
		</g>
		<g>
			<g>
				<path class="st1" d="M26.8,16.6C26.7,16.6,26.7,16.6,26.8,16.6C26.6,16.7,26.7,16.7,26.8,16.6C26.8,16.6,26.8,16.6,26.8,16.6
					C26.9,16.6,26.9,16.6,26.8,16.6L26.8,16.6z"/>
			</g>
		</g>
		<g>
			<g>
				<path class="st1" d="M26.7,16.6L26.7,16.6C26.7,16.6,26.7,16.7,26.7,16.6C26.7,16.7,26.7,16.7,26.7,16.6
					C26.8,16.6,26.8,16.5,26.7,16.6L26.7,16.6z"/>
			</g>
		</g>
		<g>
			<g>
				<path class="st1" d="M26.7,16.6c-0.1,0-0.2,0-0.3,0l0,0C26.5,16.6,26.6,16.6,26.7,16.6C26.7,16.6,26.7,16.6,26.7,16.6L26.7,16.6
					z"/>
			</g>
		</g>
		<g>
			<g>
				<path class="st1" d="M26.1,18L26.1,18C26.1,18.1,26.2,18.1,26.1,18C26.2,18,26.2,18,26.1,18C26.1,17.9,26,17.9,26.1,18L26.1,18z
					"/>
			</g>
		</g>
		<g>
			<g>
				<path class="st1" d="M22.9,17.7C22.8,17.7,22.8,17.7,22.9,17.7c-0.1,0.1-0.2,0.1-0.2,0.1c0,0-0.1,0-0.1,0.1c0,0,0,0,0,0
					C22.7,18,22.9,17.8,22.9,17.7C22.9,17.7,22.9,17.7,22.9,17.7C22.9,17.7,22.9,17.7,22.9,17.7L22.9,17.7L22.9,17.7z"/>
			</g>
		</g>
		<g>
			<g>
				<path class="st1" d="M22.7,17.8c-0.1,0-0.2,0-0.2,0.1s0,0.1,0,0.1C22.6,17.9,22.6,17.9,22.7,17.8C22.7,17.8,22.7,17.8,22.7,17.8
					L22.7,17.8z"/>
			</g>
		</g>
		<g>
			<g>
				<path class="st1" d="M22.5,17.8c0,0-0.1,0-0.1,0.1c0,0,0,0,0,0h0h0C22.5,17.9,22.5,17.9,22.5,17.8
					C22.6,17.8,22.6,17.8,22.5,17.8L22.5,17.8z"/>
			</g>
		</g>
		<g>
			<g>
				<path class="st1" d="M22.4,17.8C22.3,17.8,22.3,17.9,22.4,17.8C22.3,17.9,22.3,17.9,22.4,17.8C22.4,17.9,22.4,17.9,22.4,17.8
					C22.5,17.9,22.4,17.8,22.4,17.8L22.4,17.8z"/>
			</g>
		</g>
		<g>
			<g>
				<path class="st1" d="M22.3,17.8C22.3,17.9,22.3,17.9,22.3,17.8C22.2,17.9,22.2,17.9,22.3,17.8C22.3,17.9,22.3,17.9,22.3,17.8
					C22.4,17.9,22.3,17.8,22.3,17.8L22.3,17.8z"/>
			</g>
		</g>
		<g>
			<g>
				<path class="st1" d="M21.3,17c-0.1,0-0.3,0-0.3,0.1c0,0,0,0,0,0c0,0,0.1,0,0.1,0C21.3,17.1,21.3,17.1,21.3,17
					C21.3,17.1,21.3,17,21.3,17L21.3,17z"/>
			</g>
		</g>
		<g>
			<g>
				<path class="st1" d="M21.2,17.1c0,0-0.1,0-0.2,0c0,0,0,0.1,0,0.1S21.2,17.2,21.2,17.1C21.3,17.2,21.3,17.1,21.2,17.1L21.2,17.1z
					"/>
			</g>
		</g>
		<g>
			<g>
				<path class="st1" d="M21.2,17.2C21.2,17.2,21.2,17.2,21.2,17.2c-0.1,0.1-0.1,0.1,0,0.1S21.2,17.3,21.2,17.2
					C21.3,17.3,21.3,17.2,21.2,17.2L21.2,17.2z"/>
			</g>
		</g>
		<g>
			<g>
				<path class="st1" d="M21.2,17.3L21.2,17.3C21.2,17.3,21.1,17.3,21.2,17.3C21.1,17.3,21.1,17.3,21.2,17.3c-0.1,0.1,0,0.1,0,0.1
					C21.2,17.4,21.2,17.4,21.2,17.3C21.3,17.3,21.3,17.3,21.2,17.3L21.2,17.3z"/>
			</g>
		</g>
		<g>
			<g>
				<path class="st1" d="M21.2,17.4L21.2,17.4C21.2,17.4,21.2,17.4,21.2,17.4L21.2,17.4C21.3,17.4,21.3,17.3,21.2,17.4L21.2,17.4z"
					/>
			</g>
		</g>
		<g>
			<g>
				<path class="st1" d="M19,17.2L19,17.2C19,17.3,19,17.3,19,17.2C19,17.2,19,17.2,19,17.2C19,17.2,19,17.2,19,17.2L19,17.2z"/>
			</g>
		</g>
		<g>
			<g>
				<path class="st1" d="M19,17.2C19,17.2,19,17.2,19,17.2C19.1,17.3,19.2,17.3,19,17.2C19.1,17.2,19.1,17.2,19,17.2L19,17.2
					L19,17.2z"/>
			</g>
		</g>
		<g>
			<g>
				<path class="st1" d="M19.1,17.2C19.1,17.3,19.1,17.3,19.1,17.2C19.1,17.3,19.2,17.3,19.1,17.2C19.2,17.2,19.2,17.2,19.1,17.2
					C19.1,17.2,19,17.2,19.1,17.2L19.1,17.2z"/>
			</g>
		</g>
		<g>
			<g>
				<path class="st1" d="M19.1,17.2C19.2,17.3,19.2,17.3,19.1,17.2C19.2,17.3,19.2,17.3,19.1,17.2C19.2,17.2,19.2,17.2,19.1,17.2
					C19.2,17.2,19.2,17.1,19.1,17.2v-0.1C19.1,17.2,19.1,17.2,19.1,17.2L19.1,17.2z"/>
			</g>
		</g>
		<g>
			<g>
				<path class="st1" d="M19.2,17.3L19.2,17.3L19.2,17.3L19.2,17.3C19.3,17.1,19.1,17.2,19.2,17.3L19.2,17.3z"/>
			</g>
		</g>
		<g>
			<g>
				<path class="st1" d="M19.2,17.3C19.2,17.3,19.2,17.3,19.2,17.3C19.3,17.3,19.3,17.3,19.2,17.3C19.3,17.3,19.3,17.3,19.2,17.3
					C19.2,17.2,19.2,17.2,19.2,17.3L19.2,17.3z"/>
			</g>
		</g>
		<g>
			<g>
				<path class="st1" d="M19.3,17.3L19.3,17.3C19.3,17.3,19.3,17.3,19.3,17.3C19.3,17.2,19.3,17.2,19.3,17.3
					C19.3,17.2,19.3,17.3,19.3,17.3L19.3,17.3z"/>
			</g>
		</g>
		<g>
			<g>
				<path class="st1" d="M21.2,18L21.2,18C21.2,18.1,21.3,18.1,21.2,18L21.2,18C21.3,17.9,21.2,17.9,21.2,18L21.2,18z"/>
			</g>
		</g>
		<g>
			<g>
				<path class="st1" d="M21.3,18L21.3,18C21.3,18,21.3,18,21.3,18C21.3,18,21.3,17.9,21.3,18C21.3,17.9,21.3,17.9,21.3,18
					C21.3,17.9,21.3,17.9,21.3,18C21.3,17.9,21.3,18,21.3,18L21.3,18z"/>
			</g>
		</g>
		<g>
			<g>
				<path class="st1" d="M21.3,18C21.3,18.1,21.3,18.1,21.3,18C21.4,18.1,21.4,18.1,21.3,18C21.4,18,21.4,18,21.3,18
					C21.3,17.9,21.3,17.9,21.3,18L21.3,18z"/>
			</g>
		</g>
		<g>
			<g>
				<path class="st1" d="M21.3,18C21.3,18,21.4,18,21.3,18C21.4,18.1,21.4,18,21.3,18C21.4,18,21.4,18,21.3,18
					C21.4,17.9,21.3,18,21.3,18L21.3,18z"/>
			</g>
		</g>
		<g>
			<g>
				<path class="st1" d="M21.4,18L21.4,18C21.4,18.1,21.4,18.1,21.4,18C21.4,18,21.4,18,21.4,18C21.4,18,21.4,18,21.4,18L21.4,18z"
					/>
			</g>
		</g>
		<g>
			<g>
				<path class="st1" d="M21.4,18C21.4,18.1,21.4,18.1,21.4,18C21.5,18.1,21.5,18.1,21.4,18C21.5,18,21.4,18,21.4,18
					C21.4,18,21.4,18,21.4,18L21.4,18z"/>
			</g>
		</g>
		<g>
			<g>
				<path class="st1" d="M21.5,18.1L21.5,18.1C21.5,18.1,21.6,18.1,21.5,18.1L21.5,18.1C21.5,18,21.4,18,21.5,18.1L21.5,18.1z"/>
			</g>
		</g>
		<g>
			<g>
				<path class="st1" d="M21.6,18.1L21.6,18.1C21.6,18.1,21.7,18.1,21.6,18.1L21.6,18.1C21.6,18,21.5,18,21.6,18.1L21.6,18.1z"/>
			</g>
		</g>
		<g>
			<g>
				<path class="st1" d="M22.3,22.5c0.1,0,0.3,0.1,0.4,0.1c0,0,0,0,0,0c0,0-0.1,0-0.1,0C22.6,22.5,22.5,22.5,22.3,22.5
					C22.3,22.4,22.2,22.5,22.3,22.5L22.3,22.5z"/>
			</g>
		</g>
		<g>
			<g>
				<path class="st1" d="M22.3,22.6c0.1,0,0.2,0.1,0.3,0.1c0,0,0,0,0,0c0,0-0.1,0-0.1,0C22.4,22.6,22.4,22.6,22.3,22.6
					C22.3,22.5,22.3,22.6,22.3,22.6L22.3,22.6z"/>
			</g>
		</g>
		<g>
			<g>
				<path class="st1" d="M22.3,22.7c0,0,0.1,0.1,0.2,0.1c0,0,0.1,0,0-0.1S22.3,22.6,22.3,22.7C22.3,22.6,22.3,22.7,22.3,22.7
					L22.3,22.7z"/>
			</g>
		</g>
		<g>
			<g>
				<path class="st1" d="M22.3,22.8c0,0,0.2,0.1,0.2,0c0,0,0,0,0,0C22.4,22.7,22.4,22.7,22.3,22.8C22.3,22.8,22.2,22.8,22.3,22.8
					L22.3,22.8z"/>
			</g>
		</g>
		<g>
			<g>
				<path class="st1" d="M22.3,22.9C22.3,22.9,22.3,22.9,22.3,22.9C22.4,23,22.5,22.9,22.3,22.9C22.4,22.8,22.3,22.8,22.3,22.9
					C22.3,22.8,22.3,22.9,22.3,22.9L22.3,22.9z"/>
			</g>
		</g>
		<g>
			<g>
				<path class="st1" d="M22.3,23C22.3,23,22.3,23,22.3,23C22.3,23,22.3,23,22.3,23c0.1,0,0.1,0,0.1,0C22.4,22.9,22.4,22.9,22.3,23
					L22.3,23C22.3,22.9,22.2,23,22.3,23L22.3,23z"/>
			</g>
		</g>
		<g>
			<g>
				<path class="st1" d="M22.3,23C22.3,23.1,22.3,23.1,22.3,23C22.4,23.1,22.4,23,22.3,23C22.3,23,22.3,23,22.3,23
					C22.3,23,22.3,23,22.3,23L22.3,23z"/>
			</g>
		</g>
		<g>
			<g>
				<path class="st1" d="M22.3,23.2l0,0.5c0,0.1,0,0.3,0,0.5c0,0,0,0,0.1,0c0-0.2,0-0.4,0-0.6C22.4,23.5,22.4,23.3,22.3,23.2
					C22.3,23.2,22.3,23.1,22.3,23.2C22.3,23.1,22.3,23.1,22.3,23.2L22.3,23.2L22.3,23.2z"/>
			</g>
		</g>
		<g>
			<g>
				<path class="st1" d="M26,22.7c0,0-0.1,0-0.1,0.1c-0.1,0-0.2,0.1-0.2,0.1c0,0,0,0.1,0,0.1C25.8,23,26,22.9,26,22.7L26,22.7
					L26,22.7z"/>
			</g>
		</g>
		<g>
			<g>
				<path class="st1" d="M25.9,22.6c-0.1,0-0.2,0-0.2,0.2c0,0,0,0,0,0C25.8,22.9,25.9,22.8,25.9,22.6C26,22.7,25.9,22.6,25.9,22.6
					L25.9,22.6z"/>
			</g>
		</g>
		<g>
			<g>
				<path class="st1" d="M25.9,22.6c-0.1,0-0.1,0-0.2,0.1c0,0,0,0,0,0C25.8,22.8,25.9,22.7,25.9,22.6C25.9,22.7,25.9,22.6,25.9,22.6
					L25.9,22.6z"/>
			</g>
		</g>
		<g>
			<g>
				<path class="st1" d="M25.8,22.6C25.7,22.6,25.7,22.6,25.8,22.6C25.6,22.7,25.6,22.7,25.8,22.6C25.7,22.7,25.8,22.7,25.8,22.6
					C25.9,22.7,25.8,22.6,25.8,22.6L25.8,22.6z"/>
			</g>
		</g>
		<g>
			<g>
				<path class="st1" d="M25.7,22.6L25.7,22.6C25.6,22.6,25.6,22.6,25.7,22.6L25.7,22.6C25.8,22.6,25.8,22.5,25.7,22.6L25.7,22.6z"
					/>
			</g>
		</g>
		<g>
			<g>
				<path class="st1" d="M25.6,22.5L25.6,22.5C25.6,22.5,25.6,22.5,25.6,22.5C25.6,22.5,25.6,22.5,25.6,22.5
					C25.7,22.7,25.7,22.4,25.6,22.5L25.6,22.5z"/>
			</g>
		</g>
		<g>
			<g>
				<path class="st1" d="M25.6,22.5c0.1,0,0.1-0.1,0-0.1C25.6,22.4,25.6,22.5,25.6,22.5L25.6,22.5z"/>
			</g>
		</g>
		<g>
			<g>
				<path class="st1" d="M25.3,23c-0.4,0.2-0.7,0.5-1.2,0.7c-0.4,0.2-0.7,0.3-1.1,0.5c0,0,0,0.1,0,0C23.8,24,24.7,23.6,25.3,23
					L25.3,23L25.3,23z"/>
			</g>
		</g>
		<g>
			<g>
				<path class="st1" d="M22.8,24.4c-0.1,0-0.2,0-0.2,0.1c-0.1,0-0.2,0-0.2,0.1s0,0.1,0,0.1C22.6,24.6,22.7,24.5,22.8,24.4
					C22.8,24.4,22.8,24.4,22.8,24.4L22.8,24.4z"/>
			</g>
		</g>
		<g>
			<g>
				<path class="st1" d="M27.5,18.3c-0.1,0.3-0.3,0.7-0.5,1.1c-0.1,0.1-0.2,0.3-0.3,0.4C26.5,20,26.3,20,26.1,20c0,0,0,0,0,0.1
					c0.3,0.1,0.7,0,0.9-0.3C27.3,19.4,27.4,18.8,27.5,18.3C27.6,18.3,27.5,18.3,27.5,18.3L27.5,18.3z"/>
			</g>
		</g>
		<g>
			<g>
				<path class="st1" d="M27,18.1c-0.1,0-0.2,0.1-0.2,0.2c-0.1,0.1-0.2,0.1-0.2,0.2c0,0,0,0.1,0,0.1c0.1,0,0.2-0.1,0.2-0.2
					C26.9,18.4,27,18.3,27,18.1C27.1,18.1,27,18.1,27,18.1L27,18.1z"/>
			</g>
		</g>
		<g>
			<g>
				<path class="st1" d="M27,18.2c-0.1,0-0.1,0.1-0.2,0.1c-0.1,0.1-0.2,0.1-0.2,0.2c0,0,0,0.1,0,0.1C26.8,18.7,27,18.4,27,18.2
					C27.1,18.2,27.1,18.2,27,18.2L27,18.2z"/>
			</g>
		</g>
		<g>
			<g>
				<path class="st1" d="M27,18.3c-0.1,0-0.1,0.1-0.2,0.2s-0.1,0.1-0.2,0.1c0,0,0,0.1,0,0.1C26.9,18.8,27,18.6,27,18.3
					C27.1,18.3,27.1,18.3,27,18.3L27,18.3z"/>
			</g>
		</g>
		<g>
			<g>
				<path class="st1" d="M27,18.5c-0.1,0-0.2,0.1-0.2,0.2c0,0,0,0,0,0C26.9,18.7,27,18.7,27,18.5L27,18.5L27,18.5z"/>
			</g>
		</g>
		<g>
			<g>
				<path class="st1" d="M27,18.6c-0.1,0-0.2,0-0.2,0.1c0,0.1,0,0.2,0.1,0.1c0,0,0.1-0.1,0.1-0.1C27,18.6,27,18.6,27,18.6L27,18.6z"
					/>
			</g>
		</g>
		<g>
			<g>
				<path class="st1" d="M26.9,18.7c0,0-0.1,0-0.1,0c0,0,0,0,0,0.1v0c0,0,0,0,0,0C26.9,18.9,26.9,18.8,26.9,18.7
					C27,18.7,26.9,18.7,26.9,18.7L26.9,18.7z"/>
			</g>
		</g>
		<g>
			<g>
				<path class="st1" d="M26.9,18.9C26.9,18.9,26.8,18.9,26.9,18.9c0,0,0,0.1,0,0.1c0,0,0,0,0,0C27.1,18.9,26.9,18.8,26.9,18.9
					L26.9,18.9z"/>
			</g>
		</g>
		<g>
			<g>
				<path class="st1" d="M26.9,19L26.9,19C26.8,19.1,26.8,19.1,26.9,19L26.9,19C27,19.1,26.9,19,26.9,19L26.9,19z"/>
			</g>
		</g>
		<g>
			<g>
				<path class="st1" d="M27.3,20.3c-0.2,0.1-0.3,0.2-0.5,0.3c-0.1,0.1-0.3,0.2-0.4,0.3c0,0,0,0.1,0,0.1c0.2,0,0.3-0.2,0.4-0.3
					C27,20.7,27.2,20.5,27.3,20.3C27.4,20.4,27.3,20.3,27.3,20.3L27.3,20.3z"/>
			</g>
		</g>
		<g>
			<g>
				<path class="st1" d="M27.2,20.3c0,0-0.1,0-0.2,0c-0.1,0-0.2,0-0.2,0.1c0,0,0,0.1,0,0.1c0.2,0,0.3-0.1,0.4-0.2
					C27.3,20.4,27.3,20.3,27.2,20.3L27.2,20.3z"/>
			</g>
		</g>
		<g>
			<g>
				<path class="st1" d="M27.1,20.2c-0.1,0-0.3,0-0.3,0.1c0,0,0,0,0,0C27,20.4,27.1,20.3,27.1,20.2C27.2,20.3,27.2,20.2,27.1,20.2
					L27.1,20.2z"/>
			</g>
		</g>
		<g>
			<g>
				<path class="st1" d="M27.1,20.1c0,0-0.1,0-0.2,0c0,0,0,0.1,0,0.1C27,20.3,27,20.2,27.1,20.1C27.1,20.2,27.1,20.1,27.1,20.1
					L27.1,20.1z"/>
			</g>
		</g>
		<g>
			<g>
				<path class="st1" d="M27,20C27,20,27,20,27,20C26.9,20,26.9,20.1,27,20C27,20.1,27,20.1,27,20C27.1,20.2,27.1,20,27,20L27,20z"
					/>
			</g>
		</g>
		<g>
			<g>
				<path class="st1" d="M27,20.1L27,20.1L27,20.1L27,20.1z"/>
			</g>
		</g>
		<g>
			<g>
				<path class="st1" d="M27.1,19.8c-0.1,0-0.2,0-0.2,0.1c0,0,0,0,0,0C27,20,27.1,20,27.1,19.8C27.2,19.8,27.2,19.8,27.1,19.8
					L27.1,19.8z"/>
			</g>
		</g>
		<g>
			<g>
				<path class="st1" d="M27.2,20.8c-0.2,0.2-0.4,0.4-0.6,0.6c-0.2,0.1-0.4,0.2-0.6,0.4c0,0,0,0,0,0C26.5,21.6,26.9,21.3,27.2,20.8
					C27.3,20.8,27.2,20.7,27.2,20.8L27.2,20.8z"/>
			</g>
		</g>
		<g>
			<g>
				<path class="st1" d="M26.8,21.4L26.8,21.4C26.8,21.3,26.8,21.3,26.8,21.4c-0.1,0-0.3,0.1-0.4,0.2c-0.2,0.1-0.4,0.3-0.6,0.4
					c0,0,0,0.1,0,0c0.2-0.1,0.4-0.2,0.5-0.4c0,0,0.1-0.1,0.2-0.1C26.6,21.5,26.8,21.4,26.8,21.4L26.8,21.4L26.8,21.4z"/>
			</g>
		</g>
		<g>
			<g>
				<path class="st1" d="M26.4,21.8c-0.2,0-0.5,0.2-0.7,0.3c0,0,0,0.1,0,0.1C26,22.2,26.2,21.9,26.4,21.8
					C26.4,21.8,26.4,21.8,26.4,21.8L26.4,21.8z"/>
			</g>
		</g>
		<g>
			<g>
				<path class="st1" d="M25.7,21.9C25.6,21.9,25.6,21.9,25.7,21.9C25.5,22,25.5,22,25.6,22c0,0,0,0,0.1,0
					C25.9,22,25.8,21.9,25.7,21.9L25.7,21.9z"/>
			</g>
		</g>
		<g>
			<g>
				<path class="st1" d="M25.6,22.3C25.6,22.3,25.6,22.2,25.6,22.3C25.6,22.2,25.6,22.3,25.6,22.3L25.6,22.3z"/>
			</g>
		</g>
		<g>
			<g>
				<path class="st1" d="M26.9,18.9C26.8,18.9,26.8,18.9,26.9,18.9c-0.1,0.1-0.1,0.1,0,0.1c0,0,0,0,0,0s0,0,0,0S26.9,19.1,26.9,18.9
					C27,19,26.9,18.9,26.9,18.9L26.9,18.9z"/>
			</g>
		</g>
		<g>
			<g>
				<path class="st1" d="M26.9,19.1L26.9,19.1C26.8,19.2,26.8,19.2,26.9,19.1L26.9,19.1C27,19.2,26.9,19.1,26.9,19.1L26.9,19.1z"/>
			</g>
		</g>
		<g>
			<g>
				<path class="st1" d="M27.9,16C27.9,16.1,27.9,16.1,27.9,16c0.1,0.1,0.1,0,0.1,0C28,16,28,16,27.9,16C27.9,15.9,27.8,16,27.9,16
					L27.9,16z"/>
			</g>
		</g>
		<g>
			<g>
				<path class="st1" d="M27.9,16.1C27.9,16.1,27.9,16.1,27.9,16.1c0.1,0.1,0.1,0.1,0.1,0c0,0,0,0,0,0S28,16,27.9,16.1L27.9,16.1
					C28,16,27.9,16,27.9,16.1L27.9,16.1C27.9,16.1,27.9,16.1,27.9,16.1L27.9,16.1z"/>
			</g>
		</g>
		<g>
			<g>
				<path class="st1" d="M27.8,16.2C27.8,16.2,27.8,16.2,27.8,16.2c0.1,0.1,0.1,0.1,0.1,0v0C28,16.1,27.9,16.1,27.8,16.2
					C27.9,16.1,27.9,16.1,27.8,16.2C27.9,16.1,27.8,16.2,27.8,16.2L27.8,16.2z"/>
			</g>
		</g>
		<g>
			<g>
				<path class="st1" d="M27.8,16.3L27.8,16.3C27.8,16.4,27.9,16.4,27.8,16.3C27.9,16.4,27.9,16.3,27.8,16.3
					C28,16.2,27.8,16.2,27.8,16.3L27.8,16.3z"/>
			</g>
		</g>
		<g>
			<g>
				<path class="st1" d="M27.9,16.5C28,16.5,28,16.4,27.9,16.5C27.9,16.4,27.9,16.5,27.9,16.5L27.9,16.5z"/>
			</g>
		</g>
		<g>
			<g>
				<path class="st1" d="M25.3,15.2c-0.1,0-0.2,0.1-0.3,0.2c-0.1,0-0.2,0.1-0.3,0.2c0,0,0,0.1,0,0.1C25,15.7,25.1,15.4,25.3,15.2
					C25.4,15.3,25.4,15.2,25.3,15.2L25.3,15.2z"/>
			</g>
		</g>
		<g>
			<g>
				<path class="st1" d="M25.4,15.3c-0.1,0-0.2,0.1-0.3,0.2s-0.2,0.2-0.3,0.3c0,0,0,0.1,0,0.1c0.1,0,0.2,0,0.2-0.1
					C25.2,15.6,25.3,15.4,25.4,15.3C25.5,15.4,25.5,15.3,25.4,15.3L25.4,15.3z"/>
			</g>
		</g>
		<g>
			<g>
				<path class="st1" d="M25.4,15.5c-0.1,0-0.3,0.1-0.3,0.3c0,0,0,0,0,0c0,0,0,0,0,0s0,0,0.1,0C25.4,15.7,25.5,15.6,25.4,15.5
					C25.5,15.5,25.5,15.5,25.4,15.5L25.4,15.5z"/>
			</g>
		</g>
		<g>
			<g>
				<path class="st1" d="M25.5,15.6c-0.1,0-0.2,0-0.2,0.1c0,0,0,0.1,0.1,0.1C25.5,15.8,25.5,15.7,25.5,15.6
					C25.6,15.6,25.5,15.6,25.5,15.6L25.5,15.6z"/>
			</g>
		</g>
		<g>
			<g>
				<path class="st1" d="M25.6,15.6c0,0-0.1,0-0.1,0c-0.3,0,0,0.5,0.1,0.2C25.6,15.8,25.6,15.8,25.6,15.6
					C25.6,15.7,25.6,15.6,25.6,15.6L25.6,15.6z"/>
			</g>
		</g>
		<g>
			<g>
				<path class="st1" d="M25.5,15.7L25.5,15.7c-0.1,0,0,0.2,0,0.1c0,0,0,0,0,0C25.7,15.8,25.6,15.6,25.5,15.7L25.5,15.7z"/>
			</g>
		</g>
		<g>
			<g>
				<path class="st1" d="M24.9,15.3c-0.1,0-0.3,0.1-0.2,0.2c0,0,0,0,0.1,0C24.9,15.5,24.9,15.4,24.9,15.3C25,15.3,25,15.3,24.9,15.3
					L24.9,15.3z"/>
			</g>
		</g>
		<g>
			<g>
				<path class="st1" d="M23.4,17.8c-0.1,0-0.2,0.1-0.3,0.2c0,0,0,0.1,0,0.1C23.3,18.1,23.3,18,23.4,17.8
					C23.5,17.9,23.5,17.8,23.4,17.8L23.4,17.8z"/>
			</g>
		</g>
		<g>
			<g>
				<path class="st1" d="M23.5,17.9c-0.1,0-0.3,0.1-0.4,0.2c0,0,0,0.1,0,0.1C23.3,18.2,23.4,18.1,23.5,17.9
					C23.6,17.9,23.6,17.9,23.5,17.9L23.5,17.9z"/>
			</g>
		</g>
		<g>
			<g>
				<path class="st1" d="M23.6,17.8c-0.1,0-0.3,0.1-0.3,0.2c0,0,0,0.1,0,0.1C23.4,18.2,23.7,18.1,23.6,17.8
					C23.7,17.8,23.6,17.8,23.6,17.8L23.6,17.8z"/>
			</g>
		</g>
		<g>
			<g>
				<path class="st1" d="M23.7,17.9c-0.1,0-0.2,0.1-0.3,0.2c0,0,0,0,0,0C23.5,18.1,23.6,18.1,23.7,17.9
					C23.8,17.9,23.7,17.8,23.7,17.9L23.7,17.9z"/>
			</g>
		</g>
		<g>
			<g>
				<path class="st1" d="M23.9,17.9c-0.1,0-0.2,0.1-0.2,0.2c0,0,0,0.1,0,0.1C23.8,18.1,23.9,18,23.9,17.9
					C24,17.9,23.9,17.8,23.9,17.9L23.9,17.9z"/>
			</g>
		</g>
		<g>
			<g>
				<path class="st1" d="M24,17.9c-0.1,0-0.2,0.1-0.2,0.1s0,0,0,0C23.9,18.1,24,18,24,17.9C24.1,17.9,24,17.8,24,17.9L24,17.9z"/>
			</g>
		</g>
		<g>
			<g>
				<path class="st1" d="M24.1,17.9c0,0-0.1,0-0.1,0.1c0,0,0,0.1,0,0C24,18.1,24.1,18,24.1,17.9C24.1,17.9,24.1,17.9,24.1,17.9
					L24.1,17.9z"/>
			</g>
		</g>
		<g>
			<g>
				<path class="st1" d="M24.2,17.9c-0.1,0-0.1,0-0.2,0.1c0,0,0,0.1,0,0C24.2,18.1,24.3,18,24.2,17.9C24.3,17.9,24.3,17.9,24.2,17.9
					L24.2,17.9z"/>
			</g>
		</g>
		<g>
			<g>
				<path class="st1" d="M24.3,17.9C24.3,17.9,24.3,17.9,24.3,17.9c-0.3,0-0.1,0.3,0,0.1C24.4,18,24.4,18,24.3,17.9
					C24.3,18,24.3,17.9,24.3,17.9L24.3,17.9z"/>
			</g>
		</g>
		<g>
			<g>
				<path class="st1" d="M24.4,17.9C24.3,17.9,24.3,18,24.4,17.9c-0.1,0.1-0.1,0.3,0,0.2c0,0,0,0,0,0C24.4,18,24.4,17.9,24.4,17.9
					L24.4,17.9z"/>
			</g>
		</g>
		<g>
			<g>
				<path class="st1" d="M24.4,18L24.4,18c-0.2,0,0,0.3,0,0.1C24.4,18.1,24.4,18.1,24.4,18C24.4,18.1,24.4,18,24.4,18L24.4,18z"/>
			</g>
		</g>
		<g>
			<g>
				<path class="st1" d="M24.4,18.1C24.4,18.1,24.4,18.1,24.4,18.1C24.4,18.1,24.4,18.1,24.4,18.1L24.4,18.1c0.1,0.1,0.1,0,0.1,0
					C24.5,18,24.4,18,24.4,18.1L24.4,18.1z"/>
			</g>
		</g>
		<g>
			<g>
				<path class="st1" d="M24.5,18.1L24.5,18.1C24.4,18.1,24.4,18.1,24.5,18.1L24.5,18.1C24.6,18.2,24.6,18,24.5,18.1L24.5,18.1z"/>
			</g>
		</g>
		<g>
			<g>
				<path class="st1" d="M24.5,18.1L24.5,18.1C24.5,18.2,24.6,18.2,24.5,18.1L24.5,18.1C24.5,18.1,24.5,18.1,24.5,18.1L24.5,18.1z"
					/>
			</g>
		</g>
		<g>
			<g>
				<path class="st1" d="M24.9,18.3c0.3,0.2,0.6,0.4,0.9,0.4c0,0,0.1,0,0-0.1C25.7,18.3,25.2,18.1,24.9,18.3
					C24.9,18.2,24.9,18.2,24.9,18.3L24.9,18.3z"/>
			</g>
		</g>
		<g>
			<g>
				<path class="st1" d="M24.1,22.6c-0.3,0-0.7,0.1-1.1,0c0,0,0,0,0,0C23.3,22.8,23.8,22.7,24.1,22.6C24.2,22.7,24.1,22.6,24.1,22.6
					L24.1,22.6z"/>
			</g>
		</g>
		<g>
			<g>
				<path class="st1" d="M23.7,22.8c0,0-0.1,0-0.2,0c0,0,0,0,0,0C23.6,22.9,23.6,22.8,23.7,22.8C23.7,22.8,23.7,22.8,23.7,22.8
					L23.7,22.8z"/>
			</g>
		</g>
		<g>
			<g>
				<path class="st1" d="M23.7,22.8c0,0-0.1,0-0.1,0c0,0,0,0.1,0,0.1C23.6,23,23.7,23,23.7,22.8C23.7,22.9,23.7,22.8,23.7,22.8
					L23.7,22.8z"/>
			</g>
		</g>
		<g>
			<g>
				<path class="st1" d="M23.6,22.9C23.6,22.9,23.6,22.9,23.6,22.9C23.5,23,23.5,23,23.6,22.9C23.5,23,23.5,23,23.6,22.9
					C23.6,23,23.6,23,23.6,22.9C23.7,23,23.7,23,23.6,22.9C23.8,23,23.7,22.8,23.6,22.9L23.6,22.9z"/>
			</g>
		</g>
		<g>
			<g>
				<path class="st1" d="M23.6,23C23.6,23,23.6,23,23.6,23C23.6,23,23.6,23.1,23.6,23c0,0.1,0,0.1,0,0.1
					C23.7,23.2,23.7,22.8,23.6,23L23.6,23z"/>
			</g>
		</g>
		<g>
			<g>
				<path class="st2" d="M28.7,17.7c0,0.3-0.1,0.7,0,1.1c0,0.1,0.2,0.1,0.2,0c0-0.1,0-0.3,0-0.5C28.8,18.1,28.8,18,28.7,17.7
					C28.8,17.6,28.7,17.7,28.7,17.7L28.7,17.7z"/>
			</g>
		</g>
		<g>
			<g>
				<path class="st2" d="M28.7,18.7c0,0,0,0.1,0,0.2c0,0.1,0.1,0.1,0.2,0C28.9,18.8,28.8,18.8,28.7,18.7
					C28.7,18.6,28.7,18.6,28.7,18.7L28.7,18.7z"/>
			</g>
		</g>
		<g>
			<g>
				<path class="st2" d="M28.6,18.7c0,0,0,0.1,0,0.1c0,0,0.1,0,0.1,0C28.8,18.8,28.7,18.8,28.6,18.7C28.7,18.7,28.6,18.7,28.6,18.7
					L28.6,18.7z"/>
			</g>
		</g>
		<g>
			<g>
				<path class="st2" d="M28.6,18.9C28.6,19,28.6,19,28.6,18.9c0,0.1,0,0.1,0.1,0.1l0,0c0,0,0,0,0,0c0,0,0,0,0,0
					C28.7,18.8,28.6,18.8,28.6,18.9L28.6,18.9z"/>
			</g>
		</g>
		<g>
			<g>
				<path class="st2" d="M28.6,19L28.6,19C28.6,19.1,28.6,19.1,28.6,19C28.6,19.1,28.6,19,28.6,19C28.7,18.9,28.5,18.9,28.6,19
					L28.6,19z"/>
			</g>
		</g>
		<g>
			<g>
				<path class="st2" d="M28.5,19.2c0.1,0,0.1-0.1,0-0.1S28.4,19.2,28.5,19.2L28.5,19.2z"/>
			</g>
		</g>
		<g>
			<g>
				<path class="st2" d="M29,19.1c0,0-0.1,0.1-0.1,0.1c0,0-0.1,0.1-0.2,0.1c-0.1,0.1-0.3,0.2-0.4,0.3c0,0,0,0.1,0.1,0.1
					c0.2,0,0.3-0.2,0.4-0.3c0-0.1,0.1-0.2,0.2-0.3C29.1,19.2,29.1,19.2,29,19.1C29.1,19.1,29,19.1,29,19.1L29,19.1z"/>
			</g>
		</g>
		<g>
			<g>
				<path class="st2" d="M28.7,19.7c-0.1,0.1-0.2,0.1-0.4,0.2c0,0,0,0,0,0C28.5,20,28.6,19.8,28.7,19.7
					C28.7,19.7,28.7,19.7,28.7,19.7L28.7,19.7z"/>
			</g>
		</g>
		<g>
			<g>
				<path class="st2" d="M28.3,20C28.2,20.1,28.2,20.1,28.3,20C28.2,20.1,28.2,20.1,28.3,20L28.3,20C28.3,20.1,28.3,20.1,28.3,20
					C28.3,20.1,28.3,20.1,28.3,20C28.4,20.1,28.3,20,28.3,20L28.3,20z"/>
			</g>
		</g>
		<g>
			<g>
				<path class="st2" d="M28.2,20.1L28.2,20.1C28.1,20.2,28.2,20.2,28.2,20.1L28.2,20.1C28.3,20.2,28.2,20.1,28.2,20.1L28.2,20.1z"
					/>
			</g>
		</g>
		<g>
			<g>
				<path class="st2" d="M27.5,15.9C27.6,15.9,27.6,16,27.5,15.9c0.1,0,0.1,0,0.1,0C27.6,15.9,27.6,15.8,27.5,15.9
					C27.6,15.8,27.6,15.9,27.5,15.9C27.6,15.9,27.6,15.9,27.5,15.9C27.5,15.9,27.6,15.9,27.5,15.9C27.5,15.9,27.5,15.9,27.5,15.9
					C27.6,15.9,27.6,15.9,27.5,15.9c0.1,0,0.1,0,0.1,0C27.6,15.9,27.6,15.9,27.5,15.9C27.6,15.9,27.5,15.9,27.5,15.9
					C27.5,16,27.6,16,27.5,15.9C27.6,15.9,27.6,15.9,27.5,15.9C27.6,15.9,27.6,15.8,27.5,15.9C27.6,15.9,27.6,15.9,27.5,15.9
					L27.5,15.9L27.5,15.9C27.5,16,27.6,16,27.5,15.9C27.6,16,27.6,16,27.5,15.9C27.6,15.9,27.6,15.9,27.5,15.9
					C27.5,15.9,27.5,16,27.5,15.9L27.5,15.9C27.6,15.9,27.6,15.9,27.5,15.9C27.6,15.9,27.6,15.9,27.5,15.9
					C27.6,15.9,27.5,16,27.5,15.9L27.5,15.9C27.6,15.9,27.6,15.9,27.5,15.9C27.6,15.9,27.6,15.8,27.5,15.9
					C27.5,15.9,27.5,15.9,27.5,15.9C27.6,16,27.6,16,27.5,15.9C27.6,16,27.6,16,27.5,15.9L27.5,15.9C27.6,16,27.5,16,27.5,15.9
					C27.6,16,27.6,16,27.5,15.9C27.6,16,27.6,16,27.5,15.9C27.6,15.9,27.6,15.9,27.5,15.9C27.5,15.9,27.5,16,27.5,15.9L27.5,15.9
					C27.5,15.9,27.5,15.9,27.5,15.9C27.6,15.9,27.6,15.9,27.5,15.9C27.5,15.9,27.5,15.9,27.5,15.9L27.5,15.9
					C27.5,15.9,27.5,15.9,27.5,15.9L27.5,15.9C27.6,15.8,27.5,16,27.5,15.9L27.5,15.9C27.6,16,27.6,15.9,27.5,15.9
					c0-0.1,0-0.1,0-0.1C27.5,15.8,27.5,15.9,27.5,15.9C27.6,16,27.6,16,27.5,15.9c0.1,0.1,0.1,0,0.1,0
					C27.6,15.8,27.6,15.8,27.5,15.9C27.6,15.8,27.5,15.9,27.5,15.9c0.1,0,0.1,0,0.1,0s0,0,0-0.1C27.6,15.8,27.6,15.8,27.5,15.9
					C27.6,15.8,27.5,15.8,27.5,15.9C27.5,16,27.6,16,27.5,15.9c0.1,0.1,0.1,0,0.1,0C27.6,15.9,27.6,15.9,27.5,15.9
					C27.5,15.8,27.4,15.9,27.5,15.9c0,0.1,0.1,0.1,0.1,0.1c0,0,0,0,0-0.1C27.6,15.9,27.6,15.8,27.5,15.9
					C27.5,15.8,27.5,15.9,27.5,15.9c0,0.1,0,0.1,0.1,0.1c0,0,0.1,0,0-0.1C27.6,15.9,27.6,15.9,27.5,15.9
					C27.5,15.8,27.4,15.9,27.5,15.9C27.5,16,27.6,16,27.5,15.9c0.1,0.1,0.1,0,0.1,0C27.6,15.9,27.6,15.8,27.5,15.9
					C27.5,15.9,27.5,15.9,27.5,15.9c0,0,0,0,0.1,0c0,0,0,0,0,0C27.6,15.9,27.6,15.8,27.5,15.9C27.5,15.9,27.5,15.9,27.5,15.9
					c0,0.1,0.1,0.1,0.1,0.1s0,0,0,0C27.6,15.9,27.6,15.8,27.5,15.9C27.4,15.9,27.4,15.9,27.5,15.9c0,0.1,0.1,0.2,0.1,0.1
					c0,0,0,0,0,0C27.6,15.9,27.5,15.8,27.5,15.9c-0.2,0.1,0.1,0.2,0.1,0.2s0,0,0-0.1C27.6,15.9,27.6,15.9,27.5,15.9
					C27.5,15.9,27.5,15.9,27.5,15.9C27.5,15.9,27.5,15.9,27.5,15.9C27.5,15.9,27.5,15.9,27.5,15.9L27.5,15.9z"/>
			</g>
		</g>
		<g>
			<g>
				<path class="st2" d="M27.4,15.8L27.4,15.8C27.4,15.8,27.4,15.7,27.4,15.8C27.4,15.7,27.4,15.7,27.4,15.8
					C27.4,15.7,27.3,15.7,27.4,15.8C27.3,15.8,27.3,15.8,27.4,15.8L27.4,15.8L27.4,15.8C27.4,15.8,27.4,15.8,27.4,15.8
					C27.3,15.8,27.3,15.8,27.4,15.8L27.4,15.8C27.4,15.7,27.4,15.7,27.4,15.8C27.4,15.7,27.3,15.8,27.4,15.8L27.4,15.8L27.4,15.8
					L27.4,15.8C27.3,15.8,27.3,15.8,27.4,15.8L27.4,15.8C27.4,15.8,27.4,15.8,27.4,15.8C27.4,15.7,27.4,15.7,27.4,15.8
					C27.3,15.7,27.3,15.8,27.4,15.8L27.4,15.8C27.3,15.8,27.3,15.8,27.4,15.8C27.3,15.8,27.3,15.8,27.4,15.8
					C27.3,15.8,27.3,15.8,27.4,15.8L27.4,15.8c0-0.1,0-0.1,0-0.1c0,0,0,0,0,0C27.3,15.6,27.2,15.7,27.4,15.8
					C27.3,15.8,27.3,15.8,27.4,15.8C27.3,15.8,27.4,15.8,27.4,15.8L27.4,15.8C27.4,15.8,27.4,15.7,27.4,15.8c0-0.1,0-0.1-0.1-0.1
					s0,0,0,0l0,0c0,0,0,0,0,0.1S27.3,15.8,27.4,15.8C27.4,15.8,27.4,15.7,27.4,15.8c0-0.1,0-0.1-0.1-0.1s-0.1,0,0,0.1
					C27.3,15.8,27.3,15.8,27.4,15.8C27.4,15.8,27.4,15.8,27.4,15.8c0-0.1-0.1-0.1-0.1-0.1c0,0,0,0,0,0.1
					C27.2,15.8,27.2,15.8,27.4,15.8C27.3,15.8,27.4,15.7,27.4,15.8c-0.1-0.1-0.1-0.1-0.1-0.1c0,0,0,0,0,0
					C27.3,15.7,27.3,15.7,27.4,15.8C27.4,15.7,27.4,15.7,27.4,15.8c-0.1-0.1-0.1-0.1-0.1-0.1c0,0,0,0,0,0
					C27.3,15.7,27.3,15.7,27.4,15.8C27.4,15.7,27.3,15.7,27.4,15.8C27.3,15.7,27.3,15.7,27.4,15.8C27.3,15.7,27.3,15.7,27.4,15.8
					L27.4,15.8z"/>
			</g>
		</g>
		<g>
			<g>
				<path class="st2" d="M28.2,17.8C28.2,17.9,28.2,17.9,28.2,17.8C28.2,17.9,28.2,17.9,28.2,17.8L28.2,17.8
					C28.2,17.9,28.2,17.8,28.2,17.8C28.2,17.8,28.2,17.8,28.2,17.8C28.2,17.9,28.2,17.9,28.2,17.8L28.2,17.8
					C28.3,17.8,28.2,17.8,28.2,17.8C28.2,17.8,28.2,17.8,28.2,17.8C28.2,17.8,28.2,17.8,28.2,17.8L28.2,17.8
					C28.3,17.9,28.3,17.9,28.2,17.8L28.2,17.8C28.2,17.9,28.2,17.9,28.2,17.8L28.2,17.8C28.2,17.9,28.2,17.8,28.2,17.8L28.2,17.8
					c0,0,0,0.1,0,0.2c0,0,0,0,0,0C28.3,18,28.2,18,28.2,17.8c0,0.1,0,0.1,0,0.1C28.5,18,28.4,17.6,28.2,17.8
					C28.2,17.7,28.2,17.7,28.2,17.8c-0.1,0-0.1,0-0.1,0.1v0c0,0.1,0.2,0.1,0.2,0C28.3,17.9,28.3,17.9,28.2,17.8
					C28.3,17.8,28.3,17.8,28.2,17.8C28.2,17.8,28.1,17.9,28.2,17.8c-0.1,0-0.1,0.1,0,0.1C28.3,18,28.3,17.9,28.2,17.8
					C28.3,17.8,28.3,17.7,28.2,17.8C28.2,17.8,28.1,17.9,28.2,17.8c-0.1,0.1,0,0.1,0,0.1C28.3,17.9,28.3,17.9,28.2,17.8
					C28.3,17.8,28.3,17.8,28.2,17.8C28.2,17.8,28.2,17.9,28.2,17.8c0,0.1,0,0.1,0,0.1C28.3,17.9,28.3,17.9,28.2,17.8
					C28.3,17.8,28.2,17.8,28.2,17.8L28.2,17.8z"/>
			</g>
		</g>
		<g>
			<g>
				<path class="st2" d="M28.8,20.7C28.9,20.7,28.9,20.7,28.8,20.7L28.8,20.7C28.9,20.6,28.9,20.6,28.8,20.7
					C28.8,20.6,28.8,20.7,28.8,20.7L28.8,20.7z"/>
			</g>
		</g>
		<g>
			<g>
				<path class="st2" d="M28.8,20.7C28.8,20.7,28.8,20.8,28.8,20.7C28.9,20.7,28.9,20.7,28.8,20.7C28.9,20.6,28.8,20.6,28.8,20.7
					C28.8,20.6,28.7,20.7,28.8,20.7L28.8,20.7z"/>
			</g>
		</g>
		<g>
			<g>
				<path class="st2" d="M28.8,20.8L28.8,20.8C28.8,20.8,28.8,20.7,28.8,20.8C28.8,20.7,28.8,20.7,28.8,20.8
					C28.7,20.6,28.7,20.8,28.8,20.8L28.8,20.8z"/>
			</g>
		</g>
		<g>
			<g>
				<path class="st2" d="M28.7,20.7L28.7,20.7C28.6,20.8,28.6,20.8,28.7,20.7L28.7,20.7C28.7,20.8,28.8,20.8,28.7,20.7
					C28.7,20.8,28.7,20.8,28.7,20.7C28.8,20.7,28.7,20.7,28.7,20.7L28.7,20.7z"/>
			</g>
		</g>
		<g>
			<g>
				<path class="st2" d="M28.6,20.9C28.7,20.9,28.7,20.9,28.6,20.9C28.7,20.9,28.7,20.8,28.6,20.9L28.6,20.9
					C28.6,20.8,28.6,20.9,28.6,20.9L28.6,20.9z"/>
			</g>
		</g>
		<g>
			<g>
				<path class="st2" d="M28.6,21C28.6,21,28.6,20.9,28.6,21C28.6,20.9,28.6,21,28.6,21L28.6,21z"/>
			</g>
		</g>
		<g>
			<g>
				<path class="st2" d="M25.8,19c-0.1-0.1-0.2-0.2-0.4-0.3c-0.1,0-0.3-0.1-0.4,0v0c0.1,0.1,0.2,0.1,0.4,0.1
					C25.4,18.9,25.6,19,25.8,19C25.8,19.1,25.8,19,25.8,19L25.8,19z"/>
			</g>
		</g>
		<g>
			<g>
				<path class="st2" d="M24.8,18.7C24.8,18.7,24.8,18.7,24.8,18.7C24.7,18.7,24.7,18.7,24.8,18.7C24.8,18.7,24.8,18.7,24.8,18.7
					L24.8,18.7L24.8,18.7z"/>
			</g>
		</g>
		<g>
			<g>
				<path class="st2" d="M24.5,18.6c-0.4-0.2-0.9-0.1-1.4-0.1c0,0,0,0,0,0C23.6,18.7,24.1,18.7,24.5,18.6
					C24.5,18.7,24.5,18.7,24.5,18.6L24.5,18.6z"/>
			</g>
		</g>
		<g>
			<g>
				<path class="st5" d="M23.7,20.4C23.8,20.4,23.8,20.4,23.7,20.4c0.1,0,0.1,0,0.1,0C23.8,20.4,23.8,20.4,23.7,20.4
					C23.7,20.3,23.7,20.4,23.7,20.4L23.7,20.4z"/>
			</g>
		</g>
		<g>
			<g>
				<path class="st5" d="M23.7,20.3C23.8,20.4,23.8,20.4,23.7,20.3C23.8,20.4,23.8,20.4,23.7,20.3L23.7,20.3
					C23.8,20.3,23.8,20.3,23.7,20.3C23.7,20.3,23.7,20.3,23.7,20.3C23.7,20.3,23.7,20.3,23.7,20.3L23.7,20.3z"/>
			</g>
		</g>
		<g>
			<g>
				<path class="st5" d="M23.7,20.3C23.8,20.3,23.8,20.3,23.7,20.3h0.1C23.8,20.2,23.8,20.2,23.7,20.3
					C23.7,20.2,23.7,20.3,23.7,20.3L23.7,20.3z"/>
			</g>
		</g>
		<g>
			<g>
				<path class="st5" d="M23.7,20.3L23.7,20.3C23.8,20.3,23.8,20.2,23.7,20.3L23.7,20.3C23.7,20.1,23.7,20.3,23.7,20.3L23.7,20.3z"
					/>
			</g>
		</g>
		<g>
			<g>
				<path class="st5" d="M23.7,20.2L23.7,20.2C23.8,20.2,23.8,20.1,23.7,20.2C23.8,20.1,23.7,20.1,23.7,20.2
					C23.7,20.1,23.7,20.2,23.7,20.2L23.7,20.2z"/>
			</g>
		</g>
		<g>
			<g>
				<path class="st5" d="M23.7,20.1C23.7,20.1,23.7,20.1,23.7,20.1C23.7,20.1,23.8,20,23.7,20.1C23.7,20,23.7,20,23.7,20.1
					L23.7,20.1L23.7,20.1C23.7,20,23.7,20.1,23.7,20.1L23.7,20.1z"/>
			</g>
		</g>
		<g>
			<g>
				<path class="st5" d="M23.7,20L23.7,20L23.7,20L23.7,20C23.7,19.9,23.6,20.1,23.7,20L23.7,20z"/>
			</g>
		</g>
		<g>
			<g>
				<path class="st2" d="M22.3,21.5c-0.1,0-0.3,0.1-0.3,0.3c0,0,0,0,0,0C22.1,21.8,22.2,21.6,22.3,21.5
					C22.3,21.5,22.3,21.5,22.3,21.5L22.3,21.5z"/>
			</g>
		</g>
		<g>
			<g>
				<path class="st2" d="M22.3,21.6c0,0-0.1,0.1-0.2,0.1c0,0,0,0,0,0C22.2,21.8,22.3,21.6,22.3,21.6C22.4,21.6,22.3,21.6,22.3,21.6
					L22.3,21.6z"/>
			</g>
		</g>
		<g>
			<g>
				<path class="st2" d="M22.2,21.6C22.2,21.7,22.2,21.7,22.2,21.6c-0.1,0.1,0,0.2,0,0.2s0,0,0.1,0C22.4,21.7,22.3,21.5,22.2,21.6
					L22.2,21.6z"/>
			</g>
		</g>
		<g>
			<g>
				<path class="st2" d="M22.3,21.7C22.3,21.7,22.3,21.7,22.3,21.7c-0.2,0-0.1,0.2,0,0.1C22.3,21.8,22.3,21.8,22.3,21.7
					C22.4,21.8,22.3,21.7,22.3,21.7L22.3,21.7z"/>
			</g>
		</g>
		<g>
			<g>
				<path class="st2" d="M22.3,21.8C22.3,21.8,22.3,21.8,22.3,21.8C22.3,21.9,22.3,21.9,22.3,21.8C22.4,21.9,22.4,21.9,22.3,21.8
					C22.4,21.8,22.4,21.8,22.3,21.8L22.3,21.8z"/>
			</g>
		</g>
		<g>
			<g>
				<path class="st2" d="M22.4,21.9c0,0,0-0.1,0-0.1C22.3,21.8,22.3,21.9,22.4,21.9L22.4,21.9z"/>
			</g>
		</g>
	</g>
</g>
</svg>
