<svg width="139" height="40" viewBox="0 0 139 40" fill="none" xmlns="http://www.w3.org/2000/svg">
<path opacity="0.2" d="M31.7481 35.6906C36.4229 39.4381 40.9003 39.9979 43.1532 39.9979C43.753 39.9979 44.1705 39.9573 44.3413 39.9357C47.6795 39.7859 50.3164 36.9637 50.4757 33.4452C55.1301 36.8577 59.4729 37.3806 61.6929 37.3806C62.3263 37.3806 62.7642 37.3381 62.9438 37.3146C65.2246 37.2156 67.3151 35.8537 68.448 33.7435C71.1433 33.9542 73.9141 34.0608 76.6887 34.0608C109.612 34.0608 114.827 33.748 115.033 33.7346C115.102 33.7302 115.17 33.7226 115.238 33.7131C115.711 33.6458 119.909 32.9623 121.604 29.7745C122.268 28.5249 122.777 26.4503 121.426 23.6629C121.393 23.5938 121.359 23.5252 121.325 23.4573C122.461 23.6071 123.053 23.5303 123.309 23.4979C125.768 23.3475 127.695 21.2075 127.695 18.6258C127.695 18.4348 127.682 18.2393 127.659 18.0413L136.83 16.3272C138.19 16.0727 139.118 14.8421 138.99 13.4656C138.863 12.0884 137.724 11.0495 136.341 11.0495H133.585C133.55 11.0495 133.515 11.0514 133.468 11.0565L133.427 11.0546L97.5252 13.5005L41.9347 13.5018L34.5076 3.59126C34.4574 3.52526 34.4047 3.46052 34.3489 3.39896C32.6735 1.5509 30.8489 1.18789 28.9291 2.31691C27.7068 3.03214 27.6858 3.04483 27.3196 3.27267C25.3123 4.52354 24.8661 6.7581 25.3085 8.39673L26.5517 14.6968L22.657 16.6629C21.5521 17.2207 20.9809 18.4513 21.2677 19.6552C21.5546 20.8591 22.6195 21.7 23.8571 21.7H31.1167C31.3674 21.7 31.6155 21.6651 31.8548 21.5959C32.7947 22.2807 33.7955 22.9534 34.8395 23.6027L2.7395 29.6977C2.70587 29.7034 2.67477 29.7129 2.63225 29.7275C2.50532 29.7567 2.38157 29.791 2.26352 29.8373C2.21847 29.8551 2.17531 29.876 2.09281 29.9173C2.00015 29.9611 1.9094 30.0068 1.82372 30.0607C1.77105 30.0937 1.72154 30.1299 1.65681 30.1788C1.58002 30.2352 1.5064 30.2936 1.43532 30.359C1.38455 30.4053 1.33759 30.4542 1.29063 30.5043C1.22653 30.5735 1.16624 30.6452 1.10912 30.7207C1.06914 30.7747 1.02979 30.8286 0.993616 30.8858C0.941575 30.967 0.896515 31.0508 0.840667 31.1637C0.815282 31.2145 0.790532 31.2646 0.768954 31.3186C0.73278 31.4087 0.704855 31.502 0.665508 31.6397C0.650911 31.6898 0.636314 31.7393 0.62616 31.7895C0.607756 31.8821 0.598871 31.978 0.590621 32.0744L0.90667 32.1011L0.58364 32.1449C0.577928 32.1912 0.573486 32.2382 0.570312 32.3124V33.5525C0.570312 35.0204 1.76406 36.2142 3.23135 36.2142H12.6011C13.0828 36.2142 13.5556 36.0834 13.97 35.8353L14.9023 35.2762L29.4736 33.0073C29.9908 33.9929 30.7556 34.8948 31.7481 35.6906Z" fill="black"/>
<path d="M31.0598 33.4455C35.7015 37.1663 40.1522 37.6829 42.2662 37.6829C42.8564 37.6829 43.2607 37.6429 43.4397 37.6207C46.6808 37.4748 49.2783 34.6151 49.2783 31.1106C49.2783 31.0078 49.2682 30.9069 49.2637 30.8054C54.0654 34.5332 58.6234 35.0651 60.8053 35.0651C61.431 35.0651 61.8575 35.0225 62.0428 34.9991C64.3516 34.8988 66.3463 33.4753 67.3757 31.4121C70.0399 31.6266 72.845 31.7459 75.8017 31.7459C108.699 31.7459 113.919 31.4337 114.126 31.4203C114.187 31.4165 114.246 31.4102 114.306 31.4013C114.763 31.3359 118.816 30.6759 120.437 27.6271C121.067 26.4416 121.547 24.4691 120.254 21.803C120.125 21.539 119.999 21.289 119.872 21.0446C120.58 21.183 121.187 21.2242 121.64 21.2242C121.996 21.2242 122.257 21.2008 122.403 21.183C124.678 21.0434 126.49 19.057 126.49 16.6276C126.49 16.3401 126.462 16.0602 126.413 15.7873L135.885 14.0167C137.075 13.7939 137.9 12.7017 137.788 11.4965C137.676 10.2907 136.665 9.36858 135.454 9.36858H132.698C132.656 9.36858 132.614 9.37302 132.572 9.37492C132.561 9.37556 132.55 9.37302 132.538 9.37365L96.6388 11.8189C96.4414 11.8196 96.2498 11.8202 96.0467 11.8202H40.8878L33.3654 1.78275C33.3216 1.72437 33.2747 1.66789 33.2258 1.61331C31.6646 -0.107829 29.9847 -0.457515 28.2008 0.591541C26.9626 1.3163 26.9626 1.31694 26.5989 1.54287C24.7236 2.71124 24.3199 4.81125 24.7312 6.33628L26.0208 12.8724L21.9115 14.947C20.9424 15.4364 20.436 16.5267 20.6873 17.5827C20.9386 18.6387 21.8823 19.3838 22.9675 19.3838H30.2271C30.4575 19.3838 30.6866 19.3502 30.9068 19.2829L31.0243 19.2474C32.0758 20.0197 33.3362 20.8733 34.8168 21.7618L1.90645 28.0104C1.87472 28.0168 1.84616 28.0301 1.81443 28.0377C1.70337 28.0637 1.59358 28.0929 1.48949 28.1342C1.43745 28.1545 1.38986 28.1811 1.33972 28.2053C1.25849 28.244 1.17789 28.2833 1.10237 28.3309C1.05096 28.3626 1.004 28.3988 0.955764 28.4344C0.888492 28.4845 0.823125 28.5359 0.761565 28.5924C0.71714 28.6336 0.675254 28.6762 0.634003 28.7206C0.576885 28.7815 0.524211 28.845 0.474075 28.9116C0.438535 28.9592 0.404264 29.0068 0.372532 29.0563C0.326838 29.128 0.287491 29.2023 0.249413 29.2784C0.223393 29.3311 0.196738 29.3825 0.174526 29.4371C0.142159 29.5164 0.118043 29.5989 0.095196 29.6821C0.0793301 29.7392 0.060291 29.7938 0.0488675 29.8521C0.0310976 29.9404 0.0241165 30.0305 0.0171355 30.1212C0.012693 30.1777 0.00253871 30.2323 0.00190408 30.29C0.00190408 30.2977 0 30.3053 0 30.3129V31.553C0 32.8476 1.04969 33.8967 2.34372 33.8967H11.7135C12.1381 33.8967 12.555 33.7812 12.9187 33.5629L13.9043 32.972L28.7643 30.6581C29.2498 31.6609 30.019 32.6115 31.0598 33.4455Z" fill="white"/>
<path d="M75.8083 29.403C109.008 29.403 113.981 29.0825 113.981 29.0825C113.981 29.0825 120.717 28.1198 118.151 22.8269C117.814 22.132 117.482 21.5132 117.149 20.9573C114.353 25.9259 97.4824 25.1484 75.9333 25.1484C51.9586 25.1484 54.8526 22.5991 54.8526 22.5991C54.8526 22.5991 38.3177 21.1775 38.3177 17.3633C38.3177 15.8389 38.9562 14.8298 39.7222 14.166C33.115 14.166 28.6719 14.166 28.6719 14.166C28.6719 14.166 42.6066 29.403 75.8083 29.403Z" fill="#CDCDD5"/>
<path d="M28.6709 14.1652L27.0177 5.78801C27.0177 5.78801 26.5633 4.33216 27.8446 3.53379C28.1949 3.31611 28.1949 3.31611 29.3912 2.6161C29.8621 2.34067 30.3952 1.97638 31.4963 3.18981L39.7219 14.1652H28.6709Z" fill="url(#paint0_linear_1431_22045)"/>
<path d="M28.6659 14.166L22.9688 17.0422H30.2284L39.7162 14.166H28.6659Z" fill="#DFE2E9"/>
<path d="M75.9304 20.9453C75.9304 20.9453 57.0995 22.5985 54.8497 22.5985C54.8497 22.5985 51.9557 25.1479 75.9304 25.1479C76.2998 25.1479 76.6679 25.1485 77.0347 25.1485C74.0037 23.5651 75.9304 20.9453 75.9304 20.9453Z" fill="#BEBEC1"/>
<path d="M43.1875 35.293C45.2597 35.293 46.9395 33.4217 46.9395 31.1133C46.9395 28.8049 45.2597 26.9336 43.1875 26.9336C41.1154 26.9336 39.4355 28.8049 39.4355 31.1133C39.4355 33.4217 41.1154 35.293 43.1875 35.293Z" fill="url(#paint1_linear_1431_22045)"/>
<path d="M43.4299 34.2164C44.9693 34.2164 46.2172 32.8261 46.2172 31.1111C46.2172 29.3961 44.9693 28.0059 43.4299 28.0059C41.8905 28.0059 40.6426 29.3961 40.6426 31.1111C40.6426 32.8261 41.8905 34.2164 43.4299 34.2164Z" fill="#282F39"/>
<path d="M43.187 26.9338C44.1491 26.9338 45.0243 27.3406 45.6888 28.0045L45.69 28.0007C45.3543 27.6066 44.9488 27.2765 44.3008 26.9338C38.4088 23.814 33.7512 24.2017 31.6836 25.9235C32.6711 29.2427 36.4389 30.4593 39.4439 30.894C39.548 28.688 41.1809 26.9338 43.187 26.9338Z" fill="#F4F4F2"/>
<path d="M31.6853 25.9219C30.001 27.3257 30.0359 29.6161 32.5319 31.6165C38.0894 36.0716 43.1887 35.291 43.1887 35.291C41.116 35.291 39.4355 33.4201 39.4355 31.1113C39.4355 31.037 39.4425 30.9653 39.445 30.8924C36.4406 30.4576 32.6728 29.241 31.6853 25.9219Z" fill="#C4C9CA"/>
<path d="M122.163 18.8466C123.265 18.8466 124.159 17.8504 124.159 16.6215C124.159 15.3927 123.265 14.3965 122.163 14.3965C121.06 14.3965 120.166 15.3927 120.166 16.6215C120.166 17.8504 121.06 18.8466 122.163 18.8466Z" fill="url(#paint2_linear_1431_22045)"/>
<path d="M122.294 18.2811C123.113 18.2811 123.777 17.5409 123.777 16.6278C123.777 15.7148 123.113 14.9746 122.294 14.9746C121.475 14.9746 120.811 15.7148 120.811 16.6278C120.811 17.5409 121.475 18.2811 122.294 18.2811Z" fill="#282F39"/>
<path d="M122.161 14.4011C122.674 14.4011 123.139 14.6175 123.492 14.9716L123.494 14.969C123.313 14.7596 123.099 14.5838 122.754 14.4011C119.618 12.7408 117.139 12.9471 116.039 13.8641C116.564 15.6303 118.569 16.2777 120.169 16.5093C120.224 15.3352 121.093 14.4011 122.161 14.4011Z" fill="#F4F4F2"/>
<path d="M116.04 13.8613C115.144 14.6083 115.163 15.8268 116.491 16.8917C119.448 19.2627 122.162 18.8477 122.162 18.8477C121.06 18.8477 120.165 17.8513 120.165 16.6226C120.165 16.5839 120.168 16.5452 120.171 16.5065C118.57 16.2749 116.565 15.6275 116.04 13.8613Z" fill="#C4C9CA"/>
<path d="M61.79 32.6717C63.9954 32.6717 65.7832 30.6802 65.7832 28.2236C65.7832 25.7669 63.9954 23.7754 61.79 23.7754C59.5847 23.7754 57.7969 25.7669 57.7969 28.2236C57.7969 30.6802 59.5847 32.6717 61.79 32.6717Z" fill="url(#paint3_linear_1431_22045)"/>
<path d="M62.0522 31.5251C63.6905 31.5251 65.0185 30.0456 65.0185 28.2206C65.0185 26.3955 63.6905 24.916 62.0522 24.916C60.414 24.916 59.0859 26.3955 59.0859 28.2206C59.0859 30.0456 60.414 31.5251 62.0522 31.5251Z" fill="#282F39"/>
<path d="M61.7903 23.7763C62.8147 23.7763 63.745 24.2098 64.4514 24.9168L64.4539 24.9123C64.0966 24.4928 63.6638 24.1413 62.9752 23.7763C56.7044 20.4565 51.7491 20.8691 49.5488 22.7019C50.5985 26.2336 54.6075 27.5283 57.8067 27.991C57.9172 25.6434 59.6554 23.7763 61.7903 23.7763Z" fill="#F4F4F2"/>
<path d="M49.5514 22.7031C47.7573 24.1971 47.7966 26.6341 50.4526 28.7633C56.3674 33.504 61.7923 32.6733 61.7923 32.6733C59.5869 32.6733 57.7985 30.6818 57.7985 28.2251C57.7985 28.1464 57.8055 28.0703 57.8093 27.9922C54.6095 27.5295 50.6011 26.2349 49.5514 22.7031Z" fill="#C4C9CA"/>
<path d="M108.314 18.8806C108.314 18.1196 108.931 17.5028 109.692 17.5028H114.065C112.555 16.4727 110.73 15.9181 108.204 15.2872C103.072 14.0046 100.221 14.1646 96.0513 14.1646C92.9854 14.1646 58.0365 14.1646 39.7209 14.1646C38.9549 14.8284 38.3164 15.8375 38.3164 17.3619C38.3164 21.176 54.8513 22.5976 54.8513 22.5976C57.101 22.5976 75.932 20.9444 75.932 20.9444C75.932 20.9444 74.0052 23.5642 77.0363 25.1476C98.0548 25.1717 114.399 25.84 117.148 20.9565C117.001 20.7115 116.853 20.4799 116.706 20.259H109.692C108.931 20.259 108.314 19.6415 108.314 18.8806Z" fill="#F4F4F2"/>
<path d="M60.6379 19.9824H75.9327V20.9471L13.0978 30.7306L11.7194 31.5569H2.34961V30.3169L60.6379 19.9824Z" fill="#E2E6E8"/>
<path d="M105.009 14.6208C105.987 14.7827 107.035 14.9972 108.206 15.2898C109.424 15.5944 110.477 15.8812 111.412 16.2112L135.46 11.7148H132.704L105.008 14.6183L105.009 14.6208Z" fill="#E2E6E8"/>
<path d="M56.7812 19.9824H60.6379L2.34961 30.3169L56.7812 19.9824Z" fill="white"/>
<path d="M105.001 14.6189C105.004 14.6189 105.005 14.6183 105.008 14.6183L132.705 11.7148L96.7148 14.1658C99.6113 14.1569 101.934 14.1125 105.001 14.6189Z" fill="white"/>
<path d="M94.3215 19.2551C93.9674 19.2494 93.6234 19.1009 93.3784 18.8477C93.1322 18.5938 92.997 18.2454 93.0021 17.8944C93.0078 17.5397 93.155 17.1963 93.4095 16.9501C93.664 16.7051 94.0118 16.5687 94.3659 16.5744C94.7175 16.5801 95.0615 16.7273 95.3065 16.9818C95.5514 17.2357 95.6904 17.5841 95.6853 17.9389C95.6784 18.2904 95.5286 18.6338 95.2754 18.8788C95.0209 19.1244 94.6731 19.2608 94.3215 19.2551Z" fill="#375376"/>
<path d="M93.0021 17.8964C93.0142 17.1526 93.6247 16.5617 94.366 16.5744C95.106 16.5865 95.6974 17.1976 95.6854 17.9414C95.6733 18.6814 95.0615 19.2723 94.3216 19.2602C93.5803 19.2475 92.9901 18.6364 93.0021 17.8964Z" fill="#282F39"/>
<path d="M87.6306 17.8033C87.6427 17.0601 88.2545 16.4693 88.997 16.4814C89.7383 16.4934 90.3285 17.1046 90.3164 17.8477C90.3044 18.5883 89.6938 19.1792 88.9526 19.1671C88.2094 19.1544 87.6186 18.5439 87.6306 17.8033ZM82.2527 17.7132C82.266 16.9707 82.8766 16.3792 83.6178 16.3912C84.3603 16.4039 84.9493 17.0151 84.9366 17.7582C84.9245 18.4982 84.3159 19.0897 83.5728 19.077C82.8315 19.065 82.2406 18.4538 82.2527 17.7132ZM76.8761 17.6237C76.8881 16.8805 77.4999 16.2897 78.2399 16.3017C78.9812 16.3138 79.5714 16.925 79.5593 17.6688C79.5472 18.4094 78.9355 19.0009 78.1955 18.9882C77.4555 18.9748 76.864 18.3637 76.8761 17.6237ZM71.4988 17.5342C71.5108 16.7911 72.1226 16.1996 72.8639 16.2123C73.6039 16.2243 74.1953 16.8355 74.1833 17.5793C74.17 18.3199 73.5594 18.9107 72.8182 18.8987C72.0776 18.886 71.4861 18.2748 71.4988 17.5342ZM66.1221 17.4447C66.1342 16.7016 66.746 16.1107 67.486 16.1228C68.2259 16.1348 68.8174 16.746 68.8047 17.4892C68.7927 18.2298 68.1809 18.8213 67.4409 18.8086C66.7009 18.7959 66.1088 18.1847 66.1221 17.4447ZM60.7417 17.3546C60.755 16.6114 61.3655 16.0206 62.108 16.0327C62.8493 16.0447 63.4408 16.6559 63.4287 17.3997C63.4154 18.1403 62.8049 18.7311 62.0636 18.7191C61.3205 18.7064 60.7296 18.0959 60.7417 17.3546ZM55.365 17.2651C55.3771 16.5226 55.9876 15.9305 56.7289 15.9432V15.9464C57.4688 15.9584 58.0603 16.567 58.0476 17.3102C58.0356 18.0508 57.4238 18.6417 56.6838 18.629C55.9432 18.6169 55.3517 18.0058 55.365 17.2651ZM49.9846 17.1756C49.9966 16.4325 50.6084 15.8416 51.3484 15.8537C52.0897 15.8658 52.6811 16.4769 52.6678 17.2194C52.6557 17.9601 52.0452 18.5515 51.304 18.5382C50.564 18.5268 49.9725 17.9163 49.9846 17.1756Z" fill="#375376"/>
<path d="M45.936 18.4459C45.5845 18.4402 45.2405 18.2923 44.9942 18.0384C44.7493 17.7846 44.6103 17.4368 44.6154 17.0852C44.6223 16.7311 44.7721 16.3871 45.0266 16.1415C45.2798 15.8965 45.6289 15.7601 45.9805 15.7658C46.3352 15.7721 46.6773 15.9194 46.9235 16.1739C47.1685 16.4277 47.305 16.7761 47.2999 17.1296C47.2942 17.4812 47.1457 17.8252 46.8912 18.0702C46.6386 18.3158 46.2895 18.4522 45.936 18.4459Z" fill="#375376"/>
<path d="M44.6154 17.0878C44.6287 16.3446 45.2393 15.7537 45.9805 15.7658C46.723 15.7785 47.312 16.3897 47.2993 17.1322C47.2872 17.8728 46.6786 18.4637 45.9355 18.4516C45.1942 18.4395 44.6034 17.8284 44.6154 17.0878Z" fill="#282F39"/>
<path d="M87.6365 17.8033C87.6485 17.0595 88.2603 16.4693 89.0003 16.4814C89.7416 16.4934 90.3331 17.1046 90.3197 17.8477C90.3077 18.5883 89.6971 19.1792 88.9559 19.1678C88.2153 19.1551 87.6244 18.5439 87.6365 17.8033ZM82.256 17.7132C82.2681 16.9707 82.8799 16.3792 83.6211 16.3919C84.3611 16.4046 84.9526 17.0157 84.9399 17.7589C84.9278 18.4989 84.3161 19.0903 83.5748 19.0777C82.8348 19.065 82.244 18.4544 82.256 17.7132ZM76.8768 17.6237C76.8889 16.8805 77.5007 16.2897 78.2407 16.3017C78.9845 16.3144 79.5721 16.9256 79.5601 17.6688C79.548 18.4094 78.9407 19.0009 78.1962 18.9882C77.4556 18.9755 76.8648 18.365 76.8768 17.6237ZM71.4989 17.5342C71.5122 16.7911 72.1228 16.1996 72.8627 16.2123C73.604 16.2243 74.1955 16.8355 74.1834 17.5793C74.1714 18.3199 73.5596 18.9107 72.8196 18.8987C72.0777 18.886 71.4869 18.2748 71.4989 17.5342ZM66.1229 17.4447C66.135 16.7016 66.7468 16.1107 67.4867 16.1228C68.228 16.1348 68.8182 16.746 68.8055 17.4892C68.7935 18.2298 68.1817 18.8213 67.4417 18.8086C66.7004 18.7965 66.1102 18.1847 66.1229 17.4447ZM60.745 17.3552C60.757 16.6121 61.3688 16.0206 62.1088 16.0333C62.8501 16.0454 63.4416 16.6565 63.4276 17.4003C63.4155 18.1403 62.805 18.7318 62.0638 18.7191C61.3238 18.7064 60.7329 18.0959 60.745 17.3552ZM55.3671 17.2651C55.3804 16.5226 55.9884 15.9305 56.7322 15.9438C57.4722 15.9559 58.0636 16.567 58.0516 17.3102C58.0395 18.0508 57.4277 18.6417 56.6877 18.629C55.9433 18.6169 55.3563 18.0058 55.3671 17.2651ZM49.9904 17.1756C50.0025 16.4325 50.6111 15.8416 51.3542 15.8537C52.0942 15.8658 52.6857 16.4769 52.6737 17.2194C52.6616 17.9607 52.0511 18.5515 51.3098 18.5395C50.5673 18.5268 49.9784 17.9163 49.9904 17.1756Z" fill="#282F39"/>
<path d="M101.193 22.001C101.193 22.7619 100.576 23.3788 99.8147 23.3788C99.0544 23.3788 98.4375 22.7619 98.4375 22.001V18.2782C98.4375 17.5173 99.0544 16.9004 99.8147 16.9004C100.576 16.9004 101.193 17.5173 101.193 18.2782V22.001Z" fill="url(#paint4_linear_1431_22045)"/>
<path d="M114.066 17.5039H109.693C108.931 17.5039 108.314 18.1201 108.314 18.8817C108.314 19.6426 108.931 20.2601 109.693 20.2601H116.706C115.891 19.0404 115.044 18.1715 114.066 17.5039Z" fill="url(#paint5_linear_1431_22045)"/>
<defs>
<linearGradient id="paint0_linear_1431_22045" x1="26.9395" y1="8.25378" x2="39.7215" y2="8.25378" gradientUnits="userSpaceOnUse">
<stop stop-color="#4D5DA7"/>
<stop offset="1" stop-color="#5492CA"/>
</linearGradient>
<linearGradient id="paint1_linear_1431_22045" x1="39.4352" y1="31.1136" x2="46.9398" y2="31.1136" gradientUnits="userSpaceOnUse">
<stop stop-color="#4D5DA7"/>
<stop offset="1" stop-color="#5492CA"/>
</linearGradient>
<linearGradient id="paint2_linear_1431_22045" x1="120.166" y1="16.6217" x2="124.16" y2="16.6217" gradientUnits="userSpaceOnUse">
<stop stop-color="#4D5DA7"/>
<stop offset="1" stop-color="#5492CA"/>
</linearGradient>
<linearGradient id="paint3_linear_1431_22045" x1="57.7967" y1="28.2238" x2="65.7828" y2="28.2238" gradientUnits="userSpaceOnUse">
<stop stop-color="#4D5DA7"/>
<stop offset="1" stop-color="#5492CA"/>
</linearGradient>
<linearGradient id="paint4_linear_1431_22045" x1="98.4374" y1="20.1396" x2="101.193" y2="20.1396" gradientUnits="userSpaceOnUse">
<stop stop-color="#4D5DA7"/>
<stop offset="1" stop-color="#5492CA"/>
</linearGradient>
<linearGradient id="paint5_linear_1431_22045" x1="108.315" y1="18.8816" x2="116.707" y2="18.8816" gradientUnits="userSpaceOnUse">
<stop stop-color="#4D5DA7"/>
<stop offset="1" stop-color="#5492CA"/>
</linearGradient>
</defs>
</svg>
