<?xml version="1.0" encoding="utf-8"?>
<!-- Generator: Adobe Illustrator 23.0.2, SVG Export Plug-In . SVG Version: 6.00 Build 0)  -->
<svg version="1.1" id="Layer_1" xmlns="http://www.w3.org/2000/svg" xmlns:xlink="http://www.w3.org/1999/xlink" x="0px" y="0px"
	 viewBox="0 0 40 40" style="enable-background:new 0 0 40 40;" xml:space="preserve">
<style type="text/css">
	.st0{fill:#4E5862;}
	.st1{fill:#A1A1A1;}
	.st2{fill:#CF302C;}
	.st3{fill:#2F363E;}
	.st4{fill:#24292F;}
	.st5{fill:#46505C;}
	.st6{fill:#D0D0D0;}
	.st7{fill:#EDEDED;}
	.st8{fill:#DF423D;}
	.st9{fill:#E1E1E1;}
	.st10{fill:#ECB71D;}
	.st11{fill:#F9CA3C;}
	.st12{fill:#3E4148;}
	.st13{fill:#99A5A1;}
</style>
<g>
	<polygon class="st0" points="12.8,17.6 12.8,18.1 12.9,18.1 12.9,18.7 12.8,18.7 12.8,19 12.9,19 12.9,19.6 12.8,19.6 12.8,19.9 
		13.3,19.9 13.3,18.1 	"/>
	<g>
		
			<rect x="20.6" y="20.3" transform="matrix(0.9176 -0.3974 0.3974 0.9176 -6.3279 10.4042)" class="st1" width="2.7" height="0.3"/>
	</g>
	<g>
		<rect x="17.2" y="21.2" transform="matrix(0.9057 -0.4239 0.4239 0.9057 -7.3412 9.7735)" class="st1" width="2.2" height="0.3"/>
	</g>
	<g>
		
			<rect x="21.7" y="20.2" transform="matrix(0.2904 -0.9569 0.9569 0.2904 -4.9217 36.0147)" class="st1" width="0.3" height="2.3"/>
	</g>
	<g>
		<polygon class="st1" points="21,21.2 17,21.2 17,20.7 20.5,20.7 20.5,20.2 21,20.2 		"/>
	</g>
	<path class="st2" d="M18.7,16.2c0.2-0.2,0.5-0.3,0.7-0.3h3.2c0.1,0,0.3,0.1,0.3,0.3l0.4,1.1h3c0.1,0,0.3,0.1,0.3,0.3l0.1,2.8H13.4
		l0.2-2.2c0-0.2,0.2-0.4,0.5-0.5l3.5-0.3L18.7,16.2z"/>
	<g>
		<path class="st3" d="M17.6,21.3c0,1.5-1.2,2.7-2.7,2.7s-2.7-1.2-2.7-2.7s1.2-2.7,2.7-2.7C16.4,18.6,17.6,19.8,17.6,21.3z"/>
		<g>
			<path class="st4" d="M14.9,23.8c-1.4,0-2.5-1.1-2.5-2.5c0-1.4,1.1-2.5,2.5-2.5s2.5,1.1,2.5,2.5C17.5,22.7,16.3,23.8,14.9,23.8z
				 M14.9,18.9c-1.3,0-2.4,1.1-2.4,2.4c0,1.3,1.1,2.4,2.4,2.4s2.4-1.1,2.4-2.4C17.3,20,16.3,18.9,14.9,18.9z"/>
		</g>
		<path class="st5" d="M12.6,21.3c0,0,0,0,0-0.2c0,0,0-0.1,0-0.2c0-0.1,0-0.2,0-0.3c0-0.1,0-0.2,0.1-0.3c0-0.1,0.1-0.2,0.1-0.3
			s0.1-0.2,0.2-0.3c0.1-0.1,0.2-0.2,0.2-0.3c0.1-0.1,0.2-0.2,0.3-0.2c0.1-0.1,0.2-0.1,0.3-0.2c0.1,0,0.2-0.1,0.3-0.1
			c0.1,0,0.2,0,0.3-0.1c0.1,0,0.2,0,0.3,0c0.1,0,0.1,0,0.2,0c0.1,0,0.2,0,0.2,0s0,0-0.2,0c0,0-0.1,0-0.2,0c-0.1,0-0.1,0-0.2,0
			c-0.1,0-0.2,0-0.3,0.1s-0.2,0.1-0.3,0.1s-0.2,0.1-0.3,0.2s-0.2,0.1-0.3,0.2c-0.1,0.1-0.2,0.2-0.2,0.3C13.1,20,13.1,20,13,20.1
			s-0.1,0.2-0.1,0.3s-0.1,0.2-0.1,0.3c0,0.1,0,0.2,0,0.2c0,0.1,0,0.1,0,0.2C12.6,21.3,12.6,21.3,12.6,21.3z"/>
		<path class="st4" d="M17.3,21.3c0,0,0,0,0,0.2c0,0,0,0.1,0,0.2c0,0.1,0,0.2,0,0.3c0,0.1,0,0.2-0.1,0.3c0,0.1-0.1,0.2-0.1,0.3
			c0,0.1-0.1,0.2-0.2,0.3c-0.1,0.1-0.2,0.2-0.2,0.3c-0.1,0.1-0.2,0.2-0.3,0.2c-0.1,0.1-0.2,0.1-0.3,0.2s-0.2,0.1-0.3,0.1
			s-0.2,0-0.3,0.1s-0.2,0-0.3,0s-0.1,0-0.2,0c-0.1,0-0.2,0-0.2,0s0,0,0.2,0c0,0,0.1,0,0.2,0c0.1,0,0.1,0,0.2,0c0.1,0,0.2,0,0.3-0.1
			s0.2-0.1,0.3-0.1c0.1,0,0.2-0.1,0.3-0.2c0.1-0.1,0.2-0.1,0.3-0.2s0.2-0.2,0.2-0.3c0.1-0.1,0.1-0.2,0.2-0.3s0.1-0.2,0.1-0.3
			s0.1-0.2,0.1-0.3c0-0.1,0-0.2,0-0.2c0-0.1,0-0.1,0-0.2C17.3,21.4,17.3,21.3,17.3,21.3z"/>
		<rect x="14.8" y="18.5" class="st3" width="0.3" height="0.2"/>
		<rect x="13.9" y="18.7" transform="matrix(0.9394 -0.3429 0.3429 0.9394 -5.5929 5.9516)" class="st3" width="0.3" height="0.2"/>
		
			<rect x="13.1" y="19.1" transform="matrix(0.7658 -0.6431 0.6431 0.7658 -9.2817 13.0168)" class="st3" width="0.3" height="0.2"/>
		<rect x="12.5" y="19.9" transform="matrix(0.4997 -0.8662 0.8662 0.4997 -10.9634 20.93)" class="st3" width="0.3" height="0.2"/>
		<polygon class="st3" points="12.4,20.7 12.4,21 12.2,21 12.2,20.7 		"/>
		<rect x="12.2" y="21.6" transform="matrix(0.9847 -0.174 0.174 0.9847 -3.5998 2.4766)" class="st3" width="0.2" height="0.3"/>
		<rect x="12.5" y="22.5" transform="matrix(0.8659 -0.5003 0.5003 0.8659 -9.6413 9.3562)" class="st3" width="0.2" height="0.3"/>
		
			<rect x="13.1" y="23.2" transform="matrix(0.6423 -0.7664 0.7664 0.6423 -13.1837 18.4978)" class="st3" width="0.2" height="0.3"/>
		
			<rect x="13.9" y="23.7" transform="matrix(0.3423 -0.9396 0.9396 0.3423 -13.1649 28.8648)" class="st3" width="0.2" height="0.3"/>
		<rect x="14.8" y="23.9" class="st3" width="0.3" height="0.2"/>
		<rect x="15.7" y="23.7" transform="matrix(0.9396 -0.3423 0.3423 0.9396 -7.1966 6.8638)" class="st3" width="0.3" height="0.2"/>
		
			<rect x="16.5" y="23.3" transform="matrix(0.7658 -0.6431 0.6431 0.7658 -11.1219 16.1791)" class="st3" width="0.3" height="0.2"/>
		<polygon class="st3" points="17.1,22.7 17.2,22.4 17.4,22.6 17.2,22.8 		"/>
		
			<rect x="17.4" y="21.7" transform="matrix(0.1734 -0.9849 0.9849 0.1734 -6.8961 35.3203)" class="st3" width="0.3" height="0.2"/>
		<rect x="17.5" y="20.7" transform="matrix(0.9846 -0.1748 0.1748 0.9846 -3.3736 3.3903)" class="st3" width="0.2" height="0.3"/>
		
			<rect x="17.1" y="19.8" transform="matrix(0.8657 -0.5005 0.5005 0.8657 -7.6704 11.3158)" class="st3" width="0.2" height="0.3"/>
		
			<rect x="16.6" y="19.1" transform="matrix(0.6424 -0.7663 0.7663 0.6424 -8.7955 19.6725)" class="st3" width="0.2" height="0.3"/>
		
			<rect x="15.8" y="18.6" transform="matrix(0.3415 -0.9399 0.9399 0.3415 -7.1987 27.2944)" class="st3" width="0.2" height="0.3"/>
		<path class="st6" d="M16.4,21.3c0,0.8-0.6,1.5-1.5,1.5c-0.8,0-1.5-0.6-1.5-1.5c0-0.8,0.6-1.5,1.5-1.5
			C15.7,19.8,16.4,20.5,16.4,21.3z"/>
		<path class="st4" d="M16.1,21.3c0,0.6-0.5,1.1-1.1,1.1c-0.6,0-1.1-0.5-1.1-1.1c0-0.6,0.5-1.1,1.1-1.1
			C15.6,20.2,16.1,20.7,16.1,21.3z"/>
		<path class="st7" d="M16.1,21.3c0,0.6-0.5,1.1-1.1,1.1c-0.6,0-1.1-0.5-1.1-1.1c0-0.6,0.5-1.1,1.1-1.1
			C15.6,20.2,16.1,20.7,16.1,21.3z"/>
		<path class="st3" d="M16,21.3c0,0.6-0.5,1.1-1.1,1.1c-0.6,0-1.1-0.5-1.1-1.1c0-0.6,0.5-1.1,1.1-1.1C15.5,20.3,16,20.7,16,21.3z"/>
		<path class="st4" d="M15.3,21.3c0,0.2-0.2,0.4-0.4,0.4c-0.2,0-0.4-0.2-0.4-0.4c0-0.2,0.2-0.4,0.4-0.4
			C15.2,20.9,15.3,21.1,15.3,21.3z"/>
		<path class="st7" d="M15.1,20.2c-0.1,0-0.2,0-0.3,0c0.1,0.3,0.1,0.6,0,0.8c0.1,0,0.2,0,0.3,0C15,20.8,15,20.5,15.1,20.2z"/>
		<path class="st7" d="M14.3,20.4c-0.1,0.1-0.1,0.1-0.2,0.2c0.3,0.1,0.5,0.3,0.6,0.6c0.1-0.1,0.1-0.1,0.2-0.2
			C14.6,20.9,14.4,20.7,14.3,20.4z"/>
		<path class="st7" d="M13.8,21.1c0,0.1,0,0.2,0,0.3c0.3-0.1,0.6-0.1,0.8,0c0-0.1,0-0.2,0-0.3C14.4,21.3,14.1,21.3,13.8,21.1z"/>
		<path class="st7" d="M14,22c0.1,0.1,0.1,0.1,0.2,0.2c0.1-0.3,0.3-0.5,0.6-0.6c-0.1-0.1-0.1-0.1-0.2-0.2C14.5,21.6,14.3,21.9,14,22
			z"/>
		<path class="st7" d="M15.6,22.2c0.1-0.1,0.1-0.1,0.2-0.2c-0.3-0.1-0.5-0.3-0.6-0.6c-0.1,0.1-0.1,0.1-0.2,0.2
			C15.3,21.7,15.5,21.9,15.6,22.2z"/>
		<path class="st7" d="M15.8,20.6c0-0.1-0.1-0.1-0.2-0.2c-0.1,0.3-0.3,0.5-0.6,0.6c0.1,0.1,0.1,0.1,0.2,0.2
			C15.3,21,15.6,20.8,15.8,20.6z"/>
		<path class="st4" d="M15.3,21.3c0,0.2-0.2,0.3-0.3,0.3s-0.3-0.2-0.3-0.3c0-0.2,0.2-0.3,0.3-0.3C15.1,21,15.3,21.1,15.3,21.3z"/>
		<path class="st7" d="M15.2,21.3c0,0.2-0.1,0.3-0.3,0.3s-0.3-0.1-0.3-0.3c0-0.2,0.1-0.3,0.3-0.3C15.1,21,15.2,21.1,15.2,21.3z"/>
	</g>
	<g>
		<path class="st3" d="M27.7,21.3c0,1.5-1.2,2.7-2.7,2.7c-1.5,0-2.7-1.2-2.7-2.7s1.2-2.7,2.7-2.7C26.5,18.6,27.7,19.8,27.7,21.3z"/>
		<g>
			<path class="st4" d="M25.1,23.8c-1.4,0-2.5-1.1-2.5-2.5c0-1.4,1.1-2.5,2.5-2.5s2.5,1.1,2.5,2.5C27.6,22.7,26.4,23.8,25.1,23.8z
				 M25.1,18.9c-1.3,0-2.4,1.1-2.4,2.4c0,1.3,1.1,2.4,2.4,2.4s2.4-1.1,2.4-2.4C27.5,20,26.4,18.9,25.1,18.9z"/>
		</g>
		<path class="st5" d="M22.6,21.3c0,0,0,0,0-0.2c0,0,0-0.1,0-0.2c0-0.1,0-0.2,0-0.3c0-0.1,0-0.2,0.1-0.3c0-0.1,0.1-0.2,0.1-0.3
			s0.1-0.2,0.2-0.3c0.1-0.1,0.2-0.2,0.2-0.3c0.1-0.1,0.2-0.2,0.3-0.2c0.1-0.1,0.2-0.1,0.3-0.2s0.2-0.1,0.3-0.1s0.2,0,0.3-0.1
			s0.2,0,0.3,0s0.1,0,0.2,0c0.1,0,0.2,0,0.2,0s0,0-0.2,0c0,0-0.1,0-0.2,0c-0.1,0-0.1,0-0.2,0c-0.1,0-0.2,0-0.3,0.1s-0.2,0.1-0.3,0.1
			s-0.2,0.1-0.3,0.2c-0.1,0.1-0.2,0.1-0.3,0.2c-0.1,0.1-0.2,0.2-0.2,0.3c-0.1,0.1-0.1,0.2-0.2,0.3S23,20.3,23,20.4s-0.1,0.2-0.1,0.3
			c0,0.1,0,0.2,0,0.2c0,0.1,0,0.1,0,0.2C22.6,21.3,22.6,21.3,22.6,21.3z"/>
		<path class="st4" d="M27.4,21.3c0,0,0,0,0,0.2c0,0,0,0.1,0,0.2c0,0.1,0,0.2,0,0.3c0,0.1,0,0.2-0.1,0.3c0,0.1-0.1,0.2-0.1,0.3
			S27,22.7,27,22.8c-0.1,0.1-0.2,0.2-0.2,0.3c-0.1,0.1-0.2,0.2-0.3,0.3c-0.1,0.1-0.2,0.1-0.3,0.2s-0.2,0.1-0.3,0.1s-0.2,0-0.3,0.1
			s-0.2,0-0.3,0c-0.1,0-0.1,0-0.2,0c-0.1,0-0.2,0-0.2,0s0,0,0.2,0c0,0,0.1,0,0.2,0c0.1,0,0.1,0,0.2,0c0.1,0,0.2,0,0.3-0.1
			s0.2-0.1,0.3-0.1c0.1,0,0.2-0.1,0.3-0.2c0.1-0.1,0.2-0.1,0.3-0.2c0.1-0.1,0.2-0.2,0.2-0.3c0.1-0.1,0.1-0.2,0.2-0.3
			s0.1-0.2,0.1-0.3c0-0.1,0.1-0.2,0.1-0.3c0-0.1,0-0.2,0-0.2c0-0.1,0-0.1,0-0.2C27.4,21.4,27.4,21.3,27.4,21.3z"/>
		<rect x="24.9" y="18.5" class="st3" width="0.3" height="0.2"/>
		<rect x="24" y="18.7" transform="matrix(0.9395 -0.3425 0.3425 0.9395 -4.9786 9.3992)" class="st3" width="0.3" height="0.2"/>
		
			<rect x="23.2" y="19.2" transform="matrix(0.7655 -0.6435 0.6435 0.7655 -6.9223 19.5232)" class="st3" width="0.3" height="0.2"/>
		<rect x="22.6" y="19.9" transform="matrix(0.4992 -0.8665 0.8665 0.4992 -5.9163 29.695)" class="st3" width="0.3" height="0.2"/>
		<polygon class="st3" points="22.5,20.7 22.5,21 22.3,21 22.4,20.7 		"/>
		<rect x="22.3" y="21.6" transform="matrix(0.9847 -0.174 0.174 0.9847 -3.446 4.2319)" class="st3" width="0.2" height="0.3"/>
		
			<rect x="22.6" y="22.5" transform="matrix(0.8662 -0.4998 0.4998 0.8662 -8.2858 14.3867)" class="st3" width="0.2" height="0.3"/>
		<rect x="23.2" y="23.2" transform="matrix(0.6427 -0.7662 0.7662 0.6427 -9.5471 26.232)" class="st3" width="0.2" height="0.3"/>
		<rect x="24" y="23.6" transform="matrix(0.3419 -0.9397 0.9397 0.3419 -6.4836 38.3575)" class="st3" width="0.2" height="0.3"/>
		<rect x="24.9" y="23.9" class="st3" width="0.3" height="0.2"/>
		
			<rect x="25.8" y="23.7" transform="matrix(0.9396 -0.3423 0.3423 0.9396 -6.5886 10.3175)" class="st3" width="0.3" height="0.2"/>
		
			<rect x="26.6" y="23.2" transform="matrix(0.7663 -0.6424 0.6424 0.7663 -8.7382 22.6533)" class="st3" width="0.3" height="0.2"/>
		<rect x="27.2" y="22.5" transform="matrix(0.4987 -0.8668 0.8668 0.4987 -5.8969 35.053)" class="st3" width="0.3" height="0.2"/>
		<rect x="27.5" y="21.7" transform="matrix(0.174 -0.9847 0.9847 0.174 1.4233 45.2569)" class="st3" width="0.3" height="0.2"/>
		<rect x="27.6" y="20.7" transform="matrix(0.9847 -0.1741 0.1741 0.9847 -3.2057 5.139)" class="st3" width="0.2" height="0.3"/>
		<rect x="27.2" y="19.8" transform="matrix(0.8654 -0.501 0.501 0.8654 -6.3208 16.386)" class="st3" width="0.2" height="0.3"/>
		
			<rect x="26.7" y="19.1" transform="matrix(0.6424 -0.7663 0.7663 0.6424 -5.1941 27.4098)" class="st3" width="0.2" height="0.3"/>
		<rect x="25.9" y="18.6" transform="matrix(0.3417 -0.9398 0.9398 0.3417 -0.5652 36.784)" class="st3" width="0.2" height="0.3"/>
		<path class="st6" d="M26.5,21.3c0,0.8-0.6,1.5-1.5,1.5c-0.8,0-1.5-0.6-1.5-1.5c0-0.8,0.6-1.5,1.5-1.5
			C25.9,19.8,26.5,20.5,26.5,21.3z"/>
		<path class="st4" d="M26.2,21.3c0,0.6-0.5,1.1-1.1,1.1s-1.1-0.5-1.1-1.1c0-0.6,0.5-1.1,1.1-1.1S26.2,20.7,26.2,21.3z"/>
		<path class="st7" d="M26.1,21.3c0,0.6-0.5,1.1-1.1,1.1c-0.6,0-1.1-0.5-1.1-1.1c0-0.6,0.5-1.1,1.1-1.1S26.1,20.7,26.1,21.3z"/>
		<path class="st3" d="M26.1,21.3c0,0.6-0.5,1.1-1.1,1.1S24,21.9,24,21.3c0-0.6,0.5-1.1,1.1-1.1S26.1,20.7,26.1,21.3z"/>
		<path class="st4" d="M25.4,21.3c0,0.2-0.2,0.4-0.4,0.4s-0.4-0.2-0.4-0.4c0-0.2,0.2-0.4,0.4-0.4S25.4,21.1,25.4,21.3z"/>
		<path class="st7" d="M25.2,20.2c-0.1,0-0.2,0-0.3,0c0.1,0.3,0.1,0.6,0,0.8c0.1,0,0.2,0,0.3,0C25.1,20.8,25.1,20.5,25.2,20.2z"/>
		<path class="st7" d="M24.4,20.4c-0.1,0.1-0.1,0.1-0.2,0.2c0.3,0.1,0.5,0.3,0.6,0.6c0.1-0.1,0.1-0.1,0.2-0.2
			C24.7,20.9,24.5,20.7,24.4,20.4z"/>
		<path class="st7" d="M24.2,22c0.1,0.1,0.1,0.1,0.2,0.2c0.1-0.3,0.3-0.5,0.6-0.6c-0.1-0.1-0.1-0.1-0.2-0.2
			C24.6,21.6,24.4,21.9,24.2,22z"/>
		<path class="st7" d="M24.9,22.4c0.1,0,0.2,0,0.3,0c-0.1-0.3-0.1-0.6,0-0.8c-0.1,0-0.2,0-0.3,0C25,21.9,25,22.2,24.9,22.4z"/>
		<path class="st7" d="M25.7,22.2c0.1-0.1,0.1-0.1,0.2-0.2c-0.3-0.1-0.5-0.3-0.6-0.6c-0.1,0.1-0.1,0.1-0.2,0.2
			C25.4,21.7,25.6,21.9,25.7,22.2z"/>
		<path class="st7" d="M25.9,20.6c-0.1-0.1-0.1-0.1-0.2-0.2c-0.1,0.3-0.3,0.5-0.6,0.6c0.1,0.1,0.1,0.1,0.2,0.2
			C25.4,21,25.6,20.8,25.9,20.6z"/>
		<path class="st4" d="M25.4,21.3c0,0.2-0.2,0.3-0.3,0.3c-0.2,0-0.3-0.2-0.3-0.3c0-0.2,0.2-0.3,0.3-0.3C25.2,21,25.4,21.1,25.4,21.3
			z"/>
		<path class="st7" d="M25.3,21.3c0,0.2-0.1,0.3-0.3,0.3s-0.3-0.1-0.3-0.3c0-0.2,0.1-0.3,0.3-0.3S25.3,21.1,25.3,21.3z"/>
	</g>
	<g>
		<rect x="18" y="20.3" class="st1" width="0.5" height="0.5"/>
	</g>
	<g>
		<rect x="19" y="20.3" class="st1" width="0.5" height="0.5"/>
	</g>
	<polygon class="st0" points="16.7,17.3 16.3,17.1 16.4,17.3 	"/>
	<polygon class="st0" points="16.4,17.4 16,17.1 16,17.4 	"/>
	<path class="st8" d="M26.5,17.5c0-0.1-0.1-0.3-0.3-0.3h-3l-0.3-1.1c0-0.1-0.2-0.3-0.3-0.3h-3.2c-0.2,0-0.5,0.1-0.7,0.3l-1.1,1.1
		L14,17.6c-0.2,0-0.4,0.2-0.5,0.5v0.1h3.3l1.1,1.1h4.4l1.1-1.1h3.1V17.5z"/>
	<path class="st9" d="M13.7,18.6l0.1-0.6l-0.2-0.1c0,0,0,0.1,0,0.2l0,0.6L13.7,18.6z"/>
	<g>
		<polygon class="st10" points="23,16.2 20.1,20.3 21.3,20.3 23.4,17.3 23.3,17.3 		"/>
		<polygon class="st10" points="18.3,20.3 19.4,20.3 22.5,15.9 21.3,15.9 		"/>
	</g>
	<g>
		<polygon class="st11" points="20.9,19.2 22,19.2 23.4,17.3 23.3,17.3 23,16.2 		"/>
		<polygon class="st11" points="20.2,19.2 22.5,15.9 21.3,15.9 19,19.2 		"/>
	</g>
	<polygon class="st12" points="18.3,17.3 20.8,17.3 20.8,16.2 19.3,16.2 	"/>
	<polygon class="st12" points="21,17.3 22.5,17.3 22.5,16.2 21,16.2 	"/>
	<g>
		<polygon class="st13" points="19.5,17.2 19.3,17.2 19.8,16.4 20,16.4 		"/>
		<polygon class="st13" points="19.3,17 19.2,17 19.4,16.6 19.6,16.6 		"/>
	</g>
	<g>
		<polygon class="st13" points="21.8,17.2 21.6,17.2 22.2,16.4 22.4,16.4 		"/>
		<polygon class="st13" points="21.7,17 21.5,17 21.8,16.6 21.9,16.6 		"/>
	</g>
	<path class="st12" d="M17.9,17.2c0,0,0.7-0.6,0.9-0.8c0.1-0.1,0-0.1-0.1-0.2l-1.1,1h0C17.7,17.3,17.9,17.2,17.9,17.2z"/>
</g>
</svg>
