<?xml version="1.0" encoding="utf-8"?>
<!-- Generator: Adobe Illustrator 23.0.2, SVG Export Plug-In . SVG Version: 6.00 Build 0)  -->
<svg version="1.1" id="Layer_1" xmlns="http://www.w3.org/2000/svg" xmlns:xlink="http://www.w3.org/1999/xlink" x="0px" y="0px"
	 viewBox="0 0 36 40" style="enable-background:new 0 0 36 40;" xml:space="preserve">
<style type="text/css">
	.st0{fill:#363B39;}
	.st1{fill:#2E353D;}
	.st2{fill:#D4D4D4;}
	.st3{fill:#454F59;}
	.st4{fill:#FFFFFF;}
</style>
<g>
	<path class="st0" d="M20.2,19.8c0,0,0.2,0.1,0.2-0.3c0-0.3,0.2,0,0.2,0v0.5L20.2,20L20.2,19.8z"/>
	<path class="st0" d="M15.8,19.8c0,0-0.2,0.1-0.2-0.3c0-0.3-0.2,0-0.2,0V20l0.3-0.1L15.8,19.8z"/>
	<path class="st0" d="M16.2,20.9c0,0-0.2,0.1,0,0.3c0.2,0.3-0.1,0.1-0.1,0.1l-0.3-0.5l0.3-0.1L16.2,20.9z"/>
	<path class="st0" d="M19.8,20.9c0,0,0.2,0.1,0,0.3c-0.2,0.3,0.1,0.1,0.1,0.1l0.3-0.5L20,20.8L19.8,20.9z"/>
	<path class="st1" d="M16.8,19.4c-0.7,0.2-1.3,0.5-1.5,0.9c0.1,0.2,0.2,0.5,0.2,0.9v0c0,0,0.1,0.1,0.1,0.1c0.3-0.2,0.8-0.4,1.4-0.5
		c-0.2-0.2-0.3-0.5-0.3-0.9C16.7,19.7,16.7,19.6,16.8,19.4z"/>
	<path class="st1" d="M20.7,20.3c-0.2-0.4-0.7-0.7-1.3-0.9c0,0.1,0.1,0.2,0.1,0.4c0,0.3-0.1,0.6-0.3,0.9c0.5,0.1,1,0.3,1.3,0.5
		c0,0,0.1-0.1,0.1-0.1c0,0,0,0,0,0C20.4,20.9,20.5,20.6,20.7,20.3z"/>
	<polygon class="st1" points="18,19.3 18.5,22.4 17.5,22.4 	"/>
	<path class="st1" d="M18,20.7c0.8,0,0.5-3.1,0.5-3.1h-1C17.5,17.5,17.2,20.7,18,20.7z"/>
	<path class="st1" d="M19.3,19.5c-0.4-0.1-0.9-0.2-1.4-0.2c-0.5,0-0.9,0.1-1.3,0.1c0,0.1-0.1,0.3-0.1,0.4c0,0.3,0.1,0.6,0.3,0.9
		c0.2,0.3,0.7,0.5,1.1,0.5c0.4,0,0.9-0.2,1.1-0.5c0.2-0.2,0.3-0.5,0.3-0.9C19.4,19.7,19.4,19.6,19.3,19.5z"/>
	<path class="st2" d="M19.2,19.7c-0.4-0.1-0.8-0.1-1.2-0.1c0,0-0.1,0-0.1,0c-0.4,0-0.7,0-1.1,0.1c0,0.1,0,0.1,0,0.2
		c0,0.2,0.1,0.5,0.2,0.7c0.2,0.3,0.6,0.5,0.9,0.5s0.7-0.2,0.9-0.4c0.2-0.2,0.2-0.5,0.2-0.7C19.2,19.8,19.2,19.7,19.2,19.7z"/>
	<path class="st3" d="M19.9,17.9c-0.1,0.1-0.3,0.1-0.5,0.2c0.6,0.4,1,1.1,1,1.9c0,1.3-1.1,2.4-2.4,2.4s-2.4-1.1-2.4-2.4
		c0-0.8,0.4-1.5,1-1.9c-0.2-0.1-0.4-0.1-0.5-0.2c-0.6,0.5-1,1.3-1,2.1c0,1.6,1.3,2.9,2.9,2.9c1.6,0,2.9-1.3,2.9-2.9
		C20.9,19.2,20.5,18.4,19.9,17.9z"/>
	<path class="st1" d="M18,17.6c0.5,0,1,0.2,1.4,0.5c0.2-0.1,0.4-0.1,0.5-0.2c-0.5-0.5-1.2-0.7-1.9-0.7s-1.4,0.3-1.9,0.7
		c0.1,0.1,0.3,0.1,0.5,0.2C17,17.8,17.5,17.6,18,17.6z"/>
	<path class="st4" d="M18,20.1c0.5,0,0.9-0.2,1.2-0.4v0c-0.4-0.1-0.8-0.1-1.2-0.1c0,0-0.1,0-0.1,0c-0.4,0-0.7,0-1.1,0.1
		c0,0,0,0.1,0,0.1C17.1,19.9,17.5,20.1,18,20.1z"/>
</g>
</svg>
