<?xml version="1.0" encoding="utf-8"?>
<!-- Generator: Adobe Illustrator 23.0.2, SVG Export Plug-In . SVG Version: 6.00 Build 0)  -->
<svg version="1.1" id="Layer_1" xmlns="http://www.w3.org/2000/svg" xmlns:xlink="http://www.w3.org/1999/xlink" x="0px" y="0px"
	 viewBox="0 0 90 134" style="enable-background:new 0 0 90 134;" xml:space="preserve">
<style type="text/css">
	.st0{fill:#2E353D;}
	.st1{fill:#454F59;}
	.st2{fill:#36A7B5;}
	.st3{fill:#48505B;}
	.st4{fill:#2F363E;}
	.st5{fill:#24292F;}
	.st6{fill:#46505C;}
	.st7{fill:#D0D0D0;}
	.st8{fill:#EDEDED;}
</style>
<g>
	<rect x="53.1" y="61.7" transform="matrix(0.9333 -0.359 0.359 0.9333 -20.0413 23.668)" class="st0" width="1.3" height="8.2"/>
	<polygon class="st1" points="45.1,69.8 45.6,70.8 51.7,68.5 50.6,67.7 	"/>
	<polygon class="st1" points="45.3,63.3 43.9,57.1 46.7,60.7 48.1,64.3 	"/>
	<rect x="45.9" y="59.7" transform="matrix(0.9333 -0.359 0.359 0.9333 -22.3355 21.8325)" class="st2" width="3.5" height="22.8"/>
	<g>
		<path class="st3" d="M38.6,52l4.6-1.8c0.3-0.1,0.3-0.3,0-0.4l-0.7-0.3l-4.2,1.6L38.6,52z"/>
		<rect x="40.3" y="51.1" transform="matrix(0.9333 -0.359 0.359 0.9333 -15.9723 18.2234)" class="st3" width="1.6" height="2.1"/>
		<path class="st3" d="M42.1,49.6l-3,1.2l-0.2-0.5l2.5-1L42.1,49.6L42.1,49.6z M42.5,49.6l-1.1-0.5l-2.8,1.1L39,51L42.5,49.6
			L42.5,49.6z"/>
		<polygon class="st0" points="40.9,53.3 40.3,51.8 40.5,50.9 38.5,51.6 38.6,52 40,51.5 40.7,53.4 		"/>
	</g>
	<g>
		<path class="st1" d="M49.5,82.7L38.2,53.2l3.6-1.4l5.2,8.7l5.6,2.9l2.4,6.2l-2.4,7.9l1.3,3.5L49.5,82.7z M39.1,53.6l10.8,28.1
			l3-1.2l-1.2-3l2.4-7.9L51.9,64l-5.5-2.9l-5-8.3L39.1,53.6z"/>
	</g>
	<path class="st1" d="M45.2,59.8l-0.9,0.4c0.3,1.9,0.7,3.9,1.4,5.7c1.6,4.3,3.7,9.6,3.7,9.6l3,3.1L45.2,59.8z"/>
	<g>
		<path class="st1" d="M47.2,63.8c-0.1-0.2-0.1-0.3-0.1-0.3l-1.2-3.1l0.7-0.3l1.2,3.1c0.1,0.3,0.4,1.1,0.8,1.3
			c0.1,0.1,0.3,0.1,0.5,0c1.3-0.5,2.1,0.2,2.4,0.6l0,0.1l1.1,2.9l-0.7,0.3l-1.1-2.8c-0.1-0.1-0.5-0.6-1.4-0.3
			c-0.4,0.1-0.8,0.1-1.1,0C47.8,64.9,47.4,64.2,47.2,63.8z"/>
	</g>
	<g>
		<ellipse class="st4" cx="39.7" cy="58.2" rx="5.3" ry="5.3"/>
		<g>
			<path class="st5" d="M35.1,60c-1-2.6,0.3-5.5,2.9-6.5c2.6-1,5.5,0.3,6.5,2.9c1,2.6-0.3,5.5-2.9,6.5S36,62.5,35.1,60z M44.2,56.4
				c-0.9-2.5-3.7-3.7-6.2-2.8c-2.5,0.9-3.7,3.7-2.8,6.2c0.9,2.5,3.7,3.7,6.2,2.8C43.9,61.7,45.1,58.9,44.2,56.4z"/>
		</g>
		<path class="st6" d="M38,53.7c0,0,0.1,0,0.3-0.1c0.1,0,0.2-0.1,0.4-0.1c0.1,0,0.3-0.1,0.5-0.1c0.2,0,0.4-0.1,0.6-0.1
			c0.2,0,0.4,0,0.7,0c0.2,0,0.5,0.1,0.7,0.1c0.2,0,0.5,0.1,0.7,0.2c0.2,0.1,0.4,0.2,0.6,0.4c0.2,0.1,0.4,0.3,0.5,0.4
			c0.1,0.1,0.3,0.3,0.4,0.5c0.1,0.1,0.3,0.3,0.3,0.5c0.1,0.1,0.2,0.3,0.2,0.4C44,56,44,56.1,44,56.2c0.1,0.2,0.1,0.3,0.1,0.3
			s-0.1-0.1-0.1-0.3c0-0.1-0.1-0.2-0.2-0.3c-0.1-0.1-0.2-0.3-0.3-0.4c-0.1-0.1-0.2-0.3-0.4-0.4c-0.1-0.1-0.3-0.3-0.4-0.4
			c-0.2-0.1-0.3-0.3-0.5-0.4c-0.2-0.1-0.4-0.2-0.6-0.3c-0.2-0.1-0.4-0.2-0.6-0.2c-0.2-0.1-0.4-0.1-0.6-0.1c-0.2,0-0.4-0.1-0.6-0.1
			c-0.2,0-0.4,0-0.5,0s-0.3,0-0.5,0s-0.3,0-0.4,0.1C38.1,53.7,38,53.7,38,53.7z"/>
		<path class="st5" d="M41.4,62.5c0,0-0.1,0-0.3,0.1c-0.1,0-0.2,0.1-0.4,0.1s-0.3,0.1-0.5,0.1c-0.2,0-0.4,0.1-0.6,0.1
			c-0.2,0-0.4,0-0.7,0c-0.2,0-0.5-0.1-0.7-0.1c-0.2,0-0.5-0.1-0.7-0.2c-0.2-0.1-0.4-0.2-0.6-0.4c-0.2-0.1-0.4-0.3-0.5-0.4
			c-0.1-0.1-0.3-0.3-0.4-0.5c-0.1-0.1-0.3-0.3-0.3-0.5c-0.1-0.1-0.2-0.3-0.2-0.4c-0.1-0.1-0.1-0.3-0.1-0.3c-0.1-0.2-0.1-0.3-0.1-0.3
			s0.1,0.1,0.1,0.3c0,0.1,0.1,0.2,0.2,0.3s0.2,0.3,0.3,0.4c0.1,0.1,0.2,0.3,0.4,0.4c0.1,0.1,0.3,0.3,0.4,0.4
			c0.2,0.1,0.3,0.3,0.5,0.4c0.2,0.1,0.4,0.2,0.6,0.3c0.2,0.1,0.4,0.2,0.6,0.2c0.2,0.1,0.4,0.1,0.6,0.1c0.2,0,0.4,0.1,0.6,0.1
			c0.2,0,0.4,0,0.5,0c0.2,0,0.3,0,0.5,0s0.3,0,0.4-0.1C41.3,62.6,41.4,62.5,41.4,62.5z"/>
		<rect x="44.5" y="55.9" transform="matrix(0.9333 -0.359 0.359 0.9333 -17.2119 19.7891)" class="st4" width="0.4" height="0.7"/>
		
			<rect x="43.6" y="54.4" transform="matrix(0.7536 -0.6573 0.6573 0.7536 -25.1606 42.2301)" class="st4" width="0.4" height="0.7"/>
		
			<rect x="42.1" y="53.2" transform="matrix(0.4836 -0.8753 0.8753 0.4836 -25.0002 64.6794)" class="st4" width="0.4" height="0.7"/>
		
			<rect x="40.4" y="52.6" transform="matrix(0.1555 -0.9878 0.9878 0.1555 -18.018 84.7552)" class="st4" width="0.4" height="0.7"/>
		<rect x="38.4" y="52.7" transform="matrix(0.9813 -0.1926 0.1926 0.9813 -9.4682 8.4484)" class="st4" width="0.7" height="0.4"/>
		
			<rect x="36.7" y="53.4" transform="matrix(0.8566 -0.5159 0.5159 0.8566 -22.3593 26.772)" class="st4" width="0.7" height="0.4"/>
		
			<rect x="35.3" y="54.6" transform="matrix(0.6288 -0.7775 0.7775 0.6288 -29.4006 48.0269)" class="st4" width="0.7" height="0.4"/>
		
			<rect x="34.4" y="56.2" transform="matrix(0.3252 -0.9456 0.9456 0.3252 -29.9427 70.9195)" class="st4" width="0.7" height="0.4"/>
		
			<rect x="34.2" y="57.9" transform="matrix(0.9998 -1.831117e-02 1.831117e-02 0.9998 -1.0605 0.6402)" class="st4" width="0.4" height="0.7"/>
		
			<rect x="34.6" y="59.7" transform="matrix(0.9329 -0.3602 0.3602 0.9329 -19.2912 16.5602)" class="st4" width="0.4" height="0.7"/>
		
			<rect x="35.5" y="61.3" transform="matrix(0.7543 -0.6565 0.6565 0.7543 -31.6845 38.6024)" class="st4" width="0.4" height="0.7"/>
		<rect x="37" y="62.5" transform="matrix(0.4836 -0.8753 0.8753 0.4836 -35.7524 64.9571)" class="st4" width="0.4" height="0.7"/>
		
			<rect x="38.7" y="63.1" transform="matrix(0.1548 -0.9879 0.9879 0.1548 -29.7204 92.0274)" class="st4" width="0.4" height="0.7"/>
		<rect x="40.4" y="63.2" transform="matrix(0.9816 -0.191 0.191 0.9816 -11.3514 8.9498)" class="st4" width="0.7" height="0.4"/>
		
			<rect x="42.2" y="62.5" transform="matrix(0.8568 -0.5157 0.5157 0.8568 -26.2459 30.8921)" class="st4" width="0.7" height="0.4"/>
		<polygon class="st4" points="43.5,61.6 43.9,61.1 44.2,61.3 43.8,61.9 		"/>
		
			<rect x="44.4" y="59.7" transform="matrix(0.3239 -0.9461 0.9461 0.3239 -26.3685 82.8251)" class="st4" width="0.7" height="0.4"/>
		
			<rect x="44.8" y="57.7" transform="matrix(0.9998 -1.795529e-02 1.795529e-02 0.9998 -1.0351 0.8181)" class="st4" width="0.4" height="0.7"/>
		<path class="st7" d="M40.8,60.8c-1.5,0.6-3.2-0.2-3.7-1.7c-0.6-1.5,0.2-3.2,1.7-3.7s3.2,0.2,3.7,1.7C43,58.6,42.3,60.3,40.8,60.8z
			"/>
		<path class="st5" d="M40.6,60.3c-1.2,0.5-2.5-0.1-3-1.3c-0.5-1.2,0.1-2.5,1.3-3c1.2-0.5,2.5,0.1,3,1.3
			C42.3,58.5,41.7,59.8,40.6,60.3z"/>
		<path class="st8" d="M40.5,60.2c-1.2,0.4-2.5-0.1-2.9-1.3c-0.4-1.2,0.1-2.5,1.3-2.9c1.2-0.4,2.5,0.1,2.9,1.3
			C42.3,58.5,41.7,59.8,40.5,60.2z"/>
		<path class="st4" d="M40.5,60.1c-1.1,0.4-2.3-0.1-2.7-1.2c-0.4-1.1,0.1-2.3,1.2-2.7c1.1-0.4,2.3,0.1,2.7,1.2
			C42.1,58.5,41.6,59.7,40.5,60.1z"/>
		<ellipse class="st5" cx="39.7" cy="58.2" rx="0.8" ry="0.8"/>
		<path class="st8" d="M41.9,57.7c-0.1-0.2-0.1-0.4-0.2-0.6c-0.4,0.4-1,0.6-1.6,0.6c0.1,0.2,0.1,0.4,0.2,0.6
			C40.8,57.9,41.3,57.7,41.9,57.7z"/>
		<path class="st8" d="M40.9,56.3c-0.2-0.1-0.4-0.2-0.5-0.3c0,0.6-0.3,1.1-0.7,1.5c0.2,0.1,0.4,0.2,0.5,0.3
			C40.2,57.3,40.5,56.7,40.9,56.3z"/>
		<path class="st8" d="M37.9,57c-0.1,0.2-0.2,0.4-0.3,0.5c0.6,0,1.1,0.3,1.5,0.7c0.1-0.2,0.2-0.4,0.3-0.5
			C38.8,57.6,38.3,57.4,37.9,57z"/>
		<path class="st8" d="M37.6,58.6c0.1,0.2,0.1,0.4,0.2,0.6c0.4-0.4,1-0.6,1.6-0.6c-0.1-0.2-0.1-0.4-0.2-0.6
			C38.7,58.4,38.2,58.6,37.6,58.6z"/>
		<path class="st8" d="M38.6,60c0.2,0.1,0.4,0.2,0.5,0.3c0-0.6,0.3-1.1,0.7-1.5c-0.2-0.1-0.4-0.2-0.5-0.3C39.2,59.1,39,59.6,38.6,60
			z"/>
		<path class="st8" d="M40.2,60.3c0.2-0.1,0.4-0.1,0.6-0.2c-0.4-0.4-0.6-1-0.6-1.6c-0.2,0.1-0.4,0.1-0.6,0.2
			C40,59.2,40.2,59.7,40.2,60.3z"/>
		<path class="st8" d="M41.6,59.3c0.1-0.2,0.2-0.4,0.3-0.5c-0.6,0-1.1-0.3-1.5-0.7c-0.1,0.2-0.2,0.4-0.3,0.5
			C40.6,58.7,41.2,58.9,41.6,59.3z"/>
		<path class="st5" d="M40,58.8c-0.3,0.1-0.7,0-0.9-0.4c-0.1-0.3,0-0.7,0.4-0.9c0.3-0.1,0.7,0,0.9,0.4C40.5,58.3,40.3,58.6,40,58.8z
			"/>
		<path class="st8" d="M40,58.7c-0.3,0.1-0.7,0-0.8-0.3c-0.1-0.3,0-0.7,0.3-0.8c0.3-0.1,0.7,0,0.8,0.3C40.4,58.2,40.2,58.6,40,58.7z
			"/>
	</g>
	<g>
		<ellipse class="st4" cx="46.9" cy="76.8" rx="5.3" ry="5.3"/>
		<g>
			<path class="st5" d="M42.2,78.7c-1-2.6,0.3-5.5,2.9-6.5c2.6-1,5.5,0.3,6.5,2.9c1,2.6-0.3,5.5-2.9,6.5
				C46.1,82.5,43.3,81.2,42.2,78.7z M51.4,75.2c-0.9-2.5-3.7-3.7-6.2-2.8c-2.5,0.9-3.7,3.7-2.8,6.2c0.9,2.5,3.7,3.7,6.2,2.8
				C51.1,80.4,52.3,77.6,51.4,75.2z"/>
		</g>
		<path class="st6" d="M45.2,72.4c0,0,0.1,0,0.3-0.1c0.1,0,0.2-0.1,0.4-0.1c0.1,0,0.3-0.1,0.5-0.1c0.2,0,0.4-0.1,0.6-0.1
			c0.2,0,0.4,0,0.7,0c0.2,0,0.5,0.1,0.7,0.1c0.2,0,0.5,0.1,0.7,0.2c0.2,0.1,0.4,0.2,0.6,0.4c0.2,0.1,0.4,0.3,0.5,0.4
			c0.1,0.1,0.3,0.3,0.4,0.5c0.1,0.1,0.3,0.3,0.3,0.5c0.1,0.1,0.2,0.3,0.2,0.4c0.1,0.1,0.1,0.3,0.1,0.3c0.1,0.2,0.1,0.3,0.1,0.3
			s-0.1-0.1-0.1-0.3c0-0.1-0.1-0.2-0.2-0.3s-0.2-0.3-0.3-0.4c-0.1-0.1-0.2-0.3-0.4-0.4c-0.1-0.1-0.3-0.3-0.4-0.4
			c-0.2-0.1-0.3-0.3-0.5-0.4c-0.2-0.1-0.4-0.2-0.6-0.3c-0.2-0.1-0.4-0.2-0.6-0.2c-0.2-0.1-0.4-0.1-0.6-0.1c-0.2,0-0.4-0.1-0.6-0.1
			c-0.2,0-0.4,0-0.5,0c-0.2,0-0.3,0-0.5,0c-0.1,0-0.3,0-0.4,0.1C45.4,72.4,45.2,72.4,45.2,72.4z"/>
		<path class="st5" d="M48.6,81.3c0,0-0.1,0-0.3,0.1c-0.1,0-0.2,0.1-0.4,0.1s-0.3,0.1-0.5,0.1c-0.2,0-0.4,0.1-0.6,0.1
			c-0.2,0-0.4,0-0.7,0c-0.2,0-0.5-0.1-0.7-0.1c-0.2,0-0.5-0.1-0.7-0.2c-0.2-0.1-0.4-0.2-0.6-0.4c-0.2-0.1-0.4-0.3-0.5-0.4
			c-0.1-0.1-0.3-0.3-0.4-0.5c-0.1-0.1-0.3-0.3-0.3-0.5c-0.1-0.1-0.2-0.3-0.2-0.4c-0.1-0.1-0.1-0.3-0.1-0.3c-0.1-0.2-0.1-0.3-0.1-0.3
			s0.1,0.1,0.1,0.3c0,0.1,0.1,0.2,0.2,0.3s0.2,0.3,0.3,0.4c0.1,0.1,0.2,0.3,0.4,0.4c0.1,0.1,0.3,0.3,0.4,0.4
			c0.2,0.1,0.3,0.3,0.5,0.4c0.2,0.1,0.4,0.2,0.6,0.3c0.2,0.1,0.4,0.2,0.6,0.2c0.2,0.1,0.4,0.1,0.6,0.1c0.2,0,0.4,0.1,0.6,0.1
			c0.2,0,0.4,0,0.5,0s0.3,0,0.5,0c0.1,0,0.3,0,0.4-0.1C48.5,81.3,48.6,81.3,48.6,81.3z"/>
		<rect x="51.7" y="74.6" transform="matrix(0.9333 -0.359 0.359 0.9333 -23.4521 23.6277)" class="st4" width="0.4" height="0.7"/>
		<rect x="50.7" y="73" transform="matrix(0.7535 -0.6575 0.6575 0.7535 -35.6759 51.5836)" class="st4" width="0.4" height="0.7"/>
		<rect x="49.3" y="71.9" transform="matrix(0.484 -0.8751 0.8751 0.484 -37.6503 80.5835)" class="st4" width="0.4" height="0.7"/>
		
			<rect x="47.5" y="71.3" transform="matrix(0.1555 -0.9878 0.9878 0.1555 -30.4213 107.6356)" class="st4" width="0.4" height="0.7"/>
		
			<rect x="45.6" y="71.5" transform="matrix(0.9815 -0.1913 0.1913 0.9815 -12.8607 10.1039)" class="st4" width="0.7" height="0.4"/>
		
			<rect x="43.9" y="72.1" transform="matrix(0.8566 -0.5159 0.5159 0.8566 -30.9684 33.1648)" class="st4" width="0.7" height="0.4"/>
		
			<rect x="42.5" y="73.3" transform="matrix(0.6284 -0.7779 0.7779 0.6284 -41.2778 60.6333)" class="st4" width="0.7" height="0.4"/>
		
			<rect x="41.6" y="74.9" transform="matrix(0.3248 -0.9458 0.9458 0.3248 -42.7621 90.3642)" class="st4" width="0.7" height="0.4"/>
		<polygon class="st4" points="41.8,76.6 41.8,77.3 41.4,77.3 41.4,76.6 		"/>
		
			<rect x="41.8" y="78.5" transform="matrix(0.9329 -0.3602 0.3602 0.9329 -25.5577 20.4045)" class="st4" width="0.4" height="0.7"/>
		<rect x="42.7" y="80" transform="matrix(0.7546 -0.6562 0.6562 0.7546 -42.1709 47.8818)" class="st4" width="0.4" height="0.7"/>
		
			<rect x="44.1" y="81.2" transform="matrix(0.4844 -0.8748 0.8748 0.4844 -48.4367 80.8116)" class="st4" width="0.4" height="0.7"/>
		
			<rect x="45.9" y="81.8" transform="matrix(0.1548 -0.9879 0.9879 0.1548 -42.1594 114.9453)" class="st4" width="0.4" height="0.7"/>
		
			<rect x="47.6" y="81.9" transform="matrix(0.9816 -0.1911 0.1911 0.9816 -14.8024 10.6784)" class="st4" width="0.7" height="0.4"/>
		
			<rect x="49.3" y="81.2" transform="matrix(0.8568 -0.5156 0.5156 0.8568 -34.8625 37.2593)" class="st4" width="0.7" height="0.4"/>
		<rect x="50.7" y="80" transform="matrix(0.6286 -0.7777 0.7777 0.6286 -43.3941 69.5003)" class="st4" width="0.7" height="0.4"/>
		
			<rect x="51.6" y="78.4" transform="matrix(0.3238 -0.9461 0.9461 0.3238 -39.2318 102.277)" class="st4" width="0.7" height="0.4"/>
		
			<rect x="52.1" y="76.5" transform="matrix(0.9998 -1.795652e-02 1.795652e-02 0.9998 -1.3703 0.9507)" class="st4" width="0.4" height="0.7"/>
		<path class="st7" d="M48,79.6c-1.5,0.6-3.2-0.2-3.7-1.7c-0.6-1.5,0.2-3.2,1.7-3.7c1.5-0.6,3.2,0.2,3.7,1.7
			C50.2,77.3,49.4,79,48,79.6z"/>
		<path class="st5" d="M47.7,79c-1.2,0.5-2.5-0.1-3-1.3c-0.5-1.2,0.1-2.5,1.3-3c1.2-0.5,2.5,0.1,3,1.3C49.5,77.2,48.9,78.6,47.7,79z
			"/>
		<path class="st8" d="M47.7,79c-1.2,0.4-2.5-0.1-2.9-1.3c-0.4-1.2,0.1-2.5,1.3-2.9c1.2-0.4,2.5,0.1,2.9,1.3
			C49.4,77.2,48.9,78.5,47.7,79z"/>
		<path class="st4" d="M47.7,78.8c-1.1,0.4-2.3-0.1-2.7-1.2c-0.4-1.1,0.1-2.3,1.2-2.7c1.1-0.4,2.3,0.1,2.7,1.2
			C49.3,77.2,48.8,78.4,47.7,78.8z"/>
		<path class="st5" d="M47.2,77.6c-0.4,0.1-0.9,0-1-0.4c-0.1-0.4,0-0.9,0.4-1s0.9,0,1,0.4C47.8,77,47.6,77.4,47.2,77.6z"/>
		<path class="st8" d="M48.1,75c-0.2-0.1-0.4-0.2-0.5-0.3c0,0.6-0.3,1.1-0.7,1.5c0.2,0.1,0.4,0.2,0.5,0.3
			C47.5,75.9,47.7,75.4,48.1,75z"/>
		<path class="st8" d="M45.1,75.7c-0.1,0.2-0.2,0.4-0.3,0.5c0.6,0,1.1,0.3,1.5,0.7c0.1-0.2,0.2-0.4,0.3-0.5
			C46,76.3,45.5,76.1,45.1,75.7z"/>
		<path class="st8" d="M45.8,78.7c0.2,0.1,0.4,0.2,0.5,0.3c0-0.6,0.3-1.1,0.7-1.5c-0.2-0.1-0.4-0.2-0.5-0.3
			C46.4,77.8,46.2,78.3,45.8,78.7z"/>
		<path class="st8" d="M47.4,79c0.2-0.1,0.4-0.1,0.6-0.2c-0.4-0.4-0.6-1-0.6-1.6c-0.2,0.1-0.4,0.1-0.6,0.2
			C47.2,77.9,47.4,78.4,47.4,79z"/>
		<path class="st8" d="M48.8,78c0.1-0.2,0.2-0.4,0.3-0.5c-0.6,0-1.1-0.3-1.5-0.7c-0.1,0.2-0.2,0.4-0.3,0.5
			C47.9,77.4,48.4,77.6,48.8,78z"/>
		<path class="st5" d="M47.2,77.5c-0.3,0.1-0.7,0-0.9-0.4c-0.1-0.3,0-0.7,0.4-0.9c0.3-0.1,0.7,0,0.9,0.4
			C47.7,77,47.5,77.4,47.2,77.5z"/>
		<path class="st8" d="M47.1,77.4c-0.3,0.1-0.7,0-0.8-0.3c-0.1-0.3,0-0.7,0.3-0.8c0.3-0.1,0.7,0,0.8,0.3
			C47.6,77,47.5,77.3,47.1,77.4z"/>
	</g>
	<polygon class="st0" points="50,83.8 49.4,82.3 55.4,80 54.4,82.1 	"/>
	<rect x="45.3" y="69.1" transform="matrix(0.9333 -0.359 0.359 0.9333 -21.6111 22.4347)" class="st1" width="8.6" height="0.6"/>
	<rect x="53.7" y="82.3" transform="matrix(0.9333 -0.359 0.359 0.9333 -26.1335 24.8513)" class="st1" width="0.4" height="1"/>
	<rect x="51.5" y="83.1" transform="matrix(0.9333 -0.359 0.359 0.9333 -26.5741 24.1405)" class="st1" width="0.4" height="1"/>
	<rect x="51.1" y="83.7" transform="matrix(0.9333 -0.359 0.359 0.9333 -26.5911 24.6555)" class="st1" width="3.9" height="0.5"/>
	
		<rect x="48.2" y="65.9" transform="matrix(0.8495 -0.5276 0.5276 0.8495 -27.5053 35.9635)" class="st1" width="2.2" height="0.5"/>
	<g>
		
			<rect x="48.5" y="64.5" transform="matrix(0.7362 -0.6768 0.6768 0.7362 -31.3923 50.2036)" class="st1" width="0.4" height="1.7"/>
	</g>
</g>
</svg>
