<?xml version="1.0" encoding="utf-8"?>
<!-- Generator: Adobe Illustrator 23.0.2, SVG Export Plug-In . SVG Version: 6.00 Build 0)  -->
<svg version="1.1" id="Layer_1" xmlns="http://www.w3.org/2000/svg" xmlns:xlink="http://www.w3.org/1999/xlink" x="0px" y="0px"
	 viewBox="0 0 40 57" style="enable-background:new 0 0 40 57;" xml:space="preserve">
<style type="text/css">
	.st0{fill:#D3A54A;}
	.st1{fill:#C49541;}
	.st2{fill:#EAC060;}
	.st3{fill:#FFDC8D;}
</style>
<g id="_x37_">
	<path class="st0" d="M25.4,25.5c-1.5-0.8-3.6-0.4-4.4,1.2c-0.1,0.2,0.3-0.1,0.2,1c0,0-1.1,1.6,0.8,3.9c-0.2-0.6-0.3-1.3-0.4-1.9
		c-0.1-1-0.1-2.2,0.6-3c0.9-1,2.5-1.1,3.7-0.4l0.2-0.2C26.2,25.9,25.5,25.5,25.4,25.5z"/>
	<path class="st1" d="M25.5,25.5c-1.5-0.7-3.5-0.3-4.3,1.2c-0.1,0.2,0.3-0.1,0.2,1c0,0-1.1,1.6,0.8,3.9c-0.2-0.6-0.3-1.3-0.4-1.9
		c-0.1-1-0.1-2.2,0.6-3c0.9-1,2.5-1.1,3.7-0.4l0.1-0.3C26.2,25.9,25.6,25.6,25.5,25.5z"/>
	<path class="st2" d="M25.5,25.5c-1.5-0.7-3.5-0.3-4.3,1.2c-0.1,0.2,0.3-0.1,0.2,1c0,0-1.1,1.6,0.8,3.9c-0.2-0.6-0.3-1.3-0.4-1.9
		c0-0.5-0.1-1,0-1.5c0-0.4,0-0.8,0.2-1.2c0.2-0.6,0.7-1,1.2-1.3c0.6-0.3,1.3-0.2,1.9-0.1c0.4,0.1,0.7,0.2,1,0.4c0,0,0-0.1,0-0.1
		C26.2,25.9,25.6,25.6,25.5,25.5z"/>
	<path class="st1" d="M23,33.4c-0.2-1.1-1-2.2-1.4-2.9c-0.7-1.2,0.1-3.3-0.1-3.2c-0.4,0.2-1.4,0.2-2.2,0.3c-0.4,0-0.8,0-1.1-0.1
		c-0.5,0-0.9-0.1-1.1-0.2c-0.2-0.1,0.6,2-0.1,3.2c-0.4,0.7-1.1,1.8-1.4,2.9c-0.3,1.4,0.7,2.7,2.2,2.9c0.5,0,0.9,0.1,1.4,0.1l0,0h0h0
		c0.5,0,0.9,0,1.4-0.1c1.4-0.2,2.4-1.3,2.3-2.7C23,33.5,23,33.4,23,33.4z"/>
	<path class="st0" d="M21.6,30.5c-0.7-1.2,0.1-3.3-0.1-3.2c-0.4,0.2-1.4,0.2-2.2,0.3c-0.4,0-0.8,0-1.1-0.1c-0.2,0-0.5,0-0.7-0.1
		c0.2,1.1,0.3,2.1-0.1,3.2c-0.2,0.6-0.5,1.1-0.8,1.6c-0.2,0.5-0.5,1-0.6,1.5c-0.1,1.3,1.2,2,2.3,2.2c1.1,0.2,2.5,0.1,3.4-0.6
		c0.2-0.1,0.4-0.4,0.6-0.6c0.1-0.2,0.3-0.5,0.3-0.8c0.1-0.8-0.4-1.6-0.5-2.4C22,31.2,21.8,30.8,21.6,30.5z"/>
	<path class="st2" d="M20.7,27.5c-0.4,0-0.7,0.1-1.1,0.1c-0.1,0-0.1,0-0.1,0s-0.1,0-0.1,0c-0.2,0-0.4,0-0.6,0
		c0.6,2.7-1.8,3.9-1.1,6.3c0.4,1.2,2.1,1.1,3.1,1c0.6-0.1,0.9-0.4,1.1-0.9c0.2-0.7,0-1.6-0.2-2.3C20.9,30.3,20.3,28.8,20.7,27.5z"/>
	<path class="st2" d="M15.3,27.6c0.6-0.2,1.2,0,1.9,0.4L17,27.3c-0.5-0.4-1-0.6-1.8-0.4c-0.4,0.1-0.7,0.3-1.1,0.7
		c-1,1.9,0.6,2.6,1.5,4l0,0l0,0c0.2,0.4,0.3,0.7-0.1,1l0.2,0.4c0,0,0.1,0,0.1-0.1c0.6-0.4,0.5-1,0.1-1.6c-0.9-1.4-2.1-1.9-1.3-3.2
		C14.9,27.9,15.1,27.7,15.3,27.6z"/>
	<path class="st0" d="M15.5,27.2c-0.4,0.1-0.7,0.3-1.1,0.7c-1,1.9,0.6,2.6,1.5,4l0,0c0.2,0.4,0.3,0.7-0.1,1l0,0.1
		c0.6-0.4,0.5-1,0.1-1.6c-0.2-0.3-0.4-0.6-0.6-0.9c-0.5-0.6-1.2-1.3-0.8-2.1c0.1-0.3,0.4-0.6,0.7-0.7c0.2-0.1,0.3-0.1,0.5-0.1
		c0.5,0,0.9,0.2,1.3,0.4c0-0.2,0-0.5,0-0.7C16.5,27.1,16.2,27,15.5,27.2z"/>
	<path class="st1" d="M17,27.3c0,0.2,0.1,0.5,0,0.7c0.1,0,0.2,0.1,0.2,0.1l-0.1-0.8C17.1,27.3,17,27.3,17,27.3z"/>
	<g>
		<path class="st1" d="M21.6,26.9c0-0.2,0-0.4-0.1-0.5c-0.2-0.6-0.8-1.1-1.5-1.1h-1.4c-0.8,0-1.5,0.6-1.6,1.3c0,0.1,0,0.2,0,0.4
			l0.1,0.3c0.2,0.2,1.1,0.4,2.2,0.4s2-0.2,2.2-0.4h0v-0.1c0,0,0,0,0-0.1s0,0,0-0.1L21.6,26.9L21.6,26.9z"/>
		<path class="st0" d="M21.5,26.5c0,0,0-0.1,0-0.1c-0.2-0.6-0.8-1.1-1.5-1.1h-1.3c-0.4,0.2-0.9,0.6-1,1c-0.1,0.3-0.1,0.6-0.1,0.9
			c0.4,0.1,1,0.1,1.7,0.1c1.1,0,2-0.2,2.2-0.4h0v-0.1c0,0,0,0,0-0.1s0,0,0-0.1L21.5,26.5L21.5,26.5z"/>
		<path class="st2" d="M20.1,25.4c0,0-0.1,0-0.1,0s-0.1,0-0.1,0c-0.5,0-0.9,0.4-1.1,0.7c0,0,0,0,0,0.1c0,0.1,0,0.2-0.1,0.3
			c0,0.3,0.1,0.6,0.2,0.9c0.1,0,0.2,0,0.3,0c0.6,0,1.2,0,1.6-0.1c0-0.1,0.1-0.3,0.1-0.4c0-0.2,0-0.3,0-0.5
			C20.8,25.8,20.6,25.5,20.1,25.4z"/>
		<polygon class="st0" points="19,23.2 18.7,23.7 19.9,23.7 19.6,23.2 		"/>
		<path class="st3" d="M19.3,23.2c0,0.1,0,0.3-0.1,0.5h0.6l-0.3-0.5H19.3z"/>
		<path class="st1" d="M19.9,23.7L19.9,23.7L19.9,23.7C19.9,23.7,19.9,23.7,19.9,23.7L19.9,23.7L19.9,23.7l-1.2,0l0,0l0,0l0,0l0,0
			l0,0c0,0.1,0.2,1.1-0.7,1.7c0.7,0.1,1.9,0.1,2.7,0C19.7,24.8,19.9,23.9,19.9,23.7z"/>
		<path class="st0" d="M19.9,23.7L19.9,23.7L19.9,23.7C19.9,23.7,19.9,23.7,19.9,23.7L19.9,23.7L19.9,23.7l-1,0
			c0.1,0.5,0,1.1-0.2,1.6c0.3,0,0.6,0.1,1,0c0.2,0,0.5-0.1,0.7-0.1C19.8,24.6,19.9,23.8,19.9,23.7z"/>
		<path class="st2" d="M19.7,23.7h-0.4c0.1,0.3,0.1,0.6,0.1,0.9s-0.1,0.5-0.1,0.8c0.1,0,0.2,0,0.3,0c0.2,0,0.4,0,0.6-0.1
			C19.9,24.8,19.7,24.3,19.7,23.7z"/>
		<polygon class="st1" points="19,23.2 19.6,23.2 19.8,22.6 18.8,22.6 		"/>
		<g>
			<path class="st0" d="M19.3,20.7c-0.1,0-0.2,0.1-0.2,0.2L19,21.4h0.7l-0.1-0.6C19.5,20.7,19.4,20.7,19.3,20.7z"/>
			<path class="st3" d="M19.3,20.7c0,0-0.1,0-0.1,0c0,0.2-0.1,0.4-0.1,0.5c0,0.1,0,0.1,0,0.2h0.6l-0.1-0.6
				C19.5,20.7,19.4,20.7,19.3,20.7z"/>
			<path class="st0" d="M19.6,21.8L19.6,21.8c-0.2,0-0.5,0-0.7,0c-0.1,0.1-0.2,0.3-0.2,0.5c0,0.4,0.2,0.6,0.6,0.6s0.6-0.3,0.6-0.6
				C19.8,22.1,19.8,21.9,19.6,21.8z"/>
			<path class="st3" d="M19.6,21.8L19.6,21.8c-0.1,0-0.3,0-0.4,0c-0.1,0.2-0.1,0.5-0.1,0.6c0,0.1,0.2,0.2,0.3,0.4c0.2,0,0.2,0,0.3,0
				c0.1-0.1,0.2-0.2,0.2-0.4C19.8,22.1,19.8,21.9,19.6,21.8z"/>
			<path class="st0" d="M19.7,21.4h-0.7l0.1,0.3c0,0,0,0.1,0,0.1c0,0,0,0-0.1,0c0.2-0.1,0.5-0.1,0.7,0c0,0-0.1-0.1,0-0.1L19.7,21.4z
				"/>
		</g>
	</g>
	<path class="st3" d="M19.6,31.4c-0.3,0.7,0.1,2.5,1,2.5c0.4,0,0.8-0.4,0.9-0.8c0.1-0.4,0-0.9-0.2-1.2
		C20.8,30.5,19.8,30.9,19.6,31.4z"/>
	<path class="st3" d="M20.4,25.9c-0.2-0.1-0.5-0.1-0.7,0.1l-0.1,0.1c-0.1,0.2,0,0.5,0.2,0.6c0.2,0.1,0.5,0,0.7-0.2
		C20.6,26.4,20.6,26,20.4,25.9z"/>
	<path class="st3" d="M24.1,25.3c-0.7-0.1-1.5,0.3-2,1c0.7-0.5,1.6-0.8,2.4-0.7C24.5,25.4,24.3,25.3,24.1,25.3z"/>
</g>
</svg>
