<?xml version="1.0" encoding="utf-8"?>
<!-- Generator: Adobe Illustrator 23.0.2, SVG Export Plug-In . SVG Version: 6.00 Build 0)  -->
<svg version="1.1" id="Layer_1" xmlns="http://www.w3.org/2000/svg" xmlns:xlink="http://www.w3.org/1999/xlink" x="0px" y="0px"
	 viewBox="0 0 38 40" style="enable-background:new 0 0 38 40;" xml:space="preserve">
<style type="text/css">
	.st0{fill:#383638;}
	.st1{fill:#6E0101;}
	.st2{fill:#7F8083;}
	.st3{fill:#504F51;}
	.st4{fill:#BE1217;}
</style>
<g>
	<path class="st0" d="M25,19.8c0,0,0.1,0,0.1,0c0,0,0,0,0,0c0,0,0,0.1,0.1,0.1c0,0,0.1,0,0.1,0c0,0,0,0,0,0c0,0,0-0.1,0-0.1
		c0,0,0,0,0,0c0.1,0,0.2,0,0.3-0.1c0,0,0,0,0,0c0,0,0,0.1,0,0.1c0,0,0,0,0,0c0,0,0.1,0,0.1,0c0,0,0-0.1,0-0.1c0-0.1,0-0.1,0.1-0.1
		c0.1,0,0.2,0,0.3,0c0,0,0,0,0,0c0,0,0,0.1,0,0.1c0,0,0,0,0,0c0,0,0,0,0,0c0,0,0.1,0,0.1,0c0,0,0-0.1,0-0.1c0,0,0,0,0-0.1
		c0.1,0,0.2,0,0.3,0.1c0,0,0,0,0,0c0,0,0,0.1,0,0.1c0,0,0,0,0,0c0,0,0.1,0,0.1,0c0,0,0-0.1,0.1-0.1c0,0,0,0,0,0
		c0.1,0,0.2,0.1,0.3,0.1c0,0,0,0,0,0c0,0,0,0.1-0.1,0.1c0,0,0.1,0,0.1,0.1c0,0,0,0,0,0c0,0,0-0.1,0.1-0.1c0,0,0,0,0,0
		c0.1,0.1,0.2,0.1,0.3,0.2c0,0,0,0,0,0c0,0-0.1,0.1-0.1,0.1c0,0,0.1,0.1,0.1,0.1c0,0,0,0,0,0c0,0,0.1-0.1,0.1-0.1
		c0,0,0.1,0.1,0.1,0.1c0.1,0,0.1,0.1,0.2,0.1c0,0,0,0,0,0.1c0,0-0.1,0.1-0.1,0.1c0,0,0.1,0.1,0.1,0.1c0,0,0.1-0.1,0.1-0.1
		c0.1,0.1,0.2,0.2,0.2,0.3c0,0-0.1,0.1-0.1,0.1c0,0,0,0,0,0.1c0,0,0,0.1,0.1,0.1c0.1,0,0.1-0.1,0.2-0.1c0,0,0,0,0,0
		c0.1,0.1,0.1,0.2,0.2,0.3c0,0,0,0,0,0.1c0,0-0.1,0-0.1,0.1c0,0,0,0,0,0c0,0,0,0.1,0.1,0.1c0,0,0.1,0,0.1-0.1c0,0,0,0,0,0
		c0,0.1,0.1,0.2,0.1,0.3c0,0,0,0,0,0c0,0-0.1,0-0.1,0c0,0,0,0,0,0.1c0,0,0,0,0,0.1c0,0,0,0,0,0c0,0,0.1,0,0.1,0c0,0,0,0,0,0
		c0,0.1,0,0.1,0,0.2c0,0,0,0.1,0,0.1c0,0,0,0,0,0c0,0-0.1,0-0.1,0c0,0,0,0,0,0c0,0,0,0.1,0,0.1c0,0,0.1,0,0.1,0c0,0,0,0,0.1,0
		c0,0.1,0,0.3,0,0.4c0,0,0,0-0.1,0c0,0-0.1,0-0.1,0c0,0,0,0.1,0,0.1c0,0,0,0,0,0c0,0,0.1,0,0.1,0c0,0,0,0,0,0c0,0.1,0,0.2,0,0.2
		c0,0,0,0.1,0,0.1c0,0-0.1,0-0.1,0c-0.1,0-0.1,0-0.1,0.1c0,0,0,0.1,0,0.1c0,0,0.1,0,0.1,0.1c0,0,0,0,0,0c0,0.1-0.1,0.2-0.1,0.3
		c0,0,0,0,0,0c0,0-0.1,0-0.1,0c0,0,0,0,0,0c0,0,0,0.1,0,0.1c0,0,0,0,0,0c0,0,0.1,0,0.1,0.1c0,0,0,0,0,0.1c0,0.1-0.1,0.1-0.1,0.2
		c0,0,0,0.1-0.1,0.1c-0.1,0-0.1-0.1-0.2-0.1c0,0,0,0.1-0.1,0.1c0,0,0,0,0,0.1c0,0,0.1,0.1,0.1,0.1c-0.1,0.1-0.2,0.2-0.2,0.3
		c0,0-0.1-0.1-0.1-0.1c0,0-0.1,0.1-0.1,0.1c0,0,0.1,0.1,0.1,0.1c0,0,0,0,0,0c-0.1,0.1-0.2,0.1-0.2,0.2c0,0,0,0,0,0
		c0,0-0.1-0.1-0.1-0.1c0,0-0.1,0.1-0.1,0.1c0,0.1,0.1,0.1,0.1,0.2c-0.1,0.1-0.2,0.1-0.3,0.2c0,0,0-0.1-0.1-0.1c0,0,0,0-0.1,0
		c0,0-0.1,0-0.1,0c0,0,0,0,0,0c0,0,0,0.1,0,0.1c0,0,0,0,0,0c-0.1,0-0.2,0.1-0.3,0.1c0,0,0,0,0,0c0,0,0-0.1-0.1-0.1c0,0-0.1,0-0.1,0
		c0,0,0,0,0,0c0,0,0,0.1,0,0.1c0,0,0,0,0,0c-0.1,0-0.2,0-0.3,0.1c0,0,0,0,0,0c0,0,0-0.1,0-0.1c0,0,0,0,0,0c0,0-0.1,0-0.1,0
		c0,0,0,0,0,0c0,0.1,0,0.1,0,0.2c-0.1,0-0.3,0-0.4,0c0,0,0-0.1,0-0.1c0-0.1,0-0.1-0.1-0.1c0,0-0.1,0-0.1,0c0,0,0,0,0,0
		c0,0,0,0.1,0,0.1c0,0,0,0,0,0c-0.1,0-0.2,0-0.3-0.1c0,0,0,0,0,0c0,0,0-0.1,0-0.1c0,0,0,0,0,0c0,0-0.1,0-0.1,0c0,0,0,0,0,0
		c0,0,0,0.1,0,0.1c0,0,0,0,0,0C25,26,24.9,26,24.8,26c0,0,0,0,0,0c0,0,0-0.1,0-0.1c0,0,0,0,0-0.1c0,0,0,0,0,0c0,0,0,0-0.1,0
		c0,0,0,0,0,0.1c0,0,0,0,0,0c0,0,0,0.1-0.1,0.1c0,0-0.1,0-0.1,0c-0.1,0-0.1-0.1-0.2-0.1c0,0,0,0,0-0.1c0,0,0-0.1,0.1-0.1
		c0,0-0.1-0.1-0.1-0.1c0,0-0.1,0.1-0.1,0.1c0,0,0,0,0,0c-0.1-0.1-0.2-0.1-0.3-0.2c0,0,0.1-0.1,0.1-0.1c0,0,0,0,0,0
		c0,0-0.1-0.1-0.1-0.1c0,0-0.1,0-0.1,0.1c0,0,0,0,0,0c0,0-0.2-0.2-0.2-0.3c0,0,0.1-0.1,0.1-0.1c0,0-0.1-0.1-0.1-0.1
		c-0.1,0-0.1,0.1-0.2,0.1c0,0,0-0.1-0.1-0.1c0-0.1-0.1-0.1-0.1-0.2c0,0,0,0,0,0c0,0,0.1,0,0.1-0.1c0,0,0,0,0,0c0,0,0,0,0,0
		c0,0,0-0.1,0-0.1c0,0-0.1,0-0.1,0c0,0-0.1,0-0.1,0c0,0,0-0.1,0-0.1c0-0.1-0.1-0.2-0.1-0.2c0,0,0,0,0-0.1c0,0,0.1,0,0.1,0
		c0,0,0-0.1,0-0.1c0,0,0,0,0,0c0,0-0.1,0-0.1,0c0,0,0,0,0,0c0-0.1,0-0.2-0.1-0.3c0,0,0,0,0,0c0,0,0.1,0,0.1,0c0,0,0,0,0,0
		c0,0,0-0.1,0-0.1c0,0-0.1,0-0.1,0c-0.1,0-0.1,0-0.1-0.1c0-0.1,0-0.2,0-0.3c0,0,0,0,0,0c0,0,0.1,0,0.1,0c0,0,0,0,0,0
		c0,0,0-0.1,0-0.1c0,0,0,0,0,0c0,0-0.1,0-0.1,0c0,0,0,0,0,0c0-0.1,0-0.2,0.1-0.3c0,0,0,0,0,0c0,0,0.1,0,0.1,0c0,0,0,0,0,0
		c0,0,0-0.1,0-0.1c0,0-0.1,0-0.1-0.1c0,0,0,0,0,0c0-0.1,0.1-0.2,0.1-0.3c0,0,0,0,0,0c0,0,0.1,0,0.1,0c0,0,0,0,0,0c0,0,0-0.1,0-0.1
		c0,0,0,0,0,0c0,0-0.1,0-0.1-0.1c0,0,0,0,0,0c0.1-0.1,0.1-0.2,0.2-0.3c0.1,0,0.1,0.1,0.2,0.1c0,0,0,0,0,0c0,0,0.1-0.1,0.1-0.1
		c0,0-0.1-0.1-0.1-0.1c0,0,0,0,0,0c0.1-0.1,0.2-0.2,0.2-0.3c0,0,0.1,0.1,0.1,0.1c0,0,0.1-0.1,0.1-0.1c0,0-0.1-0.1-0.1-0.1
		c0.1-0.1,0.2-0.2,0.3-0.2c0,0,0.1,0.1,0.1,0.1c0,0,0,0,0,0c0,0,0,0,0,0c0.1,0.1,0.1,0.2,0.2,0.3c0,0,0,0.1,0.1,0.1
		c0,0.1,0,0.3,0,0.4c0,0,0,0-0.1,0.1c-0.2,0.2-0.3,0.4-0.4,0.6c-0.1,0.2-0.2,0.5-0.2,0.8c0,0.1,0,0.3,0,0.4c0,0.2,0.1,0.4,0.2,0.6
		c0.1,0.3,0.4,0.6,0.6,0.8c0.2,0.2,0.5,0.3,0.7,0.4c0.2,0.1,0.4,0.1,0.5,0.1c0.1,0,0.2,0,0.2,0c0.1,0,0.2,0,0.3,0
		c0.3,0,0.5-0.1,0.7-0.3c0.2-0.1,0.4-0.3,0.6-0.5c0.2-0.2,0.3-0.4,0.4-0.6c0.1-0.3,0.2-0.5,0.2-0.8c0-0.1,0-0.1,0-0.2
		c0-0.1,0-0.2-0.1-0.3c-0.1-0.2-0.1-0.4-0.2-0.6c-0.1-0.2-0.3-0.4-0.5-0.6c-0.2-0.2-0.5-0.3-0.8-0.4c-0.2,0-0.3-0.1-0.5-0.1
		c-0.1,0-0.2,0-0.4,0c-0.1,0-0.2,0-0.3,0.1c-0.1-0.1-0.2-0.3-0.2-0.4c-0.1-0.1-0.2-0.3-0.2-0.4C25.1,19.9,25,19.9,25,19.8z M24.3,25
		C24.3,25,24.4,25,24.3,25c0.2,0.2,0.3,0.2,0.5,0.3c0.1,0.1,0.3,0.1,0.4,0.1c0,0,0,0,0,0c0,0,0-0.1,0-0.1c0,0,0,0,0,0
		c-0.1-0.1-0.3-0.1-0.4-0.2c-0.1-0.1-0.3-0.2-0.4-0.3c0,0,0,0,0,0c0-0.1-0.1-0.1-0.1-0.2c-0.1-0.2-0.2-0.3-0.3-0.5
		c-0.1-0.3-0.2-0.6-0.3-0.9c0,0,0,0,0-0.1c0,0,0,0.1,0,0.1c0,0.2,0,0.3,0,0.5c0,0.2,0.1,0.3,0.1,0.5c0.1,0.3,0.3,0.5,0.5,0.7
		C24.2,24.9,24.3,24.9,24.3,25z"/>
	<path class="st1" d="M12.1,17.7C12.1,17.7,12.1,17.7,12.1,17.7c-0.3-0.2-0.6-0.2-0.8-0.3c-0.3,0-0.5,0-0.8-0.1c-0.2,0-0.4,0-0.6,0
		c-0.3,0-0.5,0-0.8-0.1c-0.1,0-0.2,0-0.4,0c-0.1,0-0.2-0.1-0.2-0.2c0,0,0,0,0,0c0,0,0-0.1,0-0.1c0,0,0,0,0,0c0-0.1,0.1-0.1,0.2-0.1
		c0,0,0,0,0.1,0c2.6,0,5.2,0,7.8,0c0.1,0,0.3,0,0.4,0c0.2,0,0.5-0.1,0.7-0.1c0.3,0,0.6-0.1,0.9-0.1c0.2,0,0.4-0.1,0.6-0.1
		c0,0,0,0,0.1,0c0,0,0,0,0,0c0.1,0,0.1,0,0.2,0c0,0,0,0,0.1,0c0.3,0.1,0.6,0.2,0.8,0.3c0.1,0,0.2,0.1,0.3,0.1c0,0,0,0,0,0
		c0.1,0,0.3,0.1,0.4,0.1c0.1,0,0.2,0.1,0.3,0.1c0.1,0,0.1,0,0.2,0.1c0.2,0.1,0.4,0.1,0.6,0.2c0.1,0,0.1,0.1,0.2,0.1c0,0,0,0,0,0
		c0,0,0,0.1,0.1,0.1c0.1,0.2,0.1,0.4,0,0.6c0,0-0.1,0.1-0.1,0.1c0,0,0,0,0,0c0,0,0,0,0,0c0,0,0,0,0,0c0.1,0,0.2-0.1,0.2-0.1
		c0,0,0,0,0.1,0c0,0,0,0.1,0.1,0.1c0,0,0,0.1,0,0.1c-0.4,0.4-0.8,0.9-1,1.5c-0.1,0.3-0.2,0.6-0.2,0.8c0,0,0,0.1-0.1,0.1
		c0,0,0,0-0.1,0c-0.1-0.1-0.3-0.1-0.4-0.2c0,0,0,0,0-0.1c0,0,0,0,0-0.1c0,0-0.1-0.1-0.1-0.1c0,0,0,0,0,0c-0.1-0.1-0.3-0.3-0.4-0.4
		c0,0,0-0.1,0-0.1c0-0.2,0.1-0.5,0.1-0.7c0-0.2,0.1-0.5,0.1-0.7c0-0.1,0-0.2-0.1-0.3c-0.1-0.2-0.2-0.3-0.4-0.3c0,0-0.1,0-0.1,0
		c-0.2,0-0.3,0-0.5,0c-0.2,0-0.3,0-0.5,0c-0.1,0-0.2,0-0.3,0.1c-0.3,0.1-0.6,0.2-0.9,0.3c-0.2,0.1-0.5,0.3-0.6,0.5
		c-0.1,0.1-0.2,0.2-0.2,0.3c-0.2,0.2-0.3,0.5-0.4,0.7c-0.1,0.1-0.1,0.3-0.2,0.4c0,0,0,0-0.1,0c-0.1,0-0.1,0-0.2,0
		c0.1-0.1,0.1-0.3,0-0.4c-0.1-0.1-0.2-0.2-0.2-0.3c-0.1-0.1-0.2-0.3-0.3-0.4c0,0-0.1-0.1-0.1-0.1c0,0,0,0,0.1,0c0.4,0,0.8,0,1.2,0
		c0,0,0,0,0,0c0,0,0.1,0,0.1-0.1c0,0,0-0.1,0.1-0.1c0.1-0.1,0.1-0.2,0.2-0.2c0.1-0.1,0.2-0.2,0.3-0.3c0.2-0.1,0.3-0.2,0.5-0.3
		c0.2-0.1,0.5-0.2,0.7-0.3c0.2,0,0.3-0.1,0.5-0.1c0.1,0,0.2,0,0.4,0c0.1,0,0.2,0,0.2,0c0.1,0,0.1,0,0.2,0c0.1,0,0.2,0,0.3,0
		c0.1,0,0.2,0,0.2,0.1c0.2,0.1,0.3,0.2,0.3,0.4c0,0.1,0,0.2,0,0.2c0,0,0,0.1,0,0.1c0,0.1,0,0.3-0.1,0.4c0,0.1,0,0.2,0,0.2
		c0,0.1,0,0.1,0.1,0.1c0,0,0,0,0,0c0.2,0,0.5,0,0.7,0c0,0,0.1,0,0.1,0c0,0,0,0,0,0c0,0,0-0.1,0.1-0.1c0.1-0.2,0.2-0.3,0.3-0.5
		c0.1-0.1,0.1-0.2,0.2-0.3c0-0.1,0.1-0.1,0.1-0.2c0-0.1-0.1-0.3-0.2-0.3c0,0-0.1,0-0.1-0.1c-0.2-0.1-0.3-0.1-0.5-0.2
		c-0.1,0-0.3-0.1-0.4-0.1c-0.1,0-0.2-0.1-0.2-0.1c-0.2-0.1-0.4-0.1-0.7-0.2c-0.1,0-0.3-0.1-0.4-0.1c-0.1,0-0.3-0.1-0.4-0.1
		c0,0-0.1,0-0.1,0c0,0-0.1,0-0.1,0c0,0,0,0,0,0.1c0,0.1,0,0.1-0.1,0.2c-0.1,0.1-0.1,0.2-0.2,0.3c-0.1,0.1-0.2,0.1-0.3,0.1
		c-0.2,0.1-0.4,0.2-0.5,0.2c-0.1,0.1-0.3,0.1-0.4,0.2c-0.2,0.1-0.3,0.1-0.5,0.2c-0.1,0-0.1,0.1-0.2,0.1c-0.2,0.1-0.3,0.1-0.5,0.1
		c-0.1,0-0.2,0-0.3,0c-0.1,0-0.1,0-0.2,0c-0.1,0-0.2-0.1-0.4-0.1c-0.1,0-0.2-0.1-0.3-0.1c-0.2,0-0.3-0.1-0.5-0.1
		c-0.2,0-0.3-0.1-0.5-0.1c-0.1,0-0.2,0-0.2-0.1c-0.2,0-0.3-0.1-0.5-0.1c-0.1,0-0.2,0-0.3-0.1c-0.2,0-0.3-0.1-0.5-0.1
		c-0.2,0-0.3-0.1-0.5-0.1c-0.1,0-0.2-0.1-0.4-0.2c0,0,0,0-0.1,0c-1,0-2.1,0-3.1,0c0,0,0,0,0,0c0,0-0.1,0-0.1,0.1c0,0,0,0.1,0.1,0.1
		c0,0,0.1,0,0.1,0c0.1,0,0.2,0,0.2,0c0.1,0,0.1,0,0.2,0c0.1,0,0.2,0,0.3,0c0.1,0,0.2,0,0.2,0c0.1,0,0.1,0,0.2,0c0.1,0,0.2,0,0.3,0
		c0.1,0,0.2,0,0.2,0c0.1,0,0.1,0,0.2,0c0.1,0,0.3,0,0.4,0c0.1,0,0.2,0,0.3,0c0.1,0,0.2,0,0.4,0.1c0.1,0,0.2,0.1,0.4,0.2
		C12.1,17.6,12.1,17.7,12.1,17.7z"/>
	<path class="st2" d="M21.4,13.8C21.4,13.8,21.4,13.8,21.4,13.8c0.1,0,0.2,0.1,0.2,0.1c0.1,0.1,0.1,0.1,0.1,0.2c0,0.1,0,0.2,0,0.3
		c0,0,0,0,0,0.1c0,0,0,0,0,0c-0.1,0.1-0.1,0.1-0.2,0.2c-0.1,0-0.1,0.1-0.2,0.1c-0.1,0-0.1,0.1-0.2,0c-0.1,0-0.1-0.1-0.1-0.1
		c0,0,0,0,0,0c0,0,0.1,0,0.1-0.1c0.1,0,0.1-0.1,0.2-0.1c0.1,0,0.1-0.1,0.1-0.1c0,0,0,0,0.1-0.1c0,0,0-0.1,0-0.1c0,0-0.1-0.1-0.1-0.1
		c0,0-0.1,0-0.1,0c0,0,0,0,0,0c-0.1,0-0.1,0-0.2,0c0,0,0,0-0.1,0c0,0,0,0,0,0c0-0.1-0.1-0.1-0.1-0.2c0.1-0.1,0.2-0.2,0.4-0.2
		c0,0,0,0,0,0C21.3,13.8,21.3,13.8,21.4,13.8z"/>
	<path class="st3" d="M11.7,26.2C11.7,26.2,11.7,26.2,11.7,26.2c0.1,0,0.2,0,0.4,0c0,0,0,0,0,0C11.9,26.2,11.8,26.2,11.7,26.2z"/>
	<path class="st2" d="M26.3,26.2C26.3,26.2,26.3,26.2,26.3,26.2c-0.1,0-0.2,0-0.4,0c0,0,0,0,0,0C26,26.2,26.2,26.2,26.3,26.2z"/>
	<path class="st3" d="M20.5,17.7c0.2,0,0.3,0.1,0.4,0.3c0,0.1,0.1,0.2,0.1,0.3c0,0.2-0.1,0.5-0.1,0.7c0,0.2-0.1,0.5-0.1,0.7
		c0,0,0,0.1,0,0.1c0.1,0.1,0.3,0.3,0.4,0.4c0,0,0,0,0,0c0,0,0,0.1,0,0.1c0,0.1,0,0.2-0.1,0.4c0,0.2-0.1,0.4-0.1,0.6
		c0,0.1,0,0.1,0.1,0.2c0,0,0,0,0,0c0,0,0.1,0.1,0.1,0.1c0,0,0.1,0,0.1,0c0,0,0-0.1,0-0.1c-0.1-0.1-0.1-0.1-0.2-0.1c0,0,0-0.1,0-0.1
		c0-0.1,0-0.2,0.1-0.3c0-0.1,0-0.2,0-0.2c0-0.1,0-0.1,0-0.2c0.1,0,0.3,0.1,0.4,0.2c0,0,0,0,0.1,0c0,0,0,0,0,0
		c0.2,0.1,0.3,0.3,0.4,0.6c0.1,0.3,0,0.6-0.2,0.8c-0.3,0.3-0.7,0.4-1,0.2c0,0,0,0-0.1,0c0,0-0.1,0-0.1-0.1c0,0,0,0,0,0
		c0,0.1-0.1,0.1-0.1,0.1c-0.1,0.1-0.2,0.2-0.3,0.3C20.2,22.9,20,23,19.9,23c-0.1,0-0.3,0.1-0.4,0.1c-0.6,0-1.3,0-1.9,0
		c0,0-0.1,0-0.1,0c-0.1,0-0.2,0-0.3-0.1c-0.2-0.1-0.4-0.2-0.5-0.3c-0.1-0.1-0.1-0.1-0.2-0.2c-0.1-0.1-0.2-0.3-0.2-0.5
		c0,0,0-0.1,0-0.1c0.3-0.1,0.5-0.1,0.8-0.2c0.1,0,0.1,0,0.1,0c0.1,0.2,0.2,0.4,0.4,0.5c0.2,0.1,0.4,0.2,0.7,0.2c0,0,0.1,0,0.1,0
		c0.1,0,0.2,0,0.3-0.1c0.2-0.1,0.3-0.2,0.4-0.3c0.1-0.2,0.2-0.3,0.2-0.5c0,0,0-0.1,0-0.1c-0.1-0.1-0.2-0.1-0.3-0.2
		c-0.2-0.1-0.4-0.2-0.6-0.3c-0.1,0-0.1-0.1-0.2,0C18,20.9,17.8,21,17.6,21c-0.1,0-0.2,0.1-0.3,0.1c0,0,0,0-0.1,0.1c0,0,0,0.1,0,0.1
		c0,0.1,0,0.2,0,0.3c0,0,0,0.1,0,0.1c-0.1,0-0.1,0-0.2,0c-0.2,0-0.4,0.1-0.5,0.1c0,0,0,0-0.1,0c0,0,0,0,0,0c0-0.1,0-0.1-0.1,0
		c-0.1,0-0.1,0-0.2,0c-0.2,0-0.4,0.1-0.6,0.2C15.3,22,15,22,14.7,22.1c-0.3,0.1-0.5,0.1-0.8,0.2c-0.3,0.1-0.7,0.2-1,0.3
		c-0.3,0.1-0.6,0.1-0.8,0.2c-0.1,0-0.2,0-0.3,0.1c-0.1,0-0.2,0.1-0.1,0.2c0,0.1,0.1,0.2,0.2,0.2c0,0,0,0,0,0
		c0.3-0.1,0.6-0.1,0.9-0.2c0.3-0.1,0.6-0.1,0.9-0.2c0.2-0.1,0.5-0.1,0.7-0.2c0.3-0.1,0.5-0.1,0.8-0.2c0.3-0.1,0.6-0.1,0.8-0.2
		c0,0,0.1,0.1,0.1,0.1c-0.1,0-0.2,0-0.3,0.1c-0.3,0.1-0.6,0.1-0.9,0.2c-0.1,0-0.1,0-0.2,0c0,0,0,0,0,0c0,0,0,0,0,0
		c-0.2,0.1-0.5,0.1-0.7,0.2c0,0-0.1,0-0.1,0c-0.1,0-0.1,0-0.2,0c0,0,0,0,0,0c0,0.1,0,0.1,0,0.1c0,0.1,0,0.2,0,0.3
		c0,0.2-0.1,0.4-0.2,0.6c-0.1,0.2-0.2,0.4-0.4,0.5c-0.2,0.2-0.5,0.3-0.8,0.4c-0.2,0-0.3,0.1-0.5,0.1c-0.1,0-0.1,0-0.2,0
		c-0.1,0-0.2,0-0.3,0c-0.2,0-0.4-0.1-0.6-0.2c-0.2-0.1-0.4-0.3-0.5-0.5c-0.2-0.2-0.3-0.4-0.3-0.6c-0.1-0.2-0.1-0.4-0.1-0.6
		c0-0.1,0-0.2,0-0.3c0-0.1,0-0.2,0.1-0.3c0.1-0.2,0.2-0.4,0.3-0.5c0.1-0.1,0.2-0.3,0.4-0.4c0.1-0.1,0.3-0.2,0.4-0.3
		c0.2-0.1,0.4-0.1,0.6-0.2c0.2,0,0.3,0,0.5,0c0.2,0,0.4,0.1,0.6,0.2c0.2,0.1,0.4,0.3,0.6,0.4c0.1,0.1,0.2,0.2,0.3,0.4
		c0,0,0,0.1,0,0.1c0,0,0.1,0,0.1,0c0,0,0.1,0,0.1,0c0,0,0,0,0.1,0c0.1,0,0.2-0.1,0.4-0.1c0.2,0,0.3-0.1,0.5-0.1c0,0,0,0,0,0
		c0,0,0,0,0.1,0c0.5-0.1,1-0.3,1.5-0.4c0,0,0,0,0,0c0-0.1,0-0.3,0-0.4c0-0.1,0-0.1,0-0.1c-0.4-0.2-0.9-0.4-1.3-0.6c0,0,0,0,0,0
		c0,0,0-0.1,0-0.1c0,0,0,0,0-0.1c0,0,0,0,0.1,0c0.1,0,0.1,0.1,0.2,0.1c0.2,0.1,0.4,0.2,0.6,0.3c0.2,0.1,0.5,0.2,0.7,0.3
		c0.2,0.1,0.4,0.1,0.6,0.1c0.3-0.1,0.6-0.2,1-0.2c0.1,0,0.2,0,0.3,0c0.1,0,0.1,0.1,0.2,0.1c0.2,0.1,0.4,0.2,0.6,0.4
		c0.2,0.1,0.4,0.3,0.6,0.4c0.2,0.1,0.4,0.2,0.6,0.3c0.1,0.1,0.3,0.2,0.4,0.3c0.1,0.1,0.3,0.1,0.4,0.1c0,0,0.1,0,0.1-0.1c0,0,0,0,0,0
		c0-0.1,0-0.3,0-0.4c0-0.1,0-0.1-0.1-0.1c-0.1,0-0.1,0-0.2-0.1c-0.1-0.1-0.2-0.1-0.3-0.2c-0.2-0.1-0.4-0.3-0.6-0.4
		c-0.2-0.1-0.4-0.2-0.6-0.4c-0.2-0.1-0.5-0.3-0.7-0.4c-0.1-0.1-0.3-0.2-0.5-0.2c-0.1,0-0.2,0-0.3,0c-0.1,0-0.2,0-0.2,0.1
		c-0.2,0.1-0.5,0.1-0.7,0.2c-0.1,0-0.1,0-0.2,0c-0.1,0-0.2,0-0.3,0c-0.1,0-0.2-0.1-0.3-0.1c0,0-0.1,0-0.1,0c0,0,0,0,0,0
		c0.1,0,0.1,0,0.2,0c0,0,0,0,0.1,0c0.1-0.1,0.1-0.3,0.2-0.4c0.1-0.3,0.2-0.5,0.4-0.7c0.1-0.1,0.2-0.2,0.2-0.3
		c0.2-0.2,0.4-0.4,0.6-0.5c0.3-0.2,0.6-0.3,0.9-0.3c0.1,0,0.2,0,0.3-0.1c0,0,0,0,0,0c-0.3,0.2-0.7,0.5-1,0.7
		c-0.1,0.1-0.3,0.2-0.4,0.3c-0.1,0-0.1,0.1-0.2,0.2c-0.1,0.2-0.2,0.3-0.3,0.4c-0.2,0.3-0.4,0.6-0.6,0.9c0,0,0,0,0,0
		c0.1,0,0.1,0,0.2,0c0.2,0,0.4-0.1,0.6-0.1c0,0,0,0,0.1,0c0.1-0.1,0.1-0.2,0.2-0.3c0.1-0.2,0.2-0.4,0.4-0.5c0,0,0,0,0,0
		c0.2-0.2,0.5-0.3,0.7-0.5c0.3-0.2,0.6-0.4,0.9-0.6C20.1,18,20.3,17.9,20.5,17.7C20.5,17.8,20.5,17.8,20.5,17.7z M10.9,22.2
		c0,0.1,0.1,0.1,0.1,0.2c0,0,0,0,0.1-0.1C11,22.3,10.9,22.2,10.9,22.2C10.9,22.2,10.8,22.2,10.9,22.2C10.8,22.2,10.8,22.2,10.9,22.2
		C10.8,22.2,10.8,22.2,10.9,22.2z M11.2,21.9C11.2,21.9,11.2,21.9,11.2,21.9C11.2,21.9,11.2,21.9,11.2,21.9c0,0.1,0,0.1,0.1,0.2
		c0,0,0.1,0,0.1,0C11.3,22,11.3,21.9,11.2,21.9z M19.5,20.6C19.5,20.6,19.6,20.6,19.5,20.6c0.1,0.1,0.1,0.1,0.1,0
		c0-0.1,0-0.1,0.1-0.2c0.1-0.2,0.2-0.5,0.3-0.7c0-0.1,0-0.2,0-0.2c0-0.1,0-0.1,0-0.2c-0.1-0.2-0.2-0.3-0.4-0.3c-0.1,0-0.1,0-0.2,0
		c-0.1,0-0.1,0-0.2,0c-0.1,0-0.1,0-0.2,0c-0.1,0-0.1,0-0.2,0c-0.1,0-0.1,0-0.1,0.1c-0.1,0-0.1,0.1-0.2,0.1c0,0,0,0,0,0
		c-0.1,0-0.1,0.1-0.2,0.1c-0.1,0.2-0.3,0.4-0.4,0.7c0,0,0,0,0,0c0,0,0.1,0,0.1,0c0.1,0,0.1,0,0.2,0c0.3,0,0.5,0,0.7,0.2
		C19,20.3,19.2,20.5,19.5,20.6C19.5,20.6,19.5,20.6,19.5,20.6z M11.5,21.7c0-0.1,0-0.2,0-0.3c0,0,0-0.1,0-0.1c0,0,0,0-0.1,0
		c-0.1,0-0.2,0.1-0.3,0.1c0,0-0.1,0-0.1,0c0,0,0,0.1,0,0.1c0,0,0,0,0,0c0.1,0.1,0.1,0.1,0.2,0.2c0.1,0.1,0.1,0.2,0.2,0.2
		c0,0,0,0,0.1,0c0,0,0,0,0,0C11.5,21.8,11.5,21.8,11.5,21.7z M12.3,21.3C12.3,21.3,12.3,21.3,12.3,21.3c0,0.1,0,0.1,0,0.1
		c0,0.1,0,0.3,0,0.4c0,0.1,0,0.1,0,0.2c0,0,0,0,0,0c0,0,0,0,0.1,0c0.1-0.1,0.2-0.3,0.4-0.4c0,0,0,0,0-0.1c0,0,0,0,0-0.1
		C12.6,21.4,12.5,21.3,12.3,21.3C12.3,21.3,12.3,21.3,12.3,21.3z M11.9,21.2c-0.1,0-0.1,0-0.2,0c0,0,0,0,0,0c0,0,0,0.1,0,0.1
		c0,0.1,0.1,0.2,0.1,0.3c0,0.1,0.1,0.2,0.1,0.3c0,0,0,0,0,0c0,0,0,0,0,0c0.1-0.2,0.1-0.3,0.2-0.5c0,0,0-0.1,0-0.1
		c0-0.1,0-0.1-0.1-0.1C12,21.2,12,21.2,11.9,21.2z M10.9,22.5C10.9,22.5,10.9,22.4,10.9,22.5c-0.1-0.2-0.3-0.3-0.4-0.5
		c0,0-0.1,0-0.1-0.1c0,0,0,0,0,0c-0.1,0.1-0.2,0.2-0.2,0.4c0,0,0,0,0,0c0,0,0.1,0,0.1,0C10.5,22.5,10.7,22.5,10.9,22.5
		C10.9,22.5,10.9,22.5,10.9,22.5z M10.1,22.9C10.1,23,10.1,23,10.1,22.9c0.1,0.1,0.1,0.1,0.1,0.1c0.1,0,0.2,0,0.3-0.1
		c0.1,0,0.2,0,0.3,0c0,0,0,0,0,0c0,0,0,0,0,0c-0.2-0.1-0.3-0.2-0.5-0.3c0,0-0.1,0-0.1,0c0,0,0,0,0,0C10.1,22.7,10.1,22.8,10.1,22.9z
		 M10.5,21.8C10.6,21.9,10.6,21.9,10.5,21.8c0.2,0.2,0.4,0.3,0.6,0.4c0,0,0,0,0.1,0c0,0,0,0,0,0C11.1,22,11,21.8,11,21.6
		c0,0,0-0.1-0.1-0.1c0,0,0,0,0,0c0,0-0.1,0.1-0.1,0.1C10.7,21.7,10.6,21.7,10.5,21.8z M10.1,23.1C10.1,23.1,10.1,23.1,10.1,23.1
		C10.1,23.1,10.1,23.1,10.1,23.1c-0.1,0.2-0.1,0.3,0,0.4c0,0,0,0.1,0,0.1c0,0,0.1,0,0.1,0c0,0,0,0,0,0c0.2-0.1,0.3-0.2,0.5-0.3
		c0,0,0,0,0,0c0,0,0,0,0-0.1c0,0,0,0,0,0c-0.1,0-0.2,0-0.4-0.1C10.3,23.2,10.2,23.1,10.1,23.1z M11.5,24.5c0-0.1,0-0.2,0-0.3
		c0,0,0,0,0,0c0,0,0,0,0,0c0,0,0,0,0,0c-0.1,0.1-0.2,0.3-0.4,0.4c0,0,0,0,0,0.1c0,0,0,0,0,0.1c0.1,0.1,0.3,0.1,0.4,0.1
		c0,0,0,0,0.1,0c0,0,0,0,0-0.1C11.5,24.6,11.5,24.6,11.5,24.5z M10.9,23.6C10.9,23.6,10.9,23.6,10.9,23.6c-0.2,0-0.4,0.1-0.6,0.1
		c0,0,0,0-0.1,0c0,0,0,0,0,0.1c0.1,0.1,0.1,0.2,0.2,0.3c0,0,0,0.1,0,0.1c0,0,0.1,0,0.1,0c0,0,0,0,0,0c0.1-0.1,0.1-0.2,0.2-0.3
		C10.8,23.8,10.9,23.7,10.9,23.6C10.9,23.7,10.9,23.6,10.9,23.6C10.9,23.6,10.9,23.6,10.9,23.6z M13.2,21.8
		C13.2,21.8,13.2,21.8,13.2,21.8c-0.1-0.1-0.2-0.2-0.3-0.3c0,0,0,0-0.1,0c0,0,0,0-0.1,0.1c0,0,0,0,0,0c0,0.1-0.1,0.2-0.1,0.2
		c0,0.1-0.1,0.2-0.1,0.3c0,0,0,0,0,0.1c0,0,0,0,0.1,0C12.8,22.1,13,22,13.2,21.8C13.2,21.9,13.2,21.9,13.2,21.8
		C13.2,21.8,13.2,21.8,13.2,21.8z M10.9,24.6c0,0,0.1-0.1,0.1-0.1c0-0.1,0-0.1,0.1-0.2c0-0.1,0.1-0.2,0.1-0.4c0,0,0,0,0,0
		c0,0,0,0,0,0c0,0,0,0,0,0c-0.2,0.1-0.3,0.2-0.5,0.3c0,0-0.1,0-0.1,0.1c0,0,0,0,0,0C10.7,24.4,10.8,24.5,10.9,24.6z M12.3,24.5
		c0,0.1,0,0.2,0,0.3c0,0,0,0.1,0,0.1c0,0,0,0,0,0c0.1,0,0.3-0.1,0.4-0.1c0.1,0,0.1,0,0-0.1c0,0,0,0,0,0c-0.1-0.1-0.3-0.3-0.4-0.4
		c0,0,0,0,0,0c0,0,0,0,0,0C12.3,24.3,12.3,24.4,12.3,24.5z M11.9,24.9c0.1,0,0.1,0,0.2,0c0.1,0,0.1,0,0.1-0.1c0,0,0,0,0,0
		c-0.1-0.2-0.1-0.3-0.2-0.5c0,0,0,0,0,0c0,0,0,0-0.1,0c0,0,0,0,0,0c-0.1,0.2-0.1,0.3-0.2,0.5c0,0,0,0,0,0.1c0,0,0,0,0,0
		C11.8,24.9,11.8,24.9,11.9,24.9z M13.7,23.2C13.7,23.2,13.7,23.1,13.7,23.2c-0.1,0-0.1,0-0.1,0c0,0-0.1,0-0.1,0
		c-0.1,0-0.3,0.1-0.4,0.1c0,0,0,0,0,0c0,0,0,0,0,0.1c0.2,0.1,0.3,0.2,0.5,0.3c0,0,0,0,0.1,0c0,0,0,0,0.1,0
		C13.7,23.4,13.7,23.3,13.7,23.2z M12.9,23.6C12.9,23.6,12.9,23.6,12.9,23.6C12.9,23.7,12.9,23.7,12.9,23.6c0.1,0.2,0.2,0.4,0.3,0.5
		c0,0,0,0,0.1,0c0,0,0,0,0.1,0c0.1-0.1,0.1-0.2,0.2-0.3c0-0.1,0-0.1,0-0.1c0,0,0,0,0,0c-0.1,0-0.1,0-0.2,0
		C13.2,23.7,13,23.6,12.9,23.6z M12.9,24.6C12.9,24.6,12.9,24.6,12.9,24.6C12.9,24.6,12.9,24.6,12.9,24.6c0.2-0.1,0.2-0.2,0.3-0.3
		c0,0,0,0,0-0.1c0,0,0,0-0.1-0.1c-0.2-0.1-0.3-0.2-0.5-0.3c0,0,0,0-0.1,0c0,0,0,0,0,0.1C12.7,24.2,12.7,24.3,12.9,24.6
		C12.8,24.5,12.8,24.6,12.9,24.6C12.9,24.6,12.9,24.6,12.9,24.6z M12.9,22.4C12.9,22.4,12.9,22.4,12.9,22.4c0.2,0,0.4-0.1,0.6-0.2
		c-0.1-0.1-0.1-0.2-0.2-0.3c0,0,0,0,0,0c0,0-0.1,0-0.1,0.1c-0.1,0.1-0.1,0.1-0.2,0.2C13,22.3,13,22.4,12.9,22.4z M11.8,22.3
		c0-0.1,0.1-0.2,0-0.3c0,0,0,0,0,0c0,0,0,0,0,0c0,0-0.1,0-0.1,0c0,0,0,0,0,0c0,0,0,0.1,0,0.1C11.7,22.3,11.7,22.3,11.8,22.3z
		 M11.5,22.4c0-0.1,0-0.1,0-0.2c0,0,0,0,0,0c0,0,0-0.1-0.1-0.1c0,0-0.1,0-0.1,0c0,0,0,0,0,0c0,0,0,0.1,0.1,0.1
		C11.4,22.4,11.5,22.4,11.5,22.4z M11.3,22.6C11.3,22.6,11.3,22.6,11.3,22.6c0-0.1,0-0.1,0-0.1c0-0.1-0.1-0.1-0.1-0.1
		c0,0-0.1,0-0.1,0.1c0,0,0,0,0,0c0,0,0,0,0,0c0,0,0,0.1,0.1,0.1C11.2,22.6,11.2,22.6,11.3,22.6z M11.8,23.8c0,0-0.1,0.1-0.1,0.1
		c0,0,0,0.1,0,0.1c0,0,0.1,0.1,0.1,0c0,0,0-0.1,0-0.1C11.8,23.9,11.8,23.8,11.8,23.8z M11.2,22.8c0,0-0.1-0.1-0.1-0.1
		c0,0-0.1,0-0.1,0c0,0,0,0,0,0.1c0,0,0,0,0,0c0,0,0,0,0,0.1c0,0,0,0,0.1,0C11.1,22.8,11.1,22.8,11.2,22.8z M11.2,23.3
		c0,0-0.1,0-0.1,0c-0.1,0-0.1,0-0.1,0c0,0,0,0.1,0,0.1c0,0,0.1,0,0.1,0C11.1,23.4,11.2,23.4,11.2,23.3z M11.1,23.1
		c0,0-0.1-0.1-0.1-0.1c0,0-0.1,0-0.1,0c0,0,0,0,0,0.1c0,0,0,0,0,0c0,0,0,0,0,0c0,0,0.1,0,0.1,0C11.1,23.1,11.1,23.1,11.1,23.1z
		 M11.3,23.6C11.3,23.5,11.3,23.5,11.3,23.6c-0.1,0-0.1,0-0.2,0c0,0,0,0.1-0.1,0.1c0,0,0,0,0,0c0,0,0,0,0.1,0.1c0,0,0,0,0,0
		C11.3,23.7,11.3,23.6,11.3,23.6z M11.5,23.7c0,0-0.1,0-0.1,0.1c0,0-0.1,0-0.1,0.1c0,0,0,0,0,0.1c0,0,0.1,0.1,0.1,0.1c0,0,0,0,0,0
		c0,0,0.1-0.1,0.1-0.1C11.5,23.8,11.5,23.8,11.5,23.7z M12.1,24.4C12.1,24.4,12.1,24.4,12.1,24.4c0-0.1,0-0.1,0-0.2
		c0-0.1,0-0.1-0.1,0c0,0,0,0,0,0c0,0,0,0,0,0C12.1,24.3,12.1,24.3,12.1,24.4z M11.7,24.2c0,0.1,0,0.2,0,0.2c0,0,0,0,0,0
		C11.7,24.3,11.7,24.3,11.7,24.2C11.7,24.2,11.7,24.2,11.7,24.2z M11.3,24c0,0.1-0.1,0.2-0.1,0.2c0,0,0,0,0,0
		C11.3,24.2,11.3,24.1,11.3,24C11.3,24,11.3,24,11.3,24z M10.8,23.4c-0.1,0-0.1,0.1-0.2,0.1c0,0,0,0,0,0
		C10.7,23.5,10.8,23.5,10.8,23.4C10.8,23.5,10.8,23.4,10.8,23.4z M10.8,22.6c-0.1,0-0.2,0-0.2,0c0,0,0,0,0,0
		C10.7,22.6,10.7,22.7,10.8,22.6C10.8,22.7,10.8,22.7,10.8,22.6z M10.8,23.9C10.8,23.9,10.8,23.9,10.8,23.9c0.1,0,0.1-0.1,0.2-0.1
		c0,0,0,0-0.1-0.1C10.9,23.8,10.9,23.9,10.8,23.9z M10.8,23.1C10.8,23.1,10.8,23,10.8,23.1c-0.1-0.1-0.2-0.1-0.2-0.1c0,0,0,0,0,0
		C10.6,23.1,10.7,23.1,10.8,23.1z M12.6,24.3C12.6,24.3,12.6,24.3,12.6,24.3c0-0.1,0-0.1,0-0.2c0-0.1,0-0.1-0.1,0c0,0,0,0,0,0
		C12.5,24.1,12.5,24.2,12.6,24.3z M12.1,21.7C12.1,21.7,12.1,21.7,12.1,21.7c0,0.1-0.1,0.1-0.1,0.2c0,0,0.1,0,0.1,0
		C12.1,21.9,12.1,21.8,12.1,21.7z M12.9,24C12.9,23.9,12.9,23.9,12.9,24c0-0.1-0.1-0.1-0.1-0.2c0,0,0,0-0.1,0.1
		C12.8,23.9,12.9,23.9,12.9,24z M11.7,21.9c0-0.1-0.1-0.1-0.1-0.2c0,0,0,0,0,0C11.6,21.8,11.6,21.9,11.7,21.9
		C11.7,21.9,11.7,21.9,11.7,21.9z M13.2,23.5c-0.1,0-0.1-0.1-0.2-0.1c0,0,0,0,0,0.1C13,23.5,13.1,23.5,13.2,23.5z M12.5,22.1
		c0-0.1,0.1-0.1,0.1-0.2C12.5,21.9,12.5,22,12.5,22.1C12.5,22.1,12.5,22.1,12.5,22.1z M12.9,22.2C12.9,22.2,12.9,22.2,12.9,22.2
		c-0.1,0-0.1,0.1-0.2,0.1c0,0,0,0,0.1,0.1C12.9,22.3,12.9,22.2,12.9,22.2z M11.3,23.4C11.3,23.4,11.3,23.4,11.3,23.4
		c0.1,0,0.1,0,0.1-0.1C11.4,23.4,11.4,23.4,11.3,23.4C11.4,23.3,11.4,23.3,11.3,23.4C11.3,23.4,11.3,23.4,11.3,23.4z M11.7,23.7
		C11.7,23.7,11.7,23.7,11.7,23.7C11.7,23.7,11.7,23.6,11.7,23.7c0-0.1,0-0.1,0-0.1C11.7,23.6,11.6,23.6,11.7,23.7
		C11.6,23.7,11.6,23.7,11.7,23.7z M11.6,22.4C11.6,22.4,11.6,22.5,11.6,22.4c0,0.1,0,0.1,0,0.1C11.7,22.5,11.7,22.5,11.6,22.4
		C11.7,22.5,11.7,22.5,11.6,22.4C11.7,22.4,11.7,22.4,11.6,22.4z M11.3,22.7C11.3,22.7,11.3,22.8,11.3,22.7
		C11.4,22.8,11.4,22.8,11.3,22.7C11.4,22.8,11.4,22.8,11.3,22.7C11.4,22.7,11.4,22.7,11.3,22.7C11.3,22.7,11.3,22.7,11.3,22.7z
		 M11.4,23.6C11.5,23.6,11.5,23.6,11.4,23.6C11.5,23.6,11.5,23.5,11.4,23.6C11.5,23.5,11.5,23.5,11.4,23.6
		C11.5,23.5,11.5,23.5,11.4,23.6C11.5,23.5,11.4,23.6,11.4,23.6z M11.5,22.6C11.5,22.6,11.5,22.6,11.5,22.6
		C11.5,22.6,11.5,22.6,11.5,22.6z M11.2,22.9C11.2,23,11.2,23,11.2,22.9c0.1,0.1,0.1,0,0.1,0C11.3,23,11.3,22.9,11.2,22.9
		C11.3,22.9,11.3,22.9,11.2,22.9C11.2,22.9,11.2,22.9,11.2,22.9z M11.2,23.2C11.2,23.2,11.3,23.2,11.2,23.2c0.1,0,0.1,0,0.1,0
		c0,0,0,0,0,0C11.3,23.1,11.3,23.1,11.2,23.2C11.2,23.2,11.2,23.2,11.2,23.2z"/>
	<path class="st0" d="M14.8,21.9C14.8,21.9,14.8,21.9,14.8,21.9c-0.2,0.1-0.4,0.1-0.6,0.2c-0.1,0-0.2,0.1-0.4,0.1c0,0,0,0-0.1,0
		c0,0,0,0,0,0c-0.2-0.3-0.4-0.6-0.6-0.8c-0.2-0.1-0.4-0.3-0.7-0.3c-0.2-0.1-0.4-0.1-0.6-0.1c-0.1,0-0.1,0-0.2,0
		c-0.1,0-0.2,0-0.4,0.1c-0.2,0.1-0.4,0.1-0.6,0.3c-0.2,0.1-0.3,0.2-0.5,0.4c-0.2,0.2-0.3,0.4-0.4,0.6c-0.1,0.2-0.2,0.5-0.2,0.7
		c0,0.1,0,0.3,0,0.4c0,0.2,0.1,0.4,0.2,0.6c0.1,0.3,0.3,0.5,0.6,0.7c0.2,0.2,0.4,0.3,0.7,0.4c0.2,0.1,0.3,0.1,0.5,0.1
		c0.2,0,0.4,0,0.6,0c0.2,0,0.3-0.1,0.5-0.1c0.2-0.1,0.4-0.2,0.6-0.4c0.2-0.2,0.4-0.4,0.5-0.7c0.1-0.2,0.2-0.5,0.2-0.8
		c0-0.1,0-0.1,0-0.2c0,0,0.1,0,0.1,0c0.2-0.1,0.5-0.1,0.7-0.2c0,0,0,0,0,0c0,0,0,0.1,0,0.1c0,0,0.1,0,0.1,0c0,0,0,0,0,0
		c0,0.1,0,0.2,0,0.3c0,0,0,0,0,0c0,0-0.1,0-0.1,0c0,0,0,0.1,0,0.1c0,0,0,0,0,0c0,0,0.1,0,0.1,0c0,0,0,0,0,0c0,0.1,0,0.2-0.1,0.3
		c0,0,0,0,0,0c0,0-0.1,0-0.1,0c0,0,0,0,0,0c0,0,0,0,0,0c0,0.1,0,0.1,0.1,0.1c0,0,0,0,0.1,0c0,0,0,0,0,0c0,0.1-0.1,0.2-0.1,0.3
		c0,0,0,0,0,0c0,0-0.1,0-0.1,0c0,0,0,0,0,0c0,0,0,0.1,0,0.1c0,0,0,0,0,0c0,0,0.1,0,0.1,0.1c0,0,0,0,0,0c-0.1,0.1-0.1,0.2-0.2,0.3
		c-0.1,0-0.1-0.1-0.2-0.1c0,0-0.1,0.1-0.1,0.1c0,0,0.1,0.1,0.1,0.1c0,0,0,0,0,0c-0.1,0.1-0.1,0.2-0.2,0.3c0,0-0.1-0.1-0.1-0.1
		c0,0,0,0,0,0c0,0-0.1,0.1-0.1,0.1c0,0,0,0.1,0.1,0.1c0,0,0,0,0,0c-0.1,0-0.1,0.1-0.2,0.1c0,0-0.1,0.1-0.1,0.1c0,0,0,0,0,0
		c0,0-0.1-0.1-0.1-0.1c0,0,0,0,0,0c0,0,0,0-0.1,0.1c0,0,0,0,0,0c0,0,0,0.1,0.1,0.1c0,0,0,0,0,0c-0.1,0.1-0.2,0.1-0.3,0.2
		c0,0,0,0,0,0c0,0,0-0.1-0.1-0.1c0,0,0,0,0,0c0,0-0.1,0-0.1,0c0,0,0,0,0,0c0,0,0,0.1,0,0.1c0,0,0,0,0,0c-0.1,0-0.2,0.1-0.3,0.1
		c0,0,0,0,0,0c0,0,0-0.1,0-0.1c0,0,0,0,0,0c0,0-0.1,0-0.1,0c0,0,0,0.1,0,0.1c0,0.1,0,0.1-0.1,0.1c-0.1,0-0.2,0-0.3,0c0,0,0,0,0,0
		c0,0,0-0.1,0-0.1c0,0,0,0,0,0c0,0,0,0-0.1,0c0,0,0,0,0,0c0,0.1,0,0.1,0,0.2c-0.1,0-0.2,0-0.4,0c0,0,0-0.1,0-0.1c0,0,0,0,0,0
		c0,0,0,0,0,0c-0.1,0-0.1,0-0.1,0.1c0,0,0,0.1,0,0.1c0,0-0.1,0-0.1,0c-0.1,0-0.2,0-0.2,0c0,0,0,0,0,0c0,0,0-0.1,0-0.1c0,0,0,0,0,0
		c0,0-0.1,0-0.1,0c0,0,0,0.1,0,0.1c0,0.1,0,0.1-0.1,0c-0.1,0-0.2-0.1-0.3-0.1c0,0,0,0,0,0c0,0,0-0.1,0-0.1c0,0,0,0,0,0
		c0,0-0.1,0-0.1,0c0,0,0,0,0,0c0,0,0,0.1-0.1,0.1c0,0,0,0,0,0c-0.1-0.1-0.2-0.1-0.3-0.2c0,0,0,0,0,0c0,0,0-0.1,0.1-0.1c0,0,0,0,0,0
		c0,0-0.1-0.1-0.1-0.1c0,0,0,0-0.1,0.1c0,0,0,0,0,0c0,0,0,0-0.1,0c-0.1-0.1-0.1-0.1-0.2-0.2c0,0,0,0,0,0c0,0,0.1-0.1,0.1-0.1
		c0,0-0.1-0.1-0.1-0.1c0,0-0.1,0.1-0.1,0.1c0,0,0,0,0,0C9.5,25.1,9.4,25,9.4,25c0,0,0,0,0,0c0,0,0.1-0.1,0.1-0.1
		c0,0-0.1-0.1-0.1-0.1c0,0-0.1,0-0.1,0.1c0,0,0,0,0,0c-0.1-0.1-0.1-0.2-0.2-0.3c0,0,0.1-0.1,0.1-0.1c0,0,0,0,0,0c0,0,0-0.1,0-0.1
		c0,0-0.1,0-0.1,0c-0.1,0-0.1,0-0.1,0c0-0.1-0.1-0.2-0.1-0.2c0-0.1,0-0.1,0-0.1c0,0,0.1,0,0.1,0c0,0,0,0,0,0c0,0,0-0.1,0-0.1
		c0,0-0.1,0-0.1,0c0,0,0,0,0,0c0,0,0,0,0,0c0-0.1,0-0.2-0.1-0.3c0,0,0,0,0,0c0,0,0.1,0,0.1,0c0,0,0,0,0,0c0,0,0-0.1,0-0.1
		c0,0-0.1,0-0.1,0c-0.1,0-0.1,0-0.1-0.1c0-0.1,0-0.2,0-0.3c0,0,0,0,0,0c0,0,0.1,0,0.1,0c0,0,0,0,0,0c0,0,0-0.1,0-0.1c0,0,0,0,0,0
		c0,0-0.1,0-0.1,0c0,0,0,0,0,0c0-0.1,0-0.2,0.1-0.3c0,0,0,0,0,0c0,0,0.1,0,0.1,0c0,0,0,0,0.1,0c0,0,0,0,0-0.1c0,0,0,0,0,0
		c0,0-0.1,0-0.1,0c0,0,0,0,0,0C8.9,22,9,21.9,9,21.8c0,0,0,0,0,0c0,0,0.1,0,0.1,0c0,0,0,0,0,0c0,0,0-0.1,0-0.1c0,0-0.1,0-0.1-0.1
		c-0.1,0-0.1,0,0-0.1c0-0.1,0.1-0.2,0.1-0.2c0,0,0,0,0,0c0,0,0.1,0,0.1,0.1c0,0,0.1-0.1,0.1-0.1c0,0-0.1-0.1-0.1-0.1
		c0.1-0.1,0.2-0.2,0.2-0.3c0,0,0.1,0.1,0.1,0.1c0,0,0.1-0.1,0.1-0.1c0,0,0,0,0,0c0,0-0.1-0.1-0.1-0.1c0,0,0,0,0,0
		c0.1-0.1,0.2-0.1,0.3-0.2c0,0,0.1,0.1,0.1,0.1c0,0,0,0,0,0c0,0,0.1,0,0.1-0.1c0,0,0-0.1,0-0.1c0,0,0,0,0-0.1c0,0,0.3-0.2,0.3-0.2
		c0,0,0,0.1,0.1,0.1c0,0,0,0,0,0c0,0,0.1,0,0.1-0.1c0,0,0-0.1,0-0.1c0-0.1,0-0.1,0-0.1c0.1,0,0.2-0.1,0.3-0.1c0,0,0,0.1,0.1,0.1
		c0,0,0,0,0,0c0,0,0.1,0,0.1,0c0,0,0-0.1,0-0.1c0-0.1,0-0.1,0.1-0.1c0.1,0,0.2,0,0.3,0c0,0,0,0,0,0c0,0,0,0.1,0,0.1c0,0,0,0,0,0
		c0,0,0.1,0,0.1,0c0,0,0-0.1,0-0.1c0-0.1,0-0.1,0.1-0.1c0.1,0,0.2,0,0.3,0c0,0,0,0,0,0c0,0,0,0.1,0,0.1c0,0,0,0,0,0c0,0,0.1,0,0.1,0
		c0,0,0,0,0,0c0,0,0-0.1,0-0.1c0.1,0,0.1,0,0.2,0c0,0,0.1,0,0.1,0c0,0,0,0,0,0.1c0,0,0,0.1,0,0.1c0,0,0,0,0,0c0,0,0.1,0,0.1,0
		c0,0,0,0,0,0c0,0,0-0.1,0-0.1c0,0,0,0,0,0c0.1,0,0.2,0.1,0.3,0.1c0,0,0,0.1,0,0.1c0,0,0,0,0,0c0,0,0.1,0,0.1,0c0,0,0-0.1,0.1-0.1
		c0,0,0,0,0-0.1c0.1,0,0.1,0.1,0.2,0.1c0.1,0,0.1,0.1,0.2,0.1c0,0,0,0.1-0.1,0.1c0,0,0,0,0,0c0,0,0.1,0.1,0.1,0.1c0,0,0,0,0.1-0.1
		c0.1-0.1,0-0.1,0.1,0c0.1,0.1,0.2,0.1,0.2,0.2c0,0-0.1,0.1-0.1,0.1c0,0,0,0,0,0c0,0,0,0.1,0.1,0.1c0.1,0,0.1-0.1,0.1-0.1
		c0.1,0.1,0.2,0.2,0.2,0.3c0,0-0.1,0.1-0.1,0.1c0,0,0,0,0,0c0,0,0.1,0.1,0.1,0.1c0,0,0.1,0,0.1-0.1c0,0,0,0,0.1,0
		c0,0.1,0.1,0.2,0.1,0.3c0,0,0,0,0,0c0,0-0.1,0-0.1,0.1c0,0,0,0,0,0c0,0,0,0.1,0,0.1c0,0,0,0,0,0C14.7,21.9,14.7,21.8,14.8,21.9
		C14.8,21.8,14.8,21.8,14.8,21.9C14.8,21.9,14.8,21.9,14.8,21.9z M10.2,24.6c0-0.1-0.1-0.1-0.1-0.2c-0.2-0.3-0.4-0.6-0.5-1
		c0-0.1,0-0.2-0.1-0.3c0,0.1,0,0.1,0,0.2c0,0.1,0,0.2,0,0.3c0,0.2,0.1,0.3,0.1,0.5c0.1,0.2,0.2,0.4,0.3,0.5c0.1,0.1,0.2,0.2,0.3,0.3
		c0,0,0.1,0.1,0.1,0.1c0.1,0.1,0.3,0.2,0.4,0.3c0.1,0,0.2,0.1,0.3,0.1c0,0,0,0,0.1,0c0,0,0,0,0-0.1c0,0,0-0.1-0.1-0.1
		c-0.1,0-0.2-0.1-0.3-0.1C10.5,25,10.3,24.8,10.2,24.6C10.2,24.6,10.2,24.6,10.2,24.6z"/>
	<path class="st3" d="M21.1,14.8c0.1,0,0.1,0,0.2,0c0.1,0,0.1-0.1,0.2-0.1c0.1-0.1,0.2-0.1,0.2-0.2c0,0,0,0,0,0
		c0.1,0.1,0.1,0.2,0.2,0.3c0,0,0,0.1,0.1,0.1c0.1,0.1,0.1,0.2,0.1,0.2c0,0,0,0,0,0.1c0,0,0,0.1,0,0.1c0,0.1,0.1,0.1,0.1,0.2
		c0.1,0.2,0.3,0.5,0.4,0.7c0.1,0.2,0.3,0.5,0.4,0.7c0,0,0,0.1,0.1,0.1c0,0.1,0,0.1,0.1,0.1c0,0,0,0.1,0.1,0.1c0,0,0.1,0,0.1,0.1
		c0.1,0.1,0.1,0.2,0.2,0.3c0,0,0,0,0,0.1c0,0.1,0,0.1,0,0.2c0,0,0,0,0,0.1c0,0,0,0.1,0,0.1c0,0,0.1,0.1,0.1,0.1c0.6,0,1.3,0,1.9,0
		c0,0,0,0,0.1,0c0,0,0,0-0.1,0c-0.6,0-1.3,0-1.9,0c0,0,0,0-0.1,0c0,0,0,0,0,0.1c0.3,0.5,0.6,1.1,0.9,1.6c0,0,0,0,0,0.1
		c0,0,0,0,0,0.1c0,0,0,0.1,0,0.1c0,0.1,0,0.2,0,0.3c0,0.1,0,0.3,0,0.4c0,0,0,0.1,0,0.1c0,0,0,0.1,0,0.1c0,0-0.1-0.1-0.1-0.1
		c-0.1-0.1-0.1-0.2-0.2-0.3c0,0,0,0,0,0c0,0,0,0,0,0c-0.4-0.7-0.8-1.4-1.2-2c0,0,0,0,0,0c0,0,0-0.1,0-0.1c0,0,0-0.1-0.1-0.1
		c0,0,0,0-0.1,0c-0.1,0-0.2,0.1-0.2,0.1c0,0,0,0,0,0c0,0,0,0,0,0c0,0,0-0.1,0.1-0.1c0.1-0.2,0.1-0.4,0-0.6c0,0,0-0.1-0.1-0.1
		c0,0,0,0,0,0c-0.1-0.2-0.2-0.4-0.3-0.6c0,0,0,0-0.1,0c-0.1,0.1-0.3,0.2-0.4,0.3c0,0,0,0,0,0c-0.1,0-0.1,0-0.2-0.1c0,0,0,0,0,0
		c0.1,0,0.1-0.1,0.2-0.1c0.1-0.1,0.2-0.2,0.4-0.2c0,0,0,0,0-0.1c-0.1-0.1-0.2-0.3-0.3-0.4c0,0,0,0,0,0c-0.1,0.1-0.2,0.1-0.3,0.2
		c-0.2,0.1-0.4,0.3-0.6,0.4c-0.1,0-0.1,0.1-0.2,0.1c-0.1,0-0.2-0.1-0.3-0.1c-0.3-0.1-0.6-0.2-0.8-0.3c0,0,0.1-0.1,0.1-0.1
		c0.1,0,0.1,0,0.2,0c0,0,0.1,0,0.1,0c0.1,0,0.1,0,0.2,0c0.1,0,0.1,0,0.2,0c0.1,0,0.2,0,0.3,0c0.1,0,0.2,0,0.3,0c0,0,0.1,0,0.1,0
		c0.1,0,0.1,0,0.2,0c0.1,0,0.1,0,0.2-0.1c0.1,0,0.1-0.1,0.2-0.1c0,0,0.1,0,0.1-0.1c0,0,0,0,0,0c0,0,0-0.1-0.1-0.1
		c-0.1-0.1-0.1-0.2-0.2-0.3c0.1,0,0.1,0,0.1-0.1c0,0,0,0,0-0.1c0,0,0-0.1,0-0.1c0-0.1,0-0.2,0-0.3c0,0,0-0.1,0-0.1c0,0,0,0,0,0
		c0,0,0,0,0,0c-0.1,0.1-0.2,0.1-0.3,0.2c0,0,0,0,0,0C21.2,15,21.1,14.9,21.1,14.8z"/>
	<path class="st0" d="M16.4,21.8C16.4,21.8,16.4,21.8,16.4,21.8c0.3,0,0.4-0.1,0.6-0.1c0.1,0,0.1,0,0.2,0c0.1,0,0.1,0,0-0.1
		c0-0.1,0-0.2,0-0.3c0,0,0-0.1,0-0.1c0,0,0,0,0.1-0.1c0.1,0,0.2,0,0.3-0.1c0.2-0.1,0.4-0.1,0.6-0.2c0.1,0,0.1,0,0.2,0
		c0.2,0.1,0.4,0.2,0.6,0.3c0.1,0.1,0.2,0.1,0.3,0.2c0,0,0,0,0,0.1c0,0.2-0.1,0.4-0.2,0.5c-0.1,0.2-0.3,0.3-0.4,0.3
		c-0.1,0-0.2,0.1-0.3,0.1c0,0-0.1,0-0.1,0c-0.2,0-0.5-0.1-0.7-0.2c-0.2-0.1-0.3-0.3-0.4-0.5c0-0.1,0-0.1-0.1,0
		c-0.3,0.1-0.5,0.1-0.8,0.2c0,0-0.1,0,0,0.1c0.1,0.2,0.1,0.3,0.2,0.5c0,0.1,0.1,0.1,0.2,0.2c0.2,0.1,0.3,0.3,0.5,0.3
		c0.1,0,0.2,0.1,0.3,0.1c0,0,0.1,0,0.1,0c0.6,0,1.3,0,1.9,0c0.1,0,0.3,0,0.4-0.1c0.2,0,0.3-0.1,0.4-0.2c0.1-0.1,0.2-0.2,0.3-0.3
		c0,0,0.1-0.1,0.1-0.1c0,0,0,0,0,0c0,0,0.1,0,0.1,0.1c-0.2,0.3-0.5,0.6-0.9,0.7c-0.2,0.1-0.4,0.1-0.6,0.1c-0.6,0-1.2,0-1.7,0
		c-0.4,0-0.8-0.2-1.2-0.5c-0.1-0.1-0.2-0.2-0.3-0.3c0,0,0,0,0,0c0,0,0-0.1-0.1-0.1c0,0,0,0,0,0c-0.1-0.1-0.1-0.2-0.1-0.3
		c0-0.1,0-0.1,0-0.1C16.2,21.8,16.3,21.8,16.4,21.8z"/>
	<path class="st3" d="M12.1,26C12.1,26,12.1,26,12.1,26C12.1,26,12.1,26,12.1,26z"/>
	<path class="st0" d="M20.8,14c0.1,0,0.1,0.1,0.1,0.2c0,0,0,0,0,0c0,0,0,0,0.1,0c0,0,0.1,0,0.2,0c0,0,0.1,0,0.1,0.1
		c0,0.1,0.1,0.1,0.1,0.2c0,0.1,0,0.1-0.1,0.1c-0.1,0-0.1,0.1-0.2,0.1c0,0-0.1,0-0.1,0.1c0,0-0.1,0-0.1,0c-0.1,0.1-0.2,0.2-0.4,0.1
		c0,0-0.1,0-0.1,0c-0.1,0.1-0.2,0.2-0.3,0.2c-0.1,0.1-0.3,0.1-0.4-0.1c-0.1-0.1,0-0.3,0.1-0.4c0.1-0.1,0.3-0.2,0.4-0.3c0,0,0,0,0,0
		C20.2,14,20.5,13.9,20.8,14C20.7,14,20.8,14,20.8,14z"/>
	<path class="st0" d="M21.6,16.1c-0.1,0-0.1,0.1-0.2,0.1c0,0-0.1,0-0.2,0.1c-0.1,0-0.1,0-0.2,0c0,0-0.1,0-0.1,0c-0.1,0-0.2,0-0.3,0
		c-0.1,0-0.2,0-0.3,0c-0.1,0-0.1,0-0.2,0c-0.1,0-0.1,0-0.2,0c0,0-0.1,0-0.1,0c-0.1,0-0.1,0-0.2,0c0,0-0.1,0-0.1,0.1c0,0,0,0-0.1,0
		c-0.1,0-0.1,0-0.2,0c0,0,0,0,0,0c0.1-0.1,0.2-0.1,0.3-0.2c0,0,0,0,0.1,0c0.1,0,0.3,0,0.4,0c0,0,0.1,0,0.1-0.1
		c0.1-0.2,0.2-0.3,0.4-0.3c0.1,0,0.1,0,0.2,0c0.2,0,0.3,0.1,0.4,0.2c0,0,0.1,0,0.1,0C21.4,16.1,21.5,16.1,21.6,16.1
		C21.6,16.1,21.6,16.1,21.6,16.1C21.6,16.1,21.6,16.1,21.6,16.1z"/>
	<path class="st2" d="M21.2,15.1C21.2,15.1,21.3,15.1,21.2,15.1c0.1-0.1,0.2-0.1,0.3-0.2c0,0,0,0,0,0c0,0,0,0,0,0c0,0,0,0.1,0,0.1
		c0,0.1,0,0.2,0,0.3c0,0,0,0.1,0,0.1c0,0,0,0,0,0.1c0,0.1,0,0.1-0.1,0.1c-0.1,0-0.1,0-0.2-0.1c0-0.1-0.1-0.1-0.1-0.2
		C21.2,15.3,21.2,15.2,21.2,15.1C21.2,15.1,21.2,15.1,21.2,15.1z"/>
	<path class="st3" d="M21.6,16.1C21.6,16.1,21.6,16.1,21.6,16.1C21.6,16.1,21.6,16.1,21.6,16.1z"/>
	<path class="st1" d="M24.5,20.9c0,0,0-0.1,0-0.1c0,0,0-0.1,0-0.1c0-0.1,0-0.3,0-0.4c0-0.1,0-0.2,0-0.3c0,0,0-0.1,0-0.1
		c0,0,0-0.1,0-0.1c0.1-0.1,0.2-0.1,0.2,0c0,0,0,0.1,0.1,0.1c0,0,0,0,0,0c0,0.1,0,0.1,0.1,0.1c0.1,0.1,0.1,0.3,0.2,0.4
		c0.1,0.1,0.1,0.3,0.2,0.4c0,0.1,0.1,0.1,0.1,0.2c0,0,0,0,0,0c0.1,0.2,0.2,0.3,0.3,0.5c0,0,0,0.1,0.1,0.1c0,0,0,0.1,0,0.1
		c0,0,0,0.1,0.1,0.1c0,0,0,0,0,0.1c0.1,0.1,0.1,0.2,0.2,0.3c0.1,0.2,0.2,0.4,0.3,0.5c0.1,0.1,0.1,0.3,0.1,0.4c0,0.1,0,0.2-0.1,0.3
		c-0.1,0.1-0.2,0.2-0.4,0.3c-0.1,0-0.3,0-0.4,0c-0.1,0-0.1-0.1-0.2-0.1c0,0,0,0,0,0c0,0-0.1-0.1-0.1-0.1c0,0,0,0,0-0.1c0,0,0,0,0,0
		c-0.1-0.1-0.1-0.2-0.2-0.3c0-0.1-0.1-0.1-0.1-0.2c0-0.1-0.1-0.1-0.1-0.2c0-0.1,0-0.1-0.1-0.1c0,0,0,0,0,0c0-0.1-0.1-0.2-0.1-0.2
		c0,0,0,0,0,0l0,0c0,0,0,0,0,0l0,0c0,0,0,0,0-0.1c-0.1-0.1-0.2-0.3-0.2-0.4c0,0,0,0,0,0c0,0,0-0.1,0-0.1c0,0,0-0.1,0-0.1
		C24.5,21.2,24.5,21,24.5,20.9z M24.8,19.8C24.8,19.8,24.8,19.8,24.8,19.8c0,0.2,0,0.3,0,0.4c0,0.1,0,0.2,0,0.3c0,0.1,0,0.1,0,0.2
		c0,0.1,0,0.2,0,0.3c0,0,0,0,0,0.1c0.1,0.1,0.1,0.2,0.2,0.3c0.2,0.2,0.3,0.5,0.5,0.7c0.1,0.2,0.3,0.5,0.4,0.7
		c0.1,0.1,0.1,0.2,0.2,0.3c0.1,0.1,0.1,0.2,0.2,0.3c0,0,0,0,0.1,0c0.1,0,0.2-0.1,0.2-0.2c0,0,0,0,0-0.1c0-0.1,0-0.2,0-0.3
		c0-0.1-0.1-0.2-0.1-0.2c-0.1-0.2-0.2-0.4-0.3-0.5c-0.1-0.1-0.1-0.3-0.2-0.4c-0.1-0.1-0.1-0.2-0.2-0.3c0-0.1-0.1-0.1-0.1-0.2
		c-0.1-0.1-0.2-0.3-0.2-0.4c-0.1-0.2-0.2-0.3-0.3-0.5C25,20.2,25,20,24.9,19.9C24.8,19.8,24.8,19.8,24.8,19.8z"/>
	<path class="st1" d="M23.2,17.1c0,0-0.1-0.1-0.1-0.1c0.1,0,0.1-0.1,0.2-0.1c0,0,0,0,0,0c0,0,0,0,0,0c0,0,0.1,0,0.1,0l0,0
		c0.1,0,0.1,0,0.2,0c0,0,0,0,0,0c0,0,0,0,0.1,0c0.7,0,1.4,0,2.1,0c0,0,0,0,0.1,0c0.2,0.1,0.3,0.1,0.5,0.2c0.4,0.2,0.7,0.4,1,0.6
		c0.3,0.2,0.6,0.5,0.8,0.8c0,0,0,0.1,0.1,0.1c0,0.1,0,0.2-0.1,0.2c-0.1,0.1-0.2,0.1-0.3,0c-0.1,0-0.2-0.1-0.3-0.2
		c-0.5-0.3-1-0.5-1.6-0.7c-0.1,0-0.2-0.1-0.2-0.1c0,0,0,0-0.1,0c-0.6,0-1.3,0-1.9,0c0,0-0.1,0-0.1-0.1c0,0,0-0.1,0-0.1
		c0.7,0,1.4,0,2.1,0c0,0,0.1,0,0.1,0c0.1,0,0.2,0.1,0.3,0.1c0.4,0.1,0.7,0.3,1.1,0.5c0.2,0.1,0.4,0.2,0.6,0.3c0,0,0,0,0,0
		c0.1,0,0.1,0,0.1,0c0,0,0-0.1,0-0.1c-0.1-0.1-0.2-0.3-0.3-0.4c-0.1-0.2-0.3-0.3-0.5-0.4c-0.3-0.2-0.5-0.4-0.8-0.5
		c-0.2-0.1-0.3-0.2-0.5-0.2c-0.1,0-0.2-0.1-0.3-0.1c-0.7,0-1.3,0-2,0c-0.1,0-0.2,0-0.3,0c0,0,0,0-0.1,0C23.4,17,23.3,17.1,23.2,17.1
		z"/>
	<path class="st2" d="M23.7,16.8c-0.1,0-0.1,0-0.2,0c0,0,0,0,0,0c-0.1-0.1-0.1-0.2-0.2-0.4c-0.3-0.5-0.6-1-0.9-1.5
		c0,0,0-0.1-0.1-0.1c0,0-0.1,0-0.1,0c0,0,0,0,0,0c0,0,0,0,0,0c0,0.1,0.1,0.1,0.1,0.2c0.1,0.2,0.2,0.3,0.3,0.5
		c0.1,0.2,0.2,0.4,0.3,0.5c0.2,0.2,0.3,0.5,0.5,0.7c0,0,0,0.1,0.1,0.1c0,0,0,0,0,0c-0.1,0-0.1,0.1-0.2,0.1c0,0,0-0.1-0.1-0.1
		c-0.1-0.2-0.3-0.5-0.4-0.7c-0.1-0.2-0.3-0.5-0.4-0.7c0-0.1-0.1-0.1-0.1-0.2c0,0,0-0.1,0-0.1c0,0,0,0,0-0.1c0-0.1-0.1-0.2-0.1-0.2
		c0,0,0,0,0,0c0-0.1,0.1-0.2,0.2-0.2c0.1,0,0.1,0,0.2,0c0,0,0,0,0.1,0c0.2,0.3,0.3,0.6,0.5,0.9C23.2,16,23.4,16.4,23.7,16.8
		C23.7,16.8,23.7,16.8,23.7,16.8z"/>
	<path class="st2" d="M25.9,16.8C25.9,16.8,25.9,16.8,25.9,16.8c-0.8,0-1.5,0-2.2,0c0,0,0,0-0.1,0c0,0,0,0,0.1,0
		C24.4,16.8,25.1,16.8,25.9,16.8C25.9,16.8,25.9,16.8,25.9,16.8z"/>
	<path class="st2" d="M16.4,20.2C16.4,20.2,16.4,20.2,16.4,20.2C16.4,20.3,16.4,20.3,16.4,20.2c0.2,0.1,0.2,0.2,0.3,0.2
		c0.1,0,0.2,0.1,0.3,0c0.1,0,0.1,0,0.2,0c0.2-0.1,0.5-0.1,0.7-0.2c0.1,0,0.2,0,0.2-0.1c0.1,0,0.2,0,0.3,0c0.2,0,0.3,0.1,0.5,0.2
		c0.2,0.1,0.5,0.3,0.7,0.4c0.2,0.1,0.4,0.2,0.6,0.4c0.2,0.1,0.4,0.3,0.6,0.4c0.1,0.1,0.2,0.1,0.3,0.2c0.1,0,0.1,0.1,0.2,0.1
		c0.1,0,0.1,0,0.1,0.1c0,0.1,0,0.3,0,0.4c0,0,0,0,0,0c0,0,0,0-0.1,0.1c-0.2,0-0.3,0-0.4-0.1c-0.1-0.1-0.3-0.2-0.4-0.3
		c-0.2-0.1-0.4-0.2-0.6-0.3c-0.2-0.1-0.4-0.3-0.6-0.4c-0.2-0.1-0.4-0.2-0.6-0.4c-0.1,0-0.1-0.1-0.2-0.1c-0.1,0-0.2,0-0.3,0
		c-0.3,0.1-0.6,0.2-1,0.2c-0.2,0.1-0.4,0-0.6-0.1c-0.2-0.1-0.5-0.2-0.7-0.3c-0.2-0.1-0.4-0.2-0.6-0.3c-0.1,0-0.1-0.1-0.2-0.1
		c0,0,0,0-0.1,0c0,0-0.1,0-0.1,0c0,0,0,0,0,0c-0.2,0-0.3-0.1-0.5-0.2c-0.1-0.1-0.2-0.1-0.3-0.2c-0.1-0.1-0.2-0.1-0.4-0.2
		c-0.2-0.1-0.4-0.3-0.6-0.5c-0.1-0.2-0.3-0.4-0.4-0.5c-0.1-0.1-0.1-0.2-0.2-0.2c0,0,0-0.1-0.1-0.1c0,0,0,0,0,0c0,0,0,0,0,0
		c-0.1-0.1-0.2-0.3-0.3-0.4c0,0-0.1-0.1-0.1-0.2c0-0.1,0-0.1,0-0.2c0,0,0,0,0,0c0.1-0.1,0.2-0.1,0.3-0.1c0.1,0,0.1,0,0.2,0
		c0.2,0,0.4,0.1,0.6,0.1c0.1,0,0.3,0.1,0.4,0.1c0.3,0.1,0.6,0.2,0.9,0.3c0.3,0.1,0.5,0.3,0.8,0.5c0.1,0.1,0.2,0.2,0.3,0.3
		c0,0,0,0.1,0.1,0.1c0,0.1,0.1,0.1,0.1,0.1c0.1,0.1,0.2,0.3,0.3,0.4c0.1,0.1,0.1,0.2,0.2,0.3C16.5,19.9,16.5,20.1,16.4,20.2z
		 M15.2,19.4c0-0.1,0-0.2,0-0.2c0-0.2,0-0.3,0-0.5c0,0,0-0.1,0-0.1c-0.1-0.1-0.2-0.2-0.4-0.3c-0.1-0.1-0.2-0.1-0.4-0.2
		c-0.3-0.1-0.5-0.2-0.8-0.3c-0.2,0-0.4-0.1-0.6-0.1c-0.2,0-0.4-0.1-0.6-0.1c0,0,0,0,0,0c-0.1,0-0.1,0.1-0.1,0.2
		c0.2,0.2,0.3,0.5,0.5,0.7c0.1,0.2,0.3,0.4,0.4,0.6c0.2,0.3,0.5,0.5,0.8,0.6c0.1,0,0.2,0.1,0.3,0.1c0.2,0.1,0.5,0.2,0.7,0.2
		c0.1,0,0.1,0,0.1,0c0,0,0,0,0,0C15.2,19.8,15.2,19.6,15.2,19.4z"/>
	<path class="st0" d="M12.5,18.3C12.5,18.3,12.5,18.3,12.5,18.3c0.1,0.1,0.1,0.1,0.1,0.1c0,0,0,0,0,0c-0.1,0-0.2,0-0.3,0.1
		c0,0,0,0,0,0c0,0.1-0.1,0.2-0.1,0.3c0,0,0,0,0,0c0,0.1,0.1,0.2,0.1,0.2c0,0.1,0.1,0.1,0.2,0.2c0.1,0,0.2,0.1,0.4,0.1
		c0.1,0,0.2,0.1,0.3,0.1c0.1,0,0.2,0.1,0.3,0.1c0.1,0,0.2,0.1,0.3,0.1c0.1,0.1,0.3,0.1,0.4,0.2c0.2,0.1,0.3,0.1,0.5,0.2
		c0.1,0,0.2,0.1,0.2,0.1c0,0,0,0,0,0c0,0,0,0,0,0c0,0,0,0,0,0c0,0,0.1,0,0.1,0c0,0,0,0,0,0.1c0,0,0,0,0,0.1c0,0,0,0.1-0.1,0.1
		c0,0-0.1,0-0.1-0.1c-0.9-0.4-1.7-0.7-2.6-1.1c0,0-0.1,0-0.1-0.1C12.1,19.2,12,19,12,18.9c0,0,0,0,0-0.1c0.1-0.1,0.1-0.3,0.2-0.4
		c0,0,0,0,0.1,0C12.3,18.4,12.4,18.4,12.5,18.3z"/>
	<path class="st2" d="M25.6,20.9c0-0.1-0.1-0.1-0.1-0.2c0.1,0,0.2,0,0.3-0.1c0.1,0,0.2,0,0.4,0c0.2,0,0.3,0,0.5,0.1
		c0.3,0.1,0.6,0.2,0.8,0.4c0.2,0.2,0.4,0.4,0.5,0.6c0.1,0.2,0.2,0.4,0.2,0.6c0,0.1,0,0.2,0.1,0.3c0,0.1,0,0.1,0,0.2
		c0,0.3-0.1,0.5-0.2,0.8c-0.1,0.2-0.2,0.4-0.4,0.6c-0.2,0.2-0.4,0.4-0.6,0.5c-0.2,0.1-0.5,0.2-0.7,0.3c-0.1,0-0.2,0-0.3,0
		c-0.1,0-0.2,0-0.2,0c-0.2,0-0.4,0-0.5-0.1c-0.3-0.1-0.5-0.2-0.7-0.4c-0.3-0.2-0.5-0.5-0.6-0.8c-0.1-0.2-0.2-0.4-0.2-0.6
		c0-0.1,0-0.3,0-0.4c0-0.3,0.1-0.5,0.2-0.8c0.1-0.2,0.2-0.5,0.4-0.6c0,0,0,0,0.1-0.1c0,0,0,0.1,0,0.1c0,0,0,0.1,0,0.1c0,0,0,0,0,0
		c-0.1,0.1-0.1,0.2-0.2,0.2c-0.1,0.2-0.2,0.3-0.2,0.5c-0.1,0.2-0.1,0.4-0.1,0.6c0,0.1,0,0.2,0,0.3c0,0.2,0.1,0.4,0.2,0.6
		c0.1,0.3,0.3,0.5,0.5,0.7c0.2,0.2,0.4,0.3,0.6,0.4c0.2,0.1,0.5,0.2,0.8,0.2c0.2,0,0.3,0,0.5,0c0.3-0.1,0.6-0.2,0.8-0.4
		c0.2-0.1,0.3-0.3,0.4-0.4c0.1-0.1,0.2-0.3,0.3-0.5c0.1-0.2,0.1-0.5,0.2-0.7c0-0.1,0-0.1,0-0.2c0-0.1,0-0.1,0-0.2
		c0-0.2-0.1-0.5-0.3-0.7c-0.1-0.2-0.3-0.4-0.4-0.5c-0.2-0.1-0.4-0.3-0.6-0.4c-0.2-0.1-0.3-0.1-0.5-0.1c-0.1,0-0.2,0-0.3,0
		c-0.1,0-0.1,0-0.2,0C25.7,20.9,25.7,20.9,25.6,20.9z"/>
	<path class="st2" d="M24.3,25c0,0-0.1-0.1-0.1-0.1c-0.2-0.2-0.4-0.5-0.5-0.7c-0.1-0.2-0.1-0.3-0.1-0.5c0-0.2,0-0.3,0-0.5
		c0,0,0-0.1,0-0.1c0,0,0,0,0,0.1c0.1,0.3,0.1,0.6,0.3,0.9c0.1,0.2,0.2,0.3,0.3,0.5c0,0.1,0.1,0.1,0.1,0.2c0,0,0,0,0,0.1
		C24.3,24.8,24.4,24.9,24.3,25z"/>
	<path class="st3" d="M24.3,25c0-0.1,0-0.2,0-0.3c0,0,0,0,0-0.1c0,0,0,0,0,0c0.1,0.1,0.3,0.2,0.4,0.3c0.1,0.1,0.3,0.2,0.4,0.2
		c0,0,0,0,0,0c0,0,0,0.1,0,0.1c0,0,0,0,0,0c-0.1,0-0.3-0.1-0.4-0.1C24.7,25.2,24.5,25.1,24.3,25C24.4,25,24.3,25,24.3,25z"/>
	<path class="st4" d="M15.8,19C15.7,19,15.7,19,15.8,19c-0.2-0.2-0.3-0.3-0.4-0.4c-0.2-0.2-0.5-0.4-0.8-0.5
		c-0.3-0.1-0.6-0.3-0.9-0.3c-0.1,0-0.3-0.1-0.4-0.1c-0.2,0-0.4-0.1-0.6-0.1c-0.1,0-0.1,0-0.2,0c-0.1,0-0.2,0-0.3,0.1c0,0,0,0,0,0
		c-0.1-0.1-0.2-0.1-0.4-0.2c-0.1,0-0.2-0.1-0.4-0.1c-0.1,0-0.2,0-0.3,0c-0.1,0-0.3,0-0.4,0c-0.1,0-0.1,0-0.2,0c-0.1,0-0.2,0-0.2,0
		c-0.1,0-0.2,0-0.3,0c-0.1,0-0.1,0-0.2,0c-0.1,0-0.2,0-0.2,0c-0.1,0-0.2,0-0.3,0c-0.1,0-0.1,0-0.2,0c-0.1,0-0.2,0-0.2,0
		c0,0-0.1,0-0.1,0c0,0-0.1,0-0.1-0.1c0,0,0-0.1,0.1-0.1c0,0,0,0,0,0c1,0,2.1,0,3.1,0c0,0,0.1,0,0.1,0c0.1,0.1,0.2,0.1,0.4,0.2
		c0.2,0,0.3,0.1,0.5,0.1c0.2,0,0.3,0.1,0.5,0.1c0.1,0,0.2,0.1,0.3,0.1c0.2,0,0.3,0.1,0.5,0.1c0.1,0,0.2,0,0.2,0.1
		c0.2,0,0.3,0.1,0.5,0.1c0.2,0,0.3,0.1,0.5,0.1c0.1,0,0.2,0.1,0.3,0.1c0.1,0,0.2,0.1,0.4,0.1c0.1,0,0.1,0,0.2,0c0.1,0,0.2,0,0.3,0
		c0.2,0,0.3,0,0.5-0.1c0.1,0,0.1-0.1,0.2-0.1c0.2-0.1,0.3-0.1,0.5-0.2c0.1-0.1,0.3-0.1,0.4-0.2c0.2-0.1,0.4-0.2,0.5-0.2
		c0.1,0,0.2-0.1,0.3-0.1c0.1-0.1,0.2-0.2,0.2-0.3c0-0.1,0-0.1,0.1-0.2c0,0,0-0.1,0-0.1c0,0,0.1,0,0.1,0c0,0,0.1,0,0.1,0
		c0.1,0,0.3,0.1,0.4,0.1c0.1,0,0.3,0.1,0.4,0.1c0.2,0.1,0.4,0.1,0.7,0.2c0.1,0,0.2,0.1,0.2,0.1c0.1,0,0.3,0.1,0.4,0.1
		c0.2,0,0.3,0.1,0.5,0.2c0.1,0,0.1,0,0.1,0.1c0.1,0.1,0.2,0.2,0.2,0.3c0,0.1,0,0.2-0.1,0.2c-0.1,0.1-0.1,0.2-0.2,0.3
		c-0.1,0.2-0.2,0.3-0.3,0.5c0,0,0,0.1-0.1,0.1c0,0,0,0,0,0c0,0-0.1,0-0.1,0c-0.2,0-0.5,0-0.7,0c0,0,0,0,0,0c-0.1,0-0.1,0-0.1-0.1
		c0-0.1,0-0.2,0-0.2c0-0.1,0-0.3,0.1-0.4c0,0,0-0.1,0-0.1c0-0.1,0-0.2,0-0.2c-0.1-0.2-0.2-0.3-0.3-0.4c-0.1,0-0.1-0.1-0.2-0.1
		c-0.1,0-0.2,0-0.3,0c-0.1,0-0.1,0-0.2,0c-0.1,0-0.2,0-0.2,0c-0.1,0-0.2,0-0.4,0c-0.2,0-0.3,0-0.5,0.1c-0.2,0.1-0.5,0.2-0.7,0.3
		c-0.2,0.1-0.3,0.2-0.5,0.3c-0.1,0.1-0.2,0.2-0.3,0.3c-0.1,0.1-0.1,0.2-0.2,0.2c0,0,0,0.1-0.1,0.1c0,0-0.1,0.1-0.1,0.1c0,0,0,0,0,0
		C16.6,19,16.2,19,15.8,19C15.8,19,15.8,19,15.8,19z"/>
	<path class="st2" d="M20.5,17.7C20.5,17.8,20.5,17.8,20.5,17.7c-0.2,0.1-0.4,0.3-0.5,0.4c-0.3,0.2-0.6,0.4-0.9,0.6
		c-0.2,0.2-0.5,0.3-0.7,0.5c0,0,0,0,0,0c-0.1,0.2-0.2,0.4-0.4,0.5c-0.1,0.1-0.1,0.2-0.2,0.3c0,0,0,0-0.1,0c-0.2,0-0.4,0.1-0.6,0.1
		c-0.1,0-0.1,0-0.2,0c0,0,0,0,0,0c0.2-0.3,0.4-0.6,0.6-0.9c0.1-0.1,0.2-0.3,0.3-0.4c0-0.1,0.1-0.1,0.2-0.2c0.1-0.1,0.3-0.2,0.4-0.3
		c0.3-0.2,0.7-0.5,1-0.7c0,0,0,0,0,0c0.2,0,0.3,0,0.5,0c0.2,0,0.3,0,0.5,0C20.4,17.7,20.4,17.7,20.5,17.7z"/>
	<path class="st2" d="M20.8,16.9c0,0,0.1-0.1,0.2-0.1c0.2-0.1,0.4-0.3,0.6-0.4c0.1-0.1,0.2-0.1,0.3-0.2c0,0,0,0,0,0
		c0.1,0.1,0.2,0.3,0.3,0.4c0,0,0,0,0,0.1c-0.1,0.1-0.2,0.2-0.4,0.2c-0.1,0-0.1,0.1-0.2,0.1c0,0,0,0,0,0c-0.1,0-0.2-0.1-0.3-0.1
		C21.1,16.9,21,16.9,20.8,16.9C20.8,16.9,20.8,16.9,20.8,16.9z"/>
	<path class="st0" d="M21.1,21.6C21.1,21.6,21.1,21.6,21.1,21.6C21,21.5,21,21.5,21,21.4c0-0.2,0.1-0.4,0.1-0.6c0-0.1,0-0.2,0.1-0.4
		c0,0,0-0.1,0-0.1c0,0,0.1,0.1,0.1,0.1c0,0,0,0,0,0.1c0,0,0,0,0,0.1c0,0.1,0,0.1,0,0.2c0,0.1,0,0.2,0,0.2c0,0.1,0,0.2-0.1,0.3
		c0,0,0,0.1,0,0.1C21.1,21.5,21.1,21.5,21.1,21.6z"/>
	<path class="st3" d="M22.6,18.3C22.6,18.3,22.6,18.3,22.6,18.3C22.6,18.3,22.6,18.3,22.6,18.3C22.6,18.3,22.6,18.3,22.6,18.3z"/>
	<path class="st2" d="M16.4,21.8c-0.1,0-0.2,0.1-0.3,0.1c-0.1,0-0.1,0,0,0.1c0,0.1,0.1,0.2,0.1,0.3c0,0,0,0,0,0
		c-0.3,0.1-0.6,0.1-0.8,0.2c-0.3,0.1-0.5,0.1-0.8,0.2c-0.2,0.1-0.5,0.1-0.7,0.2c-0.3,0.1-0.6,0.1-0.9,0.2c-0.3,0.1-0.6,0.1-0.9,0.2
		c0,0,0,0,0,0c-0.1,0-0.2,0-0.2-0.2c0-0.1,0-0.2,0.1-0.2c0.1,0,0.2-0.1,0.3-0.1c0.3-0.1,0.6-0.1,0.8-0.2c0.3-0.1,0.7-0.2,1-0.3
		c0.3-0.1,0.5-0.1,0.8-0.2c0.3-0.1,0.6-0.2,0.9-0.2c0.2-0.1,0.4-0.1,0.6-0.2C16.2,21.7,16.3,21.7,16.4,21.8
		C16.4,21.7,16.4,21.7,16.4,21.8C16.4,21.7,16.4,21.7,16.4,21.8z"/>
	<path class="st2" d="M14,22.9c0,0.1,0,0.1,0,0.2c0,0.3-0.1,0.5-0.2,0.8c-0.1,0.3-0.3,0.5-0.5,0.7c-0.2,0.2-0.4,0.3-0.6,0.4
		c-0.2,0.1-0.3,0.1-0.5,0.1c-0.2,0-0.4,0-0.6,0c-0.2,0-0.4-0.1-0.5-0.1c-0.2-0.1-0.5-0.2-0.7-0.4c-0.2-0.2-0.4-0.4-0.6-0.7
		c-0.1-0.2-0.2-0.4-0.2-0.6c0-0.1,0-0.3,0-0.4c0-0.3,0.1-0.5,0.2-0.7c0.1-0.2,0.2-0.4,0.4-0.6c0.1-0.2,0.3-0.3,0.5-0.4
		c0.2-0.1,0.4-0.2,0.6-0.3c0.1,0,0.2,0,0.4-0.1c0.1,0,0.1,0,0.2,0c0.2,0,0.4,0,0.6,0.1c0.2,0.1,0.5,0.2,0.7,0.3
		c0.3,0.2,0.5,0.5,0.6,0.8c0,0,0,0,0,0c0,0-0.1,0-0.1,0c0,0-0.1,0-0.1,0c0,0,0,0,0-0.1c-0.1-0.1-0.2-0.3-0.3-0.4
		c-0.2-0.2-0.3-0.3-0.6-0.4c-0.2-0.1-0.4-0.2-0.6-0.2c-0.2,0-0.3,0-0.5,0c-0.2,0-0.4,0.1-0.6,0.2c-0.2,0.1-0.3,0.2-0.4,0.3
		c-0.1,0.1-0.3,0.2-0.4,0.4c-0.1,0.2-0.2,0.4-0.3,0.5c0,0.1-0.1,0.2-0.1,0.3c0,0.1,0,0.2,0,0.3c0,0.2,0,0.4,0.1,0.6
		c0.1,0.2,0.2,0.5,0.3,0.6c0.1,0.2,0.3,0.3,0.5,0.5c0.2,0.1,0.4,0.2,0.6,0.2c0.1,0,0.2,0,0.3,0c0.1,0,0.1,0,0.2,0
		c0.2,0,0.3,0,0.5-0.1c0.3-0.1,0.5-0.2,0.8-0.4c0.2-0.1,0.3-0.3,0.4-0.5c0.1-0.2,0.2-0.4,0.2-0.6c0-0.1,0-0.2,0-0.3c0,0,0-0.1,0-0.1
		c0,0,0,0,0,0C13.9,23,14,22.9,14,22.9z"/>
	<path class="st0" d="M19.5,20.6c0.1-0.3,0.2-0.6,0.4-0.8c0.1-0.2,0-0.3-0.1-0.5c-0.1-0.1-0.3-0.2-0.4-0.1c-0.3,0-0.6,0.1-0.9,0.1
		c0,0,0,0,0,0c0.1,0,0.1-0.1,0.2-0.1c0,0,0.1,0,0.1-0.1c0.1,0,0.1,0,0.2,0c0.1,0,0.1,0,0.2,0c0.1,0,0.1,0,0.2,0c0.1,0,0.1,0,0.2,0
		c0.2,0.1,0.3,0.2,0.4,0.3c0,0.1,0,0.1,0,0.2c0,0.1,0,0.2,0,0.2c-0.1,0.2-0.2,0.5-0.3,0.7c0,0.1,0,0.1-0.1,0.2
		C19.6,20.7,19.6,20.7,19.5,20.6C19.6,20.6,19.5,20.6,19.5,20.6z"/>
	<path class="st2" d="M11.8,22.3c0,0-0.1-0.1-0.1-0.1c0,0,0-0.1,0-0.1c0,0,0,0,0,0c0,0,0.1,0,0.1,0c0,0,0,0,0,0c0,0,0,0,0,0
		C11.8,22.2,11.8,22.3,11.8,22.3z"/>
	<path class="st2" d="M11.5,22.4c-0.1,0-0.1,0-0.1-0.1c0,0,0-0.1-0.1-0.1c0,0,0,0,0,0c0,0,0.1-0.1,0.1,0c0,0,0,0.1,0.1,0.1
		c0,0,0,0,0,0C11.5,22.3,11.5,22.4,11.5,22.4z"/>
	<path class="st2" d="M11.3,22.6c0,0-0.1,0-0.1,0c0,0-0.1-0.1-0.1-0.1c0,0,0,0,0,0c0,0,0,0,0,0c0,0,0-0.1,0.1-0.1c0,0,0.1,0,0.1,0.1
		C11.3,22.5,11.3,22.5,11.3,22.6C11.3,22.6,11.3,22.6,11.3,22.6z"/>
	<path class="st2" d="M11.8,23.8c0,0.1,0,0.1,0.1,0.1c0,0,0,0.1,0,0.1c0,0-0.1,0-0.1,0c0,0,0-0.1,0-0.1
		C11.7,23.9,11.7,23.8,11.8,23.8z"/>
	<path class="st2" d="M11.2,22.8c-0.1,0-0.1,0-0.2,0c0,0,0,0-0.1,0c0,0,0,0,0-0.1c0,0,0,0,0,0c0,0,0-0.1,0-0.1c0,0,0.1,0,0.1,0
		C11.1,22.7,11.2,22.8,11.2,22.8z"/>
	<path class="st2" d="M11.2,23.3c0,0.1-0.1,0.1-0.1,0.1c0,0-0.1,0-0.1,0c0,0-0.1-0.1,0-0.1c0,0,0.1-0.1,0.1,0
		C11.1,23.3,11.1,23.3,11.2,23.3z"/>
	<path class="st2" d="M11.1,23.1c0,0-0.1,0.1-0.1,0.1c0,0-0.1,0-0.1,0c0,0,0,0,0,0c0,0,0,0,0,0c0,0,0-0.1,0-0.1c0,0,0.1,0,0.1,0
		C11.1,23,11.1,23,11.1,23.1z"/>
	<path class="st2" d="M11.3,23.6c0,0.1,0,0.1-0.1,0.2c0,0,0,0,0,0c0,0,0,0-0.1-0.1c0,0,0,0,0,0c0,0,0-0.1,0.1-0.1
		C11.2,23.6,11.2,23.5,11.3,23.6C11.3,23.5,11.3,23.5,11.3,23.6z"/>
	<path class="st2" d="M11.5,23.7c0,0.1,0,0.1,0,0.2c0,0,0,0.1-0.1,0.1c0,0,0,0,0,0c0,0-0.1,0-0.1-0.1c0,0,0,0,0-0.1
		c0,0,0-0.1,0.1-0.1C11.5,23.7,11.5,23.7,11.5,23.7z"/>
	<path class="st2" d="M11.3,23.4C11.3,23.4,11.3,23.4,11.3,23.4C11.4,23.3,11.4,23.3,11.3,23.4c0.1-0.1,0.1-0.1,0.1-0.1
		C11.4,23.4,11.4,23.4,11.3,23.4C11.3,23.4,11.3,23.4,11.3,23.4z"/>
	<path class="st2" d="M11.7,23.7C11.6,23.7,11.6,23.7,11.7,23.7c0-0.1,0-0.1,0-0.1C11.7,23.6,11.7,23.6,11.7,23.7
		C11.7,23.6,11.7,23.7,11.7,23.7C11.7,23.7,11.7,23.7,11.7,23.7z"/>
	<path class="st2" d="M11.6,22.4C11.7,22.4,11.7,22.4,11.6,22.4C11.7,22.5,11.7,22.5,11.6,22.4c0.1,0.1,0,0.1,0,0.1
		C11.7,22.5,11.6,22.5,11.6,22.4C11.6,22.5,11.6,22.4,11.6,22.4z"/>
	<path class="st2" d="M11.3,22.7C11.3,22.7,11.3,22.7,11.3,22.7C11.4,22.7,11.4,22.7,11.3,22.7C11.4,22.8,11.4,22.8,11.3,22.7
		C11.4,22.8,11.4,22.8,11.3,22.7C11.3,22.8,11.3,22.7,11.3,22.7z"/>
	<path class="st2" d="M11.4,23.6C11.4,23.6,11.5,23.5,11.4,23.6C11.5,23.5,11.5,23.5,11.4,23.6C11.5,23.5,11.5,23.5,11.4,23.6
		C11.5,23.5,11.5,23.6,11.4,23.6C11.5,23.6,11.5,23.6,11.4,23.6z"/>
	<path class="st2" d="M11.5,22.6C11.5,22.6,11.5,22.6,11.5,22.6C11.5,22.6,11.5,22.6,11.5,22.6z"/>
	<path class="st2" d="M11.2,22.9C11.2,22.9,11.2,22.9,11.2,22.9C11.3,22.9,11.3,22.9,11.2,22.9c0.1,0,0.1,0,0.1,0
		C11.3,23,11.3,23,11.2,22.9C11.2,23,11.2,23,11.2,22.9z"/>
	<path class="st2" d="M11.2,23.2C11.2,23.2,11.2,23.2,11.2,23.2c0.1,0,0.1,0,0.1,0c0,0,0,0,0,0C11.3,23.2,11.3,23.2,11.2,23.2
		C11.3,23.2,11.2,23.2,11.2,23.2z"/>
	<path class="st2" d="M10.9,22.2C10.9,22.2,10.9,22.2,10.9,22.2C10.8,22.2,10.8,22.2,10.9,22.2C10.8,22.2,10.8,22.2,10.9,22.2
		C10.8,22.2,10.9,22.2,10.9,22.2z"/>
	<path class="st2" d="M10.1,25c-0.1-0.1-0.2-0.2-0.3-0.3c-0.1-0.2-0.2-0.3-0.3-0.5c-0.1-0.2-0.1-0.3-0.1-0.5c0-0.1,0-0.2,0-0.3
		c0-0.1,0-0.1,0-0.2c0,0.1,0,0.2,0.1,0.3c0.1,0.4,0.3,0.7,0.5,1c0,0.1,0.1,0.1,0.1,0.2c0,0.1,0,0.1,0,0.2
		C10.2,24.8,10.2,24.9,10.1,25C10.2,24.9,10.2,25,10.1,25z"/>
	<path class="st3" d="M10.1,25C10.2,25,10.2,24.9,10.1,25c0-0.1,0-0.1,0-0.2c0-0.1,0-0.1,0-0.2c0,0,0,0,0,0c0.2,0.2,0.3,0.3,0.5,0.4
		c0.1,0.1,0.2,0.1,0.3,0.1c0,0,0.1,0,0.1,0.1c0,0,0,0,0,0.1c0,0,0,0-0.1,0c-0.1,0-0.2-0.1-0.3-0.1C10.5,25.2,10.4,25.2,10.1,25
		C10.2,25,10.2,25,10.1,25z"/>
	<path class="st4" d="M23.2,17.1c0.1-0.1,0.1-0.1,0.2-0.1c0,0,0,0,0.1,0c0.1,0,0.2,0,0.3,0c0.7,0,1.3,0,2,0c0.1,0,0.2,0,0.3,0.1
		c0.2,0.1,0.3,0.1,0.5,0.2c0.3,0.1,0.6,0.3,0.8,0.5c0.2,0.1,0.3,0.3,0.5,0.4c0.1,0.1,0.2,0.3,0.3,0.4c0,0,0,0.1,0,0.1
		c0,0-0.1,0-0.1,0c0,0,0,0,0,0c-0.2-0.1-0.4-0.2-0.6-0.3c-0.4-0.2-0.7-0.3-1.1-0.5c-0.1,0-0.2-0.1-0.3-0.1c0,0-0.1,0-0.1,0
		c-0.7,0-1.4,0-2.1,0c0,0,0,0,0-0.1c0,0-0.1-0.1,0-0.2c0,0,0-0.1,0-0.1c-0.1-0.1-0.1-0.2-0.2-0.3C23.3,17.2,23.3,17.2,23.2,17.1
		C23.3,17.2,23.2,17.2,23.2,17.1z"/>
	<path class="st3" d="M25.6,20.9c0.1,0,0.1,0,0.2,0c0.1,0,0.1,0,0.2,0c0.1,0,0.2,0,0.3,0c0.2,0,0.3,0.1,0.5,0.1
		c0.2,0.1,0.4,0.2,0.6,0.4c0.2,0.1,0.3,0.3,0.4,0.5c0.1,0.2,0.2,0.4,0.3,0.7c0,0.1,0,0.1,0,0.2c0,0.1,0,0.1,0,0.2
		c0,0.2-0.1,0.5-0.2,0.7c-0.1,0.2-0.2,0.3-0.3,0.5c-0.1,0.2-0.3,0.3-0.4,0.4c-0.2,0.2-0.5,0.3-0.8,0.4c-0.1,0-0.3,0-0.5,0
		c-0.3,0-0.5-0.1-0.8-0.2c-0.2-0.1-0.4-0.2-0.6-0.4c-0.2-0.2-0.4-0.4-0.5-0.7c-0.1-0.2-0.1-0.4-0.2-0.6c0-0.1,0-0.2,0-0.3
		c0-0.2,0-0.4,0.1-0.6c0.1-0.2,0.1-0.4,0.2-0.5c0.1-0.1,0.1-0.2,0.2-0.2c0,0,0,0,0,0c0,0,0,0,0,0c0.1,0.1,0.2,0.3,0.2,0.4
		c0,0,0,0,0,0.1c0,0,0,0,0,0c-0.1-0.1-0.1-0.1-0.2-0.2c0,0-0.1-0.1-0.1-0.1c0,0,0,0-0.1,0c-0.1,0.1-0.1,0.2-0.2,0.3
		c0,0.1,0,0.1,0.1,0.1c0,0,0,0,0,0c0.1,0,0.2,0,0.3,0c0.1,0,0.2,0,0.4,0.1c0,0,0.1,0.1,0.1,0.1c0,0,0,0,0,0c0,0.1,0,0.1,0.1,0.1
		c0,0,0,0,0.1,0c0,0.1,0.1,0.1,0.1,0.2c0.1,0.1,0.1,0.2,0.2,0.3c0,0,0,0,0,0c0,0,0,0-0.1,0.1c0,0,0.1,0,0.1,0c0,0,0.1,0.1,0.1,0.1
		c0,0,0,0,0,0.1c0,0,0,0,0.1,0c0.1,0,0.1,0.1,0.2,0.1c0.1,0,0.2,0.1,0.4,0c0.2,0,0.3-0.1,0.4-0.3c0.1-0.1,0.1-0.2,0.1-0.3
		c0-0.2,0-0.3-0.1-0.4c-0.1-0.2-0.2-0.4-0.3-0.5c-0.1-0.1-0.1-0.2-0.2-0.3c0,0,0,0,0-0.1c0,0,0,0,0.1,0c0.1-0.2,0.1-0.4,0.2-0.5
		c0,0,0,0,0-0.1c0-0.1,0-0.1-0.1-0.1c0,0,0,0,0,0c-0.1,0-0.2,0-0.4,0c0,0,0,0,0,0c0,0,0,0.1,0,0.1c0,0.1,0.1,0.2,0.1,0.3
		c0,0,0,0,0,0.1c0,0,0-0.1-0.1-0.1C25.8,21.3,25.7,21.1,25.6,20.9C25.6,20.9,25.6,20.9,25.6,20.9z M26.5,21.5c0,0.1,0,0.2,0,0.3
		c0,0,0,0,0,0c0,0,0,0,0.1,0c0.1-0.1,0.2-0.3,0.4-0.4c0,0,0,0,0-0.1c0,0,0,0,0-0.1c-0.1-0.1-0.2-0.1-0.3-0.1c0,0-0.1,0-0.1,0
		c0,0,0,0.1,0,0.1c0,0,0,0,0,0C26.5,21.3,26.5,21.4,26.5,21.5z M24.2,22.8C24.2,22.8,24.2,22.8,24.2,22.8
		C24.2,22.8,24.2,22.9,24.2,22.8c0.1,0.1,0.1,0.1,0.2,0.1c0.1,0,0.2,0,0.2,0c0.1,0,0.2,0,0.3-0.1c0,0,0,0,0,0c0,0,0,0,0,0
		c-0.2-0.1-0.3-0.2-0.5-0.3c0,0-0.1,0-0.1,0c0,0,0,0-0.1,0C24.2,22.5,24.2,22.6,24.2,22.8z M24.2,23.1c0,0.1,0,0.2,0.1,0.4
		c0,0.1,0,0.1,0.1,0.1c0,0,0,0,0,0c0.2-0.1,0.4-0.2,0.5-0.3c0,0,0,0,0,0c0,0,0,0,0,0c-0.2,0-0.4-0.1-0.6-0.1
		C24.3,23,24.2,23,24.2,23.1C24.2,23,24.2,23,24.2,23.1C24.2,23,24.2,23.1,24.2,23.1z M27.5,21.6C27.5,21.6,27.5,21.6,27.5,21.6
		c-0.1-0.1-0.2-0.2-0.4-0.3c0,0,0,0,0,0c0,0-0.1,0.1-0.1,0.1c-0.1,0.2-0.1,0.3-0.2,0.5c0,0,0,0,0,0.1c0,0,0,0,0.1,0
		C27.1,21.9,27.3,21.8,27.5,21.6C27.5,21.7,27.5,21.7,27.5,21.6C27.5,21.6,27.5,21.6,27.5,21.6z M25,23.5C25,23.5,25,23.5,25,23.5
		c-0.2,0-0.3,0.1-0.5,0.1c-0.1,0-0.1,0-0.2,0.1c0,0,0,0,0,0.1c0.1,0.1,0.1,0.2,0.2,0.3c0,0.1,0.1,0.1,0.1,0c0,0,0,0,0,0
		C24.8,23.9,24.9,23.7,25,23.5C25.1,23.6,25.1,23.6,25,23.5C25.1,23.5,25.1,23.5,25,23.5z M25.7,24.4c0-0.1,0-0.2,0-0.3c0,0,0,0,0,0
		c0,0,0,0,0,0c0,0,0,0,0,0c-0.1,0.1-0.2,0.3-0.4,0.4c0,0,0,0.1,0,0.1c0,0,0,0,0,0c0.1,0.1,0.3,0.1,0.4,0.2c0,0,0,0,0,0
		c0,0,0-0.1,0-0.1C25.7,24.6,25.7,24.5,25.7,24.4z M27.2,22.4C27.2,22.4,27.2,22.4,27.2,22.4c0.2,0,0.4-0.1,0.6-0.1c0,0,0.1,0,0.1,0
		c0,0,0,0,0-0.1c-0.1-0.1-0.1-0.2-0.2-0.3c0-0.1-0.1-0.1-0.1,0c0,0,0,0,0,0c-0.1,0.1-0.1,0.2-0.2,0.2C27.3,22.1,27.2,22.2,27.2,22.4
		C27.1,22.3,27.1,22.3,27.2,22.4C27.1,22.3,27.1,22.4,27.2,22.4z M26.5,24.4c0,0.1,0,0.2,0,0.3c0,0,0,0.1,0,0.1c0,0,0,0,0.1,0
		c0.1,0,0.3-0.1,0.4-0.1c0.1,0,0.1,0,0-0.1c0,0,0,0,0,0c-0.1-0.2-0.3-0.3-0.4-0.5c0,0,0,0-0.1,0c0,0,0,0,0,0
		C26.5,24.2,26.5,24.3,26.5,24.4z M24.7,24.2c0.1,0.1,0.2,0.2,0.3,0.3c0,0,0,0,0.1,0c0,0,0,0,0.1-0.1c0,0,0,0,0,0
		c0.1-0.2,0.1-0.4,0.2-0.5c0,0,0,0,0,0c0,0,0,0,0,0c0,0,0,0,0,0C25.1,23.9,24.9,24,24.7,24.2C24.7,24.2,24.7,24.2,24.7,24.2z
		 M28,22.8c0-0.1,0-0.2-0.1-0.4c0-0.1,0-0.1-0.1-0.1c0,0,0,0,0,0c-0.2,0.1-0.3,0.2-0.5,0.3c0,0,0,0,0,0.1c0,0,0,0,0,0
		c0.2,0,0.4,0.1,0.6,0.1C27.9,22.9,27.9,22.9,28,22.8C28,22.8,28,22.9,28,22.8z M28,23.1C28,23,28,23,28,23.1
		C27.9,23,27.9,23,27.9,23c-0.1,0-0.2,0-0.3,0.1c-0.1,0-0.2,0-0.3,0.1c0,0,0,0,0,0c0,0,0,0,0,0.1c0.2,0.1,0.3,0.2,0.5,0.3
		c0,0,0,0,0.1,0c0,0,0,0,0.1,0C28,23.3,28,23.2,28,23.1z M26.1,24.8c0.1,0,0.1,0,0.2,0c0,0,0.1,0,0.1,0c0,0,0-0.1,0-0.1c0,0,0,0,0,0
		c0-0.1-0.1-0.2-0.1-0.3c0-0.1-0.1-0.2-0.1-0.3c0,0,0,0,0,0c0,0,0,0,0,0c-0.1,0.2-0.1,0.4-0.2,0.6c0,0,0,0,0,0.1c0,0,0,0,0,0
		C25.9,24.8,26,24.8,26.1,24.8z M27.2,23.5C27.1,23.5,27.1,23.5,27.2,23.5C27.1,23.5,27.1,23.6,27.2,23.5c0.1,0.2,0.2,0.4,0.4,0.5
		c0,0,0,0,0.1,0c0,0,0,0,0.1,0c0.1-0.1,0.1-0.2,0.2-0.3c0-0.1,0-0.1-0.1-0.1c0,0,0,0,0,0c-0.1,0-0.2,0-0.4-0.1
		C27.3,23.5,27.2,23.5,27.2,23.5z M27.1,24.5c0.1,0,0.1-0.1,0.2-0.1c0.1-0.1,0.1-0.1,0.2-0.2c0,0,0,0,0,0c0,0,0,0-0.1-0.1
		c-0.1-0.1-0.2-0.1-0.3-0.2c-0.1,0-0.2-0.1-0.2-0.1c0,0,0,0-0.1,0c0,0,0,0,0,0c0.1,0.2,0.1,0.4,0.2,0.5
		C27.1,24.5,27.1,24.5,27.1,24.5z M25.7,23.7C25.7,23.7,25.7,23.6,25.7,23.7C25.7,23.6,25.7,23.6,25.7,23.7c-0.1-0.1-0.1,0-0.1,0
		c-0.1,0-0.1,0.1-0.1,0.1c0,0,0,0,0.1,0.1c0,0,0,0,0,0c0,0,0,0,0.1,0C25.7,23.8,25.7,23.7,25.7,23.7z M25.3,22.9
		C25.3,22.9,25.3,22.9,25.3,22.9c-0.1-0.1-0.2-0.1-0.2-0.1c0,0,0,0-0.1,0c0,0,0,0.1,0,0.1c0,0,0.1,0,0.1,0
		C25.2,23,25.3,23,25.3,22.9z M26,23.7C25.9,23.7,25.9,23.8,26,23.7c-0.1,0.1-0.1,0.2-0.1,0.2c0,0,0.1,0,0.1,0c0,0,0,0,0,0
		c0,0,0,0,0,0c0,0,0-0.1,0-0.1C26,23.8,26,23.7,26,23.7z M25.4,23.2c0,0-0.1,0-0.1,0c-0.1,0-0.1,0-0.1,0c0,0,0,0.1,0,0.1
		c0,0,0,0,0,0c0,0,0,0,0,0c0,0,0.1,0,0.1,0C25.3,23.3,25.3,23.2,25.4,23.2z M25.5,23.4c0,0-0.1,0-0.1,0c-0.1,0-0.1,0-0.1,0.1
		c0,0,0.1,0.1,0.1,0.1c0,0,0.1,0,0.1-0.1C25.5,23.5,25.5,23.5,25.5,23.4z M25,23.3c-0.1,0-0.1,0.1-0.2,0.1c0.1,0,0.1,0,0.2,0
		C25,23.4,25,23.4,25,23.3z M24.9,22.9c-0.1,0-0.2,0-0.3,0c0,0,0,0,0,0C24.7,22.9,24.8,23,24.9,22.9C24.9,22.9,24.9,22.9,24.9,22.9z
		 M25.5,24C25.5,24,25.5,23.9,25.5,24c-0.1,0-0.1,0.1-0.2,0.2c0,0,0,0,0,0C25.4,24.1,25.5,24,25.5,24z M25.2,23.7
		c-0.1,0.1-0.1,0.1-0.2,0.2c0,0,0,0,0,0C25.1,23.8,25.1,23.8,25.2,23.7C25.2,23.7,25.2,23.7,25.2,23.7z M24.7,22.4
		C24.7,22.4,24.7,22.4,24.7,22.4c0.1,0,0.1,0.1,0.2,0.1c0,0,0-0.1,0-0.1C24.9,22.5,24.8,22.4,24.7,22.4z M25.8,24.3
		C25.8,24.3,25.8,24.3,25.8,24.3c0-0.1,0-0.1,0.1-0.2c0-0.1,0-0.1-0.1-0.1c0,0,0,0,0,0C25.8,24.2,25.8,24.3,25.8,24.3z M26.8,24.2
		C26.8,24.2,26.8,24.2,26.8,24.2c0-0.1,0-0.2-0.1-0.2c0,0-0.1,0-0.1,0C26.7,24,26.8,24.1,26.8,24.2z M26.3,24.1
		c0,0.1,0.1,0.2,0.1,0.2C26.3,24.3,26.3,24.2,26.3,24.1C26.3,24.1,26.3,24.1,26.3,24.1z M27.2,23.8C27.2,23.8,27.2,23.8,27.2,23.8
		c0-0.1-0.1-0.1-0.1-0.2c0,0,0,0-0.1,0.1C27,23.8,27.1,23.8,27.2,23.8z M27.5,22.9C27.5,22.9,27.5,22.9,27.5,22.9
		c-0.1,0-0.1,0-0.2,0c-0.1,0-0.1,0-0.1,0.1C27.4,23,27.5,22.9,27.5,22.9z M27.2,23.4c0.1,0,0.2,0,0.2,0
		C27.4,23.4,27.3,23.3,27.2,23.4C27.2,23.3,27.2,23.4,27.2,23.4z M26.7,21.9c0-0.1,0.1-0.1,0.1-0.2c0,0,0,0,0,0
		C26.8,21.7,26.7,21.8,26.7,21.9C26.7,21.9,26.7,21.9,26.7,21.9z M27.2,22.6c0.1,0,0.1-0.1,0.2-0.1C27.4,22.5,27.3,22.5,27.2,22.6
		C27.2,22.5,27.2,22.5,27.2,22.6z M27.2,22C27.2,22,27.2,22,27.2,22c-0.1,0-0.1,0.1-0.2,0.1c0,0,0,0,0.1,0.1
		C27.1,22.1,27.1,22.1,27.2,22z M26.3,21.5c0,0.1-0.1,0.1-0.1,0.2c0,0,0.1,0,0.1,0C26.3,21.7,26.3,21.6,26.3,21.5z"/>
	<path class="st4" d="M24.8,19.8c0,0,0.1,0.1,0.1,0.1c0.1,0.2,0.2,0.3,0.3,0.5c0.1,0.2,0.2,0.3,0.3,0.5c0.1,0.1,0.2,0.3,0.2,0.4
		c0,0.1,0.1,0.1,0.1,0.2c0.1,0.1,0.1,0.2,0.2,0.3c0.1,0.1,0.1,0.3,0.2,0.4c0.1,0.2,0.2,0.4,0.3,0.5c0,0.1,0.1,0.1,0.1,0.2
		c0,0.1,0,0.2,0,0.3c0,0,0,0,0,0.1c0,0.1-0.1,0.2-0.2,0.2c0,0,0,0-0.1,0c-0.1-0.1-0.1-0.2-0.2-0.3c-0.1-0.1-0.1-0.2-0.2-0.3
		c-0.1-0.2-0.3-0.5-0.4-0.7c-0.2-0.2-0.3-0.5-0.5-0.7c-0.1-0.1-0.1-0.2-0.2-0.3c0,0,0,0,0-0.1c0-0.1,0-0.2,0-0.3c0,0,0-0.1,0-0.2
		c0-0.1,0-0.2,0-0.3C24.8,20.1,24.8,19.9,24.8,19.8C24.8,19.8,24.8,19.8,24.8,19.8z"/>
	<path class="st2" d="M25.2,22.7C25.2,22.7,25.2,22.7,25.2,22.7c-0.1,0-0.2-0.1-0.1-0.1c0,0,0,0,0,0C25.2,22.6,25.2,22.6,25.2,22.7z
		"/>
	<path class="st2" d="M25.6,23.3C25.5,23.3,25.5,23.3,25.6,23.3C25.5,23.3,25.5,23.2,25.6,23.3C25.5,23.2,25.6,23.3,25.6,23.3z"/>
	<path class="st2" d="M25.7,23.4C25.7,23.5,25.7,23.5,25.7,23.4C25.6,23.5,25.6,23.4,25.7,23.4C25.7,23.4,25.7,23.4,25.7,23.4z"/>
	<path class="st3" d="M24.9,22.1C24.9,22.1,24.9,22.1,24.9,22.1C24.9,22.1,24.9,22.1,24.9,22.1z"/>
	<path class="st3" d="M24.9,22.1C24.9,22.1,24.9,22.1,24.9,22.1C24.9,22.1,24.9,22.1,24.9,22.1z"/>
	<path class="st2" d="M23.4,16.8c0,0,0.1,0,0.1,0C23.5,16.8,23.4,16.8,23.4,16.8z"/>
	<path class="st3" d="M14.9,20.2C14.9,20.2,14.9,20.2,14.9,20.2C14.9,20.3,14.9,20.3,14.9,20.2c-0.1,0.1-0.1,0.1-0.1,0.1
		c-0.1,0-0.2-0.1-0.2-0.1c-0.2-0.1-0.3-0.1-0.5-0.2c-0.1-0.1-0.3-0.1-0.4-0.2c-0.1,0-0.2-0.1-0.3-0.1c-0.1,0-0.2-0.1-0.3-0.1
		c-0.1,0-0.2-0.1-0.3-0.1c-0.1-0.1-0.2-0.1-0.4-0.1c-0.1,0-0.1-0.1-0.2-0.2c0-0.1-0.1-0.2-0.1-0.2c0,0,0,0,0,0
		c0-0.1,0.1-0.2,0.1-0.3c0,0,0,0,0,0c0.1,0,0.2,0,0.3-0.1c0,0,0,0,0,0c0.1,0.1,0.1,0.2,0.2,0.2c0.1,0.2,0.3,0.4,0.4,0.5
		c0.2,0.2,0.3,0.4,0.6,0.5c0.1,0.1,0.2,0.1,0.4,0.2c0.1,0.1,0.2,0.1,0.3,0.2C14.6,20.1,14.7,20.2,14.9,20.2
		C14.9,20.2,14.9,20.2,14.9,20.2z"/>
	<path class="st2" d="M25.7,23.7c0,0.1,0,0.1-0.1,0.1c0,0,0,0-0.1,0c0,0,0,0,0,0c0,0-0.1,0-0.1-0.1c0,0,0-0.1,0.1-0.1
		C25.6,23.6,25.7,23.6,25.7,23.7C25.7,23.6,25.7,23.6,25.7,23.7C25.7,23.6,25.7,23.7,25.7,23.7z"/>
	<path class="st2" d="M25.3,22.9c-0.1,0-0.1,0.1-0.1,0.1c0,0-0.1,0-0.1,0c0,0,0-0.1,0-0.1c0,0,0,0,0.1,0
		C25.2,22.8,25.2,22.8,25.3,22.9C25.3,22.9,25.3,22.9,25.3,22.9z"/>
	<path class="st2" d="M26,23.7c0,0.1,0,0.1,0,0.1c0,0,0,0.1,0,0.1c0,0,0,0,0,0c0,0,0,0,0,0c0,0-0.1,0-0.1,0
		C25.8,23.9,25.8,23.8,26,23.7C25.9,23.8,25.9,23.7,26,23.7z"/>
	<path class="st2" d="M25.4,23.2c0,0-0.1,0.1-0.1,0.1c0,0-0.1,0-0.1,0c0,0,0,0,0,0c0,0,0,0,0,0c0,0,0-0.1,0-0.1c0,0,0.1-0.1,0.1,0
		C25.3,23.2,25.3,23.2,25.4,23.2z"/>
	<path class="st2" d="M25.5,23.4c0,0.1,0,0.1-0.1,0.2c0,0-0.1,0-0.1,0.1c0,0-0.1-0.1-0.1-0.1c0,0,0.1-0.1,0.1-0.1
		C25.4,23.4,25.5,23.4,25.5,23.4z"/>
</g>
</svg>
