<?xml version="1.0" encoding="utf-8"?>
<!-- Generator: Adobe Illustrator 23.0.2, SVG Export Plug-In . SVG Version: 6.00 Build 0)  -->
<svg version="1.1" id="Layer_1" xmlns="http://www.w3.org/2000/svg" xmlns:xlink="http://www.w3.org/1999/xlink" x="0px" y="0px"
	 viewBox="0 0 61 40" style="enable-background:new 0 0 61 40;" xml:space="preserve">
<style type="text/css">
	.st0{fill:#421006;}
	.st1{fill:#F66A24;}
	.st2{fill:#DB3D1A;}
	.st3{fill:#EDDDC6;}
	.st4{fill:none;stroke:#421006;stroke-miterlimit:10;}
</style>
<g>
	<path class="st0" d="M32.2,21.2v-1.7c0,0,0.2-0.3,1,0c0.8,0.3,0.9,0.5,0.8,0.7c0,0.2-0.2,1.4-0.2,1.5c-0.1,0.1-0.9,0.2-1.7,0.1
		c-0.8-0.1-4.8-0.6-5.3-0.6c-0.5,0-1.2-0.3-1.2-0.4c0-0.1,0.3-1.3,0.4-1.5s0.5,0.1,0.5,0.1s4.2,0.6,5,0.7c0.7,0.1,1.3,0.2,1.3,0.2"
		/>
	<path class="st0" d="M26.7,21.9l0.4,0.2c0,0,0.5-0.1,0.6-0.1c0.1-0.1,0.5-1,0.5-1l0.9,1.3c0,0,0.2,0.2,0.6,0.1
		c0.4-0.1,2.4-0.2,2.5-0.3c0.1,0,0.5-0.4,0.5-0.4L29.7,22l-0.8-0.2l-1.3-1.7l-0.8,1.4"/>
	<path class="st1" d="M32.9,19.5l-0.1-0.2c0,0-0.7-0.4-1.8-1c-0.7-0.4-1.2-0.6-1.2-0.6l-0.2,0.2c0,0-1-0.3-1.3-0.3
		C28,17.7,28,17.7,28,17.7s-0.7,0.1-0.9,0.2L27,17.8c0,0-0.4,0.3-0.5,0.7c-0.1,0-0.1,0-0.1,0l-0.2,0.7l-0.4,2.1c0,0,0.1,0.6,0.5,0.8
		c0.3,0,0.3,0,0.3,0s0.9-1.4,1-1.5c0.3,0.2,0.9,1.6,0.9,1.7c0.4,0,3.5-0.5,3.8-0.5c0.2,0,0.5-0.2,0.5-0.3
		C32.9,21.4,32.9,19.5,32.9,19.5z"/>
	<path class="st2" d="M28.9,21.8l2.1-0.3l-2.3-1.2l-1-0.6c0,0-0.3,0.5-0.3,0.6l-0.8,0.9c0,0,0.2-0.1,0.2-0.2
		c-0.1,0.1-0.5,0.7-0.6,0.9c0.3,0,0.3,0,0.3,0s0.9-1.4,1-1.5c0.3,0.2,0.9,1.6,0.9,1.7c0,0-0.1-0.6-0.1-0.9
		C28.6,21.5,28.9,21.8,28.9,21.8z"/>
	<path class="st2" d="M32.7,19.3c0,0-0.2-0.2-0.7-0.4l0.4,0.6l-0.2,0.1l-0.4-0.9c0,0-0.1,0-0.1-0.1l0.3,0.7l0.1,1.3
		c0,0-0.3,0.4-0.2,0.5c0,0.1,0.3,0,0.3,0v0.3l-2.2,0.8c1-0.2,2.2-0.3,2.4-0.3c0.2,0,0.5-0.2,0.5-0.3c0-0.1,0-2,0-2L32.7,19.3z"/>
	<path class="st0" d="M32.1,20.7c0,0,0-1.1-0.1-1.4c-0.1-0.3-2.6-1.5-4.4-1.2c-0.8,0.1-1,0.8-1,0.8L26,21.2c0,0,0.2,0.2,0.5,0.2
		c0.5-0.5,1.1-1.5,1.4-1.7c0.5,0.4,1.1,1.9,1.1,1.9c0.6-0.1,2-0.1,2.2-0.2C31.4,21.5,32.1,20.7,32.1,20.7z"/>
	<path class="st0" d="M33.8,21.7c0.1,0.1,0.2-1.3,0.2-1.5c0-0.2-0.1-0.4-0.8-0.7c-0.8-0.3-1,0-1,0v1.7
		C32.2,21.2,32.8,21.1,33.8,21.7z"/>
	<g>
		<g>
			<g>
				<path class="st3" d="M28.4,18c-0.3,0-0.6,0-0.9,0c0,0,0,0,0,0l-0.2,2.3c0.2-0.3,0.4-0.6,0.5-0.6c0.2,0.2,0.3,0.4,0.5,0.7
					L28.4,18z"/>
			</g>
			<g>
				<path class="st3" d="M26.9,18.3l-0.4,2.7l0.6-2.8C27,18.2,27,18.3,26.9,18.3z"/>
			</g>
			<g>
				<path class="st3" d="M29.5,21.7l0.2-3.4c-0.1,0-0.1,0-0.2,0l-0.2,3.5C29.4,21.7,29.4,21.7,29.5,21.7z"/>
			</g>
			<g>
				<path class="st3" d="M31.2,21.5c0-0.8,0.1-1.8,0.1-2.6c-0.4-0.2-0.8-0.4-1.4-0.6l-0.2,3.3c0.6,0,1.2-0.1,1.3-0.1
					C31.1,21.5,31.2,21.5,31.2,21.5z"/>
			</g>
		</g>
	</g>
	<path class="st4" d="M32.1,20.7c0,0,0-1.1-0.1-1.4c-0.1-0.3-2.6-1.5-4.4-1.2c-0.8,0.1-1,0.8-1,0.8L26,21.2c0,0,0.2,0.2,0.5,0.2
		c0.5-0.5,1.1-1.5,1.4-1.7c0.5,0.4,1.1,1.9,1.1,1.9c0.6-0.1,2-0.1,2.2-0.2C31.4,21.5,32.1,20.7,32.1,20.7z"/>
	<path class="st2" d="M29.5,18.1l1.8,0.6l-0.5-0.4c-0.5-0.3-0.9-0.4-1.1-0.5L29.5,18.1z"/>
	<path class="st2" d="M29.5,17.9l-0.2,0.2c0,0-0.9-0.3-1.8-0.2c0.5-0.2,1.7,0.1,1.7,0.1L29.5,17.9z"/>
	<g>
		<path class="st0" d="M27.7,20.7c-0.1-0.1-0.2-0.1-0.2-0.2h0.1c-0.2,0.3-0.3,0.6-0.5,0.9c-0.1,0.2-0.2,0.3-0.3,0.4
			c-0.1,0.1-0.2,0.3-0.3,0.4c0.1-0.2,0.1-0.3,0.2-0.4c0.1-0.2,0.2-0.3,0.2-0.4c0.1-0.2,0.2-0.3,0.3-0.4c0.1-0.1,0.2-0.3,0.3-0.4l0,0
			l0,0C27.6,20.5,27.6,20.6,27.7,20.7z"/>
	</g>
	<g>
		<path class="st0" d="M27.5,20.4C27.5,20.4,27.5,20.4,27.5,20.4L27.5,20.4c-0.1-0.1-0.1-0.2,0-0.2c0,0,0-0.1,0-0.1
			c0,0,0-0.1,0.1-0.1c0,0,0.1-0.1,0.1-0.1c0,0.1,0,0.1,0,0.2c0,0,0,0.1,0,0.1c0,0,0,0.1-0.1,0.1C27.6,20.3,27.5,20.4,27.5,20.4
			L27.5,20.4C27.5,20.4,27.5,20.4,27.5,20.4z"/>
	</g>
	<g>
		<path class="st0" d="M29.5,17.9c0,0.1-0.1,0.2-0.2,0.2l0,0h0l-0.9-0.1L28,18c-0.2,0-0.3,0-0.5-0.1c0.2,0,0.3-0.1,0.5-0.1
			c0.2,0,0.3,0,0.5,0c0.3,0,0.6,0.1,0.9,0.2v0C29.4,18,29.4,18,29.5,17.9z"/>
	</g>
	<g>
		<path class="st0" d="M28.2,21.2c0.2,0.3,0.4,0.6,0.5,1l-0.1-0.1c0.3,0,0.7-0.1,1-0.1c0.2,0,0.3,0,0.5,0s0.3,0,0.5,0
			c-0.2,0-0.3,0.1-0.5,0.1c-0.2,0-0.3,0.1-0.5,0.1c-0.3,0-0.7,0.1-1,0.1h-0.1l0-0.1C28.5,21.9,28.3,21.6,28.2,21.2z"/>
	</g>
	<g>
		<polygon class="st0" points="32.5,20.9 32.4,21.4 32.4,21.5 32.4,21.5 31.4,21.8 32.4,21.3 32.3,21.4 32.3,20.9 		"/>
	</g>
	<g>
		<g>
			<path class="st0" d="M32.4,19.2c0,0.1,0.1,0.2,0.1,0.3c0,0,0,0,0,0c0,0,0-0.1,0-0.1C32.4,19.3,32.4,19.2,32.4,19.2
				C32.4,19.1,32.4,19.2,32.4,19.2L32.4,19.2z"/>
		</g>
	</g>
	<g>
		<g>
			<path class="st0" d="M32.3,19.1c0,0.1,0,0.2,0.1,0.3c0,0,0.1,0,0,0C32.4,19.3,32.3,19.2,32.3,19.1C32.3,19.1,32.3,19.1,32.3,19.1
				L32.3,19.1z"/>
		</g>
	</g>
	<g>
		<g>
			<path class="st0" d="M32.2,19.1c0,0.1,0,0.2,0.1,0.2c0,0,0,0,0,0C32.4,19.2,32.3,19.2,32.2,19.1C32.2,19.1,32.2,19.1,32.2,19.1
				C32.2,19,32.2,19.1,32.2,19.1L32.2,19.1z"/>
		</g>
	</g>
	<g>
		<g>
			<path class="st0" d="M32.1,19.1c0,0,0,0.1,0.1,0.1c0,0,0.1,0,0.1,0s0-0.1,0-0.2C32.1,19,32.1,19,32.1,19.1L32.1,19.1z"/>
		</g>
	</g>
	<g>
		<g>
			<path class="st0" d="M32,19.1C32.1,19.1,32.1,19.1,32,19.1C32.1,19.1,32.1,19.1,32,19.1C32.1,19.1,32.1,19.1,32,19.1
				C32.1,19,32,19,32,19.1L32,19.1z"/>
		</g>
	</g>
	<g>
		<g>
			<path class="st0" d="M32,19C32,19.1,32,19.1,32,19C32.1,19.1,32.1,19.1,32,19C32.1,19,32.1,19,32,19C32,18.9,31.9,19,32,19L32,19
				z"/>
		</g>
	</g>
	<g>
		<g>
			<path class="st0" d="M32,19L32,19C32,19.1,32,19,32,19C32,19,32,19,32,19C32,18.9,31.9,19,32,19L32,19z"/>
		</g>
	</g>
	<g>
		<g>
			<path class="st0" d="M31.9,19.2c0,0.1,0,0.1,0.1,0.1c0,0,0,0,0,0C32,19.2,32,19.2,31.9,19.2L31.9,19.2L31.9,19.2z"/>
		</g>
	</g>
	<g>
		<g>
			<path class="st0" d="M32,19.3c0,0.1,0,0.2,0,0.3c0,0,0,0,0,0C32.1,19.5,32.1,19.4,32,19.3C32,19.3,32,19.3,32,19.3L32,19.3z"/>
		</g>
	</g>
	<g>
		<g>
			<path class="st0" d="M29.8,17.9c-0.1,0-0.1,0.1-0.2,0.2c0,0,0,0,0,0C29.8,18,29.8,17.9,29.8,17.9C29.9,17.9,29.9,17.8,29.8,17.9
				L29.8,17.9z"/>
		</g>
	</g>
	<g>
		<g>
			<path class="st0" d="M29.9,17.9c-0.1,0-0.2,0.1-0.2,0.2c0,0,0,0,0,0C29.9,18,29.9,17.9,29.9,17.9C29.9,17.9,29.9,17.9,29.9,17.9
				L29.9,17.9z"/>
		</g>
	</g>
	<g>
		<g>
			<path class="st0" d="M29.9,17.9c-0.1,0-0.1,0-0.1,0.1c0,0,0,0.1,0,0C29.9,18,29.9,17.9,29.9,17.9C30,17.9,29.9,17.9,29.9,17.9
				L29.9,17.9z"/>
		</g>
	</g>
	<g>
		<g>
			<path class="st0" d="M30,17.9c0,0-0.1,0-0.1,0.1C29.8,18,29.9,18,30,17.9C29.9,18,30,18,30,17.9C30,17.9,30,17.9,30,17.9L30,17.9
				z"/>
		</g>
	</g>
	<g>
		<g>
			<path class="st0" d="M30,18C30,18,30,18,30,18C29.9,18,29.9,18,30,18L30,18C30.1,18,30.1,18,30,18L30,18C30.1,18,30,17.9,30,18
				L30,18z"/>
		</g>
	</g>
	<g>
		<g>
			<path class="st0" d="M30,18C30,18,30,18,30,18C30.1,18,30.1,18,30,18C30.1,18,30.1,18,30,18C30,18,30,18,30,18L30,18z"/>
		</g>
	</g>
	<g>
		<g>
			<path class="st0" d="M30.2,18.1C30.2,18.1,30.2,18,30.2,18.1C30.1,18,30.1,18.1,30.2,18.1L30.2,18.1z"/>
		</g>
	</g>
	<g>
		<g>
			<path class="st0" d="M27.1,17.9C27,18,27,18,27,18.1c0,0,0,0,0,0C27,18.1,27.1,18,27.1,17.9C27.1,17.9,27.1,17.9,27.1,17.9
				L27.1,17.9z"/>
		</g>
	</g>
	<g>
		<g>
			<path class="st0" d="M27,18c-0.1,0-0.1,0.1-0.1,0.2c0,0.1,0.1,0.1,0.1,0C27,18.1,27,18,27,18C27,18,27,17.9,27,18L27,18z"/>
		</g>
	</g>
	<g>
		<g>
			<path class="st0" d="M26.8,18.1c0,0-0.1,0.1,0,0.1c0,0,0,0,0,0C26.9,18.2,26.9,18.1,26.8,18.1C26.9,18.1,26.9,18.1,26.8,18.1
				L26.8,18.1z"/>
		</g>
	</g>
	<g>
		<g>
			<path class="st0" d="M26.8,18.2C26.7,18.2,26.7,18.2,26.8,18.2c0,0.1,0,0.1,0,0.1C26.8,18.3,26.8,18.3,26.8,18.2
				C26.8,18.2,26.8,18.1,26.8,18.2L26.8,18.2z"/>
		</g>
	</g>
	<g>
		<g>
			<path class="st0" d="M26.7,18.3C26.7,18.3,26.7,18.3,26.7,18.3C26.7,18.3,26.7,18.3,26.7,18.3C26.8,18.3,26.8,18.3,26.7,18.3
				C26.7,18.2,26.7,18.2,26.7,18.3L26.7,18.3z"/>
		</g>
	</g>
	<g>
		<g>
			<path class="st0" d="M27.7,20.2c-0.1,0-0.2,0.1-0.2,0.2c0,0,0,0,0,0C27.6,20.4,27.7,20.3,27.7,20.2
				C27.7,20.2,27.7,20.2,27.7,20.2L27.7,20.2z"/>
		</g>
	</g>
	<g>
		<g>
			<path class="st0" d="M27.7,20.3c-0.1,0-0.2,0.1-0.2,0.1c0,0,0,0,0,0C27.7,20.5,27.7,20.4,27.7,20.3
				C27.8,20.3,27.7,20.3,27.7,20.3L27.7,20.3z"/>
		</g>
	</g>
	<g>
		<g>
			<path class="st0" d="M27.7,20.4C27.7,20.4,27.7,20.4,27.7,20.4c-0.1,0.1,0,0.2,0,0.1C27.8,20.5,27.8,20.5,27.7,20.4
				C27.8,20.4,27.7,20.3,27.7,20.4L27.7,20.4z"/>
		</g>
	</g>
	<g>
		<g>
			<path class="st0" d="M27.7,20.4C27.7,20.4,27.7,20.5,27.7,20.4C27.6,20.5,27.7,20.6,27.7,20.4C27.7,20.5,27.8,20.5,27.7,20.4
				C27.8,20.4,27.8,20.4,27.7,20.4L27.7,20.4z"/>
		</g>
	</g>
	<g>
		<g>
			<path class="st0" d="M27.8,20.5C27.7,20.5,27.7,20.5,27.8,20.5C27.7,20.6,27.7,20.6,27.8,20.5C27.8,20.6,27.8,20.6,27.8,20.5
				C27.8,20.5,27.8,20.5,27.8,20.5L27.8,20.5z"/>
		</g>
	</g>
	<g>
		<g>
			<path class="st0" d="M27.8,20.5L27.8,20.5C27.7,20.6,27.7,20.6,27.8,20.5L27.8,20.5C27.7,20.6,27.8,20.6,27.8,20.5
				C27.8,20.6,27.8,20.6,27.8,20.5C27.8,20.6,27.8,20.5,27.8,20.5L27.8,20.5z"/>
		</g>
	</g>
	<g>
		<g>
			<path class="st0" d="M27.8,20.6C27.8,20.6,27.8,20.6,27.8,20.6C27.7,20.6,27.7,20.6,27.8,20.6L27.8,20.6
				C27.8,20.6,27.8,20.6,27.8,20.6L27.8,20.6C27.9,20.6,27.8,20.6,27.8,20.6L27.8,20.6z"/>
		</g>
	</g>
	<g>
		<g>
			<path class="st0" d="M27.9,20.7C27.9,20.8,27.9,20.8,27.9,20.7c0.1,0,0.1,0,0.1,0C28,20.7,28,20.7,27.9,20.7
				C27.9,20.7,27.8,20.7,27.9,20.7L27.9,20.7z"/>
		</g>
	</g>
	<g>
		<g>
			<path class="st0" d="M26,21.5c0.1,0.2,0.2,0.3,0.3,0.4c0,0,0.1,0,0.1-0.1c-0.1-0.1-0.2-0.1-0.2-0.2C26.1,21.7,26.1,21.6,26,21.5
				L26,21.5L26,21.5z"/>
		</g>
	</g>
	<g>
		<g>
			<path class="st0" d="M26.3,21.9c0,0.1,0,0.1,0.1,0.1c0,0,0,0,0,0C26.4,21.9,26.4,21.9,26.3,21.9C26.3,21.8,26.3,21.8,26.3,21.9
				L26.3,21.9z"/>
		</g>
	</g>
	<g>
		<g>
			<path class="st0" d="M26.3,21.8C26.4,21.9,26.4,21.9,26.3,21.8C26.4,21.9,26.4,21.9,26.3,21.8c0.1,0.1,0.1,0.1,0.1,0.1
				c0,0,0,0,0,0C26.5,21.8,26.5,21.8,26.3,21.8C26.3,21.8,26.3,21.8,26.3,21.8L26.3,21.8z"/>
		</g>
	</g>
	<g>
		<g>
			<path class="st0" d="M26.4,21.8C26.4,21.8,26.4,21.8,26.4,21.8c0.1,0.1,0.2,0,0.1,0C26.5,21.8,26.5,21.8,26.4,21.8
				C26.4,21.8,26.3,21.8,26.4,21.8L26.4,21.8z"/>
		</g>
	</g>
	<g>
		<g>
			<path class="st0" d="M26.4,21.8C26.4,21.8,26.4,21.8,26.4,21.8c0.1,0,0.1,0,0.1,0C26.5,21.8,26.5,21.8,26.4,21.8
				C26.4,21.7,26.4,21.8,26.4,21.8L26.4,21.8z"/>
		</g>
	</g>
	<g>
		<g>
			<path class="st0" d="M27.5,20.6c0,0,0.1,0.1,0.1,0.1c0,0,0.1,0.1,0.1,0.2c0,0,0,0,0,0c0-0.1-0.1-0.2-0.1-0.2
				C27.6,20.6,27.5,20.5,27.5,20.6L27.5,20.6L27.5,20.6z"/>
		</g>
	</g>
	<g>
		<g>
			<path class="st0" d="M27.5,20.6c0,0.1,0.1,0.2,0.2,0.2s0,0,0,0C27.7,20.7,27.5,20.6,27.5,20.6L27.5,20.6L27.5,20.6z"/>
		</g>
	</g>
	<g>
		<g>
			<path class="st0" d="M27.5,20.7c0,0,0.1,0.1,0.1,0.2c0,0,0.1,0,0.1,0c0,0,0,0,0,0c0,0,0,0,0-0.1C27.6,20.7,27.5,20.7,27.5,20.7
				C27.5,20.7,27.4,20.7,27.5,20.7L27.5,20.7z"/>
		</g>
	</g>
	<g>
		<g>
			<path class="st0" d="M27.5,20.8c0,0,0.1,0.1,0.1,0.1s0,0,0,0C27.6,20.8,27.5,20.8,27.5,20.8C27.5,20.7,27.4,20.8,27.5,20.8
				L27.5,20.8z"/>
		</g>
	</g>
	<g>
		<g>
			<path class="st0" d="M27.4,20.9c0,0,0,0.1,0.1,0.1c0,0,0,0,0,0C27.6,20.9,27.5,20.8,27.4,20.9C27.5,20.7,27.3,20.8,27.4,20.9
				L27.4,20.9z"/>
		</g>
	</g>
	<g>
		<g>
			<path class="st0" d="M27.4,20.9C27.4,20.9,27.4,20.9,27.4,20.9c0.1,0.1,0.1,0.1,0.1,0.1c0,0,0,0,0,0c0,0,0-0.1,0-0.1
				C27.5,20.9,27.5,20.9,27.4,20.9C27.4,20.9,27.4,20.9,27.4,20.9L27.4,20.9z"/>
		</g>
	</g>
	<g>
		<g>
			<path class="st0" d="M27.3,21C27.4,21,27.4,21,27.3,21c0.1,0.1,0.2,0,0.1,0C27.5,20.9,27.4,20.9,27.3,21
				C27.4,20.9,27.3,20.9,27.3,21L27.3,21z"/>
		</g>
	</g>
	<g>
		<g>
			<path class="st0" d="M27.3,21C27.3,21,27.3,21,27.3,21c0.1,0.1,0.1,0.1,0.1,0.1C27.5,21,27.5,21,27.3,21C27.4,21,27.3,21,27.3,21
				L27.3,21z"/>
		</g>
	</g>
	<g>
		<g>
			<path class="st2" d="M32.8,21.3c0.2,0.1,0.4,0.2,0.6,0.3c0.1,0,0.2,0.2,0.3,0.2c0,0,0,0,0,0c0-0.1-0.2-0.2-0.3-0.2
				C33.2,21.4,33,21.3,32.8,21.3C32.8,21.3,32.7,21.3,32.8,21.3L32.8,21.3z"/>
		</g>
	</g>
	<g>
		<g>
			<path class="st2" d="M32.4,19.6c0,0,0.1,0,0.1,0c0.1,0,0.1,0,0.2,0c0,0,0,0,0-0.1C32.6,19.5,32.3,19.4,32.4,19.6L32.4,19.6
				L32.4,19.6z"/>
		</g>
	</g>
	<g>
		<g>
			<path class="st2" d="M32.4,19.6c0.1,0,0.2,0,0.2,0c0,0,0-0.1,0-0.1C32.5,19.5,32.4,19.5,32.4,19.6C32.3,19.6,32.4,19.7,32.4,19.6
				L32.4,19.6z"/>
		</g>
	</g>
	<g>
		<g>
			<path class="st2" d="M32.4,19.7c0.1,0,0.2,0,0.2,0c0,0,0,0,0-0.1c-0.1,0-0.2-0.1-0.2,0C32.3,19.6,32.3,19.7,32.4,19.7L32.4,19.7z
				"/>
		</g>
	</g>
	<g>
		<g>
			<path class="st2" d="M32.4,19.7c0,0,0.1,0,0.1,0c0,0,0,0,0,0C32.4,19.7,32.4,19.7,32.4,19.7C32.3,19.7,32.4,19.7,32.4,19.7
				L32.4,19.7z"/>
		</g>
	</g>
	<g>
		<g>
			<path class="st2" d="M32.4,19.8C32.4,19.8,32.4,19.8,32.4,19.8c0.2,0,0.2-0.1,0.1-0.1C32.4,19.7,32.4,19.7,32.4,19.8
				C32.3,19.7,32.3,19.8,32.4,19.8L32.4,19.8z"/>
		</g>
	</g>
	<g>
		<g>
			<path class="st2" d="M32.4,19.9C32.4,19.9,32.4,19.9,32.4,19.9L32.4,19.9C32.4,19.8,32.4,19.8,32.4,19.9
				C32.4,19.8,32.4,19.9,32.4,19.9L32.4,19.9z"/>
		</g>
	</g>
	<g>
		<g>
			<path class="st2" d="M32.4,19.9L32.4,19.9C32.4,19.9,32.4,19.9,32.4,19.9L32.4,19.9C32.4,19.9,32.4,19.9,32.4,19.9L32.4,19.9z"/>
		</g>
	</g>
	<g>
		<g>
			<path class="st2" d="M32.4,20c0,0.3-0.1,0.6,0,0.8h0C32.4,20.6,32.4,20.3,32.4,20L32.4,20L32.4,20z"/>
		</g>
	</g>
	<g>
		<g>
			<path class="st2" d="M32.4,21L32.4,21C32.4,21,32.4,21,32.4,21L32.4,21C32.5,21,32.3,21,32.4,21L32.4,21z"/>
		</g>
	</g>
	<g>
		<g>
			<path class="st2" d="M32.4,21.1L32.4,21.1L32.4,21.1L32.4,21.1z"/>
		</g>
	</g>
	<g>
		<g>
			<path class="st2" d="M25.8,19.4c0.1,0,0.2,0.1,0.2,0.1c0,0,0,0,0,0C26,19.3,25.9,19.3,25.8,19.4C25.8,19.3,25.8,19.3,25.8,19.4
				L25.8,19.4z"/>
		</g>
	</g>
	<g>
		<g>
			<path class="st2" d="M25.8,19.5c0.1,0,0.2,0.1,0.2,0.1c0,0,0,0,0,0C26.1,19.4,25.9,19.4,25.8,19.5C25.8,19.4,25.8,19.4,25.8,19.5
				L25.8,19.5z"/>
		</g>
	</g>
	<g>
		<g>
			<path class="st2" d="M25.8,19.5c0.1,0,0.1,0.1,0.2,0.1c0,0,0,0,0,0C26,19.5,25.9,19.5,25.8,19.5C25.8,19.5,25.8,19.5,25.8,19.5
				L25.8,19.5z"/>
		</g>
	</g>
	<g>
		<g>
			<path class="st2" d="M25.8,19.6C25.9,19.7,25.9,19.7,25.8,19.6c0.1,0.1,0.2,0,0.2,0C26,19.6,25.9,19.6,25.8,19.6
				C25.8,19.5,25.8,19.6,25.8,19.6L25.8,19.6z"/>
		</g>
	</g>
	<g>
		<g>
			<path class="st2" d="M25.8,19.7c0,0,0.1,0.1,0.1,0c0,0,0-0.1,0-0.1C25.9,19.6,25.9,19.6,25.8,19.7C25.8,19.6,25.8,19.7,25.8,19.7
				L25.8,19.7z"/>
		</g>
	</g>
	<g>
		<g>
			<path class="st2" d="M25.8,19.8C25.9,19.8,25.9,19.8,25.8,19.8c0.1,0.1,0.2,0,0.1-0.1C25.9,19.7,25.9,19.7,25.8,19.8
				C25.8,19.7,25.8,19.7,25.8,19.8L25.8,19.8z"/>
		</g>
	</g>
	<g>
		<g>
			<path class="st2" d="M25.8,19.8L25.8,19.8C25.9,19.8,25.9,19.8,25.8,19.8C25.9,19.8,25.9,19.8,25.8,19.8
				C25.9,19.8,25.8,19.8,25.8,19.8L25.8,19.8z"/>
		</g>
	</g>
	<g>
		<g>
			<path class="st2" d="M25.8,20C25.9,20,25.9,19.9,25.8,20C25.8,19.9,25.8,20,25.8,20L25.8,20z"/>
		</g>
	</g>
	<g>
		<g>
			<path class="st2" d="M27,21.9c0,0.1,0.1,0.1,0.1,0.2c0,0,0,0,0.1,0l0,0c0,0,0,0,0-0.1C27.2,22,27.2,21.9,27,21.9
				C27.1,21.9,27,21.9,27,21.9L27,21.9z"/>
		</g>
	</g>
	<g>
		<g>
			<path class="st2" d="M27.2,21.9c0,0.1,0.1,0.1,0.1,0.2c0,0,0.1,0,0.1-0.1C27.3,22,27.3,22,27.2,21.9
				C27.2,21.9,27.2,21.9,27.2,21.9L27.2,21.9z"/>
		</g>
	</g>
	<g>
		<g>
			<path class="st2" d="M27.2,22C27.3,22,27.3,22,27.2,22c0.1,0.1,0.2,0,0.1,0C27.3,21.9,27.3,21.9,27.2,22
				C27.3,21.9,27.2,22,27.2,22L27.2,22z"/>
		</g>
	</g>
	<g>
		<g>
			<path class="st2" d="M27.3,22C27.4,22,27.4,22,27.3,22C27.4,22,27.4,22,27.3,22C27.4,21.9,27.4,21.9,27.3,22
				C27.3,21.9,27.3,22,27.3,22L27.3,22z"/>
		</g>
	</g>
	<g>
		<g>
			<path class="st2" d="M27.4,22C27.5,22,27.5,22,27.4,22c0.1,0,0.1,0,0.1,0C27.5,21.9,27.5,21.9,27.4,22C27.4,21.9,27.4,22,27.4,22
				L27.4,22z"/>
		</g>
	</g>
	<g>
		<g>
			<path class="st2" d="M27.5,22C27.5,22,27.5,22,27.5,22C27.5,22,27.6,21.9,27.5,22C27.5,21.9,27.5,22,27.5,22
				C27.5,21.9,27.5,22,27.5,22L27.5,22z"/>
		</g>
	</g>
	<g>
		<g>
			<path class="st2" d="M27.6,22C27.7,22,27.7,22,27.6,22C27.7,21.9,27.7,21.9,27.6,22C27.6,21.9,27.6,21.9,27.6,22
				C27.6,21.9,27.6,22,27.6,22L27.6,22z"/>
		</g>
	</g>
</g>
</svg>
