<svg width="41" height="40" viewBox="0 0 41 40" fill="none" xmlns="http://www.w3.org/2000/svg">
<path d="M40.0953 20.0145C40.0905 19.9484 40.0809 19.8826 40.0713 19.8168C40.0617 19.7503 40.0518 19.6841 40.0374 19.6183C40.0233 19.5549 40.0048 19.4929 39.986 19.4302C39.9657 19.3627 39.9452 19.2962 39.9201 19.2304C39.9112 19.2074 39.9068 19.1834 39.8972 19.1608C39.8814 19.1231 39.8598 19.0895 39.8427 19.0528C39.8129 18.9891 39.7824 18.9264 39.7474 18.8647C39.7142 18.8061 39.6782 18.7502 39.6408 18.6944C39.6038 18.6392 39.5665 18.5847 39.5253 18.5316C39.4815 18.4754 39.4349 18.4226 39.3872 18.3701C39.3605 18.3407 39.3382 18.3081 39.3098 18.2793C38.7864 17.7526 38.3412 17.3084 37.9194 16.8879L35.4874 14.4566C34.973 13.9426 34.2759 13.6537 33.5487 13.6537H25.9184V6.23998C25.9184 5.32458 25.4681 4.51645 24.7789 4.01814V3.42729C24.7789 1.91316 23.5513 0.685547 22.0371 0.685547H19.2745C17.7603 0.685547 16.5327 1.91316 16.5327 3.42729V3.49789H6.55175C5.8245 3.49789 5.12741 3.7868 4.61299 4.30088L3.88266 5.03053C3.45666 5.4555 3.07624 5.83523 2.71228 6.20194C2.33117 6.5803 1.95144 6.96037 1.52716 7.38603L0.796825 8.11705C0.765981 8.14789 0.741647 8.18319 0.712173 8.21541C0.666249 8.26579 0.62101 8.31617 0.578856 8.37032C0.535673 8.42549 0.496604 8.48273 0.45822 8.54065C0.422577 8.59411 0.38762 8.64723 0.355747 8.70344C0.319419 8.76753 0.287546 8.83333 0.256359 8.90016C0.239566 8.93649 0.217974 8.96973 0.202552 9.00709C0.193984 9.02765 0.189872 9.0489 0.181989 9.0698C0.1556 9.138 0.134351 9.20757 0.113445 9.27749C0.0956241 9.33781 0.0771174 9.39813 0.0634087 9.45913C0.0483291 9.5263 0.0387324 9.59416 0.0287935 9.66236C0.0191974 9.72714 0.0092589 9.79191 0.00446085 9.85668C-0.000337203 9.92317 5.34779e-06 9.98966 5.34779e-06 10.0565C5.34779e-06 10.1233 -0.000337203 10.1898 0.00446085 10.2563C0.0092589 10.3214 0.0191974 10.3862 0.0287935 10.451C0.0387324 10.5188 0.0483291 10.5863 0.0634087 10.6535C0.0771174 10.7152 0.095624 10.7755 0.113788 10.8365C0.134351 10.9057 0.155256 10.9746 0.181646 11.0421C0.189528 11.0631 0.193984 11.0846 0.202552 11.1055C0.218317 11.1436 0.240251 11.1772 0.257386 11.2142C0.287888 11.2796 0.319076 11.3444 0.355061 11.4075C0.387619 11.4651 0.423605 11.5196 0.459933 11.5744C0.497632 11.6309 0.535674 11.6865 0.577486 11.7403C0.621011 11.7958 0.667621 11.8482 0.714916 11.9C0.743019 11.9308 0.766666 11.9651 0.796483 11.9949C2.28491 13.484 3.12217 14.3209 4.61573 15.8097C5.12947 16.3221 5.82553 16.6099 6.5514 16.6099H13.8465V24.0281C13.8465 25.5234 15.0443 26.7369 16.5324 26.7671V29.4238C16.4889 29.4231 16.446 29.4225 16.4083 29.4225C16.3271 29.4225 16.249 29.4238 16.1753 29.4262C15.0991 29.4608 14.143 30.1216 13.7303 31.1162C13.3393 32.059 13.5117 33.1327 14.1573 33.9121C13.4284 34.5492 12.965 35.4834 12.965 36.5256C12.965 38.4414 14.5234 40.0001 16.4392 40.0001H25.3012C27.2142 40.0001 28.7708 38.4414 28.7708 36.5256C28.7708 35.6346 28.4312 34.8234 27.8784 34.2078C27.9775 33.7534 27.9685 33.2722 27.8219 32.8054C27.5497 31.9397 26.8766 31.2875 26.0493 31.0199C25.7316 30.5651 25.2871 30.2254 24.7785 30.0315V26.7702H33.5483C34.2742 26.7702 34.9703 26.4823 35.484 25.9699C36.9783 24.4798 37.8165 23.6422 39.306 22.1483C39.3351 22.1191 39.3581 22.0856 39.3859 22.0554C39.4332 22.0036 39.4791 21.9515 39.5226 21.896C39.5644 21.8426 39.6025 21.787 39.6398 21.7312C39.6765 21.6763 39.7121 21.6215 39.745 21.5636C39.7807 21.5009 39.8119 21.4368 39.842 21.3717C39.8588 21.3357 39.8804 21.3028 39.8955 21.2658C39.9047 21.2438 39.9092 21.2209 39.9178 21.1989C39.9438 21.1318 39.9647 21.0636 39.9853 20.9947C40.0034 20.9333 40.0219 20.8723 40.036 20.8103C40.0511 20.7438 40.0607 20.6766 40.0706 20.6088C40.0802 20.5437 40.0898 20.4789 40.0946 20.4138C40.0994 20.3469 40.0994 20.2805 40.0994 20.2133C40.0997 20.1461 40.1001 20.0803 40.0953 20.0145Z" fill="#AFBDC4"/>
<path d="M40.0953 19.329C40.0905 19.2628 40.0809 19.197 40.0713 19.1312C40.0617 19.0647 40.0518 18.9986 40.0374 18.9328C40.0233 18.8694 40.0048 18.8073 39.986 18.7446C39.9657 18.6771 39.9452 18.6106 39.9201 18.5448C39.9112 18.5219 39.9068 18.4979 39.8972 18.4752C39.8814 18.4375 39.8598 18.404 39.8427 18.3673C39.8129 18.3035 39.7824 18.2408 39.7474 18.1791C39.7142 18.1205 39.6782 18.0647 39.6408 18.0088C39.6038 17.9536 39.5665 17.8991 39.5253 17.846C39.4815 17.7898 39.4349 17.737 39.3872 17.6846C39.3605 17.6551 39.3382 17.6226 39.3098 17.5938C38.7864 17.067 38.3412 16.6229 37.9194 16.2023L35.4874 13.7711C34.973 13.257 34.2759 12.9681 33.5487 12.9681H25.9184V5.55443C25.9184 4.63903 25.4681 3.8309 24.7789 3.33259V2.74174C24.7789 1.22762 23.5513 0 22.0371 0H19.2745C17.7603 0 16.5327 1.22762 16.5327 2.74174V2.81235H6.55175C5.8245 2.81235 5.12741 3.10126 4.61299 3.61533L3.88266 4.34498C3.45666 4.76995 3.07624 5.14968 2.71228 5.51639C2.33117 5.89475 1.95144 6.27483 1.52716 6.70048L0.796825 7.4315C0.765981 7.46235 0.741647 7.49764 0.712173 7.52986C0.666249 7.58024 0.62101 7.63062 0.578856 7.68477C0.535673 7.73995 0.496604 7.79718 0.45822 7.8551C0.422577 7.90856 0.38762 7.96169 0.355747 8.01789C0.319419 8.08198 0.287546 8.14778 0.256359 8.21461C0.239566 8.25094 0.217974 8.28418 0.202552 8.32154C0.193984 8.3421 0.189872 8.36335 0.181989 8.38426C0.1556 8.45246 0.134351 8.52203 0.113445 8.59194C0.0956241 8.65226 0.0771174 8.71258 0.0634087 8.77359C0.0483291 8.84076 0.0387324 8.90861 0.0287935 8.97682C0.0191974 9.04159 0.0092589 9.10636 0.00446085 9.17114C-0.000337203 9.23762 5.34779e-06 9.30411 5.34779e-06 9.37094C5.34779e-06 9.43777 -0.000337203 9.50426 0.00446085 9.57075C0.0092589 9.63586 0.0191974 9.70064 0.0287935 9.76541C0.0387324 9.83327 0.0483291 9.90078 0.0634087 9.96796C0.0771174 10.0296 0.095624 10.09 0.113788 10.151C0.134351 10.2202 0.155256 10.2891 0.181646 10.3566C0.189528 10.3775 0.193984 10.3991 0.202552 10.42C0.218317 10.458 0.240251 10.4916 0.257386 10.5286C0.287888 10.5941 0.319076 10.6589 0.355061 10.7219C0.387619 10.7795 0.423605 10.834 0.459933 10.8888C0.497632 10.9454 0.535674 11.0009 0.577486 11.0547C0.621011 11.1102 0.667621 11.1627 0.714916 11.2144C0.743019 11.2453 0.766666 11.2795 0.796483 11.3094C2.28491 12.7985 3.12217 13.6354 4.61573 15.1242C5.12947 15.6365 5.82553 15.9244 6.5514 15.9244H13.8465V23.3425C13.8465 24.8378 15.0443 26.0514 16.5324 26.0815V28.7383C16.4889 28.7376 16.446 28.7369 16.4083 28.7369C16.3271 28.7369 16.249 28.7383 16.1753 28.7407C15.0991 28.7753 14.143 29.4361 13.7303 30.4306C13.3393 31.3734 13.5117 32.4472 14.1573 33.2265C13.4284 33.8636 12.965 34.7979 12.965 35.8401C12.965 37.7559 14.5234 39.3146 16.4392 39.3146H25.3012C27.2142 39.3146 28.7708 37.7559 28.7708 35.8401C28.7708 34.949 28.4312 34.1378 27.8784 33.5223C27.9775 33.0678 27.9685 32.5867 27.8219 32.1199C27.5497 31.2542 26.8766 30.602 26.0493 30.3343C25.7316 29.8795 25.2871 29.5399 24.7785 29.3459V26.0846H33.5483C34.2742 26.0846 34.9703 25.7967 35.484 25.2844C36.9783 23.7942 37.8165 22.9566 39.306 21.4627C39.3351 21.4336 39.3581 21.4 39.3859 21.3698C39.4332 21.3181 39.4791 21.266 39.5226 21.2105C39.5644 21.157 39.6025 21.1015 39.6398 21.0456C39.6765 20.9908 39.7121 20.936 39.745 20.878C39.7807 20.8153 39.8119 20.7512 39.842 20.6861C39.8588 20.6501 39.8804 20.6172 39.8955 20.5802C39.9047 20.5583 39.9092 20.5353 39.9178 20.5134C39.9438 20.4462 39.9647 20.378 39.9853 20.3091C40.0034 20.2478 40.0219 20.1868 40.036 20.1248C40.0511 20.0583 40.0607 19.9911 40.0706 19.9232C40.0802 19.8581 40.0898 19.7933 40.0946 19.7282C40.0994 19.6614 40.0994 19.5949 40.0994 19.5277C40.0997 19.4606 40.1001 19.3948 40.0953 19.329Z" fill="white"/>
<path d="M24.0743 35.8418C24.0743 35.5796 24.0832 35.3352 24.1013 35.1094H25.2995C25.7018 35.1094 26.0274 35.4394 26.0274 35.8418C26.0274 36.2441 25.7018 36.5742 25.2995 36.5742H16.4375C16.0351 36.5742 15.7051 36.2441 15.7051 35.8418C15.7051 35.4394 16.0351 35.1094 16.4375 35.1094H17.7669C17.8121 35.376 17.8303 35.6248 17.8303 35.8418H20.1138H22.5961H24.0743Z" fill="#DEF0F0"/>
<path d="M22.8344 33.8425C22.6761 34.471 22.5948 35.1626 22.5948 35.8409H20.1125C20.0899 35.2891 20.1848 34.5749 20.5238 33.9055C20.8178 33.3178 21.2925 32.7615 22.0338 32.3863C22.5085 32.1374 23.0918 31.9657 23.8016 31.9023C23.3677 32.3362 23.0421 33.0371 22.8341 33.8373C22.8341 33.8373 22.8299 33.8377 22.8344 33.8425Z" fill="#00695B"/>
<path d="M24.1013 35.109C24.0831 35.3352 24.0742 35.5792 24.0742 35.8414H22.5957C22.5957 35.1631 22.6769 34.4715 22.8353 33.843C22.8308 33.8385 22.8353 33.8385 22.8353 33.8385C23.3463 33.1696 24.6979 32.9615 25.2045 32.9434C24.531 33.3772 24.2007 34.0462 24.1013 35.109Z" fill="#00887B"/>
<path d="M19.2712 32.2785C19.8138 32.6449 20.275 33.1692 20.5235 33.9061C20.1846 34.5754 20.0896 35.2896 20.1123 35.8414H17.8287C17.8287 35.6245 17.8106 35.3756 17.7653 35.109C17.5981 33.9153 17.0511 32.3282 16.2598 31.4827C16.9699 31.4601 18.2585 31.6003 19.2712 32.2785Z" fill="#00887B"/>
<path d="M21.1859 2.74414H19.2715V5.55649H21.1859V2.74414Z" fill="#5D4037"/>
<path d="M22.0354 2.74414H21.1875V5.55649H22.0354V2.74414Z" fill="#4E342E"/>
<path d="M22.0354 13.1836H21.1875V15.7111H22.0354V13.1836Z" fill="#4E342E"/>
<path d="M21.1859 13.1836H19.2715V15.7111H21.1859V13.1836Z" fill="#5D4037"/>
<path d="M22.0354 32.3867V23.3438H21.1875V32.9943C21.4216 32.7644 21.6999 32.5564 22.0354 32.3867Z" fill="#4E342E"/>
<path d="M19.2718 32.2781C19.8143 32.6444 20.2756 33.1688 20.5241 33.9056C20.6852 33.5838 20.9028 33.2726 21.1863 32.9943V23.3438H19.2715L19.2718 32.2781Z" fill="#5D4037"/>
<path d="M23.1732 5.55664H22.0336H19.271H6.54825C5.80215 6.30274 5.21884 6.88159 4.64033 7.46455C4.05703 8.0434 3.47852 8.62671 2.73242 9.37246H23.1732V5.55664Z" fill="#A0877F"/>
<path d="M2.73242 9.37305C4.21982 10.8604 5.05639 11.697 6.54859 13.1848H19.2713H22.034H23.1735V9.37305H2.73242Z" fill="#8C6E63"/>
<path d="M16.5859 23.3435H19.2718H22.0345H33.546C35.0382 21.8561 35.8745 21.0195 37.3622 19.5273H16.5859V23.3435Z" fill="#FEC007"/>
<path d="M35.4539 17.6188C34.8751 17.04 34.2918 16.4567 33.546 15.7109H22.0345H19.2718H16.5859V19.5271H37.3618C36.6205 18.7807 36.0372 18.2018 35.4539 17.6188Z" fill="#FEC928"/>
</svg>
