<?xml version="1.0" encoding="utf-8"?>
<!-- Generator: Adobe Illustrator 23.0.2, SVG Export Plug-In . SVG Version: 6.00 Build 0)  -->
<svg version="1.1" id="Layer_1" xmlns="http://www.w3.org/2000/svg" xmlns:xlink="http://www.w3.org/1999/xlink" x="0px" y="0px"
	 viewBox="0 0 48 41" style="enable-background:new 0 0 48 41;" xml:space="preserve">
<style type="text/css">
	.st0{fill:#292828;}
	.st1{fill:#B4B4B4;}
	.st2{fill:#363636;}
	.st3{fill:#848484;}
	.st4{fill:#606060;}
</style>
<g>
	<path class="st0" d="M25,26.2c0,0.1,0.1,0.2,0.1,0.3c0,0.1,0,0.1-0.1,0.1s-0.1,0-0.2-0.1c-0.1-0.1-0.2-0.2-0.2-0.2c0,0,0,0,0-0.1
		c0,0,0,0.1,0,0.1s0,0.1,0,0.1s0,0.1-0.1,0c-0.1,0-0.1,0-0.2-0.1C24.1,26.3,24,26.2,24,26c-0.1-0.2-0.2-0.3-0.3-0.5c0,0,0,0,0,0l0,0
		c-0.1,0.1-0.1,0.1-0.2,0.1c-0.1-0.1-0.1-0.1-0.2-0.2c-0.1-0.2-0.2-0.5-0.3-0.7c-0.1-0.2-0.1-0.5-0.2-0.7c0,0,0-0.1-0.1-0.1
		c0,0,0,0-0.1,0c-0.1,0-0.1,0-0.2,0s-0.1,0-0.2-0.1c0,0,0,0-0.1,0c0,0,0,0,0,0c0,0.1,0,0.1-0.1,0.2c0,0,0,0.1-0.1,0.1
		C22,24,22,24.1,22,24.2c0,0,0,0,0,0c0,0,0,0-0.2-0.1c0,0.1,0,0.2,0,0.2c-0.1,0-0.1,0-0.2-0.1c0,0,0,0.1,0,0.1c0,0.1,0,0.1-0.1,0
		c-0.1,0-0.2-0.1-0.2-0.2c0,0-0.1-0.1-0.1-0.1c0,0-0.1,0-0.1,0c0,0,0,0,0,0c0,0,0,0.1-0.1,0.1c-0.1,0-0.1,0-0.1-0.1
		c0,0.1-0.1,0.1-0.1,0.2c0,0-0.1-0.1-0.1-0.2c-0.1,0.1-0.1,0.1-0.2,0.2l0,0c0-0.1,0-0.1,0-0.2c-0.1,0-0.1,0-0.2,0c0,0,0,0,0,0.1
		c0,0.1,0,0.2-0.1,0.3c-0.1,0.1-0.1,0.1-0.2,0.1c0,0-0.1,0-0.1,0c0,0,0,0,0.1,0c0,0,0.1-0.1,0.1-0.1s0,0,0-0.1c0,0-0.1-0.1,0-0.2
		c0-0.1,0-0.1-0.1-0.1c-0.1,0-0.1,0-0.1,0c0,0,0,0,0,0c0,0.1-0.1,0.1-0.2,0.1c0,0,0,0,0,0c0,0,0,0.1-0.1,0.2v0c0-0.1-0.1-0.2,0-0.3
		c0,0,0-0.1,0.1-0.1l0,0c0,0,0-0.1,0-0.1h0c0,0-0.1,0.1-0.1,0.1c0,0,0,0-0.1,0.1c0-0.1,0-0.1,0-0.2c0,0-0.1,0-0.1,0c0-0.1,0,0,0,0
		c0,0.1,0,0.3-0.1,0.4c-0.1,0.1-0.1,0.1-0.3,0.1c0,0,0.1,0,0.1,0c0,0,0.1-0.1,0.1-0.1c0,0,0,0,0-0.1c0,0,0-0.1,0-0.2
		c0-0.1,0-0.1-0.1-0.1c0,0-0.1,0-0.1,0c0,0,0,0,0,0c0,0.1-0.1,0.1-0.2,0.1c0,0,0,0,0,0c0,0,0,0.1-0.1,0.2c0,0,0,0,0,0.1
		c0-0.1-0.1-0.2,0-0.2c0,0,0-0.1,0.1-0.1l0,0c0,0,0-0.1,0-0.1c0,0,0,0,0,0c0,0-0.1,0.1-0.1,0.1l0,0c0-0.1,0-0.1,0-0.2
		c0-0.1,0.1-0.1,0.1-0.1c0,0,0,0,0.1,0c0.1-0.1,0.1-0.1,0.2-0.1c0,0,0.1,0,0.1,0c0,0,0,0,0,0c0.1,0,0.1,0.1,0.1,0.1
		c0,0,0.1,0.1,0.1,0.1c0,0,0,0,0.1,0c0.2,0,0.4,0,0.6-0.1l0,0c0.1-0.1,0.3-0.3,0.4-0.4c0-0.1,0.1-0.1,0.1-0.1c0.1,0,0.1-0.1,0.2-0.2
		c0,0,0,0,0.1-0.1c0,0,0-0.1,0-0.1c0-0.1,0-0.2-0.1-0.3c-0.1-0.2-0.2-0.4-0.4-0.5c0,0-0.1,0-0.1,0c-0.2,0-0.3,0.1-0.5,0.1
		c0,0-0.1,0-0.2,0c0,0,0,0,0,0c0,0,0,0.1,0,0.1c-0.1-0.1-0.2-0.2-0.2-0.3c0-0.1,0.1-0.2,0.1-0.3h0c-0.1,0-0.1-0.1-0.1-0.2
		c0,0,0-0.1,0.1-0.1c0-0.1,0.1-0.2,0.1-0.3c0.1-0.2,0.2-0.3,0.3-0.4c0.1,0,0.1-0.1,0.2-0.1c0.1-0.1,0.2-0.2,0.2-0.3c0,0,0,0.1,0,0.1
		c0,0,0,0.1,0,0.1c0.1-0.1,0.2-0.1,0.4-0.2c0,0.1,0,0.1-0.1,0.2c0,0,0,0,0,0c0,0,0.1,0,0.1,0c0,0,0,0,0,0c0-0.1,0-0.2,0-0.3
		c0-0.3-0.1-0.5-0.2-0.8c-0.1-0.3-0.2-0.5-0.3-0.8c-0.1-0.2-0.1-0.5,0-0.7c0-0.2,0.1-0.4,0.2-0.5c0.1-0.3,0.2-0.5,0.2-0.8
		c0-0.2,0-0.4,0-0.6c0-0.2-0.1-0.5-0.1-0.7c0-0.1,0-0.1,0.1-0.1c0.1,0,0.2,0.1,0.2,0.2c0,0,0.1,0.1,0.1,0.1c0.1,0.1,0.1,0.2,0.2,0.2
		c0,0,0,0,0,0c0.1,0,0.1,0.1,0.2,0.2c0,0.1,0.1,0.1,0.1,0.2c0,0,0,0,0,0c0.1,0,0.1,0.1,0.2,0.1c0.1,0.1,0.2,0.3,0.3,0.5
		c0,0.1,0.1,0.2,0.1,0.4c0,0,0,0,0,0.1c0.1,0.1,0.2,0.2,0.2,0.3c0.1,0.2,0.3,0.5,0.4,0.7l0,0c0,0,0-0.1,0.1-0.1
		c0.1-0.2,0.2-0.3,0.4-0.4c0.3-0.2,0.5-0.5,0.8-0.7c0.5-0.4,1-0.8,1.5-1.3c0.1-0.1,0.3-0.3,0.4-0.4c0,0,0,0,0,0c0,0,0,0.1,0,0.1
		c0,0.1-0.1,0.2-0.2,0.4c-0.1,0.2-0.3,0.4-0.4,0.5l0,0h0c0.6-0.5,1.3-0.9,1.9-1.4c0.1-0.1,0.2-0.1,0.3-0.2c0,0,0.1,0,0.1,0
		c0.1,0,0.1,0,0.1,0.1c0,0.1-0.1,0.2-0.1,0.2c-0.1,0.2-0.3,0.4-0.5,0.5c-0.2,0.2-0.4,0.4-0.7,0.5c0,0,0,0,0,0c0,0,0,0,0,0
		c0.4-0.2,0.8-0.4,1.2-0.5c0.3-0.1,0.6-0.3,0.9-0.4c0.1,0,0.2,0,0.3,0h0c0.1,0,0.1,0.1,0,0.1c-0.1,0.1-0.2,0.2-0.3,0.2
		c-0.3,0.2-0.7,0.5-1,0.6c0,0,0,0,0,0h0c0.4-0.1,0.7-0.2,1.1-0.2c0.3-0.1,0.5-0.1,0.6-0.1c0,0,0,0,0.1,0c0,0,0.1,0,0.1,0.1v0
		c-0.1,0.1-0.2,0.1-0.3,0.2c-0.3,0.1-0.6,0.3-1,0.4c-0.3,0.1-0.6,0.2-0.9,0.3c0,0,0.1,0,0.1,0c0.5-0.1,0.9-0.1,1.3-0.1
		c0.1,0,0.2,0,0.3,0l0,0c0,0,0.1,0,0.1,0c0,0,0,0.1,0,0.1c-0.1,0.1-0.2,0.1-0.3,0.1c-0.1,0.1-0.3,0.1-0.5,0.2c0.1,0,0.2,0,0.2,0
		c0,0,0.1,0,0.1,0.1c0.1,0,0.1,0.1,0,0.1c0,0-0.1,0.1-0.1,0.1c-0.1,0.1-0.2,0.1-0.2,0.1c0,0,0,0,0.1,0c0,0,0.1,0,0.1,0
		c0.1,0,0.1,0.1,0,0.2c-0.1,0.1-0.1,0.1-0.2,0.1c-0.1,0-0.1,0.1-0.2,0.1c0,0,0.1,0,0.1,0c0,0,0.1,0,0.1,0.1c0,0,0,0.1,0,0.1
		c0,0-0.1,0.1-0.1,0.1c-0.1,0.1-0.2,0.1-0.3,0.1c0,0,0,0,0.1,0c0,0,0.1,0,0.1,0.1c0,0,0,0.1,0,0.1c-0.1,0.1-0.1,0.1-0.2,0.1
		c-0.1,0-0.1,0.1-0.2,0.1c0,0,0,0,0.1,0c0,0,0.1,0,0.1,0c0.1,0,0.1,0.1,0,0.1c-0.1,0.1-0.1,0.1-0.2,0.1c-0.1,0-0.1,0.1-0.2,0.1
		c0,0,0.1,0,0.1,0.1c0.1,0.1,0.1,0.1,0,0.2c-0.1,0.1-0.2,0.1-0.3,0.2c0,0-0.1,0-0.1,0c0,0,0.1,0,0.1,0.1c0.1,0.1,0.1,0.1,0,0.2
		c-0.1,0.1-0.2,0.1-0.3,0.1c0,0-0.1,0-0.1,0c0,0,0.1,0,0.1,0.1c0.1,0.1,0.1,0.1,0,0.2s-0.2,0.1-0.3,0.1c-0.1,0-0.1,0-0.2,0
		c0,0,0.1,0,0.1,0c0.1,0.1,0.1,0.1,0,0.2c-0.1,0.1-0.2,0.1-0.3,0.1c0,0-0.1,0-0.1,0c0,0,0,0,0,0c0.1,0,0.1,0.1,0,0.2
		s-0.2,0.1-0.3,0.1c0,0,0,0-0.1,0c0,0,0.1,0,0.1,0.1c0,0,0,0.1,0,0.1c-0.1,0.1-0.2,0.1-0.3,0.1c0,0-0.1,0-0.1,0c0,0,0,0,0.1,0.1
		c0,0.1,0,0.1,0,0.1c-0.1,0-0.1,0.1-0.2,0.1c-0.1,0-0.2,0-0.2,0c0,0,0,0,0,0c0,0,0,0,0.1,0.1c0,0.1,0,0.1,0,0.1
		c-0.1,0-0.2,0.1-0.2,0.1s-0.1,0-0.2,0c0,0,0,0,0,0.1c0,0.1,0,0.1,0,0.2c-0.1,0-0.2,0.1-0.3,0.1c-0.3,0-0.6,0-0.9-0.2l0,0l0,0
		c0.2,0.4,0.4,0.8,0.5,1.3c0,0,0,0,0,0c0.3,0.4,0.6,0.8,1,1.2c0.2,0.2,0.3,0.5,0.4,0.8c0,0,0,0,0,0.1c0,0.1,0,0.1-0.1,0.1
		c0,0,0,0-0.1,0c0,0.1,0.1,0.1,0.1,0.2c0.1,0.2,0.2,0.4,0.2,0.5c0,0,0,0.1,0,0.1c0,0.1,0,0.1-0.1,0.1c-0.1,0-0.1,0-0.1-0.1
		c0,0,0,0,0,0l0,0l0,0c0,0.1,0.1,0.2,0.1,0.3c0,0,0,0.1,0,0.1c0,0.1,0,0.1-0.1,0.1s-0.1-0.1-0.2-0.2C25.1,26.2,25,26.2,25,26.2
		C25,26.2,25,26.2,25,26.2C25,26.2,25,26.2,25,26.2z M24.3,25.8L24.3,25.8L24.3,25.8L24.3,25.8L24.3,25.8
		C24.3,25.8,24.3,25.8,24.3,25.8c0.2,0.2,0.3,0.4,0.4,0.5c0.1,0.1,0.1,0.1,0.2,0.2c0,0,0.1,0,0.1,0.1c0,0,0.1,0,0.1-0.1v0
		c0-0.1,0-0.2-0.1-0.2c0-0.1,0-0.1-0.1-0.2c0-0.1-0.1-0.1-0.1-0.2c0,0,0,0,0,0c0,0-0.1,0-0.1,0c-0.1,0-0.2-0.1-0.3-0.1
		C24.3,25.8,24.3,25.8,24.3,25.8L24.3,25.8z M25.3,16L25.3,16L25.3,16C25.4,16,25.4,16,25.3,16C25.3,15.9,25.3,16,25.3,16z
		 M23.1,25.1L23.1,25.1L23.1,25.1L23.1,25.1c0.1,0.2,0.1,0.3,0.2,0.4c0,0,0.1,0.1,0.1,0.1c0,0,0.1,0,0.1,0c0,0,0-0.1,0-0.1
		c0-0.1,0-0.1-0.1-0.2c0,0-0.1,0-0.1,0C23.4,25.3,23.3,25.2,23.1,25.1C23.2,25.1,23.2,25.1,23.1,25.1z M24.9,16c0,0,0.1,0,0.1-0.1
		c0.1,0,0.3-0.1,0.4-0.1c0,0,0,0,0.1,0c0.1-0.1,0.2-0.2,0.2-0.3c0.1-0.1,0.2-0.3,0.2-0.4c0,0,0-0.1,0-0.1c-0.1,0.1-0.1,0.1-0.2,0.2
		c-0.2,0.2-0.4,0.4-0.5,0.5C25.1,15.8,25,15.8,24.9,16C25,15.9,24.9,15.9,24.9,16L24.9,16C24.9,16,24.9,16,24.9,16
		C24.9,16,24.9,16,24.9,16z M26.2,15.5C26.2,15.5,26.2,15.4,26.2,15.5c0.3-0.1,0.5-0.2,0.8-0.2c0,0,0,0,0.1,0
		c0.1-0.1,0.2-0.1,0.2-0.2c0.2-0.2,0.3-0.3,0.4-0.5c0-0.1,0.1-0.1,0.1-0.2c0,0-0.1,0-0.1,0c-0.1,0.1-0.2,0.2-0.3,0.2
		c-0.3,0.2-0.6,0.5-1,0.7C26.3,15.4,26.2,15.4,26.2,15.5L26.2,15.5L26.2,15.5z M27,15.5L27,15.5c0.2,0,0.4-0.1,0.6,0
		c0.1,0,0.2,0,0.3,0h0c0.3-0.2,0.6-0.4,0.9-0.6c0.1,0,0.1-0.1,0.1-0.1c0,0,0,0-0.1,0c-0.1,0-0.2,0-0.3,0c-0.3,0.1-0.5,0.2-0.8,0.3
		c-0.2,0.1-0.4,0.2-0.6,0.3C27.1,15.5,27,15.5,27,15.5L27,15.5L27,15.5L27,15.5z M22.2,16.9L22.2,16.9L22.2,16.9L22.2,16.9
		c0,0.1,0,0.1,0.1,0.2c0.1,0.2,0.1,0.4,0.2,0.5c0,0,0,0,0,0c0,0,0,0,0,0c0,0,0,0,0,0c0-0.1-0.1-0.1-0.1-0.2
		C22.2,17.3,22.1,17.1,22.2,16.9c-0.2-0.3-0.2-0.5-0.4-0.7c-0.1-0.1-0.1-0.2-0.2-0.2c0,0-0.1,0-0.1-0.1c0,0.1,0,0.1,0,0.2
		c0,0.2,0.1,0.3,0.1,0.5v0c0,0,0,0,0,0c0,0,0-0.1,0-0.1c0-0.2-0.1-0.4-0.2-0.6c-0.1-0.1-0.1-0.3-0.2-0.4c0,0-0.1,0-0.1-0.1
		c0,0,0,0,0,0c0.1,0.2,0.1,0.5,0.1,0.7c0,0.1,0,0.2,0,0.3v0c0,0,0,0,0,0c0-0.1,0-0.2,0-0.3s0-0.1,0-0.2c0-0.2,0-0.3-0.1-0.5
		c0-0.1-0.1-0.2-0.1-0.3c-0.1-0.1-0.1-0.1-0.2-0.2c0,0-0.1-0.1-0.2-0.1c0,0,0,0,0,0c0,0.2,0.1,0.3,0.1,0.5c0,0.2,0,0.3,0,0.5
		c0,0.1,0,0.2,0,0.3c0,0.1,0,0.2-0.1,0.3c-0.1,0.3-0.2,0.6-0.3,0.9c-0.1,0.2-0.1,0.4-0.2,0.5c0,0.1,0,0.3,0,0.4
		c0,0.2,0.1,0.3,0.2,0.5c0.1,0.3,0.2,0.5,0.3,0.8c0.1,0.2,0.1,0.4,0.1,0.5c0,0,0,0.1,0,0.1l0,0l0,0h0c0.1,0,0.2,0,0.4-0.1
		c0.2,0,0.3,0,0.5,0c0,0,0,0,0.1,0c0.1-0.1,0.1-0.1,0.2-0.2c0.1-0.1,0.2-0.2,0.2-0.3c0.1-0.2,0.2-0.4,0.3-0.5
		c0.1-0.1,0.1-0.3,0.2-0.4c0.1-0.2,0.1-0.5,0.2-0.7c0,0,0-0.1,0-0.1c0-0.1-0.1-0.2-0.1-0.2C22.4,17.4,22.3,17.1,22.2,16.9
		C22.2,16.9,22.2,16.9,22.2,16.9z M23.8,23L23.8,23c0-0.1-0.1-0.3-0.1-0.4c-0.1-0.3-0.2-0.5-0.3-0.8c-0.1-0.1-0.1-0.2-0.2-0.2
		c0,0-0.1,0-0.1-0.1c0,0-0.1-0.1-0.1-0.1c0,0,0,0,0,0c0.2,0.1,0.4,0.3,0.6,0.3c0.2,0,0.3,0,0.4,0c0,0,0.1,0,0.1-0.1c0,0,0,0,0,0
		c0,0-0.1,0-0.1,0c-0.3-0.1-0.5-0.2-0.7-0.3c0,0,0,0,0,0h0c0.2,0.1,0.4,0.2,0.6,0.3c0.1,0,0.2,0,0.2,0c0.1,0,0.2,0,0.3-0.1
		c0,0,0.1-0.1,0.1-0.1c0,0,0,0,0,0c-0.1,0-0.3,0-0.4-0.1c-0.2-0.1-0.4-0.1-0.5-0.2c0,0,0,0,0,0c0,0,0,0,0,0c0.2,0.1,0.5,0.2,0.7,0.2
		c0.2,0,0.3,0,0.4-0.1c0,0,0.1-0.1,0.1-0.1c0,0,0,0,0,0c-0.2,0-0.3,0-0.5-0.1c-0.2,0-0.3-0.1-0.5-0.2c0,0,0,0,0,0c0,0,0,0,0,0
		c0.2,0.1,0.5,0.2,0.7,0.2c0.1,0,0.2,0,0.2,0c0.1,0,0.3-0.1,0.4-0.2c0,0,0,0,0-0.1c-0.2,0-0.4,0-0.5,0c-0.2,0-0.4-0.1-0.5-0.1
		c0,0,0,0,0,0h0l0,0c0.3,0.1,0.6,0.1,0.9,0.2c0,0,0.1,0,0.1,0c0.1,0,0.2-0.1,0.3-0.1c0,0,0.1-0.1,0.1-0.1c0,0,0,0,0,0
		c-0.2,0-0.4,0-0.6,0c-0.2,0-0.3-0.1-0.5-0.1c0,0,0,0,0,0h0c0.2,0.1,0.4,0.1,0.6,0.1c0.1,0,0.2,0,0.3,0c0.1,0,0.3-0.1,0.4-0.2
		c0,0,0,0,0.1-0.1c0,0,0,0,0,0c0,0-0.1,0-0.1,0c-0.3,0-0.5,0-0.8-0.1c-0.1,0-0.1,0-0.2,0c0,0,0,0,0,0c0,0,0,0,0,0h0
		c0.3,0,0.5,0.1,0.8,0.1c0.1,0,0.2,0,0.3,0c0.1,0,0.1-0.1,0.2-0.1c0,0,0,0,0-0.1c0,0,0,0,0,0c0,0-0.1,0-0.1,0c-0.2,0-0.3,0-0.5,0
		c-0.2,0-0.4,0-0.5-0.1c0,0,0,0,0,0c0,0,0,0,0,0c0.3,0,0.5,0.1,0.8,0.1c0.1,0,0.2,0,0.3-0.1c0,0,0.1-0.1,0.1-0.1
		c0-0.1,0-0.1-0.1-0.1c-0.1,0-0.3,0-0.4,0c-0.2,0-0.4,0-0.6,0h0c0,0,0,0,0,0c0.3,0,0.6,0,1,0h0c0.1,0,0.1-0.1,0.1-0.2
		c0-0.1-0.1-0.1-0.2-0.1c-0.2,0-0.4,0-0.6,0c0,0-0.1,0-0.1,0l0,0c0,0,0,0,0,0c0,0,0,0,0,0c0.2,0,0.5,0,0.7,0c0.1,0,0.2,0,0.3-0.1
		c0-0.1,0.1-0.1,0.1-0.2c0,0,0,0,0,0s-0.1,0-0.1,0c-0.2,0-0.5,0-0.6,0c0,0,0,0,0,0c0,0,0,0,0,0c0.3,0,0.5,0,0.7,0c0,0,0.1,0,0.1,0
		c0.2-0.1,0.3-0.2,0.4-0.3c0,0,0,0,0,0c0,0-0.1,0-0.1,0c-0.3-0.1-0.5-0.1-0.8-0.1c-0.1,0-0.1,0-0.2,0h0c0,0,0,0,0,0c0,0,0.1,0,0.1,0
		c0.3,0,0.6,0,0.9,0c0.1,0,0.2,0,0.3-0.1c0.1-0.1,0.2-0.2,0.2-0.3l0,0C26.6,18,26.3,18,26,18c-0.2,0-0.3,0-0.5,0h0c0,0,0,0,0,0
		c0.1,0,0.1,0,0.2,0c0.3,0,0.5,0,0.8-0.1c0.1,0,0.2,0,0.2,0c0.1-0.1,0.3-0.2,0.4-0.3c0,0,0.1-0.1,0.1-0.1l0,0
		c-0.2,0-0.4,0.1-0.6,0.1c-0.3,0-0.6,0.1-0.9,0.1h0c0,0,0,0,0,0c0.1,0,0.2,0,0.3,0c0.3,0,0.6-0.1,0.8-0.1c0.1,0,0.2,0,0.2-0.1
		c0.1-0.1,0.2-0.1,0.3-0.2c0.1-0.1,0.2-0.2,0.3-0.3c0,0,0-0.1,0.1-0.1c0,0,0,0,0,0c-0.1,0-0.1,0-0.2,0c-0.4,0.1-0.8,0.2-1.2,0.2
		c-0.1,0-0.2,0-0.3,0h0c0,0,0,0,0,0l0,0c0.1,0,0.2,0,0.3-0.1c0.4-0.1,0.7-0.2,1.1-0.2c0.1,0,0.2-0.1,0.2-0.2c0,0,0-0.1,0-0.1
		c0-0.1-0.1-0.2-0.2-0.1c-0.2,0-0.4,0.1-0.6,0.1c-0.2,0-0.4,0.1-0.5,0.2c-0.2,0.1-0.5,0.1-0.7,0.2h0c0,0,0,0,0,0l0,0
		c0.9-0.3,1.7-0.5,2.6-0.8c0.1,0,0.1,0,0-0.1c0,0,0,0-0.1-0.1c-0.1-0.1-0.2-0.1-0.3-0.1c-0.1,0-0.2,0-0.4,0c0,0-0.1,0-0.1,0
		c-0.1,0-0.2,0-0.3,0.1c-0.2,0.1-0.5,0.2-0.7,0.3c-0.4,0.2-0.7,0.3-1.1,0.5c0,0,0,0,0,0c0,0,0,0.1-0.1,0.1c0,0-0.1,0.1-0.2,0.1
		c0,0,0,0,0,0c0.1,0,0.3,0,0.4,0c0.1,0,0.1,0,0.2,0.1c0.1,0,0,0.1,0,0.1c0,0-0.1,0-0.1,0c-0.2,0.1-0.4,0.1-0.5,0.1
		c-0.1,0-0.2,0-0.2,0.1l0,0c0,0-0.1,0.1-0.1,0.1c-0.1,0-0.1,0.1-0.2,0.1c0,0,0,0,0,0c0,0,0.1,0,0.1,0.1c0,0,0,0.1,0,0.1
		c-0.1,0.1-0.2,0.1-0.3,0.2c-0.2,0.1-0.5,0.3-0.7,0.4c0,0,0,0,0,0l0,0l0,0c0,0,0,0,0,0c0.1-0.1,0.3-0.2,0.4-0.2
		c0.2-0.1,0.4-0.2,0.5-0.4c0,0,0-0.1,0-0.1c-0.1,0-0.1,0-0.2,0c-0.1,0-0.2,0.1-0.3,0.1c0,0,0,0,0,0c0,0,0,0,0,0
		c0.2-0.1,0.4-0.2,0.6-0.3c0,0,0.1,0,0.1-0.1c0,0,0,0,0-0.1c0,0,0,0-0.1,0c-0.1,0-0.3,0-0.4,0c0,0,0,0,0,0c0,0,0,0,0,0
		c0.1,0,0.2,0,0.3,0c0.1,0,0.1,0,0.2,0.1h0c0.2,0,0.4-0.1,0.5-0.1c0.1,0,0.2,0,0.2-0.1c0,0,0,0,0-0.1c0,0-0.1,0-0.1-0.1
		c-0.1,0-0.3,0-0.4,0c-0.1,0-0.2,0-0.3,0C25,17,25,17,24.9,17c0,0-0.1,0-0.1,0c0,0,0,0,0,0l0,0c0,0,0,0,0,0c0.2-0.1,0.4-0.1,0.5-0.2
		c0.1,0,0.1,0,0.1-0.1c0,0,0,0,0,0c0,0,0,0-0.1,0c-0.2,0-0.4,0-0.6,0.1c-0.1,0-0.3,0.1-0.4,0.2c0,0,0,0-0.1,0c0,0,0,0,0,0
		c0.1-0.1,0.3-0.1,0.4-0.2c0,0,0.1-0.1,0.1-0.1c0,0,0-0.1,0-0.1c-0.1,0-0.1,0-0.1,0c-0.3,0.1-0.6,0.2-0.9,0.4
		c-0.2,0.2-0.5,0.3-0.6,0.5c-0.2,0.2-0.3,0.4-0.3,0.6c-0.1,0.4-0.2,0.7-0.3,1c-0.1,0.3-0.3,0.6-0.5,0.8c-0.2,0.2-0.4,0.4-0.7,0.6
		c0,0,0,0,0,0c0,0,0,0,0,0c0.1-0.1,0.2-0.1,0.3-0.2c0,0,0.1-0.1,0.1-0.1c-0.1,0-0.2,0-0.4,0c-0.2,0-0.4,0-0.5,0.1
		c-0.1,0-0.1,0-0.2,0h0c0,0,0,0,0,0c0,0.1-0.1,0.1-0.1,0.2c0,0,0,0,0,0v0c0.1-0.1,0.1-0.2,0.1-0.3c-0.1,0-0.2,0.1-0.2,0.1
		c0,0,0,0,0,0.1c0,0.1-0.1,0.1-0.1,0.2c0,0,0,0,0,0c0,0,0,0,0,0l0,0c0.1-0.1,0.1-0.2,0.1-0.3l0,0c-0.1,0.1-0.2,0.2-0.3,0.3
		c-0.1,0.1-0.2,0.2-0.3,0.4c-0.1,0.1-0.1,0.2-0.2,0.3c0,0,0,0.1,0,0.1c0,0,0,0.1,0.1,0.1c0,0,0,0,0,0v0c0,0,0-0.1,0-0.1v0
		c0,0,0,0,0,0c0,0,0,0.1,0.1,0.1h0v0l0,0v0c0,0,0,0,0,0c0,0,0,0,0.1,0c0.1,0,0.1,0,0.1,0.1s0,0.1,0.1,0.1c0,0,0.1,0,0.1,0
		c0,0,0.1,0,0.1,0c0,0,0,0,0.1,0c0,0,0,0,0,0.1c0,0,0,0.1-0.1,0.1c-0.1,0-0.1,0.1-0.1,0.1c0.1,0,0.1,0,0.2,0c0.1,0,0.2,0,0.3,0.1
		c0.1,0.1,0.2,0.1,0.2,0.2c0.1,0.2,0.2,0.3,0.2,0.5c0,0.1,0.1,0.3,0.1,0.4c0,0.1,0.1,0.2,0.2,0.2c0,0,0,0,0,0c0,0.1,0.1,0.1,0.2,0.1
		c0,0,0,0,0,0h0c-0.1,0-0.1,0-0.1-0.1c0,0-0.1-0.1-0.1-0.1c-0.1-0.1-0.1-0.1-0.2-0.2c0,0,0-0.1,0-0.1c-0.1,0.1-0.2,0.2-0.3,0.3
		c0,0-0.1,0-0.1,0.1c-0.1,0.2-0.2,0.3-0.3,0.4c0,0-0.1,0.1-0.1,0.1c0,0-0.1,0-0.1,0c0.1,0,0.2,0,0.3,0.1c0.1,0,0.1,0.1,0.2,0.2
		c0-0.1,0.1-0.2,0.1-0.2c0,0.1,0,0.1,0,0.1c0-0.1,0-0.1,0-0.2c0-0.2,0-0.3,0-0.5c0,0,0,0,0,0v0c0,0.2,0,0.3,0,0.5
		c0,0.1,0.1,0.2,0.2,0.3h0c0,0,0,0,0,0c0-0.1,0-0.2,0-0.3c0,0,0,0.1,0.1,0.1c0,0,0,0,0.1,0c0,0,0,0,0-0.1c0-0.1,0-0.1,0.1-0.2
		c0,0,0,0.1,0,0.1c0-0.1,0-0.1,0-0.2c0,0,0-0.1,0-0.1c0,0,0,0,0,0c0,0,0,0,0,0v0c0,0.1,0.1,0.2,0.2,0.2l0,0l0,0c0-0.1,0-0.3,0-0.4
		c0,0,0,0,0,0c0,0,0,0,0,0c0,0,0,0.1,0,0.1c0,0,0,0.1,0.1,0.1v0c0-0.1,0.1-0.2,0.1-0.3c0.1-0.1,0.1-0.2,0.3-0.3
		c0.1,0,0.1-0.1,0.2-0.1c0,0,0,0,0.1-0.1c0.1-0.1,0.2-0.2,0.3-0.2c0,0,0,0,0,0c0,0,0,0,0,0c0,0-0.1,0-0.1,0.1
		c-0.1,0-0.1,0.1-0.1,0.2c0,0,0,0,0.1,0c0.1,0,0.2-0.1,0.4-0.1h0h0c-0.2,0-0.5,0.1-0.7,0.2c-0.1,0.1-0.2,0.1-0.2,0.2
		c-0.1,0.2-0.1,0.3-0.1,0.5c0,0.2-0.1,0.2-0.3,0.3c-0.1,0-0.1,0-0.2,0c-0.1,0-0.2,0.1-0.2,0.2c0,0.1,0,0.1,0,0.2l0,0
		c0.1-0.1,0.1-0.2,0.2-0.2c0,0,0,0,0,0c0,0,0,0,0,0c0,0,0,0.1,0,0.1c0,0.1,0,0.1,0,0.2c0.1,0,0.1-0.1,0.2-0.1c0,0,0,0.1,0,0.1
		c0,0,0.1-0.1,0.1-0.1c0,0.1,0.1,0.1,0.1,0.1l0,0l0,0l0,0c0-0.1,0-0.2,0-0.3c0,0,0,0,0,0v0c0,0.2,0.1,0.4,0.2,0.5c0,0,0,0,0.1,0h0v0
		c0,0,0-0.1,0-0.1c0,0,0-0.1,0-0.1c0,0.1,0.1,0.1,0.1,0.1l0,0v0c0-0.1,0-0.3,0-0.4c0,0,0,0,0,0v0c0,0,0,0.1,0,0.1
		c0,0.1,0,0.1,0.1,0.2c0,0,0,0,0-0.1c0-0.1,0-0.1,0.1-0.1c0.1-0.2,0.2-0.3,0.2-0.5c0-0.1,0-0.2-0.1-0.3v0c0,0,0,0,0,0
		c0,0,0,0.1,0,0.1c0,0.1,0,0.2,0,0.3l0,0c0-0.1,0.1-0.2,0.1-0.3v0v0c0,0,0,0.1,0,0.1c0,0.1-0.1,0.2-0.1,0.3c0.1,0,0.1,0,0.2,0
		s0.1,0,0.2,0h0c0,0,0,0,0,0c0,0,0,0,0,0c-0.1,0-0.1,0-0.2,0c0,0,0.1,0.1,0.1,0.1c0.1,0,0.2,0,0.3,0c0,0,0.1,0,0.1,0.1c0,0,0,0,0,0
		c0,0,0,0,0,0c0,0,0,0-0.1,0c0,0,0,0.1,0,0.1c0.1,0.2,0.1,0.5,0.2,0.7c0.1,0.2,0.1,0.4,0.3,0.5c0.1,0.1,0.1,0.1,0.2,0.1
		c0,0,0,0,0.1,0c0,0,0,0,0-0.1c0-0.1-0.1-0.2-0.1-0.3c-0.1-0.2-0.2-0.4-0.2-0.6v0c0,0,0,0,0,0c0,0.1,0,0.1,0.1,0.2
		c0.2,0.4,0.4,0.8,0.5,1.2c0.1,0.2,0.2,0.3,0.4,0.3c0,0,0.1,0,0.1,0c0,0,0-0.1,0-0.1c-0.3-0.5-0.6-0.9-0.8-1.5c0,0,0,0,0,0
		c0,0,0,0,0,0l0,0c0,0,0,0,0,0c0.2,0.4,0.4,0.8,0.7,1.2c0,0,0,0,0,0.1c0.1,0.1,0.2,0.2,0.4,0.2c0,0,0.1,0,0.1,0c0.1,0,0.1,0,0-0.1
		c-0.1-0.1-0.1-0.2-0.2-0.2c-0.3-0.4-0.5-0.8-0.8-1.2c0,0,0,0,0,0c0,0,0,0,0,0c0.3,0.5,0.6,0.9,0.9,1.3c0,0,0.1,0.1,0.1,0
		c0.1,0,0.1-0.2,0-0.3c-0.2-0.2-0.3-0.5-0.5-0.7c-0.1-0.1-0.1-0.2-0.2-0.3c0,0,0,0,0,0c0,0,0,0,0,0s0,0,0,0.1
		c0.2,0.3,0.4,0.5,0.5,0.8c0,0,0,0,0.1,0c0,0,0,0,0-0.1v0c0-0.1,0-0.2,0-0.3c0-0.1-0.1-0.2-0.1-0.2c-0.1-0.1-0.2-0.2-0.3-0.3
		c-0.2-0.3-0.3-0.5-0.5-0.7l0,0c0,0,0,0,0,0c0.2,0.3,0.4,0.6,0.6,0.9c0,0,0,0,0,0c0,0,0,0,0,0c0,0,0,0,0-0.1c0-0.1,0-0.2,0-0.3
		c0-0.1,0-0.2-0.1-0.2c-0.3-0.3-0.5-0.6-0.7-0.9C23.9,23,23.9,23,23.8,23z M24.8,16.7L24.8,16.7c0.1,0,0.3-0.1,0.4-0.1
		c0.1,0,0.2,0,0.3,0c0,0,0.1,0,0.1,0c0.3-0.1,0.6-0.3,0.9-0.4c0.5-0.2,1-0.4,1.4-0.7c0,0,0,0,0.1,0c-0.1,0-0.1,0-0.2,0
		c-0.2,0-0.4,0-0.6,0c-0.1,0-0.3,0-0.4,0.1c-0.1,0-0.2,0.1-0.2,0.1c-0.1,0.1-0.3,0.1-0.4,0.2c-0.3,0.2-0.6,0.4-0.9,0.5
		c-0.1,0-0.1,0.1-0.2,0.1h0v0c0,0,0,0,0,0c0.6-0.3,1.2-0.7,1.7-1.1c0,0,0.1-0.1,0.1-0.1l0,0h0c-0.2,0-0.4,0.1-0.5,0.1
		c-0.1,0-0.3,0.1-0.4,0.2c-0.3,0.2-0.5,0.4-0.7,0.5c-0.1,0.1-0.3,0.2-0.4,0.3c0,0,0,0,0,0C24.8,16.5,24.8,16.6,24.8,16.7
		C24.8,16.7,24.8,16.7,24.8,16.7z M27.1,17.5C27.1,17.5,27.1,17.5,27.1,17.5c0.2,0,0.3-0.1,0.5-0.1c0.3-0.1,0.6-0.2,0.9-0.3
		c0.1,0,0.2-0.1,0.2-0.2c0.1-0.1,0.1-0.1,0-0.1c-0.2-0.1-0.3-0.1-0.5,0c-0.1,0-0.3,0.1-0.4,0.1c0,0,0,0,0,0c0,0,0,0.1,0,0.1
		c-0.1,0.1-0.2,0.2-0.3,0.3C27.3,17.4,27.2,17.4,27.1,17.5z M26,19.1c0.1,0,0.1,0,0.2,0c0.2,0,0.4,0,0.5-0.1c0.3,0,0.5-0.1,0.7-0.2
		c0.1,0,0.2-0.1,0.2-0.1c0,0,0,0,0-0.1l0,0c-0.1,0-0.2,0-0.2,0c-0.1,0-0.2,0.1-0.3,0.1c-0.2,0-0.4,0.1-0.6,0.1c-0.1,0-0.3,0-0.4,0
		c0,0,0,0,0,0c0,0.1,0,0.1,0,0.2C26.1,19,26.1,19,26,19.1z M26.3,18.7c0,0,0.1,0,0.1,0c0.2,0,0.3,0,0.5-0.1c0.3,0,0.5-0.1,0.8-0.2
		c0.1,0,0.2-0.1,0.3-0.2c0.1,0,0.1-0.1,0-0.1c-0.1,0-0.2-0.1-0.2,0c-0.4,0.1-0.7,0.2-1.1,0.2c0,0-0.1,0-0.1,0
		c-0.1,0.1-0.1,0.2-0.2,0.2C26.4,18.6,26.3,18.7,26.3,18.7z M26.9,17.9L26.9,17.9c0.2,0,0.4-0.1,0.5-0.1c0.3-0.1,0.5-0.1,0.8-0.3
		c0.1-0.1,0.2-0.1,0.3-0.2c0,0,0-0.1,0-0.1l0,0c-0.1,0-0.2,0-0.2,0c-0.3,0.1-0.6,0.2-0.9,0.3c0,0,0,0,0,0c-0.1,0.1-0.1,0.2-0.2,0.3
		C27,17.8,26.9,17.8,26.9,17.9z M27.6,16.8L27.6,16.8c0.1,0,0.2,0,0.2,0c0.4-0.1,0.7-0.2,1.1-0.4c0.1,0,0.1-0.1,0.2-0.1l0,0h0
		c0,0-0.1,0-0.1,0c-0.1,0-0.2,0-0.3,0s-0.3,0-0.4,0c-0.2,0-0.3,0-0.5,0.1c0,0-0.1,0-0.1,0c0.1,0.1,0.1,0.1,0.1,0.2
		C27.7,16.7,27.7,16.8,27.6,16.8z M26.7,18.3C26.7,18.3,26.8,18.3,26.7,18.3c0.3,0,0.5-0.1,0.7-0.1c0.2-0.1,0.4-0.1,0.6-0.2
		c0.1,0,0.2-0.1,0.3-0.2c0.1,0,0-0.1,0-0.1c-0.1,0-0.2-0.1-0.3,0c-0.1,0-0.2,0.1-0.3,0.1c-0.2,0.1-0.5,0.1-0.7,0.2c0,0,0,0,0,0
		c0,0,0,0.1,0,0.1C26.9,18.2,26.8,18.2,26.7,18.3z M26,19.4L26,19.4c0.2,0,0.3,0,0.5,0c0.2,0,0.4-0.1,0.6-0.1c0.1,0,0.3-0.1,0.4-0.2
		c0,0,0-0.1,0-0.1c-0.1-0.1-0.1-0.1-0.2-0.1C27.1,19,27,19,26.9,19c-0.2,0-0.3,0.1-0.5,0.1c-0.1,0-0.3,0-0.4,0h0
		C26.1,19.2,26.1,19.3,26,19.4z M27.9,15.7C27.9,15.7,27.9,15.7,27.9,15.7c0.2,0,0.3,0.1,0.4,0.1c0,0,0.1,0.1,0.1,0.1c0,0,0,0,0,0
		c0.1,0,0.2-0.1,0.3-0.1c0.2-0.1,0.4-0.2,0.6-0.3c0,0,0.1,0,0.1-0.1c0,0,0,0,0-0.1c0,0-0.1,0-0.1,0c-0.1,0-0.3,0-0.4,0
		c-0.2,0-0.3,0.1-0.5,0.1C28.2,15.7,28,15.7,27.9,15.7z M19.9,23.6L19.9,23.6C19.9,23.6,19.9,23.6,19.9,23.6c-0.2,0-0.3,0-0.4,0
		c-0.1,0-0.1,0-0.2-0.1c0,0-0.1-0.1-0.1-0.1c0,0,0-0.1-0.1-0.1s0,0-0.1,0l0,0c-0.1,0-0.1,0.1,0,0.1c0,0,0,0,0.1,0c0,0,0.1,0,0.1,0
		c0,0,0.1,0.1,0.1,0.1c0,0,0,0.1,0,0.1c0,0,0,0,0,0h0c0,0,0-0.1,0-0.1c0-0.1-0.1-0.1-0.2-0.2c-0.1,0-0.1-0.1-0.1-0.2c0,0,0,0,0,0
		c-0.1,0-0.1,0-0.2,0c0,0-0.1,0-0.1,0.1v0c0,0,0,0.1,0,0.1c0,0,0.1,0,0.1,0c0,0,0,0,0,0c0.1,0,0.1,0.1,0.2,0.1v0c0,0,0,0,0,0
		c0,0-0.1-0.1-0.2-0.1h0c0,0-0.1,0-0.1,0.1c0,0-0.1,0.1,0,0.1c0,0,0,0,0,0.1c0,0,0,0,0.1,0c0,0,0.1,0,0.1-0.1c0,0,0,0,0-0.1
		c0,0,0,0,0.1,0c0,0,0.1,0,0.1,0c0.1,0,0.2,0.1,0.1,0.2c0,0,0,0,0,0c0,0,0,0.1,0,0.1s0,0,0.1,0c0,0,0.1,0,0.1,0c0,0,0,0,0,0
		c0-0.1,0-0.1,0-0.2s0-0.1,0.1-0.1h0c0.1,0,0.1,0,0.2-0.1h0C19.8,23.7,19.8,23.6,19.9,23.6z M25.9,19.8
		C25.9,19.8,25.9,19.8,25.9,19.8c0.3,0,0.4,0,0.5,0c0.2,0,0.4-0.1,0.5-0.1c0.1,0,0.1-0.1,0.2-0.1c0,0,0,0,0-0.1
		c-0.1-0.1-0.1-0.1-0.2-0.1c-0.2,0.1-0.5,0.1-0.7,0.1c-0.1,0-0.1,0-0.2,0c0,0,0,0,0,0c0,0.1,0,0.1,0,0.2C26,19.7,26,19.8,25.9,19.8
		C25.9,19.7,25.9,19.7,25.9,19.8z M20,23.7C19.9,23.7,19.9,23.7,20,23.7c-0.1,0-0.1,0.1-0.1,0.1c0,0,0,0,0,0.1c0,0,0,0.1,0,0.1
		c0,0,0.1,0,0.1,0c0,0,0,0,0,0c0.1,0,0.1,0.1,0.2,0.1c0,0,0,0,0,0h0c0,0-0.1-0.1-0.1-0.1h0c0,0-0.1,0-0.1,0.1c0,0-0.1,0.1,0,0.1v0
		c0,0,0,0,0,0c0,0,0.1,0,0.1,0c0,0,0-0.1,0-0.1c0,0,0,0,0,0c0.1,0,0.1,0,0.2,0.1c0.1,0,0.1,0.1,0.1,0.2v0c0,0,0,0.1,0,0.1l0,0
		c0,0,0.1,0,0.1,0c0,0,0,0,0,0c0-0.1,0-0.1,0-0.2c0,0,0-0.1,0-0.1c0,0,0,0,0.1,0c0,0,0.1,0,0.1,0c0,0,0,0,0.1,0c0,0,0-0.1,0-0.1
		c0,0,0,0,0,0c-0.1,0-0.2,0-0.3,0c0,0-0.1,0-0.1,0c0,0-0.1-0.1-0.1-0.1c0,0,0-0.1-0.1-0.1c0,0,0,0-0.1,0c0,0,0,0-0.1,0
		c0,0,0,0,0,0.1c0,0,0,0.1,0.1,0.1s0,0,0.1,0c0.1,0,0.1,0.1,0.1,0.2c0,0,0,0.1,0,0.1c0,0,0,0,0,0h0c0,0,0-0.1,0-0.1
		c0-0.1-0.1-0.1-0.2-0.1C20,24,20,23.9,20,23.9C20,23.7,20,23.7,20,23.7L20,23.7z M25.4,15.8C25.4,15.8,25.4,15.8,25.4,15.8
		c-0.2,0-0.3,0.1-0.4,0.1c-0.1,0.1-0.2,0.1-0.3,0.2c-0.2,0.1-0.3,0.3-0.5,0.4c-0.1,0-0.1,0.1-0.2,0.1c0,0,0,0,0,0
		c0.1,0,0.1-0.1,0.2-0.1c0.1,0,0.2-0.1,0.4-0.1c0,0,0.1,0,0.1,0c0.1-0.1,0.2-0.2,0.3-0.3C25.2,16,25.3,15.9,25.4,15.8z M25.7,20.1
		C25.7,20.1,25.7,20.1,25.7,20.1c0.2,0,0.3,0,0.5,0c0.2,0,0.3-0.1,0.5-0.1c0.1,0,0.1-0.1,0.2-0.1c0,0,0,0,0-0.1l0,0
		c-0.1,0-0.1-0.1-0.2,0c0,0,0,0-0.1,0c-0.2,0-0.4,0.1-0.5,0.1c0,0-0.1,0-0.1,0.1S25.9,20,25.8,20C25.8,20,25.7,20.1,25.7,20.1z
		 M24.9,25L24.9,25C24.9,25,24.9,25,24.9,25c0,0.1,0,0.2,0,0.3c0,0.1,0,0.1-0.1,0.1c0,0,0,0,0,0c0.1,0.1,0.2,0.2,0.3,0.3
		c0.1,0.1,0.1,0.1,0.3,0.2c0,0,0,0,0.1,0c0,0,0,0,0-0.1c-0.1-0.2-0.2-0.4-0.3-0.6C25.1,25.2,25.1,25.1,24.9,25C25,25,25,25,24.9,25z
		 M25.4,20.4c0.1,0,0.1,0,0.2,0c0.2,0,0.4,0,0.6-0.1c0.1,0,0.2-0.1,0.3-0.1c0,0,0,0,0-0.1c-0.1-0.1-0.1-0.1-0.2-0.1
		c-0.1,0-0.2,0-0.4,0c-0.1,0-0.1,0-0.2,0h0c0,0.1-0.1,0.1-0.2,0.2C25.5,20.4,25.4,20.4,25.4,20.4z M24.8,24.2
		C24.8,24.2,24.8,24.2,24.8,24.2C24.8,24.2,24.8,24.2,24.8,24.2c0,0.1,0,0.2,0,0.4c0,0,0,0.1,0,0.1v0c0.1,0.1,0.2,0.2,0.3,0.3
		c0.1,0.1,0.1,0.1,0.2,0.1c0,0,0,0,0,0s0-0.1,0-0.1c-0.1-0.2-0.1-0.4-0.3-0.5C24.9,24.4,24.9,24.3,24.8,24.2z M24.8,25.8L24.8,25.8
		c0.1,0.1,0.1,0.2,0.2,0.2c0.1,0.1,0.2,0.2,0.4,0.3c0,0,0,0,0,0v0c0-0.2-0.1-0.4-0.2-0.5c-0.1-0.1-0.1-0.2-0.2-0.2
		C24.9,25.7,24.9,25.8,24.8,25.8z M25.2,20.7C25.2,20.7,25.2,20.7,25.2,20.7c0.1,0,0.2,0,0.3,0c0.1,0,0.2,0,0.4-0.1
		c0.1,0,0.1,0,0.2-0.1c0,0,0.1-0.1,0-0.1c-0.1-0.1-0.1-0.1-0.2-0.1c-0.1,0-0.2,0-0.4,0c0,0-0.1,0-0.1,0.1
		C25.4,20.6,25.4,20.7,25.2,20.7C25.3,20.7,25.2,20.7,25.2,20.7z M23.9,25.9C23.9,25.9,23.9,25.9,23.9,25.9c0.1,0.2,0.2,0.4,0.3,0.5
		c0.1,0,0.1,0.1,0.2,0.1c0.1,0,0.1,0,0.1,0c0,0,0-0.1,0-0.1c0-0.1,0-0.1-0.1-0.2c0,0-0.1-0.1-0.1-0.1c0,0,0,0.1-0.1,0.1
		S24.1,26,24,26C24,26,24,25.9,23.9,25.9z M20.1,21.4C20.1,21.4,20.1,21.4,20.1,21.4c-0.1,0-0.2,0-0.2,0s-0.1,0-0.1-0.1c0,0,0,0,0,0
		c0,0-0.1,0-0.1,0c-0.1,0.1-0.1,0.2-0.2,0.2c0,0.1,0,0.2,0,0.3c0,0,0,0,0,0v0c0-0.1,0.1-0.2,0.2-0.2C19.9,21.6,20,21.6,20.1,21.4
		C20.1,21.5,20.1,21.5,20.1,21.4z M24.9,21L24.9,21c0.2,0,0.4,0,0.6,0c0.1,0,0.2,0,0.2-0.1c0,0,0-0.1,0-0.1c0,0-0.1-0.1-0.2-0.1
		c-0.1,0-0.2,0-0.3,0c0,0-0.1,0-0.1,0c0,0,0,0,0,0C25.1,20.9,25,21,24.9,21z M24.5,21.3L24.5,21.3C24.6,21.3,24.6,21.3,24.5,21.3
		c0.3,0,0.4,0,0.6,0c0.1,0,0.1,0,0.2-0.1c0,0,0,0,0-0.1c0,0-0.1-0.1-0.2-0.1S25,21,25,21s-0.1,0-0.2,0c0,0,0,0,0,0
		c0,0-0.1,0.1-0.1,0.1C24.7,21.2,24.6,21.3,24.5,21.3z M24.2,21.6C24.3,21.6,24.3,21.6,24.2,21.6c0.1,0,0.2,0,0.3,0
		c0.1,0,0.2,0,0.2,0s0.2,0,0.2-0.1c0.1,0,0.1,0,0-0.1c0,0-0.1-0.1-0.1-0.1c-0.1,0-0.1,0-0.2,0c0,0-0.1,0-0.1,0c0,0,0,0,0,0
		C24.4,21.5,24.4,21.5,24.2,21.6z M23.9,21.8C23.9,21.8,23.9,21.8,23.9,21.8c0.2,0,0.4,0.1,0.5,0c0.1,0,0.1,0,0.2,0c0,0,0,0,0-0.1
		c0,0-0.1-0.1-0.1-0.1s-0.2,0-0.2,0c0,0,0,0,0,0c0,0,0,0.1-0.1,0.1C24.1,21.7,24,21.8,23.9,21.8z M21.3,23.7c0,0-0.1-0.1-0.1-0.1
		c0,0.1,0,0.1,0,0.2c0,0-0.1-0.1-0.1-0.1c0,0.1,0,0.1,0,0.2c-0.1,0-0.1,0-0.2-0.1c0,0.1,0,0.1,0,0.2c0.1,0,0.2-0.1,0.3-0.1
		C21.2,23.7,21.2,23.7,21.3,23.7z M20,21.6c-0.1,0-0.2,0.1-0.3,0.1c0,0,0,0-0.1,0.1c0,0,0,0,0,0h0C19.8,21.7,19.9,21.7,20,21.6
		C20,21.7,20,21.6,20,21.6z M20.7,23.9c0,0-0.1-0.1-0.1-0.1C20.6,23.8,20.6,23.8,20.7,23.9c-0.1,0-0.2-0.1-0.2-0.1c0,0,0,0.1,0,0.1
		s0,0,0,0C20.5,23.9,20.6,23.9,20.7,23.9z M19.3,24.2C19.3,24.2,19.3,24.2,19.3,24.2c0.1-0.1,0.1-0.1,0.1-0.1c0,0,0,0-0.1,0
		C19.3,24.1,19.3,24.1,19.3,24.2C19.3,24.2,19.3,24.2,19.3,24.2z M20.3,24.6C20.3,24.6,20.4,24.5,20.3,24.6c0.1-0.1,0.1-0.1,0.1-0.1
		c0,0,0,0-0.1,0l0,0c0,0,0,0,0,0C20.3,24.5,20.3,24.5,20.3,24.6z M21.3,23.6c0-0.1,0-0.1,0-0.1C21.3,23.5,21.3,23.5,21.3,23.6z
		 M27.6,15.7L27.6,15.7C27.6,15.7,27.5,15.7,27.6,15.7L27.6,15.7L27.6,15.7z"/>
	<path class="st0" d="M20.7,24.3L20.7,24.3L20.7,24.3L20.7,24.3z"/>
	<path class="st1" d="M21.2,20.5C21.2,20.5,21.2,20.5,21.2,20.5c0.3-0.1,0.5-0.3,0.7-0.6c0.2-0.3,0.4-0.5,0.5-0.8
		c0.2-0.3,0.3-0.7,0.3-1c0-0.2,0.1-0.5,0.3-0.6c0.2-0.2,0.4-0.4,0.6-0.5c0.3-0.2,0.6-0.4,0.9-0.4c0,0,0.1,0,0.1,0c0,0,0.1,0,0,0.1
		c0,0.1-0.1,0.1-0.1,0.1c-0.1,0.1-0.2,0.2-0.4,0.2c0,0-0.1,0,0,0c0,0,0,0,0.1,0c0.1,0,0.2-0.1,0.4-0.2c0.2-0.1,0.4-0.1,0.6-0.1
		c0,0,0.1,0,0.1,0c0,0,0,0,0,0c0,0-0.1,0.1-0.1,0.1c-0.2,0.1-0.4,0.1-0.5,0.2c0,0,0,0,0,0l0,0c0,0,0,0,0,0c0,0,0.1,0,0.1,0
		c0.1,0,0.1,0,0.2-0.1s0.2,0,0.3,0c0.1,0,0.3,0,0.4,0c0,0,0.1,0,0.1,0.1c0,0,0,0.1,0,0.1c-0.1,0-0.2,0.1-0.2,0.1
		c-0.2,0-0.4,0.1-0.5,0.1h0c-0.1-0.1-0.1-0.1-0.2-0.1c-0.1,0-0.2,0-0.3,0c0,0,0,0,0,0c0,0,0,0,0,0c0.1,0,0.3,0,0.4,0c0,0,0,0,0.1,0
		c0,0,0,0,0,0.1c0,0-0.1,0.1-0.1,0.1c-0.2,0.1-0.4,0.2-0.6,0.3c0,0,0,0,0,0c0,0,0,0,0,0c0.1,0,0.2-0.1,0.3-0.1c0.1,0,0.1,0,0.2,0
		c0.1,0,0.1,0.1,0,0.1c-0.2,0.1-0.4,0.2-0.5,0.4c-0.1,0.1-0.3,0.2-0.4,0.2c0,0,0,0,0,0l0,0l0,0c0,0,0,0,0,0c0.2-0.1,0.5-0.3,0.7-0.4
		c0.1-0.1,0.2-0.1,0.3-0.2c0,0,0-0.1,0-0.1c0,0-0.1-0.1-0.1-0.1c0,0,0,0,0,0c0.1,0,0.1-0.1,0.2-0.1c0,0,0.1,0,0.1-0.1l0,0
		c0-0.1,0.1-0.1,0.2-0.1c0.2,0,0.4-0.1,0.5-0.1c0,0,0.1,0,0.1,0c0.1,0,0.1-0.1,0-0.1c-0.1,0-0.1-0.1-0.2-0.1c-0.1,0-0.3,0-0.4,0
		c0,0,0,0,0,0c0.1,0,0.1-0.1,0.2-0.1c0,0,0.1,0,0.1-0.1c0,0,0,0,0,0c0.4-0.2,0.7-0.3,1.1-0.5c0.2-0.1,0.5-0.2,0.7-0.3
		c0.1,0,0.2,0,0.3-0.1c0,0,0.1,0,0.1,0c0.1,0,0.2,0,0.4,0c0.1,0.1,0.2,0.1,0.3,0.2c0,0,0,0,0.1,0.1c0,0.1,0,0.1,0,0.1
		c-0.9,0.3-1.7,0.5-2.6,0.8l0,0c0,0,0,0,0,0c0,0,0,0,0,0c0.2-0.1,0.5-0.1,0.7-0.2c0.2-0.1,0.4-0.1,0.5-0.2c0.2-0.1,0.5-0.1,0.6-0.1
		c0.1,0,0.2,0.1,0.2,0.1c0,0,0,0.1,0,0.1c0,0.1-0.1,0.2-0.2,0.2c-0.4,0.1-0.7,0.2-1.1,0.2c-0.1,0-0.2,0-0.3,0.1l0,0c0,0,0,0,0,0
		c0,0,0,0,0,0c0.1,0,0.2,0,0.3,0c0.4-0.1,0.8-0.1,1.2-0.2c0.1,0,0.1,0,0.2,0c0,0,0,0,0,0c0,0,0,0.1-0.1,0.1
		c-0.1,0.1-0.2,0.2-0.3,0.3c-0.1,0.1-0.2,0.1-0.3,0.2c-0.1,0-0.2,0-0.2,0.1c-0.3,0-0.6,0.1-0.8,0.1c-0.1,0-0.2,0-0.3,0h0
		c0,0,0,0,0,0c0.3,0,0.6,0,0.9-0.1c0.2,0,0.4-0.1,0.6-0.1l0,0c0,0,0,0.1-0.1,0.1c-0.1,0.1-0.2,0.2-0.4,0.3c-0.1,0-0.1,0-0.2,0
		C26.3,18,26,18,25.7,18c-0.1,0-0.1,0-0.2,0h0c0,0,0,0,0,0c0.2,0,0.3,0,0.5,0c0.3,0,0.5,0,0.8-0.1l0,0c0,0.1-0.1,0.2-0.2,0.3
		c-0.1,0.1-0.2,0.1-0.3,0.1c-0.3,0-0.6,0.1-0.9,0c0,0-0.1,0-0.1,0h0c0,0,0,0,0,0c0.1,0,0.1,0,0.2,0c0.3,0,0.6,0,0.9,0
		c0,0,0.1,0,0.1,0v0c-0.1,0.1-0.2,0.3-0.4,0.3c-0.1,0-0.1,0-0.2,0c-0.3,0-0.5,0-0.7,0h0c0,0,0,0,0,0c0.2,0,0.5,0,0.6,0
		c0,0,0.1,0,0.1,0c0,0,0,0,0,0c0,0.1,0,0.1-0.1,0.2c-0.1,0.1-0.2,0.1-0.3,0.1c-0.2,0-0.5,0-0.7,0c0,0,0,0,0,0c0,0,0,0,0,0l0,0
		c0,0,0.1,0,0.1,0c0.2,0,0.4,0,0.6,0c0.1,0,0.1,0.1,0.2,0.1c0,0.1,0,0.1-0.1,0.2h0c-0.3,0-0.6,0-1,0h0c0,0,0,0,0,0
		c0.2,0,0.4,0,0.6,0c0.1,0,0.3,0,0.4,0c0.1,0,0.1,0.1,0.1,0.1c0,0-0.1,0.1-0.1,0.1c-0.1,0.1-0.2,0.1-0.3,0.1c-0.3,0-0.5,0-0.8-0.1
		c0,0,0,0,0,0c0,0,0,0,0,0c0.2,0,0.4,0.1,0.5,0.1s0.3,0,0.5,0c0,0,0.1,0,0.1,0c0,0,0,0,0,0c0,0,0,0.1,0,0.1c0,0.1-0.1,0.1-0.2,0.1
		c-0.1,0.1-0.2,0.1-0.3,0c-0.3,0-0.5,0-0.8-0.1h0h0c0,0,0,0,0,0c0.1,0,0.1,0,0.2,0c0.3,0,0.5,0.1,0.8,0.1c0,0,0.1,0,0.1,0
		c0,0,0,0,0,0c0,0,0,0.1-0.1,0.1c-0.1,0.1-0.2,0.2-0.4,0.2c-0.1,0-0.2,0-0.3,0c-0.2,0-0.5-0.1-0.6-0.1h0c0,0,0,0,0,0
		c0.2,0,0.3,0.1,0.5,0.1c0.2,0,0.4,0.1,0.6,0c0,0,0,0,0,0c0,0-0.1,0.1-0.1,0.1c-0.1,0.1-0.2,0.1-0.3,0.1c0,0-0.1,0-0.1,0
		c-0.3,0-0.6-0.1-0.9-0.2l0,0h0c0,0,0,0,0,0c0.2,0.1,0.4,0.1,0.5,0.1c0.2,0,0.4,0,0.5,0c0,0,0,0,0,0.1c-0.1,0.1-0.2,0.1-0.4,0.2
		c-0.1,0-0.2,0-0.2,0c-0.2,0-0.5-0.1-0.7-0.2h0c0,0,0,0,0,0c0.2,0.1,0.3,0.1,0.5,0.2c0.2,0,0.3,0.1,0.5,0.1c0,0,0,0,0,0
		c0,0.1-0.1,0.1-0.1,0.1c-0.1,0.1-0.3,0.1-0.4,0.1c-0.2,0-0.5-0.1-0.7-0.2c0,0,0,0,0,0c0,0,0,0,0,0c0.2,0.1,0.3,0.2,0.5,0.2
		c0.1,0,0.3,0.1,0.4,0.1c0,0,0,0,0,0c0,0-0.1,0.1-0.1,0.1c-0.1,0.1-0.2,0.1-0.3,0.1c-0.1,0-0.2,0-0.2,0c-0.2-0.1-0.4-0.1-0.6-0.3
		c0,0,0,0,0,0c0,0,0,0,0,0c0.2,0.2,0.5,0.3,0.7,0.3c0,0,0.1,0,0.1,0c0,0,0,0,0,0c0,0-0.1,0.1-0.1,0.1c-0.1,0.1-0.3,0.1-0.4,0
		c-0.2-0.1-0.4-0.2-0.6-0.3c0,0,0,0,0,0c0,0-0.1-0.1-0.2-0.1c0,0-0.1-0.1-0.2-0.1h0v0c0.1,0.1,0.1,0.1,0.2,0.2
		c0.1,0.1,0.2,0.2,0.3,0.3c0,0,0,0,0,0.1c-0.1,0-0.2-0.1-0.3-0.1c0.1,0.1,0.1,0.1,0.2,0.2s0.1,0.1,0.2,0.2c0,0-0.1,0-0.1,0
		c0,0.1,0.1,0.1,0.1,0.2c0.1,0.2,0.2,0.4,0.4,0.5c0,0,0.1,0.1,0.1,0.1c0,0.1,0.1,0.1,0.1,0.1c0.3,0.3,0.5,0.6,0.7,0.9
		c0.1,0.1,0.1,0.1,0.1,0.2c0,0.1,0,0.2,0,0.3c0,0,0,0,0,0.1c0,0,0,0,0,0c0,0,0,0,0,0c-0.2-0.3-0.4-0.6-0.6-0.9c0,0,0-0.1,0,0
		c0,0,0,0,0,0c0.2,0.3,0.3,0.5,0.5,0.7c0.1,0.1,0.2,0.2,0.3,0.3c0.1,0.1,0.1,0.1,0.1,0.2c0,0.1,0,0.2,0,0.3v0c0,0,0,0.1,0,0.1
		c0,0,0,0-0.1,0c-0.2-0.3-0.4-0.5-0.5-0.8c0,0,0,0,0-0.1c0,0,0,0,0,0c0,0,0,0,0,0c0.1,0.1,0.1,0.2,0.2,0.3c0.2,0.2,0.3,0.5,0.5,0.7
		c0.1,0.1,0,0.2,0,0.3c0,0-0.1,0-0.1,0c-0.3-0.5-0.6-0.9-0.9-1.3c0,0,0,0,0,0c0,0,0,0,0,0c0.3,0.4,0.5,0.8,0.8,1.2
		c0.1,0.1,0.1,0.2,0.2,0.2c0,0,0,0.1,0,0.1c0,0-0.1,0-0.1,0c-0.1-0.1-0.3-0.1-0.4-0.2c0,0,0,0,0-0.1c-0.3-0.4-0.5-0.8-0.7-1.2
		c0,0,0,0,0,0l0,0c0,0,0,0,0,0c0,0,0,0,0,0c0.2,0.5,0.5,1,0.8,1.5c0,0,0,0.1,0,0.1c0,0-0.1,0-0.1,0c-0.2-0.1-0.3-0.2-0.4-0.3
		c-0.2-0.4-0.4-0.8-0.5-1.2c0-0.1,0-0.1-0.1-0.2c0,0,0,0,0,0s0,0,0,0c0.1,0.2,0.1,0.4,0.2,0.6c0,0.1,0.1,0.2,0.1,0.3c0,0,0,0,0,0.1
		c0,0,0,0-0.1,0c-0.1,0-0.1-0.1-0.2-0.1c-0.1-0.1-0.2-0.3-0.3-0.5c-0.1-0.2-0.1-0.5-0.2-0.7c0,0,0-0.1,0-0.1c0,0,0,0,0.1,0
		c0,0,0,0,0,0c0,0,0,0,0,0c0,0-0.1,0-0.1-0.1c-0.1,0-0.2,0-0.3,0c0,0-0.1,0-0.1-0.1c0.1,0,0.2,0,0.2,0c0,0,0,0,0,0c0,0,0,0,0,0
		c0,0,0,0,0,0c-0.1,0-0.1,0-0.2,0c-0.1,0-0.1,0-0.2,0c0.1-0.1,0.1-0.2,0.1-0.3c0,0,0-0.1,0-0.1v0c0,0,0,0,0,0c0,0.1,0,0.2-0.1,0.3
		c0,0,0,0,0,0c0-0.1,0-0.2,0-0.3c0,0,0-0.1,0-0.1c0,0,0,0,0,0v0c0,0.1,0,0.2,0.1,0.3c0,0.2,0,0.4-0.2,0.5c0,0,0,0.1-0.1,0.1
		c0,0,0,0,0,0.1c-0.1,0-0.1-0.1-0.1-0.2c0,0,0-0.1,0-0.1v0c0,0,0,0,0,0c-0.1,0.1-0.1,0.3,0,0.4v0l0,0c-0.1,0-0.1-0.1-0.1-0.1
		c0,0,0,0.1,0,0.1c0,0,0,0.1,0,0.1v0h0c0,0,0,0-0.1,0c-0.2-0.2-0.3-0.3-0.2-0.5v0c0,0,0,0,0,0c0,0.1,0,0.2,0,0.3l0,0
		c-0.1,0-0.1,0-0.1-0.1c0,0-0.1,0.1-0.1,0.1c0,0,0-0.1,0-0.1c-0.1,0-0.1,0.1-0.2,0.1c0,0,0-0.1,0-0.2c0,0,0-0.1,0-0.1s0,0,0,0
		c0,0,0,0,0,0c0,0.1-0.1,0.2-0.2,0.2c0,0,0,0,0,0c0-0.1,0-0.1,0-0.2c0-0.1,0.1-0.2,0.2-0.2c0.1,0,0.1,0,0.2,0c0.1,0,0.2-0.1,0.3-0.3
		c0-0.2,0.1-0.3,0.1-0.5c0-0.1,0.1-0.2,0.2-0.2c0.2-0.1,0.4-0.2,0.7-0.2h0c0,0,0,0,0,0c-0.1,0-0.2,0-0.4,0.1c0,0,0,0-0.1,0
		c0-0.1,0.1-0.1,0.1-0.2c0,0,0.1-0.1,0.1-0.1c0,0,0,0,0,0c0,0,0,0,0,0c-0.1,0-0.2,0.1-0.3,0.2c0,0,0,0-0.1,0.1
		c-0.1,0-0.1,0.1-0.2,0.1c-0.1,0.1-0.2,0.2-0.3,0.3c0,0.1-0.1,0.2-0.1,0.3v0c0,0-0.1-0.1-0.1-0.1c0,0,0-0.1,0-0.1c0,0,0,0,0,0
		c0,0,0,0,0,0c0,0.1,0,0.3,0,0.4l0,0c-0.1-0.1-0.1-0.1-0.2-0.2v0c0,0,0,0,0,0c0,0,0,0,0,0c0,0,0,0.1,0,0.1c0,0.1,0,0.1,0,0.2
		c0,0,0-0.1,0-0.1c-0.1,0-0.1,0.1-0.1,0.2c0,0,0,0.1,0,0.1c0,0,0,0-0.1,0c0,0,0-0.1-0.1-0.1c0,0.1-0.1,0.2,0,0.3v0c0,0,0,0,0,0
		c-0.1-0.1-0.1-0.2-0.2-0.3c0-0.2,0-0.3,0-0.5v0c0,0,0,0,0,0c0,0.2,0,0.3,0,0.5c0,0.1,0,0.1,0,0.2c0,0,0-0.1,0-0.1
		c0,0.1-0.1,0.2-0.1,0.2c-0.1-0.1-0.1-0.2-0.2-0.2c0,0.3-0.1,0.2-0.2,0.2c0,0,0.1,0,0.1,0c0.1,0,0.1,0,0.1-0.1
		c0.1-0.1,0.2-0.3,0.3-0.4c0,0,0.1-0.1,0.1-0.1c0.1-0.1,0.2-0.2,0.3-0.3c0,0,0,0.1,0,0.1c0,0.1,0.1,0.2,0.2,0.2c0,0,0.1,0.1,0.1,0.1
		c0,0,0.1,0.1,0.1,0.1h0c0,0,0,0,0,0c-0.1,0-0.1-0.1-0.2-0.1c0,0,0,0,0,0c-0.1,0-0.2-0.1-0.2-0.2c-0.1-0.1-0.1-0.3-0.1-0.4
		c0-0.2-0.1-0.4-0.2-0.5c-0.1-0.1-0.1-0.2-0.2-0.2c-0.1-0.1-0.2-0.1-0.3-0.1c-0.1,0-0.1,0-0.2,0c0,0,0.1-0.1,0.1-0.1
		c0,0,0.1,0,0.1-0.1c0,0,0,0,0-0.1c0,0,0,0-0.1,0c0,0-0.1,0-0.1,0c0,0,0,0,0,0c0,0,0,0,0,0c0,0,0.1-0.1,0.1-0.1
		c0.1-0.1,0.1-0.2,0.1-0.3c0,0,0-0.1,0-0.1c0,0,0,0,0,0c0.1-0.1,0.1-0.1,0.2-0.1c0,0,0.1,0,0.1,0c0,0,0,0,0.1,0c0,0,0.1-0.1,0.1-0.1
		c0,0,0.1-0.1,0.1-0.1C21,20.6,21.1,20.5,21.2,20.5z M23.8,18.7C23.9,18.7,23.9,18.7,23.8,18.7c0.2-0.1,0.4-0.2,0.5-0.3
		c0.1-0.1,0.3-0.1,0.4-0.2c0,0,0,0,0,0c0,0,0,0,0,0C24.4,18.3,24.1,18.4,23.8,18.7C23.9,18.6,23.9,18.6,23.8,18.7z M23.6,23.9
		C23.6,23.9,23.6,23.8,23.6,23.9c0-0.4-0.1-0.6-0.3-0.8c0,0,0,0,0,0v0c0,0.1,0.1,0.1,0.1,0.2C23.4,23.5,23.5,23.7,23.6,23.9
		C23.5,23.9,23.6,23.9,23.6,23.9C23.6,24,23.6,24,23.6,23.9C23.6,24,23.6,24,23.6,23.9C23.6,23.9,23.6,23.9,23.6,23.9z M22.5,20.9
		c-0.1,0-0.2,0-0.3,0c-0.2,0-0.3,0-0.4-0.1c0,0-0.1,0-0.1-0.1c0,0,0,0,0,0c0,0,0,0,0,0c0,0,0,0,0,0c0.1,0,0.2,0.1,0.3,0.1
		C22.1,20.9,22.3,21,22.5,20.9C22.4,21,22.5,21,22.5,20.9z M23.9,18.9C23.9,18.9,23.9,18.9,23.9,18.9c0.1-0.1,0.2-0.1,0.4-0.2
		c0.1-0.1,0.2-0.1,0.4-0.2c0,0,0,0,0,0h0c-0.2,0.1-0.4,0.2-0.5,0.3C24,18.8,23.9,18.9,23.9,18.9C23.9,18.9,23.9,18.9,23.9,18.9
		C23.9,18.9,23.9,18.9,23.9,18.9z M23.2,22.4C23.2,22.4,23.3,22.4,23.2,22.4C23.3,22.3,23.2,22.3,23.2,22.4
		C23.2,22.3,23.2,22.3,23.2,22.4c-0.2-0.1-0.3-0.1-0.4-0.2c-0.1,0-0.2-0.1-0.3-0.2h0c0,0,0,0,0,0c0,0,0,0,0,0
		c0.1,0.1,0.2,0.2,0.4,0.2C23,22.3,23.1,22.3,23.2,22.4z M22.4,20.8c0.1,0,0.2,0,0.2,0h0c0,0,0,0,0,0C22.5,20.7,22.4,20.7,22.4,20.8
		c-0.2,0-0.3-0.1-0.5-0.1c0,0,0,0-0.1,0l0,0C22,20.7,22.2,20.8,22.4,20.8z M23.4,24L23.4,24C23.4,23.9,23.4,23.9,23.4,24
		c0-0.3-0.1-0.4-0.1-0.5c0-0.1-0.1-0.1-0.1-0.2c0,0,0,0,0,0v0l0,0c0.1,0.2,0.1,0.4,0.2,0.5C23.4,23.9,23.4,23.9,23.4,24z M23.1,18.2
		L23.1,18.2c0.1,0,0.1-0.1,0.2-0.1c0.1-0.1,0.3-0.2,0.4-0.3c0,0,0,0,0,0c0,0,0,0,0,0l0,0c-0.2,0.1-0.3,0.1-0.4,0.2
		C23.2,18.1,23.1,18.2,23.1,18.2C23.1,18.2,23,18.2,23.1,18.2L23.1,18.2z M22.5,20.6c0.1,0,0.2,0,0.2,0h0h0c0,0-0.1,0-0.1,0
		c-0.2,0-0.4,0-0.5-0.1c0,0,0,0,0,0v0h0C22.2,20.6,22.3,20.6,22.5,20.6z M23.9,19.2C23.9,19.2,23.9,19.2,23.9,19.2
		c0.2-0.1,0.3-0.2,0.5-0.3l0,0c0,0,0,0,0,0C24.3,18.9,24.2,19,24,19C24,19.1,24,19.1,23.9,19.2z M22.9,20.4L22.9,20.4
		c-0.1,0-0.1,0-0.2,0c-0.1,0-0.2,0-0.4,0c0,0,0,0,0,0c0,0,0,0,0,0c0.1,0,0.2,0.1,0.4,0C22.8,20.4,22.8,20.4,22.9,20.4z M23.3,23.9
		L23.3,23.9c0-0.2-0.1-0.3-0.2-0.5c0,0,0,0,0,0v0C23.1,23.7,23.2,23.8,23.3,23.9C23.3,24,23.3,24,23.3,23.9
		C23.3,24,23.3,24,23.3,23.9z M23,18.4L23,18.4c0.1-0.1,0.3-0.2,0.4-0.3c0,0,0,0,0,0h0c-0.1,0-0.2,0.1-0.3,0.2
		C23.1,18.3,23.1,18.3,23,18.4L23,18.4L23,18.4z M22.6,20.2C22.6,20.2,22.6,20.2,22.6,20.2h-0.1C22.5,20.2,22.5,20.2,22.6,20.2
		C22.6,20.2,22.6,20.2,22.6,20.2c0.1,0.1,0.2,0.1,0.4,0c0,0,0,0,0,0h0C22.9,20.2,22.8,20.2,22.6,20.2z M21.2,22.4
		C21.2,22.3,21.2,22.3,21.2,22.4c0,0-0.1-0.1-0.1-0.1C21.1,22.2,21,22.1,21,22c0,0,0,0,0,0c0,0,0,0,0,0l0,0c0,0.1,0.1,0.2,0.2,0.3
		C21.2,22.3,21.2,22.3,21.2,22.4z M22.8,20c0.1,0,0.2,0,0.3-0.1c0,0,0,0,0,0h0C23,20,23,20,22.8,20C22.9,20,22.8,20,22.8,20L22.8,20
		C22.8,20,22.8,20,22.8,20C22.8,20,22.8,20,22.8,20z M24,19.4C24,19.4,24,19.4,24,19.4c0.1,0,0.1-0.1,0.1-0.1c0.1,0,0.1-0.1,0.2-0.1
		c0,0,0,0,0,0c0,0,0,0,0,0c-0.1,0-0.1,0.1-0.2,0.1C24,19.3,24,19.4,24,19.4L24,19.4L24,19.4z M21.2,22.8L21.2,22.8
		c0,0.1,0,0.1,0.1,0.2c0,0,0.1,0.1,0.2,0.1h0v0c0,0-0.1,0-0.1-0.1C21.2,22.9,21.2,22.9,21.2,22.8L21.2,22.8z M20.5,21.5
		c0.1,0,0.1,0,0.2,0c0,0,0.1-0.1,0.1-0.1c0,0,0,0,0,0h0c-0.1,0-0.1,0.1-0.2,0.1C20.6,21.4,20.6,21.5,20.5,21.5
		C20.5,21.5,20.5,21.5,20.5,21.5C20.5,21.5,20.5,21.5,20.5,21.5C20.5,21.5,20.5,21.5,20.5,21.5z M20.9,20.7
		C20.9,20.7,20.9,20.7,20.9,20.7L20.9,20.7C20.9,20.7,20.8,20.8,20.9,20.7c-0.1,0.2-0.2,0.2-0.2,0.3v0h0c0,0,0,0,0-0.1
		C20.9,20.9,20.9,20.8,20.9,20.7z M23.3,18.4C23.3,18.3,23.3,18.3,23.3,18.4c-0.1,0-0.2,0.1-0.3,0.2c0,0,0,0,0,0h0
		C23.1,18.5,23.2,18.4,23.3,18.4L23.3,18.4z M23,19.9c0.1,0,0.2,0,0.3-0.1c0,0,0,0,0,0c0,0,0,0,0,0C23.1,19.8,23,19.8,23,19.9
		C23,19.8,23,19.8,23,19.9C22.9,19.9,23,19.9,23,19.9C23,19.9,23,19.9,23,19.9z M21.6,22.7C21.6,22.7,21.6,22.7,21.6,22.7
		C21.6,22.7,21.6,22.7,21.6,22.7c-0.1-0.1-0.2-0.2-0.2-0.2c0,0,0,0,0,0v0C21.3,22.6,21.4,22.6,21.6,22.7
		C21.5,22.7,21.6,22.7,21.6,22.7z M20.6,23.3C20.6,23.4,20.6,23.4,20.6,23.3C20.6,23.4,20.6,23.5,20.6,23.3
		C20.6,23.4,20.6,23.4,20.6,23.3C20.6,23.4,20.6,23.3,20.6,23.3c0-0.1,0-0.2,0-0.2v0c0,0,0,0,0,0C20.6,23.2,20.6,23.3,20.6,23.3z
		 M23.1,24C23.1,23.9,23.1,23.9,23.1,24c-0.1-0.1-0.1-0.2-0.2-0.3c0,0,0,0,0,0c0,0,0,0,0,0C23,23.8,23.1,23.9,23.1,24
		C23.1,24,23.1,24,23.1,24C23.1,24,23.1,24,23.1,24z M23.1,22.5C23.2,22.5,23.2,22.5,23.1,22.5L23.1,22.5L23.1,22.5c0,0-0.1,0-0.2,0
		h0c0,0,0,0,0,0C23,22.5,23.1,22.5,23.1,22.5z M21.7,22.6C21.7,22.6,21.7,22.6,21.7,22.6C21.7,22.6,21.7,22.6,21.7,22.6
		c0-0.1-0.1-0.1-0.2-0.2l0,0c0,0,0,0,0,0C21.5,22.5,21.6,22.6,21.7,22.6z M23.1,22.6L23.1,22.6L23.1,22.6c-0.1-0.1-0.1-0.1-0.2-0.1
		h0c0,0,0,0,0,0C23,22.6,23.1,22.6,23.1,22.6z M21,21.1C21,21.1,21,21.1,21,21.1c-0.1,0-0.2,0.1-0.2,0.1c0,0,0,0,0,0h0
		C20.9,21.2,21,21.1,21,21.1C21,21.1,21,21.1,21,21.1z M21,20.9C21,20.9,21,20.8,21,20.9C21,20.8,21,20.8,21,20.9
		c-0.1,0-0.1,0.1-0.2,0.2c0,0,0,0,0,0c0,0,0,0,0,0C21,21,21,20.9,21,20.9z M21.8,22.5L21.8,22.5C21.8,22.5,21.8,22.5,21.8,22.5
		c0-0.1-0.1-0.1-0.1-0.2c0,0,0,0,0,0c0,0,0,0,0,0C21.6,22.4,21.7,22.5,21.8,22.5z M21.4,23L21.4,23C21.5,23,21.5,23,21.4,23
		c0-0.1-0.1-0.1-0.1-0.2c0,0,0,0,0,0c0,0,0,0,0,0C21.3,22.9,21.4,23,21.4,23z M23.1,18.6C23.1,18.6,23.1,18.6,23.1,18.6
		c-0.1,0-0.1,0-0.1,0.1c0,0,0,0,0,0c0,0,0,0,0,0C23,18.7,23.1,18.7,23.1,18.6C23.1,18.6,23.1,18.6,23.1,18.6z M20.8,23.2
		C20.8,23.2,20.8,23.2,20.8,23.2C20.8,23.2,20.8,23.2,20.8,23.2C20.8,23.1,20.8,23.1,20.8,23.2C20.7,23.2,20.7,23.2,20.8,23.2
		L20.8,23.2C20.7,23.3,20.7,23.3,20.8,23.2C20.8,23.3,20.8,23.3,20.8,23.2z M21.9,22.4C21.9,22.4,21.9,22.4,21.9,22.4
		C21.9,22.3,21.9,22.3,21.9,22.4c0-0.1,0-0.1-0.1-0.1c0,0,0,0,0,0c0,0,0,0,0,0C21.8,22.3,21.9,22.4,21.9,22.4z"/>
	<path class="st2" d="M20.8,20.2c0,0,0-0.1,0-0.1c0-0.2,0-0.4-0.1-0.5c-0.1-0.3-0.2-0.5-0.3-0.8c-0.1-0.2-0.1-0.3-0.2-0.5
		c0-0.1,0-0.3,0-0.4c0-0.2,0.1-0.4,0.2-0.5c0.1-0.3,0.2-0.6,0.3-0.9c0-0.1,0-0.2,0.1-0.3c0-0.1,0-0.2,0-0.3c0-0.2,0-0.3,0-0.5
		c0-0.2,0-0.3-0.1-0.5c0,0,0,0,0,0c0.1,0,0.1,0,0.2,0.1c0.1,0.1,0.1,0.1,0.2,0.2c0.1,0.1,0.1,0.2,0.1,0.3c0,0.2,0.1,0.3,0.1,0.5
		c0,0.1,0,0.1,0,0.2c0,0.1,0,0.2,0,0.3c0,0,0,0,0,0c0,0,0,0,0,0c0-0.1,0-0.2,0-0.3c0-0.2,0-0.5-0.1-0.7c0,0,0,0,0,0
		c0,0,0.1,0,0.1,0.1c0.1,0.1,0.2,0.2,0.2,0.4c0.1,0.2,0.1,0.4,0.2,0.6c0,0,0,0.1,0,0.1c0,0,0,0,0,0c0,0,0,0,0,0c0-0.2,0-0.3-0.1-0.5
		c0-0.1,0-0.1,0-0.2c0,0,0.1,0,0.1,0.1c0.1,0.1,0.1,0.2,0.2,0.2c0.1,0.2,0.2,0.5,0.3,0.7c0.1,0.2,0.1,0.4,0.2,0.6
		c0,0.1,0.1,0.1,0.1,0.2c0,0,0,0,0,0c0,0,0,0,0,0v0c-0.1-0.2-0.2-0.3-0.2-0.5c0-0.1,0-0.1-0.1-0.2l0,0c0,0,0,0,0,0
		c0.2,0.2,0.3,0.5,0.4,0.7c0,0.1,0.1,0.2,0.1,0.2c0,0,0,0.1,0,0.1c0,0.2-0.1,0.5-0.2,0.7c-0.1,0.1-0.1,0.3-0.2,0.4
		c-0.1,0.2-0.2,0.4-0.3,0.5c-0.1,0.1-0.1,0.2-0.2,0.3c-0.1,0.1-0.1,0.1-0.2,0.2c0,0,0,0-0.1,0c-0.2,0-0.3,0-0.5,0
		C21.1,20.1,21,20.2,20.8,20.2C20.8,20.2,20.8,20.2,20.8,20.2L20.8,20.2z M22.5,18.2C22.5,18.1,22.5,18.1,22.5,18.2
		c0-0.3-0.1-0.5-0.2-0.6c0,0,0,0,0,0v0l0,0C22.3,17.7,22.4,17.9,22.5,18.2C22.4,18.1,22.4,18.2,22.5,18.2z M22.4,18.4
		C22.4,18.4,22.4,18.4,22.4,18.4c0-0.3-0.1-0.4-0.2-0.5c0,0,0,0,0,0v0C22.2,18.1,22.3,18.3,22.4,18.4C22.4,18.4,22.4,18.5,22.4,18.4
		C22.4,18.5,22.4,18.4,22.4,18.4z M22.3,18.7C22.3,18.7,22.3,18.6,22.3,18.7c0-0.2-0.1-0.3-0.1-0.4c0,0,0,0,0,0v0
		C22.2,18.5,22.3,18.6,22.3,18.7L22.3,18.7C22.3,18.8,22.3,18.8,22.3,18.7C22.3,18.7,22.3,18.7,22.3,18.7z"/>
	<path class="st1" d="M24.8,16.7C24.8,16.7,24.8,16.6,24.8,16.7c0.1-0.2,0.1-0.2,0.1-0.3c0,0,0,0,0,0c0.1-0.1,0.3-0.2,0.4-0.3
		c0.3-0.2,0.5-0.4,0.7-0.5c0.1-0.1,0.2-0.1,0.4-0.2c0.2-0.1,0.4-0.1,0.5-0.1h0l0,0c0,0-0.1,0.1-0.1,0.1c-0.5,0.5-1.1,0.8-1.7,1.1
		c0,0,0,0,0,0c0,0,0,0,0,0h0c0.1,0,0.1-0.1,0.2-0.1c0.3-0.2,0.6-0.4,0.9-0.5c0.1-0.1,0.2-0.1,0.4-0.2c0.1,0,0.2-0.1,0.2-0.1
		c0.1-0.1,0.2-0.1,0.4-0.1c0.2-0.1,0.4-0.1,0.6,0c0.1,0,0.1,0,0.2,0c0,0,0,0-0.1,0c-0.5,0.3-0.9,0.5-1.4,0.7
		c-0.3,0.1-0.6,0.3-0.9,0.4c0,0,0,0-0.1,0c-0.1,0-0.2,0-0.3,0C25,16.7,24.9,16.7,24.8,16.7L24.8,16.7z"/>
	<path class="st3" d="M20,21.4C20,21.4,20,21.4,20,21.4c-0.1,0-0.1,0-0.1,0c-0.1,0-0.1,0-0.1-0.1c0-0.1,0-0.1-0.1-0.1c0,0,0,0-0.1,0
		c0,0,0,0,0,0v0l0,0c0,0,0,0,0,0h0c0,0-0.1,0-0.1-0.1c0,0,0,0,0,0v0c0,0,0,0.1,0,0.1c0,0,0,0,0,0l0,0c-0.1,0-0.1-0.1-0.1-0.2
		c0,0,0-0.1,0-0.1c0.1-0.1,0.1-0.2,0.2-0.3c0.1-0.1,0.2-0.3,0.3-0.4c0.1-0.1,0.2-0.2,0.3-0.3l0,0c0,0.1,0,0.2-0.1,0.3l0,0
		c0,0,0,0,0,0h0c0-0.1,0.1-0.1,0.1-0.2c0,0,0,0,0-0.1c0.1,0,0.2-0.1,0.2-0.1c0,0.1-0.1,0.2-0.1,0.3c0,0,0,0,0,0h0
		c0,0,0.1-0.1,0.1-0.2c0,0,0,0,0,0h0c0.1,0,0.1,0,0.2,0c0.2-0.1,0.4-0.1,0.5-0.1c0.1,0,0.2,0,0.4,0c0,0-0.1,0.1-0.1,0.1
		c-0.1,0.1-0.2,0.2-0.3,0.2c0,0,0,0,0,0c-0.1,0-0.3,0.1-0.4,0.1c-0.1,0-0.1,0.1-0.1,0.1c0,0-0.1,0.1-0.1,0.1c0,0,0,0-0.1,0
		c0,0,0,0-0.1,0c-0.1,0-0.1,0.1-0.2,0.1c0,0,0,0,0,0v0c0,0,0,0.1-0.1,0.1l0,0v0c0,0,0-0.1,0.1-0.1c0,0,0,0,0,0c0,0,0,0,0,0l0,0
		c-0.1,0.1-0.1,0.2-0.2,0.3c0,0,0,0.1-0.1,0.1c0,0-0.1,0-0.1,0l0,0c0,0,0,0,0,0v0c0,0,0,0.1,0,0.1C19.9,21.3,19.9,21.3,20,21.4
		C20,21.3,20,21.3,20,21.4C20,21.3,20,21.4,20,21.4z M19.9,21.1L19.9,21.1C19.9,21.1,19.9,21.1,19.9,21.1
		C19.9,21.1,19.9,21.1,19.9,21.1c0.1-0.1,0.1-0.1,0.1-0.2v0c0,0,0,0,0,0C19.9,20.9,19.9,21,19.9,21.1z"/>
	<path class="st4" d="M27.1,17.5c0.1-0.1,0.2-0.1,0.3-0.2c0.1-0.1,0.2-0.2,0.3-0.3c0,0,0,0,0-0.1s0,0,0,0c0.1,0,0.3-0.1,0.4-0.1
		c0.2-0.1,0.4,0,0.5,0c0.1,0,0.1,0,0,0.1c-0.1,0.1-0.2,0.1-0.2,0.2c-0.3,0.1-0.6,0.2-0.9,0.3C27.4,17.4,27.3,17.4,27.1,17.5
		C27.1,17.5,27.1,17.5,27.1,17.5z"/>
	<path class="st4" d="M26,19.1c0,0,0.1-0.1,0.1-0.1c0-0.1,0-0.1,0-0.2c0,0,0,0,0,0c0.1,0,0.3,0,0.4,0c0.2,0,0.4-0.1,0.6-0.1
		c0.1,0,0.2-0.1,0.3-0.1c0.1,0,0.2,0,0.2,0c0,0,0,0,0,0c0,0,0,0,0,0.1c-0.1,0.1-0.2,0.1-0.2,0.1C27.2,18.9,27,19,26.8,19
		c-0.2,0-0.4,0-0.5,0.1C26.1,19.1,26.1,19.1,26,19.1z"/>
	<path class="st4" d="M26.3,18.7c0,0,0.1-0.1,0.1-0.1c0.1-0.1,0.2-0.1,0.2-0.2c0,0,0,0,0.1,0c0.4,0,0.7-0.1,1.1-0.2
		c0.1,0,0.2,0,0.2,0c0.1,0,0,0.1,0,0.1c-0.1,0.1-0.2,0.1-0.3,0.2c-0.3,0.1-0.5,0.2-0.8,0.2c-0.2,0-0.3,0-0.5,0.1
		C26.4,18.7,26.3,18.7,26.3,18.7z"/>
	<path class="st3" d="M23.8,23c-0.1,0-0.1,0-0.1-0.1c-0.2-0.2-0.3-0.3-0.4-0.5c0-0.1-0.1-0.1-0.1-0.2c0,0,0.1,0,0.1,0
		c0-0.1-0.1-0.2-0.2-0.2c-0.1-0.1-0.1-0.1-0.2-0.2c0.1,0,0.2,0.1,0.3,0.1c0,0,0,0,0-0.1c-0.1-0.1-0.2-0.2-0.3-0.3
		c-0.1-0.1-0.1-0.1-0.2-0.2c0,0,0,0,0,0h0c0.1,0,0.1,0,0.2,0.1c0.1,0,0.1,0.1,0.2,0.1c0,0,0.1,0.1,0.1,0.1c0,0,0,0,0.1,0.1
		c0.1,0.1,0.2,0.1,0.2,0.2c0.1,0.3,0.3,0.5,0.3,0.8C23.8,22.7,23.8,22.8,23.8,23C23.8,22.9,23.8,22.9,23.8,23z"/>
	<path class="st4" d="M27,15.5c0.1,0,0.1-0.1,0.2-0.1c0.2-0.1,0.4-0.2,0.6-0.3c0.3-0.1,0.5-0.2,0.8-0.3c0.1,0,0.2,0,0.3,0
		c0,0,0,0,0.1,0c0,0.1-0.1,0.1-0.1,0.1c-0.4,0.2-0.6,0.3-0.9,0.5h0c-0.1,0-0.2,0-0.3,0C27.4,15.5,27.2,15.5,27,15.5
		C27,15.5,27,15.5,27,15.5L27,15.5z"/>
	<path class="st4" d="M26.9,17.9c0,0,0.1-0.1,0.1-0.1c0.1-0.1,0.2-0.2,0.2-0.3c0,0,0,0,0,0c0.3-0.1,0.6-0.1,0.9-0.3
		c0.1,0,0.2,0,0.2,0c0,0,0,0,0,0c0,0,0,0.1,0,0.1c-0.1,0.1-0.2,0.2-0.3,0.2c-0.3,0.1-0.5,0.2-0.8,0.3C27.2,17.8,27.1,17.8,26.9,17.9
		L26.9,17.9z"/>
	<path class="st4" d="M27.6,16.8c0.1-0.1,0.1-0.1,0.1-0.2c0-0.1,0-0.2-0.1-0.2c0,0,0.1,0,0.1,0c0.2,0,0.3,0,0.5-0.1
		c0.1,0,0.3,0,0.4,0c0.1,0,0.2,0,0.3,0c0,0,0.1,0,0.1,0h0c0,0,0,0,0,0c-0.1,0-0.1,0.1-0.2,0.1c-0.4,0.2-0.7,0.3-1.1,0.4
		C27.7,16.8,27.7,16.8,27.6,16.8L27.6,16.8z"/>
	<path class="st4" d="M26.7,18.3c0.1-0.1,0.2-0.1,0.2-0.2c0,0,0-0.1,0-0.1c0,0,0,0,0,0c0.3,0,0.5-0.1,0.7-0.2c0.1,0,0.2-0.1,0.3-0.1
		c0.1,0,0.2,0,0.3,0c0.1,0,0.1,0.1,0,0.1c-0.1,0.1-0.2,0.1-0.3,0.2c-0.2,0.1-0.4,0.2-0.6,0.2C27.1,18.2,27,18.2,26.7,18.3
		C26.8,18.3,26.7,18.3,26.7,18.3z"/>
	<path class="st4" d="M26,19.4c0.1-0.1,0.1-0.2-0.1-0.3h0c0.1,0,0.3,0,0.4,0c0.2,0,0.3,0,0.5-0.1c0.1,0,0.2-0.1,0.4-0.1
		c0.1,0,0.2,0,0.2,0.1c0,0,0,0.1,0,0.1c-0.1,0.1-0.2,0.1-0.4,0.2c-0.2,0.1-0.4,0.1-0.6,0.1C26.3,19.5,26.2,19.5,26,19.4
		C26,19.4,26,19.4,26,19.4z"/>
	<path class="st4" d="M26.2,15.5c0,0,0.1-0.1,0.1-0.1c0.3-0.2,0.6-0.5,1-0.7c0.1-0.1,0.2-0.2,0.3-0.2c0,0,0.1,0,0.1,0
		c0,0.1,0,0.1-0.1,0.2c-0.1,0.2-0.3,0.3-0.4,0.5c-0.1,0.1-0.2,0.1-0.2,0.2c0,0,0,0-0.1,0C26.7,15.3,26.5,15.3,26.2,15.5
		C26.2,15.4,26.2,15.4,26.2,15.5L26.2,15.5z"/>
	<path class="st4" d="M27.9,15.7c0.2,0,0.3-0.1,0.5-0.1c0.2,0,0.3-0.1,0.5-0.1c0.1,0,0.3,0,0.4,0c0,0,0.1,0,0.1,0c0,0,0,0,0,0.1
		s-0.1,0-0.1,0.1c-0.2,0.1-0.4,0.2-0.6,0.3c-0.1,0-0.2,0.1-0.3,0.1c0,0,0,0,0,0c0,0-0.1-0.1-0.1-0.1C28.1,15.9,28,15.8,27.9,15.7
		C27.9,15.7,27.9,15.7,27.9,15.7z"/>
	<path class="st3" d="M19.9,23.6c-0.1,0-0.1,0.1-0.2,0.1h0c0,0-0.1,0-0.2,0.1h0c-0.1,0-0.1,0.1-0.1,0.1c0,0.1,0,0.1,0,0.2
		c0,0,0,0,0,0c0,0-0.1,0-0.1,0c0,0-0.1,0-0.1,0c0,0,0-0.1,0-0.1c0,0,0,0,0,0c0-0.1-0.1-0.2-0.1-0.2c0,0-0.1,0-0.1,0c0,0,0,0-0.1,0
		c0,0,0,0,0,0.1c0,0,0,0.1-0.1,0.1c0,0-0.1,0-0.1,0c0,0,0,0,0-0.1c0,0,0-0.1,0-0.1c0,0,0.1,0,0.1-0.1h0c0.1,0,0.1,0,0.2,0.1
		c0,0,0,0,0,0v0c-0.1-0.1-0.1-0.1-0.2-0.1c0,0,0,0,0,0c-0.1,0-0.1,0.1-0.2,0c0,0,0,0,0-0.1v0c0,0,0-0.1,0.1-0.1c0.1,0,0.1,0,0.2,0
		c0,0,0,0,0,0c0,0.1,0,0.2,0.1,0.2c0.1,0,0.1,0.1,0.2,0.1c0,0,0,0.1,0,0.1c0,0,0,0,0,0v0c0,0,0,0,0-0.1c0-0.1,0-0.1-0.1-0.1
		c0-0.1,0-0.1-0.1-0.1c0,0,0,0-0.1,0c0,0,0-0.1,0-0.1c0,0,0,0,0,0c0,0,0,0,0.1,0c0,0,0.1,0,0.1,0.1c0,0,0.1,0.1,0.1,0.1
		c0,0.1,0.1,0.1,0.2,0.1C19.6,23.6,19.7,23.6,19.9,23.6C19.8,23.6,19.9,23.6,19.9,23.6L19.9,23.6z"/>
	<path class="st4" d="M25.9,19.8C25.9,19.7,25.9,19.7,25.9,19.8c0.1-0.1,0.2-0.1,0.2-0.1c0-0.1,0-0.1,0-0.2c0,0,0,0,0,0
		c0.1,0,0.1,0,0.2,0c0.2,0,0.5-0.1,0.7-0.1c0.1,0,0.2,0,0.2,0.1c0,0,0,0,0,0.1c-0.1,0.1-0.1,0.1-0.2,0.1c-0.2,0.1-0.4,0.1-0.5,0.1
		c-0.2,0-0.3,0-0.5,0C25.9,19.8,25.9,19.8,25.9,19.8z"/>
	<path class="st3" d="M20,23.7L20,23.7C20,23.7,20,23.7,20,23.7c0.1,0.1,0.1,0.2,0.2,0.2c0.1,0,0.1,0.1,0.2,0.1c0,0,0,0.1,0,0.1
		s0,0,0,0v0c0,0,0-0.1,0-0.1c0-0.1-0.1-0.1-0.1-0.2c0,0,0,0-0.1,0s-0.1,0-0.1-0.1c0,0,0-0.1,0-0.1c0,0,0,0,0.1,0c0,0,0,0,0.1,0
		c0,0,0.1,0,0.1,0.1c0,0,0.1,0.1,0.1,0.1c0,0,0.1,0,0.1,0c0.1,0,0.2,0,0.3,0c0,0,0,0,0,0c0,0,0,0.1,0,0.1s0,0-0.1,0c0,0-0.1,0-0.1,0
		c0,0-0.1,0-0.1,0c0,0,0,0,0,0.1c0,0.1,0,0.1,0,0.2c0,0,0,0,0,0c0,0-0.1,0-0.1,0c0,0,0,0,0,0c0,0,0-0.1,0-0.1v0
		c0-0.1-0.1-0.2-0.1-0.2c-0.1,0-0.1,0-0.2-0.1c0,0,0,0,0,0c0,0,0,0.1,0,0.1c0,0,0,0-0.1,0c0,0,0,0,0,0v0c0,0,0-0.1,0-0.1
		c0,0,0.1,0,0.1-0.1h0c0.1,0,0.1,0,0.1,0.1c0,0,0,0,0,0v0C20.1,23.8,20.1,23.8,20,23.7C20,23.7,20,23.7,20,23.7
		c-0.1,0.2-0.1,0.2-0.1,0.2c0,0-0.1,0,0-0.1c0,0,0,0,0-0.1c0,0,0,0,0-0.1C19.9,23.7,19.9,23.7,20,23.7z"/>
	<path class="st1" d="M25.4,15.8c-0.1,0.1-0.2,0.2-0.3,0.3c-0.1,0.1-0.2,0.2-0.3,0.3c0,0-0.1,0-0.1,0c-0.1,0-0.3,0.1-0.4,0.1
		c-0.1,0-0.1,0.1-0.2,0.1h0c0.1,0,0.1-0.1,0.2-0.1c0.2-0.1,0.3-0.3,0.5-0.4c0.1-0.1,0.2-0.1,0.3-0.2C25.1,15.8,25.2,15.8,25.4,15.8
		C25.4,15.8,25.4,15.8,25.4,15.8z"/>
	<path class="st4" d="M25.7,20.1c0.1,0,0.1-0.1,0.2-0.1c0,0,0.1-0.1,0.1-0.1c0-0.1,0,0,0.1-0.1c0.2,0,0.4,0,0.5-0.1c0,0,0,0,0.1,0
		c0.1,0,0.1,0,0.2,0l0,0c0,0,0,0,0,0.1c-0.1,0-0.1,0.1-0.2,0.1c-0.2,0.1-0.3,0.1-0.5,0.1C26,20.1,25.9,20.1,25.7,20.1
		C25.7,20.1,25.7,20.1,25.7,20.1z"/>
	<path class="st4" d="M24.3,25.8C24.3,25.8,24.3,25.8,24.3,25.8c0.2,0.1,0.3,0.2,0.4,0.2c0,0,0.1,0,0.1,0h0c0,0.1,0.1,0.1,0.1,0.2
		c0,0,0,0.1,0.1,0.2c0,0.1,0,0.2,0.1,0.2v0c0,0,0,0.1-0.1,0.1c0,0-0.1,0-0.1-0.1c-0.1-0.1-0.1-0.1-0.2-0.2
		C24.5,26.2,24.4,26,24.3,25.8C24.3,25.8,24.3,25.8,24.3,25.8L24.3,25.8z"/>
	<path class="st4" d="M24.9,25C25,25,25,25,24.9,25c0.2,0.1,0.2,0.2,0.3,0.3c0.1,0.2,0.2,0.4,0.3,0.6c0,0,0,0,0,0.1c0,0,0,0-0.1,0
		c-0.1,0-0.2-0.1-0.3-0.2c-0.1-0.1-0.2-0.2-0.3-0.3c0,0,0,0,0,0c0.1,0,0.1-0.1,0.1-0.1C25,25.2,25,25.1,24.9,25
		C24.9,25,24.9,25,24.9,25L24.9,25z"/>
	<path class="st4" d="M25.4,20.4c0.1,0,0.1,0,0.2-0.1c0.1,0,0.1-0.1,0.2-0.2c0,0,0,0,0,0c0.1,0,0.1,0,0.2,0c0.1,0,0.2,0,0.4,0
		c0.1,0,0.2,0,0.2,0.1c0,0,0,0.1,0,0.1c-0.1,0.1-0.2,0.1-0.3,0.1c-0.2,0-0.4,0.1-0.6,0.1C25.5,20.4,25.4,20.4,25.4,20.4z"/>
	<path class="st4" d="M24.9,16c0-0.1,0.1-0.1,0.1-0.1c0.1-0.1,0.1-0.1,0.2-0.2c0.2-0.2,0.4-0.3,0.5-0.5c0.1-0.1,0.1-0.1,0.2-0.2
		c0,0,0,0.1,0,0.1c0,0.2-0.1,0.3-0.2,0.4c-0.1,0.1-0.2,0.2-0.2,0.3c-0.1,0.1-0.1,0.1-0.1,0.1c-0.1,0-0.3,0.1-0.4,0.1
		C25,15.9,24.9,16,24.9,16L24.9,16z"/>
	<path class="st4" d="M24.8,24.2c0.1,0.1,0.2,0.2,0.2,0.3c0.1,0.2,0.2,0.3,0.3,0.5c0,0,0,0.1,0,0.1s0,0,0,0c-0.1,0-0.1,0-0.2-0.1
		c-0.1-0.1-0.2-0.2-0.3-0.3v0c0,0,0-0.1,0-0.1C24.8,24.4,24.8,24.3,24.8,24.2C24.8,24.2,24.8,24.2,24.8,24.2
		C24.8,24.2,24.8,24.2,24.8,24.2z"/>
	<path class="st4" d="M24.8,25.8c0.1,0,0.2-0.1,0.2-0.2c0.1,0.1,0.1,0.2,0.2,0.2c0.1,0.2,0.2,0.3,0.2,0.5v0h0
		c-0.1-0.1-0.3-0.2-0.4-0.3C24.9,26,24.8,25.9,24.8,25.8L24.8,25.8z"/>
	<path class="st4" d="M25.2,20.7c0,0,0.1,0,0.1-0.1c0.1,0,0.1-0.1,0.1-0.1c0-0.1,0-0.1,0.1-0.1c0.1,0,0.2,0,0.4,0
		c0.1,0,0.1,0,0.2,0.1c0,0,0,0.1,0,0.1c-0.1,0-0.1,0.1-0.2,0.1c-0.1,0-0.2,0-0.4,0.1C25.4,20.7,25.3,20.7,25.2,20.7
		C25.2,20.7,25.2,20.7,25.2,20.7z"/>
	<path class="st4" d="M23.9,25.9c0.1,0,0.1,0.1,0.2,0.1c0.1,0,0.1,0.1,0.2,0.1c0,0,0.1,0,0.1-0.1c0,0,0.1,0.1,0.1,0.1
		c0.1,0.1,0.1,0.1,0.1,0.2c0,0,0,0.1,0,0.1c0,0.1,0,0.1-0.1,0c-0.1,0-0.1-0.1-0.2-0.1C24.1,26.2,24,26.1,23.9,25.9
		C23.9,25.9,23.9,25.9,23.9,25.9z"/>
	<path class="st3" d="M20.1,21.4C20.1,21.5,20.1,21.5,20.1,21.4c-0.2,0.1-0.3,0.2-0.4,0.2c-0.1,0-0.2,0.1-0.2,0.2v0c0,0,0,0,0,0
		c-0.1-0.1-0.1-0.2,0-0.3c0-0.1,0.1-0.2,0.2-0.2c0,0,0.1,0,0.1,0c0,0,0,0,0,0c0,0.1,0.1,0.1,0.1,0.1C20,21.5,20,21.5,20.1,21.4
		C20.1,21.4,20.1,21.4,20.1,21.4z"/>
	<path class="st4" d="M24.9,21c0.1,0,0.2-0.1,0.3-0.2l0,0c0,0,0,0,0.1,0c0.1,0,0.2,0,0.3,0c0.1,0,0.1,0,0.2,0.1c0,0,0,0.1,0,0.1
		c-0.1,0-0.1,0.1-0.2,0.1C25.3,21,25.1,21,24.9,21L24.9,21z"/>
	<path class="st4" d="M24.5,21.3c0.1,0,0.1,0,0.2-0.1c0,0,0.1-0.1,0.1-0.1c0,0,0,0,0,0c0.1,0,0.1,0,0.2,0c0.1,0,0.1,0,0.2,0
		s0.1,0,0.2,0.1c0,0,0,0.1,0,0.1c-0.1,0-0.1,0.1-0.2,0.1C25,21.3,24.8,21.3,24.5,21.3C24.6,21.3,24.6,21.3,24.5,21.3L24.5,21.3z"/>
	<path class="st4" d="M24.2,21.6c0.1,0,0.2-0.1,0.3-0.1c0,0,0,0,0,0c0-0.1,0-0.1,0.1,0c0.1,0,0.1,0,0.2,0s0.1,0,0.1,0.1
		c0,0,0,0.1,0,0.1c-0.1,0-0.1,0-0.2,0.1c-0.1,0-0.2,0-0.2,0C24.4,21.6,24.3,21.6,24.2,21.6C24.3,21.6,24.3,21.6,24.2,21.6z"/>
	<path class="st4" d="M23.9,21.8c0.1,0,0.2,0,0.3-0.1c0,0,0,0,0.1-0.1c0,0,0,0,0,0c0.1,0,0.2,0,0.2,0c0,0,0.1,0,0.1,0.1
		c0,0,0,0.1,0,0.1c-0.1,0-0.1,0-0.2,0C24.2,21.8,24.1,21.8,23.9,21.8C23.9,21.8,23.9,21.8,23.9,21.8z"/>
	<path class="st4" d="M23.1,25.1C23.2,25.1,23.2,25.1,23.1,25.1c0.2,0.2,0.2,0.2,0.3,0.2c0,0,0.1,0,0.1,0c0,0.1,0.1,0.1,0.1,0.2
		c0,0.1,0,0.1,0,0.1c0,0-0.1,0-0.1,0c0,0-0.1-0.1-0.1-0.1C23.3,25.4,23.2,25.2,23.1,25.1C23.2,25.1,23.2,25.1,23.1,25.1L23.1,25.1z"
		/>
	<path class="st3" d="M20,21.6C20,21.6,20,21.6,20,21.6c-0.2,0.1-0.3,0.2-0.4,0.2h0v0c0,0,0,0,0.1-0.1C19.8,21.7,19.9,21.6,20,21.6z
		"/>
	<path class="st2" d="M19.3,24.2c0,0,0-0.1,0-0.1v0c0,0,0.1,0,0.1,0C19.4,24.1,19.4,24.1,19.3,24.2C19.3,24.2,19.3,24.2,19.3,24.2z"
		/>
	<path class="st2" d="M20.3,24.6c0,0,0-0.1,0-0.1c0,0,0,0,0,0l0,0c0,0,0.1,0,0.1,0S20.4,24.5,20.3,24.6
		C20.4,24.5,20.3,24.6,20.3,24.6z"/>
	<path class="st4" d="M26.2,15.5L26.2,15.5L26.2,15.5L26.2,15.5z"/>
	<path class="st2" d="M22.2,16.9L22.2,16.9L22.2,16.9L22.2,16.9L22.2,16.9z"/>
	<path class="st4" d="M24.3,25.8L24.3,25.8L24.3,25.8L24.3,25.8L24.3,25.8z"/>
	<path class="st4" d="M24.9,16C24.9,16,24.9,16,24.9,16C24.9,16,24.9,16,24.9,16L24.9,16L24.9,16z"/>
	<path class="st4" d="M27,15.5L27,15.5L27,15.5L27,15.5L27,15.5z"/>
	<path class="st1" d="M21.3,23.6L21.3,23.6C21.3,23.6,21.3,23.6,21.3,23.6L21.3,23.6z"/>
	<path class="st1" d="M21.3,24.1C21.3,24.1,21.3,24.1,21.3,24.1C21.3,24.1,21.3,24.1,21.3,24.1C21.3,24.1,21.3,24.1,21.3,24.1
		C21.3,24.1,21.3,24.1,21.3,24.1z"/>
	<path class="st4" d="M23.1,25.1L23.1,25.1L23.1,25.1L23.1,25.1z"/>
	<polygon class="st4" points="24.3,25.8 24.3,25.8 24.3,25.8 	"/>
	<path class="st2" d="M20.8,20.2L20.8,20.2L20.8,20.2z"/>
	<path class="st0" d="M20.2,20.9C20.2,20.9,20.3,20.9,20.2,20.9L20.2,20.9C20.3,20.9,20.3,21,20.2,20.9c0.1,0.2,0.1,0.3,0,0.4
		c0,0-0.1,0.1-0.1,0.1c0,0,0,0,0,0c0,0,0,0,0-0.1c0,0,0,0,0,0c0,0-0.1,0-0.1,0c0,0,0,0,0-0.1v0c0,0,0,0,0,0c0,0,0,0,0,0
		c0,0,0.1,0,0.1,0c0,0,0.1-0.1,0.1-0.1C20.1,21,20.1,20.9,20.2,20.9l0-0.1c0,0,0,0,0,0C20.3,20.8,20.3,20.8,20.2,20.9
		C20.2,20.8,20.2,20.9,20.2,20.9C20.2,20.9,20.2,20.9,20.2,20.9C20.2,20.9,20.2,20.9,20.2,20.9C20.2,20.9,20.2,20.9,20.2,20.9z
		 M20.1,21L20.1,21C20.1,21.1,20.1,21.1,20.1,21C20.1,21.1,20.1,21.1,20.1,21c0.1,0.1,0,0.2,0,0.2c0,0,0,0-0.1,0s0,0-0.1,0
		c0,0,0,0.1,0,0.1C20.1,21.3,20.3,21.1,20.1,21C20.2,21,20.2,21,20.1,21z"/>
	<path class="st3" d="M23.8,18.7C23.9,18.6,23.9,18.6,23.8,18.7c0.4-0.2,0.6-0.4,0.9-0.5c0,0,0,0,0,0c0,0,0,0,0,0
		c-0.1,0.1-0.3,0.1-0.4,0.2C24.2,18.5,24,18.6,23.8,18.7C23.9,18.7,23.9,18.7,23.8,18.7z"/>
	<path class="st3" d="M23.6,23.9L23.6,23.9C23.6,23.9,23.6,23.9,23.6,23.9L23.6,23.9C23.6,23.9,23.6,23.9,23.6,23.9
		c-0.1-0.3-0.1-0.4-0.2-0.6c0-0.1-0.1-0.1-0.1-0.2v0c0,0,0,0,0,0C23.5,23.3,23.6,23.6,23.6,23.9C23.6,23.8,23.6,23.8,23.6,23.9z"/>
	<path class="st3" d="M22.5,20.9C22.5,21,22.4,21,22.5,20.9c-0.3,0.1-0.4,0-0.6,0c-0.1,0-0.2-0.1-0.3-0.1c0,0,0,0,0,0c0,0,0,0,0,0
		c0,0,0,0,0,0c0,0,0.1,0,0.1,0.1c0.1,0,0.3,0.1,0.4,0.1C22.3,20.9,22.4,20.9,22.5,20.9z"/>
	<path class="st3" d="M23.9,18.9C23.9,18.9,23.9,18.9,23.9,18.9C23.9,18.9,23.9,18.9,23.9,18.9C23.9,18.9,24,18.8,23.9,18.9
		c0.3-0.2,0.5-0.3,0.6-0.4c0,0,0,0,0,0c0,0,0,0,0,0c-0.1,0.1-0.2,0.1-0.4,0.2C24.1,18.8,24,18.8,23.9,18.9
		C23.9,18.9,23.9,18.9,23.9,18.9z"/>
	<path class="st3" d="M23.2,22.4c-0.1,0-0.2,0-0.3-0.1c-0.1-0.1-0.3-0.1-0.4-0.2c0,0,0,0,0,0c0,0,0,0,0,0h0c0.1,0.1,0.2,0.1,0.3,0.2
		S23.1,22.3,23.2,22.4C23.2,22.3,23.2,22.3,23.2,22.4C23.2,22.3,23.3,22.3,23.2,22.4C23.3,22.4,23.2,22.4,23.2,22.4z"/>
	<path class="st3" d="M22.4,20.8c-0.2,0-0.3,0-0.5-0.1c0,0-0.1,0,0,0c0,0,0,0,0.1,0C22,20.7,22.2,20.7,22.4,20.8c0,0,0.1,0,0.2,0h0
		c0,0,0,0,0,0C22.5,20.8,22.4,20.8,22.4,20.8z"/>
	<path class="st3" d="M23.4,24c0-0.1,0-0.1,0-0.2c-0.1-0.2-0.1-0.4-0.2-0.5l0,0v0h0c0,0.1,0.1,0.1,0.1,0.2
		C23.4,23.6,23.4,23.7,23.4,24C23.4,23.9,23.4,23.9,23.4,24L23.4,24z"/>
	<path class="st3" d="M23.1,18.2L23.1,18.2C23,18.2,23.1,18.2,23.1,18.2c0-0.1,0.1-0.1,0.1-0.2c0.1-0.1,0.3-0.2,0.4-0.2l0,0h0
		c0,0,0,0,0,0c-0.1,0.1-0.3,0.2-0.4,0.3C23.2,18.2,23.1,18.2,23.1,18.2L23.1,18.2z"/>
	<path class="st3" d="M22.5,20.6c-0.1,0-0.3,0-0.4-0.1h0c0,0,0,0,0,0c0,0,0,0,0,0c0.2,0.1,0.4,0.1,0.5,0.1c0,0,0.1,0,0.1,0h0
		c0,0,0,0,0,0C22.6,20.6,22.5,20.6,22.5,20.6z"/>
	<path class="st3" d="M23.9,19.2c0,0,0.1-0.1,0.1-0.1c0.1-0.1,0.2-0.2,0.4-0.2c0,0,0,0,0,0l0,0C24.2,19,24.1,19.1,23.9,19.2
		C23.9,19.2,23.9,19.2,23.9,19.2z"/>
	<path class="st3" d="M22.9,20.4c-0.1,0-0.1,0-0.2,0.1c-0.1,0-0.3,0-0.4,0c0,0,0,0,0,0c0,0,0,0,0,0c0.1,0,0.2,0,0.4,0
		C22.7,20.4,22.8,20.4,22.9,20.4C22.9,20.4,22.9,20.3,22.9,20.4z"/>
	<path class="st3" d="M23.3,23.9C23.3,24,23.3,24,23.3,23.9C23.3,24,23.3,24,23.3,23.9c-0.1-0.1-0.1-0.3-0.2-0.4v0c0,0,0,0,0,0
		C23.2,23.7,23.3,23.8,23.3,23.9L23.3,23.9z"/>
	<path class="st3" d="M23,18.4L23,18.4L23,18.4c0-0.1,0.1-0.1,0.1-0.1c0.1-0.1,0.2-0.1,0.3-0.2h0c0,0,0,0,0,0
		C23.3,18.2,23.2,18.3,23,18.4L23,18.4z"/>
	<path class="st3" d="M22.6,20.2c0.1,0,0.2,0,0.3,0h0c0,0,0,0,0,0C22.9,20.2,22.7,20.2,22.6,20.2c-0.1,0.1-0.1,0.1-0.1,0
		c0,0,0,0,0,0h0C22.6,20.2,22.6,20.2,22.6,20.2z"/>
	<path class="st3" d="M21.2,22.4C21.2,22.4,21.2,22.3,21.2,22.4C21,22.2,21,22.1,21,22l0,0v0c0,0,0,0,0,0c0,0.1,0.1,0.2,0.2,0.3
		C21.2,22.3,21.2,22.3,21.2,22.4C21.2,22.3,21.2,22.3,21.2,22.4z"/>
	<path class="st3" d="M22.8,20C22.8,20,22.8,20,22.8,20L22.8,20L22.8,20C22.8,20,22.8,20,22.8,20c0.1,0,0.2,0,0.3-0.1h0c0,0,0,0,0,0
		C23,20,22.9,20,22.8,20z"/>
	<path class="st3" d="M24,19.4L24,19.4L24,19.4c0-0.1,0.1-0.1,0.1-0.2c0.1,0,0.1-0.1,0.2-0.1c0,0,0,0,0,0v0
		c-0.1,0.1-0.1,0.1-0.2,0.1S24,19.4,24,19.4C24,19.4,24,19.4,24,19.4z"/>
	<path class="st3" d="M21.2,22.8L21.2,22.8c0.1,0.1,0.1,0.1,0.1,0.2c0,0,0.1,0.1,0.1,0.1c0,0,0,0,0,0c0,0,0,0,0,0
		c-0.1,0-0.1-0.1-0.2-0.1C21.2,22.9,21.1,22.9,21.2,22.8C21.1,22.8,21.1,22.8,21.2,22.8z"/>
	<path class="st3" d="M20.5,21.5C20.5,21.5,20.5,21.5,20.5,21.5C20.5,21.5,20.5,21.5,20.5,21.5C20.5,21.5,20.5,21.5,20.5,21.5
		c0,0,0.1-0.1,0.1-0.1c0.1,0,0.1-0.1,0.2-0.1c0,0,0,0,0,0v0c0,0-0.1,0.1-0.1,0.1C20.7,21.5,20.6,21.5,20.5,21.5z"/>
	<path class="st3" d="M20.9,20.7c0,0.1-0.1,0.2-0.1,0.2c0,0,0,0,0,0.1c0,0,0,0,0,0v0C20.7,20.9,20.8,20.9,20.9,20.7
		C20.8,20.8,20.9,20.7,20.9,20.7L20.9,20.7C20.9,20.7,20.9,20.7,20.9,20.7z"/>
	<path class="st3" d="M23.3,18.4L23.3,18.4c-0.1,0.1-0.2,0.1-0.3,0.2h0c0,0,0,0,0,0C23.1,18.4,23.2,18.4,23.3,18.4
		C23.3,18.3,23.3,18.3,23.3,18.4z"/>
	<path class="st3" d="M23,19.9C23,19.9,23,19.9,23,19.9C23,19.9,23,19.9,23,19.9C22.9,19.8,23,19.8,23,19.9c0.1-0.1,0.2-0.1,0.3-0.1
		h0c0,0,0,0,0,0C23.2,19.8,23.1,19.9,23,19.9z"/>
	<path class="st3" d="M21.6,22.7C21.5,22.7,21.5,22.7,21.6,22.7c-0.1-0.1-0.2-0.1-0.2-0.2v0h0C21.4,22.6,21.5,22.6,21.6,22.7
		C21.6,22.7,21.6,22.7,21.6,22.7C21.6,22.7,21.6,22.7,21.6,22.7z"/>
	<path class="st3" d="M20.6,23.3c0-0.1,0-0.2,0-0.2c0,0,0,0,0,0v0C20.7,23.2,20.7,23.2,20.6,23.3C20.6,23.3,20.6,23.4,20.6,23.3
		C20.6,23.4,20.6,23.4,20.6,23.3L20.6,23.3C20.6,23.4,20.6,23.4,20.6,23.3z"/>
	<path class="st3" d="M23.1,24C23.1,24,23.1,24,23.1,24C23.1,24,23.1,24,23.1,24c-0.1-0.1-0.1-0.2-0.2-0.3v0h0
		C23.1,23.7,23.1,23.8,23.1,24C23.1,23.9,23.1,24,23.1,24z"/>
	<path class="st3" d="M23.1,22.5c-0.1,0-0.1,0-0.2,0c0,0,0,0,0,0h0C23,22.4,23.1,22.4,23.1,22.5L23.1,22.5L23.1,22.5
		C23.2,22.5,23.2,22.5,23.1,22.5z"/>
	<path class="st3" d="M21.7,22.6c-0.1,0-0.1-0.1-0.2-0.1c0,0,0,0,0,0c0,0,0,0,0,0C21.6,22.5,21.6,22.5,21.7,22.6
		C21.7,22.6,21.7,22.6,21.7,22.6C21.7,22.6,21.7,22.6,21.7,22.6z"/>
	<path class="st3" d="M23.1,22.6c-0.1,0-0.1,0-0.2-0.1c0,0,0,0,0,0h0C23,22.5,23.1,22.5,23.1,22.6C23.1,22.6,23.2,22.6,23.1,22.6
		C23.2,22.6,23.2,22.6,23.1,22.6z"/>
	<path class="st3" d="M21,21.1C21,21.1,21,21.1,21,21.1c-0.1,0.1-0.1,0.1-0.2,0.1h0v0C20.9,21.1,21,21.1,21,21.1
		C21,21.1,21,21.1,21,21.1z"/>
	<path class="st3" d="M21,20.9c0,0.1-0.1,0.2-0.1,0.2c0,0,0,0,0,0c0,0,0,0,0,0C20.9,21,21,20.9,21,20.9C21,20.8,21,20.8,21,20.9
		C21,20.8,21,20.9,21,20.9z"/>
	<path class="st3" d="M21.8,22.5c-0.1,0-0.1-0.1-0.2-0.1c0,0,0,0,0,0c0,0,0,0,0,0C21.7,22.4,21.8,22.4,21.8,22.5
		C21.8,22.5,21.8,22.5,21.8,22.5L21.8,22.5z"/>
	<path class="st3" d="M21.4,23c-0.1,0-0.1-0.1-0.1-0.1c0,0,0,0,0,0c0,0,0,0,0,0C21.4,22.9,21.4,22.9,21.4,23
		C21.5,23,21.5,23,21.4,23L21.4,23z"/>
	<path class="st3" d="M23.1,18.6C23.1,18.6,23.1,18.6,23.1,18.6c0,0.1-0.1,0.1-0.1,0.1c0,0,0,0,0,0c0,0,0,0,0,0
		C23,18.6,23,18.6,23.1,18.6C23.1,18.6,23.1,18.6,23.1,18.6z"/>
	<path class="st3" d="M20.8,23.2C20.8,23.3,20.8,23.3,20.8,23.2v0.1l0,0C20.7,23.3,20.8,23.3,20.8,23.2
		C20.8,23.2,20.8,23.2,20.8,23.2C20.8,23.2,20.8,23.2,20.8,23.2C20.8,23.2,20.8,23.2,20.8,23.2z"/>
	<path class="st3" d="M21.9,22.4C21.9,22.4,21.8,22.3,21.9,22.4c-0.1-0.1-0.1-0.1-0.1-0.1c0,0,0,0,0,0
		C21.9,22.3,21.9,22.3,21.9,22.4C21.9,22.3,21.9,22.3,21.9,22.4C21.9,22.4,21.9,22.4,21.9,22.4z"/>
	<path class="st0" d="M22.5,18.2C22.4,18.1,22.4,18.1,22.5,18.2c-0.1-0.3-0.2-0.4-0.3-0.6l0,0v0c0,0,0,0,0,0
		C22.4,17.7,22.4,17.9,22.5,18.2C22.5,18.1,22.5,18.1,22.5,18.2z"/>
	<path class="st0" d="M22.4,18.4C22.4,18.4,22.4,18.5,22.4,18.4C22.4,18.5,22.4,18.4,22.4,18.4c-0.1-0.2-0.1-0.4-0.2-0.5v0h0
		c0.1,0.1,0.1,0.3,0.2,0.4C22.4,18.4,22.4,18.4,22.4,18.4z"/>
	<path class="st0" d="M22.3,18.7C22.3,18.7,22.3,18.7,22.3,18.7L22.3,18.7C22.3,18.7,22.3,18.7,22.3,18.7c0-0.1-0.1-0.3-0.1-0.4v0
		c0,0,0,0,0,0C22.3,18.4,22.3,18.5,22.3,18.7C22.3,18.6,22.3,18.7,22.3,18.7z"/>
	<path class="st4" d="M19.9,21.1c0-0.1,0-0.2,0.1-0.2c0,0,0,0,0,0c0,0,0,0,0,0C20,21,19.9,21,19.9,21.1
		C19.9,21.1,19.9,21.2,19.9,21.1C19.9,21.1,19.9,21.1,19.9,21.1L19.9,21.1z"/>
	<path class="st3" d="M20.1,21C20.2,21,20.2,21,20.1,21c0.1,0.1,0,0.3-0.1,0.3c0,0-0.1,0,0-0.1c0,0,0,0,0.1,0c0,0,0,0,0.1,0
		C20.2,21.2,20.2,21.1,20.1,21C20.2,21,20.2,21,20.1,21C20.2,21,20.2,21,20.1,21z"/>
	<path class="st3" d="M20.2,20.9C20.2,20.9,20.2,20.9,20.2,20.9C20.2,20.9,20.2,20.9,20.2,20.9L20.2,20.9z"/>
</g>
</svg>
