<?xml version="1.0" encoding="utf-8"?>
<!-- Generator: Adobe Illustrator 23.0.2, SVG Export Plug-In . SVG Version: 6.00 Build 0)  -->
<svg version="1.1" id="Layer_1" xmlns="http://www.w3.org/2000/svg" xmlns:xlink="http://www.w3.org/1999/xlink" x="0px" y="0px"
	 viewBox="0 0 75 40" style="enable-background:new 0 0 75 40;" xml:space="preserve">
<style type="text/css">
	.st0{fill:#CB7400;}
	.st1{fill:#F4A82E;}
	.st2{fill:#394855;}
	.st3{fill:#FD593B;}
	.st4{fill:#CA1B00;}
	.st5{fill:#EFC2A6;}
	.st6{fill:#39637C;}
	.st7{fill:#5A6B85;}
	.st8{fill:#47C9A9;}
	.st9{fill:#FFFFFF;}
	.st10{fill:#8EA8D1;}
</style>
<g>
	<path class="st0" d="M35.1,24.4c-1.9,0-7.3,2.6-7.3,2.6h7.3h7.3C42.4,26.9,37.1,24.4,35.1,24.4z"/>
	<path class="st0" d="M47.1,28.3h-8.4c0,0-2.2-4,0-4C41,24.2,47.1,28.3,47.1,28.3z"/>
	<path class="st1" d="M30.5,28.3h8.4c0,0,2.2-4,0-4C36.6,24.2,30.5,28.3,30.5,28.3z"/>
	<g>
		<path class="st2" d="M40.4,14.9L40.4,14.9c0,0,1.6-2.2,4-3.2l0,0C42,12.8,40.4,14.9,40.4,14.9z"/>
		<rect x="36.1" y="17.2" transform="matrix(0.9927 -0.1203 0.1203 0.9927 -1.8078 4.5944)" width="2" height="0.2"/>
		<rect x="38.1" y="16.3" transform="matrix(0.9927 -0.1202 0.1202 0.9927 -1.784 4.7188)" class="st2" width="0.2" height="1.7"/>
		<g>
			<path class="st3" d="M40.9,19.1c0.3-0.7,0.3-0.7,0.3-1.1c0-0.1-0.1-0.4,0-0.5l-0.1,0c-0.1,0.1-0.3,0.1-0.4,0.2
				c-0.5,0.3-0.9,1.3-1.2,2.1l1.1,0.4C40.7,19.4,40.7,19.4,40.9,19.1z"/>
			<path class="st4" d="M40.6,17.9c-0.2,0-0.8,0.1-1,0c-0.2-0.1-0.9-0.6-0.9-0.6l-0.3,0.3c0,0,0.7,0.6,1,0.8
				c0.3,0.1,0.8,0.1,1.1,0.1C41,18.4,40.9,18,40.6,17.9z"/>
			<path class="st5" d="M40.5,16.9L40.5,16.9c0,0,0.1-0.1,0.1-0.1c0-0.1,0.1-0.2,0.2-0.3c0,0,0.1-0.2,0.5,0c0.3,0.1,0.4,0.6,0.3,0.9
				c-0.1,0.3-0.5,0.4-0.9,0.3c0,0-0.3-0.1-0.3-0.2s0-0.1,0.1-0.4C40.5,17,40.5,17,40.5,16.9C40.5,16.9,40.5,16.9,40.5,16.9z"/>
			<path d="M40.7,16.7c0,0,0.3,0.1,0.4,0.2c0,0-0.1,0.4-0.3,0.3c-0.2-0.1-0.1-0.3-0.2-0.4C40.6,16.8,40.7,16.7,40.7,16.7z"/>
			<path class="st3" d="M40.8,17.1c0,0,0-0.1-0.1-0.2c0,0,0-0.1-0.1-0.1c0,0,0,0,0,0c0,0,0.3,0.1,0.4,0.2c0,0,0,0.1-0.1,0.2
				C40.9,17.1,40.9,17.1,40.8,17.1C40.8,17.1,40.8,17.1,40.8,17.1z"/>
			<path class="st6" d="M40.6,16.6c0,0,0.4,0.2,0.5,0.2c0,0,0,0.2,0.1,0.3c0.1,0,0.2,0,0.3,0c0.1,0.1,0,0.3,0,0.3l0.1,0
				c0,0,0.2-0.4,0.2-0.5c0.1-0.2,0.1-0.5-0.4-0.8C41,16,40.8,16.3,40.6,16.6z"/>
			<path class="st5" d="M38.8,17.3c0,0-0.2-0.1-0.2-0.2c-0.1,0-0.3,0-0.2,0.2c0.1,0.1,0.2,0.2,0.2,0.2L38.8,17.3z"/>
		</g>
		<path class="st7" d="M45.6,20l-0.4-2.6l0,0c-0.2-0.4-0.3-0.6-0.6-0.7l-4.2-1.8c-0.7-0.3-1.1-0.1-1.3,0l-2.9,2l0.1,0.1l3-2.1
			c0.2-0.1,0.6-0.2,1.1,0l2.2,1l-0.6,3.5l3.1-1.9l0.4,2.4H45.6z M42.8,16l1.8,0.8c0.2,0.1,0.3,0.2,0.5,0.5l-2.8,1.8L42.8,16z"/>
		<polygon class="st6" points="28.9,16.4 45.6,20 43.1,23.4 29.1,17.3 		"/>
		<polygon class="st8" points="37.1,18.1 36.3,16.8 30.1,16.1 28.9,16.4 		"/>
		<g>
			<path d="M32.7,19.2c-0.3,0.8-1.3,1.2-2.2,0.8c-0.8-0.3-1.2-1.3-0.8-2.2c0.3-0.8,1.3-1.2,2.2-0.8C32.7,17.3,33.1,18.3,32.7,19.2z"
				/>
			<path class="st9" d="M32.1,18.9c-0.2,0.5-0.7,0.7-1.2,0.5s-0.7-0.7-0.5-1.2s0.7-0.7,1.2-0.5C32.1,17.8,32.3,18.4,32.1,18.9z"/>
			<path class="st2" d="M31.9,18.8c-0.1,0.4-0.6,0.5-1,0.4c-0.4-0.1-0.5-0.6-0.4-1c0.1-0.4,0.6-0.5,1-0.4
				C31.9,18,32.1,18.4,31.9,18.8z"/>
			<path d="M31.5,18c0,0-0.1,0.1-0.1,0c0,0-0.1-0.1,0-0.1c0,0,0.1-0.1,0.1,0C31.5,17.9,31.5,18,31.5,18z"/>
			<path d="M31,18c0,0,0,0.1,0,0.1c0,0-0.1,0-0.1,0c0,0,0-0.1,0-0.1C30.9,17.9,31,17.9,31,18z"/>
			<path d="M30.7,18.4C30.8,18.4,30.8,18.5,30.7,18.4c0.1,0.1,0,0.2,0,0.2C30.7,18.6,30.6,18.6,30.7,18.4
				C30.6,18.5,30.7,18.5,30.7,18.4z"/>
			<path d="M30.9,18.9c0,0,0.1-0.1,0.1,0c0,0,0.1,0.1,0,0.1c0,0-0.1,0.1-0.1,0C30.9,19.1,30.9,19,30.9,18.9z"/>
			<path d="M31.4,19c0,0,0-0.1,0-0.1c0,0,0.1,0,0.1,0c0,0,0,0.1,0,0.1C31.5,19,31.5,19,31.4,19z"/>
			<path d="M31.7,18.5C31.7,18.5,31.6,18.5,31.7,18.5c-0.1-0.1,0-0.2,0-0.2C31.8,18.3,31.8,18.4,31.7,18.5
				C31.8,18.5,31.8,18.5,31.7,18.5z"/>
			<path class="st9" d="M31.5,18.6c0,0.1-0.2,0.2-0.4,0.1c-0.1,0-0.2-0.2-0.1-0.4c0-0.1,0.2-0.2,0.4-0.1
				C31.5,18.3,31.6,18.5,31.5,18.6z"/>
		</g>
		<g>
			<path d="M44.7,24c0,0,0-0.1,0-0.1h0l0-0.3h0c0-0.1,0-0.2,0-0.3h0l0-0.3h0c0-0.1,0-0.2-0.1-0.3l0,0l-0.1-0.3h0
				c0-0.1-0.1-0.2-0.2-0.3v0l-0.1-0.2h0c-0.1-0.1-0.2-0.1-0.3-0.2v0l-0.3-0.1l0,0c-0.1,0-0.2,0-0.3-0.1v0h-0.3v0c-0.1,0-0.2,0-0.3,0
				v0l-0.3,0v0c-0.1,0-0.2,0.1-0.3,0.1l0,0l-0.2,0.2v0c-0.1,0.1-0.1,0.1-0.2,0.2h0l-0.1,0.2l0,0c0,0,0,0.1-0.1,0.1c0,0,0,0.1,0,0.1
				h0l0,0.3h0c0,0.1,0,0.2,0,0.3h0l0,0.3h0c0,0.1,0,0.2,0.1,0.3l0,0l0.1,0.3h0c0,0.1,0.1,0.2,0.2,0.3v0l0.2,0.2h0
				c0.1,0.1,0.2,0.1,0.3,0.2v0l0.3,0.1l0,0c0.1,0,0.2,0,0.3,0.1v0H43v0c0.1,0,0.2,0,0.3,0v0l0.3-0.1v0c0.1,0,0.2-0.1,0.3-0.1l0,0
				l0.2-0.2v0c0.1-0.1,0.1-0.1,0.2-0.2h0l0.1-0.2l0,0C44.6,24.2,44.7,24.1,44.7,24z"/>
			<path class="st9" d="M44.1,23.8c-0.3,0.7-1.1,1-1.8,0.7s-1-1.1-0.7-1.8c0.3-0.7,1.1-1,1.8-0.7C44.1,22.3,44.4,23.1,44.1,23.8z
				 M43.4,22.2c-0.6-0.2-1.3,0-1.6,0.6c-0.2,0.6,0,1.3,0.6,1.6s1.3,0,1.6-0.6C44.3,23.1,44,22.4,43.4,22.2z"/>
			<path class="st9" d="M43.5,23.5c-0.1,0.3-0.5,0.4-0.8,0.3c-0.3-0.1-0.4-0.5-0.3-0.8c0.1-0.3,0.5-0.4,0.8-0.3
				C43.5,22.8,43.6,23.2,43.5,23.5z M43,23.1c-0.1,0-0.2,0-0.3,0.1c0,0.1,0,0.2,0.1,0.3c0.1,0,0.2,0,0.3-0.1
				C43.2,23.2,43.1,23.1,43,23.1z"/>
		</g>
		<g>
			<path class="st2" d="M38.8,14.8L38.8,14.8c-0.1,0-0.1-0.1-0.1-0.3l0.2-0.5c0-0.1,0.1-0.1,0.3-0.1l0,0L38.8,14.8z"/>
			<path class="st10" d="M39.2,13.9L39,14.3l-0.2,0.4c0.2,0.1,0.5,0,0.6-0.2C39.6,14.3,39.5,14,39.2,13.9z"/>
		</g>
	</g>
	<path class="st1" d="M46.7,26.1c0,0-0.1,0.1-0.2,0.2c0,0.1-0.1-0.1-0.1-0.2c-0.1,0-0.3,0,0-0.2c-0.3-0.2-0.2-0.3-0.3-0.2
		c0.1,0.1,0,0-0.1,0.1c0,0-0.2-0.2-0.2,0.1c-0.2-0.4-0.1-0.1-0.3-0.2h0c0,0,0,0,0,0c0-0.1,0-0.1,0,0c0,0,0,0-0.1,0c0,0,0,0,0,0
		c0,0,0,0.1,0,0.2l0-0.2h0c0,0.1-0.5,0.3-0.2,0c0,0-0.2-0.1-0.3,0c-0.1,0.1-0.4-0.2-0.3-0.1c-0.3,0.1-0.1-0.2-0.2-0.1
		c-0.2,0.1-0.4,0-0.5,0c-0.1-0.1-0.2,0-0.3-0.1c-0.2,0-0.3,0-0.3,0s0.1,0,0.3,0.1c0,0,0.2,0,0.3,0.1c0.1,0,0.1,0,0.2,0.1
		c0,0,0.2,0.1,0.2,0.2c0.2-0.1,0.2,0.1,0.3,0.1c0,0.2,0.2,0.1,0.2,0c0.3,0.1,0,0.4,0.2,0.4c0,0.1,0,0.1,0.2,0c0,0,0,0.2,0,0.1
		c0,0.1,0.2,0.1,0.2-0.1c0-0.3,0.2-0.1,0.2,0c0,0,0.1,0.1,0,0.2c0.3,0.1,0.1,0.1,0.3,0.2c0.1-0.1,0.1-0.4,0.2,0
		c0.3-0.2,0.1,0.5,0.2,0.2c0,0,0.1,0,0.1,0c0,0.2-0.1,0.1,0,0.2c0,0,0-0.1,0-0.1v0c0,0,0.1,0,0.1,0c-0.1,0.1,0,0.3,0.1,0.1
		c0,0.1,0.2,0.3,0.3,0.1l0,0l0,0l0,0c0,0.1,0,0,0,0c0.2,0,0.4-0.3,0-0.6c0.1-0.1,0.1-0.3-0.1-0.4C46.9,26.4,46.8,26.2,46.7,26.1z"/>
</g>
</svg>
