<svg width="37" height="40" viewBox="0 0 37 40" fill="none" xmlns="http://www.w3.org/2000/svg">
<path d="M36.9955 20.1048C36.9945 20.0782 36.9959 20.0518 36.9939 20.0252C36.6986 15.3774 34.6211 12.7215 32.9301 11.3123C30.9194 9.63575 28.2659 8.71271 25.4592 8.71271C25.213 8.71271 24.9684 8.72226 24.7248 8.73675C24.4355 6.90384 23.6444 5.5025 22.8771 4.52646C20.8398 1.93577 17.6707 0.705605 15.5886 0.658861C15.5685 0.658532 15.5488 0.658203 15.529 0.658203C15.401 0.658203 15.2729 0.669723 15.1452 0.688487C15.13 0.690791 15.1149 0.692109 15.0998 0.694414C14.9836 0.713507 14.8683 0.742145 14.7544 0.777368C14.7321 0.784281 14.7097 0.790863 14.6876 0.798435C14.6665 0.805347 14.6455 0.810616 14.6244 0.818516C14.5467 0.846826 14.473 0.882048 14.3989 0.917271C14.3779 0.927475 14.3555 0.934717 14.3347 0.94558C14.2241 1.00187 14.1191 1.06606 14.0187 1.13651C13.992 1.15527 13.9677 1.17667 13.9417 1.19642C13.8689 1.25139 13.7991 1.309 13.7326 1.37122C13.7017 1.40019 13.6721 1.43047 13.6425 1.46109C13.5839 1.52166 13.5286 1.58453 13.4759 1.65037C13.4499 1.68296 13.4232 1.71489 13.3989 1.74879C13.3376 1.83307 13.282 1.92096 13.2313 2.01247C13.2214 2.03025 13.2096 2.04605 13.2004 2.06415C13.1418 2.17542 13.0924 2.29162 13.0499 2.41112C13.0466 2.42066 13.0414 2.42889 13.0381 2.43844C13.0298 2.46247 13.0269 2.48749 13.0193 2.51185C13.0012 2.57011 12.9805 2.62706 12.9663 2.68664C12.8616 3.13039 12.7902 3.57775 12.7458 4.02676C11.8 3.73773 10.9198 3.63569 10.1498 3.63569C9.36073 3.63569 8.55917 3.74267 7.76813 3.95335C7.63317 3.98923 7.50116 4.03729 7.37278 4.09457C7.36455 4.09819 7.35566 4.10116 7.34744 4.10511C7.23057 4.15876 7.11832 4.22262 7.00936 4.29373C6.99389 4.3036 6.97842 4.31282 6.96328 4.32335C6.88954 4.37372 6.81712 4.42705 6.74799 4.48531C6.72758 4.50276 6.71013 4.52284 6.69005 4.54062C6.65845 4.56926 6.62817 4.59855 6.59788 4.62851C6.53204 4.69369 6.47048 4.76183 6.41222 4.83261C6.38885 4.86124 6.36449 4.88857 6.3421 4.91819C6.26639 5.01925 6.19628 5.12393 6.13603 5.23421C6.12682 5.25067 6.12056 5.26845 6.11167 5.28524C6.06164 5.38169 6.01786 5.4811 5.98 5.58282C5.96585 5.62068 5.95366 5.65919 5.94115 5.69803C5.91186 5.78955 5.88816 5.88238 5.86874 5.97685C5.86182 6.01109 5.85293 6.04467 5.84767 6.07923C5.82693 6.20662 5.81507 6.33567 5.81343 6.46635C5.81343 6.47294 5.81179 6.47886 5.81179 6.48545C5.81179 6.50684 5.81639 6.52725 5.81672 6.54865C5.81804 6.62041 5.81804 6.69184 5.82528 6.76394C5.82989 6.80904 5.83878 6.85512 5.84404 6.90055C5.84602 6.91207 5.84701 6.92392 5.84898 6.93577C6.02246 8.32592 6.60183 9.78487 7.53836 11.1684C7.58972 11.2442 7.64436 11.3166 7.7023 11.3857C7.71448 11.4064 7.72962 11.4259 7.74246 11.4463C4.2679 12.7357 1.15348 15.3791 0.104036 19.5436C0.103049 19.5472 0.10206 19.5512 0.101073 19.5548C0.0915262 19.5923 0.0803328 19.6285 0.0711156 19.6667C0.0530104 19.7417 0.0385276 19.8171 0.0273353 19.8922C0.0273353 19.8925 0.0273353 19.8928 0.0273353 19.8932C0.0115344 19.9992 0.00429407 20.1048 0.00133139 20.2102C0.000673024 20.2306 1.53756e-05 20.251 1.53756e-05 20.2717C-0.00031381 20.3774 0.00462229 20.4821 0.0168022 20.5861C0.0184481 20.5996 0.0210833 20.6131 0.0227293 20.6266C0.0358967 20.7267 0.0546593 20.8254 0.0793482 20.9229C0.0826401 20.936 0.0849443 20.9489 0.0885654 20.9617C0.116217 21.0647 0.150781 21.1655 0.190612 21.2639C0.194562 21.2738 0.196539 21.2843 0.200819 21.2942C0.204769 21.3041 0.210694 21.313 0.214974 21.3228C0.25678 21.4203 0.303524 21.5154 0.356852 21.6072C0.364095 21.6198 0.372322 21.6316 0.379893 21.6441C0.430917 21.7287 0.486879 21.8104 0.547449 21.889C0.556337 21.9006 0.564567 21.9127 0.573785 21.9243C0.638634 22.0056 0.709078 22.0826 0.783474 22.156C0.798287 22.1705 0.813432 22.1846 0.828575 22.1988C0.905604 22.2712 0.985596 22.3407 1.07184 22.4039C1.07349 22.4052 1.07546 22.4062 1.07711 22.4072C1.15874 22.4667 1.24565 22.5207 1.33519 22.5714C1.35758 22.5839 1.37963 22.5964 1.40202 22.6086C1.41979 22.6182 1.43658 22.6287 1.45436 22.6376C1.50373 22.6623 1.55443 22.6807 1.60446 22.7021C1.64166 22.7179 1.67787 22.7357 1.71606 22.7498C1.92904 22.8289 2.14795 22.8786 2.36785 22.9006C2.3764 22.9016 2.38463 22.9039 2.39319 22.9046C3.0091 22.9609 3.70072 22.9905 4.39267 22.9905C5.32294 22.9905 6.26211 22.9388 7.18383 22.8368C7.38793 22.8144 7.58708 22.7683 7.77735 22.7005C7.84385 22.7057 7.91067 22.708 7.9775 22.708C8.11608 22.708 8.25533 22.6972 8.39425 22.6748C9.20207 22.5454 9.93121 22.3924 10.6232 22.206C10.7723 22.1662 10.9165 22.1135 11.0541 22.049C11.1219 22.0405 11.1897 22.0283 11.2575 22.0144C9.37851 23.3371 8.22603 25.2474 7.99527 27.4506C7.99494 27.4533 7.99495 27.4556 7.99495 27.4582C7.99495 27.4592 7.99462 27.4605 7.99462 27.4615C7.99264 27.4802 7.9933 27.4993 7.99165 27.5181C7.98671 27.5806 7.98211 27.6435 7.98178 27.7054C7.9663 27.9269 7.95709 28.1495 7.95972 28.3737C7.0008 28.9771 6.16599 29.7529 5.4961 30.6668C5.01252 30.2754 4.4269 30.0782 3.84062 30.0782C3.20134 30.0782 2.56239 30.3099 2.06006 30.7714C1.07711 31.6734 0.923709 33.1679 1.70322 34.2506C2.58215 35.4712 3.64903 36.5355 4.86998 37.4108C7.22465 39.1048 10.0023 39.9998 12.9028 39.9998C15.6883 39.9998 18.3728 39.1716 20.6653 37.6057C21.9257 36.7452 23.0272 35.6941 23.9384 34.482C24.7248 33.4362 24.6238 31.9717 23.7017 31.0433C23.1905 30.5295 22.5137 30.2661 21.8326 30.2661C21.2842 30.2661 20.7331 30.437 20.2643 30.7843C20.2416 30.8011 20.211 30.8188 20.185 30.836C19.2817 29.5587 18.0605 28.5264 16.6512 27.8542C16.7872 27.7508 17.0485 27.5856 17.5314 27.3759C18.2214 27.0744 19.0144 26.7123 19.7933 26.2494C19.8153 26.2879 19.8351 26.3274 19.8591 26.365C20.4671 27.3091 21.2364 28.1024 22.2115 28.7901C22.3188 28.8658 22.4307 28.9329 22.5463 28.9906C22.6457 29.0742 22.752 29.1509 22.8646 29.2197C23.4986 29.6081 24.1346 29.9241 24.7502 30.2299C25.2453 30.4758 25.713 30.7082 26.1568 30.966C26.2025 30.9927 26.2509 31.0121 26.2977 31.0358C26.3408 31.0575 26.3826 31.0805 26.427 31.0996C26.5182 31.1395 26.6114 31.1721 26.7055 31.201C26.7286 31.2083 26.7496 31.2191 26.7727 31.2254C26.777 31.2267 26.7812 31.227 26.7855 31.228C26.8665 31.2501 26.9488 31.2646 27.0311 31.2787C27.0647 31.2846 27.0979 31.2942 27.1315 31.2985C27.2467 31.3136 27.3629 31.3218 27.4791 31.3218C27.593 31.3218 27.7063 31.313 27.8185 31.2981C27.856 31.2932 27.8926 31.2846 27.9298 31.2781C28.0048 31.2649 28.0792 31.2504 28.1526 31.231C28.1954 31.2198 28.2372 31.206 28.2794 31.1925C28.3478 31.1704 28.4153 31.1461 28.4818 31.1187C28.5223 31.1019 28.5625 31.0852 28.602 31.0661C28.6741 31.0322 28.7438 30.994 28.8126 30.9535C28.8354 30.94 28.8597 30.9304 28.8824 30.9163C28.8907 30.911 28.8979 30.9044 28.9061 30.8992C28.9861 30.8475 29.0632 30.7905 29.1379 30.73C29.1517 30.7188 29.1672 30.7089 29.181 30.6974C29.2672 30.6243 29.3489 30.5453 29.4259 30.4607C29.4467 30.438 29.4644 30.4126 29.4842 30.3893C29.5299 30.3353 29.5767 30.2826 29.6185 30.2243C29.628 30.2112 29.6359 30.1977 29.6455 30.1845C29.6514 30.1756 29.6573 30.1671 29.6633 30.1582C31.2865 27.8522 31.5976 25.0081 30.5369 22.1356C31.6022 22.3805 32.7454 22.6024 33.9545 22.7936C33.9595 22.7946 33.9647 22.794 33.9697 22.7949C34.0997 22.8147 34.2317 22.8262 34.365 22.8262C34.3946 22.8262 34.4246 22.8219 34.4546 22.821C34.5283 22.8183 34.6017 22.8163 34.6745 22.8075C34.7074 22.8035 34.7403 22.7953 34.7732 22.7903C34.8436 22.7791 34.9141 22.7683 34.9829 22.7515C34.9888 22.7502 34.9951 22.7495 35.001 22.7482C35.084 22.7275 35.1646 22.7024 35.2439 22.6745C35.2584 22.6692 35.2726 22.6629 35.2874 22.6573C35.3598 22.6304 35.4303 22.6004 35.4991 22.5678C35.5218 22.5569 35.5445 22.5454 35.5669 22.5336C35.6304 22.501 35.692 22.4661 35.7519 22.4289C35.7706 22.417 35.7901 22.4062 35.8088 22.3937C35.8862 22.343 35.9612 22.2893 36.0323 22.2311C36.037 22.2274 36.0409 22.2232 36.0455 22.2195C36.1113 22.1649 36.1736 22.1069 36.2335 22.0467C36.2526 22.0276 36.2707 22.0079 36.2891 21.9881C36.3372 21.9364 36.3829 21.8831 36.427 21.8278C36.4376 21.8146 36.4494 21.8031 36.4596 21.7899C36.4636 21.7847 36.4665 21.7787 36.4705 21.7735C36.5327 21.6905 36.5896 21.6036 36.642 21.5138C36.6535 21.494 36.664 21.4739 36.6749 21.4538C36.7233 21.3656 36.7677 21.2751 36.8056 21.1816C36.8076 21.1767 36.8102 21.1717 36.8122 21.1668C36.851 21.069 36.8826 20.968 36.9099 20.8656C36.9152 20.8452 36.9205 20.8248 36.9254 20.804C36.9738 20.6022 36.9985 20.3929 36.9972 20.1789C36.9969 20.1542 36.9965 20.1295 36.9955 20.1048Z" fill="#AFBDC4"/>
<path d="M36.9955 19.4466C36.9945 19.42 36.9959 19.3936 36.9939 19.367C36.6986 14.7192 34.6211 12.0633 32.9301 10.6541C30.9194 8.97755 28.2659 8.05451 25.4592 8.05451C25.213 8.05451 24.9684 8.06406 24.7248 8.07854C24.4355 6.24564 23.6444 4.8443 22.8771 3.86826C20.8398 1.27757 17.6707 0.0474024 15.5886 0.00065801C15.5685 0.000328824 15.5488 0 15.529 0C15.401 0 15.2729 0.0115199 15.1452 0.0302835C15.13 0.0325878 15.1149 0.0339063 15.0998 0.0362106C14.9836 0.0553034 14.8683 0.0839422 14.7544 0.119165C14.7321 0.126078 14.7097 0.13266 14.6876 0.140231C14.6665 0.147144 14.6455 0.152413 14.6244 0.160313C14.5467 0.188623 14.473 0.223845 14.3989 0.259067C14.3779 0.269272 14.3555 0.276514 14.3347 0.287377C14.2241 0.343668 14.1191 0.407859 14.0187 0.478305C13.992 0.497069 13.9677 0.518466 13.9417 0.538217C13.8689 0.593191 13.7991 0.6508 13.7326 0.713016C13.7017 0.741984 13.6721 0.772268 13.6425 0.802882C13.5839 0.863452 13.5286 0.926328 13.4759 0.992165C13.4499 1.02475 13.4232 1.05668 13.3989 1.09059C13.3376 1.17486 13.282 1.26276 13.2313 1.35427C13.2214 1.37205 13.2096 1.38785 13.2004 1.40595C13.1418 1.51722 13.0924 1.63342 13.0499 1.75291C13.0466 1.76246 13.0414 1.77069 13.0381 1.78023C13.0298 1.80427 13.0269 1.82928 13.0193 1.85364C13.0012 1.91191 12.9805 1.96886 12.9663 2.02844C12.8616 2.47218 12.7902 2.91955 12.7458 3.36855C11.8 3.07953 10.9198 2.97748 10.1498 2.97748C9.36073 2.97748 8.55917 3.08447 7.76813 3.29515C7.63317 3.33103 7.50116 3.37909 7.37278 3.43637C7.36455 3.43999 7.35566 3.44295 7.34744 3.4469C7.23057 3.50056 7.11832 3.56442 7.00936 3.63553C6.99389 3.6454 6.97842 3.65462 6.96328 3.66515C6.88954 3.71552 6.81712 3.76885 6.74799 3.82711C6.72758 3.84456 6.71013 3.86464 6.69005 3.88241C6.65845 3.91105 6.62817 3.94035 6.59788 3.97031C6.53204 4.03549 6.47048 4.10363 6.41222 4.1744C6.38885 4.20304 6.36449 4.23036 6.3421 4.25999C6.26639 4.36105 6.19628 4.46573 6.13603 4.57601C6.12682 4.59247 6.12056 4.61024 6.11167 4.62703C6.06164 4.72348 6.01786 4.8229 5.98 4.92462C5.96585 4.96247 5.95366 5.00099 5.94115 5.03983C5.91186 5.13134 5.88816 5.22417 5.86874 5.31865C5.86182 5.35289 5.85293 5.38646 5.84767 5.42103C5.82693 5.54842 5.81507 5.67746 5.81343 5.80815C5.81343 5.81473 5.81179 5.82066 5.81179 5.82724C5.81179 5.84864 5.81639 5.86905 5.81672 5.89045C5.81804 5.96221 5.81804 6.03364 5.82528 6.10573C5.82989 6.15083 5.83878 6.19692 5.84404 6.24235C5.84602 6.25387 5.84701 6.26572 5.84898 6.27757C6.02246 7.66772 6.60183 9.12667 7.53836 10.5102C7.58972 10.5859 7.64436 10.6584 7.7023 10.7275C7.71448 10.7482 7.72962 10.7677 7.74246 10.7881C4.2679 12.0775 1.15348 14.7209 0.104036 18.8854C0.103049 18.889 0.10206 18.8929 0.101073 18.8966C0.0915262 18.9341 0.0803328 18.9703 0.0711156 19.0085C0.0530104 19.0835 0.0385276 19.1589 0.0273353 19.234C0.0273353 19.2343 0.0273353 19.2346 0.0273353 19.235C0.0115344 19.341 0.00429407 19.4466 0.00133139 19.552C0.000673024 19.5724 1.53756e-05 19.5928 1.53756e-05 19.6135C-0.00031381 19.7192 0.00462229 19.8239 0.0168022 19.9279C0.0184481 19.9414 0.0210833 19.9549 0.0227293 19.9684C0.0358967 20.0685 0.0546593 20.1672 0.0793482 20.2647C0.0826401 20.2778 0.0849443 20.2907 0.0885654 20.3035C0.116217 20.4065 0.150781 20.5073 0.190612 20.6057C0.194562 20.6156 0.196539 20.6261 0.200819 20.636C0.204769 20.6459 0.210694 20.6548 0.214974 20.6646C0.25678 20.7621 0.303524 20.8572 0.356852 20.949C0.364095 20.9616 0.372322 20.9734 0.379893 20.9859C0.430917 21.0705 0.486879 21.1522 0.547449 21.2308C0.556337 21.2423 0.564567 21.2545 0.573785 21.266C0.638634 21.3474 0.709078 21.4244 0.783474 21.4978C0.798287 21.5123 0.813432 21.5264 0.828575 21.5406C0.905604 21.613 0.985596 21.6825 1.07184 21.7457C1.07349 21.747 1.07546 21.748 1.07711 21.749C1.15874 21.8085 1.24565 21.8625 1.33519 21.9132C1.35758 21.9257 1.37963 21.9382 1.40202 21.9504C1.41979 21.96 1.43658 21.9705 1.45436 21.9794C1.50373 22.0041 1.55443 22.0225 1.60446 22.0439C1.64166 22.0597 1.67787 22.0775 1.71606 22.0916C1.92904 22.1706 2.14795 22.2204 2.36785 22.2424C2.3764 22.2434 2.38463 22.2457 2.39319 22.2464C3.0091 22.3027 3.70072 22.3323 4.39267 22.3323C5.32294 22.3323 6.26211 22.2806 7.18383 22.1786C7.38793 22.1562 7.58708 22.1101 7.77735 22.0423C7.84385 22.0475 7.91067 22.0498 7.9775 22.0498C8.11608 22.0498 8.25533 22.039 8.39425 22.0166C9.20207 21.8872 9.93121 21.7342 10.6232 21.5478C10.7723 21.508 10.9165 21.4553 11.0541 21.3908C11.1219 21.3822 11.1897 21.3701 11.2575 21.3562C9.37851 22.6789 8.22603 24.5892 7.99527 26.7924C7.99494 26.795 7.99495 26.7974 7.99495 26.8C7.99495 26.801 7.99462 26.8023 7.99462 26.8033C7.99264 26.822 7.9933 26.8411 7.99165 26.8599C7.98671 26.9224 7.98211 26.9853 7.98178 27.0472C7.9663 27.2687 7.95709 27.4913 7.95972 27.7155C7.0008 28.3188 6.16599 29.0947 5.4961 30.0086C5.01252 29.6172 4.4269 29.42 3.84062 29.42C3.20134 29.42 2.56239 29.6517 2.06006 30.1132C1.07711 31.0152 0.923709 32.5097 1.70322 33.5924C2.58215 34.813 3.64903 35.8773 4.86998 36.7526C7.22465 38.4466 10.0023 39.3416 12.9028 39.3416C15.6883 39.3416 18.3728 38.5134 20.6653 36.9475C21.9257 36.087 23.0272 35.0359 23.9384 33.8238C24.7248 32.778 24.6238 31.3134 23.7017 30.3851C23.1905 29.8713 22.5137 29.6079 21.8326 29.6079C21.2842 29.6079 20.7331 29.7788 20.2643 30.1261C20.2416 30.1429 20.211 30.1606 20.185 30.1778C19.2817 28.9005 18.0605 27.8682 16.6512 27.196C16.7872 27.0926 17.0485 26.9274 17.5314 26.7177C18.2214 26.4162 19.0144 26.054 19.7933 25.5912C19.8153 25.6297 19.8351 25.6692 19.8591 25.7068C20.4671 26.6509 21.2364 27.4442 22.2115 28.1319C22.3188 28.2076 22.4307 28.2747 22.5463 28.3323C22.6457 28.416 22.752 28.4927 22.8646 28.5615C23.4986 28.9499 24.1346 29.2659 24.7502 29.5717C25.2453 29.8176 25.713 30.05 26.1568 30.3078C26.2025 30.3345 26.2509 30.3539 26.2977 30.3776C26.3408 30.3993 26.3826 30.4223 26.427 30.4414C26.5182 30.4813 26.6114 30.5139 26.7055 30.5428C26.7286 30.5501 26.7496 30.5609 26.7727 30.5672C26.777 30.5685 26.7812 30.5688 26.7855 30.5698C26.8665 30.5919 26.9488 30.6064 27.0311 30.6205C27.0647 30.6264 27.0979 30.636 27.1315 30.6403C27.2467 30.6554 27.3629 30.6636 27.4791 30.6636C27.593 30.6636 27.7063 30.6547 27.8185 30.6399C27.856 30.635 27.8926 30.6264 27.9298 30.6199C28.0048 30.6067 28.0792 30.5922 28.1526 30.5728C28.1954 30.5616 28.2372 30.5478 28.2794 30.5343C28.3478 30.5122 28.4153 30.4879 28.4818 30.4605C28.5223 30.4437 28.5625 30.427 28.602 30.4079C28.6741 30.374 28.7438 30.3358 28.8126 30.2953C28.8354 30.2818 28.8597 30.2722 28.8824 30.2581C28.8907 30.2528 28.8979 30.2462 28.9061 30.241C28.9861 30.1893 29.0632 30.1323 29.1379 30.0718C29.1517 30.0606 29.1672 30.0507 29.181 30.0392C29.2672 29.9661 29.3489 29.8871 29.4259 29.8025C29.4467 29.7798 29.4644 29.7544 29.4842 29.7311C29.5299 29.6771 29.5767 29.6244 29.6185 29.5661C29.628 29.553 29.6359 29.5395 29.6455 29.5263C29.6514 29.5174 29.6573 29.5089 29.6633 29.5C31.2865 27.194 31.5976 24.3499 30.5369 21.4774C31.6022 21.7223 32.7454 21.9442 33.9545 22.1354C33.9595 22.1364 33.9647 22.1358 33.9697 22.1367C34.0997 22.1565 34.2317 22.168 34.365 22.168C34.3946 22.168 34.4246 22.1637 34.4546 22.1627C34.5283 22.1601 34.6017 22.1581 34.6745 22.1493C34.7074 22.1453 34.7403 22.1371 34.7732 22.1321C34.8436 22.1209 34.9141 22.1101 34.9829 22.0933C34.9888 22.092 34.9951 22.0913 35.001 22.09C35.084 22.0693 35.1646 22.0442 35.2439 22.0163C35.2584 22.011 35.2726 22.0047 35.2874 21.9991C35.3598 21.9722 35.4303 21.9422 35.4991 21.9096C35.5218 21.8987 35.5445 21.8872 35.5669 21.8754C35.6304 21.8428 35.692 21.8079 35.7519 21.7707C35.7706 21.7588 35.7901 21.748 35.8088 21.7355C35.8862 21.6848 35.9612 21.6311 36.0323 21.5729C36.037 21.5692 36.0409 21.5649 36.0455 21.5613C36.1113 21.5067 36.1736 21.4487 36.2335 21.3885C36.2526 21.3694 36.2707 21.3497 36.2891 21.3299C36.3372 21.2782 36.3829 21.2249 36.427 21.1696C36.4376 21.1564 36.4494 21.1449 36.4596 21.1317C36.4636 21.1265 36.4665 21.1205 36.4705 21.1153C36.5327 21.0323 36.5896 20.9454 36.642 20.8556C36.6535 20.8358 36.664 20.8157 36.6749 20.7956C36.7233 20.7074 36.7677 20.6169 36.8056 20.5234C36.8076 20.5185 36.8102 20.5135 36.8122 20.5086C36.851 20.4108 36.8826 20.3098 36.9099 20.2074C36.9152 20.187 36.9205 20.1666 36.9254 20.1458C36.9738 19.944 36.9985 19.7347 36.9972 19.5207C36.9969 19.496 36.9965 19.4713 36.9955 19.4466Z" fill="white"/>
<path d="M19.4149 14.9004C19.438 15.0189 19.4479 15.144 19.4479 15.2724C19.4479 15.4732 19.4215 15.6641 19.3689 15.8484C19.3458 15.7266 19.3359 15.6016 19.3359 15.4732C19.3359 15.2757 19.3623 15.0814 19.4149 14.9004Z" fill="#795548"/>
<path d="M20.2578 13.6953C20.3862 13.6031 20.5212 13.5274 20.6693 13.4648C20.5409 13.5603 20.4027 13.636 20.2578 13.6953Z" fill="#795548"/>
<path d="M34.3615 19.5363C33.4036 19.3849 32.0572 19.1479 30.6154 18.7957C30.3784 17.9826 30.1644 17.1662 29.9669 16.3465C30.0261 17.1333 30.1183 17.9167 30.2302 18.7002C29.4106 18.4895 28.5678 18.2426 27.7548 17.953C27.6198 16.5045 27.419 15.066 27.1523 13.6373L27.4058 12.9395C29.9833 13.8941 32.7057 15.8692 34.3615 19.5363Z" fill="#004D40"/>
<path d="M34.3623 19.5354C32.7065 15.8683 29.9842 13.8932 27.4066 12.9385C24.9542 12.0267 22.6335 12.0398 21.4912 12.3987L21.4648 12.3888C21.534 12.1814 21.5702 11.9608 21.5702 11.7337C21.5702 11.6712 21.5669 11.6086 21.5603 11.5494C21.7019 11.4802 21.85 11.4111 22.0014 11.3453C26.1261 9.61045 33.8192 10.9832 34.3623 19.5354Z" fill="#00695B"/>
<path d="M22.944 17.1152C26.0186 17.8526 30.5943 23.6891 27.4769 28.031C27.2004 24.5647 24.7183 19.5677 22.0684 17.5794C22.3975 17.4938 22.6971 17.3325 22.944 17.1152Z" fill="#00695B"/>
<path d="M27.4076 12.9375L27.1542 13.6354C27.1772 15.0081 27.197 16.3775 27.2233 17.7502C25.8144 17.2071 24.5371 16.5289 23.6845 15.6862C23.6911 15.6171 23.6944 15.5447 23.6944 15.4722C23.6944 14.2674 22.72 13.293 21.5152 13.293C21.2189 13.293 20.9325 13.3523 20.6758 13.4609C21.0445 13.2042 21.3243 12.8256 21.4658 12.3878L21.4922 12.3976C22.6344 12.0388 24.9552 12.0257 27.4076 12.9375Z" fill="#004D40"/>
<path d="M22.0677 17.5795C24.7176 19.5677 27.1997 24.5648 27.4762 28.0311C26.3767 27.3925 25.2476 26.9349 24.237 26.3161C24.2436 25.4799 24.3555 24.6438 24.5728 23.8373C24.0856 24.4463 23.7926 25.2067 23.7268 25.9803C23.1013 25.5392 22.5351 25.0026 22.071 24.2817C22.071 24.2718 22.0742 24.2586 22.0742 24.2488C22.2257 23.0407 22.6404 21.8688 23.2824 20.8318C22.5516 21.6186 22.0051 22.5699 21.6924 23.5937C21.3237 22.83 21.0538 21.8918 20.9023 20.7034C21.0044 20.4401 21.0801 20.1603 21.1229 19.8574C21.2249 19.1991 21.1822 18.4452 20.9484 17.5762C21.1295 17.6255 21.3204 17.6519 21.5146 17.6519C21.7056 17.6519 21.8932 17.6256 22.0677 17.5795Z" fill="#004D40"/>
<path d="M23.6927 15.4741C23.6927 15.5465 23.6894 15.619 23.6828 15.6881C23.6269 16.2576 23.3536 16.7612 22.9421 17.1168C22.6953 17.334 22.3957 17.4953 22.0665 17.5809C21.892 17.627 21.7044 17.6533 21.5135 17.6533C21.3193 17.6533 21.1283 17.627 20.9473 17.5776C20.1375 17.3604 19.512 16.6855 19.3672 15.8494C19.4199 15.6651 19.4462 15.4741 19.4462 15.2733C19.4462 15.1449 19.4363 15.0199 19.4133 14.9013C19.545 14.4076 19.8478 13.9829 20.256 13.6965C20.4008 13.6373 20.5391 13.5616 20.6675 13.4661C20.6708 13.4694 20.6708 13.4694 20.6741 13.4628C20.9308 13.3542 21.2172 13.2949 21.5135 13.2949C22.7183 13.2949 23.6927 14.2693 23.6927 15.4741Z" fill="#795548"/>
<path d="M15.5254 2.63477C18.0206 2.69073 23.2876 5.46576 22.0005 11.345C21.849 11.4109 21.7009 11.48 21.5594 11.5491C21.5067 10.9237 21.1841 10.3772 20.7068 10.0283C20.1472 6.40394 17.619 4.18523 15.5254 2.63477Z" fill="#00695B"/>
<path d="M21.5602 11.5483C21.5668 11.6075 21.5701 11.6701 21.5701 11.7326C21.5701 11.9598 21.5339 12.1803 21.4648 12.3877C21.3232 12.8255 21.0434 13.2041 20.6747 13.4608C20.6714 13.4674 20.6714 13.4674 20.6681 13.4641C20.52 13.5267 20.385 13.6024 20.2566 13.6946C20.0065 13.7999 19.7332 13.8559 19.4468 13.8559C19.2362 13.8559 19.0321 13.8262 18.8379 13.767C18.5844 13.5003 18.2651 13.2995 17.903 13.1909C17.5409 12.8123 17.3203 12.2988 17.3203 11.7326C17.3203 11.3771 17.4092 11.0413 17.5639 10.7484C17.6199 10.6397 17.6857 10.5344 17.7647 10.4389C18.1499 9.93527 18.7589 9.60938 19.4468 9.60938C19.9176 9.60938 20.3554 9.76409 20.7076 10.0274C21.1849 10.3764 21.5075 10.9228 21.5602 11.5483Z" fill="#8C6E63"/>
<path d="M20.949 17.5759C21.1827 18.4449 21.2255 19.1988 21.1235 19.8571C20.2314 19.8341 19.3492 19.6662 18.5098 19.3601C18.7534 18.6161 18.7599 17.8096 18.6546 16.9537C18.997 16.6706 19.2504 16.2888 19.3689 15.8477C19.5138 16.6838 20.1392 17.3586 20.949 17.5759Z" fill="#4E342E"/>
<path d="M21.1221 19.8584C21.0793 20.1612 21.0036 20.4411 20.9016 20.7044C20.4736 21.8335 19.5848 22.6334 18.5841 23.249L18.5775 23.2391C17.7611 22.9495 17.0501 22.3833 16.5859 21.6558C17.6525 20.9908 18.2352 20.2172 18.5084 19.3613C19.3478 19.6675 20.23 19.8354 21.1221 19.8584Z" fill="#5D4037"/>
<path d="M19.2767 33.0949C20.2346 33.0949 21.1168 32.7723 21.8312 32.2423C21.0938 33.2233 20.1951 34.0792 19.1779 34.7738C17.3905 35.995 15.231 36.7094 12.9004 36.7094C10.4776 36.7094 8.23581 35.9325 6.40554 34.6158C5.41798 33.908 4.54893 33.0422 3.83789 32.0547C4.58843 32.6999 5.55953 33.0949 6.62609 33.0949C6.67876 33.0949 6.73143 33.0916 6.7874 33.0883C7.49185 33.062 8.15681 32.8645 8.73617 32.5353C9.35833 32.8875 10.076 33.0949 10.843 33.0949C11.61 33.0949 12.3276 32.8875 12.9497 32.5353C13.5752 32.8875 14.2928 33.0949 15.0598 33.0949C15.8268 33.0949 16.5445 32.8875 17.1666 32.5353C17.6505 32.8085 18.1937 32.9929 18.7697 33.062C18.9376 33.0817 19.1055 33.0949 19.2767 33.0949Z" fill="#2195F2"/>
<path d="M19.4469 13.8566C19.7333 13.8566 20.0065 13.8007 20.2567 13.6953C19.8485 13.9817 19.5456 14.4064 19.414 14.9001C19.3383 14.4623 19.1342 14.0706 18.8379 13.7677C19.0321 13.827 19.2362 13.8566 19.4469 13.8566Z" fill="#3E2723"/>
<path d="M20.7074 10.0283C20.3552 9.76493 19.9174 9.61021 19.4466 9.61021C18.7586 9.61021 18.1496 9.9361 17.7645 10.4398C17.2312 9.79784 16.7703 9.12301 16.3984 8.42185C17.1588 8.14863 17.9422 7.93465 18.7323 7.77994C17.8731 7.8359 17.0172 7.88857 16.1581 7.94453C15.9046 7.40796 15.7071 6.85493 15.5655 6.29202C16.2404 6.16364 16.9152 6.03196 17.59 5.90029C16.879 5.86737 16.1679 5.83445 15.4569 5.79824C15.2627 4.76789 15.2726 3.70791 15.526 2.63477C17.6196 4.18523 20.1478 6.40394 20.7074 10.0283Z" fill="#004D40"/>
<path d="M19.3344 15.4724C19.3344 15.6008 19.3443 15.7259 19.3673 15.8477C19.2488 16.2888 18.9953 16.6707 18.653 16.9538C18.2744 17.2632 17.7905 17.4508 17.2671 17.4508C16.4639 17.4508 15.7594 17.0163 15.3842 16.3678C15.1965 16.0485 15.0879 15.6732 15.0879 15.2716C15.0879 14.6495 15.3512 14.0866 15.7726 13.6915C15.9899 13.4841 16.2532 13.3228 16.5429 13.2208C16.77 13.1385 17.0136 13.0957 17.2671 13.0957C17.4877 13.0957 17.7016 13.1286 17.9024 13.1912C18.1559 13.4578 18.4752 13.6586 18.8373 13.7672C19.1336 14.0701 19.3377 14.4618 19.4134 14.8996C19.3607 15.0807 19.3344 15.2749 19.3344 15.4724Z" fill="#795548"/>
<path d="M18.5773 23.2377L18.5838 23.2476C17.8958 23.6722 17.1519 24.008 16.4738 24.3042C15.8977 24.5544 15.4204 24.8178 15.0385 25.1107L15.0089 25.0712C14.2287 24.663 13.5605 24.0409 13.0996 23.2903C13.5539 23.0072 14.0773 22.7571 14.6764 22.5464C15.4401 22.2765 16.0689 21.9769 16.5857 21.6543C17.0498 22.3818 17.7609 22.948 18.5773 23.2377Z" fill="#4E342E"/>
<path d="M17.9023 13.1914C18.2644 13.3 18.5838 13.5008 18.8372 13.7675C18.4751 13.6588 18.1558 13.458 17.9023 13.1914Z" fill="#795548"/>
<path d="M17.5072 10.722L17.5631 10.7483C17.4084 11.0413 17.3195 11.3771 17.3195 11.7326C17.3195 12.2988 17.5401 12.8123 17.9022 13.1909C17.7014 13.1283 17.4874 13.0954 17.2669 13.0954C14.4688 7.78235 9.98529 6.2681 8.44141 5.84016C10.2585 5.35625 13.9355 5.12253 17.5072 10.722Z" fill="#00695B"/>
<path d="M18.7695 33.062C18.1934 32.9928 17.6502 32.8085 17.1663 32.5353C16.5442 32.8875 15.8265 33.0949 15.0595 33.0949C14.2925 33.0949 13.5749 32.8875 12.9495 32.5353C12.3273 32.8875 11.6097 33.0949 10.8427 33.0949C10.0757 33.0949 9.35805 32.8875 8.73589 32.5353C8.15652 32.8645 7.49157 33.062 6.78711 33.0883C7.4784 31.2811 8.95644 29.8656 10.8065 29.2665C11.4286 29.0657 12.0936 28.957 12.7816 28.957C13.1898 28.957 13.5881 28.9965 13.9765 29.069C16.1788 29.4837 17.9761 31.021 18.7695 33.062Z" fill="#BBA9A3"/>
<path d="M17.2669 13.097C17.0134 13.097 16.7698 13.1398 16.5427 13.2221C15.7131 12.8074 14.663 12.5605 13.5142 12.4979C12.8788 12.1457 12.2896 11.7342 11.7563 11.2832C12.4509 10.8323 13.1718 10.4241 13.9125 10.0554C13.0698 10.3088 12.2501 10.6347 11.4633 11.0298C10.8938 10.5162 10.3935 9.9632 9.96883 9.39371C10.5877 9.02173 11.2559 8.73863 11.9505 8.55429C11.1967 8.65962 10.4494 8.82093 9.71535 9.0349C8.99114 7.96505 8.54345 6.8491 8.44141 5.8418C9.98529 6.26974 14.4688 7.78399 17.2669 13.097Z" fill="#004D40"/>
<path d="M16.5436 13.2212C16.2539 13.3233 15.9905 13.4846 15.7733 13.692L15.7667 13.6854C9.17312 13.5438 4.65011 17.1813 2.62891 19.6239C3.87652 14.4326 9.35746 12.2666 13.5151 12.497C14.6639 12.5596 15.714 12.8065 16.5436 13.2212Z" fill="#00695B"/>
<path d="M15.7667 13.6857L15.7733 13.6922C15.3519 14.0873 15.0886 14.6502 15.0886 15.2723C15.0886 15.6739 15.1972 16.0492 15.3848 16.3685C14.7298 16.8952 14.0352 17.3396 13.3143 17.7149C13.2715 16.7537 13.1497 15.8023 12.7547 14.9333C12.6493 16.036 12.5473 17.1487 12.2609 18.2152C11.7539 18.4325 11.2404 18.6169 10.7269 18.7782C10.7532 18.1198 10.6907 17.4614 10.5425 16.8195C10.4306 17.57 10.2265 18.3041 9.93683 19.0053C9.27516 19.1831 8.6135 19.3147 7.97488 19.4168C8.27773 18.4226 8.50487 17.4022 8.66288 16.3751C8.28761 17.5371 7.6819 18.6267 6.89186 19.5616C5.13401 19.7558 3.6033 19.713 2.62891 19.6242C4.65011 17.1816 9.17312 13.5441 15.7667 13.6857Z" fill="#004D40"/>
<path d="M15.0092 25.0719L15.0389 25.1114C14.2587 25.704 13.8604 26.4084 13.7946 27.3334C12.728 27.4157 11.6483 27.3268 10.6113 27.0668C10.7628 25.6184 11.5133 24.2654 13.1 23.291C13.5608 24.0416 14.2291 24.6637 15.0092 25.0719Z" fill="#5D4037"/>
<path d="M13.7947 27.3331C13.7585 27.84 13.8211 28.4128 13.9758 29.0679C13.5874 28.9954 13.189 28.9559 12.7808 28.9559C12.0928 28.9559 11.4279 29.0646 10.8057 29.2654C10.6115 28.5313 10.5391 27.7873 10.6115 27.0664C11.6484 27.3265 12.7282 27.4153 13.7947 27.3331Z" fill="#4E342E"/>
</svg>
