<svg width="32" height="32" viewBox="0 0 32 32" fill="none" xmlns="http://www.w3.org/2000/svg">
<path d="M15.9996 25.0698H5.20961C3.93561 25.0698 2.89961 24.0338 2.89961 22.7598V8.02078C2.89961 6.74678 3.93561 5.71078 5.20961 5.71078H7.38161V6.25478C7.38161 6.75178 7.78461 7.15478 8.28161 7.15478C8.77861 7.15478 9.18161 6.75178 9.18161 6.25478V5.71078H19.9456V6.25478C19.9456 6.75178 20.3486 7.15478 20.8456 7.15478C21.3426 7.15478 21.7456 6.75178 21.7456 6.25478V5.71078H23.9096C25.1826 5.71078 26.2196 6.74678 26.2196 8.02078V14.4508C26.2196 14.9478 26.6226 15.3508 27.1196 15.3508C27.6166 15.3508 28.0196 14.9478 28.0196 14.4508V8.02078C28.0196 5.75478 26.1756 3.91078 23.9096 3.91078H21.7456V3.45078C21.7456 2.95378 21.3426 2.55078 20.8456 2.55078C20.3486 2.55078 19.9456 2.95378 19.9456 3.45078V3.91078H9.18161V3.45078C9.18161 2.95378 8.77861 2.55078 8.28161 2.55078C7.78461 2.55078 7.38161 2.95378 7.38161 3.45078V3.91078H5.20961C2.94361 3.91078 1.09961 5.75478 1.09961 8.02078V22.7608C1.09961 25.0278 2.94361 26.8708 5.20961 26.8708H15.9996C16.4966 26.8708 16.8996 26.4678 16.8996 25.9708C16.8996 25.4738 16.4966 25.0698 15.9996 25.0698Z" fill="white"/>
<path d="M8.09369 12.2441C7.51969 12.2441 7.05469 12.7091 7.05469 13.2831C7.05469 13.8571 7.51969 14.3221 8.09369 14.3221C8.66769 14.3221 9.13269 13.8571 9.13269 13.2831C9.13269 12.7091 8.66769 12.2441 8.09369 12.2441Z" fill="white"/>
<path d="M14.5624 12.2441C13.9884 12.2441 13.5234 12.7091 13.5234 13.2831C13.5234 13.8571 13.9884 14.3221 14.5624 14.3221C15.1364 14.3221 15.6014 13.8571 15.6014 13.2831C15.6014 12.7091 15.1354 12.2441 14.5624 12.2441Z" fill="white"/>
<path d="M19.9922 13.2831C19.9922 13.8571 20.4572 14.3221 21.0312 14.3221C21.6052 14.3221 22.0702 13.8571 22.0702 13.2831C22.0702 12.7091 21.6052 12.2441 21.0312 12.2441C20.4572 12.2441 19.9922 12.7091 19.9922 13.2831Z" fill="white"/>
<path d="M8.09369 17.9062C7.51969 17.9062 7.05469 18.3712 7.05469 18.9452C7.05469 19.5192 7.51969 19.9842 8.09369 19.9842C8.66769 19.9842 9.13269 19.5192 9.13269 18.9452C9.13269 18.3712 8.66769 17.9062 8.09369 17.9062Z" fill="white"/>
<path d="M14.5624 17.9062C13.9884 17.9062 13.5234 18.3712 13.5234 18.9452C13.5234 19.5192 13.9884 19.9842 14.5624 19.9842C15.1364 19.9842 15.6014 19.5192 15.6014 18.9452C15.6014 18.3712 15.1354 17.9062 14.5624 17.9062Z" fill="white"/>
<path d="M24.5073 16.666C20.9823 16.666 18.1133 19.534 18.1133 23.059C18.1133 26.583 20.9813 29.452 24.5073 29.452C28.0333 29.452 30.9013 26.584 30.9013 23.059C30.9003 19.533 28.0323 16.666 24.5073 16.666ZM24.5073 27.65C21.9753 27.65 19.9143 25.59 19.9143 23.058C19.9143 20.526 21.9753 18.465 24.5073 18.465C27.0393 18.465 29.1003 20.526 29.1003 23.058C29.1003 25.59 27.0393 27.65 24.5073 27.65Z" fill="white"/>
<path d="M25.8115 21.4216L23.8395 23.0106L23.3485 22.3836C23.0405 21.9926 22.4775 21.9246 22.0845 22.2316C21.6935 22.5386 21.6255 23.1036 21.9325 23.4956L22.9865 24.8396C23.1345 25.0286 23.3525 25.1516 23.5915 25.1786C23.6255 25.1826 23.6595 25.1846 23.6945 25.1846C23.8985 25.1846 24.0985 25.1146 24.2585 24.9856L26.9405 22.8256C27.3285 22.5126 27.3885 21.9466 27.0775 21.5596C26.7655 21.1726 26.1985 21.1086 25.8115 21.4216Z" fill="white"/>
</svg>
