<svg width="50" height="50" viewBox="0 0 50 50" fill="none" xmlns="http://www.w3.org/2000/svg">
<path d="M2.08203 27.0829C1.45703 27.0829 1.04003 26.6659 1.04003 26.0409V19.7909C1.04003 18.0199 2.39403 16.6659 4.16503 16.6659H5.52003C5.20703 15.2079 4.27003 13.9579 2.81203 13.5409C2.54306 13.4566 2.31837 13.2693 2.18703 13.0199C2.08703 12.8119 2.08703 12.4989 2.18703 12.1869L4.27003 6.24986C4.58203 5.41686 5.10303 4.79186 5.83203 4.47886C6.56103 4.16586 7.39403 4.06186 8.23203 4.37886L43.749 16.6669H45.832C47.603 16.6669 48.957 18.0209 48.957 19.7919V26.0419C48.957 26.6669 48.54 27.0839 47.915 27.0839C47.3624 27.0753 46.8137 27.1767 46.3007 27.3823C45.7877 27.5878 45.3207 27.8934 44.9269 28.2811C44.5331 28.6689 44.2203 29.1311 44.0069 29.6408C43.7934 30.1506 43.6835 30.6977 43.6835 31.2504C43.6835 31.803 43.7934 32.3501 44.0069 32.8599C44.2203 33.3697 44.5331 33.8319 44.9269 34.2196C45.3207 34.6074 45.7877 34.9129 46.3007 35.1184C46.8137 35.324 47.3624 35.4254 47.915 35.4169C48.54 35.4169 48.957 35.8339 48.957 36.4589V42.7089C48.957 44.4799 47.603 45.8339 45.832 45.8339H4.16603C2.39503 45.8339 1.04103 44.4799 1.04103 42.7089V36.4589C1.04103 35.8339 1.45803 35.4169 2.08303 35.4169C3.17688 35.3999 4.22019 34.9535 4.98773 34.174C5.75527 33.3944 6.18548 32.3443 6.18548 31.2504C6.18548 30.1564 5.75527 29.1063 4.98773 28.3268C4.22019 27.5472 3.17688 27.1008 2.08303 27.0839L2.08203 27.0829ZM7.49903 6.35386C7.23112 6.24976 6.93394 6.24976 6.66603 6.35386C6.41663 6.4852 6.22933 6.70989 6.14503 6.97886L4.37403 11.9789C6.14503 12.9169 7.29103 14.6869 7.60303 16.6669H37.399L7.49903 6.35386ZM46.874 42.7079V37.3999C43.957 36.8789 41.666 34.3789 41.666 31.2539C41.666 28.1289 43.957 25.6249 46.874 25.0999V19.7919C46.874 19.1669 46.457 18.7499 45.832 18.7499H13.541V43.7499H45.832C46.457 43.7499 46.874 43.3329 46.874 42.7079ZM3.12403 37.3999V42.7129C3.12403 43.3379 3.54103 43.7549 4.16603 43.7549H11.457V18.7549H4.16503C3.54003 18.7549 3.12303 19.1719 3.12303 19.7969V25.0999C6.04003 25.6209 8.33103 28.1209 8.33103 31.2459C8.33103 34.3709 6.04103 36.8749 3.12403 37.3999Z" fill="#1CA8CB"/>
<path d="M35.417 27.083H29.167C28.542 27.083 28.125 26.666 28.125 26.041C28.125 25.416 28.542 25 29.167 25H35.417C36.042 25 36.459 25.417 36.459 26.042C36.459 26.667 36.042 27.083 35.417 27.083Z" fill="#1CA8CB"/>
<path d="M21.875 30.208H35.417C36.042 30.208 36.459 30.625 36.459 31.25C36.459 31.875 36.042 32.292 35.417 32.292H21.875C21.25 32.292 20.833 31.875 20.833 31.25C20.833 30.625 21.25 30.208 21.875 30.208Z" fill="#1CA8CB"/>
<path d="M21.875 35.417H35.417C36.042 35.417 36.459 35.834 36.459 36.459C36.459 37.084 36.042 37.5 35.417 37.5H21.875C21.25 37.5 20.833 37.083 20.833 36.458C20.833 35.833 21.25 35.417 21.875 35.417Z" fill="#1CA8CB"/>
</svg>
