<svg width="32" height="32" viewBox="0 0 32 32" fill="none" xmlns="http://www.w3.org/2000/svg">
<path d="M9.596 6.88098C9.596 5.24717 8.2668 3.91797 6.63299 3.91797C4.99919 3.91797 3.66992 5.24717 3.66992 6.88098C3.66992 8.51478 4.99913 9.84399 6.63293 9.84399C8.26674 9.84399 9.596 8.51478 9.596 6.88098ZM6.63293 7.97109C6.03181 7.97109 5.54282 7.48209 5.54282 6.88098C5.54282 6.27986 6.03181 5.79087 6.63293 5.79087C7.23405 5.79087 7.72304 6.27986 7.72304 6.88098C7.72304 7.48209 7.23405 7.97109 6.63293 7.97109Z" fill="white"/>
<path d="M31.9992 15.6435C31.9845 15.2745 31.7541 14.9487 31.4113 14.8115L21.4571 10.8298C21.1685 10.7145 20.8416 10.7496 20.5843 10.9238C20.3269 11.0979 20.1728 11.3885 20.1728 11.6993V25.434C19.0283 25.7723 18.1409 26.7138 17.88 27.8891H4.63408C3.63563 27.8891 2.82328 27.0768 2.82328 26.0783C2.82328 25.0799 3.63563 24.2675 4.63408 24.2675H13.1078C15.0345 24.2675 16.602 22.7 16.602 20.7734C16.602 18.8467 15.0345 17.2792 13.1078 17.2792H8.28513L12.3141 10.5433C12.997 9.40167 13.3579 8.09508 13.3579 6.76487C13.3579 3.08211 10.3618 0.0859375 6.67899 0.0859375C2.99624 0.0859375 0 3.08205 0 6.7648V6.78868C0 8.10102 0.351978 9.39251 1.01784 10.5234L5.82684 18.6907C5.97687 18.9319 6.25336 19.1544 6.63061 19.1521H13.1079C14.0019 19.1521 14.7291 19.8793 14.7291 20.7733C14.7291 21.6673 14.0019 22.3945 13.1079 22.3945H4.63408C2.60288 22.3945 0.950316 24.0471 0.950316 26.0783C0.950316 28.1095 2.60288 29.7621 4.63408 29.7621H18.0096C18.4794 31.0177 19.6912 31.9142 21.1088 31.9142C22.9328 31.9142 24.4167 30.4303 24.4167 28.6063C24.4167 27.1078 23.4148 25.8395 22.0458 25.4344V21.2027L31.4799 16.52C31.8106 16.3557 32.0141 16.0124 31.9992 15.6435ZM2.63175 9.57305C2.1353 8.72987 1.8729 7.76704 1.8729 6.78862V6.76474C1.8729 4.11473 4.02886 1.95871 6.67893 1.95871C9.329 1.95871 11.485 4.11473 11.485 6.76474C11.485 7.75649 11.2159 8.73056 10.7068 9.58177L6.64014 16.3807L2.63175 9.57305ZM22.5437 28.6063C22.5437 29.3975 21.8999 30.0412 21.1088 30.0412C20.3176 30.0412 19.6738 29.3975 19.6738 28.6063C19.6738 27.816 20.3161 27.1729 21.106 27.1714C21.1071 27.1714 21.1083 27.1716 21.1093 27.1716C21.1103 27.1716 21.1114 27.1714 21.1124 27.1714C21.9019 27.1733 22.5437 27.8162 22.5437 28.6063ZM22.0458 19.1116V13.0825L28.7719 15.773L22.0458 19.1116Z" fill="white"/>
</svg>
