<svg width="50" height="50" viewBox="0 0 50 50" fill="none" xmlns="http://www.w3.org/2000/svg">
<g clip-path="url(#clip0_2846_37333)">
<path d="M9.33247 46.1268C9.19914 46.5809 8.78247 46.8747 8.33247 46.8747C8.23664 46.8747 8.13664 46.8622 8.03872 46.833C3.97414 45.6413 1.28455 42.9538 0.0428881 38.8434C-0.123779 38.2934 0.188721 37.7122 0.738722 37.5455C1.2908 37.3788 1.86997 37.6913 2.03664 38.2413C3.07622 41.683 5.23039 43.8413 8.62414 44.8351C9.17622 44.9976 9.49289 45.5747 9.33039 46.1288L9.33247 46.1268ZM29.9137 2.04134C33.3075 3.03509 35.4616 5.19134 36.5012 8.63509C36.6366 9.08509 37.0512 9.37467 37.4991 9.37467C37.5991 9.37467 37.6991 9.36009 37.8012 9.33092C38.3512 9.16425 38.6637 8.583 38.4971 8.033C37.2554 3.9205 34.5658 1.233 30.5012 0.0434191C29.9471 -0.119081 29.37 0.199669 29.2075 0.749669C29.045 1.30175 29.3616 1.87884 29.9137 2.04134ZM30.4262 49.9684C30.4825 49.9684 30.3721 49.9684 30.4262 49.9684ZM49.9991 15.5663V30.5038C49.9991 35.1893 48.0929 39.7684 44.77 43.0684L43.0721 44.7559C39.6825 48.1226 35.1971 49.9684 30.4283 49.9684C25.5971 49.9247 20.9179 47.9934 17.5491 44.5288L1.45955 28.033C-0.205029 26.3684 -0.480029 23.7351 0.828305 21.9163C1.52622 20.9455 2.5533 20.2872 3.69706 20.0559L1.84497 18.2038C0.172055 16.5288 -0.102945 13.8934 1.20747 12.0768C2.00539 10.9684 3.2283 10.2663 4.57206 10.1434C3.98039 8.6705 4.11372 6.97884 5.03872 5.69134C5.84706 4.56842 7.09289 3.86217 8.45539 3.75175C9.81581 3.633 11.1554 4.133 12.1221 5.09967L12.8491 5.82675C12.9637 5.18925 13.2116 4.57675 13.6012 4.03717C14.4096 2.91425 15.6554 2.208 17.0179 2.09759C18.3804 1.98925 19.7179 2.47884 20.6846 3.4455L39.5825 22.3434V15.7893C39.5825 13.1351 41.4491 10.8309 43.9241 10.4288C45.4491 10.1809 46.9971 10.6059 48.1637 11.5976C49.3304 12.5893 49.9991 14.0351 49.9991 15.5663ZM47.9158 15.5663C47.9158 14.6476 47.5137 13.7788 46.8137 13.183C46.1033 12.5788 45.1929 12.333 44.2596 12.4851C42.7804 12.7247 41.6658 14.1455 41.6658 15.7893V24.8601C41.6658 25.2809 41.4116 25.6622 41.0221 25.8226C40.6346 25.9872 40.1866 25.8976 39.8866 25.5976L19.2116 4.91842C18.6783 4.38509 17.9387 4.11425 17.1846 4.17467C16.42 4.23717 15.7471 4.6205 15.2908 5.25592C14.5721 6.25384 14.7533 7.73092 15.7137 8.69134C15.7158 8.69342 15.7179 8.69759 15.7221 8.69967L27.295 20.2726C27.7012 20.6788 27.7012 21.3393 27.295 21.7455C27.0908 21.9497 26.8241 22.0497 26.5575 22.0497C26.2908 22.0497 26.0241 21.9476 25.82 21.7455L10.6471 6.57259C10.1137 6.03925 9.38247 5.77675 8.62206 5.82884C7.85747 5.89134 7.18664 6.27467 6.72831 6.91009C6.00956 7.908 6.19081 9.38509 7.14914 10.3455L22.1846 25.3809C22.5908 25.7872 22.5908 26.4476 22.1846 26.8538C21.9804 27.058 21.7137 27.158 21.4471 27.158C21.1804 27.158 20.9137 27.0559 20.7096 26.8538L6.81581 12.958C6.28247 12.4247 5.55122 12.1518 4.79081 12.2143C4.02622 12.2747 3.35539 12.658 2.89706 13.2955C2.17831 14.2934 2.35956 15.7705 3.31789 16.7309L17.0762 30.4893C17.4825 30.8955 17.4825 31.5559 17.0762 31.9622C16.67 32.3684 16.0096 32.3684 15.6033 31.9622L6.44081 22.7976C5.90747 22.2643 5.16372 21.9955 4.4158 22.0538C3.65122 22.1163 2.97831 22.4997 2.51997 23.1351C1.80122 24.133 1.98247 25.6101 2.94289 26.5705L19.0408 43.0768C22.0179 46.1413 26.0096 47.8497 30.2825 47.8872C34.4679 47.8955 38.5721 46.2893 41.6033 43.2788L43.3012 41.5913C46.2346 38.6788 47.9158 34.6393 47.9158 30.5038V15.5663Z" fill="#1CA8CB"/>
</g>
<defs>
<clipPath id="clip0_2846_37333">
<rect width="50" height="50" fill="white"/>
</clipPath>
</defs>
</svg>
