<svg width="32" height="33" viewBox="0 0 32 33" fill="none" xmlns="http://www.w3.org/2000/svg">
<path d="M15.9998 29.833L13.3332 21.833H2.6665L5.33317 29.833H15.9998ZM15.9998 29.833H21.3332" stroke="#1CA8CB" stroke-width="1.5" stroke-linecap="round" stroke-linejoin="round"/>
<path d="M16.0002 17.833V17.1663C16.0002 14.6522 16.0002 13.3951 15.2191 12.6141C14.438 11.833 13.181 11.833 10.6668 11.833C8.15267 11.833 6.89559 11.833 6.11455 12.6141C5.3335 13.3951 5.3335 14.6522 5.3335 17.1663V17.833" stroke="#1CA8CB" stroke-width="1.5" stroke-linecap="round" stroke-linejoin="round"/>
<path d="M25.3333 17.8337C25.3333 19.3065 24.1395 20.5003 22.6667 20.5003C21.1939 20.5003 20 19.3065 20 17.8337C20 16.3609 21.1939 15.167 22.6667 15.167C24.1395 15.167 25.3333 16.3609 25.3333 17.8337Z" stroke="#1CA8CB" stroke-width="1.5"/>
<path d="M13.3333 5.83366C13.3333 7.30642 12.1394 8.50033 10.6667 8.50033C9.19391 8.50033 8 7.30642 8 5.83366C8 4.3609 9.19391 3.16699 10.6667 3.16699C12.1394 3.16699 13.3333 4.3609 13.3333 5.83366Z" stroke="#1CA8CB" stroke-width="1.5"/>
<path d="M18.6665 23.833H26.6665C28.1393 23.833 29.3332 25.0269 29.3332 26.4997V27.1663C29.3332 28.6391 28.1393 29.833 26.6665 29.833H25.3332" stroke="#1CA8CB" stroke-width="1.5" stroke-linecap="round"/>
</svg>
