<svg width="32" height="33" viewBox="0 0 32 33" fill="none" xmlns="http://www.w3.org/2000/svg">
<path d="M15.9993 29.833L13.3327 21.833H2.66602L5.33268 29.833H15.9993ZM15.9993 29.833H21.3327" stroke="#405749" stroke-width="1.5" stroke-linecap="round" stroke-linejoin="round"/>
<path d="M16.0007 17.833V17.1663C16.0007 14.6522 16.0007 13.3951 15.2196 12.6141C14.4385 11.833 13.1815 11.833 10.6673 11.833C8.15316 11.833 6.89608 11.833 6.11504 12.6141C5.33398 13.3951 5.33398 14.6522 5.33398 17.1663V17.833" stroke="#405749" stroke-width="1.5" stroke-linecap="round" stroke-linejoin="round"/>
<path d="M25.3333 17.8337C25.3333 19.3065 24.1395 20.5003 22.6667 20.5003C21.1939 20.5003 20 19.3065 20 17.8337C20 16.3609 21.1939 15.167 22.6667 15.167C24.1395 15.167 25.3333 16.3609 25.3333 17.8337Z" stroke="#405749" stroke-width="1.5"/>
<path d="M13.3333 5.83366C13.3333 7.30642 12.1394 8.50033 10.6667 8.50033C9.19391 8.50033 8 7.30642 8 5.83366C8 4.3609 9.19391 3.16699 10.6667 3.16699C12.1394 3.16699 13.3333 4.3609 13.3333 5.83366Z" stroke="#405749" stroke-width="1.5"/>
<path d="M18.666 23.833H26.666C28.1388 23.833 29.3327 25.0269 29.3327 26.4997V27.1663C29.3327 28.6391 28.1388 29.833 26.666 29.833H25.3327" stroke="#405749" stroke-width="1.5" stroke-linecap="round"/>
</svg>
