<svg width="32" height="33" viewBox="0 0 32 33" fill="none" xmlns="http://www.w3.org/2000/svg">
<path d="M24.9578 14.7871C24.7009 15.0309 24.3574 15.167 24 15.167C23.6425 15.167 23.299 15.0309 23.0421 14.7871C20.6888 12.5426 17.5352 10.0351 19.0732 6.39479C19.9046 4.42649 21.9008 3.16699 24 3.16699C26.0992 3.16699 28.0952 4.42649 28.9268 6.39479C30.4628 10.0306 27.3169 12.5503 24.9578 14.7871Z" stroke="#1CA8CB" stroke-width="1.5"/>
<path d="M24 8.5H24.012" stroke="#1CA8CB" stroke-width="2" stroke-linecap="round" stroke-linejoin="round"/>
<path d="M6.6665 29.833C8.87564 29.833 10.6665 28.0421 10.6665 25.833C10.6665 23.6239 8.87564 21.833 6.6665 21.833C4.45736 21.833 2.6665 23.6239 2.6665 25.833C2.6665 28.0421 4.45736 29.833 6.6665 29.833Z" stroke="#1CA8CB" stroke-width="1.5" stroke-linecap="round" stroke-linejoin="round"/>
<path d="M14.6667 9.83301H12.6667C10.0893 9.83301 8 11.6239 8 13.833C8 16.0422 10.0893 17.833 12.6667 17.833H16.6667C19.244 17.833 21.3333 19.6238 21.3333 21.833C21.3333 24.0422 19.244 25.833 16.6667 25.833H14.6667" stroke="#1CA8CB" stroke-width="1.5" stroke-linecap="round" stroke-linejoin="round"/>
</svg>
