<svg width="50" height="50" viewBox="0 0 50 50" fill="none" xmlns="http://www.w3.org/2000/svg">
<g clip-path="url(#clip0_2846_37448)">
<path fill-rule="evenodd" clip-rule="evenodd" d="M24.9967 46.5692C24.7506 46.5692 24.5467 46.4497 24.4271 46.288L0.154893 13.5289C-0.00682875 13.325 -0.0490169 13.0437 0.0705162 12.7976L4.37371 3.86778C4.49324 3.62168 4.73934 3.45996 5.02059 3.45996H44.9236C45.2118 3.45996 45.4579 3.62168 45.5775 3.86778L49.9229 12.7976C50.0424 13.0437 50.0002 13.325 49.8385 13.5289L25.6014 46.288C25.4397 46.4497 25.2358 46.5692 24.9967 46.5692ZM1.57523 13.0015L24.9967 44.6215L48.4181 13.0015L44.4806 4.8803H5.4706L1.57523 13.0015Z" fill="#1CA8CB"/>
<path fill-rule="evenodd" clip-rule="evenodd" d="M49.2699 13.8102H0.760558C0.352739 13.8102 0.0292969 13.4867 0.0292969 13.0789C0.0292969 12.6781 0.352739 12.3477 0.760558 12.3477H49.2699C49.6777 12.3477 50.0012 12.6781 50.0012 13.0789C50.0012 13.4867 49.6355 13.8102 49.2699 13.8102Z" fill="#1CA8CB"/>
<path fill-rule="evenodd" clip-rule="evenodd" d="M24.9959 46.5691C24.7076 46.5691 24.4264 46.3652 24.3068 46.084L13.0566 13.3249C13.0215 13.2053 13.0215 13.0788 13.0215 12.917L15.0465 3.98721C15.1309 3.62158 15.5387 3.38251 15.9043 3.45986C16.27 3.54424 16.509 3.94502 16.4317 4.31065L14.4418 13.0436L24.9537 43.6511L35.4304 13.0436L33.4406 4.31065C33.3562 3.94502 33.6023 3.54424 33.9679 3.45986C34.3335 3.38251 34.7343 3.62158 34.8187 3.98721L36.8508 12.917C36.8859 13.0436 36.8859 13.1631 36.8086 13.3249L25.6006 46.084C25.5654 46.3652 25.3193 46.5691 24.9959 46.5691Z" fill="#1CA8CB"/>
<path fill-rule="evenodd" clip-rule="evenodd" d="M36.1974 13.8099C36.0357 13.8099 35.8739 13.7748 35.7544 13.6482L24.9964 5.08401L14.1962 13.6482C13.915 13.8943 13.5072 13.8521 13.2611 13.606L4.53516 4.67619C4.25391 4.39494 4.25391 3.94493 4.53516 3.66368C4.82345 3.38242 5.26642 3.38242 5.54768 3.66368L13.7884 12.1083L24.5464 3.5793C24.7925 3.38242 25.1581 3.38242 25.4394 3.5793L36.1552 12.1083L44.3959 3.66368C44.6842 3.38242 45.1272 3.38242 45.4155 3.66368C45.6967 3.94493 45.6967 4.39494 45.4155 4.67619L36.6896 13.606C36.6052 13.7326 36.4013 13.8099 36.1974 13.8099Z" fill="#1CA8CB"/>
</g>
<defs>
<clipPath id="clip0_2846_37448">
<rect width="50" height="50" fill="white"/>
</clipPath>
</defs>
</svg>
