<svg width="40" height="56" viewBox="0 0 40 56" fill="none" xmlns="http://www.w3.org/2000/svg">
<path d="M19.8785 2.80098C19.6813 1.60089 18.6446 0.679688 17.3893 0.679688H13.4723C12.2165 0.679688 11.1795 1.60177 10.9829 2.80264C9.63423 3.33357 8.67557 4.64416 8.67557 6.17928V12.8449H3.59829C1.61898 12.8449 0 14.4555 0 16.4375V47.826C0 49.4947 1.14706 50.8972 2.69433 51.2992V53.678C2.69433 54.5833 3.43045 55.3194 4.33552 55.3194H6.42544C7.33051 55.3194 8.06663 54.5833 8.06663 53.678V51.4185H21.7418V53.678C21.7418 54.5833 22.4779 55.3194 23.3827 55.3194H25.4728C26.3775 55.3194 27.1137 54.5833 27.1137 53.678V51.4185H27.4057C29.3871 51.4185 30.9988 49.8067 30.9988 47.826V39.8027C30.9988 39.4346 30.7005 39.1363 30.3324 39.1363C29.9643 39.1363 29.666 39.4346 29.666 39.8027V47.826C29.666 49.0723 28.6519 50.0859 27.4056 50.0859C23.8196 50.0855 7.18609 50.0853 3.59299 50.0853C2.34627 50.0824 1.33258 49.0705 1.33258 47.8259V24.3592H29.666V33.8377C29.666 34.2057 29.9643 34.5041 30.3324 34.5041C30.7005 34.5041 30.9988 34.2057 30.9988 33.8377V24.1352C31.357 24.3889 31.7236 24.6329 32.1076 24.8549C32.2107 24.9148 32.326 24.9444 32.4411 24.9444C32.5561 24.9444 32.6712 24.9147 32.7742 24.8554C37.2313 22.282 40 17.4874 40 12.3424V12.3397C40 12.1019 39.8729 11.8816 39.6669 11.7624L32.7742 7.78401C32.5681 7.66534 32.314 7.66534 32.1078 7.78401L25.2155 11.7624C25.0093 11.8816 24.8823 12.1044 24.8823 12.3424C24.8823 12.5107 24.8932 12.6773 24.8992 12.8448H22.1862V6.17917C22.1863 4.64394 21.2274 3.33225 19.8785 2.80098ZM6.73383 53.678C6.73383 53.8482 6.59538 53.9867 6.42533 53.9867H4.33541C4.16547 53.9867 4.02691 53.8482 4.02691 53.678V51.4185H6.73372L6.73383 53.678ZM25.781 53.678C25.781 53.8482 25.6427 53.9867 25.4728 53.9867H23.3827C23.2127 53.9867 23.0745 53.8482 23.0745 53.678V51.4185H25.7811V53.678H25.781ZM13.4724 2.01238H17.3894C18.05 2.01238 18.5873 2.54961 18.5873 3.21026C18.5873 3.87091 18.05 4.40814 17.3894 4.40814H13.4724C12.8118 4.40814 12.2745 3.87091 12.2745 3.21026C12.2745 2.54961 12.8118 2.01238 13.4724 2.01238ZM10.0084 6.17917C10.0084 5.33553 10.4708 4.60903 11.1502 4.21135C11.5392 5.10968 12.4328 5.74083 13.4723 5.74083H17.3893C18.4291 5.74083 19.3229 5.10946 19.7117 4.2108C20.391 4.60936 20.8535 5.33565 20.8535 6.17917V12.8448H10.0083V6.17917H10.0084ZM1.33501 16.4364C1.33501 15.1794 2.38483 14.1786 3.59277 14.1786H25.0027C25.443 17.5851 27.0947 20.7256 29.6186 23.0266H1.33501V16.4364ZM32.4411 9.13095L38.6619 12.7215C38.5338 17.1185 36.1841 21.19 32.4413 23.5019C28.699 21.1874 26.3496 17.1169 26.2205 12.7215L32.4411 9.13095Z" fill="white"/>
<path d="M22.8716 27.2452C21.9575 27.2452 21.2139 27.9892 21.2139 28.9033V44.8844C21.2139 45.7986 21.9575 46.542 22.8716 46.542H24.5568C25.4709 46.542 26.2147 45.7986 26.2147 44.8844V28.9032C26.2147 27.9891 25.471 27.2451 24.5568 27.2451L22.8716 27.2452ZM24.8819 28.9032V44.8843C24.8819 45.0634 24.7361 45.2092 24.5568 45.2092H22.8716C22.6923 45.2092 22.5466 45.0634 22.5466 44.8843V28.9032C22.5466 28.7237 22.6923 28.5778 22.8716 28.5778H24.5568C24.7361 28.5779 24.8819 28.7237 24.8819 28.9032Z" fill="white"/>
<path d="M14.6568 27.2452C13.7427 27.2452 12.999 27.9892 12.999 28.9033V44.8844C12.999 45.7986 13.7427 46.542 14.6568 46.542H16.342C17.2561 46.542 17.9997 45.7986 17.9997 44.8844V28.9032C17.9997 27.9891 17.2561 27.2451 16.342 27.2451L14.6568 27.2452ZM16.667 28.9032V44.8843C16.667 45.0634 16.5213 45.2092 16.342 45.2092H14.6568C14.4775 45.2092 14.3317 45.0634 14.3317 44.8843V28.9032C14.3317 28.7237 14.4775 28.5778 14.6568 28.5778H16.342C16.5213 28.5779 16.667 28.7237 16.667 28.9032Z" fill="white"/>
<path d="M6.44097 27.2452C5.52684 27.2452 4.7832 27.9892 4.7832 28.9033V44.8844C4.7832 45.7986 5.52684 46.542 6.44097 46.542H8.12614C9.04027 46.542 9.78391 45.7986 9.78391 44.8844V28.9032C9.78391 27.9891 9.04027 27.2451 8.12614 27.2451L6.44097 27.2452ZM8.45122 28.9032V44.8843C8.45122 45.0634 8.30548 45.2092 8.12614 45.2092H6.44097C6.26164 45.2092 6.11589 45.0634 6.11589 44.8843V28.9032C6.11589 28.7237 6.26164 28.5778 6.44097 28.5778H8.12614C8.30548 28.5779 8.45122 28.7237 8.45122 28.9032Z" fill="white"/>
<path d="M31.2974 19.176C31.4679 19.176 31.6384 19.1109 31.7686 18.9807L36.1502 14.5995C36.4105 14.3391 36.4105 13.9175 36.1502 13.6572C35.8898 13.3968 35.4682 13.3968 35.2079 13.6572L31.2974 17.5673L30.2167 16.4865C29.9563 16.2262 29.5347 16.2262 29.2743 16.4865C29.014 16.7468 29.014 17.1685 29.2743 17.4288L30.8263 18.9807C30.9564 19.1109 31.1269 19.176 31.2974 19.176Z" fill="white"/>
</svg>
