<svg width="40" height="40" viewBox="0 0 40 40" fill="none" xmlns="http://www.w3.org/2000/svg">
<g clip-path="url(#clip0_2408_9677)">
<path d="M8.83336 13H0V40H8.83336V13Z" fill="#E8EAEA"/>
<path d="M40.0004 13H31.167V40H40.0004V13Z" fill="#E8EAEA"/>
<path d="M0 13.5004H40C40 12.5004 39.1666 11.667 38.1666 11.667H1.83336C0.833359 11.667 0 12.5004 0 13.5004Z" fill="#FFA679"/>
<path d="M31.1664 8.5H8.83301V40H31.1664V8.5Z" fill="#F2F2F2"/>
<path d="M32.4169 6.66699H7.58363C7.08363 6.66699 6.66699 7.08363 6.66699 7.58363C6.66699 8.08363 7.08363 8.50035 7.58363 8.50035H32.417C32.917 8.50035 33.3336 8.08371 33.3336 7.58371C33.3336 7.08371 32.9169 6.66699 32.4169 6.66699Z" fill="#FFA679"/>
<path d="M6.33336 15.5H2.5V19.75H6.33336V15.5Z" fill="#42A8C3"/>
<path d="M6.33336 21.417H2.5V25.667H6.33336V21.417Z" fill="#42A8C3"/>
<path d="M6.33336 27.333H2.5V31.583H6.33336V27.333Z" fill="#42A8C3"/>
<path d="M6.33336 33.25H2.5V37.5H6.33336V33.25Z" fill="#42A8C3"/>
<path d="M37.5004 15.5H33.667V19.75H37.5004V15.5Z" fill="#42A8C3"/>
<path d="M37.5004 21.417H33.667V25.667H37.5004V21.417Z" fill="#42A8C3"/>
<path d="M37.5004 27.333H33.667V31.583H37.5004V27.333Z" fill="#42A8C3"/>
<path d="M37.5004 33.25H33.667V37.5H37.5004V33.25Z" fill="#42A8C3"/>
<path d="M15.4997 22.917H11.333V27.167H15.4997V22.917Z" fill="#8ECBDB"/>
<path d="M24.4166 29.583H15.5V39.9996H24.4166V29.583Z" fill="#056D8A"/>
<path d="M40 38.25H0V40H40V38.25Z" fill="#ACB3BA"/>
<path d="M15.4997 11.083H11.333V15.333H15.4997V11.083Z" fill="#8ECBDB"/>
<path d="M15.4997 17H11.333V21.25H15.4997V17Z" fill="#8ECBDB"/>
<path d="M22.0826 11.083H17.916V15.333H22.0826V11.083Z" fill="#8ECBDB"/>
<path d="M22.0826 17H17.916V21.25H22.0826V17Z" fill="#8ECBDB"/>
<path d="M22.0826 22.916H17.916V27.166H22.0826V22.916Z" fill="#8ECBDB"/>
<path d="M28.6666 11.083H24.5V15.333H28.6666V11.083Z" fill="#8ECBDB"/>
<path d="M28.6666 17H24.5V21.25H28.6666V17Z" fill="#8ECBDB"/>
<path d="M28.6666 22.916H24.5V27.166H28.6666V22.916Z" fill="#8ECBDB"/>
</g>
<defs>
<clipPath id="clip0_2408_9677">
<rect width="40" height="40" fill="white"/>
</clipPath>
</defs>
</svg>
