<svg width="50" height="50" viewBox="0 0 50 50" fill="none" xmlns="http://www.w3.org/2000/svg">
<g clip-path="url(#clip0_3004_10647)">
<path d="M42.5176 30.9664C41.1175 30.7424 36.7405 30.0419 35.3516 29.8196V28.0926C38.8831 26.5516 41.2109 23.0387 41.2109 19.1407V15.1368H46.0938C46.633 15.1368 47.0703 14.6995 47.0703 14.1603V13.0411C47.0703 10.6965 45.1629 8.78906 42.8184 8.78906H41.1623C40.6707 3.86104 36.5006 0 31.4453 0C26.39 0 22.2199 3.86104 21.7284 8.78906H20.0723C17.7277 8.78906 15.8203 10.6965 15.8203 13.041V14.1602C15.8203 14.6994 16.2575 15.1367 16.7969 15.1367H21.6797V19.1406C21.6797 23.0388 24.0077 26.5518 27.5391 28.0926V29.8196C26.0439 30.0589 21.8774 30.7257 20.373 30.9664C16.0688 31.6555 12.8906 35.3722 12.8906 39.7412V49.0234C12.8906 49.5627 13.3278 50 13.8672 50H49.0234C49.5627 50 50 49.5627 50 49.0234V39.7412C50 35.3822 46.8318 31.657 42.5176 30.9664ZM31.4453 1.95312C35.4223 1.95312 38.7122 4.94082 39.1946 8.78906H23.696C24.1784 4.94082 27.4684 1.95312 31.4453 1.95312ZM23.6328 19.1406V15.1367H27.1485C27.6878 15.1367 28.1251 14.6994 28.1251 14.1602C28.1251 13.6209 27.6878 13.1836 27.1485 13.1836C26.1419 13.1836 18.962 13.1836 17.7734 13.1836V13.041C17.7734 11.7734 18.8047 10.7422 20.0723 10.7422H42.8184C44.0859 10.7422 45.1172 11.7734 45.1172 13.041V13.1836C44.1752 13.1836 36.9656 13.1836 35.9376 13.1836C35.3983 13.1836 34.961 13.6209 34.961 14.1602C34.961 14.6994 35.3983 15.1367 35.9376 15.1367H39.2578V19.1406C39.2578 23.4098 35.8021 26.9531 31.4453 26.9531C27.0889 26.9531 23.6328 23.4101 23.6328 19.1406ZM28.6699 31.6166C29.1437 31.5408 29.4922 31.1321 29.4922 30.6523V28.7094C30.1313 28.8392 30.7841 28.9062 31.4453 28.9062C32.1065 28.9062 32.7595 28.8392 33.3984 28.7094V30.6523C33.3984 31.1321 33.7469 31.5408 34.2207 31.6166L37.4618 32.1353L31.4453 40.1575L25.4288 32.1353L28.6699 31.6166ZM33.4961 48.0469H29.4922V43.5547H33.4961V48.0469ZM14.8438 39.7412C14.8438 36.3157 17.299 33.4364 20.6816 32.8949L23.249 32.4841L30.0869 41.6016H28.5156C27.9764 41.6016 27.5391 42.0389 27.5391 42.5781V48.0469H20.7031V42.5781C20.7031 42.0389 20.2659 41.6016 19.7266 41.6016C19.1872 41.6016 18.75 42.0389 18.75 42.5781V48.0469H14.8438V39.7412ZM48.0469 48.0469H44.1406V42.5781C44.1406 42.0389 43.7033 41.6016 43.1641 41.6016C42.6248 41.6016 42.1875 42.0389 42.1875 42.5781V48.0469H35.4492V42.5781C35.4492 42.0389 35.0119 41.6016 34.4727 41.6016H32.8037L39.6416 32.4841L42.2089 32.8949C45.5916 33.4365 48.0469 36.3157 48.0469 39.7412V48.0469Z" fill="#1CA8CB"/>
<path d="M34.826 21.0944C35.0961 20.6275 34.9363 20.0301 34.4694 19.7602C34.0025 19.4902 33.4051 19.65 33.1352 20.1169C32.7868 20.7195 32.1389 21.0939 31.4445 21.0939C30.7501 21.0939 30.1022 20.7195 29.7538 20.1169C29.484 19.6502 28.8868 19.4901 28.4196 19.7602C27.9527 20.0301 27.7929 20.6275 28.063 21.0944C28.7592 22.2988 30.055 23.047 31.4445 23.047C32.8341 23.047 34.1298 22.2988 34.826 21.0944Z" fill="#1CA8CB"/>
<path d="M0.976562 48.0469C0.437207 48.0469 0 48.4842 0 49.0234C0 49.5627 0.437207 50 0.976562 50H6.83594C7.37529 50 7.8125 49.5627 7.8125 49.0234C7.8125 48.4842 7.37529 48.0469 6.83594 48.0469H4.88281V32.1065L18.9174 26.4927C19.2882 26.3443 19.5312 25.9853 19.5312 25.5859C19.5312 25.1866 19.2882 24.8274 18.9174 24.6792L4.88281 19.0653V13.8672C4.88281 13.3279 4.44561 12.8906 3.90625 12.8906C3.36689 12.8906 2.92969 13.3279 2.92969 13.8672V48.0469H0.976562ZM15.9252 25.5859L4.88281 30.0028V21.169L15.9252 25.5859Z" fill="#1CA8CB"/>
<path d="M31.543 15.1367C32.0823 15.1367 32.5195 14.6995 32.5195 14.1602C32.5195 13.6208 32.0823 13.1836 31.543 13.1836C31.0036 13.1836 30.5664 13.6208 30.5664 14.1602C30.5664 14.6995 31.0036 15.1367 31.543 15.1367Z" fill="#1CA8CB"/>
</g>
<defs>
<clipPath id="clip0_3004_10647">
<rect width="50" height="50" fill="white"/>
</clipPath>
</defs>
</svg>
