<svg width="50" height="50" viewBox="0 0 50 50" fill="none" xmlns="http://www.w3.org/2000/svg">
<g clip-path="url(#clip0_3004_10819)">
<path d="M35.0527 15.445V11.643L37.1728 15.7316C37.4477 16.2607 37.9669 16.4006 38.3596 16.3047C38.7324 16.2135 39.1678 15.8646 39.1678 15.1814V7.62395C39.1678 7.08473 38.7305 6.64746 38.1913 6.64746C37.6521 6.64746 37.2148 7.08473 37.2148 7.62395V11.5703L34.943 7.18902C34.7358 6.78954 34.2823 6.58301 33.8448 6.68994C33.4074 6.79657 33.0996 7.18834 33.0996 7.6386V15.4451C33.0996 15.9844 33.5369 16.4216 34.0761 16.4216C34.6153 16.4216 35.0527 15.9844 35.0527 15.445Z" fill="#1CA8CB"/>
<path d="M32.1385 15.4408V7.62883C32.1385 7.08962 31.7013 6.65234 31.162 6.65234C30.6228 6.65234 30.1855 7.08962 30.1855 7.62883V15.4408C30.1855 15.98 30.6228 16.4172 31.162 16.4172C31.7013 16.4172 32.1385 15.9801 32.1385 15.4408Z" fill="#1CA8CB"/>
<path d="M10.3184 9.77711V13.2925C10.3184 15.0155 11.7201 16.4172 13.4431 16.4172C15.1661 16.4172 16.5679 15.0155 16.5679 13.2925V9.77711C16.5679 8.0541 15.1661 6.65234 13.4431 6.65234C11.7201 6.65234 10.3184 8.05419 10.3184 9.77711ZM14.6149 9.77711V13.2925C14.6149 13.9386 14.0893 14.4643 13.4431 14.4643C12.797 14.4643 12.2713 13.9386 12.2713 13.2925V9.77711C12.2713 9.13097 12.797 8.60532 13.4431 8.60532C14.0893 8.60532 14.6149 9.13097 14.6149 9.77711Z" fill="#1CA8CB"/>
<path d="M17.1562 9.77711V13.2925C17.1562 15.0155 18.558 16.4172 20.281 16.4172C22.004 16.4172 23.4058 15.0155 23.4058 13.2925V9.77711C23.4058 8.0541 22.004 6.65234 20.281 6.65234C18.558 6.65234 17.1562 8.05419 17.1562 9.77711ZM21.4528 9.77711V13.2925C21.4528 13.9386 20.9272 14.4643 20.281 14.4643C19.6349 14.4643 19.1092 13.9386 19.1092 13.2925V9.77711C19.1092 9.13097 19.6349 8.60532 20.281 8.60532C20.9272 8.60532 21.4528 9.13097 21.4528 9.77711Z" fill="#1CA8CB"/>
<path d="M43.0336 8.60532C43.5589 8.60532 44.0297 8.95647 44.1787 9.45907C44.3317 9.97612 44.8746 10.2715 45.3923 10.118C45.9094 9.96489 46.2044 9.42147 46.0512 8.90442C45.6586 7.57845 44.4176 6.65234 43.0337 6.65234C41.2984 6.65234 39.8867 8.06406 39.8867 9.79928V13.2703C39.8867 15.0056 41.2984 16.4173 43.0337 16.4173C44.4143 16.4173 45.6544 15.4941 46.0493 14.1721C46.0764 14.0814 46.0902 13.9872 46.0902 13.8926V11.9841C46.0902 11.4449 45.6529 11.0076 45.1137 11.0076H44.2096C43.6704 11.0076 43.2331 11.4449 43.2331 11.9841C43.2331 12.499 43.6318 12.9208 44.1372 12.9579V13.7278C43.9545 14.167 43.5167 14.4645 43.0337 14.4645C42.3753 14.4645 41.8397 13.9289 41.8397 13.2704V9.79938C41.8397 9.14093 42.3752 8.60532 43.0336 8.60532Z" fill="#1CA8CB"/>
<path d="M6.37267 6.65234H4.88469C4.34548 6.65234 3.9082 7.08962 3.9082 7.62883V15.4408C3.9082 15.7009 4.012 15.9504 4.19666 16.1338C4.37965 16.3154 4.627 16.4172 4.88469 16.4172H4.89163C4.90471 16.4171 6.20305 16.4079 6.76903 16.4079C8.46695 16.4079 9.84819 15.0265 9.84819 13.3287C9.84819 12.3616 9.39969 11.4978 8.70013 10.9328C8.98214 10.4986 9.14668 9.98149 9.14668 9.42636C9.14668 7.89688 7.90224 6.65234 6.37267 6.65234ZM5.86118 8.60532H6.37267C6.82547 8.60532 7.1937 8.97356 7.1937 9.42636C7.1937 9.87906 6.82547 10.2473 6.37267 10.2473C6.23166 10.2473 6.04945 10.248 5.86118 10.249V8.60532ZM6.76903 14.455C6.54023 14.455 6.19465 14.4565 5.86118 14.4582V12.2025H6.76903C7.38998 12.2025 7.89521 12.7078 7.89521 13.3287C7.89521 13.9497 7.38998 14.455 6.76903 14.455Z" fill="#1CA8CB"/>
<path d="M25.0527 6.64746C24.5134 6.64746 24.0762 7.08473 24.0762 7.62395V15.4451C24.0762 15.9844 24.5134 16.4216 25.0527 16.4216C25.5919 16.4216 26.0292 15.9844 26.0292 15.4451V13.7846L27.8992 16.0644C28.0924 16.2998 28.3724 16.4216 28.6547 16.4216C28.8726 16.4216 29.0919 16.3491 29.2734 16.2001C29.6905 15.858 29.7512 15.2427 29.4092 14.8259L26.5735 11.3691L29.1224 8.3529C29.4705 7.94102 29.4187 7.32495 29.0068 6.97683C28.5952 6.62891 27.9788 6.68056 27.6307 7.09245L26.0292 8.98772V7.62395C26.0292 7.08464 25.5919 6.64746 25.0527 6.64746Z" fill="#1CA8CB"/>
<path d="M45.1158 0H29.3943C28.8551 0 28.4178 0.437272 28.4178 0.97649C28.4178 1.51571 28.8551 1.95298 29.3943 1.95298H45.1158C46.7311 1.95298 48.0453 3.26714 48.0453 4.88245V18.1627C48.0453 19.778 46.7311 21.0922 45.1158 21.0922H21.1743C20.9125 20.4466 20.4474 19.9092 19.8345 19.5554C19.1065 19.135 18.2586 19.0233 17.4466 19.241C16.4597 19.5054 15.7083 20.2136 15.3482 21.0922H4.8844C3.26909 21.0922 1.95493 19.778 1.95493 18.1627V4.88245C1.95493 3.26714 3.26909 1.95298 4.8844 1.95298H20.6059C21.1451 1.95298 21.5824 1.51571 21.5824 0.97649C21.5824 0.437272 21.1451 0 20.6059 0H4.8844C2.19222 0 0.00195312 2.19027 0.00195312 4.88245V18.1627C0.00195312 20.8549 2.19222 23.0452 4.8844 23.0452H15.2198C15.2159 23.0305 15.2235 23.0598 15.2198 23.0452L18.2372 34.6374L17.2475 33.6483C16.2092 32.611 14.6134 32.3206 13.2761 32.9262C12.3603 33.341 11.661 34.1285 11.3577 35.087C11.0543 36.0456 11.1728 37.0921 11.6831 37.9583L14.8496 43.3338C16.363 45.9031 18.622 47.8581 21.3819 48.9873C23.0285 49.6609 24.7536 49.9999 26.4894 49.9999C27.6631 49.9998 28.8417 49.8448 30.0035 49.5335C36.329 47.8386 40.0962 41.3134 38.4014 34.988L36.4572 28.019C36.0112 26.3546 34.2939 25.3638 32.6299 25.8093C32.1156 25.9471 31.6557 26.2078 31.2813 26.5658C30.5204 25.7051 29.3114 25.2956 28.1284 25.6125C27.6024 25.7534 27.1333 26.0231 26.7545 26.3938C26.5432 26.1654 26.2967 25.9675 26.0196 25.8076C25.2967 25.39 24.4545 25.2791 23.6482 25.4954C23.2286 25.6079 22.8518 25.8013 22.53 26.0542L21.7237 23.0452H45.1158C47.808 23.0452 49.9982 20.8549 49.9982 18.1627V4.88245C49.9982 2.19027 47.808 0 45.1158 0ZM23.2838 33.4157C23.3674 33.4156 23.4526 33.4048 23.5371 33.3821C24.0581 33.2425 24.3672 32.707 24.2276 32.1862L23.3249 28.8173C23.1577 28.193 23.5295 27.5491 24.1538 27.3819C24.4562 27.3007 24.7719 27.3423 25.0431 27.4989C25.3141 27.6555 25.5081 27.9082 25.5891 28.2106L26.4918 31.5794C26.6314 32.1004 27.1669 32.4099 27.6877 32.2699C28.2086 32.1302 28.5178 31.5948 28.3782 31.074L27.8049 28.9344C27.7239 28.632 27.7655 28.3162 27.922 28.045C28.0786 27.7739 28.3312 27.58 28.6336 27.4989C29.258 27.332 29.9018 27.7034 30.0692 28.3276L30.6425 30.4673C30.7593 30.9037 31.1538 31.1913 31.5851 31.1913C31.6686 31.1912 31.7538 31.1805 31.8384 31.1577C32.3593 31.0181 32.6685 30.4827 32.5288 29.9618L32.3062 29.1309C32.1391 28.5068 32.5109 27.863 33.135 27.6957C33.7591 27.5287 34.4031 27.9003 34.5705 28.5244L36.5148 35.4934C37.9309 40.7787 34.7832 46.2307 29.4979 47.647C24.494 48.9881 19.1618 46.8068 16.5322 42.3427L13.3657 36.9672C13.133 36.5721 13.0811 36.1137 13.2194 35.6765C13.3579 35.2393 13.6641 34.8944 14.0818 34.7052C14.6826 34.4331 15.4 34.5634 15.8669 35.0297L19.4009 38.5613C19.7128 38.873 20.1947 38.937 20.5769 38.7177C20.9593 38.4985 21.1474 38.0502 21.0358 37.6238L17.1075 22.5896C17.025 22.2815 17.0674 21.9598 17.2268 21.6836C17.3863 21.4075 17.6438 21.2099 17.9518 21.1274C18.2597 21.0448 18.5815 21.0871 18.8578 21.2468C19.1339 21.4062 19.3315 21.6637 19.414 21.9717C19.414 21.9717 22.353 32.7326 22.3588 32.7483C22.4936 33.1523 22.8716 33.4157 23.2838 33.4157Z" fill="#1CA8CB"/>
<path d="M24.9999 1.95298C25.5392 1.95298 25.9764 1.51579 25.9764 0.97649C25.9764 0.437189 25.5392 0 24.9999 0C24.4606 0 24.0234 0.437189 24.0234 0.97649C24.0234 1.51579 24.4606 1.95298 24.9999 1.95298Z" fill="#1CA8CB"/>
</g>
<defs>
<clipPath id="clip0_3004_10819">
<rect width="50" height="50" fill="white"/>
</clipPath>
</defs>
</svg>
