<svg width="50" height="50" viewBox="0 0 50 50" fill="none" xmlns="http://www.w3.org/2000/svg">
<g clip-path="url(#clip0_3004_10812)">
<path d="M19.8566 37.8084C19.6938 37.8084 19.5296 37.7759 19.373 37.7052C14.354 35.4724 11.1113 30.4852 11.1113 24.9996C11.1113 17.3416 17.3409 11.1113 24.9996 11.1113C29.9551 11.1113 34.571 13.7851 37.048 18.0888C37.3751 18.6585 37.1798 19.3862 36.6095 19.714C36.0374 20.0426 35.3105 19.8465 34.9835 19.2762C32.9313 15.7088 29.1059 13.4923 24.9998 13.4923C18.654 13.4923 13.4923 18.6546 13.4923 24.9998C13.4923 29.546 16.1801 33.6791 20.3402 35.5307C20.9416 35.7973 21.2113 36.501 20.9448 37.1016C20.7463 37.5449 20.3124 37.8084 19.8566 37.8084Z" fill="#1CA8CB"/>
<path d="M46.5075 49.9992H22.3021C21.042 49.9992 19.912 49.3475 19.2812 48.2554C18.6518 47.1642 18.6503 45.8598 19.2812 44.7679L31.3839 23.8053C32.0148 22.7132 33.1446 22.0615 34.4048 22.0615C35.665 22.0623 36.795 22.714 37.4243 23.8053L49.527 44.7679C50.1579 45.8592 50.1579 47.1628 49.5286 48.2548C48.8976 49.3476 47.7692 49.9992 46.5075 49.9992ZM34.4048 24.4423C34.2126 24.4423 33.7337 24.4965 33.4453 24.9964L21.3426 45.9582C21.0543 46.4573 21.2465 46.8984 21.3426 47.065C21.4387 47.2315 21.7254 47.6184 22.3021 47.6184H46.5075C47.084 47.6184 47.3693 47.2317 47.4654 47.065C47.5615 46.8982 47.7537 46.4581 47.4654 45.959L35.3628 24.9956C35.0745 24.4965 34.597 24.4423 34.4048 24.4423Z" fill="#1CA8CB"/>
<path d="M34.4053 39.1416C33.7481 39.1416 33.2148 38.6083 33.2148 37.9511V31.0108C33.2148 30.3536 33.7481 29.8203 34.4053 29.8203C35.0625 29.8203 35.5958 30.3536 35.5958 31.0108V37.9511C35.5958 38.6083 35.0625 39.1416 34.4053 39.1416Z" fill="#1CA8CB"/>
<path d="M10.4038 44.6063C9.66438 44.6063 8.96844 44.318 8.44297 43.7941L6.20625 41.555C5.68078 41.0311 5.3925 40.3344 5.3925 39.5935C5.3925 38.8533 5.68234 38.1566 6.20781 37.6335L7.95781 35.8835C6.6775 33.88 5.77234 31.6954 5.25766 29.3649H2.77766C1.24625 29.3649 0 28.1186 0 26.5872V23.4127C0 21.8813 1.24625 20.635 2.77766 20.635H5.25766C5.77234 18.3046 6.6775 16.1197 7.95781 14.1164L6.20625 12.3657C5.68234 11.8433 5.3925 11.1466 5.3925 10.4064C5.3925 9.66551 5.68078 8.96879 6.20625 8.4441L8.44297 6.2066C9.49391 5.15566 11.3183 5.15957 12.3645 6.20738L14.1161 7.95738C16.1187 6.67707 18.3042 5.77254 20.6339 5.25879V2.77863C20.6341 1.24723 21.8803 0.000976562 23.4117 0.000976562H26.5863C28.1177 0.000976562 29.3639 1.24723 29.3639 2.77863V5.25863C31.6936 5.77254 33.8792 6.67691 35.8817 7.95723L37.6333 6.20645C38.6795 5.1602 40.5023 5.15629 41.5548 6.20566L43.7916 8.44473C44.317 8.96863 44.6053 9.66535 44.6053 10.4063C44.6053 11.1464 44.3155 11.8432 43.79 12.3663L42.04 14.1163C43.3203 16.1197 44.2255 18.3044 44.7402 20.6349H47.2202C48.7516 20.6349 49.9978 21.8811 49.9978 23.4125V26.5871C49.9978 28.1185 48.7516 29.3647 47.2202 29.3647H44.0767C43.4195 29.3647 42.8862 28.8314 42.8862 28.1743C42.8862 27.5171 43.4195 26.9838 44.0767 26.9838H47.2202C47.4356 26.9838 47.617 26.8024 47.617 26.5869V23.4124C47.617 23.1969 47.4356 23.0155 47.2202 23.0155H43.7605C43.1808 23.0155 42.6847 22.5971 42.587 22.025C42.1298 19.3427 41.102 16.8635 39.535 14.6577C39.1986 14.1841 39.253 13.5371 39.6636 13.1263L42.108 10.6819C42.2041 10.5858 42.2242 10.4788 42.2242 10.4052C42.2242 10.3316 42.2041 10.2238 42.108 10.1285L39.8713 7.88941C39.6759 7.69645 39.507 7.70191 39.3164 7.88863L36.872 10.3338C36.4597 10.7438 35.8133 10.798 35.3406 10.4624C33.1334 8.89535 30.6548 7.8691 27.9733 7.41191C27.4013 7.31426 26.9828 6.8191 26.9828 6.23848V2.77863C26.9828 2.56316 26.8014 2.38176 26.5859 2.38176H23.4114C23.1959 2.38176 23.0145 2.56316 23.0145 2.77863V6.2391C23.0145 6.81957 22.5961 7.31488 22.0241 7.41254C19.3425 7.86973 16.8641 8.89598 14.6567 10.463C14.1839 10.7994 13.5361 10.7444 13.1253 10.3344L10.6809 7.89004C10.4919 7.70254 10.3214 7.69707 10.1261 7.89082L7.88938 10.1283C7.79328 10.2244 7.77313 10.3322 7.77313 10.4058C7.77313 10.4794 7.79328 10.5864 7.88781 10.6818L10.3337 13.1269C10.7445 13.5377 10.7987 14.1849 10.4623 14.6583C8.89531 16.8639 7.86766 19.3433 7.41031 22.0257C7.31266 22.5977 6.81672 23.0161 6.23688 23.0161H2.77766C2.56219 23.0161 2.38078 23.1975 2.38078 23.413V26.5875C2.38078 26.803 2.56219 26.9844 2.77766 26.9844H6.23734C6.81703 26.9844 7.31312 27.4029 7.41078 27.9749C7.86797 30.6572 8.89578 33.1364 10.4628 35.3422C10.7992 35.8158 10.7448 36.4628 10.3342 36.8736L7.88984 39.318C7.79375 39.4141 7.77359 39.5211 7.77359 39.5947C7.77359 39.6683 7.79375 39.7761 7.88984 39.8714L10.1266 42.1105C10.3203 42.3035 10.4908 42.298 10.6814 42.1113L13.1258 39.6661C13.535 39.2569 14.1767 39.2004 14.6525 39.5344C15.4586 40.101 16.3203 40.6155 17.2131 41.0619C17.8022 41.3564 18.0408 42.071 17.7464 42.6593C17.4519 43.2468 16.7389 43.4885 16.1498 43.1918C15.4523 42.843 14.7719 42.4579 14.1178 42.0408L12.3647 43.7939C11.8408 44.3179 11.1447 44.6063 10.4038 44.6063Z" fill="#1CA8CB"/>
<path d="M34.4113 43.9516C35.0689 43.9516 35.602 43.4185 35.602 42.7609C35.602 42.1034 35.0689 41.5703 34.4113 41.5703C33.7538 41.5703 33.2207 42.1034 33.2207 42.7609C33.2207 43.4185 33.7538 43.9516 34.4113 43.9516Z" fill="#1CA8CB"/>
</g>
<defs>
<clipPath id="clip0_3004_10812">
<rect width="50" height="50" fill="white"/>
</clipPath>
</defs>
</svg>
