<svg width="50" height="50" viewBox="0 0 50 50" fill="none" xmlns="http://www.w3.org/2000/svg">
<g clip-path="url(#clip0_3107_12904)">
<path d="M13.334 8.33301C13.334 5.57158 11.0954 3.33301 8.33398 3.33301C5.57256 3.33301 3.33398 5.57158 3.33398 8.33301C3.33398 11.0944 5.57256 13.333 8.33398 13.333C11.0943 13.3303 13.3312 11.0933 13.334 8.33301ZM5.00065 8.33301C5.00065 6.49206 6.49304 4.99967 8.33398 4.99967C10.1749 4.99967 11.6673 6.49206 11.6673 8.33301C11.6673 10.174 10.1749 11.6663 8.33398 11.6663C7.44993 11.6663 6.60208 11.3152 5.97696 10.69C5.35184 10.0649 5.00065 9.21706 5.00065 8.33301Z" fill="#1CA8CB"/>
<path d="M41.6667 23.3333C37.1427 23.2637 33.4155 26.8679 33.3333 31.3917C33.3333 34.9417 35.6417 39.0942 37.735 42.1317C35.4683 42.7017 33.95 43.7317 33.485 45H7.5C4.27834 45 1.66667 42.3883 1.66667 39.1667C1.66667 35.945 4.27834 33.3334 7.5 33.3334H24.1667C27.3883 33.3334 30 30.7217 30 27.5C30 24.2784 27.3883 21.6667 24.1667 21.6667H16.5125C16.05 20.3983 14.5317 19.3683 12.2625 18.7983C14.3583 15.7608 16.6667 11.6083 16.6667 8.05835C16.5845 3.53461 12.8573 -0.0696305 8.33333 1.60214e-05C3.80939 -0.0696305 0.0821448 3.53461 0 8.05835C0 11.6083 2.30833 15.7608 4.40167 18.7983C1.655 19.4892 0 20.8525 0 22.5C0 24.8759 3.58333 26.6667 8.33333 26.6667C12.51 26.6667 15.7808 25.2817 16.5117 23.3333H24.1667C26.4679 23.3333 28.3333 25.1988 28.3333 27.5C28.3333 29.8012 26.4679 31.6667 24.1667 31.6667H7.5C3.35786 31.6667 2.25e-07 35.0245 2.25e-07 39.1667C2.25e-07 43.3088 3.35786 46.6667 7.5 46.6667H33.4883C34.2192 48.615 37.4883 50 41.6667 50C46.4167 50 50 48.2092 50 45.8334C50 44.1859 48.345 42.8225 45.5983 42.1317C47.6917 39.0942 50 34.9417 50 31.3917C49.9179 26.8679 46.1906 23.2637 41.6667 23.3333ZM1.66667 8.05835C1.74818 4.45484 4.72959 1.59642 8.33333 1.66668C11.9371 1.59642 14.9185 4.45484 15 8.05835C15 12.7717 10.0933 19.0992 8.33333 21.2175C6.5725 19.1 1.66667 12.7775 1.66667 8.05835ZM8.33333 25C4.26333 25 1.66667 23.52 1.66667 22.5C1.66667 21.75 3.00417 20.7608 5.46667 20.2775C5.86167 20.805 6.225 21.2717 6.54333 21.6667H5.83333C5.3731 21.6667 5 22.0398 5 22.5C5 22.9603 5.3731 23.3333 5.83333 23.3333H10.8333C11.2936 23.3333 11.6667 22.9603 11.6667 22.5C11.6667 22.0398 11.2936 21.6667 10.8333 21.6667H10.1233C10.4417 21.2717 10.805 20.805 11.2 20.2775C13.6667 20.7608 15 21.75 15 22.5C15 23.52 12.4033 25 8.33333 25ZM48.3333 45.8334C48.3333 46.8534 45.7367 48.3334 41.6667 48.3334C37.5967 48.3334 35 46.8534 35 45.8334C35 45.0834 36.3333 44.0942 38.8 43.6109C39.195 44.1384 39.5583 44.605 39.8767 45H39.1667C38.7064 45 38.3333 45.3731 38.3333 45.8334C38.3333 46.2936 38.7064 46.6667 39.1667 46.6667H44.1667C44.6269 46.6667 45 46.2936 45 45.8334C45 45.3731 44.6269 45 44.1667 45H43.4567C43.775 44.605 44.1383 44.1384 44.5333 43.6109C47 44.0942 48.3333 45.0834 48.3333 45.8334ZM41.6667 44.5508C39.9058 42.4333 35 36.1108 35 31.3917C35.1495 27.8182 38.09 24.9981 41.6667 24.9981C45.2433 24.9981 48.1838 27.8182 48.3333 31.3917C48.3333 36.105 43.4267 42.4325 41.6667 44.5508Z" fill="#1CA8CB"/>
<path d="M41.666 26.667C38.9046 26.667 36.666 28.9056 36.666 31.667C36.666 34.4284 38.9046 36.667 41.666 36.667C44.4274 36.667 46.666 34.4284 46.666 31.667C46.6633 28.9067 44.4263 26.6697 41.666 26.667ZM41.666 35.0003C39.8251 35.0003 38.3327 33.5079 38.3327 31.667C38.3327 29.826 39.8251 28.3337 41.666 28.3337C43.507 28.3337 44.9993 29.826 44.9993 31.667C44.9993 33.5079 43.507 35.0003 41.666 35.0003Z" fill="#1CA8CB"/>
</g>
<defs>
<clipPath id="clip0_3107_12904">
<rect width="50" height="50" fill="white"/>
</clipPath>
</defs>
</svg>
