<svg width="50" height="50" viewBox="0 0 50 50" fill="none" xmlns="http://www.w3.org/2000/svg">
<g clip-path="url(#clip0_3212_460)">
<path d="M46.4219 19.5047C45.5238 18.8388 44.7585 18.0104 44.1656 17.0625C43.8889 15.9212 43.8322 14.7376 43.9984 13.575C44.1328 11.3969 44.2844 8.92813 42.6781 7.325C41.0719 5.72188 38.6062 5.87187 36.4281 6.00469C35.2654 6.16992 34.0819 6.11265 32.9406 5.83594C31.9915 5.24287 31.1621 4.47702 30.4953 3.57812C29.0281 1.90156 27.3656 0 25 0C22.6344 0 20.9719 1.90156 19.5047 3.57812C18.8384 4.47585 18.0101 5.24108 17.0625 5.83437C15.9212 6.11106 14.7376 6.1678 13.575 6.00156C11.3984 5.86719 8.92969 5.71719 7.325 7.32344C5.72031 8.92969 5.86875 11.3969 6.00313 13.5734C6.16937 14.736 6.11263 15.9196 5.83594 17.0609C5.24281 18.0096 4.47695 18.8385 3.57812 19.5047C1.9 20.9719 0 22.6344 0 25C0 27.3656 1.9 29.0281 3.57812 30.4953C4.47624 31.1612 5.24155 31.9896 5.83437 32.9375C6.11111 34.0794 6.16785 35.2635 6.00156 36.4266C5.86719 38.6031 5.71562 41.0719 7.32187 42.6766C8.92812 44.2812 11.3937 44.1313 13.5719 43.9969C14.7346 43.8316 15.9181 43.8889 17.0594 44.1656C18.0078 44.7584 18.8367 45.5237 19.5031 46.4219C20.9703 48.0984 22.6281 50 24.9984 50C27.3687 50 29.0266 48.0984 30.4938 46.4219C31.1601 45.5242 31.9884 44.7589 32.9359 44.1656C34.0773 43.8889 35.2609 43.8322 36.4234 43.9984C38.6 44.1328 41.0703 44.2844 42.6734 42.6766C44.2766 41.0687 44.1297 38.6031 43.9953 36.4266C43.829 35.2635 43.8858 34.0794 44.1625 32.9375C44.7553 31.9896 45.5206 31.1612 46.4188 30.4953C48.0969 29.0281 49.9969 27.3703 49.9969 25C49.9969 22.6297 48.1 20.9719 46.4219 19.5047ZM44.3656 28.1437C43.0807 29.0958 42.0257 30.3238 41.2781 31.7375C40.7852 33.3133 40.6491 34.9791 40.8797 36.6141C40.9719 38.1328 41.0781 39.8547 40.4672 40.4641C39.8563 41.0734 38.1359 40.9656 36.6172 40.8766C34.9822 40.6466 33.3166 40.7827 31.7406 41.275C30.3272 42.023 29.0993 43.078 28.1469 44.3625C27.0641 45.6 25.9469 46.875 25 46.875C24.0531 46.875 22.9359 45.6 21.8563 44.3656C20.9038 43.0811 19.6759 42.0261 18.2625 41.2781C17.3201 40.9263 16.3178 40.7634 15.3125 40.7984C14.6719 40.7984 14.0219 40.8391 13.3781 40.8781C11.8578 40.9734 10.1391 41.0781 9.52812 40.4672C8.91719 39.8563 9.025 38.1359 9.11719 36.6188C9.34777 34.9833 9.21167 33.317 8.71875 31.7406C7.97119 30.327 6.91614 29.0989 5.63125 28.1469C4.4 27.0625 3.125 25.9469 3.125 25C3.125 24.0531 4.4 22.9375 5.63438 21.8563C6.91927 20.9042 7.97432 19.6762 8.72187 18.2625C9.21477 16.6867 9.35087 15.0209 9.12031 13.3859C9.02812 11.8641 8.92188 10.1422 9.53125 9.53125C10.1406 8.92031 11.8625 9.02812 13.3813 9.11875C15.0162 9.35052 16.6822 9.2144 18.2578 8.72031C19.6712 7.97232 20.8991 6.91734 21.8516 5.63281C22.9359 4.4 24.0531 3.125 25 3.125C25.9469 3.125 27.0641 4.4 28.1437 5.63438C29.0962 6.9189 30.3241 7.97388 31.7375 8.72187C33.3137 9.21542 34.98 9.35206 36.6156 9.12187C38.1375 9.02812 39.8547 8.92188 40.4656 9.53281C41.0766 10.1438 40.9688 11.8641 40.8766 13.3813C40.646 15.0167 40.7821 16.683 41.275 18.2594C42.0226 19.673 43.0776 20.9011 44.3625 21.8531C45.6 22.9375 46.875 24.0531 46.875 25C46.875 25.9469 45.6 27.0625 44.3656 28.1437Z" fill="#1CA8CB"/>
<path d="M23.4375 18.75C23.4375 17.8229 23.1626 16.9166 22.6475 16.1458C22.1324 15.3749 21.4004 14.7741 20.5438 14.4193C19.6873 14.0645 18.7448 13.9717 17.8355 14.1526C16.9262 14.3334 16.091 14.7799 15.4354 15.4354C14.7799 16.091 14.3334 16.9262 14.1526 17.8355C13.9717 18.7448 14.0645 19.6873 14.4193 20.5438C14.7741 21.4004 15.3749 22.1324 16.1458 22.6475C16.9166 23.1626 17.8229 23.4375 18.75 23.4375C19.9932 23.4375 21.1855 22.9436 22.0646 22.0646C22.9436 21.1855 23.4375 19.9932 23.4375 18.75ZM17.1875 18.75C17.1875 18.441 17.2791 18.1389 17.4508 17.8819C17.6225 17.625 17.8665 17.4247 18.1521 17.3064C18.4376 17.1882 18.7517 17.1572 19.0548 17.2175C19.3579 17.2778 19.6363 17.4266 19.8549 17.6451C20.0734 17.8637 20.2222 18.1421 20.2825 18.4452C20.3428 18.7483 20.3118 19.0624 20.1936 19.3479C20.0753 19.6335 19.875 19.8775 19.6181 20.0492C19.3611 20.2209 19.059 20.3125 18.75 20.3125C18.3356 20.3125 17.9382 20.1479 17.6451 19.8549C17.3521 19.5618 17.1875 19.1644 17.1875 18.75Z" fill="#1CA8CB"/>
<path d="M31.25 26.5625C30.3229 26.5625 29.4166 26.8374 28.6458 27.3525C27.8749 27.8676 27.2741 28.5996 26.9193 29.4562C26.5645 30.3127 26.4717 31.2552 26.6526 32.1645C26.8334 33.0738 27.2799 33.909 27.9354 34.5646C28.591 35.2201 29.4262 35.6666 30.3355 35.8474C31.2448 36.0283 32.1873 35.9355 33.0438 35.5807C33.9004 35.2259 34.6324 34.6251 35.1475 33.8542C35.6626 33.0834 35.9375 32.1771 35.9375 31.25C35.9375 30.0068 35.4436 28.8145 34.5646 27.9354C33.6855 27.0564 32.4932 26.5625 31.25 26.5625ZM31.25 32.8125C30.941 32.8125 30.6389 32.7209 30.3819 32.5492C30.125 32.3775 29.9247 32.1335 29.8064 31.8479C29.6882 31.5624 29.6572 31.2483 29.7175 30.9452C29.7778 30.6421 29.9266 30.3637 30.1451 30.1451C30.3637 29.9266 30.6421 29.7778 30.9452 29.7175C31.2483 29.6572 31.5624 29.6882 31.8479 29.8064C32.1335 29.9247 32.3775 30.125 32.5492 30.3819C32.7209 30.6389 32.8125 30.941 32.8125 31.25C32.8125 31.6644 32.6479 32.0618 32.3549 32.3549C32.0618 32.6479 31.6644 32.8125 31.25 32.8125Z" fill="#1CA8CB"/>
<path d="M33.8811 16.1188C33.7456 15.9657 33.5797 15.8425 33.3939 15.757C33.2082 15.6715 33.0067 15.6257 32.8023 15.6223C32.5979 15.6189 32.395 15.6581 32.2065 15.7374C32.0181 15.8167 31.8482 15.9343 31.7077 16.0828L16.0827 31.7078C14.6842 33.1063 16.8639 35.35 18.292 33.9172L33.917 18.2922C34.0641 18.1508 34.1804 17.9807 34.2587 17.7924C34.3371 17.604 34.3758 17.4016 34.3724 17.1976C34.369 16.9937 34.3237 16.7927 34.2391 16.607C34.1546 16.4214 34.0327 16.2552 33.8811 16.1188Z" fill="#1CA8CB"/>
</g>
<defs>
<clipPath id="clip0_3212_460">
<rect width="50" height="50" fill="white"/>
</clipPath>
</defs>
</svg>
