<svg width="40" height="50" viewBox="0 0 40 50" fill="none" xmlns="http://www.w3.org/2000/svg">
<path fill-rule="evenodd" clip-rule="evenodd" d="M11.4882 38.6578C9.52006 37.8547 7.26574 38.8028 6.46261 40.7707C6.07354 41.7241 6.07909 42.772 6.47818 43.7212C6.87726 44.6704 7.62209 45.4074 8.57544 45.7964C9.04581 45.9884 9.53899 46.0842 10.0321 46.0842C10.5385 46.0842 11.0449 45.9829 11.5258 45.7808C12.4751 45.3817 13.2121 44.6368 13.601 43.6835C14.404 41.7154 13.4562 39.4609 11.4882 38.6578ZM12.3158 43.1591C12.0669 43.7692 11.5953 44.2458 10.9879 44.5011C10.3804 44.7565 9.70993 44.7599 9.09985 44.5111C8.48977 44.2622 8.01315 43.7906 7.75773 43.1832C7.50232 42.5758 7.49885 41.9052 7.74772 41.2951C8.13758 40.3398 9.06158 39.7603 10.0349 39.7603C10.3447 39.7603 10.6596 39.8191 10.9637 39.9432C12.2231 40.457 12.8296 41.8997 12.3158 43.1591ZM37.8322 0.510742H2.16756C0.972381 0.510742 0 1.48312 0 2.6783V22.8396C0 24.0349 0.972381 25.0072 2.16756 25.0072H13.3338L15.9302 32.0476L14.1832 36.3228C13.7441 36.0209 13.1984 35.675 12.7757 35.5025C10.9795 34.7695 9.00546 34.7801 7.21706 35.5319C5.42876 36.2838 4.04014 37.687 3.30731 39.4833C2.57438 41.2795 2.58479 43.2536 3.33666 45.042C4.08852 46.8303 5.49182 48.2188 7.28805 48.9518C8.18359 49.3172 9.11036 49.4902 10.0228 49.4902C12.8879 49.4902 15.609 47.7835 16.7565 44.9711C16.7601 44.9624 16.7635 44.9535 16.7668 44.9446L19.9747 36.0634L23.2625 44.8728C23.2658 44.8817 23.2692 44.8905 23.2729 44.8992C24.4397 47.6748 27.1401 49.3474 29.9778 49.3472C30.9145 49.3471 31.8667 49.1647 32.7829 48.7796C36.4747 47.2275 38.2154 42.9613 36.6633 39.2696C35.9115 37.4812 34.5082 36.0926 32.7121 35.3597C30.9157 34.6267 28.9417 34.6372 27.1534 35.3891C26.7322 35.5661 26.1904 35.9176 25.7547 36.2242L23.9773 32.0025L26.4733 25.0072H37.8324C39.0276 25.0072 40 24.0348 40 22.8396V2.6783C39.9998 1.48302 39.0274 0.510742 37.8322 0.510742ZM15.466 44.4593C14.2377 47.45 10.8074 48.8887 7.81237 47.6665C4.81302 46.4427 3.36868 43.007 4.59241 40.0077C5.18524 38.5549 6.30843 37.4197 7.75496 36.8116C9.20148 36.2033 10.7983 36.1948 12.2513 36.7879C12.746 36.9897 13.6568 37.6384 14.0692 37.9533C14.3639 38.1783 14.7847 38.133 15.0232 37.849C15.0695 37.7939 15.107 37.7318 15.1342 37.6652L16.7375 33.7416L18.8896 34.9813L15.466 44.4593ZM24.9283 37.7564C25.1693 38.0401 25.5923 38.0821 25.8855 37.8534C26.2944 37.5343 27.198 36.8761 27.6912 36.6688C29.1377 36.0605 30.7346 36.0522 32.1874 36.645C33.6403 37.2378 34.7754 38.361 35.3836 39.8076C36.639 42.7937 35.2309 46.2446 32.2448 47.5C29.2629 48.7537 25.8176 47.3514 24.5578 44.374L20.9705 34.7618C20.9141 34.6106 20.8066 34.4836 20.6667 34.4031L17.634 32.656L10.8652 14.3015C10.0678 12.139 10.8498 9.80086 12.6501 8.67629L24.8177 37.5764C24.8451 37.6418 24.8825 37.7024 24.9283 37.7564ZM18.7204 19.5171C19.1393 19.596 19.5662 19.6378 19.9999 19.6378C23.7929 19.6378 26.8787 16.552 26.8787 12.759C26.8787 8.96601 23.7929 5.88021 19.9999 5.88021C17.6781 5.88021 15.5306 7.06913 14.2721 8.95153L13.6386 7.4469C13.4899 7.09372 13.0832 6.92794 12.73 7.07637C9.81295 8.30278 8.42175 11.6873 9.56289 14.7816L11.7209 20.6335H7.86006C7.76487 18.7542 6.25301 17.2424 4.37358 17.1471V8.3709C6.25301 8.27561 7.76477 6.76385 7.86006 4.88443H32.1397C32.2349 6.76385 33.7468 8.27561 35.6262 8.3709V17.1471C33.7468 17.2424 32.235 18.7542 32.1397 20.6335H19.1904L18.7204 19.5171ZM14.9585 10.5819C15.821 8.58953 17.8133 7.26833 19.9999 7.26833C23.0275 7.26833 25.4905 9.73146 25.4905 12.759C25.4905 15.7866 23.0274 18.2497 19.9999 18.2497C19.3201 18.2497 18.6602 18.1276 18.0342 17.8872L14.9585 10.5819ZM23.1793 30.1078L21.0319 25.0073H24.9993L23.1793 30.1078ZM38.6117 22.8396C38.6117 23.2694 38.2621 23.619 37.8322 23.619H20.4475L19.7749 22.0216H32.8291C33.2125 22.0216 33.5232 21.7109 33.5232 21.3276V20.8219C33.5232 19.5584 34.5512 18.5305 35.8147 18.5305H36.3204C36.7037 18.5305 37.0144 18.2197 37.0144 17.8364V7.6816C37.0144 7.29827 36.7037 6.98753 36.3204 6.98753H35.8147C34.5512 6.98753 33.5232 5.95953 33.5232 4.69604V4.19036C33.5232 3.80704 33.2125 3.4963 32.8291 3.4963H7.17075C6.78743 3.4963 6.47669 3.80704 6.47669 4.19036V4.69604C6.47669 5.95953 5.44869 6.98753 4.1852 6.98753H3.67952C3.2962 6.98753 2.98546 7.29827 2.98546 7.6816V17.8364C2.98546 18.2197 3.2962 18.5305 3.67952 18.5305H4.1852C5.44869 18.5305 6.47669 19.5584 6.47669 20.8219V21.3276C6.47669 21.7109 6.78743 22.0216 7.17075 22.0216H12.2328L12.8219 23.619H2.16756C1.73773 23.619 1.38812 23.2694 1.38812 22.8396V2.6783C1.38812 2.24848 1.73773 1.89887 2.16756 1.89887H37.8322C38.2621 1.89887 38.6117 2.24848 38.6117 2.6783V22.8396ZM28.5116 45.6535C28.9819 45.8455 29.4751 45.9413 29.9682 45.9413C30.4747 45.9413 30.981 45.84 31.4619 45.6379C33.4214 44.814 34.3453 42.5497 33.5215 40.5903C33.1225 39.6411 32.3776 38.9041 31.4243 38.515C30.4709 38.1259 29.4231 38.1316 28.4739 38.5306C27.5247 38.9297 26.7877 39.6745 26.3988 40.6278C26.0098 41.5812 26.0152 42.629 26.4143 43.5782C26.8134 44.5274 27.5582 45.2646 28.5116 45.6535ZM27.684 41.1524C27.9329 40.5423 28.4045 40.0656 29.0119 39.8103C29.6193 39.5549 30.2899 39.5513 30.9 39.8003C31.51 40.0492 31.9867 40.5209 32.2421 41.1283C32.7692 42.3821 32.178 43.8311 30.9241 44.3582C30.3168 44.6137 29.6463 44.6172 29.0361 44.3683C28.426 44.1194 27.9494 43.6477 27.694 43.0403C27.4386 42.4329 27.4351 41.7625 27.684 41.1524ZM20.0173 16.9181C19.6417 16.9181 19.3328 16.6183 19.3237 16.2408L19.3191 16.0496C18.871 15.9135 18.5578 15.6502 18.274 15.3824C17.9952 15.1194 17.9824 14.6801 18.2454 14.4012C18.5084 14.1224 18.9477 14.1095 19.2266 14.3727C19.5614 14.6886 19.6987 14.7567 19.9999 14.7567C20.4333 14.7567 20.7994 14.4638 20.7994 14.117C20.7994 13.7704 20.4333 13.4775 19.9999 13.4775C18.7936 13.4775 17.8123 12.5678 17.8123 11.4498C17.8123 10.5607 18.4329 9.80344 19.2935 9.53048L19.2883 9.31046C19.2792 8.92734 19.5824 8.60926 19.9656 8.60004C20.3492 8.59458 20.6669 8.89402 20.6761 9.27734L20.682 9.52205C20.9921 9.61595 21.2776 9.77409 21.5183 9.98896C21.8043 10.2442 21.8292 10.6829 21.5739 10.969C21.3187 11.2549 20.8799 11.2799 20.5939 11.0245C20.439 10.8863 20.2282 10.8102 20 10.8102C19.5667 10.8102 19.2005 11.1031 19.2005 11.4499C19.2005 11.7966 19.5666 12.0895 20 12.0895C21.2063 12.0895 22.1876 12.9991 22.1876 14.1171C22.1876 15.0059 21.5676 15.763 20.7074 16.0361L20.7116 16.2074C20.7208 16.5906 20.4177 16.9087 20.0345 16.918C20.0288 16.918 20.0229 16.9181 20.0173 16.9181ZM18.7658 31.1028C18.8379 30.5316 19.3595 30.127 19.9307 30.1992C20.5019 30.2713 20.9065 30.7929 20.8344 31.3641C20.7623 31.9353 20.2406 32.3399 19.6695 32.2678C19.0982 32.1956 18.6937 31.674 18.7658 31.1028Z" fill="white"/>
</svg>
