<svg width="34" height="34" viewBox="0 0 34 34" fill="none" xmlns="http://www.w3.org/2000/svg">
<path d="M6.94149 25.3859L1.98713 21.489C1.71649 21.2854 1.62788 20.926 1.79032 20.6908C2.58439 19.5408 4.11408 19.148 5.61707 19.7083L10.0978 22.25L6.94149 25.3859Z" fill="#42A8C3"/>
<path d="M8.60449 27.0485L12.5116 32.0131C12.7152 32.2837 13.0745 32.3723 13.3098 32.2099L13.6051 32.0059C14.5779 31.3343 14.91 30.0404 14.4362 28.7691L11.7506 23.9023L8.60449 27.0485Z" fill="#42A8C3"/>
<path d="M7.22988 20.623L4.42676 23.408L6.94082 25.3855L10.0972 22.2495L7.22988 20.623Z" fill="#219FC0"/>
<path d="M8.28296 10.123C7.66076 9.5008 7.61154 8.5094 8.1674 7.8273C8.96246 6.85165 9.95855 5.76526 10.5561 5.16773C11.3735 4.35029 11.4449 4.44794 12.3183 3.91259C12.4469 3.83375 12.6128 3.85276 12.7195 3.9594L14.4466 5.68655C14.5533 5.79319 14.5722 5.95914 14.4934 6.08772C13.9581 6.96109 14.0558 7.03244 13.2383 7.84989C12.6408 8.44742 11.5544 9.44351 10.5787 10.2386C9.89657 10.7944 8.9051 10.7452 8.28296 10.123Z" fill="#FFBFAB"/>
<path d="M23.8757 25.7158C23.2535 25.0936 23.2043 24.1022 23.7602 23.4201C24.5552 22.4444 25.5513 21.358 26.1488 20.7605C26.9663 19.9431 27.0376 20.0407 27.9111 19.5054C28.0397 19.4265 28.2056 19.4455 28.3123 19.5522L30.0394 21.2793C30.146 21.386 30.165 21.5519 30.0862 21.6805C29.5509 22.5539 29.6485 22.6252 28.8311 23.4427C28.2335 24.0403 27.1472 25.0364 26.1715 25.8314C25.4893 26.3872 24.4979 26.338 23.8757 25.7158Z" fill="#FFBFAB"/>
<path d="M16.0831 16.0125L22.1956 9.90011L3.26056 3.95089C2.87065 3.85135 2.48302 3.94614 2.22508 4.20408L0.625339 5.80382C0.089597 6.33956 0.319545 7.32166 1.07586 7.72778L16.0831 16.0125Z" fill="#42A8C3"/>
<path d="M17.9167 8.55664L12.46 14.0134L16.0827 16.0133L22.1951 9.90085L17.9167 8.55664Z" fill="#219FC0"/>
<path d="M17.9863 17.9161L24.0988 11.8037L30.048 30.7387C30.1475 31.1286 30.0527 31.5163 29.7948 31.7742L28.195 33.374C27.6593 33.9097 26.6772 33.6798 26.2711 32.9234L17.9863 17.9161Z" fill="#42A8C3"/>
<path d="M29.5242 9.23424L19.2555 19.5029C17.5324 21.226 15.7006 22.8331 13.7827 24.3044L8.89704 28.0523C7.76599 28.92 6.4208 29.0249 5.69782 28.302C4.97484 27.579 5.07979 26.2338 5.9475 25.1027L9.69542 20.2171C11.1666 18.2992 12.7737 16.4674 14.4969 14.7443L24.7656 4.47565C26.1694 3.07187 27.7816 1.90228 29.4848 1.09928C30.9516 0.407811 32.5106 -0.0253924 33.2679 0.731899C34.0252 1.48919 33.592 3.04824 32.9005 4.51497C32.0976 6.21829 30.928 7.83047 29.5242 9.23424Z" fill="#E0F3FC"/>
<path d="M33.2676 0.732292C33.0011 0.465755 32.6349 0.347135 32.2087 0.334961C32.2394 1.12363 31.8974 2.12389 31.4444 3.08457C30.6415 4.78776 29.4719 6.4 28.0681 7.80377L17.7994 18.0725C16.0764 19.7955 14.2445 21.4027 12.3267 22.8738L7.44101 26.6217C6.72161 27.1736 5.91575 27.4164 5.23828 27.3344C5.28919 27.7103 5.44095 28.0456 5.69759 28.3022C6.42057 29.0252 7.76575 28.9202 8.89681 28.0525L13.7825 24.3046C15.7003 22.8334 17.5321 21.2263 19.2552 19.5032L29.5239 9.23457C30.9277 7.83079 32.0973 6.21855 32.9003 4.51536C33.5917 3.04863 34.0249 1.48958 33.2676 0.732292Z" fill="#C3D3DB"/>
<path d="M30.3744 7.26822L30.0238 7.61887C29.6981 7.94452 26.0553 4.30168 26.3809 3.97603L26.7316 3.62538C26.9526 3.40435 27.277 3.33469 27.5412 3.45155C28.8576 4.03384 29.966 5.14231 30.5483 6.45865C30.665 6.72277 30.5955 7.04719 30.3744 7.26822Z" fill="#51C4F5"/>
<path d="M6.80662 27.681C6.68169 27.681 6.55669 27.6334 6.46138 27.538C6.27069 27.3473 6.27069 27.0381 6.46138 26.8475L10.7254 22.5834C10.9161 22.3928 11.2253 22.3928 11.4159 22.5834C11.6066 22.7741 11.6066 23.0833 11.4159 23.2739L7.15187 27.538C7.05656 27.6333 6.93162 27.681 6.80662 27.681Z" fill="#42A8C3" fill-opacity="0.92"/>
</svg>
