<svg width="40" height="42" viewBox="0 0 40 42" fill="none" xmlns="http://www.w3.org/2000/svg">
<path d="M5.62402 22.0314C5.62402 29.2797 11.5601 35.4032 18.9958 35.4032C26.4315 35.4032 32.3676 29.2797 32.3676 22.0314C32.3676 14.7207 26.4315 8.65965 18.9958 8.65965C11.6226 8.59717 5.62402 14.7207 5.62402 22.0314ZM15.3717 10.4092C14.3719 11.534 13.4971 13.0336 12.8723 14.9081H9.12318C10.6853 12.8461 12.8723 11.2215 15.3717 10.4092ZM8.37336 16.2203H12.5599C12.1849 17.7825 11.935 19.532 11.8725 21.4066H6.93621C6.99869 19.4695 7.49857 17.72 8.37336 16.2203ZM6.87372 22.5938H11.8725C11.935 24.4683 12.1225 26.2179 12.5599 27.78H8.37336C7.49857 26.2179 6.99869 24.4683 6.87372 22.5938ZM9.12318 29.0297H12.8723C13.4971 30.9043 14.3719 32.4664 15.3717 33.5911C12.8098 32.7788 10.6228 31.1542 9.12318 29.0297ZM18.371 34.091C16.6839 33.7161 15.1842 31.7791 14.1845 29.0297H18.371V34.091ZM18.371 27.78H13.8096C13.3722 26.2179 13.1222 24.4683 13.0597 22.5938H18.371V27.78ZM18.371 21.3441H13.1222C13.1847 19.4695 13.4346 17.72 13.872 16.1578H18.4334V21.3441H18.371ZM18.371 14.9706H14.2469C15.2467 12.2838 16.6839 10.3467 18.371 9.97184V14.9706ZM22.6199 33.5911C23.6197 32.4664 24.4945 30.9043 25.1193 29.0297H28.8684C27.3688 31.1542 25.1818 32.7788 22.6199 33.5911ZM29.6807 27.78H25.4942C25.8691 26.2179 26.1191 24.4683 26.1816 22.5938H31.1179C31.0554 24.4683 30.5555 26.2179 29.6807 27.78ZM31.1179 21.3441H26.1816C26.1191 19.4695 25.8691 17.72 25.4942 16.1578H29.6807C30.493 17.72 30.9929 19.4695 31.1179 21.3441ZM28.8684 14.9706H25.1193C24.4945 13.0961 23.6822 11.534 22.6199 10.4717C25.1818 11.2215 27.3688 12.8461 28.8684 14.9706ZM19.6206 9.97184C21.3077 10.3467 22.8074 12.2838 23.7447 14.9706H19.6206V9.97184ZM19.6206 16.2203H24.1821C24.6194 17.7825 24.8694 19.532 24.9319 21.4066H19.6831V16.2203H19.6206ZM19.6206 22.5938H24.9319C24.8694 24.4683 24.6194 26.2179 24.1821 27.78H19.6206V22.5938ZM19.6206 29.0297H23.8071C22.8074 31.7791 21.3077 33.7161 19.6206 34.091V29.0297Z" fill="white"/>
<path d="M36.9286 17.7816C36.6162 17.8441 36.3662 18.1565 36.4287 18.5314C36.6787 19.6561 36.7411 20.8433 36.7411 21.9681C36.8036 31.7782 28.8056 39.7763 18.9954 39.7763C9.18529 39.7763 1.2497 31.7782 1.2497 22.0306C1.2497 12.2204 9.24777 4.22236 18.9954 4.22236C20.6825 4.22236 22.3071 4.47229 23.8692 4.90969C24.1817 5.03466 24.5566 4.78472 24.6191 4.47229C24.744 4.15987 24.4941 3.78496 24.1817 3.72248C22.4946 3.2226 20.745 2.97266 18.9329 2.97266C8.56044 2.97266 0 11.5331 0 22.0306C0 32.4655 8.56044 41.026 18.9954 41.026C29.4304 41.026 37.9908 32.4655 37.9908 22.0306C37.9908 20.7809 37.8659 19.5312 37.6159 18.344C37.6159 17.969 37.241 17.7191 36.9286 17.7816Z" fill="white"/>
<path d="M39.4901 9.65904L35.4911 8.84674L31.2421 4.66024L37.7405 5.34758C38.1154 5.34758 38.3654 5.16012 38.4278 4.78521C38.4903 4.47279 38.2404 4.16036 37.8655 4.09788L29.8674 3.22309L27.8054 1.16109C27.5555 0.911148 27.1806 0.911148 26.9306 1.16109C26.6807 1.41103 26.6807 1.78594 26.9306 2.03588L28.9926 4.16036L29.8049 12.1584C29.8674 12.4709 30.1174 12.7208 30.4923 12.7208C30.8047 12.6583 31.0546 12.4084 31.0546 12.0335L30.3673 5.53503L34.5538 9.72152L35.3661 13.7206C35.4286 14.033 35.741 14.2829 36.1159 14.2204C36.4283 14.158 36.6783 13.8455 36.6158 13.4706L36.1784 11.2836L36.9282 12.0335C37.1781 12.2834 37.5531 12.2834 37.803 12.0335C38.0529 11.7835 38.0529 11.4086 37.803 11.1587L37.0532 10.4089L39.2402 10.8463C39.5526 10.9087 39.9275 10.7213 39.99 10.3464C40.0525 10.0964 39.8025 9.78401 39.4901 9.65904Z" fill="white"/>
</svg>
