<svg width="50" height="50" viewBox="0 0 50 50" fill="none" xmlns="http://www.w3.org/2000/svg">
<path d="M2.08398 10.417V38.542C2.08398 42.5691 12.3441 45.8337 25.0007 45.8337C37.6572 45.8337 47.9173 42.5691 47.9173 38.542V10.417" stroke="#1CA8CB" stroke-width="2" stroke-linecap="round" stroke-linejoin="round"/>
<path d="M12.627 40.625L25.127 31.25L34.3145 38.1406" stroke="#1CA8CB" stroke-width="2" stroke-linecap="round" stroke-linejoin="round"/>
<path d="M16.7936 30.2083C19.0948 30.2083 20.9603 28.3429 20.9603 26.0417C20.9603 23.7405 19.0948 21.875 16.7936 21.875C14.4924 21.875 12.627 23.7405 12.627 26.0417C12.627 28.3429 14.4924 30.2083 16.7936 30.2083Z" stroke="#1CA8CB" stroke-width="2" stroke-linecap="round" stroke-linejoin="round"/>
<path d="M29.293 34.375L37.6263 28.125L41.6659 31.1552" stroke="#1CA8CB" stroke-width="2" stroke-linecap="round" stroke-linejoin="round"/>
<path d="M12.5007 16.146V4.30664C6.23126 5.60783 2.08398 7.85755 2.08398 10.4168C2.08398 14.4439 12.3441 17.7085 25.0007 17.7085C37.6572 17.7085 47.9173 14.4439 47.9173 10.4168C47.9173 7.85755 43.7701 5.60783 37.5007 4.30664V16.146" stroke="#1CA8CB" stroke-width="2" stroke-linecap="round" stroke-linejoin="round"/>
</svg>
