<svg width="50" height="50" viewBox="0 0 50 50" fill="none" xmlns="http://www.w3.org/2000/svg">
<path d="M46.4887 21.7994C46.2973 16.3455 44.0887 11.2455 40.2105 7.36738C36.1457 3.30176 30.7434 1.06348 24.9996 1.06348C13.3988 1.06348 3.91992 10.2971 3.51133 21.7994C1.74102 22.5861 0.501953 24.358 0.501953 26.4174V32.0908C0.501953 34.8768 2.76836 37.1439 5.55508 37.1439C7.3582 37.1439 8.82461 35.6775 8.82461 33.8744V24.633C8.82461 22.94 7.52617 21.5596 5.87539 21.3955C6.48477 11.3744 14.827 3.40723 24.9996 3.40723C30.1184 3.40723 34.9316 5.40254 38.5543 9.0252C41.8809 12.3518 43.8277 16.6877 44.1207 21.3963C42.4715 21.5619 41.1754 22.9416 41.1754 24.633V33.8736C41.1754 35.5807 42.4941 36.9697 44.1645 37.1143V39.4494C44.1645 42.0791 42.0246 44.2182 39.3949 44.2182H35.8629C35.6894 43.7229 35.4176 43.265 35.0363 42.8854C34.3684 42.2143 33.4777 41.8447 32.5293 41.8447H28.8887C28.366 41.8447 27.8645 41.9557 27.4051 42.1697C26.152 42.7455 25.3426 44.0096 25.3426 45.39C25.3426 46.3385 25.7121 47.2291 26.3816 47.8955C27.0512 48.5666 27.9418 48.9361 28.8887 48.9361H32.5293C34.0387 48.9361 35.3691 47.9604 35.8652 46.5619H39.3949C43.3176 46.5619 46.5082 43.3713 46.5082 39.4494V36.6971C48.2676 35.9057 49.4973 34.14 49.4973 32.0893V26.4158C49.4973 24.358 48.2582 22.5861 46.4887 21.7994ZM6.48008 24.633V33.8736C6.48008 34.3838 6.06523 34.7994 5.5543 34.7994C4.06055 34.7994 2.84492 33.5838 2.84492 32.09V26.4166C2.84492 24.9221 4.06055 23.7072 5.5543 23.7072C6.06523 23.7072 6.48008 24.1229 6.48008 24.633ZM33.7051 45.6416C33.5887 46.1932 33.0934 46.5939 32.5285 46.5939H28.8879C28.5676 46.5939 28.2668 46.4689 28.0371 46.2393C27.8105 46.0135 27.6855 45.7119 27.6855 45.3916C27.6855 44.9236 27.9598 44.4963 28.3895 44.2986C28.5426 44.2268 28.7105 44.19 28.8879 44.19H32.5285C32.8488 44.19 33.1496 44.3143 33.3785 44.5439C33.6051 44.7697 33.7301 45.0713 33.7301 45.3916C33.7309 45.4775 33.7215 45.5635 33.7051 45.6416ZM47.1535 32.09C47.1535 33.5838 45.9379 34.7994 44.4441 34.7994C43.934 34.7994 43.5184 34.3846 43.5184 33.8736V24.633C43.5184 24.1229 43.9332 23.7072 44.4441 23.7072C45.9379 23.7072 47.1535 24.9229 47.1535 26.4166V32.09Z" fill="#1CA8CB"/>
<path d="M32.5875 32.4936C35.3258 32.4936 37.5531 30.2654 37.5531 27.5279V17.41C37.5531 16.0865 37.0359 14.8396 36.0969 13.9006C35.1578 12.9615 33.9117 12.4443 32.5875 12.4443H17.4109C14.6727 12.4443 12.4453 14.6717 12.4453 17.41V27.5279C12.4453 30.2662 14.6727 32.4936 17.4109 32.4936H17.5039V35.1154C17.5039 36.1154 18.1 37.0029 19.0219 37.3771C19.3195 37.4967 19.6289 37.5561 19.9352 37.5561C20.5734 37.5561 21.1953 37.3029 21.6508 36.8318L26.0125 32.4936H32.5875ZM24.7039 30.4904L19.9836 35.185C19.9625 35.2068 19.9469 35.2232 19.9023 35.2037C19.8484 35.1818 19.8484 35.1467 19.8484 35.1154V31.3217C19.8484 30.6748 19.3242 30.1498 18.6766 30.1498H17.4117C15.9656 30.1498 14.7898 28.9732 14.7898 27.5279V17.41C14.7898 15.9639 15.9656 14.7881 17.4117 14.7881H32.5883C33.2867 14.7881 33.9438 15.0615 34.4406 15.5576C34.9375 16.0545 35.2102 16.7123 35.2102 17.41V27.5279C35.2102 28.974 34.0336 30.1498 32.5883 30.1498H25.5305C25.2203 30.1498 24.9234 30.2725 24.7039 30.4904Z" fill="#1CA8CB"/>
<path d="M19.307 20.9277C18.3539 20.9277 17.5781 21.7043 17.5781 22.6566C17.5781 23.609 18.3547 24.3855 19.307 24.3855C20.2609 24.3855 21.0375 23.609 21.0375 22.6566C21.0375 21.7043 20.2617 20.9277 19.307 20.9277Z" fill="#1CA8CB"/>
<path d="M24.9984 20.9277C24.0453 20.9277 23.2695 21.7043 23.2695 22.6566C23.2695 23.609 24.0461 24.3855 24.9984 24.3855C25.9531 24.3855 26.7289 23.609 26.7289 22.6566C26.7289 21.7043 25.9531 20.9277 24.9984 20.9277Z" fill="#1CA8CB"/>
<path d="M30.6918 20.9277C29.7387 20.9277 28.9629 21.7043 28.9629 22.6566C28.9629 23.609 29.7395 24.3855 30.6918 24.3855C31.6457 24.3855 32.4223 23.609 32.4223 22.6566C32.4223 21.7043 31.6457 20.9277 30.6918 20.9277Z" fill="#1CA8CB"/>
</svg>
