<svg width="50" height="50" viewBox="0 0 50 50" fill="none" xmlns="http://www.w3.org/2000/svg">
<g clip-path="url(#clip0_3107_12894)">
<path d="M47.4794 30.8334C47.2864 25.4828 45.1894 20.3769 41.566 16.4352C37.9425 12.4935 33.0307 9.97505 27.7152 9.33344C29.566 7.50011 30.8327 6.01177 30.8327 3.96677C30.8327 0.237606 27.1785 -1.22656 24.9994 1.15594C22.8194 -1.22739 19.166 0.239272 19.166 3.96677C19.166 6.01261 20.4335 7.50011 22.2852 9.33344C16.9742 9.98623 12.0689 12.508 8.44743 16.4473C4.82599 20.3867 2.72487 25.4864 2.5202 30.8334C2.1919 30.8321 1.86654 30.8954 1.5627 31.0198C1.25886 31.1441 0.9825 31.3271 0.749386 31.5583C0.516272 31.7895 0.330975 32.0643 0.204075 32.3671C0.0771742 32.6699 0.0111553 32.9947 0.00978733 33.323C0.00841939 33.6513 0.0717293 33.9767 0.196102 34.2805C0.320475 34.5844 0.503475 34.8607 0.734655 35.0938C0.965834 35.327 1.24066 35.5123 1.54346 35.6392C1.84625 35.7661 2.17107 35.8321 2.49937 35.8334H3.3327C2.8327 36.2351 2.61854 36.4243 1.0827 37.8334C0.824212 38.0671 0.646124 38.3765 0.573845 38.7174C0.501567 39.0583 0.53879 39.4133 0.680204 39.7318L4.5527 49.0293C4.66718 49.2785 4.84139 49.4957 5.05989 49.6614C5.2784 49.8272 5.53443 49.9365 5.8053 49.9796C6.07616 50.0227 6.35348 49.9983 6.61265 49.9086C6.87182 49.8188 7.10484 49.6665 7.29104 49.4651C10.3785 46.1318 9.79937 46.7668 10.1244 46.3726C10.4852 45.9284 11.2385 45.0001 11.6894 45.0001H25.4394C26.398 44.9643 27.3125 44.5879 28.0185 43.9384L36.5719 35.8334H47.4994C47.8277 35.8321 48.1525 35.7662 48.4553 35.6393C48.7581 35.5125 49.033 35.3272 49.2642 35.0941C49.4954 34.8611 49.6785 34.5847 49.8029 34.2809C49.9273 33.9771 49.9907 33.6517 49.9894 33.3234C49.9881 32.9951 49.9221 32.6703 49.7952 32.3675C49.6684 32.0647 49.4831 31.7898 49.2501 31.5586C49.017 31.3274 48.7407 31.1443 48.4368 31.0199C48.133 30.8955 47.8077 30.8321 47.4794 30.8334ZM24.281 8.95761C22.1319 6.86511 20.8327 5.60344 20.8327 3.96677C20.8327 2.85177 21.416 1.66677 22.4994 1.66677C22.877 1.70941 23.2365 1.85164 23.541 2.0789C23.8456 2.30615 24.0843 2.61027 24.2327 2.96011C24.2966 3.1099 24.403 3.23769 24.5387 3.32767C24.6745 3.41766 24.8336 3.4659 24.9965 3.46643C25.1593 3.46696 25.3188 3.41976 25.4551 3.33066C25.5914 3.24157 25.6987 3.11448 25.7635 2.96511C25.9117 2.61419 26.1506 2.30901 26.4556 2.08085C26.7607 1.8527 27.1209 1.70979 27.4994 1.66677C28.5827 1.66677 29.166 2.85177 29.166 3.96677C29.166 5.81927 27.3235 7.39344 25.4902 9.17844C25.3235 9.17844 25.1635 9.16677 24.9994 9.16677C24.3952 9.16677 24.5877 9.25594 24.281 8.95761ZM24.9994 10.8334C30.381 10.8304 35.5548 12.9115 39.4352 16.6404C43.3157 20.3692 45.6014 25.4559 45.8127 30.8334H4.18687C4.40758 25.4593 6.69604 20.3782 10.5743 16.6513C14.4525 12.9245 19.6207 10.8401 24.9994 10.8334ZM26.8869 42.7176C26.4823 43.0864 25.9627 43.304 25.416 43.3334H11.6894C10.446 43.3334 9.51104 44.4826 8.82854 45.3209L6.0827 48.3609L2.21104 39.0609C3.42814 37.8162 4.7989 36.7316 6.2902 35.8334H25.0994C25.3537 35.8906 25.5853 36.0221 25.7648 36.2111C25.9444 36.4001 26.0637 36.6382 26.1077 36.8951C26.1012 37.2768 25.9457 37.6409 25.6745 37.9096C25.4033 38.1784 25.0378 38.3305 24.656 38.3334H16.2644C16.0434 38.3334 15.8314 38.4212 15.6751 38.5775C15.5188 38.7338 15.431 38.9458 15.431 39.1668C15.431 39.3878 15.5188 39.5998 15.6751 39.756C15.8314 39.9123 16.0434 40.0001 16.2644 40.0001H24.656C26.7927 40.0001 28.4402 37.7568 27.511 35.8334H34.1485L26.8869 42.7176ZM47.4994 34.1668H2.49937C2.27836 34.1668 2.0664 34.079 1.91012 33.9227C1.75383 33.7664 1.66604 33.5545 1.66604 33.3334C1.66604 33.1124 1.75383 32.9005 1.91012 32.7442C2.0664 32.5879 2.27836 32.5001 2.49937 32.5001H47.4994C47.7204 32.5001 47.9324 32.5879 48.0886 32.7442C48.2449 32.9005 48.3327 33.1124 48.3327 33.3334C48.3327 33.5545 48.2449 33.7664 48.0886 33.9227C47.9324 34.079 47.7204 34.1668 47.4994 34.1668Z" fill="#1CA8CB"/>
<path d="M19.7205 13.9089C16.975 14.7762 14.4862 16.308 12.475 18.3682C10.4637 20.4284 8.9923 22.9534 8.19129 25.7189C8.16075 25.824 8.15122 25.9341 8.16324 26.0429C8.17526 26.1517 8.20859 26.2571 8.26132 26.353C8.31406 26.4489 8.38517 26.5335 8.4706 26.6019C8.55602 26.6703 8.65409 26.7213 8.7592 26.7518C8.86432 26.7823 8.97441 26.7919 9.08321 26.7799C9.192 26.7678 9.29737 26.7345 9.39328 26.6818C9.4892 26.629 9.57379 26.5579 9.64222 26.4725C9.71065 26.3871 9.76159 26.289 9.79212 26.1839C10.5173 23.682 11.8488 21.3979 13.6686 19.5341C15.4883 17.6703 17.74 16.2845 20.2238 15.4997C20.4259 15.4266 20.5919 15.2782 20.6871 15.0855C20.7824 14.8929 20.7996 14.6709 20.735 14.4659C20.6705 14.2609 20.5293 14.0888 20.3408 13.9855C20.1524 13.8821 19.9313 13.8556 19.7238 13.9114L19.7205 13.9089Z" fill="#1CA8CB"/>
</g>
<defs>
<clipPath id="clip0_3107_12894">
<rect width="50" height="50" fill="white"/>
</clipPath>
</defs>
</svg>
