<svg width="50" height="50" viewBox="0 0 50 50" fill="none" xmlns="http://www.w3.org/2000/svg">
<path d="M48.7229 28.464C48.2621 27.6945 46.3705 25.4102 41.3773 28.3182L32.5731 33.4461C32.1317 33.7031 31.6829 33.8848 31.2143 33.9931C31.388 33.7146 31.5239 33.3998 31.6173 33.0512C32.0674 31.3714 31.0689 29.6177 29.3443 29.0585C29.3108 29.0477 29.2767 29.0392 29.2421 29.0328C26.7116 28.5764 24.2141 27.6734 22.2073 26.9479C21.5102 26.6959 20.8519 26.4578 20.292 26.2763C18.0379 25.5453 16.0003 26.4504 14.3044 27.4323L7.75427 31.2247L7.13669 30.1335C6.57243 29.1365 5.30241 28.7844 4.30534 29.3487L1.83503 30.7467C0.838152 31.3109 0.486199 32.5811 1.05026 33.5779L8.31276 46.4103C8.58542 46.892 9.03063 47.239 9.56628 47.3875C9.75153 47.4388 9.93971 47.4643 10.1266 47.4643C10.4801 47.4643 10.8289 47.3732 11.144 47.1949L13.6142 45.7969C14.6112 45.2327 14.9632 43.9626 14.3991 42.9656L13.6503 41.6426L15.1433 40.7806L26.4196 43.802C27.0565 43.9728 27.6816 44.0579 28.2933 44.0579C29.5129 44.0579 30.6788 43.719 31.776 43.0437L47.7536 33.2056C49.2101 32.3088 49.6721 30.0487 48.7229 28.464ZM13.086 44.1262C13.049 44.2597 12.9633 44.3702 12.8448 44.4373L10.3746 45.8354C10.1314 45.9728 9.81022 45.8837 9.67272 45.6408L2.41022 32.8084C2.27272 32.5655 2.36188 32.244 2.60475 32.1064L5.07497 30.7086C5.1527 30.6645 5.23835 30.6437 5.3236 30.6437C5.50466 30.6437 5.68337 30.7379 5.77692 30.9031L13.0394 43.7353C13.1064 43.8538 13.123 43.9925 13.086 44.1262ZM46.9343 31.875L30.957 41.7133C29.6899 42.4933 28.2995 42.6881 26.8243 42.293L15.2354 39.1877C15.0352 39.134 14.822 39.162 14.6425 39.2658L12.8809 40.2829L8.52399 32.5846L15.0875 28.7845C16.5557 27.9345 18.1441 27.2224 19.8101 27.7625C20.3453 27.936 20.9621 28.1592 21.6762 28.4173C23.7237 29.1575 26.2682 30.0775 28.9085 30.5602C29.8286 30.8815 30.343 31.7704 30.1082 32.6467C29.7993 33.7995 28.8388 33.9433 28.075 33.8552C26.778 33.5885 25.5456 33.2368 24.2416 32.8644C23.6231 32.6877 22.9838 32.5051 22.3264 32.329C21.9098 32.2177 21.4813 32.4647 21.3696 32.8814C21.2579 33.2982 21.5052 33.7266 21.922 33.8383C22.567 34.0111 23.2001 34.1919 23.8124 34.3668C25.1562 34.7506 26.4255 35.1132 27.7923 35.3925C27.7972 35.3935 27.8022 35.3938 27.8072 35.3947C27.8127 35.3957 27.8178 35.3973 27.8233 35.3981L28.9182 35.5762C30.5556 35.8381 32.0086 35.5828 33.3595 34.7961L42.1637 29.6682C44.6981 28.192 46.649 28.042 47.3825 29.2666C47.888 30.1108 47.6619 31.4271 46.9343 31.875ZM5.79177 33.1869C5.86227 33.6689 5.52868 34.1167 5.04665 34.1872C4.56471 34.2576 4.11686 33.924 4.04636 33.4421C3.97594 32.9601 4.30944 32.5123 4.79147 32.4418C5.2735 32.3714 5.72135 32.705 5.79177 33.1869ZM34.1665 28.5638C41.3421 28.5638 47.1798 22.7261 47.1798 15.5505C47.1798 13.5659 46.7225 11.5997 45.8558 9.829C46.9061 8.5873 47.8112 7.55078 48.401 6.95557C49.4061 5.94111 49.4007 4.29746 48.3891 3.2915C47.8997 2.80488 47.2507 2.53711 46.5606 2.53711C46.5572 2.53711 46.5537 2.53711 46.5503 2.53711C45.8577 2.53984 45.2082 2.81211 44.7214 3.30391C44.7066 3.31865 44.6925 3.33418 44.6791 3.3502L42.6869 5.71484C40.3213 3.66025 37.3273 2.5373 34.1665 2.5373C26.9909 2.5373 21.1532 8.375 21.1532 15.5506C21.1532 22.7262 26.9909 28.5638 34.1665 28.5638ZM45.8509 4.38428C46.0414 4.20156 46.2907 4.10078 46.5563 4.09971H46.5604C46.8347 4.09971 47.0927 4.20615 47.2873 4.39951C47.6891 4.79902 47.6908 5.45234 47.2911 5.85576C46.0754 7.08272 43.763 9.88018 41.3146 12.8418C38.922 15.7362 36.4478 18.7292 35.2474 19.9297C34.8447 20.3323 34.1893 20.3324 33.7866 19.9296L28.4637 14.6067C28.2687 14.4117 28.1613 14.1523 28.1613 13.8764C28.1613 13.6004 28.2687 13.341 28.4638 13.1459C28.6589 12.9509 28.9182 12.8435 29.1942 12.8435C29.4702 12.8435 29.7296 12.9509 29.9247 13.146L33.9606 17.1819C34.1153 17.3366 34.3288 17.4204 34.5464 17.41C34.7649 17.4007 34.9696 17.3001 35.1105 17.1328L45.8509 4.38428ZM34.1665 4.0998C36.955 4.0998 39.596 5.09307 41.68 6.90996L34.4638 15.4754L31.0296 12.0411C30.5393 11.5509 29.8876 11.281 29.1942 11.281C28.5008 11.281 27.8491 11.551 27.359 12.041C26.8687 12.5312 26.5988 13.183 26.5988 13.8764C26.5988 14.5698 26.8688 15.2216 27.359 15.7117L32.6818 21.0346C33.1879 21.5405 33.8525 21.7935 34.5171 21.7935C35.1817 21.7935 35.8464 21.5404 36.3523 21.0346C37.605 19.7818 40.1031 16.7599 42.5189 13.8374C43.2664 12.9332 44.0217 12.0194 44.7417 11.1563C45.316 12.5414 45.6172 14.0397 45.6172 15.5506C45.6172 21.8645 40.4803 27.0014 34.1664 27.0014C27.8524 27.0014 22.7156 21.8645 22.7156 15.5506C22.7156 9.23662 27.8525 4.0998 34.1665 4.0998Z" fill="#1CA8CB"/>
</svg>
