<svg width="50" height="50" viewBox="0 0 50 50" fill="none" xmlns="http://www.w3.org/2000/svg">
<path d="M38.0012 31.5996L42.4012 27.1996C43.2012 26.3996 43.2012 24.9996 42.4012 24.1996C41.6012 23.3996 40.2012 23.3996 39.4012 24.1996L33.1012 30.4996C31.9012 31.6996 31.2012 33.3996 31.2012 35.1996V41.8996H40.2012V39.7996C40.2012 39.1996 40.4012 38.6996 40.7012 38.2996L47.4012 30.0996C47.9012 29.3996 48.2012 28.5996 48.2012 27.6996V15.6996C48.2012 14.2996 47.1012 13.0996 45.6012 13.0996C44.2012 13.0996 43.0012 14.1996 43.0012 15.6996V25.2996" stroke="#1CA8CB" stroke-width="1.5" stroke-miterlimit="10" stroke-linecap="round" stroke-linejoin="round"/>
<path d="M40.9004 48.2998H30.4004C29.8004 48.2998 29.4004 47.8998 29.4004 47.2998V42.7998C29.4004 42.1998 29.8004 41.7998 30.4004 41.7998H40.9004C41.5004 41.7998 41.9004 42.1998 41.9004 42.7998V47.2998C41.9004 47.7998 41.5004 48.2998 40.9004 48.2998Z" stroke="#1CA8CB" stroke-width="1.5" stroke-miterlimit="10" stroke-linecap="round" stroke-linejoin="round"/>
<path d="M12.0008 31.5996L7.60078 27.1996C6.80078 26.3996 6.80078 24.9996 7.60078 24.1996C8.40078 23.3996 9.80078 23.3996 10.6008 24.1996L16.9008 30.4996C18.1008 31.6996 18.8008 33.3996 18.8008 35.1996V41.8996H9.80078V39.7996C9.80078 39.1996 9.60078 38.6996 9.30078 38.2996L2.60078 29.9996C2.10078 29.2996 1.80078 28.4996 1.80078 27.5996V15.6996C1.80078 14.2996 2.90078 13.0996 4.40078 13.0996C5.80078 13.0996 7.00078 14.1996 7.00078 15.6996V25.2996" stroke="#1CA8CB" stroke-width="1.5" stroke-miterlimit="10" stroke-linecap="round" stroke-linejoin="round"/>
<path d="M9.10156 48.2998H19.6016C20.2016 48.2998 20.6016 47.8998 20.6016 47.2998V42.7998C20.6016 42.1998 20.2016 41.7998 19.6016 41.7998H9.10156C8.50156 41.7998 8.10156 42.1998 8.10156 42.7998V47.2998C8.10156 47.7998 8.50156 48.2998 9.10156 48.2998Z" stroke="#1CA8CB" stroke-width="1.5" stroke-miterlimit="10" stroke-linecap="round" stroke-linejoin="round"/>
<path d="M39.4016 45H38.1016" stroke="#1CA8CB" stroke-width="1.5" stroke-miterlimit="10" stroke-linecap="round" stroke-linejoin="round"/>
<path d="M11.8 45H10.5" stroke="#1CA8CB" stroke-width="1.5" stroke-miterlimit="10" stroke-linecap="round" stroke-linejoin="round"/>
<path d="M25.0008 26.9998C32.0148 26.9998 37.7008 21.3586 37.7008 14.3998C37.7008 7.44102 32.0148 1.7998 25.0008 1.7998C17.9868 1.7998 12.3008 7.44102 12.3008 14.3998C12.3008 21.3586 17.9868 26.9998 25.0008 26.9998Z" stroke="#1CA8CB" stroke-width="1.5" stroke-miterlimit="10" stroke-linecap="round" stroke-linejoin="round"/>
<path d="M25.0012 23.1996C29.8613 23.1996 33.8012 19.2597 33.8012 14.3996C33.8012 9.5395 29.8613 5.59961 25.0012 5.59961C20.1411 5.59961 16.2012 9.5395 16.2012 14.3996C16.2012 19.2597 20.1411 23.1996 25.0012 23.1996Z" stroke="#1CA8CB" stroke-width="1.5" stroke-miterlimit="10" stroke-linecap="round" stroke-linejoin="round"/>
<path d="M27.5012 17.2C27.3012 17.5 27.0012 17.7 26.6012 17.9C26.2012 18.1 25.8012 18.2 25.3012 18.2V19C25.3012 19.1 25.3012 19.2 25.2012 19.2C25.1012 19.3 25.1012 19.3 25.0012 19.3C24.9012 19.3 24.8012 19.3 24.8012 19.2C24.7012 19.1 24.7012 19.1 24.7012 19V18.2C23.9012 18.2 23.2012 18 22.5012 17.7C22.4012 17.7 22.3012 17.6 22.3012 17.5C22.2012 17.4 22.2012 17.3 22.2012 17.2C22.2012 17.1 22.2012 17 22.3012 16.9C22.4012 16.8 22.5012 16.8 22.6012 16.8H22.8012C23.4012 17.1 24.0012 17.2 24.6012 17.2V14.8C24.1012 14.7 23.7012 14.5 23.4012 14.4C23.1012 14.3 22.8012 14 22.6012 13.8C22.4012 13.5 22.3012 13.2 22.3012 12.8C22.3012 12.4 22.4012 12.1 22.6012 11.8C22.8012 11.5 23.1012 11.2 23.4012 11C23.8012 10.8 24.2012 10.7 24.7012 10.6V9.8C24.7012 9.7 24.7012 9.6 24.8012 9.6C24.9012 9.5 24.9012 9.5 25.0012 9.5C25.1012 9.5 25.2012 9.5 25.2012 9.6C25.3012 9.7 25.3012 9.7 25.3012 9.8V10.5C26.0012 10.5 26.6012 10.6 27.2012 10.9C27.4012 11 27.5012 11.1 27.5012 11.3C27.5012 11.4 27.5012 11.5 27.4012 11.6C27.3012 11.7 27.2012 11.7 27.1012 11.7C27.1012 11.7 27.0012 11.7 26.9012 11.7C26.4012 11.5 25.9012 11.4 25.3012 11.4V14C25.8012 14.1 26.2012 14.3 26.6012 14.4C26.9012 14.5 27.2012 14.8 27.4012 15C27.6012 15.3 27.7012 15.7 27.7012 16.1C27.8012 16.5 27.7012 16.9 27.5012 17.2ZM23.6012 13.4C23.8012 13.6 24.2012 13.7 24.6012 13.8V11.5C24.2012 11.6 23.8012 11.7 23.6012 11.9C23.4012 12.1 23.2012 12.4 23.2012 12.7C23.3012 13 23.4012 13.2 23.6012 13.4ZM26.8012 16.1C26.8012 15.8 26.7012 15.6 26.4012 15.5C26.1012 15.3 25.8012 15.2 25.3012 15.1V17.4C26.3012 17.2 26.8012 16.8 26.8012 16.1Z" fill="#1CA8CB"/>
</svg>
