<svg width="50" height="50" viewBox="0 0 50 50" fill="none" xmlns="http://www.w3.org/2000/svg">
<g clip-path="url(#clip0_3107_12877)">
<path d="M43.5302 10.1263C44.1955 9.27233 44.5922 8.19946 44.5922 7.03562V5.00519C44.3382 -1.67094 34.7678 -1.66586 34.5161 5.00519V7.03562C34.5161 8.19937 34.9128 9.27233 35.5781 10.1262C33.1703 11.5286 31.6328 14.1233 31.6328 16.9723V17.2044C31.6809 18.4995 33.5396 18.4986 33.5872 17.2044V16.9723C33.5872 14.5832 35.0242 12.431 37.2038 11.491C38.588 12.2605 40.5202 12.2605 41.9046 11.491C44.0837 12.431 45.5213 14.5848 45.5213 16.9722V26.2312C45.5213 26.9686 44.9213 27.5686 44.1838 27.5686C43.6682 27.5686 43.2414 27.9692 43.2085 28.4837L42.0519 46.635C41.9902 47.3373 41.5113 48.0453 40.7117 48.0453H38.3969C37.5941 48.0453 37.1147 47.3316 37.056 46.6267C36.6673 41.9408 36.2884 33.1532 35.8986 28.4647C35.8564 27.9583 35.4329 27.5687 34.9248 27.5687C34.1873 27.5687 33.5872 26.9687 33.5872 26.2312V25.9992C33.5391 24.704 31.6804 24.705 31.6328 25.9992V26.2312C31.6328 27.7299 32.6393 28.9978 34.0119 29.3944C34.3737 34.1269 34.7327 42.2426 35.1083 46.789C35.2608 48.6194 36.6745 49.9998 38.3968 49.9998H40.7116C42.4339 49.9998 43.8477 48.6195 44.0002 46.789C44.0007 46.7826 44.0011 46.7764 44.0016 46.77L45.1091 29.3908C46.4751 28.99 47.4757 27.7253 47.4757 26.2312V16.9723C47.4756 14.1252 45.9376 11.5291 43.5302 10.1263ZM39.5541 10.1193C37.8538 10.1193 36.4704 8.73595 36.4704 7.03562V5.00519C36.4704 3.30487 37.8538 1.92154 39.5541 1.92154C41.2544 1.92154 42.6377 3.30487 42.6377 5.00519V7.03562C42.6377 8.73595 41.2544 10.1193 39.5541 10.1193Z" fill="#1CA8CB"/>
<path d="M27.0697 17.8465C27.6093 17.1052 27.9279 16.1932 27.9279 15.2081V13.4502C27.7013 7.49618 19.1661 7.50058 18.9417 13.4502V15.2081C18.9417 16.1932 19.2602 17.1051 19.7998 17.8464C17.7488 19.1004 16.4453 21.3501 16.4453 23.8113V30.9817C16.4453 32.3073 17.3149 33.4336 18.5138 33.8201C18.8261 37.7815 19.1345 43.2368 19.4549 47.0994C19.5926 48.7527 20.8728 49.9995 22.4328 49.9995H24.437C25.997 49.9995 27.2772 48.7527 27.4149 47.0994C27.4152 47.0955 27.4155 47.0916 27.4158 47.0878L28.3633 33.8176C29.5584 33.4289 30.4244 32.3046 30.4244 30.9817V23.8113C30.4244 21.3506 29.1208 19.1006 27.0697 17.8465ZM20.8961 13.4502C20.8961 12.0503 22.0349 10.9115 23.4347 10.9115C24.8346 10.9115 25.9734 12.0503 25.9734 13.4502V15.2081C25.8454 18.5723 21.0227 18.5698 20.896 15.2081L20.8961 13.4502ZM28.47 30.9817C28.47 31.5479 28.0093 32.0086 27.443 32.0086C26.9303 32.0086 26.5048 32.4048 26.4683 32.9162L25.4666 46.942C25.4189 47.491 25.0507 48.0451 24.4368 48.0451H22.4326C21.8168 48.0451 21.4482 47.4877 21.4024 46.9372C21.0659 42.887 20.7375 36.9563 20.4003 32.9047C20.3581 32.3982 19.9348 32.0087 19.4266 32.0087C18.8604 32.0087 18.3997 31.548 18.3997 30.9818V23.8114C18.3997 21.8183 19.5881 20.0171 21.395 19.2112C22.603 19.8588 24.2666 19.8588 25.4745 19.2112C27.2815 20.0173 28.47 21.8188 28.47 23.8115V30.9817Z" fill="#1CA8CB"/>
<path d="M12.2726 26.01C12.7283 25.3472 12.9954 24.5449 12.9954 23.6815V22.1099C12.7877 16.6501 4.96087 16.6542 4.75507 22.1099V23.6815C4.75507 24.5449 5.02214 25.3472 5.4779 26.01C3.66833 27.1603 2.52344 29.1737 2.52344 31.3721V36.8048C2.52344 38.0131 3.30148 39.043 4.38285 39.4201C4.51243 40.8521 4.64279 41.9548 4.76953 43.0262C4.91543 44.2605 5.06641 45.5367 5.21416 47.3125C5.34178 48.8446 6.53064 50.0001 7.97954 50.0001H9.77104C11.2165 50.0001 12.4031 48.8501 12.5354 47.3232L13.3548 39.4245C14.4428 39.0511 15.227 38.0178 15.227 36.8048V31.372C15.227 29.1741 14.0821 27.1604 12.2726 26.01ZM6.70947 22.1099C6.81872 19.24 10.9328 19.2421 11.041 22.1099V23.6815C10.9318 26.5514 6.81765 26.5491 6.70947 23.6815V22.1099ZM13.2726 36.8047C13.2726 37.2537 12.9074 37.619 12.4583 37.619C11.9576 37.619 11.538 37.9973 11.4863 38.4953L10.5905 47.1304C10.5898 47.137 10.5892 47.1435 10.5887 47.1501C10.5515 47.595 10.2588 48.0455 9.77094 48.0455H7.97944C7.49162 48.0455 7.19885 47.5951 7.16182 47.1502C7.01113 45.3407 6.8583 44.0474 6.71035 42.7966C6.56455 41.5635 6.41377 40.2885 6.26602 38.515C6.2238 38.0085 5.80038 37.619 5.29224 37.619C4.84321 37.619 4.47794 37.2537 4.47794 36.8047V31.372C4.47794 29.6481 5.49647 28.0881 7.04963 27.3745C8.13589 27.9387 9.61478 27.9387 10.701 27.3745C12.2541 28.0881 13.2728 29.6484 13.2728 31.372V36.8047H13.2726Z" fill="#1CA8CB"/>
<path d="M32.608 22.5794C33.9032 22.5313 33.9022 20.6726 32.608 20.625H32.6074C31.3122 20.6732 31.3139 22.532 32.608 22.5794Z" fill="#1CA8CB"/>
</g>
<defs>
<clipPath id="clip0_3107_12877">
<rect width="50" height="50" fill="white"/>
</clipPath>
</defs>
</svg>
