<svg width="16" height="16" viewBox="0 0 16 16" fill="none" xmlns="http://www.w3.org/2000/svg">
<g clip-path="url(#clip0_344_7301)">
<path d="M9.33333 11.9997C12.2789 11.9997 14.6667 9.61187 14.6667 6.66634C14.6667 3.72082 12.2789 1.33301 9.33333 1.33301C6.38781 1.33301 4 3.72082 4 6.66634C4 9.61187 6.38781 11.9997 9.33333 11.9997Z" stroke="#0D0D0C" stroke-linecap="round"/>
<path d="M2.10436 7.33301C1.6168 8.07807 1.33331 8.96867 1.33331 9.92554C1.33331 12.5438 3.45583 14.6663 6.07409 14.6663C7.03098 14.6663 7.92158 14.3829 8.66665 13.8953" stroke="#0D0D0C" stroke-linecap="round"/>
<path d="M10.5141 5.47028C10.37 4.86219 9.63641 4.31348 8.75581 4.72398C7.87521 5.13448 7.73534 6.45525 9.06734 6.59556C9.66941 6.65898 10.0619 6.52197 10.4213 6.9095C10.7806 7.29703 10.8474 8.37483 9.92874 8.6653C9.01008 8.9557 8.10041 8.5019 8.00134 7.85743M9.32414 4.00293V4.58229M9.32414 8.7547V9.3363" stroke="#0D0D0C" stroke-linecap="round" stroke-linejoin="round"/>
</g>
<defs>
<clipPath id="clip0_344_7301">
<rect width="16" height="16" fill="white"/>
</clipPath>
</defs>
</svg>
