<svg width="50" height="50" viewBox="0 0 50 50" fill="none" xmlns="http://www.w3.org/2000/svg">
<path d="M46.8102 24.5601V8.84463C46.8102 5.02197 43.7002 1.91211 39.8776 1.91211H9.92305C6.10039 1.91211 2.99053 5.02207 2.99053 8.84463V24.7628C1.13896 26.6985 0 29.3213 0 32.2051V44.1214C0 46.3088 1.77959 48.0885 3.96709 48.0885C6.15449 48.0885 7.93408 46.3088 7.93408 44.1214V42.8907H42.066V44.1214C42.066 46.3088 43.8456 48.0885 46.033 48.0885C48.2204 48.0885 50 46.3089 50 44.1214V32.2051C50 29.2192 48.7789 26.5134 46.8102 24.5601ZM9.92305 3.86523H39.8776C42.6233 3.86523 44.857 6.09902 44.857 8.84463V23.023C44.2589 22.6548 43.6224 22.3433 42.9548 22.0962V18.8487C42.9548 15.9698 40.6126 13.6276 37.7337 13.6276H29.2446C27.497 13.6276 25.9482 14.4916 25.0001 15.814C24.052 14.4916 22.5032 13.6276 20.7556 13.6276H12.2665C9.3876 13.6276 7.04541 15.9697 7.04541 18.8487V22.0962C6.30312 22.3709 5.59912 22.7252 4.94375 23.1486V8.84463C4.94365 6.09902 7.17734 3.86523 9.92305 3.86523ZM10.7747 21.4304C10.1697 21.4304 9.57637 21.4813 8.99834 21.5776V18.8487C8.99834 17.0468 10.4644 15.5808 12.2663 15.5808H20.7554C22.5573 15.5808 24.0233 17.0468 24.0233 18.8487V21.4305H10.7747V21.4304ZM25.9766 18.8486C25.9766 17.0467 27.4426 15.5807 29.2445 15.5807H37.7336C39.5355 15.5807 41.0016 17.0467 41.0016 18.8486V21.5775C40.4234 21.4813 39.8302 21.4303 39.2252 21.4303H25.9766V18.8486ZM10.7747 23.3835H39.2252C44.0895 23.3835 48.0468 27.3408 48.0468 32.2051V35.1022H38.2522C37.7129 35.1022 37.2757 35.5396 37.2757 36.0788C37.2757 36.6181 37.7129 37.0554 38.2522 37.0554H48.0469V40.9377H1.95312V37.0554H28.4866C29.026 37.0554 29.4632 36.6181 29.4632 36.0788C29.4632 35.5396 29.026 35.1022 28.4866 35.1022H1.95312V32.2051C1.95312 27.3408 5.91045 23.3835 10.7747 23.3835ZM5.98096 44.1214C5.98096 45.2318 5.07754 46.1354 3.96709 46.1354C2.85664 46.1354 1.95312 45.2318 1.95312 44.1214V42.8907H5.98096V44.1214ZM46.0329 46.1354C44.9225 46.1354 44.019 45.2318 44.019 44.1214V42.8907H48.0469V44.1214C48.0469 45.2318 47.1435 46.1354 46.0329 46.1354Z" fill="#1CA8CB"/>
<path d="M33.3691 37.0557C33.9088 37.0557 34.3462 36.6182 34.3462 36.0786C34.3462 35.539 33.9088 35.1016 33.3691 35.1016C32.8295 35.1016 32.3921 35.539 32.3921 36.0786C32.3921 36.6182 32.8295 37.0557 33.3691 37.0557Z" fill="#1CA8CB"/>
</svg>
