<svg width="56" height="50" viewBox="0 0 56 50" fill="none" xmlns="http://www.w3.org/2000/svg">
<path d="M54.3636 40.9091H53.3536C55.8648 38.4653 55.9194 34.4485 53.4757 31.9373C53.0879 31.5389 52.6495 31.1932 52.1718 30.909C54.0923 29.7622 55.2695 27.6913 55.2727 25.4544C55.2682 21.9418 52.4217 19.0953 48.9091 19.0908H40.7272V12.7271C40.727 12.2251 40.3198 11.8181 39.8178 11.8184C39.7716 11.8184 39.7255 11.8219 39.6799 11.8289L28.909 13.4853V12.6362C31.0239 12.2013 32.5426 10.3409 32.5454 8.18165C32.5454 4.21436 28.8026 0.425257 28.6426 0.266166C28.2876 -0.0887219 27.7122 -0.0887219 27.3572 0.266166C27.1972 0.425257 23.4544 4.21436 23.4544 8.18165C23.4571 10.3409 24.9759 12.2013 27.0908 12.6362V13.7662L16.0435 15.4662C15.6004 15.5344 15.2731 15.9152 15.2726 16.3635V26.4917C14.6086 25.7756 13.8428 25.161 12.9998 24.6681C12.7186 24.5057 12.372 24.5057 12.0907 24.6681C9.40618 26.228 7.5939 28.9417 7.18162 32.019C6.55332 31.8902 5.91389 31.8229 5.27252 31.8181C4.87127 31.8199 4.47059 31.8459 4.07252 31.8963C3.75002 31.9352 3.47286 32.1431 3.34524 32.4417C1.49274 36.7872 2.93649 41.8362 6.80617 44.5454H0.727051V46.3636H2.89251L4.45888 49.4973C4.61286 49.8055 4.92798 50.0001 5.27252 50H39.8181C40.3202 50 40.7272 49.593 40.7272 49.0909V46.3636H46.529L48.0954 49.4973C48.2494 49.8055 48.5645 50.0001 48.9091 50H52.5454C53.0475 50 53.4545 49.593 53.4545 49.0909V46.3636H54.3636C54.8657 46.3636 55.2727 45.9566 55.2727 45.4545V41.8181C55.2727 41.3161 54.8657 40.9091 54.3636 40.9091ZM53.4545 36.3636C53.4516 38.8727 51.4182 40.9061 48.9091 40.9091H32.5454C30.035 40.9091 27.9999 38.8739 27.9999 36.3636C27.9999 33.8532 30.035 31.8181 32.5454 31.8181H44.3636C45.8698 31.8181 47.0909 33.0391 47.0909 34.5454C47.0909 36.0517 45.8698 37.2727 44.3636 37.2727H35.2726C34.7706 37.2727 34.3635 36.8656 34.3635 36.3636C34.3635 35.8615 34.7706 35.4545 35.2726 35.4545H41.6363V33.6363H35.2726C33.7664 33.6363 32.5454 34.8573 32.5454 36.3636C32.5454 37.8698 33.7664 39.0909 35.2726 39.0909H44.3636C46.8727 39.0879 48.9061 37.0545 48.9091 34.5454C48.9058 33.5586 48.5779 32.6003 47.9763 31.8181H48.9091C51.4182 31.8211 53.4516 33.8545 53.4545 36.3636ZM46.1818 20.909C47.688 20.909 48.9091 22.13 48.9091 23.6363C48.9091 25.1425 47.688 26.3635 46.1818 26.3635H37.0908C36.5888 26.3635 36.1817 25.9565 36.1817 25.4544C36.1817 24.9524 36.5888 24.5454 37.0908 24.5454H43.4545V22.7272H37.0908C35.5846 22.7272 34.3635 23.9482 34.3635 25.4544C34.3635 26.9607 35.5846 28.1817 37.0908 28.1817H46.1818C48.6909 28.1788 50.7243 26.1454 50.7272 23.6363C50.7263 22.6985 50.4327 21.7845 49.8872 21.0217C52.3354 21.5772 53.8699 24.0121 53.3144 26.4602C52.847 28.5206 51.0217 29.9872 48.9091 29.9999H44.3636H36.1817C33.6714 29.9999 31.6363 27.9648 31.6363 25.4544C31.6363 22.9441 33.6714 20.909 36.1817 20.909H46.1818ZM25.2726 8.18165C25.2726 5.8571 27.0226 3.43981 27.9999 2.27254C28.9781 3.43891 30.7272 5.85164 30.7272 8.18165C30.7224 9.33325 29.9948 10.3578 28.909 10.7417V9.09075H27.0908V10.7417C26.005 10.3578 25.2774 9.33325 25.2726 8.18165ZM12.5453 26.5254C14.5763 27.8923 15.8914 30.0945 16.1317 32.5308C14.7757 33.0723 13.5546 33.9036 12.5535 34.9663C11.545 33.9077 10.3181 33.0815 8.95799 32.5454C9.19402 30.1034 10.5099 27.8951 12.5453 26.5254ZM17.1055 34.0988C17.9771 33.7927 18.8942 33.6363 19.818 33.6363C19.9608 33.6363 20.1099 33.6418 20.2653 33.6518C21.763 37.9151 19.5211 42.5852 15.2578 44.0829C14.3862 44.3891 13.469 44.5454 12.5453 44.5454C12.4026 44.5454 12.2535 44.54 12.098 44.53C10.6003 40.2667 12.8422 35.5965 17.1055 34.0988ZM4.36343 36.3636C4.36229 35.4399 4.51843 34.5229 4.82525 33.6518C4.9807 33.6418 5.1298 33.6363 5.27252 33.6363C7.62662 33.6293 9.8672 34.647 11.4107 36.4245C9.91993 38.7159 9.44902 41.5239 10.1107 44.1763C6.69151 43.1107 4.36275 39.9451 4.36343 36.3636ZM19.2562 48.1818H5.83434L4.92525 46.3636H20.1653L19.2562 48.1818ZM27.9999 48.1818H21.2889L22.198 46.3636H24.3635V44.5454H18.2771C22.1511 41.84 23.5985 36.7894 21.7453 32.4427C21.6177 32.144 21.3405 31.9361 21.018 31.8972C19.9836 31.7642 18.9343 31.8011 17.9117 32.0063C17.7698 30.9951 17.4734 30.0119 17.0326 29.0908H17.0908V17.1435L38.909 13.7871V19.0908H36.1817C32.6717 19.0861 29.8225 21.9278 29.8178 25.4379C29.8156 27.1804 30.5288 28.8474 31.7908 30.049C28.3059 30.4601 25.8143 33.6186 26.2254 37.1035C26.396 38.5494 27.0581 39.8929 28.1008 40.9091H27.0908C26.5887 40.9091 26.1817 41.3161 26.1817 41.8181V45.4545C26.1817 45.9566 26.5887 46.3636 27.0908 46.3636H27.9999V48.1818ZM31.9835 48.1818H29.8181V46.3636H32.8926L31.9835 48.1818ZM38.909 48.1818H34.0163L34.9254 46.3636H38.909V48.1818ZM51.6363 48.1818H49.4709L48.5618 46.3636H51.6363V48.1818ZM53.4545 44.5454H27.9999V42.7272H53.4545V44.5454Z" fill="#1CA8CB"/>
</svg>
