<svg width="50" height="50" viewBox="0 0 50 50" fill="none" xmlns="http://www.w3.org/2000/svg">
<g clip-path="url(#clip0_1774_23514)">
<path d="M14.7042 36.2804H5.87529V26.4709C5.87529 24.8511 4.55752 23.5332 2.9377 23.5332C1.31787 23.5332 0 24.8512 0 26.4709V47.0624C0 48.6822 1.31787 50.0001 2.9377 50.0001C4.55752 50.0001 5.87529 48.6822 5.87529 47.0624V42.1558H11.7666V47.0624C11.7666 48.698 13.0921 50.0003 14.7023 50.0001C16.3455 50.0001 17.642 48.6652 17.642 47.0157V39.2181C17.6419 37.5982 16.324 36.2804 14.7042 36.2804ZM15.6888 47.0157C15.6888 47.5657 15.2635 48.028 14.7404 48.0464C14.1867 48.0674 13.7197 47.6252 13.7197 47.0625V41.1793C13.7197 40.64 13.2825 40.2027 12.7432 40.2027H4.89873C4.35938 40.2027 3.92217 40.64 3.92217 41.1793V47.0625C3.92217 47.6055 3.48047 48.0471 2.9377 48.0471C2.39482 48.047 1.95312 47.6054 1.95312 47.0624V26.4709C1.95312 25.928 2.39482 25.4863 2.9377 25.4863C3.48057 25.4863 3.92217 25.928 3.92217 26.4709V37.2569C3.92217 37.7962 4.35938 38.2335 4.89873 38.2335H14.7042C15.2472 38.2335 15.6888 38.6751 15.6888 39.2181V47.0157Z" fill="#1CA8CB"/>
<path d="M47.0621 23.5332C45.4423 23.5332 44.1245 24.8511 44.1245 26.4709V36.2803H35.2956C33.6758 36.2803 32.3579 37.5981 32.3579 39.218V47.0156C32.3579 48.6325 33.6023 49.9427 35.1909 49.9982C36.8497 50.0559 38.2332 48.7345 38.2332 47.0624V42.1558H44.1245V47.0624C44.1245 48.6822 45.4423 50.0001 47.0621 50.0001C48.6819 50 49.9998 48.6821 49.9998 47.0623V26.4708C49.9998 24.8511 48.6819 23.5332 47.0621 23.5332ZM48.0467 47.0623C48.0467 47.6053 47.6051 48.0469 47.0621 48.0469C46.5192 48.0469 46.0776 47.6053 46.0776 47.0623V41.1791C46.0776 40.6398 45.6403 40.2025 45.1011 40.2025H37.2566C36.7174 40.2025 36.2801 40.6398 36.2801 41.1791V47.0623C36.2801 47.627 35.8099 48.0687 35.2593 48.0462C34.7364 48.0278 34.311 47.5655 34.311 47.0155V39.2179C34.311 38.6749 34.7526 38.2333 35.2956 38.2333H45.1011C45.6403 38.2333 46.0776 37.796 46.0776 37.2567V26.4708C46.0776 25.9279 46.5192 25.4862 47.0621 25.4862C47.6051 25.4862 48.0467 25.9279 48.0467 26.4708V47.0623Z" fill="#1CA8CB"/>
<path d="M29.4127 48.0474H27.9379V34.3117H37.7797C39.3995 34.3117 40.7173 32.9939 40.7173 31.3741C40.7173 29.7543 39.3995 28.4364 37.7797 28.4364H36.7628V26.3248C38.1786 25.9032 39.2142 24.5902 39.2142 23.0394V19.6074C39.2142 19.0681 38.7769 18.6309 38.2376 18.6309H33.3349C32.7956 18.6309 32.3583 19.0681 32.3583 19.6074V23.0394C32.3583 24.5902 33.3939 25.9032 34.8098 26.3248V28.4364H31.3494C31.1246 25.4766 28.87 23.0751 25.9769 22.628V20.5881C25.9769 20.0487 25.5396 19.6115 25.0003 19.6115C24.461 19.6115 24.0237 20.0487 24.0237 20.5881V22.628C21.1306 23.0751 18.8759 25.4766 18.6512 28.4364H15.1908V26.3248C16.6066 25.9032 17.6422 24.5902 17.6422 23.0394V19.6074C17.6422 19.0681 17.205 18.6309 16.6656 18.6309H11.7629C11.2236 18.6309 10.7863 19.0681 10.7863 19.6074V23.0394C10.7863 24.5902 11.8219 25.9032 13.2377 26.3248V28.4364H12.2208C10.601 28.4364 9.2832 29.7543 9.2832 31.3741C9.2832 32.9939 10.601 34.3117 12.2208 34.3117H22.0626V48.0474H20.5878C20.0485 48.0474 19.6112 48.4847 19.6112 49.0239C19.6112 49.5632 20.0485 50.0005 20.5878 50.0005H29.4127C29.952 50.0005 30.3893 49.5632 30.3893 49.0239C30.3893 48.4847 29.952 48.0474 29.4127 48.0474ZM34.3114 23.0394V20.584H37.261V23.0394C37.261 23.8525 36.5995 24.5142 35.7862 24.5142C34.973 24.5142 34.3114 23.8525 34.3114 23.0394ZM12.7394 23.0394V20.584H15.689V23.0394C15.689 23.8525 15.0273 24.5142 14.2142 24.5142C13.401 24.5142 12.7394 23.8525 12.7394 23.0394ZM25.0002 24.5063C27.2712 24.5063 29.1474 26.2291 29.39 28.4364H20.6104C20.853 26.229 22.7292 24.5063 25.0002 24.5063ZM11.2362 31.3741C11.2362 30.8312 11.6778 30.3896 12.2207 30.3896H37.7798C38.3227 30.3896 38.7643 30.8312 38.7643 31.3741C38.7643 31.917 38.3226 32.3586 37.7798 32.3586C32.9594 32.3586 17.6835 32.3586 12.2207 32.3586C11.6778 32.3586 11.2362 31.9169 11.2362 31.3741ZM24.0156 48.0474V34.3117H25.9848V48.0474H24.0156Z" fill="#1CA8CB"/>
<path d="M49.0234 0H0.976562C0.437305 0 0 0.437207 0 0.976562V5.97734C0 9.16523 2.59346 11.7586 5.78125 11.7586C7.78164 11.7586 9.54766 10.7371 10.5859 9.18857C12.8791 12.6084 17.8947 12.6193 20.1952 9.18857C22.4884 12.6084 27.5041 12.6194 29.8046 9.18857C32.0978 12.6085 37.1135 12.6193 39.4139 9.18857C40.4522 10.737 42.2182 11.7586 44.2186 11.7586C47.4064 11.7586 49.9998 9.16514 49.9998 5.97734C49.9998 4.98311 49.9998 2.00244 49.9998 0.976562C50 0.437207 49.5628 0 49.0234 0ZM1.95312 1.95312H48.0469V3.92217C34.2576 3.92217 15.7607 3.92217 1.95312 3.92217V1.95312ZM5.78125 9.80547C3.67041 9.80547 1.95312 8.08818 1.95312 5.97734V5.87529H9.60938V5.97734C9.60938 8.08818 7.89209 9.80547 5.78125 9.80547ZM15.3906 9.80547C13.2799 9.80547 11.5626 8.08818 11.5626 5.97734V5.87529H19.2188V5.97734C19.2188 8.08818 17.5015 9.80547 15.3906 9.80547ZM25 9.80547C22.8892 9.80547 21.1719 8.08818 21.1719 5.97734V5.87529H28.8281V5.97734C28.8281 8.08818 27.1108 9.80547 25 9.80547ZM34.6094 9.80547C32.4985 9.80547 30.7813 8.08818 30.7813 5.97734V5.87529H38.4375V5.97734C38.4375 8.08818 36.7202 9.80547 34.6094 9.80547ZM48.0469 5.97734C48.0469 8.08818 46.3296 9.80547 44.2188 9.80547C42.1079 9.80547 40.3906 8.08818 40.3906 5.97734V5.87529H48.0469V5.97734Z" fill="#1CA8CB"/>
</g>
<defs>
<clipPath id="clip0_1774_23514">
<rect width="50" height="50" fill="white"/>
</clipPath>
</defs>
</svg>
