<svg width="52" height="50" viewBox="0 0 52 50" fill="none" xmlns="http://www.w3.org/2000/svg">
<path d="M47.0034 0H4.99628C2.31112 0.00280232 0.135127 2.1788 0.132324 4.86396V14.1056C0.135127 16.7907 2.31112 18.9667 4.99628 18.9695H47.0034C49.6886 18.9667 51.8646 16.7907 51.8674 14.1056V4.86396C51.8646 2.1788 49.6886 0.00280232 47.0034 0ZM50.1429 14.1056C50.1409 15.8387 48.7365 17.2431 47.0034 17.245H4.99628C3.26316 17.2431 1.85877 15.8387 1.85683 14.1056V4.86396C1.85877 3.13083 3.26316 1.72644 4.99628 1.7245H47.0034C48.7365 1.72644 50.1409 3.13083 50.1429 4.86396V14.1056Z" fill="#1CA8CB"/>
<path d="M9.53988 20.5264C9.0637 20.5264 8.67763 20.9124 8.67763 21.3886V25.0851C8.68108 26.3552 8.17623 27.5739 7.27561 28.4694C6.1299 29.5636 4.3265 29.5636 3.18078 28.4694C2.56675 27.8524 2.56923 26.8544 3.18617 26.2404C3.47308 25.9549 3.85894 25.7906 4.26377 25.7818C4.69403 25.7757 5.10867 25.9432 5.41401 26.2465L5.48472 26.3164C5.82875 26.6457 6.37456 26.6336 6.70383 26.2894C7.02545 25.9533 7.02243 25.4227 6.69704 25.0903L6.62978 25.0239C6.01435 24.4029 5.17592 24.0546 4.30171 24.0564H4.22842C2.4054 24.0941 0.958115 25.6025 0.995838 27.4256C1.01351 28.277 1.35949 29.0888 1.96156 29.6912C3.76571 31.4952 6.69068 31.4952 8.49483 29.6912C9.71998 28.4731 10.4069 26.8154 10.4021 25.0877V21.3886C10.4021 20.9124 10.0161 20.5264 9.53988 20.5264Z" fill="#1CA8CB"/>
<path d="M15.6529 21.5557C15.1767 21.5557 14.7906 21.9417 14.7906 22.4179V25.3004C14.7987 28.1965 13.6477 30.9753 11.5943 33.0176C11.2518 33.3485 11.2423 33.8943 11.5732 34.2368C11.904 34.5793 12.4498 34.5888 12.7924 34.2579C12.7996 34.251 12.8066 34.2439 12.8135 34.2368C15.1915 31.8721 16.5245 28.654 16.5151 25.3004V22.4179C16.5151 21.9417 16.1291 21.5557 15.6529 21.5557Z" fill="#1CA8CB"/>
<path d="M21.6889 25.8682C21.2127 25.8682 20.8267 26.2542 20.8267 26.7304V35.3529C20.8267 35.8291 21.2127 36.2152 21.6889 36.2152C22.1651 36.2152 22.5512 35.8291 22.5512 35.3529V26.7304C22.5512 26.2542 22.1651 25.8682 21.6889 25.8682Z" fill="#1CA8CB"/>
<path d="M21.6889 20.6934C21.2127 20.6934 20.8267 21.0794 20.8267 21.5556V23.2801C20.8267 23.7563 21.2127 24.1424 21.6889 24.1424C22.1651 24.1424 22.5512 23.7563 22.5512 23.2801V21.5556C22.5512 21.0794 22.1651 20.6934 21.6889 20.6934Z" fill="#1CA8CB"/>
<path d="M50.0286 25.0196C49.4277 24.4207 48.6194 24.0761 47.7713 24.0573C46.8747 24.0408 46.0095 24.3883 45.3734 25.0204L45.3027 25.0903C44.9585 25.4194 44.9466 25.9652 45.2757 26.3094C45.6049 26.6535 46.1507 26.6656 46.4948 26.3363C46.5016 26.3297 46.5084 26.3232 46.515 26.3164L46.5891 26.2431C46.8944 25.9422 47.3074 25.7761 47.7359 25.7818C48.6063 25.7988 49.298 26.5183 49.281 27.3886C49.273 27.7961 49.1075 28.1848 48.819 28.4729C47.6733 29.5671 45.8699 29.5671 44.7242 28.4729C43.8236 27.5773 43.3187 26.3586 43.3222 25.0885V21.3886C43.3222 20.9124 42.9361 20.5264 42.4599 20.5264C41.9838 20.5264 41.5977 20.9124 41.5977 21.3886V25.0851C41.5925 26.8125 42.2788 28.4702 43.5033 29.6886C45.3074 31.4926 48.2324 31.4926 50.0365 29.6886C51.3236 28.3971 51.3201 26.3067 50.0286 25.0196Z" fill="#1CA8CB"/>
<path d="M40.4058 33.0176C38.3523 30.9753 37.2013 28.1965 37.2094 25.3004V22.4179C37.2094 21.9417 36.8233 21.5557 36.3472 21.5557C35.871 21.5557 35.4849 21.9417 35.4849 22.4179V25.3004C35.4755 28.654 36.8086 31.8721 39.1866 34.2368C39.5291 34.5677 40.0749 34.5582 40.4058 34.2157C40.7286 33.8815 40.7286 33.3517 40.4058 33.0176Z" fill="#1CA8CB"/>
<path d="M30.3115 25.8682C29.8353 25.8682 29.4492 26.2542 29.4492 26.7304V35.3529C29.4492 35.8291 29.8353 36.2152 30.3115 36.2152C30.7876 36.2152 31.1737 35.8291 31.1737 35.3529V26.7304C31.1737 26.2542 30.7876 25.8682 30.3115 25.8682Z" fill="#1CA8CB"/>
<path d="M30.3115 20.6934C29.8353 20.6934 29.4492 21.0794 29.4492 21.5556V23.2801C29.4492 23.7563 29.8353 24.1424 30.3115 24.1424C30.7876 24.1424 31.1737 23.7563 31.1737 23.2801V21.5556C31.1737 21.0794 30.7876 20.6934 30.3115 20.6934Z" fill="#1CA8CB"/>
<path d="M46.6936 13.7959H5.30561C4.82943 13.7959 4.44336 14.182 4.44336 14.6581C4.44336 15.1343 4.82943 15.5204 5.30561 15.5204H46.6936C47.1698 15.5204 47.5559 15.1343 47.5559 14.6581C47.5559 14.182 47.1698 13.7959 46.6936 13.7959Z" fill="#1CA8CB"/>
<path d="M46.6941 10.3477H5.3061C4.82992 10.3477 4.44385 10.7337 4.44385 11.2099C4.44385 11.6861 4.82992 12.0722 5.3061 12.0722H46.6941C47.1703 12.0722 47.5564 11.6861 47.5564 11.2099C47.5564 10.7337 47.1703 10.3477 46.6941 10.3477Z" fill="#1CA8CB"/>
<path d="M45.8317 3.44922H42.3827C40.954 3.44922 39.7959 4.60733 39.7959 6.03597C39.7959 7.46461 40.954 8.62272 42.3827 8.62272H45.8317C47.2603 8.62272 48.4184 7.46461 48.4184 6.03597C48.4184 4.60733 47.2603 3.44922 45.8317 3.44922ZM45.8317 6.89822H42.3827C41.9065 6.89822 41.5204 6.51215 41.5204 6.03597C41.5204 5.55979 41.9065 5.17372 42.3827 5.17372H45.8317C46.3078 5.17372 46.6939 5.55979 46.6939 6.03597C46.6939 6.51215 46.3078 6.89822 45.8317 6.89822Z" fill="#1CA8CB"/>
<path d="M36.3465 5.17285H34.622C34.1458 5.17285 33.7598 5.55892 33.7598 6.0351C33.7598 6.51128 34.1458 6.89735 34.622 6.89735H36.3465C36.8227 6.89735 37.2088 6.51128 37.2088 6.0351C37.2088 5.55892 36.8227 5.17285 36.3465 5.17285Z" fill="#1CA8CB"/>
<path d="M31.1737 5.17285H29.4492C28.973 5.17285 28.5869 5.55892 28.5869 6.0351C28.5869 6.51128 28.973 6.89735 29.4492 6.89735H31.1737C31.6498 6.89735 32.0359 6.51128 32.0359 6.0351C32.0359 5.55892 31.6498 5.17285 31.1737 5.17285Z" fill="#1CA8CB"/>
<path d="M46.1882 43.9754L47.3031 42.8605C47.6397 42.5238 47.6397 41.978 47.3031 41.6413C46.9664 41.3047 46.4206 41.3047 46.0839 41.6413L44.612 43.1132H43.9481C43.6872 42.3828 43.1124 41.8081 42.3822 41.5473V40.8834L43.8541 39.4115C44.185 39.069 44.1755 38.5232 43.833 38.1923C43.4988 37.8695 42.969 37.8695 42.6349 38.1923L41.52 39.3072L40.4051 38.1923C40.0626 37.8614 39.5167 37.8709 39.1859 38.2134C38.8631 38.5475 38.8631 39.0774 39.1859 39.4115L40.6577 40.8834V41.5473C39.9275 41.8081 39.3527 42.3829 39.0919 43.1132H38.4279L36.9561 41.6413C36.6136 41.3104 36.0677 41.3199 35.7369 41.6624C35.4141 41.9965 35.4141 42.5264 35.7369 42.8605L36.8517 43.9754L35.7369 45.0903C35.3943 45.4212 35.3848 45.967 35.7157 46.3095C36.0466 46.6521 36.5924 46.6615 36.935 46.3307C36.9421 46.3238 36.9492 46.3166 36.9561 46.3095L38.4279 44.8377H39.0919C39.3527 45.5679 39.9275 46.1427 40.6577 46.4035V47.0674L39.1859 48.5393C38.855 48.8818 38.8645 49.4276 39.207 49.7585C39.5411 50.0813 40.071 50.0813 40.4051 49.7585L41.52 48.6436L42.6349 49.7585C42.9774 50.0894 43.5232 50.0799 43.8541 49.7374C44.1769 49.4033 44.1769 48.8734 43.8541 48.5393L42.3822 47.0674V46.4035C43.1126 46.1427 43.6872 45.5679 43.9481 44.8377H44.612L46.0839 46.3095C46.4264 46.6404 46.9722 46.6309 47.3031 46.2884C47.6259 45.9543 47.6259 45.4244 47.3031 45.0903L46.1882 43.9754ZM41.52 44.8377C41.0438 44.8377 40.6577 44.4516 40.6577 43.9754C40.6577 43.4992 41.0438 43.1132 41.52 43.1132C41.9962 43.1132 42.3822 43.4992 42.3822 43.9754C42.3822 44.4516 41.9962 44.8377 41.52 44.8377Z" fill="#1CA8CB"/>
<path d="M21.4359 43.3657L20.321 42.2508L21.4359 41.1359C21.7668 40.7934 21.7573 40.2476 21.4148 39.9167C21.0807 39.594 20.5509 39.594 20.2167 39.9167L18.7448 41.3886H18.0809C17.8201 40.6582 17.2453 40.0835 16.515 39.8227V39.1588L17.9869 37.6869C18.3178 37.3444 18.3083 36.7986 17.9658 36.4677C17.6317 36.145 17.1019 36.145 16.7677 36.4677L15.6528 37.5826L14.5379 36.4677C14.1954 36.1368 13.6496 36.1463 13.3187 36.4888C12.996 36.8229 12.996 37.3527 13.3187 37.6869L14.7905 39.1588V39.8227C14.0603 40.0835 13.4855 40.6583 13.2247 41.3886H12.5608L11.0889 39.9167C10.7464 39.5858 10.2006 39.5953 9.86967 39.9378C9.54686 40.2719 9.54686 40.8018 9.86967 41.1359L10.9846 42.2508L9.86967 43.3657C9.52714 43.6966 9.51766 44.2424 9.84854 44.5849C10.1794 44.9274 10.7252 44.9369 11.0678 44.606C11.075 44.5991 11.082 44.592 11.0889 44.5849L12.5608 43.1131H13.2247C13.4855 43.8433 14.0603 44.4181 14.7905 44.6789V45.3428L13.3187 46.8147C12.9878 47.1572 12.9973 47.703 13.3398 48.0339C13.6739 48.3566 14.2037 48.3566 14.5379 48.0339L15.6528 46.919L16.7677 48.0339C17.1102 48.3647 17.656 48.3553 17.9869 48.0128C18.3096 47.6787 18.3096 47.1489 17.9869 46.8147L16.515 45.3428V44.6789C17.2454 44.4181 17.8201 43.8433 18.0809 43.1131H18.7448L20.2167 44.5849C20.5592 44.9157 21.1051 44.9063 21.4359 44.5638C21.7586 44.2296 21.7586 43.6998 21.4359 43.3657ZM15.6528 43.1131C15.1766 43.1131 14.7905 42.727 14.7905 42.2508C14.7905 41.7746 15.1766 41.3886 15.6528 41.3886C16.129 41.3886 16.515 41.7746 16.515 42.2508C16.515 42.727 16.129 43.1131 15.6528 43.1131Z" fill="#1CA8CB"/>
</svg>
