<svg width="25" height="24" viewBox="0 0 25 24" fill="none" xmlns="http://www.w3.org/2000/svg">
<path d="M12.334 22L10.334 16H2.33398L4.33398 22H12.334ZM12.334 22H16.334" stroke="#113D48" stroke-width="1.5" stroke-linecap="round" stroke-linejoin="round"/>
<path d="M12.334 13V12.5C12.334 10.6144 12.334 9.67157 11.7482 9.08579C11.1624 8.5 10.2196 8.5 8.33398 8.5C6.44836 8.5 5.50555 8.5 4.91977 9.08579C4.33398 9.67157 4.33398 10.6144 4.33398 12.5V13" stroke="#113D48" stroke-width="1.5" stroke-linecap="round" stroke-linejoin="round"/>
<path d="M19.334 13C19.334 14.1046 18.4386 15 17.334 15C16.2294 15 15.334 14.1046 15.334 13C15.334 11.8954 16.2294 11 17.334 11C18.4386 11 19.334 11.8954 19.334 13Z" stroke="#113D48" stroke-width="1.5"/>
<path d="M10.334 4C10.334 5.10457 9.43855 6 8.33398 6C7.22941 6 6.33398 5.10457 6.33398 4C6.33398 2.89543 7.22941 2 8.33398 2C9.43855 2 10.334 2.89543 10.334 4Z" stroke="#113D48" stroke-width="1.5"/>
<path d="M14.334 17.5H20.334C21.4386 17.5 22.334 18.3954 22.334 19.5V20C22.334 21.1046 21.4386 22 20.334 22H19.334" stroke="#113D48" stroke-width="1.5" stroke-linecap="round"/>
</svg>
