<svg width="76" height="80" viewBox="0 0 76 80" fill="none" xmlns="http://www.w3.org/2000/svg">
<g opacity="0.2">
<path d="M68.0833 73.3337H7.91667C3.553 73.3337 0 69.5937 0 65.0003V58.3337C0 57.4137 0.709333 56.667 1.58333 56.667H3.16667C6.6595 56.667 9.5 53.677 9.5 50.0003C9.5 46.3237 6.6595 43.3337 3.16667 43.3337H1.58333C0.709333 43.3337 0 42.587 0 41.667V35.0003C0 30.407 3.553 26.667 7.91667 26.667H68.0833C72.447 26.667 76 30.407 76 35.0003V41.667C76 42.587 75.2907 43.3337 74.4167 43.3337H72.8333C69.3405 43.3337 66.5 46.3237 66.5 50.0003C66.5 51.7803 67.1587 53.4537 68.3557 54.7137C69.5495 55.9737 71.1392 56.667 72.8302 56.667H74.4135C75.2875 56.667 75.9968 57.4137 75.9968 58.3337V65.0003C76 69.5937 72.447 73.3337 68.0833 73.3337ZM3.16667 60.0003V65.0003C3.16667 67.757 5.29783 70.0003 7.91667 70.0003H68.0833C70.7022 70.0003 72.8333 67.757 72.8333 65.0003V60.0003C70.2968 60.0003 67.9092 58.9603 66.1168 57.0737C64.3213 55.1837 63.3333 52.6703 63.3333 50.0003C63.3333 44.487 67.5957 40.0003 72.8333 40.0003V35.0003C72.8333 32.2437 70.7022 30.0003 68.0833 30.0003H7.91667C5.29783 30.0003 3.16667 32.2437 3.16667 35.0003V40.0003C8.40433 40.0003 12.6667 44.487 12.6667 50.0003C12.6667 55.5137 8.40433 60.0003 3.16667 60.0003Z" fill="#113D48"/>
<path d="M26.9173 33.3337C26.0433 33.3337 25.334 32.587 25.334 31.667V28.3337C25.334 27.4137 26.0433 26.667 26.9173 26.667C27.7913 26.667 28.5007 27.4137 28.5007 28.3337V31.667C28.5007 32.587 27.7913 33.3337 26.9173 33.3337Z" fill="#113D48"/>
<path d="M26.9173 61.5362C26.0433 61.5362 25.334 60.7896 25.334 59.8696V54.2329C25.334 53.3129 26.0433 52.5662 26.9173 52.5662C27.7913 52.5662 28.5007 53.3096 28.5007 54.2329V59.8729C28.5007 60.7929 27.7913 61.5362 26.9173 61.5362ZM26.9173 47.4362C26.0433 47.4362 25.334 46.6896 25.334 45.7696V40.1296C25.334 39.2096 26.0433 38.4629 26.9173 38.4629C27.7913 38.4629 28.5007 39.2096 28.5007 40.1296V45.7696C28.5007 46.6896 27.7913 47.4362 26.9173 47.4362Z" fill="#113D48"/>
<path d="M26.9173 73.3337C26.0433 73.3337 25.334 72.587 25.334 71.667V68.3337C25.334 67.4137 26.0433 66.667 26.9173 66.667C27.7913 66.667 28.5007 67.4137 28.5007 68.3337V71.667C28.5007 72.587 27.7913 73.3337 26.9173 73.3337Z" fill="#113D48"/>
<path d="M7.91728 29.9998C7.27444 29.9998 6.66961 29.5864 6.43528 28.9164C6.12811 28.0531 6.54295 27.0931 7.36311 26.7731L57.7131 6.98308C60.1609 6.01642 63.0363 7.46308 63.8723 10.0598L69.5818 27.7964C69.8604 28.6698 69.4171 29.6131 68.5906 29.9098C67.7704 30.2064 66.8648 29.7364 66.5829 28.8664L60.8734 11.1298C60.5948 10.2631 59.6384 9.78975 58.8183 10.1031L8.46828 29.8931C8.28778 29.9664 8.10094 29.9998 7.91728 29.9998Z" fill="#113D48"/>
</g>
</svg>
