<svg width="80" height="80" viewBox="0 0 80 80" fill="none" xmlns="http://www.w3.org/2000/svg">
<g opacity="0.2" clip-path="url(#clip0_2871_9399)">
<path d="M79.9235 9.56454C79.7398 8.99889 79.2508 8.58653 78.6624 8.50091L71.4061 7.44556L68.16 0.87081C67.8967 0.337511 67.3536 0 66.7589 0C66.1642 0 65.621 0.337667 65.3577 0.871123L62.1132 7.44556L54.8571 8.50091C54.2685 8.58653 53.7795 8.99889 53.5959 9.56454C53.4123 10.1302 53.5656 10.7511 53.9914 11.1662L59.2422 16.2837L58.0028 23.5117C57.9023 24.098 58.1433 24.6905 58.6245 25.0401C59.1014 25.3865 59.7391 25.438 60.2702 25.1588L66.7587 21.7459L73.2488 25.1588C73.7754 25.4355 74.4133 25.3896 74.8943 25.0401C75.3756 24.6905 75.6165 24.098 75.516 23.5117L74.2766 16.2837L79.5274 11.1662C79.954 10.7511 80.1073 10.1302 79.9235 9.56454ZM71.5076 14.6191C71.1393 14.978 70.9712 15.4952 71.0581 16.0023L71.9012 20.9193L67.4861 18.5976C67.2584 18.4778 67.0086 18.4181 66.7589 18.4181C66.5092 18.4181 66.2592 18.4781 66.0315 18.5976L61.6184 20.9188L62.4615 16.0023C62.5484 15.4954 62.3803 14.978 62.012 14.6191L58.44 11.1379L63.3759 10.4199C63.8849 10.3458 64.3246 10.0263 64.5522 9.56501L66.7592 5.09267L68.9674 9.56532C69.195 10.0263 69.6347 10.3458 70.1435 10.4199L75.0795 11.1379L71.5076 14.6191Z" fill="#113D48"/>
<path d="M33.6715 15.3927L36.9856 12.0786C37.5958 11.4684 37.5958 10.479 36.9856 9.86865C36.3755 9.25863 35.386 9.25863 34.7757 9.86865L31.4615 13.1828C30.8514 13.793 30.8514 14.7824 31.4615 15.3927C32.072 16.0029 33.0613 16.0028 33.6715 15.3927Z" fill="#113D48"/>
<path d="M40.2984 22.0232L43.6143 18.7075C44.2245 18.0973 44.2245 17.1079 43.6143 16.4976C43.0041 15.8877 42.015 15.8874 41.4044 16.4976L38.0885 19.8133C37.4783 20.4235 37.4783 21.4129 38.0885 22.0232C38.699 22.6335 39.6879 22.6334 40.2984 22.0232Z" fill="#113D48"/>
<path d="M63.5028 36.3852C62.8925 35.7752 61.9031 35.7752 61.2929 36.3852L57.9772 39.7011C57.367 40.3113 57.367 41.3007 57.9772 41.9111C58.5875 42.5212 59.5767 42.5212 60.1871 41.9111L63.5028 38.5952C64.113 37.985 64.113 36.9956 63.5028 36.3852Z" fill="#113D48"/>
<path d="M67.9202 43.0151L64.6061 46.3293C63.9959 46.9395 63.9959 47.9289 64.6061 48.5392C65.2166 49.1494 66.2055 49.1492 66.816 48.5392L70.1302 45.2251C70.7403 44.6149 70.7403 43.6255 70.1302 43.0151C69.5197 42.4051 68.5306 42.4051 67.9202 43.0151Z" fill="#113D48"/>
<path d="M8.43555 73.127C9.29849 73.127 9.99805 72.4274 9.99805 71.5645C9.99805 70.7015 9.29849 70.002 8.43555 70.002C7.5726 70.002 6.87305 70.7015 6.87305 71.5645C6.87305 72.4274 7.5726 73.127 8.43555 73.127Z" fill="#113D48"/>
<path d="M40.4674 70.471C33.6472 77.2899 23.3363 78.8557 14.8099 74.3677C14.0461 73.9658 13.1012 74.2588 12.6993 75.0224C12.2973 75.7862 12.5906 76.7311 13.354 77.133C22.6587 82.0311 34.6352 80.7212 42.677 72.681C44.0802 71.2776 57.8751 57.4814 60.1872 55.1693C60.7972 54.5591 60.797 53.5699 60.187 52.9595L50.2429 43.0154C49.9498 42.7225 49.5523 42.5578 49.1379 42.5578C48.7235 42.5578 48.3261 42.7225 48.033 43.0156L30.5232 60.5268C27.4701 63.58 22.5265 63.5803 19.4732 60.5268C16.4202 57.4742 16.4196 52.5301 19.4732 49.4769L36.9845 31.9669C37.2775 31.6738 37.4423 31.2765 37.4423 30.8621C37.4423 30.4477 37.2778 30.0502 36.9847 29.757L27.0406 19.8129C26.4306 19.2029 25.4413 19.2031 24.831 19.8128C23.1186 21.5252 9.20516 35.4372 7.31916 37.3231C-0.716892 45.3605 -2.0335 57.3359 2.86698 66.6456C3.26902 67.4094 4.21421 67.7024 4.97752 67.3003C5.74114 66.8984 6.03427 65.9535 5.63238 65.1898C1.14426 56.6636 2.71025 46.3526 9.52907 39.5327L19.3061 29.7564L27.0404 37.4907L17.2632 47.2671C12.989 51.5415 12.9886 58.4619 17.2632 62.7367C21.5376 67.0111 28.4581 67.0116 32.733 62.7367L42.5092 52.9597L50.2436 60.694L40.4674 70.471ZM21.516 27.5468L25.9356 23.1277L33.6699 30.8619L29.2504 35.2811L21.516 27.5468ZM44.719 50.7498L49.1382 46.3302L56.8724 54.0646L52.4533 58.4841L44.719 50.7498Z" fill="#113D48"/>
</g>
<defs>
<clipPath id="clip0_2871_9399">
<rect width="80" height="80" fill="white"/>
</clipPath>
</defs>
</svg>
