<svg width="80" height="80" viewBox="0 0 80 80" fill="none" xmlns="http://www.w3.org/2000/svg">
<g opacity="0.2" clip-path="url(#clip0_2871_9394)">
<path d="M73.4375 8.125H71.5625V4.99207C71.5625 2.23938 69.3231 0 66.5704 0C63.8184 0 61.579 2.23938 61.579 4.99207V8.125H45.0116V4.99207C45.0116 2.23938 42.7722 0 40.0201 0C37.2675 0 35.0281 2.23938 35.0281 4.99207V8.125H18.421V4.99207C18.421 2.23938 16.1816 0 13.4296 0C10.6769 0 8.4375 2.23938 8.4375 4.99207V8.125H6.5625C2.94373 8.125 0 11.0687 0 14.6875V73.4375C0 77.0563 2.94373 80 6.5625 80H73.4375C77.0563 80 80 77.0563 80 73.4375V14.6875C80 11.0687 77.0563 8.125 73.4375 8.125ZM64.704 4.99207C64.704 3.9624 65.5414 3.125 66.5704 3.125C67.6001 3.125 68.4375 3.9624 68.4375 4.99207V13.7579C68.4375 14.7876 67.6001 15.625 66.5704 15.625C65.5414 15.625 64.704 14.7876 64.704 13.7579V4.99207ZM38.1531 4.99207C38.1531 3.9624 38.9905 3.125 40.0201 3.125C41.0492 3.125 41.8866 3.9624 41.8866 4.99207V13.7579C41.8866 14.7876 41.0492 15.625 40.0201 15.625C38.9905 15.625 38.1531 14.7876 38.1531 13.7579V4.99207ZM11.5625 4.99207C11.5625 3.9624 12.3999 3.125 13.4296 3.125C14.4586 3.125 15.296 3.9624 15.296 4.99207V13.7579C15.296 14.7876 14.4586 15.625 13.4296 15.625C12.3999 15.625 11.5625 14.7876 11.5625 13.7579V4.99207ZM6.5625 11.25H8.4375V13.7579C8.4375 16.5106 10.6769 18.75 13.4296 18.75C16.1816 18.75 18.421 16.5106 18.421 13.7579V11.25H35.0281V13.7579C35.0281 16.5106 37.2675 18.75 40.0201 18.75C42.7722 18.75 45.0116 16.5106 45.0116 13.7579V11.25H61.579V13.7579C61.579 16.5106 63.8184 18.75 66.5704 18.75C69.3231 18.75 71.5625 16.5106 71.5625 13.7579V11.25H73.4375C75.3333 11.25 76.875 12.7917 76.875 14.6875V26.875H47.0312C46.1682 26.875 45.4688 27.5745 45.4688 28.4375C45.4688 29.3005 46.1682 30 47.0312 30H76.875V67.1875C76.875 69.0833 75.3333 70.625 73.4375 70.625H6.5625C4.66675 70.625 3.125 69.0833 3.125 67.1875V30H32.9688C33.8318 30 34.5312 29.3005 34.5312 28.4375C34.5312 27.5745 33.8318 26.875 32.9688 26.875H3.125V14.6875C3.125 12.7917 4.66675 11.25 6.5625 11.25ZM73.4375 76.875H6.5625C4.66675 76.875 3.125 75.3333 3.125 73.4375V72.7747C4.12537 73.3923 5.30273 73.75 6.5625 73.75H73.4375C74.6973 73.75 75.8746 73.3923 76.875 72.7747V73.4375C76.875 75.3333 75.3333 76.875 73.4375 76.875Z" fill="#113D48"/>
<path d="M40 30C40.4108 30 40.8142 29.8328 41.1047 29.5422C41.3953 29.2517 41.5625 28.8483 41.5625 28.4375C41.5625 28.0267 41.3953 27.6233 41.1047 27.3328C40.8142 27.0422 40.4108 26.875 40 26.875C39.5892 26.875 39.1858 27.0422 38.8953 27.3328C38.6047 27.6233 38.4375 28.0267 38.4375 28.4375C38.4375 28.8483 38.6047 29.2517 38.8953 29.5422C39.1858 29.8328 39.5892 30 40 30Z" fill="#113D48"/>
<path d="M28.1186 43.6066C26.7575 43.8043 25.6479 44.74 25.2231 46.048C24.7983 47.356 25.1456 48.7646 26.1307 49.7247L30.4666 53.9508L29.4431 59.9182C29.2105 61.2738 29.7568 62.6178 30.8695 63.4265C31.9822 64.2346 33.4299 64.3396 34.6469 63.6993L40.0064 60.882L45.3653 63.6993C45.8951 63.9777 46.4676 64.1156 47.0377 64.1156C47.7787 64.1156 48.5141 63.8831 49.1428 63.4265C50.2555 62.6178 50.8023 61.2738 50.5698 59.9182L49.5462 53.9508L53.8822 49.7247C54.8667 48.7646 55.2146 47.356 54.7898 46.048C54.3644 44.74 53.2553 43.8043 51.8943 43.6066L45.9024 42.7362L43.223 37.3065C42.6139 36.0736 41.3816 35.3076 40.0064 35.3076C38.6313 35.3076 37.399 36.0736 36.7905 37.3065L34.1104 42.7362L28.1186 43.6066ZM36.5488 44.856L39.592 38.6896C39.697 38.4772 39.8752 38.4326 40.0058 38.4326C40.1371 38.4326 40.3153 38.4772 40.4203 38.6896L43.4635 44.856C43.6911 45.3168 44.1306 45.6366 44.6396 45.7104L51.4444 46.6992C51.6788 46.7334 51.7765 46.889 51.8174 47.0135C51.8576 47.1381 51.8698 47.3212 51.7002 47.4866L46.7765 52.2864C46.4078 52.6459 46.24 53.1628 46.3266 53.6694L47.4894 60.4468C47.529 60.6805 47.4112 60.8215 47.3056 60.8984C47.1994 60.9753 47.0291 61.0443 46.8192 60.9338L40.7328 57.7338C40.5051 57.6141 40.2555 57.5543 40.0058 57.5543C39.7562 57.5543 39.5066 57.6141 39.2789 57.7338L33.1925 60.9338C32.9825 61.0443 32.8122 60.9753 32.706 60.8984C32.6004 60.8215 32.4826 60.6805 32.5223 60.4468L33.685 53.6694C33.7717 53.1628 33.6039 52.6459 33.2358 52.2864L28.3115 47.4866C28.1418 47.3212 28.154 47.1381 28.1949 47.0135C28.2352 46.889 28.3329 46.7334 28.5672 46.6992L35.372 45.7104C35.8811 45.6366 36.3211 45.3168 36.5488 44.856Z" fill="#113D48"/>
</g>
<defs>
<clipPath id="clip0_2871_9394">
<rect width="80" height="80" fill="white"/>
</clipPath>
</defs>
</svg>
