<svg width="27" height="23" viewBox="0 0 27 23" fill="none" xmlns="http://www.w3.org/2000/svg">
<path d="M26.0156 12.3945L16.2891 22.707C16.0547 22.9023 15.8203 23 15.5859 23C15.3125 23 15.0781 22.9219 14.8828 22.7656C14.4922 22.3359 14.4727 21.8867 14.8242 21.418L23.0859 12.6875H0.996094C0.371094 12.6094 0.0390625 12.3164 0 11.8086C0.0390625 11.2227 0.371094 10.8906 0.996094 10.8125H23.0859L14.8242 2.08203C14.4727 1.61328 14.4922 1.16406 14.8828 0.734375C15.3516 0.382812 15.8203 0.402344 16.2891 0.792969L26.0156 11.1055C26.3281 11.5352 26.3281 11.9648 26.0156 12.3945Z" fill="#113D48"/>
</svg>
