<svg width="64" height="64" viewBox="0 0 64 64" fill="none" xmlns="http://www.w3.org/2000/svg">
<path d="M41.3337 29.3333C41.3337 34.488 37.155 38.6667 32.0003 38.6667C26.8457 38.6667 22.667 34.488 22.667 29.3333C22.667 24.1787 26.8457 20 32.0003 20C37.155 20 41.3337 24.1787 41.3337 29.3333Z" stroke="#1C2D37" stroke-width="3"/>
<path d="M32 5.3335C44.9883 5.3335 56 16.0881 56 29.1356C56 42.3908 44.8088 51.6927 34.472 58.018C33.7187 58.4434 32.8667 58.6668 32 58.6668C31.1333 58.6668 30.2813 58.4434 29.528 58.018C19.2104 51.6311 8 42.4367 8 29.1356C8 16.0881 19.0118 5.3335 32 5.3335Z" stroke="#1C2D37" stroke-width="3"/>
</svg>
