<svg width="15" height="18" viewBox="0 0 15 18" fill="none" xmlns="http://www.w3.org/2000/svg">
<path d="M7.5006 9.69388C9.19992 9.69388 10.5773 8.39684 10.5773 6.79667C10.5773 5.19656 9.19992 3.89941 7.5006 3.89941C5.80128 3.89941 4.42383 5.19656 4.42383 6.79667C4.42383 8.39684 5.80128 9.69388 7.5006 9.69388Z" stroke="#113D48" stroke-width="1.5" stroke-miterlimit="10" stroke-linecap="round"/>
<path d="M7.50001 1C1.34648 1 0.320892 5.82876 1.34648 9.48899C2.249 12.6952 4.95655 14.8875 6.74109 16.6838C6.83716 16.7834 6.95436 16.8629 7.08505 16.9174C7.21575 16.9719 7.3571 17 7.50001 17C7.64292 17 7.78427 16.9719 7.91497 16.9174C8.04557 16.8629 8.16286 16.7834 8.25893 16.6838C10.0435 14.8875 12.751 12.6952 13.6535 9.48899C14.6791 5.82876 13.6535 1 7.50001 1Z" stroke="#113D48" stroke-width="1.5" stroke-miterlimit="10" stroke-linecap="round"/>
</svg>
