<svg width="90" height="93" viewBox="0 0 90 93" fill="none" xmlns="http://www.w3.org/2000/svg">
<path d="M89 72C89 77.1797 84.4616 82.1795 76.3969 85.9431C68.4134 89.6687 57.314 92 45 92C32.686 92 21.5866 89.6687 13.6031 85.9431C5.53837 82.1795 1 77.1797 1 72C1 66.8203 5.53837 61.8205 13.6031 58.0569C21.5866 54.3313 32.686 52 45 52C57.314 52 68.4134 54.3313 76.3969 58.0569C84.4616 61.8205 89 66.8203 89 72Z" fill="white" fill-opacity="0.2" stroke="white" stroke-width="2"/>
<ellipse cx="45" cy="72" rx="19" ry="9" fill="#113D48"/>
<path d="M54.3337 29.3333C54.3337 34.488 50.155 38.6667 45.0003 38.6667C39.8457 38.6667 35.667 34.488 35.667 29.3333C35.667 24.1787 39.8457 20 45.0003 20C50.155 20 54.3337 24.1787 54.3337 29.3333Z" stroke="#113D48" stroke-width="3"/>
<path d="M45 5.33301C57.9883 5.33301 69 16.0876 69 29.1351C69 42.3903 57.8088 51.6922 47.472 58.0175C46.7187 58.4429 45.8667 58.6663 45 58.6663C44.1333 58.6663 43.2813 58.4429 42.528 58.0175C32.2104 51.6306 21 42.4362 21 29.1351C21 16.0876 32.0118 5.33301 45 5.33301Z" stroke="#113D48" stroke-width="3"/>
</svg>
