<svg width="16" height="16" viewBox="0 0 16 16" fill="none" xmlns="http://www.w3.org/2000/svg">
<g clip-path="url(#clip0_196_12980)">
<path d="M12.4777 7.14307C12.3492 7.26494 12.1775 7.33301 11.9988 7.33301C11.82 7.33301 11.6483 7.26494 11.5198 7.14307C10.3432 6.0208 8.76637 4.76708 9.53537 2.94691C9.9511 1.96275 10.9492 1.33301 11.9988 1.33301C13.0484 1.33301 14.0464 1.96275 14.4622 2.94691C15.2302 4.76479 13.6572 6.02467 12.4777 7.14307Z" stroke="#113D48"/>
<path d="M12 4H12.006" stroke="#113D48" stroke-width="2" stroke-linecap="round" stroke-linejoin="round"/>
<path d="M3.33203 14.667C4.4366 14.667 5.33203 13.7716 5.33203 12.667C5.33203 11.5624 4.4366 10.667 3.33203 10.667C2.22746 10.667 1.33203 11.5624 1.33203 12.667C1.33203 13.7716 2.22746 14.667 3.33203 14.667Z" stroke="#113D48" stroke-linecap="round" stroke-linejoin="round"/>
<path d="M7.33333 4.66699H6.33333C5.04467 4.66699 4 5.56243 4 6.66699C4 7.77159 5.04467 8.66699 6.33333 8.66699H8.33333C9.622 8.66699 10.6667 9.56239 10.6667 10.667C10.6667 11.7716 9.622 12.667 8.33333 12.667H7.33333" stroke="#113D48" stroke-linecap="round" stroke-linejoin="round"/>
</g>
<defs>
<clipPath id="clip0_196_12980">
<rect width="16" height="16" fill="white"/>
</clipPath>
</defs>
</svg>
