<svg width="24" height="25" viewBox="0 0 24 25" fill="none" xmlns="http://www.w3.org/2000/svg">
<path d="M18.7185 11.2151C18.5258 11.3979 18.2682 11.5 18.0001 11.5C17.732 11.5 17.4744 11.3979 17.2817 11.2151C15.5167 9.53169 13.1515 7.65111 14.305 4.92085C14.9286 3.44462 16.4257 2.5 18.0001 2.5C19.5745 2.5 21.0715 3.44462 21.6952 4.92085C22.8472 7.64767 20.4878 9.53749 18.7185 11.2151Z" stroke="#6E7070"/>
<path d="M18 6.5H18.009" stroke="#6E7070" stroke-linecap="round" stroke-linejoin="round"/>
<path d="M5 22.5C6.65685 22.5 8 21.1569 8 19.5C8 17.8431 6.65685 16.5 5 16.5C3.34315 16.5 2 17.8431 2 19.5C2 21.1569 3.34315 22.5 5 22.5Z" stroke="#6E7070" stroke-linecap="round" stroke-linejoin="round"/>
<path d="M11 7.5H9.5C7.567 7.5 6 8.84315 6 10.5C6 12.1569 7.567 13.5 9.5 13.5H12.5C14.433 13.5 16 14.8431 16 16.5C16 18.1569 14.433 19.5 12.5 19.5H11" stroke="#6E7070" stroke-linecap="round" stroke-linejoin="round"/>
</svg>
