<svg width="32" height="33" viewBox="0 0 32 33" fill="none" xmlns="http://www.w3.org/2000/svg">
<path d="M24.9574 14.7871C24.7004 15.0309 24.357 15.167 23.9995 15.167C23.642 15.167 23.2986 15.0309 23.0416 14.7871C20.6883 12.5426 17.5347 10.0351 19.0727 6.39479C19.9042 4.42649 21.9003 3.16699 23.9995 3.16699C26.0987 3.16699 28.0947 4.42649 28.9263 6.39479C30.4623 10.0306 27.3164 12.5503 24.9574 14.7871Z" stroke="#405749" stroke-width="1.5"/>
<path d="M24 8.5H24.012" stroke="#405749" stroke-width="2" stroke-linecap="round" stroke-linejoin="round"/>
<path d="M6.66602 29.833C8.87515 29.833 10.666 28.0421 10.666 25.833C10.666 23.6239 8.87515 21.833 6.66602 21.833C4.45688 21.833 2.66602 23.6239 2.66602 25.833C2.66602 28.0421 4.45688 29.833 6.66602 29.833Z" stroke="#405749" stroke-width="1.5" stroke-linecap="round" stroke-linejoin="round"/>
<path d="M14.6667 9.83301H12.6667C10.0893 9.83301 8 11.6239 8 13.833C8 16.0422 10.0893 17.833 12.6667 17.833H16.6667C19.244 17.833 21.3333 19.6238 21.3333 21.833C21.3333 24.0422 19.244 25.833 16.6667 25.833H14.6667" stroke="#405749" stroke-width="1.5" stroke-linecap="round" stroke-linejoin="round"/>
</svg>
