<svg width="33" height="32" viewBox="0 0 33 32" fill="none" xmlns="http://www.w3.org/2000/svg">
<path d="M25.4574 14.2871C25.2004 14.5309 24.857 14.667 24.4995 14.667C24.142 14.667 23.7986 14.5309 23.5416 14.2871C21.1883 12.0426 18.0347 9.53514 19.5727 5.89479C20.4042 3.92649 22.4003 2.66699 24.4995 2.66699C26.5987 2.66699 28.5947 3.92649 29.4263 5.89479C30.9623 9.53055 27.8164 12.0503 25.4574 14.2871Z" stroke="#113D48" stroke-width="2"/>
<path d="M24.5 8H24.512" stroke="#113D48" stroke-width="2" stroke-linecap="round" stroke-linejoin="round"/>
<path d="M7.16602 29.333C9.37515 29.333 11.166 27.5421 11.166 25.333C11.166 23.1239 9.37515 21.333 7.16602 21.333C4.95688 21.333 3.16602 23.1239 3.16602 25.333C3.16602 27.5421 4.95688 29.333 7.16602 29.333Z" stroke="#113D48" stroke-width="2" stroke-linecap="round" stroke-linejoin="round"/>
<path d="M15.1667 9.33301H13.1667C10.5893 9.33301 8.5 11.1239 8.5 13.333C8.5 15.5422 10.5893 17.333 13.1667 17.333H17.1667C19.744 17.333 21.8333 19.1238 21.8333 21.333C21.8333 23.5422 19.744 25.333 17.1667 25.333H15.1667" stroke="#113D48" stroke-width="2" stroke-linecap="round" stroke-linejoin="round"/>
</svg>
