<svg width="33" height="32" viewBox="0 0 33 32" fill="none" xmlns="http://www.w3.org/2000/svg">
<path d="M3.16602 28.6583C4.89202 28.7862 6.34424 27.333 7.61046 27.333C8.87668 27.333 10.9323 28.6734 12.0549 28.6583C13.402 28.6697 14.9799 27.333 16.4993 27.333C18.0188 27.333 19.5967 28.6697 20.9437 28.6583C22.6697 28.7862 24.122 27.333 25.3883 27.333C26.6544 27.333 28.7101 28.6734 29.8327 28.6583" stroke="#113D48" stroke-width="2" stroke-linecap="round" stroke-linejoin="round"/>
<path d="M8.5 27.3333C6.60952 24.9781 5.27714 21.9637 4.70978 20.3664C4.52986 19.8599 4.43992 19.6067 4.54438 19.3645C4.64884 19.1225 4.90502 19.0091 5.41737 18.7821L15.4029 14.3589C15.9432 14.1196 16.2133 14 16.5 14C16.7867 14 17.0568 14.1196 17.5971 14.3589L27.5827 18.7821C28.0949 19.0091 28.3512 19.1225 28.4556 19.3645C28.5601 19.6067 28.4701 19.8599 28.2903 20.3664C27.7228 21.9637 26.3905 24.9781 24.5 27.3333" stroke="#113D48" stroke-width="2" stroke-linecap="round" stroke-linejoin="round"/>
<path d="M8.5 17.3337L8.78788 13.5913C8.96757 11.2552 9.05743 10.0871 9.82421 9.37707C10.591 8.66699 11.7625 8.66699 14.1055 8.66699H18.8945C21.2375 8.66699 22.4089 8.66699 23.1757 9.37707C23.9425 10.0871 24.0324 11.2552 24.2121 13.5913L24.5 17.3337" stroke="#113D48" stroke-width="2" stroke-linecap="round" stroke-linejoin="round"/>
<path d="M11.834 8.66634L12.0627 6.83688C12.2712 5.16849 12.3755 4.3343 12.9426 3.83365C13.5097 3.33301 14.3504 3.33301 16.0317 3.33301H16.9696C18.6509 3.33301 19.4916 3.33301 20.0587 3.83365C20.6259 4.3343 20.7301 5.16849 20.9387 6.83688L21.1673 8.66634" stroke="#113D48" stroke-width="2" stroke-linecap="round" stroke-linejoin="round"/>
</svg>
