<svg width="30" height="30" viewBox="0 0 30 30" fill="none" xmlns="http://www.w3.org/2000/svg">
<g clip-path="url(#clip0_2059_7669)">
<path d="M27.8915 5.90039H7.13305C6.88984 5.90039 6.69266 6.09751 6.69266 6.34078C6.69266 6.58405 6.88984 6.78117 7.13305 6.78117H27.8915C28.5685 6.78117 29.1193 7.33196 29.1193 8.00899V17.3859C29.1193 18.0629 28.5685 18.6137 27.8915 18.6137H26.8369V15.7443C26.8369 15.501 26.6397 15.3039 26.3965 15.3039H3.60346C3.36025 15.3039 3.16307 15.501 3.16307 15.7443V18.6137H2.10859C1.43157 18.6137 0.880783 18.0629 0.880783 17.3859V8.00899C0.880783 7.33196 1.43157 6.78117 2.10859 6.78117H5.37148C5.6147 6.78117 5.81188 6.58405 5.81188 6.34078C5.81188 6.09751 5.6147 5.90039 5.37148 5.90039H2.10859C0.945902 5.90039 0 6.84629 0 8.00899V17.3859C0 18.5486 0.945902 19.4945 2.10859 19.4945H6.69283C6.93605 19.4945 7.13323 19.2973 7.13323 19.0541C7.13323 18.8109 6.93605 18.6137 6.69283 18.6137H4.04385V17.8395H21.5457C21.7889 17.8395 21.986 17.6424 21.986 17.3991C21.986 17.1559 21.7889 16.9587 21.5457 16.9587H4.04385V16.1846H25.9561V16.9587H23.3072C23.064 16.9587 22.8668 17.1559 22.8668 17.3991C22.8668 17.6424 23.064 17.8395 23.3072 17.8395H25.9561V18.6137H8.45434C8.21113 18.6137 8.01395 18.8109 8.01395 19.0541C8.01395 19.2973 8.21113 19.4945 8.45434 19.4945H27.8915C29.0542 19.4945 30.0001 18.5486 30.0001 17.3859V8.00899C30 6.84635 29.0541 5.90039 27.8915 5.90039Z" fill="black"/>
<path d="M26.3962 9.48137C26.6394 9.48137 26.8365 9.28425 26.8365 9.04098C26.8365 8.79771 26.6394 8.60059 26.3962 8.60059H25.0937C24.8505 8.60059 24.6533 8.79771 24.6533 9.04098C24.6533 9.28425 24.8505 9.48137 25.0937 9.48137H26.3962Z" fill="black"/>
<path d="M23.0845 9.48137C23.3277 9.48137 23.5249 9.28425 23.5249 9.04098C23.5249 8.79771 23.3277 8.60059 23.0845 8.60059H14.749C14.5058 8.60059 14.3086 8.79771 14.3086 9.04098C14.3086 9.28425 14.5058 9.48137 14.749 9.48137H23.0845Z" fill="black"/>
<path d="M8.28439 20.6729C8.04118 20.6729 7.844 20.87 7.844 21.1132C7.844 21.1263 7.82985 22.4319 6.60814 23.3002C6.40991 23.4411 6.3634 23.7161 6.50433 23.9143C6.59023 24.0352 6.72587 24.0996 6.86369 24.0996C6.95194 24.0996 7.04108 24.0731 7.11847 24.0181C8.70658 22.8893 8.72484 21.1852 8.72484 21.1132C8.72478 20.87 8.5276 20.6729 8.28439 20.6729Z" fill="black"/>
<path d="M11.4375 20.6729C11.1942 20.6729 10.9971 20.87 10.9971 21.1132V23.6592C10.9971 23.9024 11.1942 24.0996 11.4375 24.0996C11.6807 24.0996 11.8779 23.9024 11.8779 23.6592V21.1132C11.8779 20.87 11.6807 20.6729 11.4375 20.6729Z" fill="black"/>
<path d="M15.124 20.6729C14.8808 20.6729 14.6836 20.87 14.6836 21.1132V23.6592C14.6836 23.9024 14.8808 24.0996 15.124 24.0996C15.3672 24.0996 15.5644 23.9024 15.5644 23.6592V21.1132C15.5644 20.87 15.3672 20.6729 15.124 20.6729Z" fill="black"/>
<path d="M23.392 23.3002C22.1868 22.4436 22.1568 21.1698 22.1562 21.1112C22.1551 20.8689 21.9583 20.6729 21.7158 20.6729C21.4726 20.6729 21.2754 20.87 21.2754 21.1132C21.2754 21.1852 21.2937 22.8894 22.8818 24.0182C22.9592 24.0732 23.0483 24.0997 23.1365 24.0997C23.2743 24.0996 23.41 24.0352 23.4959 23.9144C23.6368 23.7161 23.5903 23.4411 23.392 23.3002Z" fill="black"/>
<path d="M18.5625 20.6729C18.3192 20.6729 18.1221 20.87 18.1221 21.1132V23.6592C18.1221 23.9024 18.3192 24.0996 18.5625 24.0996C18.8057 24.0996 19.0029 23.9024 19.0029 23.6592V21.1132C19.0029 20.87 18.8057 20.6729 18.5625 20.6729Z" fill="black"/>
</g>
<defs>
<clipPath id="clip0_2059_7669">
<rect width="30" height="30" fill="white"/>
</clipPath>
</defs>
</svg>
