<svg width="22" height="30" viewBox="0 0 22 30" fill="none" xmlns="http://www.w3.org/2000/svg">
<path d="M20.5 0H1.5C0.673008 0 0 0.673008 0 1.5V26.5C0 27.327 0.673008 28 1.5 28V29C1.5 29.5515 1.94848 30.0001 2.50002 30.0001H3.49998C4.05146 30.0001 4.5 29.5516 4.5 29V28H17.5V29C17.5 29.5515 17.9485 30.0001 18.5 30.0001H19.5001C20.0515 30.0001 20.5001 29.5516 20.5001 29V28C21.3271 28 22.0001 27.327 22.0001 26.5V1.5C22 0.673008 21.327 0 20.5 0ZM1.5 1.00002H20.5C20.776 1.00002 21 1.22449 21 1.5V16.5H0.999961V1.5C0.999961 1.22449 1.22449 1.00002 1.5 1.00002ZM3.99996 27H3.57094L4.37994 20.9335C4.41293 20.6865 4.62592 20.5 4.87547 20.5H17.1245C17.374 20.5 17.587 20.6865 17.62 20.9335L18.429 27H18H3.99996ZM3.49998 29H2.49996V28H3.49998V29ZM19.5 29H18.5V28H19.5V29ZM20.5 27H20H19.4381L18.6115 20.8015C18.512 20.0595 17.873 19.5 17.1245 19.5H4.87547C4.12647 19.5 3.48744 20.0595 3.38848 20.8015L2.56184 27H1.99998H1.5C1.22449 27 1.00002 26.776 1.00002 26.5V17.5H21V26.5C21 26.776 20.776 27 20.5 27Z" fill="black"/>
<path d="M7.99996 22.0633V22C7.99996 21.7235 7.77596 21.5 7.49998 21.5C7.224 21.5 7 21.7235 7 22V22.0633C6.13826 22.2858 5.5 23.0696 5.5 24C5.5 25.103 6.39701 26 7.49998 26C8.60295 26 9.49996 25.103 9.49996 24C9.49996 23.0696 8.8617 22.2858 7.99996 22.0633ZM7.49998 25C6.9485 25 6.49996 24.5516 6.49996 24C6.49996 23.6239 6.70879 23.296 7.01641 23.1253C7.07207 23.3409 7.26725 23.5 7.49998 23.5C7.73271 23.5 7.92789 23.3409 7.98355 23.1253C8.29117 23.296 8.5 23.6239 8.5 24C8.49994 24.5515 8.05146 25 7.49998 25Z" fill="black"/>
<path d="M15 22.0633V22C15 21.7235 14.7765 21.5 14.5 21.5C14.2235 21.5 14 21.7235 14 22V22.0633C13.1383 22.2858 12.5 23.0696 12.5 24C12.5 25.103 13.397 26 14.5 26C15.603 26 16.5 25.103 16.5 24C16.5 23.0696 15.8617 22.2858 15 22.0633ZM14.4999 25C13.9484 25 13.4999 24.5516 13.4999 24C13.4999 23.6239 13.7087 23.296 14.0163 23.1253C14.0718 23.3408 14.2667 23.5 14.4999 23.5C14.733 23.5 14.9279 23.3408 14.9834 23.1253C15.2911 23.296 15.4998 23.6239 15.4998 24C15.4999 24.5515 15.0515 25 14.4999 25Z" fill="black"/>
<path d="M10.7735 14.4845C10.8479 14.4945 10.9234 14.5002 11.0001 14.5002C11.0038 14.5002 11.0076 14.4999 11.0113 14.4999C11.0132 14.4999 11.0151 14.5002 11.017 14.5002C11.0228 14.5 11.0285 14.4994 11.0343 14.4992C11.0796 14.4982 11.1245 14.4956 11.1691 14.4911C13.3628 14.3356 15.069 12.4656 15.0001 10.2652C15.0001 8.26819 11.7606 4.15116 11.3906 3.68868C11.2006 3.4512 10.7991 3.45167 10.6091 3.68868C10.2396 4.15168 7.00003 8.26866 7.00003 10.2502C6.93253 12.436 8.59191 14.2864 10.7735 14.4845ZM9.99857 12.1572C10.0176 11.9407 10.3045 11.2062 10.9986 9.98668C11.6551 11.1422 11.9786 11.9117 12.0001 12.1392C12.0001 12.8514 11.5724 13.4573 11.0553 13.4979C11.0507 13.4981 11.0462 13.4985 11.0416 13.4987C11.0313 13.4993 11.021 13.4996 11.0107 13.4998C10.9755 13.4985 10.9407 13.496 10.9058 13.4935C10.406 13.4253 9.99998 12.8233 9.99857 12.1572ZM8.00005 10.2647C8.00005 9.03319 9.90353 6.2637 11.0001 4.81573C12.0966 6.26375 14.0001 9.03372 14.0001 10.2807C14.0304 11.2555 13.6069 12.1419 12.9275 12.7372C12.9734 12.5336 12.9983 12.3189 12.998 12.0962C12.9286 11.2953 11.8756 9.48325 11.426 8.74122C11.336 8.59174 11.174 8.50022 10.9991 8.50022C10.824 8.50022 10.6621 8.59122 10.5716 8.74075C10.1231 9.47926 9.07209 11.2827 9.00007 12.1128C9.00007 12.3248 9.02363 12.5302 9.06722 12.726C8.3883 12.129 7.96988 11.2428 8.00005 10.2647Z" fill="black"/>
</svg>
