<svg width="30" height="30" viewBox="0 0 30 30" fill="none" xmlns="http://www.w3.org/2000/svg">
<g clip-path="url(#clip0_2059_7783)">
<path d="M30.0002 8.50002C29.998 6.56794 28.4323 5.00223 26.5002 5.00002H11.5002C11.1932 4.99893 10.8876 5.04083 10.5922 5.12452C10.4052 5.16952 5.4662 7.03152 2.5387 8.13702H2.5347C1.96412 8.29626 1.44489 8.60146 1.0282 9.02252C0.366296 9.6765 -0.00425909 10.5695 0.000199611 11.5C0.0010296 12.7301 0.648095 13.8693 1.7042 14.5C0.648537 15.1312 0.00162728 16.2701 0.000199611 17.5C0.00215325 18.7305 0.650078 19.8695 1.7067 20.5C0.354501 21.3059 -0.292437 22.9161 0.126261 24.4335C0.544959 25.951 1.92605 27.0015 3.5002 27H18.5002C19.0175 26.9996 19.5281 26.8834 19.9947 26.66C19.9984 26.6603 20.002 26.6603 20.0057 26.66L28.0502 23.6385C29.1991 23.0726 29.9459 21.9231 29.9963 20.6434C30.0467 19.3637 29.3925 18.1591 28.2917 17.5045C28.5412 17.3599 28.7698 17.1819 28.9712 16.9755C29.633 16.3222 30.0039 15.43 30.0002 14.5C29.9958 13.2714 29.3491 12.1346 28.2952 11.503C28.5436 11.3585 28.7713 11.1811 28.9722 10.9755C29.6336 10.322 30.0041 9.4298 30.0002 8.50002ZM10.8677 6.08552C11.0736 6.02798 11.2864 5.99921 11.5002 6.00002H26.5002C27.8802 6.00167 28.9986 7.11999 29.0002 8.50002C29.0033 9.16355 28.7389 9.80032 28.2667 10.2665C28.0968 10.4433 27.898 10.5898 27.6787 10.6995C27.6517 10.714 27.6287 10.7275 27.6032 10.7405C26.9287 10.9905 25.7412 11.4365 23.9007 12.1275L21.6787 12.962C22.1782 11.8787 22.0911 10.6155 21.4477 9.61099C20.8042 8.60648 19.6931 7.99921 18.5002 8.00002H5.7362C8.2257 7.06252 10.6642 6.15002 10.8677 6.08552ZM1.0002 11.5C0.997349 10.8353 1.2627 10.1975 1.7362 9.73102C2.03842 9.42418 2.41743 9.20403 2.8337 9.09352C2.8462 9.08952 2.8607 9.08502 2.8752 9.07952C3.07921 9.02607 3.2893 8.99935 3.5002 9.00002H18.5002C19.8802 9.00167 20.9985 10.12 21.0002 11.5C20.9966 12.4355 20.4745 13.2918 19.6447 13.7235C19.6301 13.7291 19.6157 13.7355 19.6017 13.7425C19.2598 13.9136 18.8825 14.0018 18.5002 14H3.5002C2.12017 13.9984 1.00185 12.88 1.0002 11.5ZM1.0002 17.5C1.00268 16.1203 2.12052 15.0025 3.5002 15H18.5002C19.8802 15.0017 20.9985 16.12 21.0002 17.5C20.9966 18.4355 20.4745 19.2918 19.6447 19.7235C19.6301 19.7291 19.6157 19.7355 19.6017 19.7425C19.2598 19.9136 18.8825 20.0018 18.5002 20H3.5002C2.12017 19.9984 1.00185 18.88 1.0002 17.5ZM3.5002 26C2.11949 26 1.0002 24.8807 1.0002 23.5C1.0002 22.1193 2.11949 21 3.5002 21H18.5002C19.8809 21 21.0002 22.1193 21.0002 23.5C21.0002 24.8807 19.8809 26 18.5002 26H3.5002ZM29.0002 20.5C29.0032 21.1634 28.739 21.8001 28.2672 22.2665C28.0874 22.4485 27.8809 22.602 27.6547 22.7215L21.6752 24.964C22.4203 23.3628 21.8484 21.4573 20.3447 20.531L26.9447 18.055C28.1305 18.2666 28.9955 19.2955 29.0002 20.5ZM29.0002 14.5C29.0033 15.1635 28.7389 15.8003 28.2667 16.2665C28.0968 16.4433 27.898 16.5898 27.6787 16.6995C27.6512 16.7145 27.6252 16.728 27.6022 16.741L21.6782 18.9625C22.4187 17.3607 21.8462 15.4582 20.3447 14.531L24.2502 13.064C25.3912 12.6355 26.2777 12.3025 26.9502 12.051C28.1339 12.2676 28.9953 13.2967 29.0002 14.5Z" fill="black"/>
<path d="M19.5 11.5C19.5 11.2239 19.2761 11 19 11H3C2.72386 11 2.5 11.2239 2.5 11.5C2.5 11.7761 2.72386 12 3 12H19C19.2761 12 19.5 11.7761 19.5 11.5Z" fill="black"/>
<path d="M19.5 17.5C19.5 17.2239 19.2761 17 19 17H3C2.72386 17 2.5 17.2239 2.5 17.5C2.5 17.7761 2.72386 18 3 18H19C19.2761 18 19.5 17.7761 19.5 17.5Z" fill="black"/>
<path d="M19 23H3C2.72386 23 2.5 23.2239 2.5 23.5C2.5 23.7761 2.72386 24 3 24H19C19.2761 24 19.5 23.7761 19.5 23.5C19.5 23.2239 19.2761 23 19 23Z" fill="black"/>
<path d="M5 1C4.72386 1 4.5 1.22386 4.5 1.5V2.5C4.5 2.77614 4.72386 3 5 3C5.27614 3 5.5 2.77614 5.5 2.5V1.5C5.5 1.22386 5.27614 1 5 1Z" fill="black"/>
<path d="M4.5 5.5C4.5 5.77614 4.72386 6 5 6C5.27614 6 5.5 5.77614 5.5 5.5V4.5C5.5 4.22386 5.27614 4 5 4C4.72386 4 4.5 4.22386 4.5 4.5V5.5Z" fill="black"/>
<path d="M4 3H3C2.72386 3 2.5 3.22386 2.5 3.5C2.5 3.77614 2.72386 4 3 4H4C4.27614 4 4.5 3.77614 4.5 3.5C4.5 3.22386 4.27614 3 4 3Z" fill="black"/>
<path d="M6 4H7C7.27614 4 7.5 3.77614 7.5 3.5C7.5 3.22386 7.27614 3 7 3H6C5.72386 3 5.5 3.22386 5.5 3.5C5.5 3.77614 5.72386 4 6 4Z" fill="black"/>
<path d="M29.1032 27.3962C28.907 27.2067 28.5952 27.2094 28.4023 27.4023C28.2094 27.5952 28.2067 27.907 28.3962 28.1032L29.1462 28.8532C29.3424 29.0427 29.6543 29.04 29.8471 28.8471C30.04 28.6543 30.0427 28.3424 29.8532 28.1462L29.1032 27.3962Z" fill="black"/>
<path d="M26.8962 26.6032C27.0924 26.7927 27.4043 26.79 27.5971 26.5971C27.79 26.4043 27.7927 26.0924 27.6032 25.8962L26.8532 25.1462C26.657 24.9567 26.3452 24.9594 26.1523 25.1523C25.9594 25.3452 25.9567 25.657 26.1462 25.8532L26.8962 26.6032Z" fill="black"/>
<path d="M26.1464 28.8532C26.3416 29.0484 26.6581 29.0484 26.8534 28.8532L27.6034 28.1032C27.7929 27.907 27.7902 27.5952 27.5973 27.4023C27.4044 27.2094 27.0926 27.2067 26.8964 27.3962L26.1464 28.1462C25.9512 28.3415 25.9512 28.658 26.1464 28.8532Z" fill="black"/>
<path d="M29.1468 25.1462L28.3968 25.8962C28.2668 26.0218 28.2147 26.2077 28.2604 26.3825C28.3062 26.5573 28.4427 26.6938 28.6175 26.7396C28.7924 26.7853 28.9783 26.7332 29.1038 26.6032L29.8538 25.8532C30.0433 25.657 30.0406 25.3452 29.8477 25.1523C29.6548 24.9594 29.343 24.9567 29.1468 25.1462Z" fill="black"/>
</g>
<defs>
<clipPath id="clip0_2059_7783">
<rect width="30" height="30" fill="white"/>
</clipPath>
</defs>
</svg>
