<svg width="30" height="30" viewBox="0 0 30 30" fill="none" xmlns="http://www.w3.org/2000/svg">
<path d="M11.25 9.84375C7.11469 9.84375 3.75 13.2084 3.75 17.3438C3.75 21.4791 7.11469 24.8438 11.25 24.8438C15.3853 24.8438 18.75 21.4791 18.75 17.3438C18.75 13.2084 15.3853 9.84375 11.25 9.84375ZM11.25 23.9062C7.63125 23.9062 4.6875 20.9625 4.6875 17.3438C4.6875 13.725 7.63125 10.7812 11.25 10.7812C14.8687 10.7812 17.8125 13.725 17.8125 17.3438C17.8125 20.9625 14.8687 23.9062 11.25 23.9062Z" fill="black"/>
<path d="M11.25 12.1875C8.40656 12.1875 6.09375 14.5008 6.09375 17.3438C6.09375 20.1867 8.40656 22.5 11.25 22.5C14.093 22.5 16.4062 20.1867 16.4062 17.3438C16.4062 14.5008 14.093 12.1875 11.25 12.1875ZM11.25 21.5625C8.92359 21.5625 7.03125 19.6702 7.03125 17.3438C7.03125 15.0173 8.92359 13.125 11.25 13.125C13.5764 13.125 15.4688 15.0173 15.4688 17.3438C15.4688 19.6702 13.5764 21.5625 11.25 21.5625Z" fill="black"/>
<path d="M14.0625 16.875C13.8033 16.875 13.5938 17.0845 13.5938 17.3438C13.5938 18.6361 12.5423 19.6875 11.25 19.6875C10.9908 19.6875 10.7812 19.897 10.7812 20.1562C10.7812 20.4155 10.9908 20.625 11.25 20.625C13.0589 20.625 14.5312 19.1527 14.5312 17.3438C14.5312 17.0845 14.3217 16.875 14.0625 16.875Z" fill="black"/>
<path d="M29.5312 22.5H28.9758C29.0287 22.3528 29.0625 22.1967 29.0625 22.0312V21.5625C29.0625 21.2011 28.9214 20.8744 28.6969 20.625C28.9214 20.3756 29.0625 20.0489 29.0625 19.6875V19.2188C29.0625 18.4434 28.4316 17.8125 27.6562 17.8125H22.5005V2.8125C22.5005 1.77844 21.6595 0.9375 20.6255 0.9375H1.87547C0.841406 0.9375 0.00046875 1.77844 0.00046875 2.8125V7.02891C0.00046875 7.02984 0 7.03031 0 7.03125C0 7.03219 0.00046875 7.03266 0.00046875 7.03359V27.1875C0.00046875 28.2216 0.841406 29.0625 1.87547 29.0625H28.125C29.1591 29.0625 30 28.2216 30 27.1875V22.9688C30 22.7095 29.7905 22.5 29.5312 22.5ZM20.625 22.0312V21.5625C20.625 21.3038 20.835 21.0938 21.0938 21.0938H27.6562C27.915 21.0938 28.125 21.3038 28.125 21.5625V22.0312C28.125 22.29 27.915 22.5 27.6562 22.5H21.0938C20.835 22.5 20.625 22.29 20.625 22.0312ZM28.125 19.2188V19.6875C28.125 19.9462 27.915 20.1562 27.6562 20.1562H21.0938C20.835 20.1562 20.625 19.9462 20.625 19.6875V19.2188C20.625 18.96 20.835 18.75 21.0938 18.75H27.6562C27.915 18.75 28.125 18.96 28.125 19.2188ZM1.87547 1.875H20.6255C21.142 1.875 21.563 2.29594 21.563 2.8125V6.5625H0.937969V2.8125C0.937969 2.29594 1.35844 1.875 1.87547 1.875ZM0.937969 27.1875V7.5H21.563V17.8125H21.0938C20.3184 17.8125 19.6875 18.4434 19.6875 19.2188V19.6875C19.6875 20.0489 19.8286 20.3756 20.0531 20.625C19.8286 20.8744 19.6875 21.2011 19.6875 21.5625V22.0312C19.6875 22.1967 19.7213 22.3528 19.7742 22.5H19.2188C18.9595 22.5 18.75 22.7095 18.75 22.9688V27.1875C18.75 27.5302 18.8494 27.848 19.0111 28.125H1.87547C1.35844 28.125 0.937969 27.7045 0.937969 27.1875ZM29.0625 27.1875C29.0625 27.7045 28.6416 28.125 28.125 28.125H20.625C20.108 28.125 19.6875 27.7045 19.6875 27.1875V23.4375H29.0625V27.1875Z" fill="black"/>
<path d="M3.28125 5.625C4.05656 5.625 4.6875 4.99406 4.6875 4.21875C4.6875 3.44344 4.05656 2.8125 3.28125 2.8125C2.50594 2.8125 1.875 3.44344 1.875 4.21875C1.875 4.99406 2.50594 5.625 3.28125 5.625ZM3.28125 3.75C3.54 3.75 3.75 3.96 3.75 4.21875C3.75 4.4775 3.54 4.6875 3.28125 4.6875C3.0225 4.6875 2.8125 4.4775 2.8125 4.21875C2.8125 3.96 3.0225 3.75 3.28125 3.75Z" fill="black"/>
<path d="M19.2188 5.625C19.9941 5.625 20.625 4.99406 20.625 4.21875C20.625 3.44344 19.9941 2.8125 19.2188 2.8125C18.4434 2.8125 17.8125 3.44344 17.8125 4.21875C17.8125 4.99406 18.4434 5.625 19.2188 5.625ZM19.2188 3.75C19.4775 3.75 19.6875 3.96 19.6875 4.21875C19.6875 4.4775 19.4775 4.6875 19.2188 4.6875C18.96 4.6875 18.75 4.4775 18.75 4.21875C18.75 3.96 18.96 3.75 19.2188 3.75Z" fill="black"/>
<path d="M12.6562 5.625H15.4688C16.2441 5.625 16.875 4.99406 16.875 4.21875C16.875 3.44344 16.2441 2.8125 15.4688 2.8125H12.6562C11.8809 2.8125 11.25 3.44344 11.25 4.21875C11.25 4.99406 11.8809 5.625 12.6562 5.625ZM12.6562 3.75H15.4688C15.7275 3.75 15.9375 3.96 15.9375 4.21875C15.9375 4.4775 15.7275 4.6875 15.4688 4.6875H12.6562C12.3975 4.6875 12.1875 4.4775 12.1875 4.21875C12.1875 3.96 12.3975 3.75 12.6562 3.75Z" fill="black"/>
</svg>
