<svg width="30" height="26" viewBox="0 0 30 26" fill="none" xmlns="http://www.w3.org/2000/svg">
<path d="M6.60346 4.31152C4.82004 4.31152 3.36914 5.76242 3.36914 7.5459C3.36914 9.32926 4.82004 10.7802 6.60346 10.7802C8.38687 10.7802 9.83777 9.32932 9.83777 7.5459C9.83777 5.76248 8.38687 4.31152 6.60346 4.31152ZM6.60346 9.60605C5.4675 9.60605 4.5433 8.68191 4.5433 7.54596C4.5433 6.41 5.4675 5.4858 6.60346 5.4858C7.73941 5.4858 8.66361 6.41 8.66361 7.54596C8.66361 8.68191 7.73947 9.60605 6.60346 9.60605Z" fill="black"/>
<path d="M24.8029 2.88418H28.9314C29.2557 2.88418 29.5186 2.62133 29.5186 2.29707C29.5186 1.97287 29.2557 1.70996 28.9314 1.70996H24.8029C24.4787 1.70996 24.2158 1.97281 24.2158 2.29707C24.2158 2.62127 24.4787 2.88418 24.8029 2.88418Z" fill="black"/>
<path d="M24.8029 5.7582H27.2561C27.5804 5.7582 27.8432 5.49535 27.8432 5.17109C27.8432 4.84689 27.5804 4.58398 27.2561 4.58398H24.8029C24.4787 4.58398 24.2158 4.84684 24.2158 5.17109C24.2158 5.49535 24.4787 5.7582 24.8029 5.7582Z" fill="black"/>
<path d="M24.8029 8.60391H28.9314C29.2557 8.60391 29.5186 8.34105 29.5186 8.0168C29.5186 7.69254 29.2557 7.42969 28.9314 7.42969H24.8029C24.4787 7.42969 24.2158 7.69254 24.2158 8.0168C24.2158 8.34105 24.4787 8.60391 24.8029 8.60391Z" fill="black"/>
<path d="M29.4127 16.3794C27.4911 16.3794 25.9277 17.9428 25.9277 19.8645V20.6333C25.9277 21.4837 25.2359 22.1754 24.3856 22.1754C23.5353 22.1754 22.8435 21.4837 22.8435 20.6333V14.7782C22.8435 13.0196 21.4128 11.5889 19.6542 11.5889C17.8955 11.5889 16.4648 13.0196 16.4648 14.7782V15.5766C16.4648 15.9008 16.7277 16.1637 17.052 16.1637C17.3762 16.1637 17.6391 15.9008 17.6391 15.5766V14.7782C17.6391 13.667 18.5431 12.763 19.6542 12.763C20.7654 12.763 21.6694 13.6671 21.6694 14.7782V20.6333C21.6694 22.1311 22.8878 23.3495 24.3856 23.3495C25.8833 23.3495 27.1018 22.131 27.1018 20.6333V19.8645C27.1018 18.5902 28.1385 17.5536 29.4127 17.5536C29.737 17.5536 29.9998 17.2907 29.9998 16.9665C29.9998 16.6423 29.737 16.3794 29.4127 16.3794Z" fill="black"/>
<path d="M17.0518 18.7939C17.3754 18.7939 17.6377 18.5316 17.6377 18.208C17.6377 17.8844 17.3754 17.6221 17.0518 17.6221C16.7282 17.6221 16.4658 17.8844 16.4658 18.208C16.4658 18.5316 16.7282 18.7939 17.0518 18.7939Z" fill="black"/>
<path d="M21.8787 0.566278L18.8434 1.82587C18.8434 1.82587 6.69954 0.941805 6.6853 0.941805C3.0464 0.941805 0.0476263 3.86475 0.000575547 7.45755C-0.0160065 8.72182 0.326005 9.95481 0.989521 11.0232C1.59239 11.994 2.43368 12.7903 3.43229 13.3379L5.88778 19.944C6.19259 20.764 6.79874 21.4155 7.59474 21.7783C8.02722 21.9755 8.48718 22.0746 8.94854 22.0746C9.15843 22.0746 9.36849 22.0534 9.57643 22.0122L10.172 23.2519C10.8219 24.6044 12.2114 25.4783 13.7119 25.4783C15.8774 25.4783 17.6392 23.7166 17.6392 21.551V20.8104C17.6392 20.4862 17.3764 20.2232 17.0521 20.2232C16.7279 20.2232 16.465 20.4861 16.465 20.8104V21.551C16.465 23.0691 15.23 24.3042 13.7119 24.3042C12.6599 24.3042 11.6859 23.6915 11.2303 22.7434L10.6726 21.5826C11.2073 21.2522 11.6357 20.7737 11.908 20.1928C12.272 19.4166 12.3175 18.5431 12.036 17.7332L10.3787 12.9642C11.6375 12.0855 12.5565 10.7916 12.9669 9.31766L18.8205 8.59192C18.8482 8.59766 21.8926 9.75307 21.8926 9.75307C22.2709 9.89839 22.6907 9.61034 22.6907 9.20522V1.1085C22.6908 0.697586 22.259 0.408368 21.8787 0.566278ZM10.927 18.1187C11.3027 19.2 10.7577 20.3624 9.686 20.7649C9.16136 20.962 8.59165 20.9425 8.08177 20.7099C7.57188 20.4774 7.18358 20.0601 6.98835 19.5348L4.90241 13.923C5.45747 14.0727 6.03181 14.1483 6.6205 14.1483C7.56356 14.1483 8.49192 13.9461 9.34282 13.5603L10.927 18.1187ZM18.3531 7.46675L12.4206 8.20227C12.1716 8.23309 11.9696 8.41895 11.9182 8.66452C11.6082 10.1449 10.6449 11.4647 9.33731 12.2417C9.35958 12.2236 9.312 12.2568 9.33731 12.2417C8.52374 12.7057 7.56351 12.9763 6.6205 12.9763C5.76491 12.9763 4.91185 12.7684 4.15358 12.3869C4.17708 12.3952 4.13073 12.3754 4.15358 12.3869C2.30917 11.4359 1.14737 9.54958 1.17456 7.47284C1.21317 4.52581 3.67399 2.12704 6.66444 2.11591L18.3531 2.96733L18.3531 7.46675ZM21.5166 8.34999L19.5273 7.58364V2.81335L21.5166 1.98776V8.34999Z" fill="black"/>
</svg>
