<svg width="30" height="30" viewBox="0 0 30 30" fill="none" xmlns="http://www.w3.org/2000/svg">
<g clip-path="url(#clip0_2059_7780)">
<path d="M9.50098 17.1574H11.0162C11.3919 18.1236 12.162 18.8936 13.1281 19.2693V20.7845C13.1281 21.5209 13.7272 22.12 14.4636 22.12C15.2 22.12 15.7992 21.5209 15.7992 20.7845V19.2693C16.7653 18.8936 17.5354 18.1236 17.9111 17.1574H19.4263C20.1627 17.1574 20.7618 16.5582 20.7618 15.8218C20.7618 15.0854 20.1627 14.4863 19.4263 14.4863H17.9111C17.5354 13.5201 16.7653 12.7501 15.7992 12.3744V10.8592C15.7992 10.1228 15.2 9.52365 14.4636 9.52365C13.7272 9.52365 13.1281 10.1228 13.1281 10.8592V12.3744C12.162 12.7501 11.3919 13.5201 11.0162 14.4863H9.50098C8.76457 14.4863 8.16545 15.0854 8.16545 15.8218C8.16545 16.5582 8.76457 17.1574 9.50098 17.1574ZM14.8617 20.7845C14.8617 21.004 14.6832 21.1825 14.4637 21.1825C14.2442 21.1825 14.0657 21.004 14.0657 20.7845V19.4981C14.1965 19.5121 14.3292 19.5198 14.4637 19.5198C14.5982 19.5198 14.7309 19.5121 14.8617 19.4981V20.7845ZM19.4263 15.4238C19.6458 15.4238 19.8244 15.6023 19.8244 15.8218C19.8244 16.0413 19.6458 16.2199 19.4263 16.2199H18.1399C18.154 16.089 18.1617 15.9563 18.1617 15.8218C18.1617 15.6874 18.154 15.5546 18.1399 15.4238H19.4263ZM14.0657 10.8592C14.0657 10.6397 14.2442 10.4612 14.4637 10.4612C14.6832 10.4612 14.8617 10.6397 14.8617 10.8592V12.1456C14.7309 12.1315 14.5982 12.1239 14.4637 12.1239C14.3292 12.1239 14.1965 12.1315 14.0657 12.1456V10.8592ZM14.4637 13.0614C15.9858 13.0614 17.2242 14.2997 17.2242 15.8218C17.2242 17.3439 15.9858 18.5823 14.4637 18.5823C12.9416 18.5823 11.7032 17.3439 11.7032 15.8218C11.7032 14.2997 12.9415 13.0614 14.4637 13.0614ZM9.50098 15.4238H10.7874C10.7733 15.5546 10.7657 15.6874 10.7657 15.8218C10.7657 15.9563 10.7733 16.089 10.7874 16.2199H9.50098C9.28148 16.2199 9.10295 16.0413 9.10295 15.8218C9.10295 15.6023 9.28148 15.4238 9.50098 15.4238ZM14.4637 17.4292C15.35 17.4292 16.0712 16.7081 16.0712 15.8218C16.0712 14.9354 15.35 14.2143 14.4637 14.2143C13.5774 14.2143 12.8563 14.9354 12.8563 15.8218C12.8563 16.7081 13.5774 17.4292 14.4637 17.4292ZM14.4637 15.1519C14.8331 15.1519 15.1337 15.4524 15.1337 15.8218C15.1337 16.1913 14.8331 16.4918 14.4637 16.4918C14.0943 16.4918 13.7938 16.1913 13.7938 15.8218C13.7938 15.4524 14.0943 15.1519 14.4637 15.1519ZM29.7118 2.68629C27.1679 1.17697 25.1558 0.503906 23.1881 0.503906C23.1879 0.503906 23.1881 0.503906 23.1879 0.503906C21.2203 0.503906 19.208 1.17697 16.6642 2.68623C16.5219 2.77061 16.4347 2.92389 16.4347 3.08936V4.02275H4.26633C3.38314 4.02275 2.66455 4.74135 2.66455 5.62453V11.6367H0.527344C0.268477 11.6367 0.0585938 11.8466 0.0585938 12.1055V14.7455C0.0585938 15.0043 0.268477 15.2142 0.527344 15.2142H2.66461V16.4295H0.527344C0.268477 16.4295 0.0585938 16.6393 0.0585938 16.8982V19.5382C0.0585938 19.7971 0.268477 20.007 0.527344 20.007H2.66461V26.0191C2.66461 26.9023 3.3832 27.6209 4.26639 27.6209H5.27063V29.0273C5.27063 29.2862 5.48051 29.4961 5.73938 29.4961H9.07049C9.32936 29.4961 9.53924 29.2862 9.53924 29.0273V27.6209H19.3883V29.0273C19.3883 29.2862 19.5981 29.4961 19.857 29.4961H23.1881C23.447 29.4961 23.6569 29.2862 23.6569 29.0273V27.6209H24.6611C25.5442 27.6209 26.2628 26.9023 26.2628 26.0191V14.1892L27.4798 13.3146C29.0902 12.157 29.9414 10.4969 29.9414 8.51355V3.08941C29.9414 2.92395 29.8542 2.77072 29.7118 2.68629ZM6.20807 7.66395C6.20807 7.61098 6.25283 7.56615 6.3058 7.56615H16.4347V8.51355C16.4347 10.4969 17.2859 12.1571 18.8963 13.3146L22.7193 16.0622V23.9797C22.7193 24.0326 22.6745 24.0774 22.6215 24.0774H6.3058C6.25283 24.0774 6.20807 24.0326 6.20807 23.9797V7.66395ZM3.60211 5.62453C3.60211 5.25826 3.90012 4.96025 4.26639 4.96025H16.4347V6.62871H6.3058C5.73498 6.62871 5.27057 7.09312 5.27057 7.664V11.6367H3.60211V5.62453ZM0.996094 12.5742H5.27057V14.2767H0.996094V12.5742ZM3.60211 15.2142H5.27063V16.4295H3.60211V15.2142ZM0.996094 17.367H5.27057V19.0695H0.996094V17.367ZM8.60168 28.5586H6.20807V27.6209H8.60168V28.5586ZM22.7193 28.5586H20.3256V27.6209H22.7193V28.5586ZM25.3252 26.0191C25.3252 26.3854 25.0272 26.6834 24.6609 26.6834H4.26633C3.90006 26.6834 3.60205 26.3854 3.60205 26.0191V20.007H5.27057V23.9797C5.27057 24.5505 5.73498 25.015 6.3058 25.015H22.6215C23.1923 25.015 23.6568 24.5505 23.6568 23.9797V16.0622L25.3252 14.863V26.0191ZM29.0039 8.51355C29.0039 10.1824 28.2876 11.5792 26.9324 12.5532L23.188 15.2446L19.4435 12.5532C18.0884 11.5793 17.3722 10.1824 17.3722 8.51355V3.35766C21.7943 0.788555 24.5819 0.78873 29.0039 3.35771V8.51355ZM18.2014 3.56197C18.0513 3.6443 17.9581 3.80186 17.9581 3.97301V8.51361C17.9581 10.007 18.5729 11.2061 19.7854 12.0775L22.9145 14.3265C22.9962 14.3852 23.0921 14.4146 23.1881 14.4146C23.284 14.4146 23.3799 14.3852 23.4616 14.3265L26.5905 12.0776C27.8032 11.2059 28.418 10.0068 28.418 8.51361V3.97301C28.418 3.80186 28.3247 3.64436 28.1747 3.56197C24.4464 1.51723 21.9298 1.51717 18.2014 3.56197ZM27.4805 8.51355C27.4805 9.70436 27.0104 10.6212 26.0434 11.3163L23.1881 13.3685L20.3326 11.3162C19.3656 10.6213 18.8957 9.70453 18.8957 8.51355V4.25262C22.1115 2.54438 24.2648 2.54443 27.4806 4.25268V8.51355H27.4805ZM21.536 6.50637C21.1286 5.99385 20.3801 5.90848 19.8677 6.31582C19.6194 6.51316 19.4628 6.79547 19.4268 7.11053C19.3908 7.42559 19.4797 7.7359 19.677 7.9841L21.1632 9.85436C21.3657 10.1361 21.679 10.3147 22.0253 10.3453C22.0605 10.3484 22.0955 10.3499 22.1304 10.3499C22.4441 10.3498 22.7453 10.226 22.9696 10.0018L26.436 6.53537C26.8993 6.07189 26.8993 5.31785 26.436 4.85432C25.9725 4.39096 25.2184 4.39102 24.7549 4.85432L22.2298 7.37947L21.536 6.50637ZM25.4179 5.5173C25.5157 5.41934 25.6751 5.41939 25.773 5.51725C25.871 5.61522 25.871 5.77465 25.773 5.8725L22.3066 9.33885C22.2346 9.41092 22.1508 9.41531 22.1077 9.41139C22.0637 9.40752 21.9812 9.38842 21.9225 9.30434C21.9169 9.29637 21.9112 9.28863 21.9051 9.28107L20.4109 7.4008C20.3694 7.34854 20.3507 7.28326 20.3583 7.21693C20.3659 7.15061 20.3988 7.09125 20.4511 7.04971C20.4957 7.01426 20.5499 6.99539 20.6061 6.99539C20.6157 6.99539 20.6253 6.99598 20.635 6.99703C20.7013 7.00459 20.7607 7.03752 20.8022 7.08973L21.8228 8.3741C21.9059 8.47869 22.0297 8.54285 22.1631 8.55047C22.2959 8.55814 22.4268 8.50834 22.5213 8.41395L25.4179 5.5173Z" fill="black"/>
</g>
<defs>
<clipPath id="clip0_2059_7780">
<rect width="30" height="30" fill="white"/>
</clipPath>
</defs>
</svg>
