<svg width="30" height="28" viewBox="0 0 30 28" fill="none" xmlns="http://www.w3.org/2000/svg">
<path d="M17.9766 16.9317C17.9766 15.2904 16.6413 13.9551 15 13.9551C13.3587 13.9551 12.0234 15.2904 12.0234 16.9317C12.0234 18.573 13.3587 19.9082 15 19.9082C16.6413 19.9082 17.9766 18.573 17.9766 16.9317ZM12.9041 16.9317C12.9041 15.776 13.8443 14.8358 15 14.8358C16.1556 14.8358 17.0958 15.776 17.0958 16.9317C17.0958 18.0873 16.1556 19.0275 15 19.0275C13.8443 19.0275 12.9041 18.0873 12.9041 16.9317Z" fill="black"/>
<path d="M7.8474 7.52406C8.04081 7.37663 8.0781 7.10031 7.93066 6.90689C7.78322 6.71348 7.5069 6.67614 7.31349 6.82363C6.75791 7.2471 6.23557 7.71689 5.76091 8.22003C5.48153 8.51614 5.33885 8.9197 5.36927 9.32713C5.39998 9.73803 5.60355 10.1196 5.93007 10.3758C6.19799 10.586 6.51594 10.6891 6.83266 10.6891C7.22442 10.6891 7.61435 10.5313 7.90576 10.2233C9.77272 8.25009 12.2921 7.16337 14.9997 7.16337C17.7073 7.16337 20.2266 8.25009 22.0936 10.2233C22.6206 10.7803 23.4699 10.8459 24.0717 10.3738C24.3958 10.1195 24.5994 9.73803 24.6301 9.32713C24.6606 8.91964 24.5179 8.51614 24.2385 8.21997C23.0622 6.97318 21.6745 5.99168 20.1141 5.30276C18.4979 4.58929 16.7771 4.22754 14.9997 4.22754C12.888 4.22754 10.7944 4.75951 8.94558 5.76591C8.73197 5.88217 8.65305 6.14963 8.76931 6.36324C8.88557 6.57685 9.1529 6.6557 9.36663 6.5395C11.0867 5.60321 13.0346 5.10829 14.9997 5.10829C16.6539 5.10829 18.2549 5.44479 19.7584 6.10852C21.2108 6.74971 22.5026 7.66346 23.5978 8.82434C23.7094 8.9426 23.7641 9.09779 23.7518 9.26143C23.7393 9.42854 23.6599 9.5775 23.5257 9.68278C23.2865 9.87038 22.9458 9.8426 22.7333 9.61795C21.7477 8.57621 20.5857 7.75617 19.2796 7.18081C17.9269 6.58483 16.4869 6.28262 14.9997 6.28262C13.5124 6.28262 12.0725 6.58477 10.7197 7.18081C9.41367 7.75623 8.25166 8.57621 7.26599 9.61795C7.05349 9.8426 6.71288 9.87044 6.4712 9.68084C6.33944 9.5775 6.26 9.42854 6.24749 9.26143C6.23528 9.09779 6.28994 8.9426 6.40145 8.8244C6.84341 8.35602 7.32987 7.91852 7.8474 7.52406Z" fill="black"/>
<path d="M20.8185 12.9269C21.1536 12.664 21.3575 12.2691 21.378 11.8436C21.3985 11.4183 21.2335 11.0059 20.9253 10.7121C19.3188 9.18106 17.2147 8.33789 15.0004 8.33789C12.7862 8.33789 10.682 9.18106 9.0755 10.7121C8.7673 11.0058 8.60231 11.4182 8.6228 11.8436C8.64329 12.2691 8.84721 12.664 9.18237 12.9269C9.45017 13.137 9.7676 13.2408 10.0847 13.2408C10.451 13.2408 10.8167 13.1022 11.1042 12.8291C12.1599 11.8261 13.5437 11.2738 15.0005 11.2738C16.4573 11.2738 17.841 11.8261 18.8967 12.8291C19.433 13.3387 20.2413 13.3798 20.8185 12.9269ZM10.4975 12.1905C10.2808 12.3964 9.95625 12.4147 9.72591 12.234C9.59009 12.1275 9.51071 11.9738 9.50243 11.8013C9.49415 11.629 9.55827 11.4687 9.68304 11.3498C11.1249 9.97555 13.0133 9.21876 15.0003 9.21876C16.9873 9.21876 18.8757 9.97555 20.3176 11.3498C20.4423 11.4687 20.5064 11.6291 20.4982 11.8013C20.4899 11.9739 20.4105 12.1275 20.2747 12.234C20.0443 12.4147 19.7198 12.3964 19.5031 12.1905C18.283 11.0314 16.6838 10.393 15.0002 10.393C13.3167 10.393 11.7176 11.0314 10.4975 12.1905Z" fill="black"/>
<path d="M24.6344 17.3574C24.6344 17.1142 24.4372 16.917 24.194 16.917H19.2763C19.0331 16.917 18.8359 17.1142 18.8359 17.3574C18.8359 17.6006 19.0331 17.7977 19.2763 17.7977H24.194C24.4372 17.7977 24.6344 17.6006 24.6344 17.3574Z" fill="black"/>
<path d="M27.5962 16.917H26.0709C25.8277 16.917 25.6305 17.1142 25.6305 17.3574C25.6305 17.6006 25.8277 17.7977 26.0709 17.7977H27.5962C28.436 17.7977 29.1192 18.481 29.1192 19.3207V25.4797C29.1192 26.3196 28.436 27.0027 27.5962 27.0027H2.40374C1.56397 27.0028 0.880749 26.3196 0.880749 25.4797V19.3207C0.880749 18.481 1.56397 17.7977 2.40374 17.7977H10.7235C10.9667 17.7977 11.1638 17.6006 11.1638 17.3574C11.1638 17.1142 10.9667 16.917 10.7235 16.917H2.40374C1.07833 16.917 0 17.9953 0 19.3207V25.4797C0 26.8052 1.07833 27.8835 2.40374 27.8835H27.5962C28.9217 27.8835 29.9999 26.8052 29.9999 25.4797V19.3207C30 17.9953 28.9217 16.917 27.5962 16.917Z" fill="black"/>
<path d="M9.84918 21.371C10.0924 21.371 10.2895 21.1738 10.2895 20.9306C10.2895 20.6874 10.0924 20.4902 9.84918 20.4902H8.29389C8.05069 20.4902 7.85352 20.6874 7.85352 20.9306V24.768C7.85352 25.0112 8.05069 25.2083 8.29389 25.2083C8.53709 25.2083 8.73426 25.0112 8.73426 24.768V23.2533H9.72564C9.96884 23.2533 10.166 23.0561 10.166 22.8129C10.166 22.5697 9.96884 22.3726 9.72564 22.3726H8.73426V21.371H9.84918Z" fill="black"/>
<path d="M17.6588 21.3388C17.902 21.3388 18.0992 21.1416 18.0992 20.8984C18.0992 20.6552 17.902 20.458 17.6588 20.458H16.0449C15.8017 20.458 15.6045 20.6552 15.6045 20.8984V24.7288C15.6045 24.972 15.8017 25.1691 16.0449 25.1691H17.6588C17.902 25.1691 18.0992 24.972 18.0992 24.7288C18.0992 24.4856 17.902 24.2884 17.6588 24.2884H16.4852V23.254H17.5398C17.783 23.254 17.9802 23.0568 17.9802 22.8136C17.9802 22.5704 17.783 22.3732 17.5398 22.3732H16.4852V21.3388H17.6588Z" fill="black"/>
<path d="M21.7067 21.3388C21.9499 21.3388 22.147 21.1416 22.147 20.8984C22.147 20.6552 21.9499 20.458 21.7067 20.458H20.0927C19.8495 20.458 19.6523 20.6552 19.6523 20.8984V24.7288C19.6523 24.972 19.8495 25.1691 20.0927 25.1691H21.7067C21.9499 25.1691 22.147 24.972 22.147 24.7288C22.147 24.4856 21.9499 24.2884 21.7067 24.2884H20.5331V23.254H21.5876C21.8308 23.254 22.028 23.0568 22.028 22.8136C22.028 22.5704 21.8308 22.3732 21.5876 22.3732H20.5331V21.3388H21.7067Z" fill="black"/>
<path d="M14.1534 21.9255C14.1534 21.1287 13.4797 20.4805 12.6515 20.4805H11.6243C11.624 20.4805 11.6239 20.4805 11.6236 20.4805C11.6234 20.4805 11.6232 20.4805 11.623 20.4805C11.3798 20.4805 11.1826 20.6776 11.1826 20.9208V24.7865C11.1826 25.0297 11.3798 25.2269 11.623 25.2269C11.8662 25.2269 12.0634 25.0297 12.0634 24.7865V23.5787L13.3824 25.0774C13.4695 25.1764 13.591 25.2269 13.7132 25.2269C13.8165 25.2269 13.9203 25.1907 14.0039 25.1171C14.1865 24.9564 14.2043 24.6781 14.0436 24.4956L13.0155 23.3274C13.6683 23.1705 14.1534 22.6015 14.1534 21.9255ZM12.6516 22.4898C12.5165 22.4898 12.2806 22.4908 12.0694 22.4919C12.0682 22.2852 12.0672 22.0562 12.0672 21.9255C12.0672 21.8148 12.0667 21.5776 12.066 21.3613H12.6515C12.9882 21.3613 13.2727 21.6197 13.2727 21.9255C13.2727 22.2314 12.9883 22.4898 12.6516 22.4898Z" fill="black"/>
<path d="M1.84961 22.8134C1.84961 23.6314 2.51504 24.2969 3.33302 24.2969C4.15095 24.2969 4.81638 23.6314 4.81638 22.8134C4.81638 21.9955 4.15095 21.3301 3.33302 21.3301C2.51504 21.33 1.84961 21.9955 1.84961 22.8134ZM3.93563 22.8134C3.93563 23.1457 3.6653 23.4161 3.33302 23.4161C3.00075 23.4161 2.73036 23.1457 2.73036 22.8134C2.73036 22.4812 3.00069 22.2108 3.33302 22.2108C3.66536 22.2108 3.93563 22.4811 3.93563 22.8134Z" fill="black"/>
<path d="M26.667 24.2968C27.4849 24.2968 28.1504 23.6314 28.1504 22.8134C28.1504 21.9955 27.4849 21.3301 26.667 21.3301C25.849 21.3301 25.1836 21.9955 25.1836 22.8134C25.1835 23.6314 25.849 24.2968 26.667 24.2968ZM26.667 22.2108C26.9992 22.2108 27.2696 22.4812 27.2696 22.8134C27.2696 23.1457 26.9993 23.4161 26.667 23.4161C26.3346 23.4161 26.0643 23.1458 26.0643 22.8134C26.0643 22.4811 26.3346 22.2108 26.667 22.2108Z" fill="black"/>
<path d="M2.68797 7.83208C2.95501 8.04158 3.27466 8.14398 3.59261 8.14398C3.99447 8.14398 4.39345 7.98028 4.67928 7.66233C7.3129 4.73313 11.0745 3.05308 14.9997 3.05308C18.9249 3.05308 22.6865 4.73307 25.3202 7.66233C25.8322 8.23182 26.7069 8.30645 27.3139 7.83014C27.6318 7.58071 27.8341 7.2068 27.8689 6.80424C27.9039 6.39992 27.7679 5.99478 27.496 5.69262C26.9811 5.12072 26.4169 4.5753 25.8189 4.07146C25.6329 3.91474 25.3551 3.93846 25.1984 4.12448C25.0417 4.31043 25.0654 4.58828 25.2513 4.74499C25.8185 5.22289 26.3535 5.74 26.8414 6.28196C26.9524 6.40526 27.0057 6.5638 26.9915 6.72838C26.9774 6.8912 26.8988 7.03641 26.7678 7.13916C26.5266 7.32852 26.1784 7.29957 25.9751 7.07352C23.1748 3.95878 19.1744 2.17239 14.9998 2.17239C10.8251 2.17239 6.82467 3.95872 4.0243 7.07346C3.82102 7.29952 3.47277 7.32829 3.22916 7.13711C3.10063 7.03629 3.02207 6.89108 3.00797 6.72826C2.99371 6.56374 3.04702 6.4052 3.15805 6.28184C4.63982 4.6359 6.4079 3.33779 8.41319 2.42369C10.4886 1.47765 12.7046 0.997936 14.9997 0.997936C18.1386 0.997936 21.178 1.91438 23.7893 3.64817C23.9918 3.78275 24.2652 3.72755 24.3997 3.52486C24.5343 3.32223 24.479 3.04897 24.2764 2.91445C21.5203 1.08443 18.3124 0.117188 14.9996 0.117188C12.5776 0.117188 10.2387 0.623618 8.04779 1.62233C5.93188 2.58687 4.06652 3.95631 2.50342 5.69256C2.23139 5.99472 2.09546 6.39986 2.1304 6.80418C2.16533 7.2068 2.36761 7.58071 2.68797 7.83208Z" fill="black"/>
</svg>
