<svg width="30" height="30" viewBox="0 0 30 30" fill="none" xmlns="http://www.w3.org/2000/svg">
<g clip-path="url(#clip0_2059_7721)">
<path d="M28.828 5.4492H16.4146L20.8635 1.00025C21.0923 0.771442 21.0923 0.400428 20.8635 0.171562C20.6346 -0.0571873 20.2637 -0.0571873 20.0348 0.171562L14.9999 5.20644L9.96512 0.171562C9.73625 -0.0571873 9.36535 -0.0571873 9.13643 0.171562C8.90762 0.40037 8.90762 0.771384 9.13643 1.00025L13.5854 5.4492H1.17187C0.525701 5.4492 0 5.9749 0 6.62107V26.3929C0 27.039 0.525701 27.5647 1.17187 27.5647H2.33601L3.4303 29.683C3.5309 29.8777 3.73176 30 3.9509 30H6.62283C6.84197 30 7.04282 29.8777 7.14343 29.683L8.23772 27.5647H21.7623L22.8566 29.683C22.9572 29.8777 23.158 30 23.3772 30H26.0491C26.2682 30 26.4691 29.8777 26.5697 29.683L27.664 27.5647H28.8281C29.4743 27.5647 30 27.039 30 26.3929V6.62107C29.9999 5.97484 29.4742 5.4492 28.828 5.4492ZM6.26599 28.8281H4.30774L3.65506 27.5647H6.91866L6.26599 28.8281ZM25.6922 28.8281H23.7339L23.0813 27.5647H26.3449L25.6922 28.8281ZM28.828 26.3929H1.17187V6.62107H28.828L28.8288 26.3928C28.8288 26.3928 28.8285 26.3929 28.828 26.3929Z" fill="black"/>
<path d="M20.941 7.90527H5.43196C3.75068 7.90527 2.38281 9.27314 2.38281 10.9544V21.8405C2.38281 23.5218 3.75068 24.8897 5.43196 24.8897H20.941C22.6222 24.8897 23.9901 23.5218 23.9901 21.8405V10.9544C23.9901 9.27308 22.6222 7.90527 20.941 7.90527ZM22.8182 21.8405C22.8182 22.8756 21.9761 23.7178 20.941 23.7178H5.43196C4.39685 23.7178 3.55468 22.8756 3.55468 21.8405V10.9544C3.55468 9.91931 4.39685 9.07714 5.43196 9.07714H14.887L6.0053 17.9588C5.77649 18.1876 5.77649 18.5586 6.0053 18.7875C6.11973 18.9019 6.26967 18.9591 6.41961 18.9591C6.56955 18.9591 6.7195 18.9019 6.83393 18.7875L16.5443 9.07714H20.941C21.9761 9.07714 22.8182 9.91931 22.8182 10.9544V21.8405Z" fill="black"/>
<path d="M26.4512 16.1006C25.4819 16.1006 24.6934 16.8891 24.6934 17.8584C24.6934 18.8276 25.4819 19.6162 26.4512 19.6162C27.4204 19.6162 28.209 18.8276 28.209 17.8584C28.209 16.8891 27.4204 16.1006 26.4512 16.1006ZM26.4512 18.4443C26.1281 18.4443 25.8652 18.1815 25.8652 17.8584C25.8652 17.5353 26.1281 17.2725 26.4512 17.2725C26.7742 17.2725 27.0371 17.5353 27.0371 17.8584C27.0371 18.1815 26.7742 18.4443 26.4512 18.4443Z" fill="black"/>
<path d="M26.4512 21.374C25.4819 21.374 24.6934 22.1626 24.6934 23.1318C24.6934 24.1011 25.4819 24.8896 26.4512 24.8896C27.4204 24.8896 28.209 24.1011 28.209 23.1318C28.209 22.1626 27.4204 21.374 26.4512 21.374ZM26.4512 23.7178C26.1281 23.7178 25.8652 23.4549 25.8652 23.1318C25.8652 22.8087 26.1281 22.5459 26.4512 22.5459C26.7742 22.5459 27.0371 22.8087 27.0371 23.1318C27.0371 23.4549 26.7742 23.7178 26.4512 23.7178Z" fill="black"/>
<path d="M27.4806 10.9717H25.2793C24.9557 10.9717 24.6934 11.2341 24.6934 11.5576C24.6934 11.8812 24.9557 12.1436 25.2793 12.1436H27.4806C27.8041 12.1436 28.0665 11.8812 28.0665 11.5576C28.0665 11.2341 27.8041 10.9717 27.4806 10.9717Z" fill="black"/>
<path d="M27.4806 8.58887H25.2793C24.9557 8.58887 24.6934 8.85125 24.6934 9.1748C24.6934 9.49836 24.9557 9.76074 25.2793 9.76074H27.4806C27.8041 9.76074 28.0665 9.49836 28.0665 9.1748C28.0665 8.85125 27.8041 8.58887 27.4806 8.58887Z" fill="black"/>
<path d="M27.4806 13.3545H25.2793C24.9557 13.3545 24.6934 13.6169 24.6934 13.9404C24.6934 14.264 24.9557 14.5264 25.2793 14.5264H27.4806C27.8041 14.5264 28.0665 14.264 28.0665 13.9404C28.0665 13.6169 27.8041 13.3545 27.4806 13.3545Z" fill="black"/>
<path d="M16.3814 13.5895C16.1525 13.3608 15.7816 13.3608 15.5527 13.5895L10.1941 18.9482C9.96526 19.177 9.96526 19.548 10.1941 19.7769C10.3085 19.8913 10.4584 19.9485 10.6084 19.9485C10.7583 19.9485 10.9083 19.8913 11.0227 19.7769L16.3814 14.4182C16.6102 14.1894 16.6102 13.8184 16.3814 13.5895Z" fill="black"/>
<path d="M8.99818 20.9725C8.88925 20.8634 8.73808 20.8008 8.58398 20.8008C8.42988 20.8008 8.27871 20.8634 8.16973 20.9725C8.06074 21.0815 7.99805 21.2326 7.99805 21.3867C7.99805 21.5408 8.06068 21.692 8.16973 21.8009C8.27871 21.9099 8.42988 21.9727 8.58398 21.9727C8.73808 21.9727 8.88925 21.91 8.99818 21.8009C9.10716 21.692 9.16992 21.5408 9.16992 21.3867C9.16992 21.2326 9.10722 21.0814 8.99818 20.9725Z" fill="black"/>
</g>
<defs>
<clipPath id="clip0_2059_7721">
<rect width="30" height="30" fill="white"/>
</clipPath>
</defs>
</svg>
