<svg width="25" height="24" viewBox="0 0 25 24" fill="none" xmlns="http://www.w3.org/2000/svg">
<path d="M2.66602 21.494C3.96052 21.5899 5.04969 20.5 5.99935 20.5C6.94902 20.5 8.49075 21.5053 9.33269 21.494C10.343 21.5025 11.5264 20.5 12.666 20.5C13.8056 20.5 14.989 21.5025 15.9993 21.494C17.2938 21.5899 18.383 20.5 19.3327 20.5C20.2823 20.5 21.8241 21.5053 22.666 21.494" stroke="#113D48" stroke-width="1.5" stroke-linecap="round" stroke-linejoin="round"/>
<path d="M6.66601 20.5C5.24815 18.7336 4.24887 16.4728 3.82335 15.2748C3.68841 14.8949 3.62095 14.705 3.6993 14.5234C3.77764 14.3419 3.96978 14.2568 4.35404 14.0866L11.8432 10.7692C12.2484 10.5897 12.451 10.5 12.666 10.5C12.881 10.5 13.0836 10.5897 13.4888 10.7692L20.978 14.0866C21.3622 14.2568 21.5544 14.3419 21.6327 14.5234C21.7111 14.705 21.6436 14.8949 21.5087 15.2748C21.0831 16.4728 20.0839 18.7336 18.666 20.5" stroke="#113D48" stroke-width="1.5" stroke-linecap="round" stroke-linejoin="round"/>
<path d="M6.66602 13L6.88193 10.1932C7.0167 8.44115 7.08409 7.56511 7.65918 7.03256C8.23428 6.5 9.1129 6.5 10.8701 6.5H14.4619C16.2191 6.5 17.0977 6.5 17.6728 7.03256C18.2479 7.56511 18.3153 8.44115 18.4501 10.1932L18.666 13" stroke="#113D48" stroke-width="1.5" stroke-linecap="round" stroke-linejoin="round"/>
<path d="M9.16602 6.5L9.33753 5.1279C9.49394 3.87661 9.57215 3.25097 9.99749 2.87548C10.4228 2.5 11.0533 2.5 12.3143 2.5H13.0177C14.2787 2.5 14.9092 2.5 15.3345 2.87548C15.7599 3.25097 15.8381 3.87661 15.9945 5.1279L16.166 6.5" stroke="#113D48" stroke-width="1.5" stroke-linecap="round" stroke-linejoin="round"/>
</svg>
