<svg width="32" height="32" viewBox="0 0 32 32" fill="none" xmlns="http://www.w3.org/2000/svg">
<path d="M13.3333 10.6663C13.3333 13.1805 13.3333 14.4375 12.5523 15.2186C11.7712 15.9997 10.5141 15.9997 7.99999 15.9997C5.48583 15.9997 4.22875 15.9997 3.44771 15.2186C2.66666 14.4375 2.66666 13.1805 2.66666 10.6663C2.66666 8.15218 2.66666 6.8951 3.44771 6.11406C4.22875 5.33301 5.48583 5.33301 7.99999 5.33301C10.5141 5.33301 11.7712 5.33301 12.5523 6.11406C13.3333 6.8951 13.3333 8.15218 13.3333 10.6663Z" stroke="#1CA8CB" stroke-width="1.5"/>
<path d="M13.3333 9.33301V15.3091C13.3333 20.6059 9.97906 25.0979 5.33334 26.6663" stroke="#1CA8CB" stroke-width="1.5" stroke-linecap="round"/>
<path d="M29.3333 10.6663C29.3333 13.1805 29.3333 14.4375 28.5523 15.2186C27.7712 15.9997 26.5141 15.9997 24 15.9997C21.4859 15.9997 20.2288 15.9997 19.4477 15.2186C18.6667 14.4375 18.6667 13.1805 18.6667 10.6663C18.6667 8.15218 18.6667 6.8951 19.4477 6.11406C20.2288 5.33301 21.4859 5.33301 24 5.33301C26.5141 5.33301 27.7712 5.33301 28.5523 6.11406C29.3333 6.8951 29.3333 8.15218 29.3333 10.6663Z" stroke="#1CA8CB" stroke-width="1.5"/>
<path d="M29.3333 9.33301V15.3091C29.3333 20.6059 25.9791 25.0979 21.3333 26.6663" stroke="#1CA8CB" stroke-width="1.5" stroke-linecap="round"/>
</svg>
