<svg width="48" height="48" viewBox="0 0 48 48" fill="none" xmlns="http://www.w3.org/2000/svg">
<g opacity="0.1">
<path d="M16.6152 22.1531H10.1536C9.38435 22.1531 8.73035 21.8839 8.19183 21.3454C7.65362 20.8069 7.38416 20.1531 7.38416 19.3836V18.461C7.38416 16.4224 8.10545 14.6821 9.54793 13.2397C10.9903 11.7977 12.7308 11.0764 14.7692 11.0764H16.6152C17.1152 11.0764 17.5477 10.8936 17.9132 10.5284C18.2786 10.1629 18.4613 9.73039 18.4613 9.23037V5.53773C18.4613 5.0378 18.2785 4.60487 17.9132 4.23942C17.5478 3.87448 17.1153 3.69141 16.6152 3.69141H14.7692C12.769 3.69141 10.8608 4.0812 9.04326 4.85968C7.22594 5.63866 5.65403 6.69165 4.32693 8.01875C2.99994 9.34525 1.94725 10.9173 1.16837 12.7348C0.389491 14.5521 0 16.4609 0 18.4609V38.7681C0 40.3073 0.538215 41.6143 1.61515 42.6917C2.69218 43.7684 4.00019 44.3067 5.53855 44.3067H16.6159C18.1542 44.3067 19.4618 43.7684 20.5389 42.6917C21.6157 41.6143 22.1542 40.3073 22.1542 38.7681V27.6917C22.1542 26.1527 21.6157 24.8457 20.5382 23.7683C19.4616 22.6916 18.1535 22.1531 16.6152 22.1531Z" fill="#113D48"/>
<path d="M46.3844 23.7683C45.3078 22.6916 44.0001 22.1531 42.4614 22.1531H35.9999C35.2311 22.1531 34.5765 21.8839 34.0388 21.3454C33.5001 20.8069 33.2312 20.1531 33.2312 19.3836V18.461C33.2312 16.4224 33.9525 14.6821 35.3942 13.2397C36.8361 11.7977 38.5765 11.0764 40.6159 11.0764H42.4615C42.9616 11.0764 43.3944 10.8936 43.7596 10.5284C44.1247 10.1629 44.3081 9.73039 44.3081 9.23037V5.53773C44.3081 5.0378 44.1248 4.60487 43.7596 4.23942C43.3945 3.87448 42.9617 3.69141 42.4615 3.69141H40.6159C38.6146 3.69141 36.7068 4.0812 34.8888 4.85968C33.0717 5.63866 31.5003 6.69165 30.1732 8.01875C28.8461 9.34525 27.793 10.9173 27.0144 12.7348C26.2357 14.5521 25.8457 16.4609 25.8457 18.4609V38.7681C25.8457 40.3073 26.3844 41.6143 27.4611 42.6917C28.5378 43.7684 29.8455 44.3067 31.384 44.3067H42.4608C43.9995 44.3067 45.3071 43.7684 46.3837 42.6917C47.4612 41.6143 47.9988 40.3073 47.9988 38.7681V27.6917C47.9989 26.1526 47.4612 24.8457 46.3844 23.7683Z" fill="#113D48"/>
</g>
</svg>
