<svg width="48" height="42" viewBox="0 0 48 42" fill="none" xmlns="http://www.w3.org/2000/svg">
<path d="M16.6152 19.1531H10.1536C9.38435 19.1531 8.73035 18.8839 8.19183 18.3454C7.65362 17.8069 7.38416 17.1531 7.38416 16.3836V15.461C7.38416 13.4224 8.10545 11.6821 9.54793 10.2397C10.9903 8.79768 12.7308 8.07639 14.7692 8.07639H16.6152C17.1152 8.07639 17.5477 7.89361 17.9132 7.52837C18.2786 7.16293 18.4613 6.73039 18.4613 6.23037V2.53773C18.4613 2.0378 18.2785 1.60487 17.9132 1.23942C17.5478 0.874483 17.1153 0.691406 16.6152 0.691406H14.7692C12.769 0.691406 10.8608 1.0812 9.04326 1.85968C7.22594 2.63866 5.65403 3.69165 4.32693 5.01875C2.99994 6.34525 1.94725 7.91726 1.16837 9.73478C0.389491 11.5521 0 13.4609 0 15.4609V35.7681C0 37.3073 0.538215 38.6143 1.61515 39.6917C2.69218 40.7684 4.00019 41.3067 5.53855 41.3067H16.6159C18.1542 41.3067 19.4618 40.7684 20.5389 39.6917C21.6157 38.6143 22.1542 37.3073 22.1542 35.7681V24.6917C22.1542 23.1527 21.6157 21.8457 20.5382 20.7683C19.4616 19.6916 18.1535 19.1531 16.6152 19.1531Z" fill="#113D48"/>
<path d="M46.3844 20.7683C45.3078 19.6916 44.0001 19.1531 42.4614 19.1531H35.9999C35.2311 19.1531 34.5765 18.8839 34.0388 18.3454C33.5001 17.8069 33.2312 17.1531 33.2312 16.3836V15.461C33.2312 13.4224 33.9525 11.6821 35.3942 10.2397C36.8361 8.79768 38.5765 8.07639 40.6159 8.07639H42.4615C42.9616 8.07639 43.3944 7.89361 43.7596 7.52837C44.1247 7.16293 44.3081 6.73039 44.3081 6.23037V2.53773C44.3081 2.0378 44.1248 1.60487 43.7596 1.23942C43.3945 0.874483 42.9617 0.691406 42.4615 0.691406H40.6159C38.6146 0.691406 36.7068 1.0812 34.8888 1.85968C33.0717 2.63866 31.5003 3.69165 30.1732 5.01875C28.8461 6.34525 27.793 7.91726 27.0144 9.73478C26.2357 11.5521 25.8457 13.4609 25.8457 15.4609V35.7681C25.8457 37.3073 26.3844 38.6143 27.4611 39.6917C28.5378 40.7684 29.8455 41.3067 31.384 41.3067H42.4608C43.9995 41.3067 45.3071 40.7684 46.3837 39.6917C47.4612 38.6143 47.9988 37.3073 47.9988 35.7681V24.6917C47.9989 23.1526 47.4612 21.8457 46.3844 20.7683Z" fill="#113D48"/>
</svg>
