<svg width="52" height="42" viewBox="0 0 52 42" fill="none" xmlns="http://www.w3.org/2000/svg">
<g opacity="0.3">
<path d="M21 11C21 15.714 21 18.071 19.5355 19.5355C18.0711 21 15.714 21 11 21C6.28595 21 3.92892 21 2.46447 19.5355C1 18.071 1 15.714 1 11C1 6.28595 1 3.92893 2.46447 2.46448C3.92892 1 6.28595 1 11 1C15.714 1 18.0711 1 19.5355 2.46448C21 3.92893 21 6.28595 21 11Z" stroke="#113D48" stroke-width="1.5"/>
<path d="M21 8.5V19.7052C21 29.6367 14.7107 38.0592 6 41" stroke="#113D48" stroke-width="1.5" stroke-linecap="round"/>
<path d="M51 11C51 15.714 51 18.071 49.5355 19.5355C48.071 21 45.714 21 41 21C36.286 21 33.929 21 32.4645 19.5355C31 18.071 31 15.714 31 11C31 6.28595 31 3.92893 32.4645 2.46448C33.929 1 36.286 1 41 1C45.714 1 48.071 1 49.5355 2.46448C51 3.92893 51 6.28595 51 11Z" stroke="#113D48" stroke-width="1.5"/>
<path d="M51 8.5V19.7052C51 29.6367 44.7107 38.0592 36 41" stroke="#113D48" stroke-width="1.5" stroke-linecap="round"/>
</g>
</svg>
