<svg width="36" height="36" viewBox="0 0 36 36" fill="none" xmlns="http://www.w3.org/2000/svg">
<path d="M7.3125 30.9375C7.25924 30.9369 7.20629 30.9294 7.155 30.915C7.03816 30.8809 6.93552 30.8099 6.8625 30.7125C6.78947 30.6151 6.75 30.4967 6.75 30.375V19.4428H0.5625C0.413316 19.4428 0.270242 19.3835 0.164752 19.2781C0.0592632 19.1726 0 19.0295 0 18.8803V5.625C0 5.47582 0.0592632 5.33274 0.164752 5.22725C0.270242 5.12176 0.413316 5.0625 0.5625 5.0625H14.625C14.7742 5.0625 14.9173 5.12176 15.0227 5.22725C15.1282 5.33274 15.1875 5.47582 15.1875 5.625V18.8691C15.1875 18.9756 15.1573 19.08 15.1003 19.17L7.78781 30.6759C7.73707 30.7561 7.66688 30.8221 7.58377 30.8678C7.50067 30.9135 7.40735 30.9375 7.3125 30.9375ZM1.125 18.3066H7.3125C7.46168 18.3066 7.60476 18.3658 7.71025 18.4713C7.81574 18.5768 7.875 18.7199 7.875 18.8691V28.4316L14.0625 18.7031V6.1875H1.125V18.3066Z" fill="#1CA8CB"/>
<path d="M28.125 30.9375C28.0717 30.9369 28.0188 30.9294 27.9675 30.915C27.8507 30.8809 27.748 30.8099 27.675 30.7125C27.602 30.6151 27.5625 30.4967 27.5625 30.375V19.4428H21.375C21.2258 19.4428 21.0827 19.3835 20.9773 19.2781C20.8718 19.1726 20.8125 19.0295 20.8125 18.8803V5.625C20.8125 5.47582 20.8718 5.33274 20.9773 5.22725C21.0827 5.12176 21.2258 5.0625 21.375 5.0625H35.4375C35.5867 5.0625 35.7298 5.12176 35.8352 5.22725C35.9407 5.33274 36 5.47582 36 5.625V18.8691C36 18.9756 35.9698 19.08 35.9128 19.17L28.6003 30.6759C28.5496 30.7561 28.4794 30.8221 28.3963 30.8678C28.3132 30.9135 28.2199 30.9375 28.125 30.9375ZM21.9375 18.3066H28.125C28.2742 18.3066 28.4173 18.3658 28.5227 18.4713C28.6282 18.5768 28.6875 18.7199 28.6875 18.8691V28.4316L34.875 18.7031V6.1875H21.9375V18.3066Z" fill="#1CA8CB"/>
</svg>
