<svg width="292" height="213" viewBox="0 0 292 213" fill="none" xmlns="http://www.w3.org/2000/svg">
<path opacity="0.4" d="M279.304 0H165.043C158.043 0 152.348 5.7054 152.348 12.7182V120.823C152.348 127.836 158.043 133.542 165.043 133.542H219V209.85C219 212.843 222.918 214.156 224.713 211.759L291.365 122.731C291.777 122.181 292 121.511 292 120.823V12.7182C292 5.7054 286.305 0 279.304 0ZM285.652 119.763L225.348 200.312V130.362C225.348 128.606 223.927 127.182 222.174 127.182H165.043C161.543 127.182 158.696 124.33 158.696 120.823V12.7182C158.696 9.21182 161.543 6.35912 165.043 6.35912H279.304C282.805 6.35912 285.652 9.21182 285.652 12.7182V119.763ZM126.957 0H12.6957C5.69527 0 0 5.7054 0 12.7182V120.823C0 127.836 5.69527 133.542 12.6957 133.542H66.6522V209.851C66.6522 212.826 70.5688 214.158 72.3652 211.759L139.017 122.731C139.429 122.181 139.652 121.511 139.652 120.823V12.7182C139.652 5.7054 133.957 0 126.957 0ZM133.304 119.763L73 200.312V130.362C73 128.606 71.5787 127.182 69.8261 127.182H12.6957C9.19546 127.182 6.34783 124.33 6.34783 120.823V12.7182C6.34783 9.21182 9.19546 6.35912 12.6957 6.35912H126.957C130.457 6.35912 133.304 9.21182 133.304 12.7182V119.763Z" fill="#E9F6F9"/>
</svg>
