<svg width="21" height="20" viewBox="0 0 21 20" fill="none" xmlns="http://www.w3.org/2000/svg">
<path d="M16.0986 8.92958C15.938 9.08191 15.7233 9.16699 15.4999 9.16699C15.2765 9.16699 15.0618 9.08191 14.9013 8.92958C13.4304 7.52673 11.4594 5.95958 12.4207 3.68437C12.9403 2.45418 14.1879 1.66699 15.4999 1.66699C16.8119 1.66699 18.0594 2.45418 18.5792 3.68437C19.5392 5.95672 17.573 7.53157 16.0986 8.92958Z" stroke="#1CA8CB"/>
<path d="M15.5 5H15.5075" stroke="#1CA8CB" stroke-linecap="round" stroke-linejoin="round"/>
<path d="M4.6665 18.333C6.04722 18.333 7.1665 17.2137 7.1665 15.833C7.1665 14.4523 6.04722 13.333 4.6665 13.333C3.28579 13.333 2.1665 14.4523 2.1665 15.833C2.1665 17.2137 3.28579 18.333 4.6665 18.333Z" stroke="#1CA8CB" stroke-linecap="round" stroke-linejoin="round"/>
<path d="M9.66667 5.83301H8.41667C6.80583 5.83301 5.5 6.9523 5.5 8.33301C5.5 9.71376 6.80583 10.833 8.41667 10.833H10.9167C12.5275 10.833 13.8333 11.9523 13.8333 13.333C13.8333 14.7138 12.5275 15.833 10.9167 15.833H9.66667" stroke="#1CA8CB" stroke-linecap="round" stroke-linejoin="round"/>
</svg>
