<svg width="21" height="20" viewBox="0 0 21 20" fill="none" xmlns="http://www.w3.org/2000/svg">
<path d="M13.8335 8.33301L15.6247 8.87034C16.769 9.21367 17.3412 9.38534 17.6707 9.82817C18.0002 10.271 18.0002 10.8684 18.0002 12.0631V18.333" stroke="#1CA8CB" stroke-linejoin="round"/>
<path d="M7.1665 7.5H9.6665M7.1665 10.8333H9.6665" stroke="#1CA8CB" stroke-linecap="round" stroke-linejoin="round"/>
<path d="M10.5002 18.3337V15.8337C10.5002 15.048 10.5002 14.6552 10.2561 14.4111C10.012 14.167 9.61916 14.167 8.8335 14.167H8.00016C7.21449 14.167 6.82165 14.167 6.57757 14.4111C6.3335 14.6552 6.3335 15.048 6.3335 15.8337V18.3337" stroke="#1CA8CB" stroke-linejoin="round"/>
<path d="M2.1665 18.333H18.8332" stroke="#1CA8CB" stroke-linecap="round"/>
<path d="M3 18.3337V5.59803C3 3.50574 3 2.45959 3.65932 1.94053C4.31864 1.42147 5.28952 1.70329 7.23127 2.26691L11.3979 3.47634C12.5697 3.81647 13.1556 3.98653 13.4944 4.45004C13.8333 4.91355 13.8333 5.54486 13.8333 6.80747V18.3337" stroke="#1CA8CB" stroke-linecap="round" stroke-linejoin="round"/>
</svg>
