<svg width="21" height="20" viewBox="0 0 21 20" fill="none" xmlns="http://www.w3.org/2000/svg">
<path d="M2.1665 17.9113C3.24525 17.9913 4.1529 17.083 4.94428 17.083C5.73567 17.083 7.02045 17.9208 7.72206 17.9113C8.564 17.9184 9.55017 17.083 10.4998 17.083C11.4495 17.083 12.4357 17.9184 13.2776 17.9113C14.3563 17.9913 15.264 17.083 16.0554 17.083C16.8468 17.083 18.1316 17.9208 18.8332 17.9113" stroke="#1CA8CB" stroke-linecap="round" stroke-linejoin="round"/>
<path d="M5.5 17.0833C4.31845 15.6113 3.48571 13.7273 3.13111 12.729C3.01866 12.4124 2.96245 12.2542 3.02774 12.1028C3.09302 11.9516 3.25314 11.8807 3.57336 11.7388L9.81433 8.97433C10.152 8.82475 10.3208 8.75 10.5 8.75C10.6792 8.75 10.848 8.82475 11.1857 8.97433L17.4267 11.7388C17.7468 11.8807 17.907 11.9516 17.9722 12.1028C18.0376 12.2542 17.9813 12.4124 17.8689 12.729C17.5142 13.7273 16.6816 15.6113 15.5 17.0833" stroke="#1CA8CB" stroke-linecap="round" stroke-linejoin="round"/>
<path d="M5.5 10.8337L5.67992 8.49466C5.79223 7.03462 5.84839 6.30458 6.32763 5.86079C6.80688 5.41699 7.53907 5.41699 9.00342 5.41699H11.9966C13.4609 5.41699 14.1931 5.41699 14.6723 5.86079C15.1516 6.30458 15.2077 7.03462 15.3201 8.49466L15.5 10.8337" stroke="#1CA8CB" stroke-linecap="round" stroke-linejoin="round"/>
<path d="M7.5835 5.41634L7.72642 4.27292C7.85676 3.23018 7.92194 2.70882 8.27639 2.39591C8.63084 2.08301 9.15625 2.08301 10.2071 2.08301H10.7932C11.8441 2.08301 12.3695 2.08301 12.7239 2.39591C13.0784 2.70882 13.1436 3.23018 13.2739 4.27292L13.4168 5.41634" stroke="#1CA8CB" stroke-linecap="round" stroke-linejoin="round"/>
</svg>
