<?xml version="1.0" encoding="utf-8"?>
<!-- Generator: Adobe Illustrator 23.0.2, SVG Export Plug-In . SVG Version: 6.00 Build 0)  -->
<svg version="1.1" id="Layer_1" xmlns="http://www.w3.org/2000/svg" xmlns:xlink="http://www.w3.org/1999/xlink" x="0px" y="0px"
	 viewBox="0 0 150 150" style="enable-background:new 0 0 150 150;" xml:space="preserve">
<style type="text/css">
	.st0{fill:none;filter:url(#Adobe_OpacityMaskFilter);}
	.st1{mask:url(#mask0_76_2578_1_);}
	.st2{fill:#54B0C7;}
	.st3{fill:#0B274D;}
	.st4{fill:#FAA706;}
</style>
<defs>
	<filter id="Adobe_OpacityMaskFilter" filterUnits="userSpaceOnUse" x="0" y="0" width="150" height="150">
		<feColorMatrix  type="matrix" values="1 0 0 0 0  0 1 0 0 0  0 0 1 0 0  0 0 0 1 0"/>
	</filter>
</defs>
<mask maskUnits="userSpaceOnUse" x="0" y="0" width="150" height="150" id="mask0_76_2578_1_">
	<rect class="st0" width="150" height="150"/>
</mask>
<g class="st1">
	<rect class="st2" width="150" height="150"/>
</g>
<g>
	<g>
		<path class="st3" d="M141.7,82.8H76.3c-3.7,0-6.8-3-6.8-6.8v-2.9c0-3.7,3-6.8,6.8-6.8h65.4c3.7,0,6.8,3,6.8,6.8v2.9
			C148.5,79.8,145.5,82.8,141.7,82.8z"/>
		<g>
			<path class="st4" d="M91.7,74.6c0,2.4,0,4.8,0,7.2c-1.6,0-3.2,0-4.7,0c0-4.7,0-9.4,0-14.2c0.2,0,0.3,0,0.5,0c1.2,0,2.5,0,3.7,0
				c0.4,0,0.6,0.1,0.8,0.4c1.4,2.2,2.7,4.3,4.1,6.5c0.1,0.1,0.2,0.3,0.3,0.5c0-2.5,0-4.9,0-7.4c1.6,0,3.1,0,4.7,0
				c0,4.7,0,9.4,0,14.2c-0.2,0-0.3,0-0.5,0c-1.3,0-2.6,0-3.8,0c-0.3,0-0.5-0.1-0.6-0.4c-1.4-2.2-2.7-4.3-4.1-6.4
				C92,74.8,91.9,74.7,91.7,74.6C91.7,74.5,91.7,74.6,91.7,74.6z"/>
			<path class="st4" d="M121.3,77.9c0,1.3,0,2.5,0,3.8c-1.6,0-3.1,0-4.7,0c0-4.7,0-9.4,0-14.2c0.1,0,0.1,0,0.2,0c2.5,0,5,0,7.6,0.1
				c1,0,1.9,0.3,2.8,0.6c1.6,0.6,2.5,1.9,2.7,3.6c0.2,1.6,0,3.1-1.1,4.3c-0.2,0.2-0.3,0.3-0.5,0.6c0.8,1.6,1.7,3.2,2.6,5
				c-1.6,0-3.2,0-4.7,0c-0.1,0-0.3-0.2-0.4-0.3c-0.6-1-1.1-2.1-1.6-3.1c-0.1-0.3-0.3-0.4-0.6-0.4C122.8,78,122.1,77.9,121.3,77.9z
				 M121.3,74c0.7,0,1.3,0,1.9,0c0.4,0,0.7,0,1.1-0.1c0.6-0.1,0.9-0.6,0.9-1.1c0-0.5-0.3-1-0.8-1.1c-1-0.1-2-0.1-3-0.2
				C121.3,72.4,121.3,73.1,121.3,74z"/>
			<path class="st4" d="M73,67.5c4.1,0,8.1,0,12.2,0c0,1.3,0,2.6,0,4c-2.5,0-4.9,0-7.4,0c0,0.4,0,0.8,0,1.2c2.2,0,4.5,0,6.8,0
				c0,1.2,0,2.3,0,3.5c-2.3,0-4.5,0-6.8,0c0,0.5,0,1,0,1.5c2.6,0,5.2,0,7.9,0c0,1.3,0,2.6,0,4c-4.2,0-8.4,0-12.6,0
				C73,77,73,72.3,73,67.5z"/>
			<path class="st4" d="M140,81.7c-1.6,0-3.1,0-4.7,0c0-0.6,0-1.1,0-1.7c0-1,0.2-2.1-0.1-3c-0.3-0.9-1-1.7-1.5-2.5
				c-1.4-2.1-2.7-4.3-4.1-6.4c-0.1-0.2-0.2-0.3-0.3-0.5c0.2,0,0.3,0,0.4,0c1.5,0,3,0,4.5,0c0.3,0,0.5,0.1,0.6,0.3
				c0.9,1.5,1.9,3,2.8,4.4c0.1,0.1,0.2,0.3,0.3,0.5c0.1-0.2,0.2-0.3,0.3-0.4c0.9-1.5,1.9-3,2.8-4.5c0.2-0.3,0.3-0.4,0.6-0.4
				c1.4,0,2.8,0,4.3,0c-0.1,0.2-0.2,0.3-0.3,0.5c-1.8,2.9-3.6,5.7-5.4,8.6c-0.2,0.2-0.2,0.6-0.2,0.8C140,78.8,140,80.3,140,81.7z"/>
			<path class="st4" d="M102,67.5c4.6,0,9.2,0,13.8,0c0,1.3,0,2.6,0,4c-1.5,0-3,0-4.5,0c0,3.4,0,6.8,0,10.2c-1.6,0-3.2,0-4.8,0
				c0-3.4,0-6.8,0-10.2c-1.5,0-3,0-4.5,0C102,70.2,102,68.9,102,67.5z"/>
		</g>
	</g>
	<g>
		<path class="st3" d="M59.6,78.7c0,1.5,0,2.8,0,4.2c-1.8,0-3.5,0-5.3,0c0-5.3,0-10.6,0-15.9c0,0,0.1-0.1,0.1-0.1
			c3.2,0.1,6.4,0.1,9.5,0.2c0.9,0,1.8,0.4,2.6,0.8c1.5,0.7,2.3,1.9,2.6,3.4c0.3,1.9,0.2,3.7-1.1,5.3c-0.2,0.2-0.4,0.5-0.7,0.7
			c0.9,1.8,1.9,3.6,2.9,5.6c-0.2,0-0.3,0-0.5,0c-1.5,0-3.1,0-4.6,0c-0.4,0-0.5-0.1-0.7-0.4c-0.6-1.2-1.2-2.3-1.8-3.5
			c-0.1-0.3-0.3-0.4-0.6-0.4C61.2,78.7,60.4,78.7,59.6,78.7z M59.6,71.5c0,0.9,0,1.8,0,2.7c1,0,2,0,3,0c0.8,0,1.3-0.6,1.3-1.3
			c0-0.7-0.5-1.3-1.3-1.4C61.7,71.4,60.6,71.5,59.6,71.5z"/>
		<path class="st3" d="M17,67c0,1.5,0,3,0,4.5c-1.7,0-3.3,0-5.1,0c0,3.9,0,7.7,0,11.5c-1.8,0-3.5,0-5.3,0c0-3.8,0-7.6,0-11.5
			c-1.7,0-3.4,0-5.1,0c0-1.5,0-3,0-4.5C6.6,67,11.8,67,17,67z"/>
		<g>
			<path class="st4" d="M17.3,66.7c1.3-0.2,2.4,0.1,3.4,0.6c0.9,0.5,1.7,1.1,2.5,1.8c0.9,0.9,1.8,1.8,2.9,2.4
				c1.3,0.7,2.7,0.8,4.1,0.9c3,0.2,6,0.5,9,0.7c0.1,0,0.1,0,0.3,0.1c-3.4,0.5-6.7,0.6-9.9,2.1c0.3,0.3,0.5,0.5,0.7,0.7
				c1.2,1,2.4,2,3.6,3c0.8,0.6,1.6,0.8,2.6,0.5c1-0.3,1.9-0.5,2.8-0.9c0.9-0.4,1.6-0.1,2.3,0.6c-1.2,1.3-2.4,2.6-3.6,4
				C31.1,77.8,24.3,72.3,17.3,66.7z"/>
			<g>
				<g>
					<path class="st3" d="M32.8,80c-0.6,1-1.5,1.7-2.6,2.2c-2.6,1.2-5.2,1.2-7.7-0.1c-2.3-1.2-3.4-3.2-3.7-5.9c0-0.4,0-0.7-0.1-0.9
						c0-2.1,0.5-3.9,1.6-5.4l-0.4-0.3c-1.2,1.5-1.7,3.5-1.7,5.7c0,0.3,0,0.6,0.1,1c0.3,2.8,1.5,5.1,4,6.3c2.7,1.4,5.5,1.4,8.3,0.1
						c1.2-0.5,2.1-1.3,2.8-2.3L32.8,80z"/>
				</g>
				<path class="st3" d="M19.9,69.6l13.3,10.8c0,0-1.6,1.6-3.3,2.4c-1.7,0.8-4.3,0.5-4.3,0.5L23,82.7L20.5,81l-1.3-2l-0.7-2.6
					l-0.1-2.5l0.7-2.2L19.9,69.6z"/>
			</g>
			<g>
				<path class="st3" d="M31,69c1.2,0.8,2,1.8,2.4,3l1.1,0.1c-0.5-1.5-1.4-2.9-2.9-3.9c-2.5-1.7-6.2-2-9.2-0.9l0.8,0.7
					C25.9,67.3,29,67.6,31,69z"/>
				<path class="st3" d="M34,74.6c0,0.1,0,0.1,0,0.2c0,0.8-0.1,1.6-0.2,2.3l0.8,0.7c0.2-1,0.4-2.1,0.4-3.1c0-0.1,0-0.2,0-0.3
					L34,74.6z"/>
			</g>
		</g>
		<path class="st3" d="M52.6,67.5c0-0.2,0-0.3,0-0.5c-1.8,0-3.5,0-5.3,0c0,0.2,0,0.5,0,0.7c0,2.8,0,5.6,0,8.4c0,1.4-0.6,2.4-1.7,2.7
			c-2.2,0.6-3.7-0.5-3.7-2.8c0-2.8,0-5.6,0-8.4c0-0.2,0-0.4,0-0.6c-1.8,0-3.5,0-5.3,0c0,0.1,0,0.2,0,0.2c0,1.6,0,3.3,0,4.9l4.6,0.8
			c0,0-1.2,1.2-4.6,1.3c0,0.9,0,1.7,0,2.6c0,0.6,0.1,1.1,0.2,1.6c1.3-0.6,4.4-1.8,6.2,0.3l-2.6,3.9c0.1,0,0.1,0,0.2,0.1
			c1.6,0.6,3.3,0.7,5,0.6c1.6-0.1,3.2-0.4,4.5-1.3c2-1.3,2.7-3.2,2.7-5.4C52.6,73.6,52.6,70.5,52.6,67.5z"/>
	</g>
</g>
</svg>
