<?xml version="1.0" encoding="utf-8"?>
<!-- Generator: Adobe Illustrator 23.0.2, SVG Export Plug-In . SVG Version: 6.00 Build 0)  -->
<svg version="1.1" id="Layer_1" xmlns="http://www.w3.org/2000/svg" xmlns:xlink="http://www.w3.org/1999/xlink" x="0px" y="0px"
	 viewBox="0 0 150 150" style="enable-background:new 0 0 150 150;" xml:space="preserve">
<style type="text/css">
	.st0{fill:url(#SVGID_1_);}
	.st1{clip-path:url(#SVGID_3_);}
	.st2{fill:#49B5D7;}
	.st3{opacity:0.45;clip-path:url(#SVGID_5_);fill:#FFECC9;}
	.st4{opacity:0.94;clip-path:url(#SVGID_5_);fill:#FFF1CE;}
	.st5{clip-path:url(#SVGID_5_);}
	.st6{fill:url(#SVGID_6_);}
	.st7{fill:url(#SVGID_7_);}
	.st8{fill:url(#SVGID_8_);}
	.st9{fill:url(#SVGID_9_);}
	.st10{fill:#3E3E3E;}
	.st11{fill:#218DA7;}
	.st12{fill:#1A8090;}
	.st13{fill:#FFFFFF;}
	.st14{fill:#F9A722;}
	.st15{fill:#A53F23;}
	.st16{fill:#1A1A1A;}
	.st17{fill:url(#SVGID_10_);}
	.st18{fill:url(#SVGID_11_);}
	.st19{fill:url(#SVGID_12_);}
	.st20{fill:url(#SVGID_13_);}
	.st21{fill:url(#SVGID_14_);}
	.st22{fill:url(#SVGID_15_);}
</style>
<g>
	<g>
		<g>
			<linearGradient id="SVGID_1_" gradientUnits="userSpaceOnUse" x1="47.1739" y1="82.9981" x2="103.2321" y2="82.9981">
				<stop  offset="8.130080e-03" style="stop-color:#FAAB18"/>
				<stop  offset="1" style="stop-color:#E87624"/>
			</linearGradient>
			<path class="st0" d="M48.3,91.1l13.1,7.7l7.4,4.2c0,0,5.8,2.4,8.4,1.1c2.6-1.3,16.6-8.3,16.6-8.3s9.4-4.6,9.4-8.7
				c0-4.1-3.5-25.7-3.5-25.7S38.2,65.2,48.3,91.1z"/>
			<path d="M105.8,47.7L82.6,34.3c-2-1.1-4.6-1.8-7.3-1.8c-2.7,0-5.3,0.6-7.3,1.8L44.8,47.7c-4.2,2.4-7,8.1-6.3,12.9l2.9,20.8H42
				l-2.9-20.9c-0.6-4.6,2-10,6-12.3l23.1-13.4c1.9-1.1,4.4-1.7,7-1.7c2.6,0,5.1,0.6,7,1.7l23.1,13.4c4,2.3,6.7,7.7,6,12.3l-2.9,20.9
				h0.6l2.9-20.8C112.8,55.8,110,50.1,105.8,47.7z"/>
			<g>
				<path d="M103.7,90.7c-1.3,1.7-2.9,3.1-4.4,3.9L82,104.4c-1.9,1.1-4.4,1.7-7.1,1.7c-2.6,0-5.2-0.6-7.1-1.7l-17.3-9.8
					c-1.5-0.9-3-2.2-4.4-3.9l-0.4-0.4h-0.8l0.6,0.8c1.4,1.8,3,3.2,4.6,4.1l17.3,9.8c2,1.1,4.6,1.8,7.3,1.8c2.7,0,5.4-0.6,7.3-1.8
					l17.3-9.8c1.6-0.9,3.2-2.3,4.6-4.1l0.6-0.8h-0.8L103.7,90.7z"/>
				<path d="M51,93.8l17.3,9.8c1.8,1,4.1,1.6,6.6,1.6c2.5,0,4.8-0.6,6.6-1.6l17.3-9.8c1.4-0.8,2.8-2.1,4-3.6h-2
					c-0.9,1-1.8,1.8-2.8,2.3l-17.3,9.8c-1.6,0.9-3.6,1.4-5.9,1.4c-2.2,0-4.3-0.5-5.9-1.4l-17.3-9.8c-1-0.6-1.9-1.4-2.8-2.3H47
					C48.2,91.7,49.6,93,51,93.8z"/>
				<g>
					<g>
						<g>
							<path d="M61.4,93.1c0,0-5.1,0-6.2,0c-1,0-1.9-0.6-1.9-0.6h8.1V93.1z"/>
							<path d="M61.4,94.4c0,0-2.9,0-4,0c-1,0-1.9-0.6-1.9-0.6h5.9V94.4z"/>
							<path d="M61.4,95.6c0,0-0.3,0-1.3,0c-1,0-1.9-0.6-1.9-0.6h3.2V95.6z"/>
						</g>
						<g>
							<path d="M88.5,93.1c0,0,5.1,0,6.2,0c1,0,1.9-0.6,1.9-0.6h-8.1V93.1z"/>
							<path d="M88.5,94.4c0,0,2.9,0,4,0c1,0,1.9-0.6,1.9-0.6h-5.9V94.4z"/>
							<path d="M88.5,95.6c0,0,0.3,0,1.3,0c1,0,1.9-0.6,1.9-0.6h-3.2V95.6z"/>
						</g>
					</g>
				</g>
			</g>
			<g>
				<defs>
					<path id="SVGID_2_" d="M110.8,58.7c0,0.3,0,0.6,0,0.9c0,0.1-0.1,0.1-0.1,0.2c-0.3,2-0.5,3.9-0.8,5.9c-0.4,2.6-0.7,5.3-1.1,7.9
						c-0.3,2.4-0.7,4.8-1,7.2c-0.1,0.5-0.2,0.6-0.7,0.6c-16.5,0-32.9,0-49.4,0c-4.7,0-9.5,0-14.2,0c-0.4,0-0.6-0.1-0.6-0.5
						c-0.1-1-0.3-2.1-0.4-3.1c-0.4-2.8-0.8-5.7-1.2-8.5c-0.4-2.6-0.7-5.2-1.1-7.9c-0.3-1.7-0.3-3.3,0.1-4.9c0.9-3.3,2.6-5.9,5.6-7.6
						c7.6-4.4,15.2-8.8,22.8-13.2c1.1-0.6,2.3-1,3.5-1.3c0.7-0.1,1.4-0.2,2.1-0.3c0.7,0,1.5,0,2.2,0c0.1,0,0.3,0.1,0.4,0.1
						c1.8,0.2,3.5,0.6,5.1,1.5c6.4,3.7,12.7,7.3,19.1,11c1.5,0.9,3.1,1.7,4.5,2.6c2.6,1.8,4.1,4.3,4.9,7.4
						C110.6,57.4,110.7,58.1,110.8,58.7z"/>
				</defs>
				<clipPath id="SVGID_3_">
					<use xlink:href="#SVGID_2_"  style="overflow:visible;"/>
				</clipPath>
				<g class="st1">
					
						<ellipse transform="matrix(0.1485 -0.9889 0.9889 0.1485 7.1313 123.7362)" class="st2" cx="75.4" cy="57.7" rx="41.1" ry="41.1"/>
					<g>
						<defs>
							
								<ellipse id="SVGID_4_" transform="matrix(0.1485 -0.9889 0.9889 0.1485 7.1313 123.7362)" cx="75.4" cy="57.7" rx="41.1" ry="41.1"/>
						</defs>
						<clipPath id="SVGID_5_">
							<use xlink:href="#SVGID_4_"  style="overflow:visible;"/>
						</clipPath>
						
							<ellipse transform="matrix(0.7071 -0.7071 0.7071 0.7071 -19.1178 57.3079)" class="st3" cx="59.6" cy="51.7" rx="9.6" ry="9.6"/>
						<ellipse transform="matrix(0.7071 -0.7071 0.7071 0.7071 -19.1178 57.3079)" class="st4" cx="59.6" cy="51.7" rx="8" ry="8"/>
						<g class="st5">
							<g>
								<linearGradient id="SVGID_6_" gradientUnits="userSpaceOnUse" x1="104.4333" y1="49.8713" x2="97.013" y2="61.3992">
									<stop  offset="8.130080e-03" style="stop-color:#FAAB18"/>
									<stop  offset="1" style="stop-color:#E87624"/>
								</linearGradient>
								<path class="st6" d="M101,46.5c-10,2.3-23.3,10.2-23.3,10.2L85.9,77l22.8,1.3l6.1-25.2L101,46.5z"/>
								
									<linearGradient id="SVGID_7_" gradientUnits="userSpaceOnUse" x1="-67.2583" y1="53.45" x2="-90.5175" y2="71.164" gradientTransform="matrix(-1 0 0 1 33.396 0)">
									<stop  offset="8.130080e-03" style="stop-color:#681F0F"/>
									<stop  offset="0.9959" style="stop-color:#E87624"/>
								</linearGradient>
								<path class="st7" d="M101,46.5c-3.1,3.1,11.3,5,8.1,9.9c-3.2,4.9-11.8,2.1-14.7,7.5c-2.7,5,26,13.8,26,13.8l5.5-22.3
									C125.8,55.3,104.4,46.1,101,46.5z"/>
							</g>
							<g>
								<linearGradient id="SVGID_8_" gradientUnits="userSpaceOnUse" x1="50.7555" y1="82.2098" x2="120.4067" y2="82.2098">
									<stop  offset="8.130080e-03" style="stop-color:#681F0F"/>
									<stop  offset="0.9959" style="stop-color:#E87624"/>
								</linearGradient>
								<path class="st8" d="M76.6,52.4c18.8,4.3,43.8,19.1,43.8,19.1L105,109.7L62.3,112L50.8,64.7L76.6,52.4z"/>
								<linearGradient id="SVGID_9_" gradientUnits="userSpaceOnUse" x1="77.199" y1="65.4968" x2="33.5134" y2="98.7673">
									<stop  offset="8.130080e-03" style="stop-color:#FAAB18"/>
									<stop  offset="1" style="stop-color:#E87624"/>
								</linearGradient>
								<path class="st9" d="M76.6,52.4c5.8,5.8-21.2,9.4-15.2,18.5C67.3,80,83.6,74.8,89.1,85c5,9.3-48.8,26-48.8,26L30,69
									C30,69,70.2,51.7,76.6,52.4z"/>
							</g>
						</g>
					</g>
				</g>
			</g>
			<g>
				<path d="M109,76.2c0.1,1,0.3,2,0.3,3c0,2.2-0.4,4.3-1.3,6.4c0,0.1-0.1,0.2-0.1,0.3c0,0,0,0.1,0,0.2c0.8-0.3,1.5-0.7,2.3-1
					c0,0,0,0,0,0.1c-0.3,0.2-0.6,0.4-0.9,0.6c0,0,0,0,0,0.1c0.7-0.3,1.3-0.6,2-0.8c0,0,0,0.1,0,0.1c-0.9,0.5-1.8,1-2.7,1.5
					c0,0,0,0,0,0c1.1-0.3,2.1-0.6,3.1-0.9c0.2,0.4,0,0.5-0.2,0.6c-0.4,0.2-0.8,0.4-1.2,0.6c0,0.1,0,0.1,0.1,0.2
					c0.3-0.1,0.6-0.1,0.8-0.2c0,0,0,0,0,0c-1.1,0.5-2.2,1-3.3,1.4c0,0,0,0.1,0,0.1c0.3-0.1,0.6-0.1,0.9-0.2c0,0.1,0,0.1-0.1,0.1
					c-2.8,1.1-5.3,2.7-7.9,4c-1.1,0.6-2.3,1-3.5,1.5c-0.2,0.1-0.5,0.1-0.7,0.1c2-1.3,4.2-2.2,6.3-3.1c0,0,0-0.1,0-0.1
					c-0.2,0-0.4,0.1-0.6,0.1c-2.5,0.9-5.1,1.7-7.6,2.6c-0.4,0.1-0.9,0.3-1.3,0.4c0-0.1,0-0.1-0.1-0.2c1.9-1,3.7-1.9,5.6-2.9
					c0,0,0-0.1,0-0.1c-0.3,0.1-0.5,0.1-0.8,0.2c-0.6,0.1-1.3,0.3-1.9,0.3c-0.6,0-1.1,0.4-1.6,0.5c-1.3,0.3-2,1.1-2.3,2.4
					c-0.3,1.3-1,2.5-1.9,3.5c-0.1,0.1-0.2,0.2-0.2,0.4c2.2-0.8,4.5-1.6,6.7-2.3c0,0,0,0.1,0,0.1c-1.7,0.7-3.4,1.3-5.2,2
					c0.8,0.1,1.4,0.1,2.1,0.2c0.1,0,0.2-0.1,0.3-0.1c0.9-0.4,1.8-0.8,2.7-1.2c0.3-0.1,0.6-0.2,0.6,0.4c2-0.8,3.9-1.6,5.9-2.4
					c0,0,0,0,0,0.1c-1.5,0.9-2.9,1.7-4.4,2.6c0.2,0,0.3,0,0.4,0c0,0,0,0,0,0.1c-1.2,0.6-2.4,1.1-3.6,1.7c0,0,0,0.1,0,0.1
					c1.1,0,2.2,0,3.3,0.1c-1.9,0.3-3.9-0.1-5.6,0.9c0.3-0.1,0.5-0.1,0.8-0.2c0.5-0.1,1-0.1,1.5-0.1c0.1,0,0.2,0,0.2,0
					c0.1,0.6,0.6,0.3,0.9,0.3c2.1,0,4.3-0.1,6.4-0.1c0.1,0,0.2,0,0.3,0.1c-1.2,0.1-2.4,0.3-3.6,0.3c-1.9,0.1-3.8,0.2-5.7,0.4
					c-1,0.1-2,0.3-2.9,0.4c-0.7,0.1-1.5,0-2.2,0.1c-1.4,0.2-2.9,0.4-4.3,0.7c-0.2,0-0.4,0.1-0.6,0.2c1.4-0.1,2.8-0.6,4.1-0.2
					c-0.8,0.1-1.6,0.1-2.4,0.2c0,0,0,0.1,0,0.1c1.5,0,2.9,0,4.4,0c0,0,0,0.1,0,0.1c-0.4,0-0.9,0-1.3,0.1c0,0,0,0,0,0.1
					c0.8,0.1,1.6,0.1,2.5,0.2c-1.6,0.1-3.2-0.1-4.7,0.3c0.6,0.1,1.3,0.1,1.9,0.2c0,0,0,0.1,0,0.1c-2.1,0.1-4.2,0.1-6.3,0.2
					c0,0,0-0.1,0-0.1c0.4-0.1,0.9-0.1,1.3-0.2c0,0,0-0.1,0-0.1c-0.5,0-0.9,0.1-1.4,0.1c0-0.1,0-0.2-0.1-0.3c0.1-0.1,0.3-0.2,0.4-0.2
					c-3.4,0.3-6.6,1.5-9.9,2.3c0.5-0.2,1-0.4,1.5-0.6c0.5-0.2,1-0.4,1.5-0.6c-0.3-0.2-0.5-0.4-0.7-0.5c-0.1-0.1-0.3,0-0.5,0
					c-0.8,0.2-1.5,0.4-2.3,0.6c-0.1,0-0.3,0-0.4,0.1c0,0,0-0.1,0-0.1c0.8-0.2,1.6-0.4,2.5-0.6c0,0,0-0.1,0-0.1
					c-2.8,0.5-5.6,1-8.5,1.5c0,0,0-0.1,0-0.1c1.6-0.3,3.2-0.7,4.8-1c1.6-0.4,3.2-0.8,4.8-1.2c0,0,0-0.1,0-0.1
					c-0.3,0.1-0.6,0.1-0.9,0.2c-0.7,0.2-1.5,0.4-2.2,0.5c-0.4,0.1-0.7,0-1.1,0c-0.1,0-0.2,0-0.3,0c-0.7,0.1-1.4,0.2-2,0.3
					c-1.7,0.3-3.4,0.6-5.1,0.9c-0.4,0.1-0.7,0.2-1.1,0.2c0,0,0-0.1,0-0.1c3.7-0.9,7.3-1.9,11-2.8c-0.7-0.1-1.4,0.4-2.1-0.1
					c1.1-0.5,2.3-0.6,3.3-0.5c-0.2-0.2-0.5-0.5-0.8-0.8c0.1-0.1,0.1-0.1,0.2-0.2c0.7,0.4,1.4,0.8,2.2,1.1c0,0,0-0.1,0.1-0.1
					c-0.3-0.2-0.6-0.4-0.9-0.6c-0.3-0.3-0.6-0.6-1-0.9c-0.4-0.3-0.7-0.5-1.1-0.6c-1.1-0.3-2.3-0.5-3.5-0.7c-0.1,0-0.3,0.1-0.4,0.1
					c-0.6-0.1-1.1-0.3-1.6-0.4c0,0.1,0,0.1,0,0.2c0.4,0.2,0.8,0.3,1.1,0.5c0,0,0,0,0,0.1c-0.6-0.2-1.1-0.3-1.7-0.5c0,0,0,0.1,0,0.1
					c1.6,0.6,3.2,1.2,4.8,1.9c0,0,0,0.1,0,0.1c-0.2-0.1-0.3-0.1-0.5-0.2c-2.5-1-4.9-2-7.6-2.5c-2.9-0.6-5.7-0.8-8.6-0.8
					c-0.1,0-0.2,0-0.3,0c-2,0.2-3.9,0.7-5.8,1.3c-1.5,0.4-2.9,0.8-4.4,1.2c-0.1,0-0.1,0-0.2,0c1.1-0.4,2.2-0.7,3.3-1.1
					c0,0,0-0.1,0-0.1c-1.7,0.4-3.3,0.8-5,1.1c0,0,0-0.1,0-0.1c1.5-0.4,2.9-0.8,4.4-1.2c0,0,0-0.1,0-0.1c-3.3,0.5-6.5,1.4-9.7,2
					c1.9-0.5,3.7-1.1,5.6-1.6c0,0,0-0.1,0-0.1c-0.1,0-0.3,0.1-0.4,0.1c-0.7,0.1-1.3,0.1-2,0.2c-0.5,0.1-1,0.1-1.3,0.2
					c0.2-0.1,0.5-0.4,0.9-0.7C40.1,97,40,97,39.9,97c0.3-0.1,0.6-0.2,1-0.4c0,0,0-0.1,0-0.1c-1.4,0.2-2.7,0.5-4.1,0.7
					c1.9-1.1,4-1.4,6.1-2c-0.8-0.1-1.4-0.1-2-0.2c0-0.1,0-0.1,0.1-0.2c-0.7,0-1.4,0.1-2.1,0.1c0,0,0,0,0-0.1
					c0.1-0.1,0.2-0.1,0.4-0.2c0,0,0,0,0-0.1c-0.3,0-0.7,0.1-1,0.1c0,0,0,0,0-0.1c0.2-0.1,0.4-0.1,0.6-0.2c0.2-0.1,0.4-0.1,0.6-0.1
					c0.2-0.1,0.5-0.1,0.4-0.4c-0.1,0-0.2,0-0.3,0c0.2-0.2,0.7,0,0.6-0.6c0.2,0,0.4,0,0.7,0c-3.4-4.6-2.4-8.8,1.2-12.6
					c1.4-1.5,3.2-2.2,5.2-2.4c2-0.3,3.9,0.2,5.7,1.3c-0.5-1.9-0.6-3.8-1.5-5.5c-0.3-0.6-0.3-1.2,0.1-1.8c0.5-0.7,1-1.2,1.9-1.2
					c1.4-0.1,2.8-0.4,4.1-0.6c0.2,0,0.4-0.2,0.5-0.3c3.5-3.7,6.9-7.4,10.4-11.1c1-1.1,2.3-1.8,3.7-2c0.4-0.1,0.7-0.1,0.8-0.5
					c0-0.1,0.1-0.2,0.2-0.2c0.7-0.3,0.6-0.9,0.6-1.5c0-0.4-0.1-0.8,0.3-1.1c0.1-0.1,0.1-0.3,0.1-0.4c0.2-2.5,0.3-5.1,0.5-7.6
					c0-0.2,0.1-0.4,0.1-0.6c0.1,0,0.1,0,0.2,0c0,0.2,0,0.4,0,0.6c-0.1,1.5-0.2,2.9-0.3,4.4c-0.1,1.1-0.1,2.2-0.2,3.2
					c0,0.2,0.1,0.4,0.2,0.5c0.1,0.2,0.2,0.3,0.2,0.5c0,0.2,0,0.5,0,0.7c-0.1,1.2,0.4,1.7,1.6,1.6c3.6-0.3,7.1-0.7,10.7-1
					c0.4,0,0.7-0.1,0.8-0.6c0-0.1,0.1-0.2,0.2-0.3c0.6-0.2,0.4-0.6,0.4-1c0-0.3,0-0.5-0.1-0.8c0-0.1,0-0.3,0-0.4
					c0.7-0.8,0.2-1.8,0.1-2.6c-0.3-3.7-0.7-7.3-1-10.9c0-0.1,0-0.3,0-0.4c0,0,0.1,0,0.1,0c0,0.2,0.1,0.4,0.1,0.6
					c0.4,4,0.8,8.1,1.2,12.1c0,0.3-0.1,0.7,0.4,0.9c0.1,0,0.1,0.2,0.1,0.3c0.1,0.5,0.1,1.1,0.1,1.6c0,0.1,0.2,0.3,0.3,0.4
					c0.2,0.2,0.4,0.5,0.6,0.7c0.1,0.1,0.2,0.3,0.3,0.3c1.3,0.4,2.1,1.3,2.7,2.5c0.7,1.5,1.4,3.1,2.1,4.6c0.3,0.6,0.9,0.8,1.4,0.4
					c0.5-0.4,1-0.6,1.6-0.5c0.1,0,0.3,0.2,0.4,0.3c0.1,0.1,0.2,0.3,0.4,0.3c0.3,0.1,0.4,0.3,0.5,0.6c0.1,1.5,0.1,1.5-1.2,2.4
					c-0.5,0.3-0.8,0.7-1,1.3c-0.4,1.3-0.8,2.6-1.2,3.8c0,0.1,0,0.3,0.1,0.4c0.4,0.9,0.9,1.8,1.3,2.7c0.2,0.4,0,0.6-0.4,0.7
					c-0.2,0-0.5,0.2-0.8,0.3c0.7,0.2,1.4-0.5,1.7,0.5c0.1-0.2,0.2-0.3,0.2-0.4c0.4-0.7,0.8-1.4,1.3-2.1c0.6-0.9,1.5-1.4,2.6-1.5
					c1.2-0.1,2.5,0,3.7,0.4c0.8,0.2,1.4,0.8,1.8,1.5c0.4,0.7,0.7,1.5,1,2.2c-0.2-0.2-0.4-0.3-0.6-0.5c0.2-0.1,0.2-0.3,0-0.5
					c-0.3-0.3-0.9-0.3-1.2,0c0.3,0.2,0.7,0.4,0.8,0.7c0.3,0.6,0.6,1.3,0.6,1.9c0,1.1-0.1,2.3-0.4,3.3c-0.2,1-0.7,1.9-1.1,2.8
					c-0.1,0.2-0.3,0.4-0.4,0.6c-0.1,0-0.3-0.1-0.5-0.2c0.1,0.2,0.1,0.4,0.1,0.6c-0.6-0.4-0.8-0.9-0.8-1.5c-0.1-1-0.1-2-0.1-3
					c0-0.8,0.1-1.7,0.2-2.5c-0.1,0.4-0.2,0.8-0.3,1.3c-0.1,0.8-0.5,1.5-1.2,2c-0.2,0.2-0.5,0.3-0.7,0.5c-1.1,0.8-2,1.7-2.5,3
					c0,0.1-0.1,0.2-0.2,0.4c-0.2-0.1-0.3-0.2-0.4-0.3c0.2,0.9,0.8,1.5,1.6,1.6c0-0.2,0-0.4,0-0.5c0.1,0.7,0.2,0.8,1,0.7
					c0.1-0.7,1-1.4,1.8-1.5c-0.4,0.3-0.8,0.5-1.2,0.8c0,0.1,0,0.1,0.1,0.2c0.2,0,0.6,0,0.6-0.1c0.1-0.6,0.8-0.5,1.1-0.8
					c-0.2,0.2-0.4,0.4-0.5,0.6c-0.2,0.2-0.3,0.5-0.5,0.6c-0.4,0.3-0.8,0.6-1.1,0.9c0,0,0.1,0.1,0.1,0.1c0.3-0.2,0.6-0.5,0.9-0.7
					c0.2-0.2,0.5-0.3,0.8-0.4c0.1,0,0.3,0.1,0.3,0.2c0.3,0.5,0.6,0.6,1.1,0.3c0,0,0.1,0,0.1-0.1c0,0.1-0.1,0.2-0.1,0.3
					c0.4-0.3,0.7-0.6,0.9-1c1.1-2.1,1.8-4.3,1.8-6.6C109.1,78.4,109,77.3,109,76.2z M98.4,65.4c0.3-0.2,0.6-0.4,0.9-0.7
					c0.4-0.3,0.4-0.7,0-1.1c0,0.2,0,0.3-0.1,0.5c-0.1-0.1-0.1-0.2-0.2-0.5c-0.1,0.4-0.2,0.6-0.4,0.9c0-0.3,0-0.4,0-0.6
					c0,0-0.1,0-0.1-0.1c-0.1,0.1-0.2,0.3-0.2,0.4C98.3,64.7,98.4,65,98.4,65.4c-0.1-0.2-0.2-0.4-0.4-0.6c-0.1-0.2-0.2-0.4-0.3-0.5
					c-0.3-0.1-0.6-0.1-1-0.1c0,0.1,0,0.1-0.1,0.2c0.8,0,1.1,0.5,1.2,1.3C98.2,65.5,98.3,65.5,98.4,65.4z M81.6,94.6
					c0.2,0.2,0.4,0.5,0.7,0.7c0.8,0.6,1.6,0.9,2.6,0.7c0.4-0.1,0.6-0.2,0.8-0.6c-0.8,0.3-1.5,0.5-2.3,0.2
					C82.7,95.3,82.2,94.9,81.6,94.6c0-0.1,0-0.1,0-0.1c-2.1-2.3-2.4-6.8,0.3-9.6c0.1-0.1,0.2-0.3,0.3-0.4c0,0-0.1-0.1-0.1-0.1
					c-0.4,0.5-0.9,0.9-1.3,1.4c-1.1,1.4-1.2,3.1-1,4.9C79.9,92.2,80.4,93.6,81.6,94.6z M41.2,89c-0.1-0.2-0.1-0.3,0.2-0.4
					c0.2-0.1,0.5-0.1,0.7-0.1c0.4,0,0.8,0.1,1.2,0.1c0,0,0-0.1,0-0.1c-0.2-0.1-0.5-0.2-0.7-0.4c0,0,0.1-0.1,0.1-0.1
					c0-0.1-0.1-0.3-0.1-0.4c0.2,0.1,0.4,0.1,0.7,0.1c0,0,0,0,0,0c-0.2-0.1-0.4-0.2-0.6-0.3c0,0,0,0,0-0.1c0.3,0,0.5,0,0.7,0
					c-0.1-0.2-0.2-0.5-0.2-0.7c0.1-0.2,0.4-0.2,0.7-0.3c-0.5-0.6-1.1-1-1.8-1.1c-0.2,0-0.6,0-0.6-0.4c0-0.4,0.4-0.4,0.7-0.4
					c0.3,0,0.6,0.1,0.9,0.2c0.2,0,0.4,0.1,0.6,0.2c0-0.2-0.1-0.3-0.1-0.5c0.2-0.1,0.3-0.1,0.4-0.2c0-0.2-0.1-0.3-0.1-0.5
					c0.3,0,0.5,0.1,0.6,0.1c0.1-0.2,0.2-0.4,0.3-0.7c-0.3-0.5-0.8-1-1.5-1.1c-0.1,0-0.3-0.2-0.4-0.3c0.2-0.1,0.3-0.2,0.5-0.1
					c0.6,0.2,1.1,0.4,1.7,0.6c0.2,0.1,0.5,0.1,0.7,0.2c0,0,0-0.1,0-0.1c-0.1-0.2-0.3-0.3-0.4-0.5c0,0,0,0,0-0.1
					c0.2,0.1,0.3,0.2,0.5,0.3c0,0,0,0,0-0.1c-0.2-0.2-0.4-0.4-0.6-0.7c0,0,0,0,0,0c0.3,0.1,0.5,0.3,0.8,0.4c0,0,0-0.1,0.1-0.1
					c-0.2-0.3-0.4-0.5-0.7-0.9c0.5,0.1,1,0.2,1.5,0.4c-0.4-0.6-0.8-1.2-1.6-1.2c-0.2,0-0.4-0.1-0.5-0.1c0.2-0.1,0.3-0.2,0.5-0.3
					c0,0,0.1,0,0.2,0c-0.1,0.1-0.1,0.1-0.1,0.1c0.4,0.2,0.9,0.3,1.2,0.5c0.1-0.1,0.2-0.2,0.2-0.2c0.2,0,0.5,0.1,0.7,0.1
					c0-0.2-0.1-0.3-0.1-0.6c0.6,0.4,1.2,0.7,1.9,1.1c-0.4-0.8-0.7-1.4-1.6-1.5c0.1-0.1,0.2-0.2,0.3-0.2c0.8-0.1,1.2,0.5,1.8,1
					c-0.1-0.2-0.1-0.4-0.2-0.6c0.2,0.1,0.3,0.2,0.3,0.3c0-0.2,0-0.4,0.1-0.7c-0.1-0.1-0.3-0.2-0.6-0.2c-2.5-0.4-4.7,0.3-6.6,1.9
					c0,0-0.1,0.1-0.1,0.2c0.6,0.1,1.1,0,1.4-0.6c0.3,0.3,0.2,0.6-0.2,0.7c-0.5,0.1-0.9,0.2-1.4,0.3c-0.5,0.1-0.9,0.4-1.2,0.8
					c0.1,0,0.2,0.1,0.3,0.1c-0.5,0.3-1,0.7-1.1,1.3c0.4-0.3,1.1-0.2,1.4-0.9c0,0,0.2-0.1,0.2,0c0.1,0.1,0.1,0.2,0.1,0.3
					c-0.2,0.2-0.4,0.5-0.7,0.7c-0.4,0.2-0.8,0.3-1.1,0.5c-0.2,0.1-0.4,0.4-0.5,0.6c0,0,0.1,0.1,0.1,0.1c0.1,0,0.3,0,0.4,0
					c0,0,0.1,0.1,0.1,0.1c-1.2,0.5-1,1.5-1.1,2.5c0.7-0.3,0.9-0.4,1.1-1.1c0-0.1,0.2-0.2,0.2-0.3c0.1,0,0.1,0.1,0.2,0.1
					c-0.1,0.5-0.3,1.1-0.4,1.6c0.1,0,0.2,0,0.3,0c-0.1,0.5-0.1,1-0.2,1.7c0.1-0.2,0.2-0.4,0.3-0.5c0.1,0.1,0.1,0.1,0.2,0.2
					c-0.4,0.6-0.9,1.2-1.3,1.8c0,0,0-0.1-0.1-0.1c0.4-0.3,0.8-0.5,1.2-0.8C41.1,89.4,41.1,89.1,41.2,89c0.8,0,1.7,0,2.5,0
					c-0.5-0.1-1.1-0.2-1.6-0.3C41.8,88.7,41.5,88.9,41.2,89z M58.8,92.2c-0.1,0-0.2,0-0.4,0c-1.9,0.7-3.8,1.4-5.7,2.1
					c-0.1,0.1-0.3,0.2-0.4,0.3c0,0,0,0.1,0.1,0.1c1.2-0.5,2.4-1,3.5-1.4c0.8-0.3,1.5-0.6,2.3-0.9c-0.8,0.4-1.5,0.7-2.3,1.1
					c-0.4,0.2-0.7,0.3-1.1,0.5c3.4-0.4,6.7-1.4,10-2.5c-0.5,0-1,0-1.5,0.1c0-0.1,0-0.1,0-0.2c1.5-0.3,3.1-0.5,4.6-0.8
					c0-0.1,0-0.1,0-0.2c-1,0.1-2,0.3-2.9,0.4c0,0,0,0,0,0c0.1-0.1,0.3-0.2,0.4-0.2c0.3-0.1,0.6-0.1,0.9-0.2c0,0,0-0.1,0-0.1
					c-0.5,0-1,0-1.4,0c0,0,0,0,0,0c0.8,0,1.6-0.1,2.4-0.1c-0.5-0.3-1-0.7-1.6-0.2c0-0.1,0.1-0.2,0.2-0.4c-0.9,0-1.7,0-2.5-0.1
					c-1,0-1.9-0.1-2.9-0.2c-0.4,0-0.8-0.1-1.1-0.1c-1,0.1-2,0.2-3,0.2c-0.4,0-0.7,0.2-0.8,0.6c-0.4,1.3-1.1,2.4-2,3.3
					c-0.1,0.1-0.1,0.2-0.2,0.3c0,0,0,0.1,0.1,0.1c0.3-0.3,0.6-0.5,1-0.4c0,0,0.1,0,0.1,0c0.6-0.2,1.3-0.5,1.9-0.7
					c1.4-0.4,2.9-0.9,4.3-1.3c0,0,0,0,0,0.1C60,91.7,59.4,91.9,58.8,92.2z M87.7,81.2c0.1-0.2,0.2-0.3,0.2-0.4
					c0.3-0.6,0.3-0.7-0.2-1.2c-0.1-0.1-0.3-0.3-0.4-0.4c-0.2-0.2-0.3-0.4-0.6-0.5c-0.9-0.4-1.7-0.8-2.6-1.1
					c-0.4-0.1-0.8-0.2-1.3-0.2c-0.8,0.1-1.5,0.2-2.3,0.4c-0.3,0.1-0.7-0.1-0.7,0.5c0,0-0.2,0.1-0.2,0.1c-0.7,0.2-1.4,0.4-2.1,0.6
					c-0.2,0.1-0.4,0.1-0.6,0.2c0.5,0.8,0.4,1.1-0.5,1.2c-0.3,0-0.6,0.1-0.9,0.1c-0.8,0-1,0.7-1.6,1.1c0.2,0.1,0.3,0.2,0.4,0.2
					c0.5,0.2,0.5,0.6,0.1,0.9c-0.1,0.1-0.4,0.3-0.6,0.3c-0.8,0-1.2,0.4-1.6,1.1c-0.2,0.3-0.1,0.4,0.1,0.6c0.6,0.4,0.7,0.9,0.3,1.6
					c0-0.4-0.1-0.7-0.1-1c0,0-0.1,0-0.1,0c-0.2,0.4-0.3,0.7-0.5,1.2c-0.4-0.1-0.6,0.2-0.7,0.7c0,0.3-0.1,0.5-0.2,0.8
					c-0.1,0.3,0,0.5,0.3,0.7c0.3,0.2,0.6,0.4,0.7,0.7c0.1,0.5-0.1,1-0.1,1.6c-0.2-0.2-0.4-0.2-0.6-0.4c-0.2,0.3-0.4,0.5-0.4,0.8
					c-0.1,0.7,0.4,1.1,1.1,1.2c0.1-0.2,0.1-0.4,0.5-0.5c0.2,0,0.4-0.3,0.8-0.1c0.1,0,0.2,0,0.3-0.1c0.2-0.1,0.4-0.2,0.6-0.3
					c0.1,0,0.2,0,0.3,0c0,0.1,0,0.2,0,0.3c-0.2,0.3-0.7,0.5-1.2,0.4c-0.2-0.1-0.3-0.2-0.6-0.3c0.1,0.5,0.2,0.8,0.2,1.2
					c0.3-0.1,0.6-0.1,0.8-0.2c0.3-0.1,0.3,0.1,0.4,0.3c0,0.3,0.1,0.6,0.1,0.8c0.1,0.3,0.1,0.5-0.2,0.7c-0.1,0-0.2,0.1-0.2,0.2
					c0.6-0.2,1.1-0.6,1.7-0.8c0.6-0.2,1.2-0.3,1.9-0.4c-0.1-0.2-0.1-0.4-0.2-0.6c-0.2,0.1-0.4,0.2-0.7,0.3c0.3,0.1,0.4,0.2,0.6,0.2
					c0,0,0,0.1,0,0.1c-0.5,0-1,0.1-1.5,0.1c0.1-0.1,0.1-0.2,0.1-0.2C75.4,93,75.8,93,76.1,93c0.3-0.1,0.6-0.1,0.9-0.2
					c0,0,0-0.1,0-0.1c-0.5,0.1-0.9,0.2-1.5,0.3c0.1-0.2,0.1-0.4,0.1-0.4c0.5-0.1,0.9-0.2,1.4-0.4c-0.5-0.2-1.1-0.4-1.6-0.6
					c0-0.1,0-0.1,0-0.2c0.4,0,0.8,0.1,1.3,0.1c0.4,0,0.6,0.1,0.6,0.6c0.1,0.8,0.3,1.6,0.8,2.3c-0.2-0.6-0.4-1.2-0.5-1.8
					c0,0,0.1,0,0.1,0c0.7,1.3,0.8,2.8,1.8,3.9c0,0,0-0.1,0-0.1c-0.1-0.2-0.2-0.5-0.3-0.7c-0.7-1.3-1.1-2.6-1.1-4
					c0-1.3-0.1-2.5,0.3-3.8c0.5-1.9,1.2-3.7,2.9-5c-0.1,0-0.2,0-0.3,0c-0.5,0.1-0.8-0.1-1-0.5c-0.1-0.1-0.1-0.2-0.2-0.4
					c-0.4-1-1.2-1.3-2.3-1.2c-0.2,0-0.3,0-0.5,0c0-0.1,0-0.1,0-0.2c0.5-0.1,1-0.3,1.4-0.2c1.1,0.2,1.9,0.9,2.3,2c0,0,0.1,0,0.1-0.1
					c-0.2-0.4-0.3-0.7-0.5-1.2c0.2,0.1,0.3,0.2,0.4,0.3c0-0.1,0-0.3,0-0.4c0,0,0.1,0,0.1,0c0.2,0.4,0.4,0.8,0.5,1.1
					c0.7-0.6,1.5-1.2,2.2-1.8c0,0.8-0.7,0.7-1,1.2c0.3,0,0.5-0.1,0.6-0.1c0.1,0.2,0.2,0.4,0.3,0.4c0.8-0.1,1.7-0.1,2.5-0.4
					c0.5-0.2,0.9-0.3,1.3-0.1c-0.1-0.1-0.2-0.3-0.3-0.3c-0.6-0.3-1-0.7-1.2-1.3c-0.1-0.2-0.3-0.3-0.6-0.6c0.1,0.5,0.3,0.9,0.4,1.4
					c0,0.3,0,0.6-0.5,0.7c-0.8,0.1-1,0.1-1.1-0.4c-0.3-0.7-0.7-1.3-1.4-1.7c0.1,0.2,0.2,0.4,0.2,0.5c0,0,0,0,0,0
					c-0.2-0.3-0.5-0.7-0.7-1c0.5-0.3,1.1,0.1,2.4,2c0-0.2,0-0.4,0-0.5c0.3-0.1,0.6-0.4,0.8,0.1c-0.1-0.3-0.2-0.6-0.3-0.9
					c0-0.1,0-0.2-0.1-0.4c0.1,0,0.3-0.1,0.4,0c0.3,0.2,0.6,0.4,0.8,0.6c0.2,0.2,0.3,0.5,0.4,0.8c0.4-0.6,0.4-0.6,1-0.2
					c0,0,0.1,0,0.1,0c0.5,0.3,0.6,0.5,0.2,0.9c-0.3,0.4-0.1,0.5,0.2,0.8c0.5,0.4,1,0.8,1.4,1.2c0.4,0.4,0.7,0.8,1,1.2
					c-0.1-0.4-0.2-0.7,0.2-0.9c-0.1-0.1-0.1-0.2-0.2-0.3c-0.5,0.2-0.5,0.2-0.9-0.1c-0.2-0.2-0.4-0.4-0.6-0.5
					c-0.3-0.2-0.3-0.5-0.2-0.8c0.3-0.6,0.1-1.1-0.4-1.4C88.3,80.9,88.2,81,87.7,81.2z M59,73.5c0,0-0.1-0.1-0.1-0.1
					c0.6-0.7,1.5-1,2.2-1.7c-0.2-0.1-0.3-0.2-0.4-0.3c-1-0.7-2.2-0.8-3.4-0.6c-1.5,0.2-2.9,0.3-4.4,0.5c-0.1,0-0.3,0.1-0.4,0.1
					c0.2,0.1,0.3,0.1,0.5,0.2c0.2,0,0.3,0,0.5,0c0.2,0.4,0,1.2-0.5,1.5c-0.2,0.1-0.5,0.2-0.6,0.2c-0.3-0.1-0.5-0.3-0.8-0.4
					c-0.1,0.1-0.1,0.3-0.2,0.5c1.2,0.2,1.9,1,2.4,2.1c0.3,0.6,0.8,1.2,1.2,1.9c0.8-1.8,2.5-2.6,3.5-4c0.3,0.4,0.5,0.8,0.7,1.2
					c-0.2-0.2-0.4-0.3-0.6-0.4c-0.1-0.1-0.3-0.1-0.3,0c-0.7,0.7-1.5,1.3-2.1,2c-0.3,0.3-0.5,0.7-0.7,1.1c-0.1,0.3-0.1,0.6-0.1,0.9
					c0,0,0.1,0,0.1,0c0.2-0.7,0.2-0.7,1.1-0.7c1,0,1.9,0,2.9,0c0.7,0,0.7,0,0.7,0.7c0,0.1,0,0.1,0,0.2c0,0-0.1-0.1-0.1-0.1
					c0.3-0.2,0.7-0.5,1-0.7c3.8-2.3,7.7-4.4,11.7-6.3c0.7-0.3,1.4-0.7,2.1-1c-0.2-0.3-0.3-0.5-0.5-0.7c-2.4,1.3-4.8,2.5-7.2,3.8
					c-2.3,1.3-4.6,2.7-6.9,4.1c0-0.4,0.3-0.6,0.6-0.8c3.6-2.2,7.2-4.4,11-6.2c0.5-0.3,1.1-0.5,1.6-0.8c-0.1-0.1-0.3-0.1-0.4-0.1
					c-2.7,0.2-5.3,0.3-8,0.5c-0.6,0-1.2,0.2-1.7,0.5c-1.1,0.7-2.2,1.5-3.3,2.2C59.8,73,59.4,73.3,59,73.5z M106.6,73.9
					c0-0.2-0.1-0.3-0.1-0.3c0.4-0.4,0.4-0.7-0.2-0.9c-1.3-0.6-2.7-0.8-4.1-0.6c-1,0.1-1.8,0.7-2.3,1.6c0.7-0.4,1.3-0.7,2-1.1
					c0,0,0,0.1,0,0.1c-0.7,0.4-1.3,0.8-2,1.2c0,0,0,0.1,0.1,0.1c0.2,0,0.4-0.1,0.6-0.1c-0.6,0.5-1.2,0.9-1.6,1.7
					c0.3-0.2,0.5-0.3,0.8-0.5c-1.3,1.5-1.3,1.5-1.2,2c0.3-0.5,0.3-1.2,1.1-1.3c-1.1,1.1-0.9,2.6-1.2,4c0.3-0.9,0.6-1.7,0.9-2.6
					c0.1-0.4,0.3-0.6,0.8-0.7c-0.2,0.3-0.4,0.6-0.6,0.9c0,0,0.1,0.1,0.1,0.1c0.2-0.1,0.4-0.2,0.7-0.4c0,0,0,0,0,0.1
					c-0.2,0.3-0.5,0.6-0.8,0.9c0.2,0,0.3,0,0.4,0c-0.5,1.3-0.5,1.3-0.4,1.6c0.5-0.6,1-1.2,1.7-1.5c-0.4,0.5-0.8,1-1.2,1.5
					c0,0,0.1,0.1,0.1,0.1c0.3-0.1,0.5-0.3,0.8-0.4c-0.3,0.6-0.6,1.1-0.9,1.6c-0.1,0.1-0.2,0.2-0.3,0.3c-0.1-0.1-0.2-0.2-0.4-0.4
					c0,0.5,0,0.8,0,1.2c0.7-0.5,1.3-1,1.8-1.5c-0.4,0.5-0.8,1-1.2,1.4c-0.1,0.1-0.1,0.3-0.1,0.5c0.1,0.3,0.3,0.5,0.4,0.8
					c0.3-0.3,0.5-0.6,0.9-1c-0.1,0.5-0.2,0.9-0.3,1.4c0.6-0.7,1.1-1.2,1.6-1.8c0.2-0.2,0.2-0.5,0.3-0.8c0.1-0.3,0.1-0.7,0.2-1
					c0.1,0.2,0.1,0.4,0.2,0.5c0.1,0.1,0.2,0.2,0.3,0.2c0.6,0,1.4-0.7,1.4-1.4c0-0.2-0.1-0.3-0.2-0.5c0,0-0.1,0-0.1,0.1
					c0,0.2,0.1,0.3,0.1,0.6c-0.6-0.5-0.7-0.6-0.4-1.3c0.4-1.2,0.3-2.2-0.7-3c-0.1-0.1-0.2-0.2-0.2-0.3c0.6,0.4,1.1,0.9,1.6,1.4
					c0.1,0.1,0.4,0.3,0.5,0.2c0.4-0.1,0.6-0.9,0.4-1.3c-0.1,0.3-0.3,0.6-0.4,1.1c-0.2-0.2-0.4-0.4-0.5-0.6c0,0,0,0,0.1-0.1
					c0.1,0.1,0.3,0.2,0.5,0.3c0.1-0.2,0.1-0.4,0.2-0.6c-0.4-0.1-0.6-0.2-0.7-0.6c0-0.1-0.2-0.2-0.3-0.4c-0.1-0.1-0.2-0.2-0.4-0.3
					c0,0,0,0,0.1-0.1c0.3,0.1,0.5,0.2,0.9,0.3c-0.1-0.2-0.2-0.4-0.2-0.5c0.2,0.1,0.3,0.2,0.4,0.3c0,0,0,0,0,0
					c-0.1-0.2-0.2-0.3-0.4-0.5c0.5,0.1,0.9,0.3,1.1,0.8c0.2,0.4,0.9,0.5,1.1,0c0.1-0.2-0.1-0.4-0.1-0.6c0,0-0.1-0.1-0.1-0.1
					c0,0.2,0.1,0.3,0.1,0.4c-0.2-0.1-0.4-0.1-0.6-0.2c0.1,0.2,0.2,0.3,0.3,0.5c-0.6-0.2-0.8-0.5-0.8-1.1
					C106.3,73.6,106.4,73.8,106.6,73.9z M66.9,68.6C67,68.6,67,68.7,66.9,68.6c0.4-0.1,0.8-0.3,1.1-0.3c0.9-0.1,1.4-0.5,1.8-1.3
					c0.2-0.3,0.8-0.5,1.2-0.7c0.8-0.3,1.6-0.8,1.8-1.7c0.5-2,1-4.1,1.5-6.1c0.1-0.3,0-0.5-0.4-0.5c-1.2,0.1-2.3,0.4-3.3,1.1
					c-0.5,0.3-1,0.7-1.2,1.3c-0.7,2.1-1.4,4.2-2.1,6.3C67.3,67.4,67.1,68,66.9,68.6z M84.8,73C84.9,73,84.9,73,84.8,73
					c0.3,0.1,0.5,0.3,0.7,0.5c0.5-0.2,0.9-0.3,1.3-0.6c2.6-1.6,5.2-3.3,7.8-4.9c0.4-0.2,0.7-0.4,0.6-0.9c0-0.1,0.1-0.2,0.1-0.4
					c0.1,0.3,0.2,0.5,0.2,0.6c0.1,0,0.1,0,0.2,0c0-0.2,0.1-0.4,0.1-0.7c0.1,0.1,0.2,0.2,0.2,0.3c0.1,0,0.3-0.1,0.5-0.1
					c-0.2,0.2-0.2,0.2-0.3,0.3c1-0.9,2.5-1,3.3-2.2c-0.4,0.2-0.8,0.5-1.2,0.7c-0.6,0.4-0.6,0.4-0.8-0.3c-0.1-0.4-0.3-0.4-0.7-0.2
					c-0.5,0.3-1,0.6-1.5,0.9c-2.3,1.4-4.7,2.9-7,4.3c-0.3,0.2-0.3,0.3-0.3,0.6c0.1,0.2,0.1,0.5,0.1,0.7c-0.2-0.2-0.2-0.4-0.3-0.7
					c0-0.1-0.2-0.1-0.2-0.2c0,0.1-0.1,0.2-0.1,0.3c0,0.3,0.1,0.7,0.1,1c-0.2-0.3-0.3-0.6-0.3-0.9c0-0.4-0.2-0.6-0.6-0.6
					c-1.7-0.2-3.5-0.4-5.2-0.6c-0.2,0-0.4-0.1-0.4,0c-0.2,0.2-0.4,0.4-0.5,0.7c0,0,0.2,0.2,0.4,0.4c0.7,0.5,1.5,1.1,2.2,1.6
					c0.3,0.2,0.5,0.5,0.8,0.8c0,0-0.1,0.1-0.1,0.1c-0.3-0.3-0.7-0.6-1-0.9c0,0-0.1,0.1-0.1,0.1c0.5,0.5,1,0.9,1.5,1.4
					c0.3-0.2,0.6-0.3,0.9-0.5C85.1,73.4,85,73.2,84.8,73z M60.6,78.1c0,0.1,0.1,0.1,0.1,0.2c0,0,0.1,0,0.1,0c1.3-0.6,2.7-0.6,4-1.3
					c1.1-0.6,2.3-1,3.5-1.4c0.9-0.3,1.8-0.4,2.7-0.6c1.9-0.6,3.9-1.2,5.8-1.8c0.5-0.2,1.1-0.4,1.6-0.6c0,0,0-0.1,0-0.1
					c-1.7,0.6-3.3,1.1-5,1.7c0,0,0-0.1,0-0.1c0.2-0.1,0.5-0.3,0.7-0.4c1.6-0.5,3.2-1,4.9-1.5c1.1-0.3,2.1-0.1,3,0.6
					c0.6,0.4,1.1,0.9,1.6,1.4c0.5,0.5,0.9,1,1.4,1.5c-0.7-1.3-1.7-2.3-2.9-3.2c-1.1-0.8-2.4-1.1-3.7-0.7c-2.3,0.7-4.6,1.5-7,2.2
					c-0.1-0.3,0.2-0.4,0.4-0.4c1.9-0.6,3.9-1.2,5.8-1.8c1.3-0.4,2.6-0.5,3.8,0.1c0.1,0,0.1,0,0.2,0c-0.3-0.2-0.6-0.4-0.9-0.4
					c-0.7-0.1-1.4-0.2-2.1-0.3c-0.8-0.1-1.6-0.2-2.4-0.2c-2.3,0.1-4.4,0.9-6.4,2c-2.9,1.6-5.8,3.2-8.7,4.8c0,0,0,0.1-0.1,0.2
					c0.8-0.3,1.5-0.6,2.3-0.9c2.3-0.9,4.5-1.9,6.8-2.8c0.2-0.1,0.4-0.3,0.6-0.4c0,0-0.1-0.1-0.1-0.1c-1.2,0.5-2.3,1-3.5,1.5
					c0.6-0.4,1.3-0.8,1.9-1.1c0.3-0.2,0.6-0.3,0.9-0.5c0.4-0.2,0.9-0.3,1.3-0.5c0.6-0.2,1.1-0.5,1.6-0.8c-0.8,0.6-1.8,0.9-1.9,1.9
					c-3.5,1.2-6.6,3-10.1,3.8C60.8,78.1,60.7,78.1,60.6,78.1z M82.8,62.9c1.2-2,2.3-3.9,3.4-5.9c-3.2,0.3-6.3,0.5-9.4,0.7
					c0,0,0,0.1,0,0.1C78.8,59.5,80.8,61.1,82.8,62.9z M60.2,70.4c0.8,0.1,1.5,0.1,2.2,0.2c0.2,0,0.5-0.1,0.7-0.2
					c0.6-0.2,1.1-0.5,1.7-0.6c0.6-0.1,0.9-0.4,1.1-0.9c0.6-1.8,1.2-3.7,1.8-5.5c0.2-0.6,0.4-1.2,0.6-1.8c0,0-0.1,0-0.1,0
					C65.6,64.4,63,67.3,60.2,70.4z M94.2,87.4c-0.1-0.1-0.1-0.2-0.2-0.3c0.1-0.1,0.2-0.2,0.4-0.2c0.4,0,0.8,0,1.1-0.1
					c0.9-0.2,1.8-0.5,2.7-0.8c0.3-0.1,0.4-0.2,0.3-0.5c-0.1-0.3-0.2-0.6-0.3-0.9c-0.1-0.4-0.3-0.5-0.6-0.5c-1.1,0-2.3-0.1-3.4-0.1
					c-0.7,0-1.5,0-2.2,0c0.3,1.4,0.6,2.8,0.9,4.1C93.3,87.9,93.8,87.7,94.2,87.4z M91.2,91.6c-0.1,0.1-0.1,0.1-0.2,0.2
					c-0.8,1.5-2,2.7-3.1,3.9c-1.1,1.1-2.4,1.6-3.9,1.5c-0.2,0-0.5-0.1-0.7-0.2c1.3-0.1,2.2-0.4,2.7-0.8c-3.5,1-6.6-1.6-7-5.6
					c0,2.3,0.5,4.3,2.1,6c0.7,0.8,1.7,1.1,2.7,1.2c0.1,0,0.2,0,0.4,0c0.1,0,0.2,0,0.3,0c-1.7,0.6-3-0.3-4.2-1.4
					c0.9,1.3,2.1,1.9,3.6,2c1.1,0.1,2.1,0.1,3-0.6C88.9,96.2,90.3,94.1,91.2,91.6z M58.4,70.4c0.5,0.2,0.8-0.1,1.1-0.4
					c0.7-0.8,1.4-1.6,2.1-2.4c0.1-0.1,0.2-0.2,0.3-0.3c0,0,0,0,0.1,0.1c-0.3,0.4-0.7,0.8-1,1.2c0,0,0.1,0,0.1,0.1
					c1.9-2.1,3.8-4.1,5.7-6.2c0,0-0.1-0.1-0.1-0.1c-0.4,0.4-0.8,0.8-1.2,1.2c0.1-0.2,0.2-0.3,0.3-0.5c1.3-1.3,2.5-2.8,3.9-4
					c0.4-0.3,0.7-0.7,1.1-0.9c0.8-0.3,1.7-0.6,2.6-0.7c4.5-0.5,9.1-0.9,13.7-1.4c0.2,0,0.4-0.1,0.5-0.1c-0.1-0.1-0.2-0.1-0.3-0.1
					c-4.6,0.4-9.2,0.9-13.8,1.3c-2.1,0.2-3.8,1-5.2,2.6c-2.3,2.5-4.6,5-6.9,7.4C60.4,68.2,59.4,69.3,58.4,70.4z M94.2,71.4
					c-0.2,0.1-0.3,0.2-0.5,0.3c-1.1,0.5-2.1,1-3.2,1.4c-0.5,0.2-1,0.6-1.7,0.4c-0.1,0-0.1,0-0.2,0.1c-0.4,0.3-0.9,0.6-1.3,0.9
					c-0.3,0.2-0.3,0.4,0,0.6c0.3,0.3,0.7,0.5,1,0.8c0.4,0.4,0.8,0.4,1.2,0.1c1.3-0.8,2.5-1.6,3.8-2.5c0.2-0.1,0.3-0.4,0.5-0.6
					c0,0-0.1-0.1-0.1-0.1c-0.2,0.1-0.5,0.1-0.7,0.2c0.4-0.3,1-0.3,1.1-0.9c-0.5,0.2-1,0.4-1.5,0.6c0.4-0.3,0.9-0.5,1.4-0.8
					c0.5-0.3,0.7-0.8,0.7-1.4c-0.8,0.1-1.2,0.7-1.8,1.1C93.2,71.5,93.7,71.4,94.2,71.4z M79.1,70.5c0.1,0.1,0.1,0.1,0.2,0.2
					c0.2-0.3,0.5-0.5,0.7-0.9c1.7-2.9,3.4-5.9,5.1-8.9c0.2-0.4,0.4-0.8,0.6-1.2c0.1-0.1,0.3-0.2,0.4-0.4c0.1-0.5,0.6-0.8,0.7-1.3
					c0.3-1.2,1.4-1.4,2.3-1.8c0,0,0.1,0,0.1,0c0.3,0.3,0.5,0,0.8,0c0.2,0,0.3-0.1,0.5,0c1.1,0.2,1.9,0.8,2.4,1.8
					c0.6,1.4,1.3,2.8,2,4.3c0.2,0.5,0.5,1,0.8,1.5c0,0,0.1,0,0.1,0c-0.1-0.2-0.1-0.3-0.2-0.5c-0.8-1.8-1.6-3.5-2.4-5.3
					c-0.2-0.4-0.5-0.8-0.8-1.1C90.6,55,87,55.9,86,58c-1.9,3.6-3.9,7.1-5.8,10.7C79.8,69.3,79.5,69.9,79.1,70.5z M91.5,60.7
					c0-1.1,0.1-2,0.1-2.9c0-0.2-0.3-0.5-0.5-0.6c-0.8-0.4-1.7-0.4-2.6-0.1c-0.1,0-0.3,0.2-0.3,0.3c-0.1,1-0.1,2-0.2,3.1
					C89.2,60,90.3,59.9,91.5,60.7z M97.3,75.7c0,0,0-0.1,0-0.1c-0.3,0.1-0.6,0.3-1,0.4c-0.2,0.1-0.4,0.2-0.6,0.2
					c-0.1,0-0.3-0.1-0.4-0.2c0-0.1,0-0.3,0.1-0.4c0.1-0.2,0.4-0.3,0.5-0.5c-0.2,0-0.5-0.1-0.7-0.1c-0.1,0-0.3,0.1-0.3,0.1
					c-0.4,0.6-0.7,1.3-1.1,1.9c-0.3,0.5-0.5,1.1-0.7,1.8c0.3,0,0.4,0,0.6,0c0.6,0,1.3,0,1.8,0.1c0.9,0.2,1.4-0.3,1.9-0.8
					c-0.3,0-0.6,0-0.9,0c-0.1,0-0.3-0.1-0.4-0.2c0.1-0.1,0.1-0.3,0.2-0.4c0.3-0.2,0.6-0.4,0.9-0.7c0.2-0.1,0.4-0.2,0.6-0.3
					c0,0,0-0.1-0.1-0.1c-0.5,0.2-1,0.5-1.5,0.6c-0.2,0.1-0.5,0-0.8,0c0.1-0.2,0.2-0.5,0.4-0.7c0.1-0.1,0.3-0.2,0.4-0.3
					C96.8,75.9,97,75.8,97.3,75.7z M87.6,70c0.1,0,0.1,0.1,0.2,0.1c1-0.6,1.9-1.2,2.9-1.8c0.1-0.1,0.1-0.3,0.1-0.4
					c-0.3-0.5-0.6-0.9-1-1.3c-0.4-0.5-0.9-0.7-1.5-0.6c-0.1,0-0.3,0.2-0.3,0.3c-0.1,0.2-0.1,0.5-0.1,0.8c0.3-0.2,0.6-0.3,0.8-0.4
					c0,0,0,0.1,0.1,0.1c-0.1,0.1-0.3,0.2-0.4,0.3c-0.2,0.2-0.4,0.4-0.4,0.6C87.7,68.4,87.6,69.2,87.6,70z M87.1,58.6
					c-0.1,0-0.1,0-0.2,0c-0.1,0.2-0.2,0.3-0.3,0.5c-0.8,1.5-1.6,3-2.4,4.5c-0.3,0.5-0.2,0.6,0.4,0.6c0.3,0,0.6,0,0.9,0
					c0.1,0,0.3-0.1,0.3-0.2c0.5-1,1.1-2,1.1-3.2c0-0.6,0.1-1.1,0.1-1.7C87.2,58.9,87.1,58.7,87.1,58.6z M68.9,77.7
					c0,0-0.1-0.1-0.1-0.1c-0.5,0.5-1.1,1-1.6,1.4c-0.4,0.4-0.9,0.8-1.4,1.1c-1.3,0.6-2.7,1.1-4.1,1.6c0.1-0.5,0.5-0.5,0.8-0.7
					c0.3-0.2,0.7-0.3,1.1-0.5c-0.4-0.2-0.8-0.3-1.2-0.1c-0.1,0.1-0.4,0-0.5-0.1c-0.1-0.1-0.2-0.2-0.3-0.4c-0.4,0.4-0.6,0.2-0.7-0.2
					c-0.1-0.3-0.2-0.5-0.4-0.8c-0.1-0.1-0.2-0.2-0.4-0.3c0,0-0.1,0.1-0.1,0.1c0.6,1.1,1.2,2.2,1.8,3.2c0.1,0.1,0.3,0.2,0.4,0.1
					c1.2-0.4,2.3-0.9,3.4-1.4c0.4-0.2,0.8-0.4,1.1-0.7C67.4,79.4,68.1,78.5,68.9,77.7z M90.6,61.6c-0.1,0.1-0.2,0.2-0.3,0.4
					c0.4-0.1,0.6-0.1,0.8-0.2c0.2,0.6,0.4,1.3,0.7,1.8c0.7,1.2,1.8,1.4,2.9,0.5c-0.4-0.1-0.8-0.1-1.2-0.3c-0.4-0.2-0.7-0.5-1.1-0.7
					c0.2-0.5-0.7-2-1.7-2.5c-0.9-0.4-2.4-0.3-2.7,0.3c0.5-0.1,1-0.2,1.5-0.2C90.1,60.7,90.3,61.2,90.6,61.6z M75.1,69.2
					c0.2-0.3,0.5-0.7,0.8-1.2c0,0,0-0.1,0-0.2c-0.1-0.5-0.1-1-0.2-1.5c-1.2,0.8-2.4,1.7-3.4,2.9c0.6-0.1,1.1-0.1,1.6-0.1
					C74.2,69.1,74.6,69.1,75.1,69.2z M57.7,84.5c-0.6-0.9-0.8-1.9-1.7-2.5c-0.4,1-0.9,0.2-1.3,0.1c0.3,0.9,0.7,1.7,1,2.6
					c0,0.1,0.2,0.2,0.3,0.2C56.6,84.7,57.1,84.6,57.7,84.5z M84.8,90.7c0.2,0.5,0.1,0.9-0.3,0.9c-0.4,0-0.7,0.1-0.9,0.5
					c-0.2-0.6-0.6-0.8-1.1-0.9c-0.7-0.2-1-0.2-1.2,0.2c0.5,0.1,1.1,0.2,1.6,0.2c0,0.4,0.1,0.8,0.1,1.2c0.1-0.1,0.2-0.2,0.3-0.3
					c0,0.3,0.1,0.5,0.1,0.8c0.1-0.3,0.2-0.5,0.4-0.8c0,0.3,0.1,0.5,0.1,0.7c0,0,0.1,0,0.1,0c0-0.3,0.1-0.6,0.1-0.8
					c0-0.3,0-0.5,0.4-0.3c0.1,0,0.2,0,0.3,0c0.2,0,0.5-0.1,0.7,0c0.4,0.1,0.8,0.4,1.1,0.6c0,0,0-0.1,0.1-0.1c-0.3-0.4-0.7-0.7-1-1.1
					c0,0,0,0,0.1-0.1c0.3,0.2,0.6,0.4,0.8,0.6c0,0,0.1-0.1,0.1-0.1c-0.3-0.3-0.5-0.7-0.8-1C85.5,90.4,85.4,90.4,84.8,90.7z
					 M94.5,63.2c-0.7-1.4-1.4-2.7-2-4c-0.1,0-0.1,0-0.2,0c0,0.9,0,1.7,0.1,2.6c0.1,0.5,0.4,1,0.8,1.3c0.2,0.2,0.7,0.1,1,0.1
					C94.3,63.3,94.4,63.2,94.5,63.2z M61.4,88.4c0,0,0-0.1,0.1-0.1c-0.4-0.4-0.7-0.7-1.1-1.1c-0.1-0.1-0.3-0.1-0.4-0.1
					c-1.2,0.3-2.4,0.6-3.6,0.8c-0.2,0-0.3,0.1-0.4,0.2c0,0,0,0.1,0,0.1C57.7,88.4,59.6,88,61.4,88.4z M85.1,68.9
					C85.1,68.9,85.1,68.9,85.1,68.9c0.3-0.7,0.8-1.2,1.3-1.9c-0.2,0.1-0.4,0.2-0.5,0.3c-0.4,0.5-0.8,1-1.2,1.5
					c-0.2,0.2-0.2,0.6-0.2,0.8c0,0.1,0.2,0.3,0.3,0.3c0.4,0.1,0.9,0.1,1.3,0.1c0.1,0,0.3-0.1,0.3-0.2c0.1-0.8,0.1-1.6,0.2-2.4
					c0,0-0.1,0-0.1,0C86,67.9,85.6,68.4,85.1,68.9z M53.8,88c0,0.1,0,0.1,0,0.2c0.2,0,0.3,0,0.5-0.1c1.2-0.4,2.4-0.7,3.5-1.1
					c0.1,0,0.1-0.2,0.2-0.3c0.1-0.2,0.2-0.4,0.4-0.5c0.2-0.1,0.4-0.1,0.6-0.2c-0.3-0.5-0.6-0.6-1.1-0.4c-0.4,0.1-0.9,0.2-1.3,0.2
					c-0.7,0.1-0.8,0.3-0.5,1.1c0.6-0.1,1.2-0.3,1.7-0.4c0,0.1,0,0.1,0.1,0.2c-0.2,0.1-0.4,0.2-0.6,0.3C56.2,87.2,55,87.6,53.8,88z
					 M78.5,60.7c-0.9-0.7-1.7-1.4-2.7-2.2c0.1,1.1,0.3,2.2,0.4,3.2c0,0,0.1,0,0.1,0C76.9,61,77.7,60.8,78.5,60.7z M86.6,77.4
					c0.4,0.8,0.7,0.8,1.4,0.4c1.8-0.9,3.6-1.8,5.3-2.7c0.5-0.3,1-0.6,1.3-1.1c1.1-1.7,1.9-3.6,2.5-5.5c0-0.1,0.1-0.3,0.1-0.4
					c-0.2,0.1-0.2,0.3-0.3,0.4c-0.6,1.5-1.3,2.9-1.9,4.4c-0.4,1-1.1,1.7-2.1,2.2c-1.8,0.9-3.6,1.8-5.3,2.7c-0.3,0.1-0.5,0.1-0.8-0.1
					C86.8,77.5,86.7,77.4,86.6,77.4z M90.8,81.3c2.2,0.3,4.4,0.5,6.5,0.8c0.1,0,0.2-0.1,0.3-0.2c-0.1-0.1-0.2-0.3-0.3-0.3
					c-1.8-0.3-3.6-0.6-5.4-0.8C91.4,80.8,91.1,80.9,90.8,81.3z M96.6,82.8c0-0.1,0-0.1,0-0.2c-1.9-0.3-3.9-0.5-5.9-0.8
					c0.4,1,0.5,1,1.4,1c0.6,0,1.2,0,1.9,0C94.9,82.9,95.7,82.8,96.6,82.8z M95,87.9c0,0,0.1,0.1,0.1,0.1c0.6-0.1,1.3-0.2,1.9-0.3
					c0.7-0.1,1.3-0.3,2.1-0.5c-0.2-0.4-0.3-0.7-0.5-1c-0.4,0.2-0.8,0.3-1.2,0.4c-0.6,0.2-1.3,0.5-1.9,0.7
					C95.3,87.5,95.1,87.7,95,87.9z M87.1,68.9c0.1,0,0.1,0,0.2,0c0.2-3.1,0.3-6.2,0.5-9.4c0,0-0.1,0-0.1,0c-0.1,0.2-0.2,0.4-0.2,0.7
					c0,0.6,0,1.2-0.1,1.7c-0.1,1.3-0.2,2.5-0.2,3.8c0,0.6-0.1,1.3-0.1,1.9C87,68,87.1,68.5,87.1,68.9z M60.8,88.6
					c-3.6-0.1-7.4,0.1-11,1C53.5,89.3,57.2,88.9,60.8,88.6z M70.7,91c0.2-0.3,0-0.5-0.3-0.6c-1.5-0.5-2.9-1.1-4.3-1.6
					c-0.4-0.1-0.8-0.2-1.3-0.3c0,0.1,0,0.1,0,0.2C66.7,89.5,68.7,90.2,70.7,91z M56.1,79.4C56,79.4,56,79.4,56.1,79.4
					c0.1,0.8,0.4,1.6,0.6,2.3c0.1,0.4,0.3,0.6,0.8,0.6c1.2,0,2.4,0,3.5,0.1c0.2,0,0.3,0,0.5,0c0,0,0-0.1,0-0.1
					C61.2,82.1,61,82,60.8,82c-1.1-0.1-2.1-0.1-3.2-0.2c-0.4,0-0.6-0.2-0.7-0.5C56.6,80.7,56.4,80.1,56.1,79.4z M92.3,80.4
					c1.5,0.6,4.6,0.5,5.3-0.2C95.8,80.4,94,80,92.3,80.4z M54.6,77.5c0,0,0.1-0.1,0.1-0.1c-0.8-1.1-1.5-2.2-2.3-3.3
					c-0.2-0.2-0.5-0.4-0.8-0.5c0,0-0.1,0.1-0.1,0.1C52.3,75.2,53.4,76.4,54.6,77.5z M79,96.4c-0.9-1.6-2.2-1.8-3.5-0.5
					c0,0.2,0.1,0.4,0.1,0.5c0,0.2-0.1,0.3-0.2,0.5C77.1,95.4,77.4,95.3,79,96.4z M65.8,85.1c0,0,0,0.1,0,0.1c0.1,0,0.2,0.1,0.2,0.1
					c1.6,0.4,3.1,0.8,4.7,1.2c0.1,0,0.3-0.1,0.4-0.1c-0.1-0.1-0.2-0.2-0.3-0.2c-1.4-0.3-2.9-0.7-4.3-1C66.2,85.1,66,85.1,65.8,85.1z
					 M65.8,69.7c0.1,0,0.1,0,0.2,0.1c1.1-3.1,2.1-6.2,3.1-9.3c0,0-0.1,0-0.1,0C68,63.6,66.9,66.7,65.8,69.7z M91.5,68.1
					C91.5,68.1,91.6,68.1,91.5,68.1c1.9-1.1,3.7-2.2,5.6-3.3c-0.5-0.2-1-0.2-1.4,0.3c-0.2,0.2-0.5,0.4-0.7,0.6
					C93.8,66.4,92.7,67.2,91.5,68.1z M75,61.2c-0.2,1-0.4,1.9-0.6,2.8c0.3-0.1,0.4-0.2,0.6-0.3c0.4-0.2,0.9-1.1,0.7-1.4
					C75.5,62,75.3,61.7,75,61.2z M85,95.1c0.3,0,0.5,0,0.8,0c0-0.1,0-0.1,0-0.2c-0.4-0.1-0.9-0.3-1.3-0.3c-0.7,0-1.4,0.2-2.1,0.3
					c0.7,0.7,1.8,0.8,2.7,0.3C85.1,95.2,85,95.1,85,95.1z M77.7,61.2c0.2,0,0.4,0,0.6,0c0.7,0,1.1,0.3,1.3,1
					c0.1,0.4,0.2,0.8,0.3,1.2c0.2,0.5,0.4,1.1,0.7,1.6c0.1,0.2,0.4,0.4,0.7,0.5c0,0,0.1-0.1,0.1-0.1c0-0.1,0-0.1-0.1-0.2
					c-0.6-0.6-0.9-1.4-1.1-2.1c-0.1-0.3-0.2-0.6,0.3-0.8C79.6,61.7,78.9,60.9,77.7,61.2z M56.9,77.7C56.9,77.7,56.9,77.6,56.9,77.7
					c-0.2-0.1-0.5-0.1-0.7-0.1c-0.1,0-0.3,0.2-0.4,0.3c0.1,0.1,0.2,0.3,0.3,0.3c1,0.1,2.1,0.1,3.1,0.1c0.1,0,0.3-0.1,0.4-0.2
					c-0.1-0.1-0.2-0.2-0.3-0.2C58.5,77.8,57.7,77.7,56.9,77.7z M89.2,87.5c0.1,0,0.1,0,0.2-0.1c0-0.3,0-0.6-0.1-0.9
					c-0.4-0.9-1.1-1.8-1.8-2.4c-0.7-0.6-1.6-0.9-2.5-1c-0.2,0-0.5-0.1-0.6,0.4C87.2,83.4,88.5,85.1,89.2,87.5z M70.7,66.9
					c0.8-0.3,1.5-0.6,2.3-0.8c0-0.1-0.1-0.1-0.1-0.2c-0.9,0.4-1.8,0.7-2.7,1.2c-0.4,0.2-0.6,0.6-0.6,1.1c0.1,0.6,0.4,1,0.9,1.3
					c0,0,0.1,0,0.1-0.1c-0.2-0.3-0.4-0.7-0.6-1c0,0,0.1,0,0.1-0.1c0.1,0.1,0.3,0.3,0.4,0.4c0,0,0,0,0,0c-0.1-0.3-0.3-0.5-0.4-0.8
					c0,0,0.1,0,0.1-0.1c0.1,0.1,0.3,0.2,0.5,0.4c-0.2-0.3-0.3-0.5-0.4-0.7c0,0,0.1,0,0.1-0.1c0.2,0.2,0.3,0.3,0.5,0.5
					c0,0,0,0,0.1-0.1c-0.1-0.2-0.3-0.5-0.4-0.7c0,0,0,0,0.1,0c0.1,0.1,0.2,0.2,0.3,0.3c0,0,0,0,0,0C70.8,67.2,70.8,67,70.7,66.9z
					 M69.9,96c1.2,0.5,2.3,0.9,3.3,1.4C72.3,96,71.1,95.5,69.9,96z M50.9,86.6c2.2-0.5,4.5-1,6.7-1.5c0,0,0-0.1,0-0.1
					C56.5,85,51.7,86.1,50.9,86.6z M86.5,74.6C86.5,74.6,86.5,74.6,86.5,74.6c2-1.2,3.9-2.5,5.8-3.7c0,0,0-0.1-0.1-0.1
					c0,0-0.1,0-0.1,0c-1.8,1.1-3.6,2.3-5.4,3.5C86.6,74.3,86.6,74.4,86.5,74.6z M63.9,78.8c0.2,0.5,0.6,0.6,1.1,0.6
					c0,0.1,0,0.1-0.1,0.2c-0.3-0.1-0.7-0.2-1-0.2c0.4,0.4,0.9,0.5,1.5,0.2c0.3-0.2,0.5-0.5,0.3-0.9c-0.2,0.3-0.4,0.2-0.6,0
					c-0.2-0.3-0.6-0.4-0.9-0.1C64.2,78.7,64.1,78.7,63.9,78.8z M93.3,66.2c0.3-0.4,0.1-1.1-0.2-1.2c-0.4-0.2-0.7-0.4-1.1-0.6
					c-0.2-0.1-0.4-0.2-0.6-0.2c-0.3-0.1-0.8,0.2-0.7,0.5c0.1,0.4,0.4,0.2,0.6,0.2c1.1,0,1.5,0.2,1.8,1.3
					C93.2,66.1,93.3,66.2,93.3,66.2z M55.8,81.3c0,0,0.1-0.1,0.1-0.1c-0.6-0.6-1.1-1.2-1.7-1.7c-0.6-0.5-1-1.1-1.2-1.8
					c-0.1-0.2-0.1-0.4-0.2-0.6c0,0.5,0.1,1,0.2,1.5c0.1,0.3,0.2,0.5,0.4,0.7C54.2,80,55,80.6,55.8,81.3z M89.3,78.7
					c0.3,0.1,0.6,0.1,0.7,0.3c0.1,0.2,0.1,0.5,0.1,0.7c0.2-0.1,0.3-0.2,0.5-0.2c0.4-0.1,0.4-0.3,0.3-0.6c-0.1-0.2-0.1-0.4-0.1-0.5
					c0-0.1,0-0.3,0-0.4C90.7,78,90.5,78,90.3,78C90,78.2,89.7,78.5,89.3,78.7z M68.9,96.6c-0.8-0.5-4.2-0.9-4.7-0.4
					C65.8,96.4,67.4,96.5,68.9,96.6z M97.6,79.7c0,0,0-0.1,0-0.1c-0.2,0-0.3-0.1-0.5-0.1c-1.2-0.1-2.3-0.1-3.5-0.1
					c-0.1,0-0.1,0-0.2,0c-0.1,0-0.2,0.1-0.3,0.2c0.1,0.1,0.2,0.2,0.3,0.2c1.3,0,2.5,0.1,3.8,0.1C97.3,79.8,97.5,79.7,97.6,79.7z
					 M84,69.9c0.5-1-0.1-3-0.9-3.7c-0.3,0.2-0.2,0.5,0,0.7c0.6,0.8,0.9,1.7,0.9,2.7C83.9,69.6,84,69.8,84,69.9z M52.2,91.7
					C51,92.7,49.6,93,48,92.9C49,93.8,51.4,93,52.2,91.7z M79.9,68.1c-0.8-1-2.1-0.6-3-1.1c0.1,0.2,0.2,0.4,0.2,0.5
					c0,0-0.1,0.1-0.1,0.1c-0.2-0.2-0.5-0.5-0.7-0.7c0,0.1-0.1,0.2-0.1,0.3c-0.1,0.7,0,0.8,0.7,0.6c0.9-0.2,1.7-0.1,2.5,0.2
					C79.4,68,79.6,68,79.9,68.1z M91.8,85.5c-0.1,0.1-0.1,0.2-0.2,0.3c0.2,0,0.3,0,0.4-0.1c-0.1-0.4-0.2-0.7-0.3-1.1
					c-0.5,0.4-0.9,0.2-1.2-0.3c0.5,0.9,0.7,1.8,0.8,2.8c0,0.6,0.1,0.6,0.7,0.6c0.1,0,0.2,0,0.4,0c0-0.2-0.1-0.4-0.1-0.6
					c-0.3,0.2-0.5,0.3-0.7,0.4c-0.1-0.9-0.3-1.6-0.4-2.5c0.2,0,0.4-0.1,0.6-0.1c0,0.1,0.1,0.1,0.1,0.2c-0.1,0-0.3,0.1-0.4,0.1
					c0,0,0.1,0.1,0.1,0.1C91.6,85.5,91.7,85.5,91.8,85.5z M77.4,98.8c0.7-0.6,1.5-1,2.5-0.8c-0.4-0.4-0.8-0.8-1.4-0.6
					C77.8,97.6,77.5,98.1,77.4,98.8z M93.8,65.9c0.5-0.3,1-0.7,1.4-1c0.1-0.1,0.1-0.2,0.1-0.3c-0.1-0.1-0.2-0.2-0.3-0.2
					C94.2,64.4,93.7,65,93.8,65.9z M87.9,92c0,0.1,0,0.1,0,0.2c0.3-0.1,0.7-0.1,0.8-0.3c0.4-0.7,0.5-1.5,0.5-2.3
					C88.7,90.3,88.3,91.2,87.9,92z M61.8,82.9c-0.1,0-0.1,0-0.2,0c0.3,1.6,0.7,3.2,1,4.8c0.1,0,0.1,0,0.2,0
					C62.6,86.1,62.4,84.4,61.8,82.9z M88.3,93.4c0,0,0.1,0,0.1,0.1c0.8-1.1,1.5-2.3,1.5-3.8C89.4,90.9,88.8,92.1,88.3,93.4z
					 M99.5,63.2c-1.2,0.2-2.2,0.4-3.3,0.7C96.9,64.3,98.7,64,99.5,63.2z M60,95.6c1.2,0.2,2.3,0.5,3.5,0.4
					C62.4,95.4,61.2,95.3,60,95.6z M69.9,89.2c-0.8-0.4-1.6-0.7-2.5-0.2C69.1,89.6,69.3,89.7,69.9,89.2z M92.5,83.2
					c0,0.1,0,0.1,0,0.2c1.8,0,3.5-0.1,5.3-0.1c0-0.1,0-0.2,0-0.3C96,83.1,94.3,83.2,92.5,83.2z M50.2,82.8c-2-0.6-4.4,1.4-4.4,2.9
					C46.8,83.9,48,82.6,50.2,82.8z M61.9,87.7c0,0,0.1-0.1,0.1-0.1c-1.4-1.3-2.9-2.6-4.3-3.9C59,85.2,60.5,86.4,61.9,87.7z M77,68.6
					c0.9-0.5,1.8-0.3,2.7,0.1c-0.1-0.2-0.1-0.3-0.1-0.3c-0.7-0.4-1.5-0.6-2.3-0.5C76.9,68,76.9,68.2,77,68.6z M45.4,87.5
					c-0.8,0.8,0.1,4.4,1.5,5.1C45.5,91.2,45.2,89.4,45.4,87.5z M87,93c0.6,0.4,1.2,0.1,1.4-0.8C87.8,92,87.3,92.3,87,93z M85.6,74.1
					c0.7-0.2,5.4-3.1,5.9-3.7C89.6,71.6,87.6,72.8,85.6,74.1z M99.6,91c0,0,0-0.1-0.1-0.1c-1.5,0.7-3.1,1.3-4.6,2
					c0,0.1,0,0.1,0.1,0.2C96.6,92.3,98.1,91.7,99.6,91z M39.8,89c-0.8-0.3,0-0.9-0.3-1.3c-0.6,0.2-0.7,1.1-0.1,2.1
					C39.5,89.5,39.7,89.3,39.8,89z M72.7,65.5c0,0,0.1,0.1,0.1,0.1c1.3-0.4,1.9-0.9,2.1-1.6C74.2,64.6,73.4,65,72.7,65.5z M87,89.2
					C87,89.2,87,89.2,87,89.2c0.2-0.1,0.3-0.2,0.6-0.3c-0.5-0.1-1-0.2-1.4-0.2c-0.1,0-0.2,0.2-0.4,0.3c0.3,0.1,0.4,0.1,0.6,0.2
					c-0.1,0.1-0.2,0.2-0.3,0.3c0,0,0,0.1,0,0.1c0.4-0.1,0.9-0.1,1.3-0.2c0,0,0-0.1,0-0.1C87.3,89.2,87.2,89.2,87,89.2z M73.1,81.9
					c-0.8-0.3-1.4-0.2-2,0.3c-0.4,0.2-0.4,0.4-0.4,0.9C71.2,81.9,72.2,82.1,73.1,81.9z M90,91.4c0.5-1.5,0.5-2.9,0-4.4
					C90.2,88.5,90.3,90,90,91.4z M57.8,95.3c1,0.1,2.2-0.2,2.7-0.8C59.6,94.8,58.7,95.1,57.8,95.3z M78.7,70.5
					c0-0.1-0.1-0.1-0.1-0.2c-0.8,0.1-1.6,0.2-2.4,0.3c0.6,0.1,1.2,0.2,1.9,0.2C78.3,70.8,78.5,70.6,78.7,70.5z M42.2,91.1
					c0.3-0.2,0.7-0.4,0.8-0.7c0.1-0.3-0.2-0.6-0.5-0.7c-0.1,0.2-0.1,0.4-0.2,0.5c-0.1,0.1-0.3,0.2-0.4,0.3
					C42,90.7,42.1,90.9,42.2,91.1z M71.4,89.4c-0.3-0.7-1.4-1.1-2.1-0.9C70.1,88.8,70.7,89.1,71.4,89.4z M52.7,71.7
					c-0.5,0.1-0.6,0.5-0.5,0.9c0,0.2,0.1,0.4,0.3,0.4c0.2,0,0.4-0.1,0.6-0.2c0.1-0.1,0.1-0.3,0.2-0.6c-0.4,0.1-0.6,0.2-0.8,0.3
					c0,0-0.1-0.1-0.1-0.1C52.5,72.2,52.6,72,52.7,71.7z M75.1,95.1c0.6-0.1,1.1-0.2,1.7-0.3c-0.2-0.1-0.2-0.2-0.3-0.2
					c0.2-0.1,0.3-0.2,0.6-0.3C76.2,94.3,75.6,94.5,75.1,95.1z M71,83.6c0.3-0.3,0.7-0.6,1.1-0.8c0.4-0.1,0.9,0,1.5,0
					C72.6,82.1,71.4,82.5,71,83.6z M83.7,66.3c0.3-0.2,0.5-0.4,0.8-0.6c-0.3-0.2-0.5-0.4-0.8-0.5c0,0-0.3,0.3-0.3,0.4
					C83.4,65.8,83.5,66,83.7,66.3z M81.6,64.6c0,0,0.1-0.1,0.1-0.1c-0.2-0.4-0.4-0.8-0.5-1.2c-0.1,0-0.1,0-0.2,0
					c0,0.3-0.2,0.7-0.1,1C80.9,64.4,81.3,64.5,81.6,64.6z M80.7,66c-0.9-0.9-3.6-1.1-4.2-0.2C77.9,65.1,79.3,65.4,80.7,66z
					 M83.4,89.2c0.4,0,0.7,0.1,1,0.1c-0.1-0.4-0.3-0.6-0.7-0.5c-0.2,0-0.4,0.3-0.5,0.5c-0.1,0.3,0.2,0.6,0.5,0.7
					C83.7,89.7,83.6,89.5,83.4,89.2z M96,81.1c0,0.1,0,0.1,0,0.2c0.4,0,0.7,0.1,1.1,0.1c0.5,0,0.5,0,0.4-0.6
					C96.9,80.9,96.4,81,96,81.1z M104.8,77.1c-0.1,1.1,0,1.4,0.3,1.6C105.4,78,105.4,77.7,104.8,77.1z M89.3,98.5
					c-0.8,0.5-1.6,1-2.4,1.5C88,99.8,88.7,99.2,89.3,98.5z M95.7,67.7c0,0-0.1-0.1-0.1-0.1c-1,0.7-2.1,1.4-3.1,2.1
					c0,0,0.1,0.1,0.1,0.1C93.7,69.1,94.7,68.4,95.7,67.7z M54.4,82.8c0-0.1,0-0.1,0-0.2c-0.5-0.2-1.1-0.4-1.6-0.6
					c-0.3-0.1-0.5,0.2-0.5,0.6C53,82.1,53.7,82.5,54.4,82.8z M107.5,82c0,0,0.1,0,0.1,0c0.3-1.1,0.6-2.2,0.9-3.3c0,0-0.1,0-0.1,0
					C108.1,79.8,107.8,80.9,107.5,82z M92.3,88c-0.2,0.1-0.4,0.1-0.6,0.2c-0.1,0,0,0.3,0,0.4c0.1,0.2,0.4,0.4,0.6,0.2
					C92.3,88.6,92.3,88.4,92.3,88z M51.4,79.2c0.2,0.7,0.7,0.9,1.5,0.7C52.4,79.6,51.9,79.4,51.4,79.2z M70.3,81.3
					c0.5-0.3,1.2-0.6,1.7-0.9C71.3,80.2,70.4,80.7,70.3,81.3z M55.3,81.9c-0.5-0.6-1.7-1-2.1-0.7C53.9,81.4,54.6,81.6,55.3,81.9z
					 M84.3,90.4C84.3,90.3,84.3,90.3,84.3,90.4c-0.5-0.3-1-0.5-1.6-0.7c0,0-0.1,0.1-0.1,0.1c0.1,0.2,0.2,0.5,0.3,0.7
					c0.2-0.5,0.5-0.5,0.8-0.2C83.9,90.3,84.1,90.3,84.3,90.4z M90.2,81.7c-0.3-0.4-0.6-0.8-1-1.2c-0.1,0.4-0.1,0.7-0.2,1.1
					C89.6,81.3,89.6,81.3,90.2,81.7z M51.7,83.5c0.6,0.1,1.2,0.2,1.8,0.2C52.8,83.2,52.1,83.1,51.7,83.5z M86.9,88.5
					c0,0,0-0.1,0-0.1c-0.5,0-1-0.1-1.6-0.1C85.9,88.7,86.4,88.6,86.9,88.5z M87.2,84.5c0.5,0.8,1,1.5,1.4,2.2
					C88.3,85.7,87.9,85.1,87.2,84.5z M81.4,63.1c0,0-0.1,0.1-0.1,0.1c0.2,0.3,0.3,0.6,0.5,0.9c0,0,0.3-0.1,0.6-0.2
					C82,63.5,81.7,63.3,81.4,63.1z M71.6,79c-0.8-0.1-1.4,0.3-1.5,0.8C70.6,79.6,71.1,79.3,71.6,79z M89.4,89.3c0.1,0,0.1,0,0.2,0
					c0-0.5,0.1-1,0.1-1.4c-0.1,0-0.1,0-0.2,0C89.5,88.3,89.5,88.8,89.4,89.3z M91.4,83.7c-0.2-0.4-0.3-0.6-0.5-0.9
					c-0.1,0.3-0.2,0.5-0.3,0.7C90.8,83.6,91,83.7,91.4,83.7z M75.2,79.7c-0.7-0.1-1.3,0.2-1.5,0.8C74.1,80.2,74.7,79.9,75.2,79.7z
					 M71.2,77.9c-0.7-0.1-1.3,0.2-1.5,0.8C70.1,78.5,70.7,78.2,71.2,77.9z M72.5,81.2c-0.8-0.3-1.2-0.1-1.3,0.5
					c0.2-0.1,0.4-0.2,0.6-0.3C71.9,81.3,72.1,81.3,72.5,81.2z M92.3,91.8c0,0,0.1,0,0.1,0c0-0.3,0-0.6,0-0.9c0-0.1-0.1-0.1-0.2-0.2
					c0,0.1-0.1,0.2-0.1,0.3C92.1,91.2,92.2,91.5,92.3,91.8z M77.9,69.5c-0.9-0.3-1.5-0.3-1.9-0.1C76.6,69.5,77.2,69.5,77.9,69.5z
					 M78.5,66.4c0-0.1,0-0.1,0-0.2c-0.4-0.1-0.7-0.1-1.1-0.2c0,0.1,0,0.2,0,0.3C77.8,66.3,78.1,66.4,78.5,66.4z M54.8,78.5
					c-0.2-0.6-0.6-0.2-1-0.4C54.2,78.6,54.4,78.7,54.8,78.5z M80.7,87.6c0.7-0.2,0.8-0.4,0.4-0.9C81,86.9,80.9,87.2,80.7,87.6z
					 M80.4,67.2c-0.3-0.3-0.6-0.5-0.8-0.8C79.5,67,79.9,67.3,80.4,67.2z M48.9,87.9c0-0.2,0.1-0.3,0.1-0.5c0-0.1-0.2-0.2-0.3-0.2
					c-0.2,0-0.3,0.2-0.3,0.2C48.5,87.6,48.6,87.7,48.9,87.9z M44,85.6c0,0,0-0.1,0.1-0.1c-0.5-0.2-1.1-0.4-1.6-0.7c0,0,0,0.1,0,0.1
					C42.9,85.1,43.4,85.4,44,85.6z M61.8,88.3c0.2,0.4,0.5,0.5,1.2,0.4C62.6,88.6,62.2,88.5,61.8,88.3z M72.4,96.3
					c-0.2-0.7-0.4-0.8-0.9-0.5C71.8,95.9,72.1,96.1,72.4,96.3z M65.9,88.2c0.2,0.1,0.4,0.2,0.6,0.4c0-0.1,0.1-0.2,0.1-0.2
					C66.5,88,66.3,87.9,65.9,88.2z M79.3,72.3c0,0,0,0.1,0,0.1c0.6,0.1,1.2,0.2,1.8,0.3c0-0.1,0-0.1,0-0.2
					C80.5,72.5,79.9,72.4,79.3,72.3z M97.4,76.1c0,0,0,0.1,0,0.1c0.3,0,0.6-0.1,0.9-0.1c0,0,0-0.1,0-0.1
					C98,75.8,97.7,75.9,97.4,76.1z M81.1,90.9c0.7,0,0.7-0.5,0.9-0.9C81.7,90.3,81.4,90.6,81.1,90.9z M79.5,66.1
					c-0.2-0.2-0.3-0.4-0.3-0.3c-0.1,0.1-0.2,0.2-0.3,0.3c0,0,0.1,0.2,0.2,0.2C79.2,66.3,79.3,66.2,79.5,66.1z M61.5,71.3
					c0-0.1,0-0.1,0.1-0.2c-0.4-0.2-0.8-0.3-1.2-0.5c0,0,0,0.1-0.1,0.1C60.7,71,61.1,71.2,61.5,71.3z M89,84.6
					c0.3,0.5,0.7,0.2,1.1,0.1c-0.1,0-0.2,0-0.4,0c-0.1,0-0.2,0-0.3,0c0-0.1,0-0.2,0-0.4C89.2,84.4,89.1,84.5,89,84.6z M86,64.4
					c0.7-0.2,0.8-0.3,0.7-0.8C86.5,63.9,86.3,64.1,86,64.4z M93.4,75.6c0,0,0-0.1,0-0.1c-0.5,0.2-1,0.4-1.5,0.6c0,0,0,0.1,0,0.1
					C92.4,76,92.9,75.8,93.4,75.6z M51.4,84.4c0,0,0,0.1,0,0.1c0.4,0.1,0.9,0.3,1.3,0.4c0,0,0-0.1,0-0.1
					C52.3,84.6,51.8,84.5,51.4,84.4z M51.6,88.1c0.6,0,0.8-0.2,0.9-0.8C52.2,87.6,51.9,87.9,51.6,88.1z M97.4,74.5
					c-0.4,0.1-0.9-0.2-1.3,0.4C96.6,74.7,97,74.6,97.4,74.5z M61,83.3c-0.2-0.2-0.4-0.4-0.6-0.5C60.5,83.2,60.5,83.5,61,83.3z
					 M55.4,80c0.1-0.1,0.1-0.1,0.2-0.2c-0.1-0.1-0.2-0.3-0.3-0.4c-0.1,0.1-0.2,0.1-0.2,0.2C55.2,79.8,55.3,79.9,55.4,80z M83.9,86.6
					c0,0,0.1,0.1,0.1,0.1c0.4-0.3,0.8-0.6,1.1-1c0,0-0.1-0.1-0.1-0.1C84.7,85.9,84.3,86.2,83.9,86.6z M58.4,82.7
					c0,0-0.1,0.1-0.1,0.1c0.1,0.7,0.2,0.7,0.7,0.5C58.7,83.1,58.6,82.9,58.4,82.7z M47,85.9c0.6,0,0.6-0.1,0.3-0.6
					C47.3,85.5,47.2,85.7,47,85.9z M53.1,82c0.1,0,0.1-0.1,0.2-0.1c0.1-0.1,0.2-0.2,0.4-0.3c-0.1-0.1-0.2-0.2-0.3-0.2
					c-0.1,0-0.3,0.1-0.4,0.2C53,81.8,53,81.9,53.1,82z M87.2,82.7c0,0,0.1,0.1,0.1,0.1c0.4-0.2,0.7-0.4,1.1-0.5c0,0,0-0.1-0.1-0.1
					C87.9,82.4,87.6,82.6,87.2,82.7z"/>
				<path class="st10" d="M109,76.2c0.1,1.1,0.2,2.2,0.1,3.2c0,2.4-0.7,4.6-1.8,6.6c-0.2,0.4-0.5,0.7-0.9,1c0-0.1,0-0.2,0.1-0.3
					c-0.1,0-0.1,0-0.1,0.1c-0.5,0.3-0.8,0.2-1.1-0.3c0-0.1-0.2-0.2-0.3-0.2c-0.3,0.1-0.5,0.2-0.8,0.4c-0.3,0.2-0.6,0.4-0.9,0.7
					c0,0-0.1-0.1-0.1-0.1c0.4-0.3,0.8-0.6,1.1-0.9c0.2-0.2,0.3-0.4,0.5-0.6c0.2-0.2,0.4-0.4,0.5-0.6c-0.4,0.3-1,0.2-1.1,0.8
					c0,0.1-0.4,0.1-0.6,0.1c0-0.1,0-0.1-0.1-0.2c0.4-0.3,0.8-0.5,1.2-0.8c-0.9,0.1-1.8,0.8-1.8,1.5c-0.8,0.1-1-0.1-1-0.7
					c0,0.2,0,0.4,0,0.5c-0.8-0.1-1.4-0.7-1.6-1.6c0.1,0.1,0.3,0.2,0.4,0.3c0.1-0.1,0.2-0.2,0.2-0.4c0.5-1.3,1.4-2.2,2.5-3
					c0.2-0.2,0.5-0.3,0.7-0.5c0.7-0.5,1.1-1.2,1.2-2c0.1-0.4,0.2-0.9,0.3-1.3c-0.1,0.8-0.2,1.7-0.2,2.5c0,1,0,2,0.1,3
					c0,0.6,0.2,1.1,0.8,1.5c-0.1-0.2-0.1-0.4-0.1-0.6c0.2,0.1,0.4,0.1,0.5,0.2c0.2-0.2,0.4-0.4,0.4-0.6c0.4-0.9,0.9-1.8,1.1-2.8
					c0.3-1.1,0.4-2.2,0.4-3.3c0-0.6-0.3-1.3-0.6-1.9c-0.1-0.3-0.5-0.5-0.8-0.7c0.4-0.3,0.9-0.3,1.2,0c0.2,0.2,0.2,0.4,0,0.5
					c0.2,0.2,0.4,0.4,0.6,0.5C109,76.1,109,76.1,109,76.2z M104.8,82.9c-0.8,0.8-1.5,1.4-2.3,2.1C103.4,84.5,104.5,84.3,104.8,82.9z
					 M104.9,81.9c0-0.1,0-0.2-0.1-0.2c-0.4,0.1-0.8,0.2-1.1,0.3c0,0.1,0,0.1,0,0.2C104.1,82,104.5,82,104.9,81.9z"/>
				<path d="M104,100.4c-2.8,0.2-5.6,0.4-8.4,0.6c0,0,0-0.1,0-0.1c2.8-0.2,5.6-0.4,8.4-0.7C103.9,100.3,103.9,100.3,104,100.4z"/>
				<path d="M94.1,97.3c0.8-0.4,1.5-0.7,2.3-1.2C96.2,96.7,94.8,97.3,94.1,97.3z"/>
				<path class="st10" d="M87.7,81.2c0.5-0.2,0.6-0.3,0.7-1.3c0.5,0.3,0.7,0.8,0.4,1.4c-0.2,0.4-0.2,0.6,0.2,0.8
					c0.2,0.2,0.4,0.4,0.6,0.5c0.4,0.4,0.4,0.4,0.9,0.1c0.1,0.1,0.1,0.2,0.2,0.3c-0.4,0.2-0.4,0.5-0.2,0.9c-0.3-0.4-0.6-0.9-1-1.2
					c-0.4-0.4-0.9-0.9-1.4-1.2c-0.3-0.2-0.5-0.4-0.2-0.8c0.4-0.4,0.3-0.6-0.2-0.9c0,0-0.1,0-0.1,0c-0.6-0.4-0.6-0.4-1,0.2
					c-0.1-0.3-0.2-0.6-0.4-0.8c-0.2-0.2-0.5-0.4-0.8-0.6c-0.1-0.1-0.3,0-0.4,0c0,0.1,0,0.3,0.1,0.4c0.1,0.3,0.3,0.6,0.3,0.9
					c-0.2-0.5-0.5-0.2-0.8-0.1c0,0.1,0,0.3,0,0.5c-1.3-1.9-1.9-2.3-2.4-2c0.2,0.3,0.4,0.7,0.7,1c0,0,0,0,0,0
					c-0.1-0.1-0.1-0.3-0.2-0.5c0.8,0.4,1.2,1,1.4,1.7c0.2,0.5,0.3,0.5,1.1,0.4c0.4-0.1,0.5-0.4,0.5-0.7c-0.1-0.4-0.2-0.8-0.4-1.4
					c0.2,0.2,0.5,0.4,0.6,0.6c0.2,0.6,0.6,1,1.2,1.3c0.1,0.1,0.2,0.2,0.3,0.3c-0.5-0.1-0.9-0.1-1.3,0.1c-0.8,0.3-1.7,0.3-2.5,0.4
					c-0.1,0-0.2-0.2-0.3-0.4c-0.2,0-0.4,0.1-0.6,0.1c0.3-0.5,1.1-0.4,1-1.2c-0.7,0.6-1.5,1.2-2.2,1.8c-0.2-0.3-0.3-0.7-0.5-1.1
					c0,0-0.1,0-0.1,0c0,0.1,0,0.2,0,0.4c-0.1-0.1-0.2-0.1-0.4-0.3c0.2,0.5,0.4,0.8,0.5,1.2c0,0-0.1,0-0.1,0.1
					c-0.4-1.1-1.2-1.8-2.3-2c-0.4-0.1-0.9,0.1-1.4,0.2c0,0.1,0,0.1,0,0.2c0.2,0,0.3,0,0.5,0c1.1-0.1,1.9,0.2,2.3,1.2
					c0.1,0.1,0.1,0.2,0.2,0.4c0.2,0.5,0.5,0.7,1,0.5c0.1,0,0.2,0,0.3,0c-1.7,1.3-2.3,3.1-2.9,5c-0.3,1.2-0.3,2.5-0.3,3.8
					c0,1.5,0.4,2.8,1.1,4c0.1,0.2,0.2,0.5,0.3,0.7c0,0,0,0.1,0,0.1c-1-1.1-1.1-2.7-1.8-3.9c0,0-0.1,0-0.1,0c0.2,0.6,0.4,1.2,0.5,1.8
					c-0.5-0.7-0.7-1.5-0.8-2.3c0-0.4-0.2-0.6-0.6-0.6c-0.4,0-0.8-0.1-1.3-0.1c0,0.1,0,0.1,0,0.2c0.5,0.2,1.1,0.4,1.6,0.6
					c-0.5,0.1-1,0.2-1.4,0.4c-0.1,0-0.1,0.2-0.1,0.4c0.5-0.1,1-0.2,1.5-0.3c0,0,0,0.1,0,0.1c-0.3,0.1-0.6,0.1-0.9,0.2
					c-0.2,0.1-0.7,0-0.3,0.5c0,0-0.1,0.1-0.1,0.2c0.5,0,1-0.1,1.5-0.1c0,0,0-0.1,0-0.1c-0.2-0.1-0.3-0.1-0.6-0.2
					c0.3-0.1,0.5-0.2,0.7-0.3c0.1,0.2,0.1,0.4,0.2,0.6c-0.7,0.1-1.3,0.2-1.9,0.4c-0.6,0.2-1.1,0.6-1.7,0.8c0.1-0.1,0.2-0.1,0.2-0.2
					c0.3-0.2,0.3-0.4,0.2-0.7c-0.1-0.3-0.1-0.6-0.1-0.8c0-0.2-0.1-0.4-0.4-0.3c-0.3,0.1-0.5,0.1-0.8,0.2c-0.1-0.4-0.2-0.8-0.2-1.2
					c0.3,0.1,0.4,0.2,0.6,0.3c0.4,0.1,1,0,1.2-0.4c0.1-0.1,0-0.2,0-0.3c-0.1,0-0.2,0-0.3,0c-0.2,0.1-0.4,0.2-0.6,0.3
					c-0.1,0-0.3,0.1-0.3,0.1c-0.3-0.2-0.5,0.1-0.8,0.1c-0.4,0.1-0.4,0.3-0.5,0.5c-0.6-0.2-1.2-0.5-1.1-1.2c0-0.3,0.3-0.5,0.4-0.8
					c0.2,0.1,0.4,0.2,0.6,0.4c0-0.6,0.2-1.1,0.1-1.6c0-0.3-0.4-0.5-0.7-0.7c-0.3-0.2-0.4-0.4-0.3-0.7c0.1-0.3,0.1-0.5,0.2-0.8
					c0.1-0.4,0.2-0.8,0.7-0.7c0.2-0.4,0.4-0.8,0.5-1.2c0,0,0.1,0,0.1,0c0,0.3,0.1,0.7,0.1,1c0.4-0.7,0.3-1.2-0.3-1.6
					c-0.2-0.2-0.3-0.3-0.1-0.6c0.4-0.6,0.8-1.1,1.6-1.1c0.2,0,0.4-0.1,0.6-0.3c0.4-0.3,0.3-0.7-0.1-0.9c-0.1-0.1-0.2-0.1-0.4-0.2
					c0.6-0.4,0.8-1.1,1.6-1.1c0.3,0,0.6,0,0.9-0.1c0.9-0.1,1.1-0.4,0.5-1.2c0.2-0.1,0.4-0.2,0.6-0.2c0.7-0.2,1.4-0.4,2.1-0.6
					c0.1,0,0.2-0.1,0.2-0.1c0-0.5,0.5-0.4,0.7-0.5c0.8-0.2,1.5-0.3,2.3-0.4c0.4,0,0.9,0.1,1.3,0.2c0.9,0.3,1.8,0.7,2.6,1.1
					c0.2,0.1,0.4,0.3,0.6,0.5c0.1,0.1,0.2,0.3,0.4,0.4c0.5,0.4,0.5,0.6,0.2,1.2C87.9,80.9,87.8,81.1,87.7,81.2z M77.4,91
					C77.4,91,77.4,91,77.4,91c0.1-0.1,0.2-0.2,0.2-0.4c0-0.3,0.1-0.6,0.1-0.8c0.1-1.3,0.1-1.3-1.1-1.8c-0.7-0.3-1.5-0.4-2.3-0.1
					c-0.2,0.1-0.3,0.3-0.4,0.4c0.2,0,0.4,0,0.6,0c0.3-0.1,0.7-0.3,0.9-0.3c0.7,0.2,1.3,0.5,1.9,0.8c0,0,0,0.1,0,0.1
					c-0.4-0.1-0.7-0.2-1.1-0.2c-0.3-0.1-0.6,0-0.5,0.4c0,0.3-0.1,0.4-0.4,0.4c-1,0.3-2,0.6-2.9,0.9c0,0,0,0.1,0,0.1
					c0.6-0.1,1.2-0.2,1.9-0.2c0.6,0,1.2,0,1.8,0c0.4,0,0.8,0.1,1.3,0.2C77.4,90.7,77.4,90.9,77.4,91z M74.7,83.3
					c0.2,0.1,0.5,0.1,0.7,0.2c0.8,0.3,1.6,0.7,2.3,1.1c0.3,0.2,0.6,0.6,0.9,0.6c0.3,0,0.6-0.4,0.8-0.7c0.5-0.4,0.5-0.5,0.2-1
					c-0.2-0.3-0.4-0.7-0.6-0.9c-0.3-0.3-0.7-0.6-1.1-0.8c-0.4-0.2-0.9-0.1-1.3,0.3c1.2-0.1,2.1,0.5,2.4,1.5
					c-0.2-0.1-0.4-0.1-0.6-0.2c0,0.2,0,0.4-0.1,0.5C78.3,84,78.1,84,78,84c-0.2-0.1-0.4-0.1-0.6-0.2C76.5,83.3,75.6,83.2,74.7,83.3z
					 M73.2,86.4c1.5,0.3,2.9,0.3,4.3,0.9c0.1,0,0.2,0.1,0.3,0.1c0.2,0,0.4-0.1,0.4-0.2c0.1-0.4,0.5-0.7,0.3-1.2c0,0,0,0-0.1-0.1
					c-0.4-0.2-0.8-0.4-1.2-0.6c-0.5,0.9-0.5,0.9-1.5,0.8C74.9,86.2,74.1,86.1,73.2,86.4z M79.3,79.4c0.9,0,1.6,0.5,2.2,1.1
					c0.1,0.1,0.3,0.2,0.5,0.3c0.3,0.1,0.5,0.1,0.7-0.1c0.2-0.2,0.1-0.5-0.2-0.8c0,0.1,0,0.3,0,0.4c-0.2-0.1-0.3-0.2-0.5-0.3
					c0,0.2,0,0.3,0,0.4c0,0.1,0,0.1,0,0.3C81.3,79.7,80.6,78.8,79.3,79.4z M77.9,91.7c0.1,0,0.1,0,0.2,0c0-1,0-2-0.1-3
					c-0.1,0-0.1,0-0.2,0C77.8,89.7,77.8,90.7,77.9,91.7z"/>
				<path class="st11" d="M59,73.5c0.4-0.3,0.8-0.5,1.2-0.8c1.1-0.7,2.2-1.4,3.3-2.2c0.5-0.4,1.1-0.5,1.7-0.5c2.7-0.2,5.3-0.3,8-0.5
					c0.1,0,0.2,0,0.4,0.1c-0.5,0.3-1,0.6-1.6,0.8c-3.8,1.8-7.4,4-11,6.2c-0.3,0.2-0.7,0.3-0.6,0.8c2.3-1.4,4.6-2.8,6.9-4.1
					c2.3-1.3,4.7-2.5,7.2-3.8c0.1,0.2,0.3,0.4,0.5,0.7c-0.8,0.4-1.4,0.7-2.1,1c-4,1.9-7.9,3.9-11.7,6.3c-0.4,0.2-0.7,0.5-1,0.7
					c0,0,0.1,0.1,0.1,0.1c0-0.1,0-0.1,0-0.2c0-0.7,0-0.7-0.7-0.7c-1,0-1.9,0-2.9,0c-0.8,0-0.8,0-1.1,0.7c0,0-0.1,0-0.1,0
					c0-0.3,0-0.6,0.1-0.9c0.2-0.4,0.4-0.8,0.7-1.1c0.7-0.7,1.4-1.4,2.1-2c0.1-0.1,0.3,0,0.3,0c0.2,0.1,0.3,0.3,0.6,0.4
					c-0.3-0.4-0.5-0.8-0.7-1.2c-1,1.4-2.7,2.2-3.5,4c-0.4-0.7-0.9-1.3-1.2-1.9c-0.5-1-1.2-1.8-2.4-2.1c0.1-0.2,0.2-0.4,0.2-0.5
					c0.3,0.2,0.5,0.4,0.8,0.4c0.2,0,0.5-0.1,0.6-0.2c0.5-0.3,0.7-1.1,0.5-1.5c-0.2,0-0.3,0-0.5,0c-0.2,0-0.3-0.1-0.5-0.2
					c0.1,0,0.2-0.1,0.4-0.1c1.5-0.2,2.9-0.3,4.4-0.5c1.2-0.2,2.3,0,3.4,0.6c0.1,0.1,0.2,0.2,0.4,0.3c-0.7,0.6-1.5,1-2.2,1.7
					C58.9,73.4,59,73.5,59,73.5z M53.9,72.8c0.2-0.2,0.5-0.5,0.8-0.7c0.3-0.2,0.6-0.3,1-0.5C54.5,71.6,54,72.1,53.9,72.8z
					 M59.6,76.4c0.5,0.3,0.7,0.2,0.7-0.3C60.1,76.2,59.9,76.3,59.6,76.4z M71.3,70c0,0.1,0,0.1,0,0.2c0.3,0.1,0.5,0,0.7-0.3
					C71.8,69.9,71.5,69.9,71.3,70z"/>
				<path class="st10" d="M106.6,73.9c-0.2-0.2-0.3-0.3-0.4-0.4c0,0.6,0.2,0.8,0.8,1.1c-0.1-0.2-0.2-0.3-0.3-0.5
					c0.2,0.1,0.3,0.1,0.6,0.2c0-0.2-0.1-0.3-0.1-0.4c0.1,0.1,0.1,0.1,0.1,0.1c0.1,0.2,0.2,0.4,0.1,0.6c-0.2,0.4-0.8,0.4-1.1,0
					c-0.2-0.4-0.6-0.6-1.1-0.8c0.2,0.2,0.3,0.4,0.4,0.5c0,0,0,0,0,0c-0.1-0.1-0.3-0.2-0.4-0.3c0.1,0.2,0.1,0.3,0.2,0.5
					c-0.3-0.1-0.6-0.2-0.9-0.3c0,0,0,0-0.1,0.1c0.1,0.1,0.3,0.2,0.4,0.3c0.1,0.1,0.3,0.2,0.3,0.4c0,0.4,0.3,0.5,0.7,0.6
					c-0.1,0.2-0.1,0.4-0.2,0.6c-0.2-0.1-0.3-0.2-0.5-0.3c0,0,0,0-0.1,0.1c0.1,0.2,0.3,0.3,0.5,0.6c0.2-0.4,0.3-0.8,0.4-1.1
					c0.3,0.4,0.1,1.2-0.4,1.3c-0.1,0-0.4-0.1-0.5-0.2c-0.5-0.5-1-1-1.6-1.4c0.1,0.1,0.1,0.2,0.2,0.3c1,0.8,1.2,1.8,0.7,3
					c-0.2,0.7-0.2,0.8,0.4,1.3c-0.1-0.2-0.1-0.4-0.1-0.6c0,0,0.1,0,0.1-0.1c0.1,0.2,0.2,0.3,0.2,0.5c0,0.6-0.8,1.4-1.4,1.4
					c-0.1,0-0.3-0.1-0.3-0.2c-0.1-0.1-0.1-0.3-0.2-0.5c0,0.3-0.1,0.7-0.2,1c-0.1,0.3-0.1,0.6-0.3,0.8c-0.5,0.6-1,1.1-1.6,1.8
					c0.1-0.5,0.2-0.9,0.3-1.4c-0.4,0.4-0.6,0.7-0.9,1c-0.2-0.3-0.3-0.5-0.4-0.8c0-0.1,0-0.4,0.1-0.5c0.4-0.5,0.8-0.9,1.2-1.4
					c-0.6,0.5-1.2,0.9-1.8,1.5c0-0.4,0-0.8,0-1.2c0.2,0.2,0.3,0.3,0.4,0.4c0.1-0.1,0.2-0.2,0.3-0.3c0.3-0.5,0.6-1,0.9-1.6
					c-0.3,0.1-0.5,0.3-0.8,0.4c0,0-0.1-0.1-0.1-0.1c0.4-0.5,0.8-1,1.2-1.5c-0.8,0.3-1.2,0.9-1.7,1.5c-0.1-0.4-0.1-0.4,0.4-1.6
					c-0.1,0-0.2,0-0.4,0c0.3-0.3,0.5-0.6,0.8-0.9c0,0,0,0,0-0.1c-0.2,0.1-0.4,0.2-0.7,0.4c0,0-0.1-0.1-0.1-0.1
					c0.2-0.3,0.4-0.5,0.6-0.9c-0.4,0.1-0.7,0.4-0.8,0.7c-0.3,0.9-0.6,1.7-0.9,2.6c0.3-1.3,0.1-2.8,1.2-4c-0.8,0.1-0.8,0.8-1.1,1.3
					c-0.1-0.6-0.1-0.6,1.2-2c-0.3,0.2-0.5,0.3-0.8,0.5c0.4-0.8,1-1.2,1.6-1.7c-0.2,0-0.4,0.1-0.6,0.1c0,0,0-0.1-0.1-0.1
					c0.7-0.4,1.3-0.8,2-1.2c0,0,0-0.1,0-0.1c-0.7,0.4-1.3,0.7-2,1.1c0.5-0.9,1.3-1.5,2.3-1.6c1.4-0.2,2.8,0,4.1,0.6
					c0.5,0.2,0.6,0.5,0.2,0.9C106.4,73.6,106.5,73.8,106.6,73.9z M104.1,77.5C104.1,77.5,104.1,77.5,104.1,77.5
					c-0.2,0.6-0.3,1.3-0.5,1.9c0,0,0.1,0,0.1,0C103.9,78.7,104,78.1,104.1,77.5z"/>
				<path class="st10" d="M41.2,89c-0.1,0.2-0.1,0.4-0.3,0.5c-0.4,0.3-0.8,0.5-1.2,0.8c0,0,0,0.1,0.1,0.1c0.4-0.6,0.9-1.2,1.3-1.8
					c-0.1-0.1-0.1-0.1-0.2-0.2c-0.1,0.1-0.2,0.3-0.3,0.5c0.1-0.7,0.2-1.2,0.2-1.7c-0.1,0-0.3,0-0.3,0c0.1-0.5,0.3-1.1,0.4-1.6
					c-0.1,0-0.1-0.1-0.2-0.1c-0.1,0.1-0.2,0.2-0.2,0.3c-0.2,0.7-0.3,0.8-1.1,1.1c0.1-0.9-0.2-2,1.1-2.5c0,0-0.1-0.1-0.1-0.1
					c-0.1,0-0.3,0-0.4,0c0,0-0.1-0.1-0.1-0.1c0.2-0.2,0.3-0.4,0.5-0.6c0.4-0.2,0.8-0.3,1.1-0.5c0.3-0.2,0.5-0.4,0.7-0.7
					c0,0,0-0.2-0.1-0.3c0,0-0.2,0-0.2,0C41.7,83,41,83,40.6,83.3c0.2-0.6,0.6-0.9,1.1-1.3c-0.1,0-0.2-0.1-0.3-0.1
					c0.3-0.5,0.7-0.7,1.2-0.8c0.5-0.1,0.9-0.2,1.4-0.3c0.5-0.1,0.5-0.3,0.2-0.7c-0.3,0.6-0.8,0.7-1.4,0.6c0-0.1,0.1-0.1,0.1-0.2
					c1.9-1.6,4.1-2.3,6.6-1.9c0.2,0,0.5,0.2,0.6,0.2c0,0.3,0,0.5-0.1,0.7c-0.1-0.1-0.2-0.1-0.3-0.3c0.1,0.2,0.1,0.4,0.2,0.6
					c-0.5-0.5-1-1.1-1.8-1c-0.1,0-0.2,0.1-0.3,0.2c0.9,0.1,1.3,0.7,1.6,1.5c-0.7-0.4-1.2-0.7-1.9-1.1c0.1,0.2,0.1,0.4,0.1,0.6
					c-0.3,0-0.5-0.1-0.7-0.1c-0.1,0-0.2,0.2-0.2,0.2c-0.4-0.1-0.8-0.3-1.2-0.5c0,0,0.1-0.1,0.1-0.1c-0.1,0-0.1,0-0.2,0
					c-0.2,0.1-0.4,0.2-0.5,0.3c0.2,0,0.4,0.1,0.5,0.1c0.8,0,1.2,0.6,1.6,1.2c-0.5-0.1-1-0.2-1.5-0.4c0.3,0.3,0.5,0.6,0.7,0.9
					c0,0,0,0.1-0.1,0.1c-0.3-0.1-0.5-0.3-0.8-0.4c0,0,0,0,0,0c0.2,0.2,0.4,0.4,0.6,0.7c0,0,0,0,0,0.1c-0.2-0.1-0.3-0.2-0.5-0.3
					c0,0,0,0,0,0.1c0.1,0.2,0.3,0.3,0.4,0.5c0,0,0,0.1,0,0.1c-0.2-0.1-0.5-0.1-0.7-0.2c-0.6-0.2-1.1-0.4-1.7-0.6
					c-0.1,0-0.3,0.1-0.5,0.1c0.1,0.1,0.2,0.3,0.4,0.3c0.7,0.2,1.2,0.6,1.5,1.1c-0.1,0.3-0.2,0.5-0.3,0.7c-0.2,0-0.4-0.1-0.6-0.1
					c0.1,0.2,0.1,0.4,0.1,0.5c-0.1,0.1-0.3,0.1-0.4,0.2c0,0.1,0,0.3,0.1,0.5c-0.2-0.1-0.4-0.1-0.6-0.2c-0.3-0.1-0.6-0.2-0.9-0.2
					c-0.3,0-0.6,0-0.7,0.4c0,0.4,0.3,0.3,0.6,0.4c0.8,0.1,1.3,0.5,1.8,1.1c-0.2,0.1-0.6,0.2-0.7,0.3c-0.1,0.1,0.1,0.4,0.2,0.7
					c-0.2,0-0.5,0-0.7,0c0,0,0,0,0,0.1c0.2,0.1,0.4,0.2,0.6,0.3c0,0,0,0,0,0c-0.2,0-0.4-0.1-0.7-0.1c0.1,0.2,0.1,0.3,0.1,0.4
					c0,0-0.1,0.1-0.1,0.1c0.2,0.1,0.5,0.2,0.7,0.4c0,0,0,0.1,0,0.1c-0.4,0-0.8-0.1-1.2-0.1c-0.2,0-0.5,0-0.7,0.1
					C41.1,88.7,41.1,88.7,41.2,89L41.2,89z"/>
				<path class="st11" d="M84.8,73c0.1,0.2,0.3,0.3,0.4,0.5c-0.3,0.2-0.6,0.3-0.9,0.5c-0.5-0.5-1-0.9-1.5-1.4c0,0,0.1-0.1,0.1-0.1
					c0.3,0.3,0.7,0.6,1,0.9c0,0,0.1-0.1,0.1-0.1c-0.3-0.3-0.5-0.6-0.8-0.8c-0.7-0.6-1.4-1.1-2.2-1.6c-0.1-0.1-0.4-0.3-0.4-0.4
					c0.1-0.3,0.3-0.5,0.5-0.7c0.1-0.1,0.3,0,0.4,0c1.7,0.2,3.5,0.4,5.2,0.6c0.4,0,0.6,0.3,0.6,0.6c0,0.3,0.1,0.6,0.3,0.9
					c0-0.3-0.1-0.7-0.1-1c0-0.1,0.1-0.2,0.1-0.3c0.1,0.1,0.2,0.1,0.2,0.2c0.1,0.2,0.2,0.5,0.3,0.7c0-0.2,0-0.5-0.1-0.7
					c-0.1-0.3,0-0.4,0.3-0.6c2.3-1.4,4.7-2.9,7-4.3c0.5-0.3,1-0.6,1.5-0.9c0.3-0.2,0.5-0.1,0.7,0.2c0.2,0.7,0.3,0.7,0.8,0.3
					c0.4-0.3,0.8-0.5,1.2-0.7c-0.8,1.2-2.3,1.3-3.3,2.2c0.1-0.1,0.1-0.1,0.3-0.3c-0.2,0.1-0.4,0.1-0.5,0.1c-0.1-0.1-0.1-0.2-0.2-0.3
					c0,0.3-0.1,0.5-0.1,0.7c-0.1,0-0.1,0-0.2,0c-0.1-0.2-0.1-0.4-0.2-0.6c-0.1,0.2-0.1,0.3-0.1,0.4c0.1,0.5-0.2,0.7-0.6,0.9
					c-2.6,1.6-5.2,3.3-7.8,4.9c-0.4,0.2-0.9,0.4-1.3,0.6C85.3,73.3,85.1,73.1,84.8,73C84.9,73,84.9,73,84.8,73z"/>
				<path class="st11" d="M60.6,78.1c0.1,0,0.2-0.1,0.3-0.1c3.5-0.8,6.7-2.6,10.1-3.8c0.2-1,1.2-1.3,1.9-1.9
					c-0.5,0.3-1.1,0.6-1.6,0.8c-0.4,0.2-0.9,0.3-1.3,0.5c-0.3,0.1-0.6,0.3-0.9,0.5c-0.7,0.3-1.3,0.7-1.9,1.1c1.2-0.5,2.3-1,3.5-1.5
					c0,0,0.1,0.1,0.1,0.1c-0.2,0.1-0.4,0.3-0.6,0.4c-2.3,0.9-4.5,1.9-6.8,2.8c-0.7,0.3-1.5,0.6-2.3,0.9c0.1-0.1,0.1-0.1,0.1-0.2
					c2.9-1.6,5.8-3.3,8.7-4.8c2-1.1,4.1-1.8,6.4-2c0.8,0,1.6,0.1,2.4,0.2c0.7,0.1,1.4,0.2,2.1,0.3c0.3,0.1,0.6,0.2,0.9,0.4
					c-0.1,0-0.1,0-0.2,0c-1.3-0.6-2.5-0.5-3.8-0.1c-1.9,0.6-3.9,1.2-5.8,1.8c-0.2,0.1-0.5,0.1-0.4,0.4c2.3-0.7,4.7-1.5,7-2.2
					c1.4-0.4,2.6-0.1,3.7,0.7c1.2,0.9,2.1,1.9,2.9,3.2c-0.5-0.5-0.9-1.1-1.4-1.5c-0.5-0.5-1-1-1.6-1.4c-0.9-0.7-1.9-0.9-3-0.6
					c-1.6,0.5-3.3,1-4.9,1.5c-0.3,0.1-0.5,0.2-0.7,0.4c0,0,0,0.1,0,0.1c1.7-0.6,3.3-1.1,5-1.7c0,0,0,0.1,0,0.1
					c-0.5,0.2-1,0.4-1.6,0.6C75,73.8,73,74.4,71.1,75c-0.9,0.3-1.9,0.4-2.7,0.6C67.2,76,66,76.4,64.8,77c-1.3,0.7-2.7,0.7-4,1.3
					c0,0-0.1,0-0.1,0C60.7,78.2,60.6,78.2,60.6,78.1z"/>
				<path class="st10" d="M91.2,91.6c-0.9,2.5-2.3,4.7-4.4,6.4c-0.9,0.7-1.9,0.7-3,0.6c-1.5-0.1-2.8-0.7-3.6-2
					c1.2,1.1,2.5,2,4.2,1.4c-0.1,0-0.2,0-0.3,0c-0.1,0-0.2,0-0.4,0c-1.1-0.1-2-0.5-2.7-1.2c-1.7-1.7-2.1-3.8-2.1-6
					c0.5,3.9,3.5,6.6,7,5.6c-0.5,0.4-1.3,0.7-2.7,0.8c0.2,0.1,0.5,0.1,0.7,0.2c1.5,0,2.9-0.4,3.9-1.5c1.2-1.2,2.3-2.5,3.1-3.9
					C91.1,91.7,91.2,91.7,91.2,91.6z M81.6,96.4c-0.7-1-1.5-2.1-2.2-3C79.8,94.6,80.4,95.8,81.6,96.4z"/>
				<path class="st12" d="M58.4,70.4c1-1.1,2-2.2,3-3.2c2.3-2.5,4.6-4.9,6.9-7.4c1.4-1.6,3.1-2.4,5.2-2.6c4.6-0.4,9.2-0.9,13.8-1.3
					c0.1,0,0.2,0,0.3,0.1C87.4,56,87.2,56,87,56c-4.6,0.5-9.1,0.9-13.7,1.4c-0.9,0.1-1.7,0.4-2.6,0.7c-0.4,0.2-0.8,0.5-1.1,0.9
					c-1.4,1.2-2.6,2.7-3.9,4c-0.1,0.1-0.2,0.3-0.3,0.5c0.4-0.4,0.8-0.8,1.2-1.2c0,0,0.1,0.1,0.1,0.1c-1.9,2.1-3.8,4.1-5.7,6.2
					c0,0-0.1,0-0.1-0.1c0.3-0.4,0.7-0.8,1-1.2c0,0,0,0-0.1-0.1c-0.1,0.1-0.2,0.2-0.3,0.3c-0.7,0.8-1.4,1.6-2.1,2.4
					C59.2,70.3,58.9,70.5,58.4,70.4z"/>
				<path class="st11" d="M94.2,71.4c-0.5,0.1-0.9,0.2-1.3,0.2c0.6-0.4,0.9-1.1,1.8-1.1c0,0.6-0.2,1.1-0.7,1.4
					c-0.4,0.3-0.9,0.5-1.4,0.8c0.5-0.2,1-0.4,1.5-0.6c-0.1,0.7-0.7,0.6-1.1,0.9c0.2-0.1,0.5-0.1,0.7-0.2c0,0,0.1,0.1,0.1,0.1
					c-0.2,0.2-0.3,0.5-0.5,0.6c-1.2,0.8-2.5,1.6-3.8,2.5c-0.4,0.3-0.8,0.2-1.2-0.1c-0.3-0.3-0.7-0.5-1-0.8c-0.3-0.2-0.3-0.4,0-0.6
					c0.4-0.3,0.9-0.6,1.3-0.9c0.1,0,0.2-0.1,0.2-0.1c0.6,0.3,1.1-0.1,1.7-0.4c1.1-0.5,2.1-1,3.2-1.4C93.8,71.6,93.9,71.5,94.2,71.4z
					 M91,74.3C91,74.3,91,74.3,91,74.3c-0.5,0.2-0.8,0.5-1.2,0.8c0,0,0.1,0.1,0.1,0.1C90.3,74.9,90.6,74.6,91,74.3z"/>
				<path class="st12" d="M79.1,70.5c0.3-0.6,0.7-1.2,1-1.9c1.9-3.6,3.9-7.1,5.8-10.7c1.1-2.1,4.7-3,6.4-1.2
					c0.3,0.3,0.6,0.7,0.8,1.1c0.8,1.7,1.6,3.5,2.4,5.3c0.1,0.2,0.1,0.3,0.2,0.5c0,0-0.1,0-0.1,0c-0.3-0.5-0.6-1-0.8-1.5
					c-0.7-1.4-1.3-2.8-2-4.3c-0.5-1.1-1.3-1.6-2.4-1.8c-0.1,0-0.3,0-0.5,0c-0.3,0-0.5,0.3-0.8,0c0,0-0.1,0-0.1,0
					c-0.9,0.4-2,0.6-2.3,1.8c-0.1,0.5-0.6,0.8-0.7,1.3c0,0.2-0.2,0.3-0.4,0.4c-0.2,0.4-0.3,0.8-0.6,1.2c-1.7,3-3.4,5.9-5.1,8.9
					c-0.2,0.3-0.4,0.6-0.7,0.9C79.2,70.6,79.2,70.6,79.1,70.5z"/>
				<path class="st10" d="M87.6,70c0.1-0.8,0.1-1.6,0.2-2.4c0-0.2,0.3-0.4,0.4-0.6c0.1-0.1,0.3-0.2,0.4-0.3c0,0,0-0.1-0.1-0.1
					c-0.2,0.1-0.5,0.2-0.8,0.4c0-0.3,0-0.6,0.1-0.8c0-0.1,0.2-0.3,0.3-0.3c0.6-0.1,1.1,0.1,1.5,0.6c0.4,0.4,0.7,0.9,1,1.3
					c0.1,0.1,0,0.4-0.1,0.4c-0.9,0.6-1.9,1.2-2.9,1.8C87.7,70,87.6,70,87.6,70z"/>
				<path class="st11" d="M68.9,77.7c-0.7,0.8-1.4,1.7-2.2,2.5c-0.3,0.3-0.7,0.5-1.1,0.7c-1.1,0.5-2.3,0.9-3.4,1.4
					c-0.1,0-0.4,0-0.4-0.1c-0.6-1.1-1.2-2.1-1.8-3.2c0,0,0.1-0.1,0.1-0.1c0.1,0.1,0.3,0.2,0.4,0.3c0.2,0.2,0.3,0.5,0.4,0.8
					c0.2,0.3,0.3,0.6,0.7,0.2c0.1,0.2,0.2,0.3,0.3,0.4c0.2,0.1,0.4,0.2,0.5,0.1c0.4-0.2,0.8-0.1,1.2,0.1c-0.4,0.2-0.7,0.3-1.1,0.5
					c-0.3,0.2-0.7,0.2-0.8,0.7c1.4-0.6,2.8-1,4.1-1.6c0.5-0.2,0.9-0.7,1.4-1.1c0.6-0.5,1.1-0.9,1.6-1.4
					C68.8,77.6,68.8,77.7,68.9,77.7z"/>
				<path class="st10" d="M90.6,61.6c-0.3-0.4-0.5-0.9-1.1-0.9c-0.5,0-1,0.1-1.5,0.2c0.3-0.6,1.9-0.7,2.7-0.3c0.9,0.5,1.9,2,1.7,2.5
					c0.4,0.2,0.7,0.5,1.1,0.7c0.4,0.2,0.8,0.2,1.2,0.3c-1.1,0.9-2.2,0.7-2.9-0.5c-0.3-0.6-0.5-1.2-0.7-1.8c-0.2,0.1-0.5,0.1-0.8,0.2
					C90.4,61.8,90.5,61.7,90.6,61.6z"/>
				<path class="st10" d="M75.1,69.2c-0.5,0-0.9-0.1-1.3-0.1c-0.5,0-0.9,0.1-1.6,0.1c1.1-1.2,2.2-2.1,3.4-2.9c0.1,0.5,0.1,1,0.2,1.5
					c0,0.1,0,0.1,0,0.2C75.6,68.5,75.3,68.9,75.1,69.2z"/>
				<path class="st10" d="M84.8,90.7c0.6-0.3,0.7-0.3,1.1,0.2c0.3,0.3,0.5,0.7,0.8,1c0,0-0.1,0.1-0.1,0.1c-0.3-0.2-0.6-0.4-0.8-0.6
					c0,0,0,0-0.1,0.1c0.3,0.4,0.7,0.7,1,1.1c0,0,0,0.1-0.1,0.1c-0.4-0.2-0.7-0.4-1.1-0.6c-0.2-0.1-0.4,0-0.7,0c-0.1,0-0.2,0-0.3,0
					c-0.4-0.2-0.4,0.1-0.4,0.3c0,0.3,0,0.6-0.1,0.8c0,0-0.1,0-0.1,0c0-0.2,0-0.4-0.1-0.7c-0.1,0.3-0.2,0.5-0.4,0.8
					c0-0.3-0.1-0.5-0.1-0.8c-0.1,0.1-0.2,0.2-0.3,0.3c0-0.4-0.1-0.8-0.1-1.2c-0.6-0.1-1.1-0.2-1.6-0.2c0.2-0.4,0.5-0.4,1.2-0.2
					c0.5,0.2,0.9,0.4,1.1,0.9c0.2-0.4,0.5-0.6,0.9-0.5C84.9,91.6,85,91.3,84.8,90.7z"/>
				<path class="st10" d="M85.1,68.9c0.4-0.5,0.9-1,1.3-1.5c0,0,0.1,0,0.1,0c-0.1,0.8-0.1,1.6-0.2,2.4c0,0.1-0.2,0.2-0.3,0.2
					c-0.4,0-0.9,0-1.3-0.1c-0.1,0-0.3-0.2-0.3-0.3c0-0.3,0-0.6,0.2-0.8c0.4-0.5,0.8-1,1.2-1.5c0.1-0.1,0.3-0.1,0.5-0.3
					C85.9,67.7,85.5,68.2,85.1,68.9C85.1,68.9,85.1,68.9,85.1,68.9z"/>
				<path class="st11" d="M86.6,77.4c0.1,0.1,0.2,0.2,0.3,0.3c0.2,0.2,0.5,0.2,0.8,0.1c1.8-0.9,3.6-1.8,5.3-2.7
					c1-0.5,1.6-1.2,2.1-2.2c0.6-1.5,1.3-2.9,1.9-4.4c0.1-0.2,0.1-0.3,0.3-0.4c0,0.1,0,0.3-0.1,0.4c-0.6,1.9-1.5,3.8-2.5,5.5
					c-0.3,0.5-0.8,0.9-1.3,1.1c-1.8,0.9-3.6,1.8-5.3,2.7C87.3,78.2,87,78.1,86.6,77.4z"/>
				<path class="st10" d="M81.6,94.6c-1.1-1.1-1.6-2.5-1.8-4c-0.2-1.7-0.1-3.4,1-4.9c0.4-0.5,0.8-0.9,1.3-1.4c0,0,0.1,0.1,0.1,0.1
					c-0.1,0.1-0.2,0.3-0.3,0.4c-2.6,2.8-2.3,7.3-0.3,9.6C81.6,94.5,81.6,94.6,81.6,94.6C81.6,94.6,81.6,94.6,81.6,94.6z"/>
				<path class="st12" d="M87.1,68.9c0-0.4-0.1-0.9-0.1-1.3c0-0.6,0.1-1.3,0.1-1.9c0.1-1.3,0.2-2.5,0.2-3.8c0-0.6,0-1.2,0.1-1.7
					c0-0.2,0.1-0.4,0.2-0.7c0,0,0.1,0,0.1,0c-0.2,3.1-0.3,6.2-0.5,9.4C87.3,68.9,87.2,68.9,87.1,68.9z"/>
				<path class="st10" d="M60.8,88.6c-3.6,0.3-7.3,0.7-11,1C53.4,88.8,57.2,88.5,60.8,88.6z"/>
				<path class="st11" d="M70.7,91c-2-0.8-4-1.5-5.9-2.3c0-0.1,0-0.1,0-0.2c0.4,0.1,0.9,0.1,1.3,0.3c1.5,0.5,2.9,1.1,4.3,1.6
					C70.7,90.5,70.8,90.7,70.7,91z"/>
				<path class="st11" d="M56.1,79.4c0.3,0.7,0.6,1.3,0.8,2c0.1,0.3,0.3,0.5,0.7,0.5c1.1,0,2.1,0.1,3.2,0.2c0.2,0,0.4,0.1,0.6,0.2
					c0,0,0,0.1,0,0.1c-0.2,0-0.3,0-0.5,0c-1.2,0-2.4-0.1-3.5-0.1c-0.4,0-0.7-0.2-0.8-0.6C56.4,81,56.2,80.2,56.1,79.4
					C56,79.4,56,79.4,56.1,79.4z"/>
				<path class="st11" d="M54.6,77.5c-1.2-1.1-2.4-2.3-3-3.8c0,0,0.1-0.1,0.1-0.1c0.3,0.2,0.6,0.3,0.8,0.5c0.8,1.1,1.6,2.2,2.3,3.3
					C54.7,77.4,54.7,77.5,54.6,77.5z"/>
				<path class="st10" d="M79,96.4c-1.7-1.1-1.9-1.1-3.6,0.5c0.1-0.2,0.2-0.3,0.2-0.5c0-0.1,0-0.3-0.1-0.5
					C76.8,94.6,78.2,94.8,79,96.4z"/>
				<path class="st11" d="M65.8,85.1c0.2,0,0.4,0,0.6,0c1.4,0.3,2.9,0.7,4.3,1c0.1,0,0.2,0.2,0.3,0.2c-0.1,0-0.3,0.2-0.4,0.1
					c-1.6-0.4-3.1-0.8-4.7-1.2c-0.1,0-0.2-0.1-0.2-0.1C65.8,85.2,65.8,85.2,65.8,85.1z"/>
				<path class="st12" d="M65.8,69.7c1.1-3.1,2.2-6.2,3.2-9.2c0,0,0.1,0,0.1,0c-1,3.1-2,6.2-3.1,9.3C66,69.8,65.9,69.8,65.8,69.7z"
					/>
				<path class="st11" d="M91.5,68.1c1.2-0.8,2.3-1.6,3.5-2.5c0.3-0.2,0.5-0.3,0.7-0.6c0.4-0.5,0.8-0.5,1.4-0.3
					C95.2,65.9,93.4,67,91.5,68.1C91.6,68.1,91.5,68.1,91.5,68.1z"/>
				<path class="st10" d="M85,95.1c0,0,0.1,0.1,0.1,0.2c-0.9,0.5-2,0.3-2.7-0.3c0.6-0.1,1.3-0.3,2.1-0.3c0.4,0,0.9,0.2,1.3,0.3
					c0,0.1,0,0.1,0,0.2C85.5,95.1,85.3,95.1,85,95.1z"/>
				<path class="st10" d="M77.7,61.2c1.2-0.3,1.9,0.4,2.7,1.1c-0.4,0.2-0.4,0.5-0.3,0.8c0.2,0.8,0.5,1.6,1.1,2.1
					c0,0,0.1,0.1,0.1,0.2c0,0-0.1,0.1-0.1,0.1c-0.2-0.2-0.5-0.3-0.7-0.5c-0.3-0.5-0.5-1-0.7-1.6c-0.1-0.4-0.2-0.8-0.3-1.2
					c-0.2-0.7-0.6-1-1.3-1C78.1,61.3,77.9,61.2,77.7,61.2z"/>
				<path class="st11" d="M56.9,77.7c0.8,0.1,1.6,0.1,2.4,0.2c0.1,0,0.2,0.1,0.3,0.2c-0.1,0.1-0.3,0.2-0.4,0.2c-1,0-2.1-0.1-3.1-0.1
					c-0.1,0-0.2-0.2-0.3-0.3c0.1-0.1,0.2-0.3,0.4-0.3C56.4,77.5,56.7,77.6,56.9,77.7C56.9,77.6,56.9,77.7,56.9,77.7z"/>
				<path class="st10" d="M89.2,87.5c-0.7-2.4-2.1-4.1-4.8-4c0.1-0.4,0.4-0.4,0.6-0.4c0.9,0.1,1.8,0.4,2.5,1
					c0.8,0.7,1.4,1.5,1.8,2.4c0.1,0.3,0.1,0.6,0.1,0.9C89.3,87.5,89.3,87.5,89.2,87.5z"/>
				<path class="st10" d="M70.7,66.9c0.1,0.2,0.2,0.4,0.2,0.5c0,0,0,0,0,0c-0.1-0.1-0.2-0.2-0.3-0.3c0,0,0,0-0.1,0
					c0.1,0.2,0.3,0.5,0.4,0.7c0,0,0,0-0.1,0.1c-0.2-0.2-0.3-0.3-0.5-0.5c0,0-0.1,0-0.1,0.1c0.1,0.2,0.2,0.4,0.4,0.7
					c-0.2-0.2-0.3-0.3-0.5-0.4c0,0-0.1,0-0.1,0.1c0.1,0.3,0.3,0.5,0.4,0.8c0,0,0,0,0,0c-0.1-0.1-0.3-0.3-0.4-0.4c0,0-0.1,0-0.1,0.1
					c0.2,0.3,0.4,0.7,0.6,1c0,0-0.1,0-0.1,0.1c-0.4-0.3-0.8-0.7-0.9-1.3c-0.1-0.5,0.1-0.9,0.6-1.1c0.9-0.4,1.8-0.8,2.7-1.2
					c0,0.1,0.1,0.1,0.1,0.2C72.2,66.3,71.5,66.6,70.7,66.9z"/>
				<path class="st10" d="M50.9,86.6c0.8-0.5,5.6-1.6,6.7-1.6c0,0,0,0.1,0,0.1C55.4,85.6,53.1,86.1,50.9,86.6z"/>
				<path class="st11" d="M86.5,74.6c0.1-0.1,0.2-0.3,0.3-0.4c1.8-1.2,3.6-2.3,5.4-3.5c0,0,0.1,0,0.1,0c0,0,0,0.1,0.1,0.1
					C90.4,72.1,88.5,73.4,86.5,74.6C86.5,74.6,86.5,74.6,86.5,74.6z"/>
				<path class="st11" d="M63.9,78.8c0.1-0.1,0.2-0.2,0.4-0.3c0.3-0.3,0.6-0.2,0.9,0.1c0.2,0.2,0.3,0.3,0.6,0c0.1,0.4,0,0.7-0.3,0.9
					c-0.5,0.3-1,0.2-1.5-0.2c0.3,0.1,0.7,0.2,1,0.2c0-0.1,0-0.1,0.1-0.2C64.5,79.5,64.2,79.3,63.9,78.8z"/>
				<path class="st10" d="M93.3,66.2c0-0.1-0.1-0.1-0.1-0.1c-0.4-1.1-0.7-1.3-1.8-1.3c-0.2,0-0.6,0.2-0.6-0.2c0-0.2,0.4-0.5,0.7-0.5
					c0.2,0,0.4,0.1,0.6,0.2c0.4,0.2,0.7,0.4,1.1,0.6C93.4,65.1,93.6,65.8,93.3,66.2z"/>
				<path class="st11" d="M55.8,81.3c-0.8-0.7-1.6-1.3-2.4-2c-0.2-0.2-0.3-0.5-0.4-0.7c-0.1-0.5-0.2-1-0.2-1.5
					c0.1,0.2,0.2,0.4,0.2,0.6c0.2,0.7,0.6,1.3,1.2,1.8c0.6,0.5,1.1,1.2,1.7,1.7C55.9,81.2,55.8,81.3,55.8,81.3z"/>
				<path class="st11" d="M89.3,78.7c0.3-0.2,0.6-0.5,1-0.7c0.1-0.1,0.3,0,0.5,0.1c0,0,0,0.2,0,0.4c0,0.2,0,0.4,0.1,0.5
					c0.1,0.3,0.1,0.5-0.3,0.6c-0.2,0-0.3,0.1-0.5,0.2c0-0.2,0-0.5-0.1-0.7C89.9,78.8,89.6,78.8,89.3,78.7z"/>
				<path class="st10" d="M84,69.9c0-0.1-0.1-0.2-0.1-0.3c0-1-0.2-1.9-0.9-2.7c-0.2-0.2-0.3-0.5,0-0.7C83.9,66.9,84.5,68.9,84,69.9z
					"/>
				<path class="st10" d="M52.2,91.7C51.4,93,49,93.8,48,92.9C49.6,93,51,92.7,52.2,91.7z"/>
				<path class="st10" d="M79.9,68.1c-0.2-0.1-0.4-0.2-0.6-0.3c-0.8-0.3-1.6-0.4-2.5-0.2c-0.7,0.2-0.8,0.1-0.7-0.6
					c0-0.1,0-0.1,0.1-0.3c0.3,0.3,0.5,0.5,0.7,0.7c0,0,0.1-0.1,0.1-0.1c-0.1-0.1-0.1-0.3-0.2-0.5C77.8,67.6,79.1,67.1,79.9,68.1z"/>
				<path class="st10" d="M91.8,85.5c-0.2,0-0.3,0-0.4,0c0,0-0.1-0.1-0.1-0.1c0.1,0,0.3-0.1,0.4-0.1c0-0.1-0.1-0.1-0.1-0.2
					c-0.2,0-0.4,0-0.6,0.1c0.1,0.8,0.2,1.6,0.4,2.5c0.3-0.1,0.5-0.3,0.7-0.4c0,0.2,0.1,0.4,0.1,0.6c-0.2,0-0.3,0-0.4,0
					c-0.6,0-0.6,0-0.7-0.6c-0.1-1-0.3-1.9-0.8-2.8c0.3,0.5,0.7,0.7,1.2,0.3c0.1,0.4,0.2,0.7,0.3,1.1c-0.1,0-0.3,0-0.4,0.1
					C91.7,85.7,91.8,85.7,91.8,85.5z"/>
				<path class="st10" d="M77.4,98.8c0.1-0.7,0.4-1.2,1.1-1.4c0.6-0.2,1,0.2,1.4,0.6C78.8,97.7,78.1,98.1,77.4,98.8z"/>
				<path class="st11" d="M98.4,65.4c-0.1-0.3-0.1-0.7-0.1-1c0-0.1,0.2-0.3,0.2-0.4c0,0,0.1,0,0.1,0.1c0,0.2,0,0.4,0,0.6
					c0.1-0.3,0.2-0.6,0.4-0.9c0.1,0.2,0.1,0.3,0.2,0.5c0-0.2,0-0.3,0.1-0.5c0.4,0.4,0.4,0.8,0,1.1C99.1,65,98.7,65.2,98.4,65.4
					C98.4,65.4,98.4,65.4,98.4,65.4z"/>
				<path class="st10" d="M93.8,65.9c-0.1-0.9,0.4-1.6,1.2-1.5c0.1,0,0.2,0.1,0.3,0.2c0,0.1,0,0.3-0.1,0.3
					C94.8,65.3,94.3,65.6,93.8,65.9z"/>
				<path class="st10" d="M87.9,92c0.4-0.8,0.8-1.6,1.3-2.4c0.1,0.8-0.1,1.6-0.5,2.3c-0.1,0.2-0.5,0.2-0.8,0.3
					C87.9,92.1,87.9,92,87.9,92z"/>
				<path class="st11" d="M61.8,82.9c0.6,1.5,0.8,3.2,1,4.8c-0.1,0-0.1,0-0.2,0c-0.3-1.6-0.7-3.2-1-4.8
					C61.7,82.9,61.8,82.9,61.8,82.9z"/>
				<path class="st10" d="M88.3,93.4c0.5-1.2,1.1-2.5,1.6-3.8c0,1.5-0.7,2.7-1.5,3.8C88.4,93.4,88.4,93.4,88.3,93.4z"/>
				<path class="st11" d="M99.5,63.2c-0.9,0.8-2.6,1.1-3.3,0.7C97.3,63.6,98.4,63.4,99.5,63.2z"/>
				<path class="st11" d="M69.9,89.2c-0.7,0.5-0.9,0.4-2.5-0.2C68.3,88.5,69.1,88.8,69.9,89.2z"/>
				<path class="st10" d="M81.6,94.6c0.6,0.3,1.1,0.7,1.7,1c0.7,0.3,1.5,0.1,2.3-0.2c-0.1,0.4-0.3,0.6-0.8,0.6
					c-1,0.2-1.8-0.1-2.6-0.7C82,95.1,81.8,94.9,81.6,94.6C81.6,94.6,81.6,94.6,81.6,94.6z"/>
				<path class="st10" d="M50.2,82.8c-2.2-0.2-3.5,1.1-4.4,2.9C45.8,84.2,48.2,82.2,50.2,82.8z"/>
				<path class="st11" d="M61.9,87.7c-1.5-1.3-3-2.5-4.2-4.1c1.4,1.3,2.9,2.6,4.3,3.9C62,87.7,62,87.7,61.9,87.7z"/>
				<path class="st10" d="M77,68.6c-0.1-0.4,0-0.6,0.3-0.6c0.8-0.1,1.6,0.1,2.3,0.5c0,0,0,0.1,0.1,0.3C78.8,68.3,77.9,68.1,77,68.6z
					"/>
				<path class="st10" d="M45.4,87.5c-0.2,1.9,0.1,3.6,1.5,5.1C45.6,91.9,44.6,88.3,45.4,87.5z"/>
				<path class="st10" d="M87,93c0.3-0.8,0.7-1,1.4-0.8C88.2,93.2,87.7,93.5,87,93z"/>
				<path class="st11" d="M85.6,74.1c2-1.2,3.9-2.4,5.9-3.7C91,71,86.4,73.9,85.6,74.1z"/>
				<path class="st10" d="M39.8,89c-0.2,0.3-0.3,0.5-0.4,0.8c-0.5-1-0.5-1.8,0.1-2.1C39.8,88.1,39.1,88.7,39.8,89z"/>
				<path class="st10" d="M72.7,65.5c0.7-0.5,1.4-1,2.2-1.5c-0.2,0.7-0.9,1.2-2.1,1.6C72.8,65.6,72.7,65.6,72.7,65.5z"/>
				<path class="st10" d="M87,89.2c0.2,0,0.3,0,0.5,0c0,0,0,0.1,0,0.1c-0.4,0.1-0.9,0.1-1.3,0.2c0,0,0-0.1,0-0.1
					c0.1-0.1,0.2-0.2,0.3-0.3c-0.2,0-0.3-0.1-0.6-0.2c0.2-0.1,0.3-0.3,0.4-0.3c0.4,0,0.8,0.1,1.4,0.2C87.4,89,87.2,89.1,87,89.2
					C87,89.2,87,89.2,87,89.2z"/>
				<path class="st11" d="M73.1,81.9c-0.9,0.3-1.9,0-2.4,1.2c-0.1-0.5,0-0.7,0.4-0.9C71.7,81.7,72.4,81.6,73.1,81.9z"/>
				<path class="st10" d="M90,91.4c0.3-1.5,0.2-2.9,0-4.4C90.5,88.5,90.5,90,90,91.4z"/>
				<path class="st11" d="M78.7,70.5c-0.2,0.1-0.4,0.3-0.6,0.3c-0.6,0-1.2-0.1-1.9-0.2c0.8-0.1,1.6-0.2,2.4-0.3
					C78.6,70.4,78.7,70.4,78.7,70.5z"/>
				<path class="st10" d="M42.2,91.1c-0.1-0.2-0.1-0.4-0.2-0.5c0.1-0.1,0.3-0.2,0.4-0.3c0.1-0.1,0.1-0.3,0.2-0.5
					c0.3,0.1,0.6,0.4,0.5,0.7C42.9,90.7,42.5,90.9,42.2,91.1z"/>
				<path class="st11" d="M71.4,89.4c-0.7-0.3-1.3-0.6-2.1-0.9C70,88.3,71.1,88.7,71.4,89.4z"/>
				<path class="st11" d="M52.7,71.7c-0.1,0.3-0.3,0.5-0.4,0.7c0,0,0.1,0.1,0.1,0.1c0.2-0.1,0.4-0.2,0.8-0.3
					c-0.1,0.3-0.1,0.5-0.2,0.6c-0.1,0.1-0.4,0.2-0.6,0.2c-0.1,0-0.2-0.3-0.3-0.4C52.1,72.2,52.3,71.8,52.7,71.7z"/>
				<path class="st10" d="M75.1,95.1c0.5-0.6,1.1-0.8,2-0.8c-0.3,0.1-0.4,0.2-0.6,0.3c0.1,0.1,0.2,0.1,0.3,0.2
					C76.2,94.9,75.6,95,75.1,95.1z"/>
				<path class="st11" d="M98.4,65.4c-0.1,0.1-0.3,0.2-0.5,0.3c-0.1-0.7-0.4-1.3-1.2-1.3c0-0.1,0-0.1,0.1-0.2c0.3,0,0.7,0,1,0.1
					c0.1,0,0.2,0.3,0.3,0.5C98.2,65,98.3,65.2,98.4,65.4C98.4,65.4,98.4,65.4,98.4,65.4z"/>
				<path class="st11" d="M71,83.6c0.3-1.1,1.5-1.5,2.5-0.8c-0.5,0-1-0.1-1.5,0C71.7,83,71.3,83.3,71,83.6z"/>
				<path class="st10" d="M83.7,66.3c-0.1-0.3-0.3-0.5-0.3-0.8c0-0.1,0.2-0.4,0.3-0.4c0.3,0.1,0.5,0.3,0.8,0.5
					C84.1,65.9,84,66.1,83.7,66.3z"/>
				<path class="st10" d="M81.6,64.6c-0.2-0.1-0.7-0.2-0.7-0.3c-0.1-0.3,0-0.6,0.1-1c0.1,0,0.1,0,0.2,0c0.2,0.4,0.4,0.8,0.5,1.2
					C81.6,64.5,81.6,64.6,81.6,64.6z"/>
				<path class="st10" d="M80.7,66c-1.4-0.7-2.8-0.9-4.2-0.2C77.1,64.9,79.8,65.1,80.7,66z"/>
				<path class="st10" d="M83.4,89.2c0.2,0.3,0.3,0.5,0.4,0.7c-0.3-0.1-0.6-0.4-0.5-0.7c0.1-0.2,0.3-0.4,0.5-0.5
					c0.3-0.1,0.6,0.1,0.7,0.5C84.1,89.3,83.8,89.2,83.4,89.2z"/>
				<path class="st10" d="M104.8,77.1c0.5,0.5,0.6,0.9,0.3,1.6C104.8,78.5,104.7,78.2,104.8,77.1z"/>
				<path class="st10" d="M89.3,98.5c-0.6,0.8-1.4,1.3-2.4,1.5C87.8,99.5,88.5,99,89.3,98.5z"/>
				<path class="st11" d="M95.7,67.7c-1,0.7-2.1,1.4-3.1,2.1c0,0-0.1-0.1-0.1-0.1c1-0.7,2.1-1.4,3.1-2.1
					C95.7,67.6,95.7,67.6,95.7,67.7z"/>
				<path class="st10" d="M54.4,82.8c-0.7-0.3-1.3-0.7-2.1-0.1c0-0.4,0.2-0.7,0.5-0.6c0.5,0.1,1.1,0.4,1.6,0.6
					C54.4,82.7,54.4,82.8,54.4,82.8z"/>
				<path class="st10" d="M107.5,82c0.3-1.1,0.6-2.2,0.9-3.3c0,0,0.1,0,0.1,0c-0.3,1.1-0.6,2.2-0.9,3.3C107.6,82,107.5,82,107.5,82z
					"/>
				<path class="st10" d="M92.3,88c0,0.3,0,0.6,0.1,0.9c-0.3,0.1-0.5,0-0.6-0.2c-0.1-0.1-0.1-0.4,0-0.4C91.8,88.1,92,88.1,92.3,88z"
					/>
				<path class="st10" d="M51.4,79.2c0.5,0.2,0.9,0.4,1.5,0.7C52.1,80,51.6,79.9,51.4,79.2z"/>
				<path class="st11" d="M70.3,81.3c0.1-0.6,1-1.1,1.7-0.9C71.5,80.6,70.8,81,70.3,81.3z"/>
				<path class="st10" d="M55.3,81.9c-0.7-0.2-1.4-0.5-2.1-0.7C53.6,80.9,54.8,81.3,55.3,81.9z"/>
				<path class="st10" d="M84.3,90.4c-0.2,0-0.4,0-0.5-0.1c-0.3-0.2-0.6-0.3-0.8,0.2c-0.1-0.2-0.2-0.5-0.3-0.7c0,0,0.1-0.1,0.1-0.1
					C83.2,89.9,83.7,90.1,84.3,90.4C84.3,90.3,84.3,90.3,84.3,90.4z"/>
				<path class="st10" d="M90.2,81.7c-0.7-0.4-0.7-0.4-1.2-0.1c0.1-0.4,0.1-0.7,0.2-1.1C89.6,80.9,89.9,81.3,90.2,81.7z"/>
				<path class="st10" d="M51.7,83.5c0.4-0.4,1.1-0.3,1.8,0.2C52.9,83.7,52.3,83.6,51.7,83.5z"/>
				<path class="st10" d="M86.9,88.5c-0.5,0.1-1.1,0.2-1.6-0.3c0.5,0,1,0.1,1.6,0.1C87,88.4,87,88.5,86.9,88.5z"/>
				<path class="st10" d="M87.2,84.5c0.7,0.5,1.1,1.2,1.4,2.2C88.1,86,87.7,85.3,87.2,84.5z"/>
				<path class="st10" d="M81.4,63.1c0.3,0.2,0.6,0.5,1,0.8c-0.3,0.1-0.5,0.2-0.6,0.2c-0.2-0.3-0.4-0.6-0.5-0.9
					C81.3,63.1,81.4,63.1,81.4,63.1z"/>
				<path class="st10" d="M41.2,89c0.3-0.1,0.6-0.2,0.9-0.2c0.6,0,1.1,0.2,1.6,0.3C42.9,89,42,89,41.2,89C41.2,89,41.2,89,41.2,89z"
					/>
				<path class="st11" d="M71.6,79c-0.5,0.3-1,0.6-1.5,0.8C70.2,79.3,70.8,78.9,71.6,79z"/>
				<path class="st10" d="M89.4,89.3c0-0.5,0.1-1,0.1-1.5c0.1,0,0.1,0,0.2,0c0,0.5-0.1,1-0.1,1.4C89.5,89.3,89.5,89.3,89.4,89.3z"/>
				<path class="st10" d="M91.4,83.7c-0.3-0.1-0.6-0.2-0.8-0.2c0.1-0.2,0.2-0.4,0.3-0.7C91.1,83.1,91.2,83.4,91.4,83.7z"/>
				<path class="st11" d="M75.2,79.7c-0.5,0.3-1.1,0.5-1.5,0.8C73.9,79.9,74.5,79.5,75.2,79.7z"/>
				<path class="st11" d="M71.2,77.9c-0.5,0.2-1,0.5-1.5,0.8C69.8,78.2,70.4,77.8,71.2,77.9z"/>
				<path class="st11" d="M72.5,81.2c-0.3,0.1-0.5,0.1-0.7,0.2c-0.2,0.1-0.4,0.2-0.6,0.3C71.3,81.1,71.7,80.9,72.5,81.2z"/>
				<path class="st10" d="M92.3,91.8c-0.1-0.3-0.1-0.6-0.2-0.9c0-0.1,0.1-0.2,0.1-0.3c0.1,0.1,0.2,0.1,0.2,0.2c0,0.3,0,0.6,0,0.9
					C92.4,91.8,92.3,91.8,92.3,91.8z"/>
				<path class="st10" d="M77.9,69.5c-0.6,0-1.3,0-1.9-0.1C76.4,69.2,77,69.2,77.9,69.5z"/>
				<path class="st10" d="M78.5,66.4c-0.4,0-0.7-0.1-1.1-0.1c0-0.1,0-0.2,0-0.3c0.4,0.1,0.7,0.1,1.1,0.2
					C78.5,66.3,78.5,66.3,78.5,66.4z"/>
				<path class="st11" d="M54.8,78.5c-0.4,0.2-0.7,0.1-1-0.4C54.2,78.3,54.6,77.9,54.8,78.5z"/>
				<path class="st10" d="M80.7,87.6c0.2-0.3,0.3-0.6,0.4-0.9C81.5,87.1,81.4,87.4,80.7,87.6z"/>
				<path class="st10" d="M80.4,67.2c-0.5,0.1-0.9-0.2-0.8-0.8C79.9,66.7,80.2,67,80.4,67.2z"/>
				<path class="st10" d="M48.9,87.9c-0.2-0.2-0.4-0.3-0.6-0.4c0.1,0,0.2-0.2,0.3-0.2c0.1,0,0.3,0.1,0.3,0.2
					C49,87.5,48.9,87.7,48.9,87.9z"/>
				<path class="st10" d="M44,85.6c-0.5-0.2-1.1-0.5-1.6-0.7c0,0,0-0.1,0-0.1c0.5,0.2,1.1,0.4,1.6,0.7C44,85.5,44,85.5,44,85.6z"/>
				<path class="st11" d="M61.8,88.3c0.4,0.1,0.8,0.3,1.2,0.4C62.3,88.8,61.9,88.7,61.8,88.3z"/>
				<path class="st11" d="M65.9,88.2c0.4-0.2,0.6-0.2,0.7,0.1c0,0.1-0.1,0.2-0.1,0.2C66.3,88.4,66.1,88.3,65.9,88.2z"/>
				<path class="st11" d="M79.3,72.3c0.6,0.1,1.2,0.2,1.8,0.3c0,0.1,0,0.1,0,0.2c-0.6-0.1-1.2-0.2-1.8-0.3
					C79.3,72.4,79.3,72.4,79.3,72.3z"/>
				<path class="st11" d="M97.4,76.1c0.3-0.3,0.6-0.3,0.9-0.1c0,0,0,0.1,0,0.1c-0.3,0-0.6,0.1-0.9,0.1
					C97.4,76.2,97.4,76.2,97.4,76.1z"/>
				<path class="st10" d="M81.1,90.9c0.3-0.3,0.6-0.6,0.9-0.9C81.8,90.4,81.7,90.9,81.1,90.9z"/>
				<path class="st10" d="M79.5,66.1c-0.2,0.1-0.4,0.2-0.5,0.2c-0.1,0-0.2-0.2-0.2-0.2c0.1-0.1,0.2-0.2,0.3-0.3
					C79.2,65.7,79.4,65.9,79.5,66.1z"/>
				<path class="st11" d="M61.5,71.3c-0.4-0.2-0.8-0.3-1.2-0.5c0,0,0-0.1,0.1-0.1c0.4,0.2,0.8,0.3,1.2,0.5
					C61.5,71.2,61.5,71.3,61.5,71.3z"/>
				<path class="st10" d="M89,84.6c0.1-0.1,0.2-0.2,0.4-0.2c0,0.1,0,0.2,0,0.4c0.1,0,0.2,0,0.3,0c0.1,0,0.2,0,0.4,0
					C89.7,84.8,89.3,85,89,84.6z"/>
				<path class="st10" d="M86,64.4c0.3-0.3,0.5-0.6,0.7-0.8C86.8,64.1,86.8,64.2,86,64.4z"/>
				<path class="st11" d="M93.4,75.6c-0.5,0.2-1,0.4-1.5,0.6c0,0,0-0.1,0-0.1c0.5-0.2,1-0.4,1.5-0.6C93.4,75.5,93.4,75.5,93.4,75.6z
					"/>
				<path class="st10" d="M51.4,84.4c0.4,0.1,0.9,0.3,1.3,0.4c0,0,0,0.1,0,0.1c-0.4-0.1-0.9-0.3-1.3-0.4
					C51.4,84.5,51.4,84.4,51.4,84.4z"/>
				<path class="st10" d="M51.6,88.1c0.3-0.3,0.6-0.5,0.9-0.8C52.4,87.9,52.2,88.1,51.6,88.1z"/>
				<path class="st11" d="M97.4,74.5c-0.4,0.1-0.8,0.2-1.3,0.4C96.5,74.3,97,74.6,97.4,74.5z"/>
				<path class="st11" d="M61,83.3c-0.5,0.2-0.6-0.2-0.6-0.5C60.7,83,60.8,83.2,61,83.3z"/>
				<path class="st11" d="M55.4,80c-0.1-0.1-0.3-0.3-0.4-0.4c0.1-0.1,0.2-0.1,0.2-0.2c0.1,0.1,0.2,0.3,0.3,0.4
					C55.6,79.9,55.5,80,55.4,80z"/>
				<path class="st10" d="M83.9,86.6c0.4-0.3,0.8-0.6,1.1-1c0,0,0.1,0.1,0.1,0.1c-0.4,0.3-0.8,0.6-1.1,1C84,86.6,84,86.6,83.9,86.6z
					"/>
				<path class="st11" d="M58.4,82.7c0.2,0.2,0.3,0.4,0.6,0.6c-0.5,0.1-0.6,0.2-0.7-0.5C58.3,82.8,58.4,82.7,58.4,82.7z"/>
				<path class="st10" d="M47,85.9c0.1-0.2,0.2-0.4,0.3-0.6C47.7,85.8,47.6,85.9,47,85.9z"/>
				<path class="st10" d="M53.1,82c0-0.1-0.1-0.3-0.1-0.3c0.1-0.1,0.2-0.2,0.4-0.2c0.1,0,0.2,0.1,0.3,0.2c-0.1,0.1-0.2,0.2-0.4,0.3
					C53.2,82,53.1,82,53.1,82z"/>
				<path class="st10" d="M87.2,82.7c0.4-0.2,0.7-0.4,1.1-0.5c0,0,0,0.1,0.1,0.1c-0.4,0.2-0.7,0.4-1.1,0.5
					C87.3,82.8,87.3,82.8,87.2,82.7z"/>
				<path d="M104.8,82.9c-0.3,1.4-1.4,1.6-2.3,2.1C103.3,84.4,104,83.7,104.8,82.9z"/>
				<path d="M104.9,81.9c-0.4,0.1-0.8,0.2-1.2,0.3c0-0.1,0-0.1,0-0.2c0.4-0.1,0.8-0.2,1.1-0.3C104.9,81.7,104.9,81.8,104.9,81.9z"/>
				<path d="M77.4,91c0-0.1,0.1-0.3,0.1-0.3c-0.4-0.1-0.9-0.2-1.3-0.2c-0.6,0-1.2-0.1-1.8,0c-0.6,0-1.2,0.1-1.9,0.2c0,0,0-0.1,0-0.1
					c1-0.3,2-0.6,2.9-0.9c0.2-0.1,0.4-0.2,0.4-0.4c0-0.4,0.2-0.5,0.5-0.4c0.4,0.1,0.7,0.2,1.1,0.2c0,0,0-0.1,0-0.1
					c-0.6-0.3-1.3-0.6-1.9-0.8c-0.3-0.1-0.6,0.2-0.9,0.3c-0.2,0-0.4,0-0.6,0c0.1-0.1,0.2-0.4,0.4-0.4c0.8-0.3,1.5-0.2,2.3,0.1
					c1.2,0.4,1.2,0.5,1.1,1.8c0,0.3,0,0.6-0.1,0.8C77.6,90.8,77.5,90.9,77.4,91C77.4,91,77.4,91,77.4,91z"/>
				<path d="M74.7,83.3c0.9-0.1,1.8,0,2.6,0.4c0.2,0.1,0.4,0.2,0.6,0.2c0.1,0,0.3,0,0.3-0.1c0.1-0.1,0.1-0.3,0.1-0.5
					c0.1,0,0.3,0.1,0.6,0.2c-0.3-1-1.2-1.7-2.4-1.5c0.4-0.4,0.9-0.4,1.3-0.3c0.4,0.2,0.8,0.5,1.1,0.8c0.3,0.3,0.4,0.6,0.6,0.9
					c0.4,0.6,0.3,0.6-0.2,1c-0.3,0.2-0.5,0.6-0.8,0.7c-0.3,0-0.5-0.4-0.9-0.6c-0.8-0.4-1.6-0.7-2.3-1.1
					C75.2,83.4,74.9,83.4,74.7,83.3z"/>
				<path d="M73.2,86.4c0.9-0.3,1.7-0.2,2.5-0.2c0.9,0,0.9,0.1,1.5-0.8c0.4,0.2,0.8,0.4,1.2,0.6c0,0,0.1,0,0.1,0.1
					c0.2,0.5-0.2,0.8-0.3,1.2c0,0.1-0.3,0.2-0.4,0.2c-0.1,0-0.2,0-0.3-0.1C76.2,86.7,74.7,86.7,73.2,86.4z M77.7,86.4
					c0,0.2,0,0.5,0,0.8c0.4-0.3,0.3-0.6,0.4-0.9C78,86.3,77.8,86.4,77.7,86.4z"/>
				<path d="M79.3,79.4c1.3-0.6,2,0.3,2.7,1.2c0-0.1,0-0.2,0-0.3c0-0.1,0-0.2,0-0.4c0.2,0.1,0.4,0.2,0.5,0.3c0-0.1,0-0.2,0-0.4
					c0.3,0.2,0.4,0.6,0.2,0.8c-0.2,0.3-0.4,0.2-0.7,0.1c-0.2-0.1-0.4-0.1-0.5-0.3C80.9,79.9,80.3,79.4,79.3,79.4z"/>
				<path d="M77.9,91.7c0-1,0-2-0.1-3c0.1,0,0.1,0,0.2,0c0,1,0,2,0.1,3C78,91.7,77.9,91.7,77.9,91.7z"/>
				<path d="M53.9,72.8c0.1-0.7,0.7-1.1,1.8-1.3c-0.4,0.2-0.7,0.3-1,0.5C54.3,72.2,54.1,72.5,53.9,72.8z"/>
				<path d="M59.6,76.4c0.2-0.1,0.4-0.2,0.7-0.3C60.3,76.6,60.2,76.7,59.6,76.4z"/>
				<path d="M71.3,70c0.3,0,0.5-0.1,0.8-0.1c-0.2,0.3-0.4,0.4-0.7,0.3C71.3,70.1,71.3,70,71.3,70z"/>
				<path d="M104.1,77.5c-0.1,0.6-0.2,1.3-0.4,1.9c0,0-0.1,0-0.1,0C103.8,78.7,103.9,78.1,104.1,77.5
					C104.1,77.5,104.1,77.5,104.1,77.5z"/>
				<path d="M62.4,89.9c-1.1,0.5-2.3,0.6-3.5,0.7c0,0,0-0.1,0-0.1c1.2-0.3,2.3-0.5,3.5-0.8C62.3,89.8,62.4,89.9,62.4,89.9z"/>
				<path d="M64.9,90.8c-1.2,0.2-2.3,0.5-3.5,0.7c-0.1,0-0.3,0-0.5,0c1-0.2,2.1-0.4,3.1-0.6C64.3,90.8,64.6,90.8,64.9,90.8
					C64.9,90.8,64.9,90.8,64.9,90.8z"/>
				<path d="M81.6,96.4c-1.2-0.7-1.9-1.8-2.2-3C80.1,94.4,80.9,95.4,81.6,96.4z"/>
				<path d="M91,74.3c-0.4,0.3-0.8,0.6-1.1,0.9c0,0-0.1-0.1-0.1-0.1C90.2,74.8,90.6,74.5,91,74.3C91,74.3,91,74.3,91,74.3z"/>
				<path class="st10" d="M77.7,86.4c0.1,0,0.2-0.1,0.4-0.1c-0.1,0.3,0,0.7-0.4,0.9C77.8,86.9,77.7,86.7,77.7,86.4z"/>
			</g>
		</g>
		<g>
			<polygon class="st13" points="84.5,11.7 81.4,14.1 79.1,16 78.8,17.8 78.7,20.7 76.1,22.1 75,24.3 74.7,26.8 71.9,28.9 
				71.9,31.5 71,36.1 73.8,38.2 77.1,42.7 80.2,41.7 83.8,36.6 86.3,31.1 87.8,25.6 86.6,22.7 86.2,20.2 87.1,18.9 88.2,18.6 
				89.7,17.3 90.9,16.9 91.8,15.3 94.1,14.3 91.4,13.5 88.4,15.3 85.5,16.4 83.8,18.1 82.8,20.7 81.7,18.7 82.1,16.9 83,16.7 
				84,14.8 84.9,14.3 84.9,13 			"/>
			<path class="st14" d="M71.8,35.9c0,0-0.4-0.7,2.5-3.7c0,0-0.8,0.6-1,0.4c0,0,0.9-0.9,1.3-2.2s2-3.1,4-3.8c0,0-0.8-0.3-2.2,0.7
				c0,0,1.1-1.3,2.2-1.2c0,0,1.5-4.6,6.5-3.3l-1.2-0.4c0,0-0.4-1.1,0.3-2.6c0.7-1.3-0.3-0.6,0.5-1.6c0.1-0.1,0.2-0.2,0.3-0.4
				c0,0,0.5-1.2,2.6-1.4L87,16.2c0,0,3.3-0.1,3.6,0.5c0.3,0.7-0.9,0.6-0.9,0.6l-1.2,1.6l-2,0.6l-0.3,3l-3.6,3.4L81.4,27
				c0,0,0.5,0.4,1.1,0.3c0,0-1.1,0.3-1.5,0.3c0,0,0.5,0.7,1.2,0.9c0,0-1,0.6-1.2,0.5c-0.2-0.1,0.2,0.1,0.2,0.1s1.7,2.3,1.7,2.7
				c0,0-0.7-0.9-1.3-0.9c0,0,1.6,3,1.1,6.5s-1.2,1.8-1.2,1.8l-2.6,0.4l-5.3-1.4L71.8,35.9z"/>
			<path class="st15" d="M75.8,31.1c0,0,1-1.6,1.8-2.1l1.8-1.5c0,0-1.1,1.6-1.1,2.4s-1,1.9-2.5,1.3V31.1z"/>
			<path class="st15" d="M73,34.6c0,0,0.6,0,1,0.3c0.4,0.2,1.7-0.9,2.6-2.2c0.9-1.3,1.9-0.9,2.5-3.5c0,0,0,1.6-0.3,2.4
				c0,0,1.3-1.8,0.9-3.5c0,0,0.9,0.6,1.1,4.1s-0.2,5.8-1.3,6.7c0,0,2-1.7,2-3.4c0,0,0.8,1.8-0.4,4.3S78.3,43,78.3,43l-3.3-4.2
				L72.6,38l-0.9-1.8L73,34.6z"/>
			<path class="st15" d="M86,18.9c0,0-1.2,0-1.5,0.8c0,0,1-0.6,0.8,0.2c-0.3,0.8-0.5,2.4,0,3.5c0,0-4.1-1.1-4.8,2
				c0,0,0.3-0.7,0.6-0.8c0,0-0.7,1.1,0.2,2.5c1,1.3,3-1.4,3.4-1.5s0.3,0.6,0.3,0.6s-0.7,0.4-1.3,1.2c-0.6,0.8-1.5,1.1-1.4,1.5
				c0.1,0.3,2.7,0.3,2.7,0.3l0.9-3.9l0.5-3.1L86,18.9z"/>
			<path class="st15" d="M93.2,14.3c0,0-2.4-0.4-2.9,1.4V15c0,0-0.4,0.7-0.4,1.4c0,0-1.5,0.1-1.8,2c-0.3,1.9,1.2-0.7,1.2-0.7
				l1.3-1.4l1.4-1.1L93.2,14.3z"/>
			<path class="st14" d="M84.8,12.1c0,0-1.3,0.3-1,1.9c0,0-0.6-0.3-1.4,0.5c0,0,1.1-0.4,1.2-0.3c0,0-1,0.2-0.9,1.9l0.9-0.7l1-1.7
				L84.8,12.1z"/>
			<path class="st14" d="M80.9,17.3c0,0-1,1.1-0.8,3.2l1.1,0.2c0,0-2.1-0.2-4.5,2.2l1-0.3c0,0-2.4,1.4-1.8,3.4l1.3-0.7
				c0,0,0-1.3,0.6-1.7c0.5-0.4,2.6-1.7,3.1-1.8c0.5-0.1,1.4-2,1.4-2S81.8,16.9,80.9,17.3z"/>
			<path class="st15" d="M80.1,17.7h0.7c0,0-0.6,1.4,0.5,3c0,0-2.2,0.7-2.8,1.3l1-0.2c0,0-2.4,0.8-2.5,3.5c0,0,1.5-2.5,2.2-2.5
				s3-1,3.3-0.8c0.3,0.2,0.3-1,0.3-1l-0.8-2.9l-0.3-1.4L80.1,17.7z"/>
			<path class="st16" d="M74.5,25.3c0,0-3.7,1.4-5.1,2.2c0,0-2.7,9.2,5.5,15.9c0,0-1.7-1.7-2.1-2.9c0,0,1.9,2.8,4.5,3.6
				c0,0,6.5-3.3,8.5-9.9c0,0-0.6,3.5-2.5,6.8c0,0,7-6.9,5-17.2l-1.1-0.2c0,0-1.3-3.4,0.4-4.2c0,0,1.4,0.3,2.1-1.3s1.6-0.3,1.6-0.3
				s-0.6-3.7,4.5-2.5c0,0-3-4.7-7.4-0.2c0,0-4.4-0.4-5.6,4.9c0,0-1.3-1.8-0.1-2.8c0,0,0.7-0.1,1.1-1c0.4-0.9,0.5-1.3,1.6-1.4
				c0,0-1.6-2.5,3.2-3.5c0,0-4.5-2.8-6.7,2.1c0,0-4,1.1-3.3,5.1l-0.2,1.9l0.7,0.2c0,0,0.5-2.1,0.1-3.1s2.1-3.9,4.6-3.4
				c0,0-0.7-0.7-1.4-0.5c0,0,3.4-2,3.5-2c0,0-2.4,0.5-1.7,2.8c0,0-1.1-0.4-1.4,1.6c-0.3,2-1.3-1.1-3,2.1c0,0,1.5-1,1.5-1.1
				c0-0.1-0.8,2.1,1.1,4.2v0.5l0.4,0.1c0,0,0.9-1.9,1-2.7c0.1-0.8,1.9-4.1,5.9-2.8c0,0-0.5-0.8-1-0.7c0,0,2.2-2.5,4.5-1.3
				c0,0-2.9,0-2.9,2.4c0,0-0.8-0.6-2.2,1.6c0,0-1.8-0.8-3.8,1c0,0,2.1-0.8,2.1-0.5c0,0-1.7,1.2-0.2,5.1c0,0-4.5-0.8-4.8,1.8
				c-0.3,2.6,2.4,0.5,3.3,0.5c0.9,0-1.6,2.5-1.8,2.5s0.9-1.5,0.9-1.5s-1,0.3-1.9,0.3l1,0.3L81.6,29c0,0,2.4,2.1,2.1,5.3
				c0,0-0.2-1.2-0.8-1.2c0,0,1,2.3-1.1,5.8l-0.2-1c0,0-1,2.8-3.8,4.2c0,0,1.4-1.8,0.5-2.8s-0.9-1.6-0.9-1.6L77.3,39
				c0,0-1.3-2.3-0.6-3.9c0.7-1.6,3.4-2.2,3.4-3.9c0,0-0.6,1.1-1.2,1.1c0,0,1.2-1.5,1-2.5c0,0-1.3,2.7-2.2,3.3
				c-1,0.6-2.2,2.2-1.6,4.4c0,0-0.7-0.3-0.7-1.8c0,0-0.4,1.8,0.2,2.3c0,0-1.5,0.1-1.3-2.1l1.1-0.7c0,0-2.6,1.6-3.1,0.8
				s0.4,0.4,1.1-1.3c0,0-1.6-0.1-1.4,0.6l-0.4-0.4l2-3.9l-0.6,0.4c0,0,0.1-1.3,0.2-1.5c0.2-0.2,1.4-3.1,4.2-4.1c0,0,0.2-2.7,3.6-3.3
				c3.4-0.5,4.1,0.2,4.1,0.2S83.2,21,80.5,22c-2.7,1-3.2,1.7-3.6,3.3l-1.5,0.7c0,0-1.7-4.8,5.8-5.3C81.3,20.7,75.3,18.9,74.5,25.3z"
				/>
			<path class="st16" d="M74.3,33.3c0,0,1.1-1.3,1.4-2s0.9-1.5,0.9-1.1c0,0.4-0.6,0.8-0.2,0.6c0.4-0.2,1.1-0.8,0.9-1.6
				s1.5-0.6,2.2-1.7c0,0-1.5,1.2-1.5,2.3c0,1.1-0.9,1.7-2,1.7C75.8,31.5,75.3,32.7,74.3,33.3z"/>
			<path class="st16" d="M78,20.8c0,0,0.3-0.2,0.4-1c0.1-0.8,0.5-1.3,0.5-1.3l0.2,1.9C79.1,20.5,78.1,21,78,20.8z"/>
		</g>
	</g>
	<g>
		<linearGradient id="SVGID_10_" gradientUnits="userSpaceOnUse" x1="75.6503" y1="117.4804" x2="91.668" y2="117.4804">
			<stop  offset="8.130080e-03" style="stop-color:#FAAB18"/>
			<stop  offset="1" style="stop-color:#E87624"/>
		</linearGradient>
		<path class="st17" d="M91.7,126.6c-1.9,0-3.8,0-5.8,0c0-1.6,0-3.2,0-4.8c-1.5,0-2.9,0-4.4,0c0,1.6,0,3.2,0,4.8c-1.9,0-3.8,0-5.8,0
			c0-0.1,0-0.2,0-0.2c0-3,0-6,0-9c0-1.9,0-3.8,0-5.7c0-0.1,0.1-0.3,0.2-0.4c0.9-0.9,1.8-1.8,2.7-2.7c0.1-0.1,0.2-0.1,0.3-0.1
			c4.2,0,8.5,0,12.7,0c0,0,0.1,0,0.1,0C91.7,114.4,91.7,120.5,91.7,126.6z M85.9,113.3c-1.5,0-2.9,0-4.4,0c0,1.2,0,2.3,0,3.5
			c1.5,0,2.9,0,4.4,0C85.9,115.6,85.9,114.5,85.9,113.3z"/>
		<linearGradient id="SVGID_11_" gradientUnits="userSpaceOnUse" x1="39.5612" y1="117.4941" x2="55.5705" y2="117.4941">
			<stop  offset="8.130080e-03" style="stop-color:#FAAB18"/>
			<stop  offset="1" style="stop-color:#E87624"/>
		</linearGradient>
		<path class="st18" d="M39.6,126.6c0-6.1,0-12.1,0-18.2c5.3,0,10.7,0,16,0c0,1.6,0,3.2,0,4.9c-3.4,0-6.8,0-10.2,0
			c0,0.6,0,1.1,0,1.7c2.6,0,5.3,0,8,0c0,1.7,0,3.3,0,4.9c-2.7,0-5.3,0-8,0c0,0.6,0,1.2,0,1.8c3.4,0,6.8,0,10.2,0c0,1.6,0,3.3,0,4.9
			C50.2,126.6,44.9,126.6,39.6,126.6z"/>
		<linearGradient id="SVGID_12_" gradientUnits="userSpaceOnUse" x1="21.2646" y1="117.507" x2="37.3127" y2="117.507">
			<stop  offset="8.130080e-03" style="stop-color:#FAAB18"/>
			<stop  offset="1" style="stop-color:#E87624"/>
		</linearGradient>
		<path class="st19" d="M21.3,126.6c0-6.1,0-12.1,0-18.2c5.3,0,10.7,0,16,0c0,0.1,0,0.2,0,0.3c0,4,0,8.1,0,12.1
			c0,0.1-0.1,0.3-0.2,0.4c-1.5,1.3-3,2.7-4.4,4c-0.5,0.4-1,0.9-1.5,1.3c-0.1,0.1-0.2,0.1-0.2,0.1c-3.2,0-6.4,0-9.6,0
			C21.3,126.6,21.3,126.6,21.3,126.6z M27.1,113.3c0,2.8,0,5.6,0,8.4c0.4,0,0.8,0,1.2,0c0.1,0,0.2-0.1,0.2-0.1
			c0.9-0.8,1.9-1.6,2.8-2.5c0.1-0.1,0.2-0.3,0.2-0.4c0-1.7,0-3.4,0-5.2c0-0.1,0-0.2,0-0.3C30,113.3,28.6,113.3,27.1,113.3z"/>
		<linearGradient id="SVGID_13_" gradientUnits="userSpaceOnUse" x1="112.7257" y1="117.4923" x2="128.7354" y2="117.4923">
			<stop  offset="8.130080e-03" style="stop-color:#FAAB18"/>
			<stop  offset="1" style="stop-color:#E87624"/>
		</linearGradient>
		<path class="st20" d="M112.7,108.4c1.9,0,3.8,0,5.8,0c0,4.4,0,8.8,0,13.3c1.5,0,2.9,0,4.4,0c0-4.4,0-8.8,0-13.3c1.9,0,3.9,0,5.8,0
			c0,6.1,0,12.1,0,18.2c-0.1,0-0.2,0-0.3,0c-4.2,0-8.3,0-12.5,0c-0.2,0-0.3,0-0.4-0.2c-0.9-0.9-1.8-1.8-2.6-2.6
			c-0.1-0.1-0.2-0.3-0.2-0.4c0-4.9,0-9.8,0-14.8C112.7,108.6,112.7,108.5,112.7,108.4z"/>
		<linearGradient id="SVGID_14_" gradientUnits="userSpaceOnUse" x1="94.2017" y1="117.4848" x2="110.2504" y2="117.4848">
			<stop  offset="8.130080e-03" style="stop-color:#FAAB18"/>
			<stop  offset="1" style="stop-color:#E87624"/>
		</linearGradient>
		<path class="st21" d="M104.4,108.5c1.9,0,3.9-0.1,5.8-0.1c0,0.1,0,0.2,0,0.3c0,4.3,0,8.6,0,12.9c0,0.2-0.1,0.3-0.2,0.4
			c-1.8,1.5-3.6,3-5.3,4.5c-0.1,0.1-0.2,0.1-0.3,0.1c-1.4,0-2.9,0-4.3,0c-0.1,0-0.3-0.1-0.4-0.2c-1.5-1.3-3-2.5-4.5-3.8
			c-0.1-0.1-0.3-0.3-0.4-0.4c-0.5-0.3-0.6-0.7-0.6-1.2c0-4.1,0-8.2,0-12.4c0-0.1,0-0.2,0-0.4c1.9,0,3.9,0,5.8,0c0,0.1,0,0.2,0,0.3
			c0,3.5,0,7,0,10.4c0,0.2,0.1,0.4,0.2,0.5c0.6,0.5,1.2,1,1.8,1.6c0.1,0,0.1,0.1,0.2,0.1c0.7-0.6,1.4-1.2,2.1-1.8
			c0.1-0.1,0.1-0.2,0.1-0.4c0-3.2,0-6.5,0-9.7C104.4,109.2,104.4,108.8,104.4,108.5z"/>
		<linearGradient id="SVGID_15_" gradientUnits="userSpaceOnUse" x1="57.4012" y1="117.4846" x2="73.45" y2="117.4846">
			<stop  offset="8.130080e-03" style="stop-color:#FAAB18"/>
			<stop  offset="1" style="stop-color:#E87624"/>
		</linearGradient>
		<path class="st22" d="M57.4,126.6c0-0.1,0-0.1,0-0.2c0-2.7,0-5.3,0-8c0-0.2,0.1-0.3,0.2-0.5c0.9-0.8,1.7-1.7,2.5-2.5
			c0.1-0.1,0.3-0.2,0.4-0.2c0.8,0,1.6,0,2.4,0c0.1,0,0.2,0,0.3,0c0,2.2,0,4.3,0,6.4c1.5,0,3,0,4.4,0c0-4.4,0-8.8,0-13.3
			c1.9,0,3.9,0,5.8,0c0,6.1,0,12.1,0,18.2C68.1,126.6,62.8,126.6,57.4,126.6z"/>
	</g>
	<path d="M28.5,136c-1.9,0-3.9,0-5.8,0c0,0.1,0,0.3,0,0.4c0,0.7,0,1.5,0,2.2c0,0.4-0.3,0.7-0.8,0.7c-0.4,0-0.7-0.3-0.7-0.8
		c0-1.3,0-2.7,0-4c0-2.2,2-4.1,4.2-4.2c2.3-0.1,4.1,1.7,4.4,3.6c0,0.3,0.1,0.5,0.1,0.8c0,1.2,0,2.5,0,3.7c0,0.2,0,0.3-0.1,0.5
		c-0.1,0.3-0.5,0.5-0.8,0.4c-0.3-0.1-0.6-0.3-0.6-0.7c0-0.8,0-1.5,0-2.3C28.5,136.2,28.5,136.1,28.5,136z M22.8,134.4
		c1.9,0,3.8,0,5.7,0c-0.1-1.5-1.5-2.7-3-2.6C24.1,131.9,22.7,133.2,22.8,134.4z"/>
	<path d="M34.9,134.8c0-1.2,0-2.4,0-3.6c0-0.6,0.2-0.9,0.8-0.9c0.7,0,1.4-0.1,2.1,0.1c1.9,0.3,3.4,2.2,3.5,4.2
		c0.1,1.9-1,3.7-2.7,4.4c-0.5,0.2-1.1,0.3-1.6,0.3c-0.4,0.1-0.9,0-1.3,0c-0.5,0-0.8-0.3-0.8-0.8C34.9,137.2,34.9,136,34.9,134.8z
		 M36.4,131.8c0,2,0,4,0,6c1.4,0.2,2.3-0.3,3-1.3c0.7-1,0.7-2.4,0-3.4C38.7,132,37.6,131.6,36.4,131.8z"/>
	<path d="M106.9,133.4c0,0.8,0.1,1.7,0,2.5c-0.2,1.7-1.2,2.9-2.8,3.4c-1.6,0.6-3.2,0.3-4.5-0.9c-0.9-0.9-1.4-2-1.4-3.3
		c0-1.3,0-2.5,0-3.8c0-0.5,0.3-0.8,0.7-0.8c0.5,0,0.8,0.3,0.8,0.8c0,1.3,0,2.6,0,3.9c0,1.4,1.1,2.6,2.5,2.8c1.4,0.2,2.8-0.7,3.2-2
		c0.1-0.3,0.1-0.6,0.1-1c0-1.3,0-2.5,0-3.8c0-0.4,0.2-0.6,0.5-0.7c0.3-0.1,0.7,0,0.8,0.3c0.1,0.1,0.1,0.3,0.1,0.5
		C107,132,107,132.7,106.9,133.4C107,133.4,106.9,133.4,106.9,133.4z"/>
	<path d="M116.2,135.9c1,0.7,1.3,1.6,1.2,2.8c0,0.4-0.4,0.7-0.7,0.7c-0.4,0-0.6-0.3-0.7-0.7c0-0.1,0-0.2,0-0.4
		c-0.1-0.8-0.6-1.3-1.4-1.4c-0.9-0.1-1,0-1,0.9c0,0.3,0,0.6,0,0.8c0,0.5-0.3,0.8-0.7,0.8c-0.4,0-0.7-0.3-0.7-0.8c0-2.4,0-4.7,0-7.1
		c0-0.2,0-0.4,0-0.5c0-0.3,0.2-0.5,0.5-0.6c1.4-0.2,2.6,0,3.7,1c1.3,1.2,1.2,3.2,0,4.4C116.3,135.8,116.3,135.9,116.2,135.9z
		 M113.6,135.4c0.8-0.1,1.6-0.2,2-1c0.3-0.6,0.3-1.3-0.1-1.9c-0.5-0.7-1.2-0.8-1.9-0.8C113.6,133,113.6,134.2,113.6,135.4z"/>
	<path d="M79.5,136.4c0,0.7,0,1.4,0,2.1c0,0.5-0.3,0.8-0.7,0.8c-0.4,0-0.7-0.3-0.7-0.8c0-1.2,0-2.4,0-3.7c0-1.7-1.2-3-2.8-3
		c-1.7,0-2.9,1.2-3,2.9c0,1.2,0,2.5,0,3.7c0,0.4-0.2,0.7-0.6,0.8c-0.4,0.1-0.9-0.2-0.9-0.6c0-1.5-0.1-3.1,0.1-4.6
		c0.2-2,2.1-3.6,4.1-3.7c2.3-0.1,4.2,1.7,4.4,3.6C79.6,134.8,79.5,135.6,79.5,136.4C79.5,136.4,79.5,136.4,79.5,136.4z"/>
	<path d="M123.9,134.2c0.4,0,0.8,0,1.2,0c0.9,0,1.8,0,2.7,0c0.5,0,0.8,0.2,0.8,0.6c0,0.4-0.3,0.7-0.8,0.7c-1.2,0-2.4,0-3.5,0
		c-0.1,0-0.2,0-0.4,0c0.2,0.8,0.6,1.4,1.2,1.8c0.5,0.4,1.1,0.6,1.8,0.6c0.3,0,0.6,0,0.9,0c0.4,0,0.6,0.2,0.7,0.6
		c0,0.4-0.2,0.7-0.6,0.7c-1.3,0.1-2.6,0-3.7-1c-2.7-2.3-1.9-6.2,1.1-7.6c0.4-0.2,1-0.2,1.4-0.3c0.4,0,0.7,0,1.1,0
		c0.4,0,0.6,0.3,0.7,0.6c0,0.4-0.3,0.7-0.6,0.7c-0.5,0-1,0-1.5,0.1c-1.1,0.2-2.1,1.2-2.4,2.2C123.9,134.1,123.9,134.2,123.9,134.2z"
		/>
	<path d="M61.4,134.2c0.5,0,1.1,0,1.6,0c0.8,0,1.5,0,2.3,0c0.5,0,0.7,0.2,0.7,0.6c0,0.4-0.3,0.7-0.7,0.7c-1.2,0-2.4,0-3.6,0
		c-0.1,0-0.2,0-0.4,0c0.1,0.5,0.3,1,0.7,1.3c0.6,0.7,1.4,1.1,2.3,1.1c0.3,0,0.6,0,0.8,0c0.4,0,0.6,0.2,0.6,0.6
		c0,0.4-0.2,0.7-0.5,0.7c-2.5,0.6-5.2-1.5-5.4-4.1c-0.1-2.3,1.4-4.3,3.6-4.7c0.6-0.1,1.2,0,1.8,0c0.3,0,0.5,0.3,0.5,0.7
		c0,0.3-0.2,0.6-0.6,0.6c-0.4,0-0.7,0-1.1,0c-1.2,0-2.5,1.1-2.8,2.3C61.4,134.1,61.4,134.2,61.4,134.2z"/>
	<path d="M50.7,136.8c1-1.9,1.9-3.8,2.8-5.6c0.1-0.1,0.1-0.3,0.2-0.4c0.2-0.3,0.6-0.5,1-0.3c0.4,0.2,0.5,0.6,0.3,1
		c-0.4,0.8-0.8,1.7-1.2,2.5c-0.8,1.6-1.6,3.2-2.4,4.8c-0.2,0.4-0.4,0.5-0.8,0.5c-0.2,0-0.4-0.2-0.5-0.4c-0.9-1.8-1.8-3.6-2.8-5.4
		c-0.3-0.6-0.6-1.2-0.9-1.8c-0.3-0.5-0.2-0.9,0.3-1.1c0.4-0.2,0.8,0,1,0.5c0.9,1.8,1.9,3.7,2.8,5.5
		C50.5,136.6,50.6,136.7,50.7,136.8z"/>
	<path d="M88.2,131.7c-1,0-1.9,0-2.9,0c-0.5,0-0.8-0.3-0.8-0.7c0-0.5,0.3-0.8,0.8-0.8c1.6,0,3.2,0,4.8,0c0.8,0,1.5,0,2.3,0
		c0.5,0,0.8,0.3,0.8,0.7c0,0.4-0.3,0.8-0.8,0.8c-0.8,0-1.6,0-2.4,0c-0.1,0-0.2,0-0.4,0c0,0.1,0,0.3,0,0.4c0,2,0,4.1,0,6.1
		c0,0.1,0,0.2,0,0.2c0,0.5-0.3,0.8-0.7,0.8c-0.4,0-0.7-0.3-0.7-0.8c0-2.1,0-4.2,0-6.3C88.2,132,88.2,131.9,88.2,131.7z"/>
</g>
</svg>
