<?xml version="1.0" encoding="utf-8"?>
<!-- Generator: Adobe Illustrator 23.0.2, SVG Export Plug-In . SVG Version: 6.00 Build 0)  -->
<svg version="1.1" id="Layer_1" xmlns="http://www.w3.org/2000/svg" xmlns:xlink="http://www.w3.org/1999/xlink" x="0px" y="0px"
	 viewBox="0 0 150 150" style="enable-background:new 0 0 150 150;" xml:space="preserve">
<style type="text/css">
	.st0{clip-path:url(#SVGID_2_);}
	.st1{fill:#F8CD2E;}
	.st2{fill:#FABC2B;}
	.st3{clip-path:url(#SVGID_4_);}
	.st4{fill:#F1EDDD;}
	.st5{fill:#E6554D;}
	.st6{fill:#272727;}
	.st7{font-family:'Oswald-HeavyItalic';}
	.st8{font-size:30.2569px;}
	.st9{letter-spacing:-2.1;}
	.st10{font-family:'Oswald-DemiBold';}
	.st11{font-size:7.2848px;}
	.st12{letter-spacing:6;}
	.st13{fill:url(#SVGID_5_);}
	.st14{opacity:0.6;fill:url(#SVGID_6_);}
	.st15{fill:url(#SVGID_7_);}
	.st16{opacity:0.6;fill:url(#SVGID_8_);}
	.st17{fill:url(#SVGID_9_);}
	.st18{opacity:0.6;fill:url(#SVGID_10_);}
	.st19{opacity:0.6;fill:url(#SVGID_11_);}
	.st20{fill:url(#SVGID_12_);}
	.st21{opacity:0.6;fill:url(#SVGID_13_);}
	.st22{fill:url(#SVGID_14_);}
	.st23{opacity:0.6;fill:url(#SVGID_15_);}
	.st24{opacity:0.6;fill:url(#SVGID_16_);}
	.st25{opacity:0.6;fill:url(#SVGID_17_);}
	.st26{opacity:0.6;fill:url(#SVGID_18_);}
	.st27{fill:url(#SVGID_19_);}
	.st28{opacity:0.6;fill:url(#SVGID_20_);}
	.st29{fill:url(#SVGID_21_);}
	.st30{opacity:0.6;fill:url(#SVGID_22_);}
	.st31{fill:url(#SVGID_23_);}
	.st32{fill:url(#SVGID_24_);}
	.st33{fill:url(#SVGID_25_);}
	.st34{fill:url(#SVGID_26_);}
	.st35{fill:url(#SVGID_27_);}
	.st36{fill:url(#SVGID_28_);}
	.st37{fill:url(#SVGID_29_);}
	.st38{fill:url(#SVGID_30_);}
	.st39{fill:url(#SVGID_31_);}
	.st40{fill:url(#SVGID_32_);}
	.st41{fill:url(#SVGID_33_);}
	.st42{fill:url(#SVGID_34_);}
	.st43{fill:url(#SVGID_35_);}
	.st44{fill:url(#SVGID_36_);}
	.st45{fill:url(#SVGID_37_);}
	.st46{fill:url(#SVGID_38_);}
	.st47{fill:url(#SVGID_39_);}
	.st48{fill:url(#SVGID_40_);}
	.st49{fill:url(#SVGID_41_);}
	.st50{fill:url(#SVGID_42_);}
	.st51{fill:url(#SVGID_43_);}
	.st52{fill:url(#SVGID_44_);}
	.st53{opacity:0.6;fill:url(#SVGID_45_);}
	.st54{opacity:0.6;fill:url(#SVGID_46_);}
	.st55{opacity:0.6;fill:url(#SVGID_47_);}
	.st56{opacity:0.6;fill:url(#SVGID_48_);}
	.st57{opacity:0.6;fill:url(#SVGID_49_);}
	.st58{opacity:0.6;fill:url(#SVGID_50_);}
	.st59{opacity:0.6;fill:url(#SVGID_51_);}
	.st60{opacity:0.6;fill:url(#SVGID_52_);}
	.st61{opacity:0.6;fill:url(#SVGID_53_);}
	.st62{opacity:0.6;fill:url(#SVGID_54_);}
	.st63{opacity:0.6;fill:url(#SVGID_55_);}
	.st64{opacity:0.6;fill:url(#SVGID_56_);}
	.st65{opacity:0.6;fill:url(#SVGID_57_);}
	.st66{fill:url(#SVGID_58_);}
	.st67{opacity:0.6;fill:url(#SVGID_59_);}
	.st68{opacity:0.6;fill:url(#SVGID_60_);}
	.st69{opacity:0.6;fill:url(#SVGID_61_);}
	.st70{opacity:0.6;fill:url(#SVGID_62_);}
	.st71{opacity:0.6;fill:url(#SVGID_63_);}
	.st72{fill:url(#SVGID_64_);}
	.st73{fill:url(#SVGID_65_);}
	.st74{opacity:0.6;fill:url(#SVGID_66_);}
	.st75{fill:url(#SVGID_67_);}
	.st76{fill:url(#SVGID_68_);}
	.st77{fill:url(#SVGID_69_);}
	.st78{fill:url(#SVGID_70_);}
	.st79{fill:url(#SVGID_71_);}
	.st80{opacity:0.6;fill:url(#SVGID_72_);}
	.st81{opacity:0.6;fill:url(#SVGID_73_);}
	.st82{opacity:0.6;fill:url(#SVGID_74_);}
	.st83{opacity:0.6;fill:url(#SVGID_75_);}
	.st84{fill:#FFFFFF;}
	.st85{opacity:0.6;fill:url(#SVGID_76_);}
</style>
<g>
	<g>
		<defs>
			<rect id="SVGID_1_" x="30.9" y="19.8" width="88.1" height="66.5"/>
		</defs>
		<clipPath id="SVGID_2_">
			<use xlink:href="#SVGID_1_"  style="overflow:visible;"/>
		</clipPath>
		<g class="st0">
			<g>
				
					<ellipse transform="matrix(0.9886 -0.1504 0.1504 0.9886 -9.22 11.9822)" class="st1" cx="74.6" cy="66.9" rx="40.5" ry="40.5"/>
				<circle class="st2" cx="74.6" cy="66.9" r="27.6"/>
			</g>
			<g>
				<defs>
					
						<ellipse id="SVGID_3_" transform="matrix(0.9886 -0.1504 0.1504 0.9886 -9.22 11.9822)" cx="74.6" cy="66.9" rx="40.5" ry="40.5"/>
				</defs>
				<clipPath id="SVGID_4_">
					<use xlink:href="#SVGID_3_"  style="overflow:visible;"/>
				</clipPath>
				<g class="st3">
					<path class="st4" d="M-14.4,54.1c2-0.9,4-1.6,6.1-2.3c2-0.7,4-1.2,6.1-1.7c4-1,8.1-1.8,12.1-2.4c8.1-1.2,16.2-1.7,24.2-1.8
						c8.1,0,16.2,0.5,24.2,1.7c4,0.6,8.1,1.4,12.1,2.4c2,0.5,4,1.1,6.1,1.7c2,0.7,4,1.4,6.1,2.3c-2,0.9-4,1.6-6.1,2.3
						c-2,0.7-4,1.2-6.1,1.7c-4,1-8.1,1.8-12.1,2.4c-8.1,1.2-16.2,1.7-24.2,1.7c-8.1,0-16.2-0.5-24.2-1.8c-4-0.6-8.1-1.4-12.1-2.4
						c-2-0.5-4-1.1-6.1-1.7C-10.3,55.8-12.4,55-14.4,54.1z"/>
				</g>
				<g class="st3">
					<path class="st4" d="M57.1,42.7c7.4-2.7,14.8-4,22.3-5c7.4-0.9,14.8-1.4,22.3-1.4c7.4,0,14.8,0.4,22.3,1.4
						c7.4,1,14.8,2.4,22.3,5.1c-7.4,2.7-14.8,4.1-22.3,5.1c-7.4,0.9-14.8,1.4-22.3,1.4c-7.4,0-14.8-0.4-22.3-1.4
						C71.9,46.7,64.5,45.4,57.1,42.7z"/>
				</g>
				<g class="st3">
					<path class="st4" d="M41.5,65.2c3.4-1.3,6.8-2.3,10.1-3.2c3.4-0.9,6.8-1.7,10.1-2.5c3.4-0.7,6.8-1.4,10.1-1.9
						c3.4-0.6,6.8-1.1,10.1-1.5c13.5-1.7,27-2.5,40.5-2.5c13.5,0,27,0.7,40.5,2.5c3.4,0.4,6.8,0.9,10.1,1.5
						c3.4,0.6,6.8,1.2,10.1,1.9c3.4,0.8,6.8,1.5,10.1,2.5c3.4,0.9,6.8,2,10.1,3.3c-3.4,1.3-6.8,2.3-10.1,3.3
						c-3.4,0.9-6.8,1.7-10.1,2.5c-3.4,0.7-6.8,1.4-10.1,1.9c-3.4,0.6-6.8,1.1-10.1,1.5c-13.5,1.7-27,2.5-40.5,2.5
						c-13.5,0-27-0.8-40.5-2.5c-3.4-0.4-6.8-0.9-10.1-1.5c-3.4-0.6-6.8-1.2-10.1-1.9c-3.4-0.7-6.8-1.5-10.1-2.5
						C48.3,67.5,44.9,66.5,41.5,65.2z"/>
				</g>
				<g class="st3">
					<path class="st4" d="M-58,85.2c3.4-1.7,6.8-3,10.1-4.2c3.4-1.2,6.8-2.3,10.1-3.2c6.8-1.9,13.5-3.4,20.3-4.5
						c13.5-2.3,27-3.2,40.5-3.3c13.5,0,27,1,40.5,3.2c6.8,1.1,13.5,2.6,20.3,4.5c3.4,0.9,6.8,2,10.1,3.2c3.4,1.2,6.8,2.5,10.1,4.2
						c-3.4,1.7-6.8,3-10.1,4.2c-3.4,1.2-6.8,2.3-10.1,3.2c-6.8,1.9-13.5,3.4-20.3,4.5c-13.5,2.3-27,3.2-40.5,3.2
						c-13.5,0-27-1-40.5-3.3c-6.8-1.1-13.5-2.6-20.3-4.5c-3.4-0.9-6.8-2-10.1-3.2C-51.3,88.2-54.6,86.9-58,85.2z"/>
				</g>
			</g>
		</g>
	</g>
	<g>
		<path class="st5" d="M18.4,89.2c2.4-1.9,4.7-3.4,7.1-4.8c2.4-1.4,4.7-2.6,7.1-3.7c1.2-0.5,2.4-1,3.5-1.5c1.2-0.5,2.4-0.9,3.5-1.3
			c2.4-0.9,4.7-1.6,7.1-2.2c9.4-2.6,18.9-3.7,28.3-3.7c9.4,0,18.9,1.1,28.3,3.7c2.4,0.7,4.7,1.4,7.1,2.2c1.2,0.5,2.4,0.8,3.5,1.3
			c1.2,0.5,2.4,1,3.5,1.5c2.4,1.1,4.7,2.3,7.1,3.7c2.4,1.4,4.7,2.9,7.1,4.8v2c-4.7,0.2-9.4,0.3-14.1,0.5L103.3,92
			c-9.4,0.2-18.9,0.2-28.3,0.2c-9.4-0.1-18.9-0.1-28.3-0.2l-14.1-0.3c-4.7-0.2-9.4-0.3-14.1-0.5V89.2z"/>
	</g>
	<g>
		<text transform="matrix(0.9414 0 0 1 29.7814 119.6632)" class="st6 st7 st8 st9">SANDRA </text>
		<g>
			<text transform="matrix(0.9414 0 0 1 26.5351 119.6632)" class="st1 st7 st8 st9">SANDRA </text>
		</g>
		<text transform="matrix(0.9414 0 0 1 29.7814 119.6632)" class="st6 st7 st8 st9">SANDRA </text>
	</g>
	<text transform="matrix(1 0 0 1 29.6062 128.3512)" class="st10 st11 st12">ADVENTURE</text>
	<g>
		<g>
			<g>
				
					<linearGradient id="SVGID_5_" gradientUnits="userSpaceOnUse" x1="71.9204" y1="46.2941" x2="69.6098" y2="54.0295" gradientTransform="matrix(-1 0 0 1 155.8174 0)">
					<stop  offset="0" style="stop-color:#00B7F8"/>
					<stop  offset="1" style="stop-color:#0253C1"/>
				</linearGradient>
				<path class="st13" d="M89.8,52.2l-1-5c0,0-5.2,1-5.9,1.2c-0.7,0.2-1.1,0.5-1.1,0.5l-0.8,2.7c0,0,2.4,2.1,2.8,2.2
					c0.4,0.1,3.5-0.4,4.6-0.9C89.5,52.3,89.8,52.2,89.8,52.2z"/>
				
					<linearGradient id="SVGID_6_" gradientUnits="userSpaceOnUse" x1="71.7508" y1="47.4786" x2="69.6715" y2="53.4567" gradientTransform="matrix(-1 0 0 1 155.8174 0)">
					<stop  offset="0" style="stop-color:#00B7F8;stop-opacity:0"/>
					<stop  offset="1" style="stop-color:#0253C1"/>
				</linearGradient>
				<path class="st14" d="M89.3,52.5c0,0,0-2.6-0.7-2.6c-0.7,0-7,1.4-7,1.6s1.5,2.3,2.1,2.3C84.4,53.8,89.3,52.5,89.3,52.5z"/>
				
					<linearGradient id="SVGID_7_" gradientUnits="userSpaceOnUse" x1="93.8223" y1="50.2796" x2="91.5233" y2="57.9763" gradientTransform="matrix(-1 0 0 1 155.8174 0)">
					<stop  offset="0" style="stop-color:#00B7F8"/>
					<stop  offset="1" style="stop-color:#0253C1"/>
				</linearGradient>
				<path class="st15" d="M67.3,53.8c0,0-2.3-1.9-3.3-2.1c-1.1-0.2-5,1.2-5,1.2l0,1.1l1.4,4.1c0,0,0.3,0,1.4-0.1s4.7-1.3,4.7-1.3
					L67.3,53.8z"/>
				
					<linearGradient id="SVGID_8_" gradientUnits="userSpaceOnUse" x1="93.7723" y1="51.3018" x2="91.594" y2="57.5643" gradientTransform="matrix(-1 0 0 1 155.8174 0)">
					<stop  offset="0" style="stop-color:#00B7F8;stop-opacity:0"/>
					<stop  offset="1" style="stop-color:#0253C1"/>
				</linearGradient>
				<path class="st16" d="M66.8,54.6c0,0,0-0.4-0.3-0.5s-6.5,0.6-6.5,1.3c0.1,0.7,0.6,2.7,0.8,2.7c0.3,0,5-0.7,5.6-1.4L66.8,54.6z"
					/>
				
					<linearGradient id="SVGID_9_" gradientUnits="userSpaceOnUse" x1="83.5272" y1="50.6057" x2="80.5381" y2="60.6124" gradientTransform="matrix(-1 0 0 1 155.8174 0)">
					<stop  offset="0" style="stop-color:#00B7F8"/>
					<stop  offset="1" style="stop-color:#0253C1"/>
				</linearGradient>
				<path class="st17" d="M76.8,59.4c0,0,2.8-3.1,2.9-3.5c0-0.5-1.3-3.8-1.3-3.8l-10.2,2c0,0-0.1,2.3,0.1,2.7
					c0.2,0.4,3.5,3.1,3.5,3.1L76.8,59.4z"/>
				
					<linearGradient id="SVGID_10_" gradientUnits="userSpaceOnUse" x1="87.8505" y1="49.9818" x2="81.136" y2="55.31" gradientTransform="matrix(-1 0 0 1 155.8174 0)">
					<stop  offset="0" style="stop-color:#00B7F8;stop-opacity:0"/>
					<stop  offset="1" style="stop-color:#0253C1"/>
				</linearGradient>
				<path class="st18" d="M77.1,53.6l-0.2-0.3c0,0-7.1,1-7.1,1.3c-0.1,0.2,0.3,1,0.3,1s0.2-0.6,0.7-0.7
					C71.3,54.7,77.1,53.6,77.1,53.6z"/>
				
					<linearGradient id="SVGID_11_" gradientUnits="userSpaceOnUse" x1="84.1047" y1="50.3038" x2="80.761" y2="59.9169" gradientTransform="matrix(-1 0 0 1 155.8174 0)">
					<stop  offset="0" style="stop-color:#00B7F8;stop-opacity:0"/>
					<stop  offset="1" style="stop-color:#0253C1"/>
				</linearGradient>
				<path class="st19" d="M79.2,56.3c0,0,0-0.5-0.1-1c-0.1-0.5-1-2.3-1-2.3s0.4,2.4,0.2,2.9c-0.2,0.6-2.2,2.2-2.5,2.4
					c-0.3,0.3-3.6,0.3-4,0.3c-0.5,0-3.5-1.9-3.5-1.9s3.5,3.2,3.6,3.2c0.1,0,4.9-0.6,4.9-0.6L79.2,56.3z"/>
				
					<linearGradient id="SVGID_12_" gradientUnits="userSpaceOnUse" x1="83.2381" y1="69.5577" x2="82.9457" y2="63.0923" gradientTransform="matrix(-1 0 0 1 155.8174 0)">
					<stop  offset="0" style="stop-color:#00B7F8"/>
					<stop  offset="1" style="stop-color:#0253C1"/>
				</linearGradient>
				<path class="st20" d="M76.9,64.7v-2.6L71,62.4l-2.1,0.3l-0.2,2.4c0,0,3,0.4,3.8,0.5C73.2,65.6,76.9,64.7,76.9,64.7z"/>
				
					<linearGradient id="SVGID_13_" gradientUnits="userSpaceOnUse" x1="84.8229" y1="57.1146" x2="82.3705" y2="65.3974" gradientTransform="matrix(-1 0 0 1 155.8174 0)">
					<stop  offset="0" style="stop-color:#00B7F8;stop-opacity:0"/>
					<stop  offset="1" style="stop-color:#0253C1"/>
				</linearGradient>
				<path class="st21" d="M75.1,64.9c0,0,0.7-0.3,0.8-0.7c0-0.4-1.8-0.9-3.6-0.6c-1.7,0.3-2.2,0.2-2.3,0.6c-0.1,0.4,0.1,1.1,0.1,1.1
					H69c0,0-0.4-2.1-0.2-2.4c0.2-0.3,1.5-0.7,1.9-0.6c0.5,0,6.2-0.2,6.2-0.2l0.3,2.1l-0.4,0.5L75.1,64.9z"/>
				
					<linearGradient id="SVGID_14_" gradientUnits="userSpaceOnUse" x1="83.1035" y1="60.5704" x2="80.5813" y2="75.7583" gradientTransform="matrix(-1 0 0 1 155.8174 0)">
					<stop  offset="0" style="stop-color:#00B7F8"/>
					<stop  offset="1" style="stop-color:#0253C1"/>
				</linearGradient>
				<path class="st22" d="M64.6,63.8l4.3,11.5l0.1,0.1l0.2-0.2c0.4,0.5,1.6,1.5,4.4,1.2l1.5-0.5c0,0,3-1.6,3.3-1.8
					c0.1-0.1,0.3-0.3,0.6-0.5c0,0,0.8-5,1.1-6c0.2-0.6,1-3.1,1.6-4.9c0,0,0,0,0,0c-1.2,0.5-4.1,1.6-5.3,2.1
					c-1.5,0.6-2.6,0.8-4.8,0.6c-1.7-0.1-4.8-0.4-5.9-0.5L64.6,63.8z"/>
				
					<linearGradient id="SVGID_15_" gradientUnits="userSpaceOnUse" x1="83.2215" y1="64.6074" x2="81.7919" y2="72.3182" gradientTransform="matrix(-1 0 0 1 155.8174 0)">
					<stop  offset="0" style="stop-color:#00B7F8;stop-opacity:0"/>
					<stop  offset="1" style="stop-color:#0253C1"/>
				</linearGradient>
				<path class="st23" d="M78.2,69c0,0-2.6,2.1-4.3,2.2c-1.8,0.1-4.9-1-4.9-1l0.7,0.9c0,0,2.3,1.1,3.6,1.2c1.3,0.1,4.4-1.9,4.4-1.9
					L78.2,69z"/>
				
					<linearGradient id="SVGID_16_" gradientUnits="userSpaceOnUse" x1="77.6869" y1="56.8959" x2="75.7808" y2="67.9424" gradientTransform="matrix(-1 0 0 1 155.8174 0)">
					<stop  offset="0" style="stop-color:#00B7F8;stop-opacity:0"/>
					<stop  offset="1" style="stop-color:#0253C1"/>
				</linearGradient>
				<path class="st24" d="M78.6,71.3c0,0,0.5-3.6,0.9-5.2c0.3-1.6,0.9-2.8,0.9-2.8l0.8-0.2L79.7,69l-0.2,2.1L78.6,71.3z"/>
				
					<linearGradient id="SVGID_17_" gradientUnits="userSpaceOnUse" x1="90.2156" y1="59.0578" x2="88.3096" y2="70.1041" gradientTransform="matrix(-1 0 0 1 155.8174 0)">
					<stop  offset="0" style="stop-color:#00B7F8;stop-opacity:0"/>
					<stop  offset="1" style="stop-color:#0253C1"/>
				</linearGradient>
				<path class="st25" d="M69.3,72.9l-3-7.9c0,0-1.1-0.3-1-0.1c0.1,0.1,3.2,8.1,3.2,8.1H69.3z"/>
				
					<linearGradient id="SVGID_18_" gradientUnits="userSpaceOnUse" x1="83.2952" y1="67.3603" x2="80.9993" y2="75.1145" gradientTransform="matrix(-1 0 0 1 155.8174 0)">
					<stop  offset="0" style="stop-color:#00B7F8;stop-opacity:0"/>
					<stop  offset="1" style="stop-color:#0253C1"/>
				</linearGradient>
				<path class="st26" d="M77.1,74.6c0,0,0.6-0.4,0.6-0.7c-0.1-0.3-2.3,1.2-3.9,1.4c-1.6,0.2-3.1-0.6-3.3-0.5
					C70.3,75,71,76.1,71,76.1s-1.2-0.1-1.3-0.2c0-0.1-0.7-2.8-0.7-2.8s3.3,1.9,5.1,1.1c1.8-0.7,4.9-2.6,4.9-2.6l-0.1,2.6L77.1,74.6z
					"/>
				
					<linearGradient id="SVGID_19_" gradientUnits="userSpaceOnUse" x1="71.3438" y1="58.9932" x2="66.1349" y2="71.9331" gradientTransform="matrix(-1 0 0 1 155.8174 0)">
					<stop  offset="0" style="stop-color:#00B7F8"/>
					<stop  offset="1" style="stop-color:#0253C1"/>
				</linearGradient>
				<path class="st27" d="M79,73.6c-0.1,0.6-0.1,1-0.1,1s1.4-0.5,2.4-1.1c1-0.6,13.3-9.3,13.3-9.3l2.7-2.4c0,0,0-1.4-0.7-1.8
					c-0.7-0.4-1.1-0.7-1.1-0.7s-9.6,1.3-10.4,1.6c-0.8,0.3-3.3,1.4-3.3,1.4s0,0,0,0.1c0,0,0,0,0,0c0,0,0,0.1,0,0.1c0,0,0,0.1,0,0.1
					c-0.6,1.8-1.4,4.3-1.6,4.9C79.8,68.5,79,73.6,79,73.6z"/>
				
					<linearGradient id="SVGID_20_" gradientUnits="userSpaceOnUse" x1="67.5644" y1="55.9248" x2="66.0915" y2="69.7869" gradientTransform="matrix(-1 0 0 1 155.8174 0)">
					<stop  offset="0" style="stop-color:#00B7F8;stop-opacity:0"/>
					<stop  offset="1" style="stop-color:#0253C1"/>
				</linearGradient>
				<path class="st28" d="M96.5,62.1c0-0.1,0-0.7-0.4-0.5c-0.3,0.2-12.1,7.1-12.5,7.5c-0.3,0.3-1,2.1-0.8,2.4
					c0.2,0.3,0.5,0.3,0.5,0.3l-1.8,1.1l0.3-2l0.9-2.3l14-8.2l0.6,1L96.5,62.1z"/>
				
					<linearGradient id="SVGID_21_" gradientUnits="userSpaceOnUse" x1="99.1358" y1="62.6277" x2="94.1463" y2="75.2934" gradientTransform="matrix(-1 0 0 1 155.8174 0)">
					<stop  offset="0" style="stop-color:#00B7F8"/>
					<stop  offset="1" style="stop-color:#0253C1"/>
				</linearGradient>
				<path class="st29" d="M50.9,66.8c0.7,1.2,3.8,2.4,3.8,2.4l14.2,6.2l-4.3-11.5l0,0l-13.8,0.9C50.8,64.7,50.2,65.6,50.9,66.8z"/>
				
					<linearGradient id="SVGID_22_" gradientUnits="userSpaceOnUse" x1="99.931" y1="59.5926" x2="97.0286" y2="72.1552" gradientTransform="matrix(-1 0 0 1 155.8174 0)">
					<stop  offset="0" style="stop-color:#00B7F8;stop-opacity:0"/>
					<stop  offset="1" style="stop-color:#0253C1"/>
				</linearGradient>
				<path class="st30" d="M63.8,73.2c0.1-0.1,0.3-0.8,0.1-1.1c-0.2-0.3-0.3-0.5-0.6-0.7c-0.3-0.2-11.5-4.5-11.9-4.4
					c-0.3,0.1-1-1-1-1l0.6-0.1l13.4,4.9l1.9,3.3L63.8,73.2z"/>
			</g>
			<g>
				
					<linearGradient id="SVGID_23_" gradientUnits="userSpaceOnUse" x1="65.807" y1="74.5492" x2="67.2583" y2="70.2966" gradientTransform="matrix(-1 0 0 1 155.8174 0)">
					<stop  offset="0" style="stop-color:#E9E9E9"/>
					<stop  offset="1" style="stop-color:#929292"/>
				</linearGradient>
				<polygon class="st31" points="90.4,71.8 88.2,68.4 86.9,69.3 88.9,72.3 				"/>
				
					<linearGradient id="SVGID_24_" gradientUnits="userSpaceOnUse" x1="64.9195" y1="73.3439" x2="65.5946" y2="69.4625" gradientTransform="matrix(-1 0 0 1 155.8174 0)">
					<stop  offset="0" style="stop-color:#E9E9E9"/>
					<stop  offset="1" style="stop-color:#929292"/>
				</linearGradient>
				<path class="st32" d="M91.5,70.6c0-0.1-1-3.5-1-3.5L88.9,68l1.2,2.9L91.5,70.6z"/>
				
					<linearGradient id="SVGID_25_" gradientUnits="userSpaceOnUse" x1="68.2103" y1="73.3178" x2="69.2228" y2="76.3554" gradientTransform="matrix(-1 0 0 1 155.8174 0)">
					<stop  offset="0" style="stop-color:#E9E9E9"/>
					<stop  offset="1" style="stop-color:#929292"/>
				</linearGradient>
				<polygon class="st33" points="88.2,78.8 88.5,76.6 85.4,72.9 84.8,74.4 				"/>
				
					<linearGradient id="SVGID_26_" gradientUnits="userSpaceOnUse" x1="68.7875" y1="78.1725" x2="69.665" y2="80.5351" gradientTransform="matrix(-1 0 0 1 155.8174 0)">
					<stop  offset="0" style="stop-color:#E9E9E9"/>
					<stop  offset="1" style="stop-color:#929292"/>
				</linearGradient>
				<polygon class="st34" points="88.5,83.7 88.3,80.7 84,76.8 83.3,78.8 				"/>
				
					<linearGradient id="SVGID_27_" gradientUnits="userSpaceOnUse" x1="71.2594" y1="89.3447" x2="73.2315" y2="78.005" gradientTransform="matrix(-1 0 0 1 155.8174 0)">
					<stop  offset="0" style="stop-color:#E9E9E9"/>
					<stop  offset="1" style="stop-color:#929292"/>
				</linearGradient>
				<polygon class="st35" points="82.2,82.2 85.8,70.6 79.3,74.8 78.9,82.3 				"/>
				
					<linearGradient id="SVGID_28_" gradientUnits="userSpaceOnUse" x1="79.8808" y1="88.2431" x2="81.3321" y2="77.0377" gradientTransform="matrix(-1 0 0 1 155.8174 0)">
					<stop  offset="0" style="stop-color:#E9E9E9"/>
					<stop  offset="1" style="stop-color:#929292"/>
				</linearGradient>
				<path class="st36" d="M77.7,82l-0.2-7.5c0,0-1.7,1.1-3,1.5c-1.2,0.3-2.3,0.5-3.5,0.1l1.4,6.7L77.7,82z"/>
				
					<linearGradient id="SVGID_29_" gradientUnits="userSpaceOnUse" x1="80.3003" y1="86.3137" x2="80.6711" y2="83.4507" gradientTransform="matrix(-1 0 0 1 155.8174 0)">
					<stop  offset="0" style="stop-color:#E9E9E9"/>
					<stop  offset="1" style="stop-color:#929292"/>
				</linearGradient>
				<path class="st37" d="M77.4,84.2c0,0,0.6-0.8-0.1-1.1c-0.7-0.3-3.3-0.2-3.8,0.2c-0.5,0.5-1,0.9-0.6,1.1c0.4,0.2,1.2,0.5,2,0.4
					C75.8,84.8,77.4,84.2,77.4,84.2z"/>
				
					<linearGradient id="SVGID_30_" gradientUnits="userSpaceOnUse" x1="86.2553" y1="90.6791" x2="89.0904" y2="78.4275" gradientTransform="matrix(-1 0 0 1 155.8174 0)">
					<stop  offset="0" style="stop-color:#E9E9E9"/>
					<stop  offset="1" style="stop-color:#929292"/>
				</linearGradient>
				<polygon class="st38" points="71.3,81.9 69,75.4 61.6,72.9 68.5,82.8 				"/>
				
					<linearGradient id="SVGID_31_" gradientUnits="userSpaceOnUse" x1="96.3876" y1="78.2792" x2="91.7637" y2="84.1519" gradientTransform="matrix(-1 0 0 1 155.8174 0)">
					<stop  offset="0" style="stop-color:#E9E9E9"/>
					<stop  offset="1" style="stop-color:#929292"/>
				</linearGradient>
				<polygon class="st39" points="67.1,82 65.9,80.5 61.4,86 61.7,87.3 				"/>
				
					<linearGradient id="SVGID_32_" gradientUnits="userSpaceOnUse" x1="100.7331" y1="71.4942" x2="92.8964" y2="81.4473" gradientTransform="matrix(-1 0 0 1 155.8174 0)">
					<stop  offset="0" style="stop-color:#E9E9E9"/>
					<stop  offset="1" style="stop-color:#929292"/>
				</linearGradient>
				<polygon class="st40" points="61.2,84.9 65.1,78.6 63.8,77.1 60.9,83.9 				"/>
				
					<linearGradient id="SVGID_33_" gradientUnits="userSpaceOnUse" x1="99.698" y1="58.0007" x2="96.1891" y2="66.4479" gradientTransform="matrix(-1 0 0 1 155.8174 0)">
					<stop  offset="0" style="stop-color:#E9E9E9"/>
					<stop  offset="1" style="stop-color:#929292"/>
				</linearGradient>
				<polygon class="st41" points="63.8,68.4 62.8,65.6 55.9,65.9 57.7,66.5 				"/>
				
					<linearGradient id="SVGID_34_" gradientUnits="userSpaceOnUse" x1="72.8702" y1="56.208" x2="68.7765" y2="63.7455" gradientTransform="matrix(-1 0 0 1 155.8174 0)">
					<stop  offset="0" style="stop-color:#E9E9E9"/>
					<stop  offset="1" style="stop-color:#929292"/>
				</linearGradient>
				<polygon class="st42" points="91.2,61.5 83.1,66.5 84.3,63 				"/>
				
					<linearGradient id="SVGID_35_" gradientUnits="userSpaceOnUse" x1="84.6291" y1="56.6278" x2="80.6027" y2="66.3209" gradientTransform="matrix(-1 0 0 1 155.8174 0)">
					<stop  offset="0" style="stop-color:#E9E9E9"/>
					<stop  offset="1" style="stop-color:#929292"/>
				</linearGradient>
				<path class="st43" d="M90,60.2c0,0-1.5-1.5-2.1-1.5s-17.3,1.5-19.5,1.8c-2.3,0.3-9.4,1.1-9.9,1.5c-0.6,0.3-0.8,0.6-1,1
					c-0.2,0.4-0.4,1.3-0.4,1.3l3.6-0.2c0,0,1.1-0.6,2.5-0.8c1.4-0.2,9.8-1.2,9.8-1.2l10.2-1l1.9,0.1L90,60.2z"/>
				
					<linearGradient id="SVGID_36_" gradientUnits="userSpaceOnUse" x1="77.3249" y1="68.672" x2="77.3249" y2="63.5752" gradientTransform="matrix(-1 0 0 1 155.8174 0)">
					<stop  offset="0" style="stop-color:#E9E9E9"/>
					<stop  offset="1" style="stop-color:#929292"/>
				</linearGradient>
				<polygon class="st44" points="79.9,63.4 79.8,61.5 77.1,61.8 77.3,64.4 				"/>
				
					<linearGradient id="SVGID_37_" gradientUnits="userSpaceOnUse" x1="87.4592" y1="69.8169" x2="88.239" y2="62.8858" gradientTransform="matrix(-1 0 0 1 155.8174 0)">
					<stop  offset="0" style="stop-color:#E9E9E9"/>
					<stop  offset="1" style="stop-color:#929292"/>
				</linearGradient>
				<polygon class="st45" points="68.7,65.1 68.6,62.4 66.6,62.4 66.7,64.8 				"/>
				
					<linearGradient id="SVGID_38_" gradientUnits="userSpaceOnUse" x1="90.8642" y1="32.0808" x2="76.9587" y2="53.6536" gradientTransform="matrix(-1 0 0 1 155.8174 0)">
					<stop  offset="0" style="stop-color:#E9E9E9"/>
					<stop  offset="1" style="stop-color:#929292"/>
				</linearGradient>
				<path class="st46" d="M61.1,48.7c0,0-0.1-0.3,0-0.6c0.1-0.3,0.2-0.6,0.3-0.6c0.2,0,0.5,0.2,0.5,0.2s0.1-0.6,0.3-0.6
					c0.2,0,0.6-0.3,0.6-0.3s0.1-0.9,0.4-1.4c0.3-0.5,1.4-1.3,1.4-1.3s0.6-1.2,1.1-1.5c0.5-0.3,1.9-1.1,1.9-1.1l0.4-0.1l1.4,2.3
					l2.7,0.8c0,0,1.2-0.7,1.7-1.3c0.5-0.6,2.5-4.6,2.5-4.6l3.7,0.1l0,0c0.2,0,0.7,0.1,1.3,0.3c1,0.3,6.5,2.9,6.6,2.9
					c0.1,0,1.7,1.1,1.9,1.7c0.3,0.6-0.7,4-0.7,4l-0.4-0.2l0-0.1c0,0,0,0-0.1,0l-0.1,0l-2.2,0.4c0,0-0.1-0.5-0.1-0.6
					c0-0.1,0.1-1.6,0.1-1.6s-1.7-0.1-2.4-0.3c-0.3-0.1-0.8-0.2-1.2-0.3l0,0c0,0,0.7,1.8,0.8,2c0.1,0.2,0.1,1.1,0.1,1.4
					c-0.4,0.1-0.7,0.2-0.8,0.2c-0.7,0.2-1.1,0.5-1.1,0.5l-0.8,2.7c0,0,2.4,2.1,2.8,2.2c0.1,0,0.8,0,1.6-0.2l0,0l-0.1,0.9
					c0,0,0.7,0.8,0.8,1c0.1,0.2,0.2,1,0.2,1s-1.4,2.2-2.1,2.3c-0.7,0.1-6.9,0.5-6.9,0.5l0.3-0.7l2.1-1.9c0,0,0-1.5-0.1-1.9
					c-0.1-0.4-1.1-2.7-1.1-2.7l-7.6,1.2l-1.9-2.8l-0.8-2c0,0-0.1-0.4-0.2-1c-0.4,0.4-0.9,0.9-1.2,1.1c-0.4,0.4-1.6,0.8-1.7,0.9
					c-0.2,0.1-0.2,0.4-0.4,0.6c-0.2,0.3-0.6,0.1-0.6,0.6c-0.1,0.5,0,0.9,0,0.9l-3.3,0.7c0,0-0.1-1.2-0.1-1.8
					C60.5,50.2,61.1,48.7,61.1,48.7z"/>
				
					<linearGradient id="SVGID_39_" gradientUnits="userSpaceOnUse" x1="76.4397" y1="61.0685" x2="76.1084" y2="58.5839" gradientTransform="matrix(-1 0 0 1 155.8174 0)">
					<stop  offset="0" style="stop-color:#E9E9E9"/>
					<stop  offset="1" style="stop-color:#929292"/>
				</linearGradient>
				<polygon class="st47" points="81,59.1 79.1,57.2 78.4,58 79.5,59.1 				"/>
				
					<linearGradient id="SVGID_40_" gradientUnits="userSpaceOnUse" x1="88.6329" y1="61.6623" x2="86.7281" y2="59.7851" gradientTransform="matrix(-1 0 0 1 155.8174 0)">
					<stop  offset="0" style="stop-color:#E9E9E9"/>
					<stop  offset="1" style="stop-color:#929292"/>
				</linearGradient>
				<polygon class="st48" points="70,60.2 70.5,58.8 69.4,58.1 68.7,60.2 				"/>
				
					<linearGradient id="SVGID_41_" gradientUnits="userSpaceOnUse" x1="88.4629" y1="56.8739" x2="88.2138" y2="55.0056" gradientTransform="matrix(-1 0 0 1 155.8174 0)">
					<stop  offset="0" style="stop-color:#E9E9E9"/>
					<stop  offset="1" style="stop-color:#929292"/>
				</linearGradient>
				<polygon class="st49" points="68.2,55.4 68.2,54.3 67.3,54 66.9,55.3 				"/>
				
					<linearGradient id="SVGID_42_" gradientUnits="userSpaceOnUse" x1="84.5753" y1="50.0639" x2="82.7596" y2="53.6526" gradientTransform="matrix(-1 0 0 1 155.8174 0)">
					<stop  offset="0" style="stop-color:#E9E9E9"/>
					<stop  offset="1" style="stop-color:#929292"/>
				</linearGradient>
				<path class="st50" d="M77.4,54.9L77,53.8l-5.7,0.9L70.1,55l0.3,1c0,0,0.3-0.6,0.6-0.7c0.4-0.1,5.1-0.8,5.4-0.7
					C76.7,54.8,77.4,54.9,77.4,54.9z"/>
				
					<linearGradient id="SVGID_43_" gradientUnits="userSpaceOnUse" x1="77.7923" y1="49.1954" x2="75.0308" y2="53.1266" gradientTransform="matrix(-1 -1.300000e-03 -1.300000e-03 1 155.5427 -0.1721)">
					<stop  offset="0" style="stop-color:#E9E9E9"/>
					<stop  offset="1" style="stop-color:#929292"/>
				</linearGradient>
				<polygon class="st51" points="81.2,51.8 79.1,53.5 78.4,52.1 80.9,50.9 80.9,51.6 				"/>
				
					<linearGradient id="SVGID_44_" gradientUnits="userSpaceOnUse" x1="76.9486" y1="51.2695" x2="74.5769" y2="54.7458" gradientTransform="matrix(-1 0 0 1 155.8174 0)">
					<stop  offset="0" style="stop-color:#E9E9E9"/>
					<stop  offset="1" style="stop-color:#929292"/>
				</linearGradient>
				<path class="st52" d="M80,56.6c0,0,0.3-0.2,0.9-1c0.6-0.7,1.7-2.7,1.7-2.7l-0.7-0.5c0,0-1,0.6-1.3,1.2c-0.3,0.6-0.8,2.2-0.8,2.2
					L80,56.6z"/>
			</g>
			<g>
				
					<linearGradient id="SVGID_45_" gradientUnits="userSpaceOnUse" x1="67.8219" y1="67.0814" x2="66.385" y2="69.3106" gradientTransform="matrix(-1 0 0 1 155.8174 0)">
					<stop  offset="0" style="stop-color:#E9E9E9;stop-opacity:0"/>
					<stop  offset="1" style="stop-color:#929292"/>
				</linearGradient>
				<path class="st53" d="M88.1,71.1c0,0,0.7-0.9,1.4-1.6c0.7-0.6,1.7-1.2,1.7-1.2l-0.8-1.6c0,0-3.4,2.4-3.5,2.6
					S88.1,71.1,88.1,71.1z"/>
				
					<linearGradient id="SVGID_46_" gradientUnits="userSpaceOnUse" x1="69.8524" y1="72.976" x2="69.8524" y2="79.8313" gradientTransform="matrix(-1 0 0 1 155.8174 0)">
					<stop  offset="0" style="stop-color:#E9E9E9;stop-opacity:0"/>
					<stop  offset="1" style="stop-color:#929292"/>
				</linearGradient>
				<path class="st54" d="M88.5,83.4l-0.1-2.1l-0.5-0.6c0,0,0.2,0.6,0,0.6c-0.2,0-3.6-3.1-3.6-3.3c0-0.2,0.1-0.6,0.1-0.6l-0.4-0.5
					l-0.5,2.2L88.5,83.4z"/>
				
					<linearGradient id="SVGID_47_" gradientUnits="userSpaceOnUse" x1="74.5145" y1="84.0038" x2="74.482" y2="73.7046" gradientTransform="matrix(-1 0 0 1 155.8174 0)">
					<stop  offset="0" style="stop-color:#E9E9E9;stop-opacity:0"/>
					<stop  offset="1" style="stop-color:#929292"/>
				</linearGradient>
				<path class="st55" d="M83.2,78.6c0,0-1.7,0.1-2.5,0.4c-0.8,0.4-1.6,1.2-1.6,1.2l0.2-2.3l4.4-0.2L83.2,78.6z"/>
				
					<linearGradient id="SVGID_48_" gradientUnits="userSpaceOnUse" x1="73.4893" y1="84.007" x2="73.4568" y2="73.7078" gradientTransform="matrix(-1 0 0 1 155.8174 0)">
					<stop  offset="0" style="stop-color:#E9E9E9;stop-opacity:0"/>
					<stop  offset="1" style="stop-color:#929292"/>
				</linearGradient>
				<path class="st56" d="M84,75.9c0-0.1,0-1.1-0.4-1.1c-0.4-0.1-3.2,1.4-3.5,1.7s-0.6,1.3-0.6,1.3l-0.4,0.1l0.2-3.1l6.4-3.9
					L84,75.9z"/>
				
					<linearGradient id="SVGID_49_" gradientUnits="userSpaceOnUse" x1="86.0708" y1="85.1351" x2="88.7999" y2="75.5506" gradientTransform="matrix(-1 0 0 1 155.8174 0)">
					<stop  offset="0" style="stop-color:#E9E9E9;stop-opacity:0"/>
					<stop  offset="1" style="stop-color:#929292"/>
				</linearGradient>
				<path class="st57" d="M70.7,80.4c-0.1-0.1-0.6-1-1.2-1c-0.6,0-2.6,0.7-2.6,0.7s-1.3-1.5-1.2-1.5c0.1,0,4.3-0.7,4.3-0.7
					L70.7,80.4z"/>
				
					<linearGradient id="SVGID_50_" gradientUnits="userSpaceOnUse" x1="79.5922" y1="86.202" x2="80.3249" y2="83.6289" gradientTransform="matrix(-1 0 0 1 155.8174 0)">
					<stop  offset="0" style="stop-color:#E9E9E9;stop-opacity:0"/>
					<stop  offset="1" style="stop-color:#929292"/>
				</linearGradient>
				<path class="st58" d="M77,84.1c0,0-0.2-0.4-1.1-0.3c-0.9,0-2.4,0.7-2.4,0.7l-0.7-0.7l2.5-1.2c0,0,1.8-0.2,2.2,0.2
					c0.4,0.4,0.6,0.5,0.5,0.6C77.9,83.5,77,84.1,77,84.1z"/>
				
					<linearGradient id="SVGID_51_" gradientUnits="userSpaceOnUse" x1="87.1607" y1="85.4453" x2="89.8898" y2="75.861" gradientTransform="matrix(-1 0 0 1 155.8174 0)">
					<stop  offset="0" style="stop-color:#E9E9E9;stop-opacity:0"/>
					<stop  offset="1" style="stop-color:#929292"/>
				</linearGradient>
				<path class="st59" d="M69.2,75.6c0,0-7.7-2.7-7.5-2.7c0.2,0,2.7,4,2.7,4s0.2-0.6,1.1-0.6c0.9,0,3.8,1.2,3.8,1.2l0.4,0.5l0.3,0
					L69.2,75.6z"/>
				
					<linearGradient id="SVGID_52_" gradientUnits="userSpaceOnUse" x1="89.4492" y1="91.2566" x2="91.4914" y2="84.0847" gradientTransform="matrix(-1 0 0 1 155.8174 0)">
					<stop  offset="0" style="stop-color:#E9E9E9;stop-opacity:0"/>
					<stop  offset="1" style="stop-color:#929292"/>
				</linearGradient>
				<path class="st60" d="M65.7,81.1c0.1,0.1,0.2,0.5,0.2,0.5s-4,4.7-4.1,4.7S61.4,86,61.4,86l0.3,1.3l5.4-5.7L66,80.4L65.7,81.1z"
					/>
				
					<linearGradient id="SVGID_53_" gradientUnits="userSpaceOnUse" x1="90.2431" y1="90.473" x2="92.8457" y2="81.333" gradientTransform="matrix(-1 0 0 1 155.8174 0)">
					<stop  offset="0" style="stop-color:#E9E9E9;stop-opacity:0"/>
					<stop  offset="1" style="stop-color:#929292"/>
				</linearGradient>
				<path class="st61" d="M63.6,77.7c0.1,0.3-0.3,2-0.6,2.7c-0.3,0.7-1.9,3.5-1.9,3.5L61,84.4l0.2,0.5l3.9-6.4l-1.3-1.4L63.6,77.7z"
					/>
				
					<linearGradient id="SVGID_54_" gradientUnits="userSpaceOnUse" x1="82.377" y1="71.9213" x2="82.377" y2="62.5678" gradientTransform="matrix(-1 0 0 1 155.8174 0)">
					<stop  offset="0" style="stop-color:#E9E9E9;stop-opacity:0"/>
					<stop  offset="1" style="stop-color:#929292"/>
				</linearGradient>
				<path class="st62" d="M87.8,58.9c0,0.1,0.8,0.4,0.2,0.6c-0.6,0.2-8.6,0.7-9.3,0.8c-0.7,0.1-8.1,0.6-10.9,1.1
					C64.9,62,59.7,63.1,59,63c-0.7-0.1-0.9-0.9-0.9-0.9s-0.6,0.5-0.6,0.6s-0.3,1.5-0.3,1.5h3.3c0,0,3.1-0.6,4.7-1.1
					c1.7-0.5,6.8-0.9,6.8-0.9l10.3-0.7l3.9-0.6l3.5-0.7l-1.9-1.4L87.8,58.9z"/>
				
					<linearGradient id="SVGID_55_" gradientUnits="userSpaceOnUse" x1="77.2924" y1="67.6641" x2="77.2924" y2="63.258" gradientTransform="matrix(-1 0 0 1 155.8174 0)">
					<stop  offset="0" style="stop-color:#E9E9E9;stop-opacity:0"/>
					<stop  offset="1" style="stop-color:#929292"/>
				</linearGradient>
				<path class="st63" d="M78.1,64c0-0.1,0.4-1.6,0.1-1.8c-0.3-0.1-1,0.3-1,0.3l-0.1-0.7l2.8-0.4l0,1.9L78.1,64z"/>
				
					<linearGradient id="SVGID_56_" gradientUnits="userSpaceOnUse" x1="88.1239" y1="68.0522" x2="88.1239" y2="64.1689" gradientTransform="matrix(-1 0 0 1 155.8174 0)">
					<stop  offset="0" style="stop-color:#E9E9E9;stop-opacity:0"/>
					<stop  offset="1" style="stop-color:#929292"/>
				</linearGradient>
				<path class="st64" d="M68.4,63.3c0,0-0.6,0-0.8,0.2c-0.2,0.2,0,1.3,0,1.3l-0.8,0c0,0,0-2.1,0-2.1c0.1,0,1.7-0.1,1.7-0.1
					L68.4,63.3z"/>
				
					<linearGradient id="SVGID_57_" gradientUnits="userSpaceOnUse" x1="88.1499" y1="35.2433" x2="78.858" y2="49.7011" gradientTransform="matrix(-1 0 0 1 155.8174 0)">
					<stop  offset="0" style="stop-color:#E9E9E9;stop-opacity:0"/>
					<stop  offset="1" style="stop-color:#929292"/>
				</linearGradient>
				<path class="st65" d="M67.4,45.3c0,0,0-0.3,0.1-0.8c0-0.6,0-2.2,0.1-2.4c0,0,0.1,0,0.2,0l0.7-0.3c0,0,0.2,0.6,0.4,1.1
					c0.3,0.2,0.5,0.4,0.5,0.4s2,0.7,2.3,0.7c0.3,0,1.3-0.5,1.9-1.1c0.6-0.6,2.3-1.6,2.3-1.6l1.2,0.9l2.6,1l2.7,1.2
					c0,0,0.6,0.9,0.8,1.4c0.2,0.5,0.4,2,0.4,2l-1.8,0.6l-0.7,1.9l-2.9,1.6l-0.8,0.2c0,0,0.7-0.6,1-0.8c0.4-0.3,0.5-0.6,0.5-1
					c0-0.4-0.5-0.1-0.9-0.2c-0.5,0-3,0.5-3,0.5s1.5-0.4,2.1-0.6s1.8-0.9,2-1.1c0.2-0.2,1.7-2.1,1.7-2.1s0.3-1.1,0.1-1.5
					c-0.1-0.4-2.1,0.8-2.5,0.8c-0.4,0-1.8,0.3-1.8,0.3s1-0.9,1.1-1.2c0.1-0.3-0.5-0.1-0.5-0.1s0.5-0.7,0.5-1.2c0-0.5-0.7-0.6-1-0.6
					c-0.3,0-1.8,1.9-2.4,2.4c-0.6,0.5-1,0.5-1,0.4c0.1-0.1,0.7-0.6,1-1c0.3-0.4,0.7-0.9,0.8-1.4c0.2-0.5,0.1-0.5-0.3-0.5
					c-0.4,0-1.3,1.5-2,1.8c-0.7,0.3-1.3,0.4-1.9,0.1c-0.5-0.2-1-0.2-1,0c0.4,0.4,1.5,0.7,2,0.8c0.5,0.1,1.2,0.1,1.2,0.1
					s-0.8,0.2-1.2,0.2c-0.4,0-2.2-0.5-2.4-0.5c-0.1,0-0.7-0.1-0.6,0.2c0.1,0.3,0.3,0.4,1.1,0.7c0.8,0.3,3.6,0.5,3.6,0.5
					s-1.5,0.4-2.4,0.5c-0.9,0-1.9-0.1-2,0.2c-0.1,0.3-0.1,1,0.5,1.7c0.6,0.7,1.4,1.1,2,1.2c0.7,0.1,2.5,0.2,2.5,0.2
					s-1.5,0.6-1.8,0.9s-0.4,0.7,0.1,0.7c0.5,0,2.3-1.5,2.3-1.5L73.3,53l-2.5,0.6L70,51.7c0,0-0.9-0.5-1.4-1.6s-0.7-2.5-0.8-2.7
					C67.8,47.2,67.4,45.4,67.4,45.3z"/>
				
					<linearGradient id="SVGID_58_" gradientUnits="userSpaceOnUse" x1="96.9027" y1="42.9111" x2="90.5998" y2="47.752" gradientTransform="matrix(-1 0 0 1 155.8174 0)">
					<stop  offset="0" style="stop-color:#E9E9E9;stop-opacity:0"/>
					<stop  offset="1" style="stop-color:#929292"/>
				</linearGradient>
				<path class="st66" d="M65,43.6c-0.1,0.2,0.6-0.7,1-0.3c0.4,0.5,0.4,0.8,0.5,1.3s0.1,0.6-0.2,0.8c-0.3,0.2-0.7-0.1-0.7-0.1
					s0,1.1-0.2,1.6c-0.2,0.5-0.5,0.6-0.7,0.7c-0.3,0.1-1.6-0.1-1.6-0.1s0.4,0.7,0.4,1.2c0,0.5-0.1,0.5-0.5,0.6
					c-0.4,0.1-1.4-0.9-1.4-0.9s0.2,0.5,0.6,0.9c0.4,0.4,1.6,0.9,1.6,0.9l-1.5-0.4c0,0,0.5,0.2,0.4,0.6c-0.1,0.4-0.2,0.5-0.6,0.7
					c-0.4,0.3-1.4,1.1-1.4,1.1l3-0.6l0.5-1l1.5-1.6l1.9-1.7c0,0-0.3-3.3-0.3-3.5c0-0.2,0.2-2,0.2-2l-0.8,0.1
					C66.8,41.9,65.4,42.5,65,43.6z"/>
				<g>
					
						<linearGradient id="SVGID_59_" gradientUnits="userSpaceOnUse" x1="72.1357" y1="57.2349" x2="72.1357" y2="56.851" gradientTransform="matrix(-1 0 0 1 155.8174 0)">
						<stop  offset="0" style="stop-color:#E9E9E9;stop-opacity:0"/>
						<stop  offset="1" style="stop-color:#929292"/>
					</linearGradient>
					<path class="st67" d="M83.8,56.7c-0.1,0.1-0.1,0.2-0.2,0.2C83.6,56.9,83.7,56.8,83.8,56.7z"/>
					
						<linearGradient id="SVGID_60_" gradientUnits="userSpaceOnUse" x1="72.9023" y1="65.5612" x2="72.9023" y2="57.1455" gradientTransform="matrix(-1 0 0 1 155.8174 0)">
						<stop  offset="0" style="stop-color:#E9E9E9;stop-opacity:0"/>
						<stop  offset="1" style="stop-color:#929292"/>
					</linearGradient>
					<path class="st68" d="M79.7,57.8c0,0,0.6,0.7,0.8,0.7c0.2,0.1,2.5-0.3,3.1-0.6c0.6-0.4,2.4-1.7,2.5-1.8
						c0.1-0.1,0.1-0.4-0.1-0.6c-0.2-0.2-0.8-1.1-0.8-1.1l0.1-0.7l-2.1-0.1L79.8,57L79.7,57.8z M80.6,57.9c0.3-0.2,0.7-0.5,1.2-0.7
						c0.7-0.4,1.7-1.3,1.9-1.2c0.2,0.1-0.1,1-0.1,1c0.2-0.4,0.5-0.7,0.7-0.9c-0.2,0.2-0.3,0.5-0.5,0.7c0.3-0.4,1-1,1.2-0.9
						c0.2,0.2,0.4,0.4,0,0.7s-3.2,1.1-3.7,1.3C81.1,57.9,80.9,57.9,80.6,57.9z"/>
				</g>
				
					<linearGradient id="SVGID_61_" gradientUnits="userSpaceOnUse" x1="72.0823" y1="71.0146" x2="68.4572" y2="76.6386" gradientTransform="matrix(-1 0 0 1 155.8174 0)">
					<stop  offset="0" style="stop-color:#E9E9E9;stop-opacity:0"/>
					<stop  offset="1" style="stop-color:#929292"/>
				</linearGradient>
				<path class="st69" d="M87.5,77.5c0.1-0.2-0.1-0.7-0.1-0.7s-1.5-2.4-1.6-2.3c-0.2,0.1-0.4,0.4-0.4,0.4L85,74l0.5-1.3l2.7,4.1
					l-0.1,1.6L87.5,77.5z"/>
				
					<linearGradient id="SVGID_62_" gradientUnits="userSpaceOnUse" x1="73.3949" y1="40.8873" x2="67.0586" y2="45.7538" gradientTransform="matrix(-1 0 0 1 155.8174 0)">
					<stop  offset="0" style="stop-color:#E9E9E9;stop-opacity:0"/>
					<stop  offset="1" style="stop-color:#929292"/>
				</linearGradient>
				<path class="st70" d="M86.5,47.5c0,0,0.8-0.2,1-0.7c0.2-0.5-0.4-0.6-0.5-0.6c-0.1,0-0.7,0.6-0.7,0.6s-0.1-0.4,0.2-0.7
					c0.3-0.4,0.6-1,1.1-1.3c0.5-0.3,1-0.7,1-1c-0.1-0.3-0.4-0.4-0.6-0.4c-0.2,0-0.9,0.7-0.9,0.7s0.7-1.8,1.1-1.9
					c0.4,0,1.4,0.6,1.6,0.8c0.2,0.2,0.3,1.9,0.3,1.9s-0.3,2.4-0.4,2.6c-0.1,0.2-0.7,0-1-0.1C88.3,47.2,86.5,47.5,86.5,47.5z"/>
				
					<linearGradient id="SVGID_63_" gradientUnits="userSpaceOnUse" x1="89.5928" y1="29.8093" x2="72.8756" y2="42.6487" gradientTransform="matrix(-1 0 0 1 155.8174 0)">
					<stop  offset="0" style="stop-color:#E9E9E9;stop-opacity:0"/>
					<stop  offset="1" style="stop-color:#929292"/>
				</linearGradient>
				<path class="st71" d="M86.3,45.6L87,44l0.4-0.7c0,0-0.9,1-1.1,0.8c-0.1-0.2-0.4-1-0.4-1s0-1.3,0.1-1.4c0.1-0.1,0.3-0.4,0.3-0.4
					s-0.6,0-0.7,0.2c-0.2,0.3-0.3,0.4-0.5,0.6c-0.2,0.2-0.3,0.6-0.6,1c-0.2,0.4-1.4,0.8-1.9,0.4c-0.6-0.4-1.8-2.4-1.8-2.4
					s0.4,1.1,0.6,1.4c0.2,0.3,0.5,1.2,0,0.9c-0.5-0.3-1.2-1-1.4-1.4c-0.2-0.4-0.5-1.1-0.5-1.6c0-0.4,0.5-1.6,0.5-1.6
					s-0.3-0.2-0.5,0.1c-0.2,0.3-0.4,0.9-0.4,0.9s-0.1,1.4,0,1.7c0.1,0.3,0.3,0.7,0.3,0.9c0.1,0.2-0.3,0.2-0.7-0.1s-1.1-0.6-1.2-1.6
					c-0.1-1-0.1-1.1,0-1.5c0.1-0.3,0.5-0.7,0.3-0.7c-0.2,0-1.3,0.1-1.3,0.1s-0.4,1.4,0,2.2c0.4,0.8,0.9,1.8,1.3,2
					c0.4,0.2,1.2,0.6,1.6,0.6c0.4,0,2.2,0.9,2.2,0.9s1.2,0.3,1.7,0.5C83.9,45.1,86.3,45.6,86.3,45.6z"/>
			</g>
			<g>
				
					<linearGradient id="SVGID_64_" gradientUnits="userSpaceOnUse" x1="92.5614" y1="28.5011" x2="80.9303" y2="40.4571" gradientTransform="matrix(-1 0 0 1 155.8174 0)">
					<stop  offset="0" style="stop-color:#FFBC08"/>
					<stop  offset="1" style="stop-color:#F47901"/>
				</linearGradient>
				<path class="st72" d="M66.1,38.4l1.3-0.3c0,0,0.7,2,1,2.6s0.9,2.4,1.4,2.8c0.4,0.4,1,0.3,1.5,0.5c0.6,0.2,1.6,0.4,1.9-0.1
					c0.4-0.5,3-5.3,3-5.3l-0.5-0.3c0,0,0.7-2.5,0-4.6s-2.2-3.1-3.1-3.4c-0.8-0.3-3-0.2-4,0.6c-1,0.7-1.9,2.9-2,3.5
					C66.5,35.1,66,37.6,66.1,38.4z M67.7,38.5c0,0,4.6-0.1,4.9-0.1c0.3,0,1.3-1.7,1.3-1.7s0,1.2,0,1.3c0,0.2-0.2,1.1-0.2,1.1
					s-1.5,2.1-1.7,2.4c-0.2,0.3-0.6,0.1-0.7,0.1c-0.1,0-0.8-0.5-1-0.5c-0.2,0-0.7,0.2-0.7,0.2s-1-0.8-1.2-1
					C68.3,40.1,67.7,38.5,67.7,38.5z"/>
				<g>
					
						<linearGradient id="SVGID_65_" gradientUnits="userSpaceOnUse" x1="81.879" y1="39.1573" x2="88.1439" y2="39.1573" gradientTransform="matrix(-1 0 0 1 155.8174 0)">
						<stop  offset="0" style="stop-color:#00B7F8"/>
						<stop  offset="1" style="stop-color:#0253C1"/>
					</linearGradient>
					<path class="st73" d="M73.9,36.6c0,0,0.1,1.5-0.1,2.1S72,41.5,72,41.5l-0.6,0.2c0,0-0.9-0.7-1.2-0.7c-0.3,0.1-0.6,0.2-0.6,0.2
						s-1-0.2-1.4-1.4c-0.5-1.2-0.5-1.4-0.5-1.4s3.8,0,4.2,0c0.5,0,0.8-0.2,0.8-0.2L73.9,36.6z"/>
					
						<linearGradient id="SVGID_66_" gradientUnits="userSpaceOnUse" x1="87.6038" y1="35.7301" x2="83.7807" y2="42.0514" gradientTransform="matrix(-1 0 0 1 155.8174 0)">
						<stop  offset="0" style="stop-color:#00B7F8;stop-opacity:0"/>
						<stop  offset="1" style="stop-color:#0253C1"/>
					</linearGradient>
					<path class="st74" d="M71.6,38.5c0.3,0.7,0.7,1.3,1.2,2c0-0.1,0.1-0.1,0.1-0.2c-0.4-0.6-0.7-1.2-1-1.8c0,0,0,0,0,0
						C71.9,38.5,71.8,38.5,71.6,38.5z M67.9,38.5c0.5,0.9,1,1.9,1.6,2.8c0.1,0,0.1,0,0.1,0s0.3-0.1,0.6-0.2c0.3-0.1,1.2,0.7,1.2,0.7
						l0.6-0.2c0,0,0-0.1,0.1-0.2c-0.6-0.9-1.2-1.9-1.7-2.8C69.6,38.5,68.4,38.5,67.9,38.5z M70.9,38.5c0.4,0.9,0.9,1.7,1.5,2.5
						c0.1-0.1,0.2-0.2,0.2-0.3c-0.5-0.7-0.9-1.4-1.3-2.1C71.2,38.5,71.1,38.5,70.9,38.5z"/>
				</g>
				
					<linearGradient id="SVGID_67_" gradientUnits="userSpaceOnUse" x1="103.76" y1="71.32" x2="92.8685" y2="88.2171" gradientTransform="matrix(-1 0 0 1 155.8174 0)">
					<stop  offset="0" style="stop-color:#FFBC08"/>
					<stop  offset="1" style="stop-color:#F47901"/>
				</linearGradient>
				<path class="st75" d="M59.3,75.2c0,0,1,0.9,1.7,1.9c0.3,0.5,0.8,2.2,1.3,3.9l-1.5,3.4l0.3,0.6l1.5-2.5c0.2,0.7,0.3,1.3,0.4,1.7
					l-1.7,1.9l0.3,1.1l1.5-1.5c0.3,2.1,1,6.8,0.8,7.6c-0.2,0.9-0.9,1.7-1.6,1.9c-0.7,0.2-1-1.6-1-1.8c0,0-1.3-4.6-2-6.8
					s-1.2-10.1-1.2-10.1L59.3,75.2z"/>
				
					<linearGradient id="SVGID_68_" gradientUnits="userSpaceOnUse" x1="64.7003" y1="71.1759" x2="54.1597" y2="87.5284" gradientTransform="matrix(-1 0 0 1 155.8174 0)">
					<stop  offset="0" style="stop-color:#FFBC08"/>
					<stop  offset="1" style="stop-color:#F47901"/>
				</linearGradient>
				<path class="st76" d="M101.4,94.1c0,0,0.1-2.6,0.2-4.2c0.1-1.7-0.9-10.1-1.4-12.1c-0.6-2-1.3-3.1-1.5-3.2c-0.2-0.1-0.9,1-0.9,1
					l-0.1,2.3l2,14.5C99.7,92.5,100.5,95.3,101.4,94.1z"/>
				
					<linearGradient id="SVGID_69_" gradientUnits="userSpaceOnUse" x1="84.9098" y1="52.5324" x2="80.5406" y2="57.0237" gradientTransform="matrix(-1 0 0 1 155.8174 0)">
					<stop  offset="0" style="stop-color:#FFBC08"/>
					<stop  offset="1" style="stop-color:#F47901"/>
				</linearGradient>
				<path class="st77" d="M77.5,55.1c0,0-0.9-0.3-1.5-0.3c-0.6,0-3.7,0.2-4.4,0.5c-0.7,0.3-1.2,0.7-1.2,0.7l0.1,0.3
					c0,0,1.7,1.2,2.3,1.3c0.5,0.1,3.1-0.4,3.3-0.5C76.1,56.9,77.5,55.1,77.5,55.1z"/>
				
					<linearGradient id="SVGID_70_" gradientUnits="userSpaceOnUse" x1="70.8607" y1="62.0342" x2="68.4748" y2="64.4867" gradientTransform="matrix(-1 0 0 1 155.8174 0)">
					<stop  offset="0" style="stop-color:#FFBC08"/>
					<stop  offset="1" style="stop-color:#F47901"/>
				</linearGradient>
				<path class="st78" d="M89.6,62.6c0,0-3.1,0.6-3.7,0.7c-0.6,0.1-1.1,0.3-1.2,0.4c-0.1,0.1-0.4,1.8-0.4,1.8l2.6-1.5L89.6,62.6z"/>
				
					<linearGradient id="SVGID_71_" gradientUnits="userSpaceOnUse" x1="98.4602" y1="63.7247" x2="93.8065" y2="68.5084" gradientTransform="matrix(-1 0 0 1 155.8174 0)">
					<stop  offset="0" style="stop-color:#FFBC08"/>
					<stop  offset="1" style="stop-color:#F47901"/>
				</linearGradient>
				<polygon class="st79" points="63.1,68.2 62.1,66.4 57.8,66.4 60.5,67.6 				"/>
			</g>
			<g>
				
					<linearGradient id="SVGID_72_" gradientUnits="userSpaceOnUse" x1="83.6533" y1="52.8104" x2="81.3059" y2="56.4521" gradientTransform="matrix(-1 0 0 1 155.8174 0)">
					<stop  offset="0" style="stop-color:#FFBC08;stop-opacity:0"/>
					<stop  offset="1" style="stop-color:#F47901"/>
				</linearGradient>
				<path class="st80" d="M75.8,54.8c0,0,0.5,0.1,0.4,0.6c-0.2,0.5-0.3,0.8-1.4,1.1c-1.1,0.3-2.5,0.2-3,0c-0.5-0.2-1.2-0.8-1.2-0.8
					l-0.2,0.3l0.1,0.3c0,0,1.8,1.2,2,1.3c0.3,0.1,1.2-0.2,1.4-0.2c0.3,0,2.2-0.5,2.4-0.6c0.2-0.2,1.3-1.6,1.3-1.6l-0.8-0.4
					L75.8,54.8z"/>
				
					<linearGradient id="SVGID_73_" gradientUnits="userSpaceOnUse" x1="90.5048" y1="27.0766" x2="82.841" y2="38.9662" gradientTransform="matrix(-1 0 0 1 155.8174 0)">
					<stop  offset="0" style="stop-color:#FFBC08;stop-opacity:0"/>
					<stop  offset="1" style="stop-color:#F47901"/>
				</linearGradient>
				<path class="st81" d="M69,42c0,0,0.8,0.9,1.5,1c0.7,0.2,1.4,0.6,1.9,0c0.5-0.6,1.7-2.7,1.9-3.1c0.2-0.4,0.5-2.5,0.6-3
					c0.1-0.6-0.2-1.8-0.3-2.7c-0.1-0.9-0.8-2.3-2-3.1c-1.2-0.7-3.2-0.5-3.2-0.5s1.3-0.6,2.2-0.4c0.9,0.2,2.9,1,3.3,1.8
					c0.5,0.7,1.1,2.1,1.1,3.2S75.9,39,75.9,39s-0.3,0.9-0.7,1.8c-0.5,0.9-1.6,2.4-2.1,2.8c-0.5,0.5-1,0.5-1.8,0.4
					c-0.8-0.1-1.8-0.5-1.8-0.6C69.5,43.3,69,42,69,42z"/>
				
					<linearGradient id="SVGID_74_" gradientUnits="userSpaceOnUse" x1="87.9155" y1="39.3964" x2="86.7779" y2="41.1612" gradientTransform="matrix(-1 0 0 1 155.8174 0)">
					<stop  offset="0" style="stop-color:#FFBC08;stop-opacity:0"/>
					<stop  offset="1" style="stop-color:#F47901"/>
				</linearGradient>
				<path class="st82" d="M69.6,41.3c0,0,0.1,0.1-0.1,0.3c-0.2,0.2-0.7,0-0.8-0.1c-0.1-0.1-0.5-1.3-0.5-1.3s0.7,0.4,0.9,0.7
					C69.3,41,69.6,41.3,69.6,41.3z"/>
				
					<linearGradient id="SVGID_75_" gradientUnits="userSpaceOnUse" x1="88.9593" y1="33.7696" x2="87.8165" y2="35.5427" gradientTransform="matrix(-1 0 0 1 155.8174 0)">
					<stop  offset="0" style="stop-color:#FFBC08;stop-opacity:0"/>
					<stop  offset="1" style="stop-color:#F47901"/>
				</linearGradient>
				<path class="st83" d="M68.5,33.6c0,0.1,0,2.1,0,2.1l-0.5,0.6c0,0-0.4,0.3-0.6,0.3c-0.2,0-0.9-0.9-0.9-0.9l0.1-0.7
					c0,0,0.3,0.8,0.5,0.9c0.3,0,1-0.5,1-0.5L68.5,33.6z"/>
			</g>
			<g>
				<path class="st84" d="M95.7,59.7c0,0-7.6,1.3-8.7,1.6c-1.1,0.3-4.1,1.3-4.3,1.4c-0.2,0.1-1.9,5.9-1.9,5.9s0.9-4.9,1.1-5.6
					c0.2-0.7,0.3-1,0.3-1s5.4-1.6,6-1.7C88.8,60.2,95.3,59.4,95.7,59.7z"/>
				<path class="st84" d="M79.3,64.5c0,0-4.7,1.6-5.9,1.6s-6.3-0.3-6.3-0.3s5.1,1.1,6.5,1C74.9,66.7,79.3,64.5,79.3,64.5z"/>
				<path class="st84" d="M64.8,65.2c0,0-0.8-0.3-1.4-0.4c-0.6,0-12.5,0.6-12.7,0.7c-0.2,0.2-0.1-0.5-0.1-0.5s13.4-1.2,13.8-1.1
					C64.7,64,64.8,65.2,64.8,65.2z"/>
				<path class="st84" d="M65,52.9c0,0-0.7-0.5-1.2-0.5c-0.5-0.1-4.2,0.9-4.3,1c-0.2,0.1-0.1,0.5-0.1,0.5s3.8-1.2,4.4-1.2
					C64.5,52.8,65,52.9,65,52.9z"/>
				<path class="st84" d="M88.4,48.2l-0.1-0.3c0,0-5.8,0.8-6.1,1.2c-0.3,0.4-0.5,0.8-0.5,0.8s0.9-0.8,1.6-0.9
					C84.1,48.9,88.4,48.2,88.4,48.2z"/>
				<path class="st84" d="M72.1,37.9L66.1,38c0,0,0.1-1.7,0.6-3.3c0.4-1.6,0.6-3.1,2.2-3.9c1.6-0.7,1.8-0.6,1.8-0.6
					s-2.1,0.9-2.9,2.5c-0.7,1.5-1.1,4.7-1.1,4.7L72.1,37.9z"/>
				<path class="st84" d="M70.6,33.6c0,0-0.3-0.3-0.6,0c-0.4,0.3-0.7,2.1-0.8,2.4c-0.1,0.2-1.6,0.9-1.6,0.9s1.1-1,1.3-1.3
					c0.1-0.3,0.3-1.7,0.6-2.1c0.3-0.4,0.7-0.6,1-0.4C70.6,33.3,70.6,33.6,70.6,33.6z"/>
				<path class="st84" d="M74.2,36.4c0,0,0,2.2-0.1,2.7c-0.1,0.5-1.8,2.6-1.8,2.6s1.7-1.6,2-2.3C74.6,38.7,74.2,36.4,74.2,36.4z"/>
				<path class="st84" d="M77.7,52.6c0,0-8.6,1.9-8.7,2c-0.1,0.1-0.3,1.3-0.3,1.3l-0.2-1.8L77.7,52.6z"/>
				<path class="st84" d="M77.7,56c0,0-1.3,1.3-1.6,1.4s-3.6,0.6-3.6,0.6s3,0.1,3.6-0.3C76.7,57.4,77.7,56,77.7,56z"/>
				<path class="st84" d="M87.7,59c0,0-10.7,1.2-11.6,1.4c-0.9,0.1-15.6,1.6-16.3,1.9c-0.7,0.3-1.5,0.8-1.6,1
					c-0.1,0.2-0.3,1.4-0.3,1.4l-0.7,0.1c0,0,0.1-1.3,0.3-1.7c0.2-0.4,1.2-1.6,1.4-1.6c0.2,0,11.8-1.6,11.8-1.6S86.8,58.4,87.7,59z"
					/>
			</g>
			<g>
				<path d="M65.6,45.2C65.6,45.2,65.6,45.2,65.6,45.2C65.6,45.2,65.6,45.2,65.6,45.2z"/>
				<path d="M49.5,86.7c1.2,6.5,3.5,11.5,5.3,11.2c0,0,2.6,1.2,8.2-0.8c0.4-0.3,0.8-0.9,1-1.8c1.1,0.1,2.9,0,5.5-0.9
					c1-0.7,1.5-3.8,0.9-8l0.2-0.3c1.1,0,12.5-1.1,12.9-1.4c0,0,0,0,0.1-0.1l5.3,2.7c0.9,5.6,2.4,9.7,3.6,9.6c0,0,2.1,1,8.4,0.1
					c0.5-0.1,0.8-1,1-2.5c0.4,0,0.8-0.1,1.3-0.2c1-0.1,1.2-4.9,0.5-10.7c-0.7-5.8-1.9-9.7-3.1-10.2c0,0-0.7-0.3-1.9-0.4
					c-0.3-0.5-0.6-0.9-1-1c0,0-1.1-0.4-3-0.5c0.7-2.1,2.6-8,2.8-9.8c0,0,0-0.8-0.4-1.4c-0.3-0.6-1.2-1.1-1.3-1.1
					c-0.1,0-2.9,0.3-5.6,0.7c-0.6-0.5-1.7-1.5-2.5-1.5c-0.1,0-0.5,0-1.2,0.1c0-0.6,0-1.9-0.1-2.5c-0.3-0.8-0.8-1.5-0.8-1.5
					s0-0.2,0-0.6c2.3-0.4,4.3-1.3,4.3-1.4c0.1-0.2,0-0.5,0-0.6c0-0.1-0.2-1.1-0.4-2.2c0.2-0.8,0.8-2.7,0.9-3.6c0.2-1.2,0-2.4,0-2.6
					c0-0.2-2.6-2-6.1-3.5c-3.5-1.5-4.1-1.5-4.7-1.6L76.2,38c0.1-0.9,0.1-1.9,0-3c-0.2-1.8-0.8-2.7-0.8-2.7c0,0,0-0.1-0.1-0.2
					c-0.5-1-1.7-1.7-2.9-2.1c-1.3-0.4-2.4-0.2-3.9,0.7c-1.5,1-1.8,2.6-2.2,4.4c-0.4,1.8-0.3,3.3-0.3,3.3s0.4,0,1.1,0
					c0.2,0.4,0.6,1.4,0.9,2c0,0.1,0.1,0.2,0.1,0.3L68,40.9l0,0l-0.3,0.1c0,0-2.2,1.4-2.5,1.8c-0.3,0.4-0.5,1-0.5,1s-1.2,0.9-1.6,1.5
					c-0.4,0.6-0.6,1.4-0.6,1.4s-0.2,0-0.4,0.2c-0.2,0.2-0.4,0.5-0.4,0.5s-0.5-0.2-0.8,0.3c-0.3,0.5-0.1,0.9-0.1,0.9
					s-0.6,1.2-0.6,1.9c0,0.5,0.1,1.2,0.2,1.6c-0.8,0.2-1.6,0.5-1.7,0.6c-0.2,0.2-0.1,0.9-0.1,1.3c0,0.4,1.2,3.7,1.3,3.9
					c0.1,0.3,0.2,0.3,0.5,0.4c0,0,0.8,0,2.4-0.4c1.6-0.4,3.5-1,3.7-1.2c0.1-0.1,0.2-0.4,0.3-0.8c0.2,0.2,0.4,0.4,0.5,0.7
					c0.1,0.2,0.2,0.4,0.4,0.6C68,57.7,68.5,58,69,58c0,0,0.1,0,0.1,0c0,0,0,0,0.1,0c0,0,0.1,0.1,0.1,0.1c-0.1,0.4-0.6,1.6-0.7,2.1
					c-5.3,0.6-9.8,1.3-10.4,1.7c-1,0.7-1.3,1.7-1.4,2.2c-3.2,0.2-6.1,0.5-6.2,0.5c0,0-0.5,0.6-0.5,1.2c0,0.6,1.3,1.9,2.6,2.7
					c0.1,0.1,0.4,0.2,0.8,0.4c0.3,0.8,1.3,3.1,1.8,4.1c-1.4,0-3.1,0.3-4.6,1.4C48.8,74.7,48.4,80.2,49.5,86.7z M53.6,77.3
					c0,0.1-0.1,0.2-0.2,0.2c-0.1,0-0.2-0.1-0.3-0.1c-0.1-0.1-0.2-0.1-0.2-0.2c-0.2-0.1-0.3-0.2-0.5-0.3c-0.3-0.2-0.7-0.3-1.1-0.4
					c-0.3,0-0.2-0.5,0.1-0.5c0.5,0,0.9,0.2,1.3,0.4c0.2,0.1,0.4,0.2,0.6,0.4c0.1,0.1,0.2,0.1,0.2,0.2C53.5,77,53.5,77.2,53.6,77.3z
					 M61.2,84.6c0-0.1,0-0.1,0-0.2l3.4-6l0.1,0.2L61.2,84.6z M62.4,83.4c0.1,0.3,0.1,0.6,0.2,0.9l-0.4,0.5c0-0.3-0.1-0.5-0.1-0.7
					L62.4,83.4z M62.1,73.3l4.7,1.8l2,0.7c0,0,0,0,0,0.1c0.3,0.7,0.5,1.4,0.7,1.9l-3.9,0.7L62.1,73.3z M61.1,84.1
					C61.1,84.1,61.1,84.1,61.1,84.1l2.8-6.6l0.2,0.2l-0.5,1.4l0.6-1.2l0.2,0.2L61.1,84.1z M59,77C59,77,59,77,59,77
					c0-0.6,0.2-0.9,0.4-1c0.6-0.1,1.6,2,2.4,5.2L61.5,82C60.7,78.9,59.7,76.8,59,77z M58.4,73.4c-0.7-0.2-1.4-0.4-2.1-0.4
					c0.7-0.1,1.5-0.1,2.2,0.1c0.4,0.1,0.7,0.2,1.1,0.4c0.4,0.2,0.6,0.5,0.9,0.7c0.5,0.6,0.9,1.2,1.2,1.9c0.3,0.7,0.6,1.4,0.8,2.1
					c-0.3-0.7-0.7-1.3-1.1-1.9c-0.4-0.6-0.8-1.2-1.2-1.8c-0.2-0.3-0.5-0.5-0.8-0.7C59,73.7,58.7,73.6,58.4,73.4z M56.8,82.7
					c-0.1,0.3-0.3,0.5-0.5,0.7c-0.2,0.2-0.4,0.5-0.5,0.7c-0.2,0.3-0.3,0.5-0.4,0.8c-0.1,0.3-0.2,0.6-0.3,0.9
					c-0.1,0.2-0.5,0.1-0.5-0.1c0-0.3,0.2-0.7,0.3-1c0.1-0.3,0.3-0.6,0.5-0.8C55.7,83.4,56.2,82.7,56.8,82.7
					C56.8,82.6,56.9,82.7,56.8,82.7z M54.5,80.1c-0.1,0.1-0.2,0.3-0.4,0.3c-0.1,0-0.1,0-0.2-0.1c-0.2-0.3,0.1-0.6,0.3-0.8
					c0.2-0.2,0.4-0.4,0.6-0.6c0.4-0.3,0.9-0.8,1.5-0.7c0.1,0,0.1,0.1,0.1,0.2c-0.2,0.2-0.4,0.3-0.6,0.5c-0.2,0.1-0.4,0.3-0.6,0.4
					c-0.2,0.2-0.3,0.4-0.5,0.5C54.7,79.9,54.6,80,54.5,80.1z M55.5,74.5c0.1-0.1,0.2-0.1,0.3-0.2c0.1,0,0.1-0.1,0.2-0.1
					c0.1,0,0.2,0,0.2,0c0.2,0,0.3,0.2,0.1,0.3c0,0-0.1,0.1-0.2,0.1c-0.1,0-0.1,0.1-0.2,0.1c-0.1,0.1-0.2,0.1-0.3,0.2
					c-0.2,0.1-0.4,0.3-0.6,0.5c-0.2,0.2-0.3,0.4-0.5,0.5c-0.1,0.1-0.1,0.2-0.2,0.3c-0.1,0.1-0.1,0.2-0.2,0.2c-0.1,0-0.2,0-0.3-0.1
					c-0.1-0.1,0-0.2,0-0.3c0.2-0.4,0.5-0.8,0.9-1.2C55.1,74.8,55.3,74.6,55.5,74.5z M50.9,66.2c2.1,0.8,13,4.7,13.2,4.9
					c0.2,0.2,1.1,1.8,1.5,2.5C61.3,71.8,53.8,68.5,53,68C52,67.4,51.2,66.7,50.9,66.2z M64.3,64.2c0.6,1.2,2.7,6.8,4.2,10.6
					c-0.3-0.1-1-0.4-1.9-0.8c-0.5-0.9-2.2-3.7-2.4-3.8c-0.3-0.1-11.6-4.1-13.5-4.7c0-0.2,0.1-0.3,0.2-0.4
					C52.4,65,62.1,64.3,64.3,64.2z M69.5,58.3c0.2,0.2,0.5,0.4,0.7,0.6L69.9,60c-0.1,0-0.2,0-0.3,0l0.3-1.1l-0.6,1.1
					c-0.1,0-0.3,0-0.4,0L69.5,58.3z M68.5,56.8c-0.1-0.2-0.1-1.4-0.1-2.5l9.9-1.9c0.7,1.5,1.3,3.1,1.2,3.5c-0.1,0.4-1.6,2-2.9,3.3
					l-4.8,0.2C70.3,58.4,68.7,57.1,68.5,56.8z M70.5,59.1c0.4,0.3,0.7,0.6,0.9,0.7c-0.4,0-0.8,0.1-1.2,0.1L70.5,59.1z M79.6,58.9
					l-0.9-0.8c0,0,0-0.1,0.1-0.1L79.6,58.9L79.6,58.9L79.6,58.9L79.6,58.9z M78.8,57.9C78.8,57.9,78.8,57.9,78.8,57.9
					c0.1-0.2,0.3-0.3,0.4-0.4l1.4,1.3l-0.8,0.1L78.8,57.9z M79,58.6c-0.3,0.1-0.6,0.1-0.9,0.2c0.2-0.1,0.4-0.2,0.7-0.3L79,58.6z
					 M80,56.2c0-0.1,0.1-0.3,0.1-0.4c0.2-0.2,0.3-0.5,0.5-0.8c0-0.1,0.1-0.2,0.1-0.2c0.1-0.2,0.2-0.4,0.2-0.6
					c0.1-0.2,0.2-0.5,0.3-0.7c0.2-0.3,0.4-0.6,0.7-0.7c0.1,0.1,0.2,0.1,0.3,0.2c-0.3,0.1-0.5,0.3-0.7,0.7c-0.1,0.2-0.2,0.4-0.3,0.7
					c-0.1,0.2-0.1,0.4-0.2,0.6c0,0.1-0.1,0.1-0.1,0.2C80.6,55.6,80.3,56.1,80,56.2z M81.6,55.7c0.5-0.3,1.6-1.4,1.6-1.4
					s-0.4,1-1,1.6c-0.6,0.6-1.9,0.9-1.9,0.9S81.2,56,81.6,55.7z M86,47.4c-0.7,0.1-1.4,0.3-2.1,0.5c0-0.1-0.1-0.1-0.1-0.1
					s0-1.1-0.4-1.7c-0.1-0.2-0.3-0.5-0.4-0.9c1.2,0.4,2.5,0.4,3,0.4c0,0,0,0.1,0.1,0.1C86,46.2,86,47.1,86,47.4z M83.4,47.9
					c0,0,0,0.1-0.1,0.2c-0.9,0.2-1.6,0.5-1.7,0.6c-0.2,0.1-0.4,1-0.6,1.7c0-0.6,0.7-2.2,0.8-2.3c0.3-0.4,0.6-0.8,0.8-1.1
					c0.2-0.4,0.3-0.7,0.3-0.9c0.1,0.1,0.1,0.3,0.2,0.4c0.3,0.4,0.4,1.2,0.4,1.5L83.4,47.9z M80.8,48.3c0,0,0.7-0.8,1-1.6
					c0,0,0.3-0.9,0.4-1.3c0.1-0.3,0.2-0.2,0.3,0c0,0.3-0.1,0.7-0.2,1.1c-0.1,0.4-0.4,0.9-0.6,1.4c-0.3,0.5-0.8,1.1-1.1,1.2
					c-0.4,0.2-2.2,1.1-2.2,1.1s1.5-0.3,1.6-0.1c0.1,0.1,0.4,0.2,0,0.7c-0.4,0.4-1,1-1.3,1.3l-2.8,0.5l0.1-1l-0.4,1.1l-1.7,0.3
					l1.2-1.5l-1.7,1.6l-2.4,0.4l-0.4-0.7c0.1-0.1,0.3-0.4,0.5-0.5c0.4-0.1,1.5-0.6,1.5-0.6s-0.7,0.1-1.4,0.2
					c-0.5,0.1-1.2-0.3-1.7-0.5c-0.3-0.4-0.7-0.9-0.8-1.4c-0.2-0.5-0.4-1.2-0.6-2c0.1-0.2,0.2-0.5,0.4-0.4c0.4,0.1,2.2,0.5,5.1,0.1
					c0,0-2.1,0.1-3.5-0.1c-1.4-0.2-1.9-0.4-2-0.7c0,0,0,0,0,0c0.1-0.1,0.2-0.2,0.4-0.2c0.8-0.1,2.6,0.5,4,0.3c0,0,1.2,0,2-0.7
					s2.2-2.2,2.7-2.4c0.3-0.1,0.8,0,1.3,0.1c0,0.1,0,0.2,0,0.3c-0.1,0.2-0.9,1.2-0.9,1.2s1-1,1.3-1.2c0.2-0.2,0.3-0.1,0.4,0.1
					c0.1,0.1,0,0.3,0,0.4c0,0-0.1,0.1-0.1,0.1c-0.6,0.5-2.7,2.1-2.7,2.1c2-0.6,3.1-1.9,3.7-2.6c0.1,0,0.4,0,0.5,0.1
					c0.1,0.1,0.1,0.3,0,0.4c-0.4,0.3-1,0.8-2,1.4c0,0,1.7-0.8,2.6-1.5c0.2,0.2,0.5,0.5,0.5,0.7C81.9,45.6,81.5,47.3,80.8,48.3z
					 M80.7,51.6c0.1,0.1,0.1,0.1,0.2,0.2L79,52.7c-0.1-0.2-0.2-0.4-0.2-0.6l0,0l1.9-0.9l0,0.1C80.7,51.5,80.7,51.6,80.7,51.6z
					 M79.2,53.1c0,0,0-0.1-0.1-0.1l1.4-0.7L79.2,53.1z M66.9,55.8c0-0.1,0.1-0.3,0.1-0.4l0.9,0.1c0,0.6,0.1,1.2,0.2,1.4
					c0.1,0.1,0.3,0.4,0.7,0.7c-0.3-0.1-0.6-0.3-0.8-0.5c-0.1-0.2-0.2-0.3-0.3-0.5C67.4,56.3,67.2,56,66.9,55.8z M67.9,54.8l-0.7-0.2
					c0-0.2,0.1-0.3,0.1-0.5l0.5,0.1C67.9,54.4,67.9,54.6,67.9,54.8z M67.9,55c0,0.1,0,0.1,0,0.2l-0.8-0.2c0-0.1,0-0.2,0.1-0.2
					L67.9,55z M62.2,52.3c0.2,0,0.3,0,0.5-0.1c0.3,0,0.6-0.1,0.9-0.1c0.3,0,0.6,0,0.8,0.1c0.5,0.2,1.9,1.2,2.6,1.7
					c-0.3,1.1-0.6,2.3-0.8,2.6c-0.4,0.2-2,0.7-3.4,1c-1.3,0.3-2.1,0.4-2.3,0.4c-0.1,0-0.1,0-0.1,0c0,0,0,0-0.1-0.1
					c-0.2-0.3-1.2-3.4-1.3-3.8l0-0.2c0-0.2,0-0.6,0-0.8C59.6,53,61.4,52.4,62.2,52.3z M67.4,42.5c0,0.5-0.2,1.3-0.3,2.2
					c-0.1,0.9,0.4,2.1,0.1,2.3c-0.1,0.1-0.2,0.1-0.2,0.1c0,0-0.1,0-0.1-0.1c-0.3-0.2-1.1-1.6-1.2-1.8c0.1,0.2,0.5,1.4,0.8,2
					c0,0.2,0,0.5-0.2,0.7c-0.4,0.6-0.3,0.6-0.9,0.6c-0.6,0-0.8,0-1.1-0.2c-0.3-0.2-1.2-1-1.2-1s1.4,1.8,1.3,2.1
					c-0.1,0.4-0.1,0.6-0.5,0.6c-0.4,0-1.5-0.4-1.5-0.4s1.2,0.5,1.2,1c0,0.5,0.2,0.5-0.3,0.6c-0.5,0.1-1,0-1.3,0.2
					c-0.2,0.1-0.9,0.5-1.2,0.6c-0.1-0.4-0.2-0.9-0.2-1.2c0-0.5,0.5-1.9,0.5-1.9s0.6,0.4,1,0.6c0,0-0.6-0.7-0.7-1.1
					c-0.1-0.4-0.2-0.7,0.1-0.7c0.3,0,0.5,0.1,0.5,0.1s0.3-0.6,0.5-0.7c0.2-0.1,0.5-0.2,0.5-0.2s0.4-1.2,0.7-1.7c0.3-0.5,1.1-1,1.1-1
					l0.2,1.2c0,0,0.1-1.6,0.3-2c0.3-0.4,1.3-1.5,1.7-1.5c0.1,0,0.2,0,0.3,0.1C67.3,42.2,67.4,42.3,67.4,42.5z M67.8,48.3L67.8,48.3
					c0.1,0.6,0.3,1.2,0.5,1.6c0.4,1,1.5,2.3,1.5,2.3l0.8,1.4L67.9,54l-0.5-0.1c-0.3-0.2-2.2-1.7-2.9-2c0,0-0.1,0-0.1,0l0-0.9
					c0,0,0.7,0.1,0.6-0.9C67.1,49.8,67.8,48.3,67.8,48.3z M68.2,44.9c-0.1-0.1-0.2-0.1-0.3-0.1c0-0.7,0.1-1.5,0.1-2.2
					c0,0.1,0,0.2,0,0.4C68.1,43.7,68.1,44.4,68.2,44.9z M68,38.6c1.9,0,4.6,0,4.8-0.2c0.4-0.4,1.1-1.6,1.1-1.6s-0.2,2-0.3,2.3
					c-0.1,0.3-1.4,1.9-1.7,2.2c-0.3,0.3-0.5,0.1-0.7-0.1c-0.2-0.2-0.8-0.5-1.1-0.4c-0.1,0-0.2,0.1-0.3,0.3c-0.1,0-0.6-0.2-1-0.7
					C68.4,39.9,68.1,39,68,38.6z M75.7,39.3c-0.3,0.7-0.8,1.6-0.8,1.6c-0.6,1.5-2.1,3-2.5,3c-0.4,0.1-2.1-0.3-2.1-0.3
					s-0.7-0.9-1.2-1.7c-0.2-0.3-0.4-0.9-0.7-1.4c0.3,0.4,0.7,0.8,1.2,1.1c0,0.1,0,0.1,0,0.1c0.2-0.1,0.2-0.3,0.6-0.4
					c0.4-0.1,0.7,0.5,0.9,0.6c0.2,0.1,0.6,0.1,0.7,0.1c0.2-0.1,1.8-1.9,2.1-2.6c0.3-0.7,0.1-3,0.1-3s-1.1,1.8-1.4,1.9
					c-0.3,0.1-6.3,0.1-6.3,0.1s0.1-1.2,0.2-2.2c0.2,0.2,0.7,0.8,0.9,0.8c0.2,0,1.2-0.7,1.4-0.9c0.2-0.3,0.3-1.8,0.7-2.3
					c0.4-0.5,0.9-0.5,0.9,0.1c0,0.6-0.1,2-0.1,2.2c0.1,0.2,1.5,0.9,1.8,0.9c0.3,0,1.5-1.2,1.5-1.2s-1.2,0.8-1.5,0.8
					c-0.1,0-0.3-0.1-0.5-0.2l0.1-2.5L71.4,36c-0.3-0.2-0.6-0.4-0.6-0.5c-0.1-0.2,0.1-2.1-0.1-2.4c-0.2-0.4-1-0.6-1.5,0.4
					c-0.5,1-0.6,2-0.8,2.2c-0.1,0.1-0.2,0.1-0.3,0.2l0.4-2.3l-0.7,2.5c-0.2,0.1-0.3,0.2-0.4,0.2c-0.1,0.1-0.6-0.4-0.8-0.5
					c0-0.1,0-0.2,0-0.2c0.2-1.1,1-3.2,1.9-4.2c0.6-0.6,1.6-1,2.7-1c1,0.1,2.3,0.6,3,1.4c0.7,0.7,1,1.9,1.2,2.6
					c0.1,0.7,0.1,1.6,0.1,2.3c-0.2,2-1,3.5-1.4,4.2c-0.4,0.6-1.2,1.9-1.2,1.9s0.8-0.7,1.5-1.9s1-1.9,1.1-1.9
					C75.6,39.1,75.6,39.2,75.7,39.3z M76.2,38.5C76.2,38.5,76.2,38.5,76.2,38.5C76.2,38.5,76.2,38.5,76.2,38.5
					C76.2,38.5,76.2,38.5,76.2,38.5z M76.3,43.4c-0.2,0.4-0.9,1.3-1.7,2.1c-0.2,0.2-0.5,0.4-0.8,0.6c-0.5,0.1-1.4,0.3-2.2,0.1
					c-0.9-0.2-2.6-0.9-3.4-1.3c0-0.9,0.1-1.9,0.2-2.5c0.2,0.6,0.6,1.4,1,1.9c0.7,0.8,2.2,1,2.2,1c-0.1,0-1.2-0.5-1.7-0.8
					c-0.1-0.1-0.3-0.3-0.4-0.6c0.5,0.5,2.7,1.1,3.1,0.9c0.4-0.3,1.8-2,2.2-2.3c0.4-0.3,1.3-0.3,1.3-0.3l-0.3-0.1
					c0.1,0,0.2,0.1,0.3,0.1C76.4,42.5,76.4,43.1,76.3,43.4z M89.2,44.6c-0.1,0.2-0.4,0.4-0.9,0.4c-0.5,0.1-0.7,0.4-0.7,0.4
					s0.6,0,0.9,0.1c0.2,0.1,0.4,0.3,0.5,0.5c0.1,0.2-0.1,0.5-0.2,0.7c-0.1,0.2-0.5,0.1-0.9,0.2c-0.2,0.1-0.6,0.2-0.8,0.3
					c-0.2,0-0.3,0.1-0.5,0.1c-0.1-0.4-0.2-1.2-0.1-1.8C86.6,44.7,87,44,87,44s-0.4,0.6-0.7,1.1c-0.2-0.3-1-1.3-1-2.8
					c0,0-0.4,1.3,0.5,2.8c-1.1-0.1-4.3-0.4-5.9-2.3c-0.4-0.6-0.8-1.5-0.8-1.5s0.1,0.2,0.2,0.4c-0.1-0.1-0.1-0.3-0.2-0.4
					c0,0,0.1,0.4,0.4,1c0,0.1,0.1,0.2,0.1,0.3c0.1,0.4-0.1,0.6-0.3,0.6c-0.2,0-1-0.6-1.3-1c-0.4-0.4-0.9-1.6-0.9-2.1
					c0-0.4,0.1-0.6,0.5-1.1c0.2-0.2,0.5-0.3,0.9-0.3c0.4,0,0.7,0.1,0.9,0.1c-0.1,0.3-0.1,1-0.1,1c0.1-0.5,0.5-0.7,0.9-0.8
					c0.6,0.1,1.7,0.4,2.9,0.8c0.7,0.2,2,0.9,3.2,1.5c-0.1,0.1-0.3,0.3-0.4,0.7c-0.2,0.7,0.3,1.7,0.3,1.5c0-0.1,0-1.2,0.1-1.5
					c0.1-0.3,0.3-0.4,0.7-0.4c0.5,0.2,0.9,0.5,1.3,0.7c0,0,0.1,0.1,0.1,0.1l0,0c0,0,0.1,0,0.1,0.1c-0.1,0-0.1,0-0.1,0L87.6,43
					c0,0,1-0.1,1.3,0c0.3,0.1,0.3,0.2,0.4,0.5C89.4,43.7,89.3,44.4,89.2,44.6z M83.7,53.6c-0.3-0.2-1.5-1.1-2.5-2.1
					c0.3-1.1,0.6-2.3,0.8-2.6c0.6-0.3,4.8-1.4,6.5-1.4c0,0,0,0,0,0c0,0,0.1,0.1,0.2,0.2c0.2,0.4,0.8,3.8,0.8,4.2c0,0,0,0.1,0,0.1
					c0,0,0,0.1,0,0.1C88.9,52.4,86.3,53.4,83.7,53.6z M85.9,56c-0.3,0.3-0.7,0.7-1,1c-0.6,0.4-2.3,1.1-2.9,1.2
					c-0.2,0-0.8,0.1-1.5,0.2l-0.5-0.5c1-0.5,2.1-1.1,2.5-1.4c0.7-0.5,1.4-1.8,1.7-2.4c0.3,0,0.6-0.1,0.8-0.1c-0.1,0.4-0.2,1-0.3,1.3
					c-0.2,0.6-1.1,1.7-1.1,1.7s1.3-1.4,1.7-2.1C85.4,55,85.7,55.5,85.9,56z M89.2,60c-1.4,0.2-2.6,0.4-3.3,0.5
					c-0.3,0.1-0.6,0.1-0.9,0.2c-1.6,0.2-7.3,0.7-10,1c-3,0.3-12.9,0.9-14.8,2.1c-0.9,0.1-1.8,0.1-2.7,0.2c0-0.4,0.1-1.2,1.1-1.7
					c1.4-0.8,11.4-1.7,11.4-1.7s17-1.6,17.6-1.5C88.1,59.1,88.8,59.7,89.2,60z M68.3,62.7l0,2.2c-0.3,0-0.6-0.1-0.9-0.1L67.3,63
					l-0.1,1.7c0,0-0.1,0-0.1,0L67,62.8C67.4,62.8,67.9,62.7,68.3,62.7z M69.2,63.4c0.1-0.3,0.6-0.4,0.6-0.4s4.7-0.4,5.4-0.5
					c0.6-0.1,1.5,0.1,1.5,0.1l0,1.7c-1.3,0.5-2.6,0.9-3.4,0.9c-0.9,0.1-2.5-0.1-4.1-0.3C69.2,64.6,69.1,63.6,69.2,63.4z M79,61.8
					L79,63.5c-0.1,0-0.2,0.1-0.2,0.1l0-1.4l-0.3,1.6c-0.3,0.1-0.6,0.2-0.8,0.3l-0.1-2.1C77.9,61.9,78.4,61.8,79,61.8z M79.7,61.7
					v1.5c-0.1,0-0.2,0.1-0.4,0.1v-1.6C79.4,61.7,79.6,61.7,79.7,61.7z M96.4,60.4c-1.9,1.1-13.5,7.6-13.9,8.1
					c-0.3,0.4-1.1,3.4-1.4,4.6c-0.7,0.5-1.2,0.8-1.4,0.9c-0.1,0-0.1,0-0.1,0c0-0.5,0.4-3.6,0.9-5.8c0.5-2,1.5-4.9,1.8-5.8
					c0.5-0.3,2.1-1,3.8-1.3c2-0.4,8.5-1.3,9.6-1.4C95.8,59.9,96.1,60.1,96.4,60.4z M91,66.2c-0.9,0.6-2.4,1.6-3.9,2.8
					c-1.6,1.1-3.7,2.6-5.2,3.7c0.2-0.8,0.9-3.3,1.3-3.7c0.4-0.4,11.6-7,13.6-8.1c0.1,0.3,0.2,0.6,0.2,0.8
					C96.4,62.5,92.3,65.2,91,66.2z M87,77.7l1,1.4c0,0.4,0,0.9,0.1,1.3L86.6,79L87,77.7z M88.1,81.3c0,0.3,0,0.6,0.1,0.8l-4.4-4.1
					l0.3-0.8L88.1,81.3z M85.2,74.3l0.3-0.8c0.8,1.1,2.1,2.9,2.5,3.5c0,0.2,0,0.4,0,0.5c0,0.1,0,0.3-0.1,0.5L85.2,74.3z M91.7,74.9
					c0.2,0.2,0.5,0.5,0.7,0.8c0.1,0.1,0.2,0.3,0.3,0.4c0.1,0.2,0.1,0.3,0.1,0.5c0,0.1-0.1,0.2-0.2,0.1c-0.2-0.1-0.3-0.2-0.4-0.3
					c-0.1-0.1-0.2-0.2-0.3-0.4c-0.2-0.2-0.4-0.5-0.7-0.7c-0.2-0.2-0.5-0.4-0.7-0.6c-0.1-0.1-0.3-0.2-0.4-0.3
					c-0.2-0.1-0.3-0.2-0.4-0.3c-0.1-0.2,0-0.4,0.2-0.4c0.3,0,0.7,0.3,0.9,0.5C91.2,74.4,91.4,74.6,91.7,74.9z M90.8,70.5
					c-0.1,0-0.1,0.1-0.2,0.1l-1.1-2.7c0.2-0.2,0.4-0.3,0.6-0.4c0.2,0.8,0.9,2.6,0.9,2.6S91.1,70.3,90.8,70.5z M90.2,70.6l-1-2.4
					c0,0,0.1-0.1,0.1-0.1c0.2,0.5,0.8,2,1.1,2.5C90.3,70.6,90.2,70.6,90.2,70.6z M95.6,73.1c-0.2,0.2-0.4,0.3-0.6,0.4
					c-0.1,0.1-0.2,0.1-0.3,0.2c0,0-0.1,0.1-0.1,0.1c0,0,0,0-0.1,0.1c0,0,0,0,0,0c-0.2,0.1-0.3,0.3-0.5,0.4c-0.1,0.1-0.2,0.2-0.3,0.2
					c-0.1,0-0.1,0.1-0.2,0.1c0,0-0.1,0.1-0.1,0.1c0,0-0.1,0.1-0.2,0c-0.1,0-0.1,0-0.1-0.1c0-0.1,0-0.1,0-0.2
					c0.1-0.1,0.1-0.2,0.2-0.3c0.1-0.1,0.2-0.2,0.2-0.3c0.2-0.2,0.3-0.3,0.5-0.5c0.2-0.2,0.4-0.3,0.6-0.4c0.2-0.1,0.5-0.3,0.8-0.3
					C95.7,72.6,95.8,72.9,95.6,73.1z M96.2,77c-0.3,0.2-0.5,0.3-0.8,0.4c-0.3,0.1-0.5,0.3-0.7,0.5c-0.2,0.2-0.4,0.4-0.6,0.7
					c-0.2,0.2-0.3,0.5-0.6,0.6c0,0-0.1,0-0.1,0c-0.2-0.3,0-0.7,0.2-0.9c0.2-0.3,0.4-0.6,0.7-0.8c0.3-0.2,0.5-0.4,0.8-0.6
					c0.3-0.2,0.7-0.3,1-0.3C96.3,76.6,96.4,76.9,96.2,77z M96.7,82.1c-0.2,0.3-0.5,0.5-0.7,0.8c-0.3,0.2-0.5,0.5-0.7,0.8
					c-0.2,0.3-0.4,0.6-0.5,0.9c-0.1,0.2-0.2,0.3-0.2,0.5c-0.1,0.2-0.1,0.4-0.3,0.5c-0.1,0-0.2,0-0.3-0.1c-0.1-0.2,0-0.4,0-0.6
					c0.1-0.2,0.2-0.4,0.2-0.5c0.2-0.3,0.4-0.7,0.6-1c0.2-0.3,0.5-0.6,0.8-0.9c0.1-0.1,0.3-0.2,0.4-0.3c0.2-0.1,0.3-0.2,0.5-0.2
					C96.7,81.9,96.8,82,96.7,82.1z M99.9,84.9c-0.5-3.9-1.3-7-1.7-6.9c0,0,0,0,0,0c0-1.5,0.1-2.5,0.4-2.5c0.6-0.1,1.6,3.9,2.2,8.9
					c0.6,5,0.7,9,0.1,9.1c-0.2,0-0.5-0.5-0.8-1.5C100.4,91.5,100.4,88.5,99.9,84.9z M96.7,92.5c0.2-0.3,0.5-0.6,0.8-0.8
					c0.3-0.2,0.6-0.5,0.9-0.4c0.1,0,0.1,0.1,0.1,0.2c-0.1,0.1-0.2,0.2-0.3,0.3c-0.1,0.1-0.2,0.2-0.3,0.3c-0.2,0.2-0.4,0.5-0.6,0.7
					c-0.2,0.2-0.3,0.5-0.4,0.8c-0.1,0.3-0.2,0.6-0.3,0.9c0,0.1-0.1,0.2-0.3,0.2c-0.1,0-0.3-0.1-0.3-0.2C96,93.9,96.3,93.1,96.7,92.5
					z M95,91.3C95,91.3,94.9,91.3,95,91.3c-0.1-0.1-0.2-0.2-0.2-0.3c0-0.1,0-0.2,0-0.3c0-0.2,0.1-0.4,0.2-0.6
					c0.2-0.4,0.4-0.8,0.6-1.2c0.2-0.4,0.5-0.7,0.8-1c0.2-0.2,0.3-0.3,0.5-0.4c0.2-0.1,0.4-0.3,0.6-0.3c0.1,0,0.2,0.2,0.2,0.3
					c-0.1,0.2-0.3,0.3-0.4,0.4c-0.2,0.1-0.3,0.3-0.4,0.4c-0.3,0.3-0.5,0.6-0.7,1c-0.2,0.3-0.4,0.7-0.5,1.1c-0.1,0.2-0.1,0.4-0.2,0.6
					c0,0.1-0.1,0.2-0.1,0.3C95.1,91.2,95,91.2,95,91.3z M92.3,91.8c0.3,0,0.6,0.2,0.8,0.4c0.3,0.2,0.5,0.3,0.7,0.5
					c0.4,0.4,0.9,0.8,1.2,1.3c0.1,0.2-0.2,0.5-0.4,0.3c-0.4-0.4-0.8-0.8-1.2-1.2c-0.2-0.2-0.4-0.3-0.6-0.5c-0.1-0.1-0.2-0.1-0.4-0.2
					c-0.1-0.1-0.3-0.1-0.4-0.3C92,92.1,92.1,91.8,92.3,91.8z M90.6,86.5c0.4-0.1,0.7,0,1.1,0.1c0.4,0.1,0.7,0.3,1,0.5
					c0.3,0.2,0.6,0.4,0.9,0.7c0.2,0.2,0.6,0.6,0.6,0.9c0,0.1-0.1,0.2-0.3,0.2c-0.3-0.1-0.5-0.4-0.8-0.6c-0.3-0.2-0.5-0.4-0.8-0.6
					c-0.3-0.2-0.6-0.3-0.9-0.4c-0.3-0.1-0.7-0.2-1-0.3C90.3,86.9,90.4,86.6,90.6,86.5z M89.6,79.5c0.2-0.1,0.3-0.1,0.5-0.1
					c0.2,0,0.4,0.1,0.6,0.1c0.4,0.1,0.7,0.3,1,0.5c0.3,0.2,0.6,0.4,0.9,0.7c0.1,0.1,0.3,0.3,0.4,0.4c0.1,0.1,0.3,0.3,0.3,0.5
					c0,0.1-0.1,0.2-0.2,0.2c-0.2,0-0.3-0.1-0.5-0.3c-0.1-0.1-0.3-0.2-0.4-0.3c-0.3-0.2-0.6-0.4-0.9-0.6c-0.3-0.2-0.6-0.3-0.9-0.5
					c-0.2-0.1-0.3-0.2-0.4-0.2c-0.2-0.1-0.3-0.2-0.4-0.3C89.5,79.6,89.5,79.5,89.6,79.5z M88.9,71.3c-0.2-0.3-1-1.7-1.2-2.2
					c0,0,0.1-0.1,0.1-0.1l0.9,1.5c0,0-0.5-1.2-0.8-1.7c0,0,0.1-0.1,0.1-0.1l2,2.9c-0.2,0-0.4,0.1-0.6,0.1
					C89.3,71.8,89.1,71.5,88.9,71.3z M87.2,69.5c0.1,0,0.1-0.1,0.2-0.1c0.3,0.5,1.4,2,1.5,2.2c0.1,0.1,0.2,0.3,0.3,0.4
					c0,0-0.1,0-0.1,0.1L87.2,69.5z M84.7,82.9c0.3-0.6,0.7-1.1,0.9-1.4l2.8,2.6c0,0.2,0.1,0.5,0.1,0.7L84.7,82.9z M83.6,78.8
					c0-0.1,0.1-0.2,0.1-0.3l4.6,4.3c0,0.1,0,0.2,0,0.2L83.6,78.8z M83.4,77.4l-4.1,0.1l0.2-2.6c0.1,0,0.1,0,0.2,0
					c0.4-0.1,2.3-1.3,5.6-3.7C84.8,72.8,84.1,75.3,83.4,77.4z M79.1,81.8l0.1-2.2c0.2-0.3,0.6-0.7,1.2-0.9C81.2,78.4,83,78,83,78
					l-3.7,0.1l0-0.2c0.7,0,3.6-0.1,4-0.1c-0.1,0.2-0.1,0.4-0.2,0.6L82.9,79l0,0c-0.4,1.3-0.7,2.3-0.9,2.8c-0.2,0-0.7,0-1.6,0
					C80,81.9,79.5,81.9,79.1,81.8z M79,70.9c-1.1,0.7-3.7,2.2-5.3,2.6c-1.5,0.4-3.8-0.6-5-1.2l-2.8-7.1c1.8,0.2,6,0.7,7.6,0.6
					c1.5-0.2,5.6-1.7,7.3-2.3c-0.1,0.4-0.4,1.7-0.8,3.1C79.5,68.1,79.1,70.2,79,70.9z M78.5,73.7c-1,0.7-3.3,2.2-5.3,2.5
					c-1.2,0.2-2.3-0.2-3-0.6l-0.6-2c1.2,0.5,3,1.2,4.1,0.9c1.2-0.3,3.8-1.6,5.1-2.3C78.6,72.5,78.5,73.2,78.5,73.7z M74.3,78.7
					l0.5-0.1c0.2,0,0.3,0.1,0.3,0.2l0.3,2c0,0.2-0.1,0.3-0.2,0.3l-0.5,0.1c-0.2,0-0.3-0.1-0.3-0.2l-0.3-2
					C74,78.9,74.2,78.7,74.3,78.7z M77.1,77.3l-0.7,0.1c-0.2,0-0.3-0.1-0.3-0.2l-0.2-1.5c0.3-0.2,0.9-0.5,1.2-0.7l0.3,2
					C77.3,77.1,77.2,77.2,77.1,77.3z M77.1,81.1c0,0.2-0.1,0.3-0.2,0.3l-0.5,0.1c-0.2,0-0.3-0.1-0.3-0.2l-0.3-2
					c0-0.2,0.1-0.3,0.2-0.3l0.5-0.1c0.2,0,0.3,0.1,0.3,0.2L77.1,81.1z M73.5,84c0-0.3,0.7-0.7,1.7-0.8s1.8,0,1.9,0.3
					c0,0.3-0.7,0.7-1.7,0.8C74.4,84.5,73.6,84.3,73.5,84z M72.4,79.7c0-0.2,0.1-0.3,0.2-0.3l0.5-0.1c0.2,0,0.3,0.1,0.3,0.2l0.3,2
					c0,0.2-0.1,0.3-0.2,0.3L73,82c-0.2,0-0.3-0.1-0.3-0.2L72.4,79.7z M71.2,76.3c0.4,0.1,0.9,0.2,1.3,0.2l0.2,1.1
					c0,0.2-0.1,0.3-0.2,0.3L71.7,78c-0.2,0-0.3-0.1-0.3-0.2L71.2,76.3z M68.5,82.5l-2.5-3.5c0.9-0.2,3.3-0.6,3.7-0.7
					c0,0.1,0.1,0.1,0.1,0.2l-3.1,0.7c0,0,2.7-0.1,3.5,0.2c0.5,1.3,0.7,1.9,0.8,2.3C70.5,81.8,69.5,82.2,68.5,82.5z M68.1,85.2
					c0.2-0.5,2.2-0.3,2.2-0.3l-1.8,1.6C68.6,86.6,68,85.7,68.1,85.2z M61.7,86.9c0,0,0-0.1,0-0.1c-0.1-0.3-0.1-0.5-0.1-0.6l4.5-5.2
					l0.3,0.4L62,86.4l4.6-4.8l0.1,0.2L61.7,86.9z M64,86.6c0.1,0.3,0.2,0.6,0.2,0.9c0.1,0.3,0.1,0.6,0.2,0.9
					c0.1,0.6,0.2,1.3,0.2,1.9c0,0.6,0,1.3,0,1.9c-0.1,0.6-0.2,1.3-0.4,1.9c0.1-0.6,0.1-1.3,0.1-1.9c0-0.6,0-1.3,0-1.9
					c0-0.6-0.1-1.3-0.1-1.9C64,87.8,64,87.2,64,86.6z M61.9,93.6c0,0,0.1,0,0.1,0c0.8-0.1,0.9-3,0.4-6.7l0.5-0.5
					c0.7,4.4,0.6,7.9-0.1,8C62.5,94.4,62.2,94.1,61.9,93.6z M59.9,79.9c0.2,0,0.4,0.2,0.6,0.5c0,0,0,0-0.1,0c-0.4,0.1-0.5,2-0.1,4.3
					c0.4,2.3,1.1,4.1,1.5,4c0,0,0.1,0,0.1,0c-0.1,0.5-0.2,0.7-0.4,0.8c-0.5,0.1-1.3-2-1.8-4.6C59.3,82.2,59.4,80,59.9,79.9z
					 M57.7,95.1c0.1-0.4,0.1-0.7,0.3-1.1c0.1-0.4,0.3-0.7,0.5-1c0.1-0.2,0.2-0.3,0.3-0.4c0.1-0.1,0.3-0.2,0.4-0.3c0,0,0.1,0,0.1,0
					c-0.1,0.1-0.1,0.3-0.1,0.5c-0.1,0.2-0.1,0.3-0.2,0.5c-0.2,0.3-0.3,0.6-0.4,1c-0.1,0.3-0.2,0.6-0.2,1c0,0.2,0,0.4-0.1,0.5
					c0,0.2,0,0.3-0.1,0.5c-0.1,0.1-0.2,0.1-0.3,0C57.5,95.9,57.6,95.4,57.7,95.1z M55.8,91.2c-0.2-0.3,0-0.8,0.1-1.1
					c0.1-0.4,0.3-0.8,0.4-1.1c0.2-0.3,0.4-0.7,0.6-1c0.1-0.2,0.2-0.3,0.4-0.4c0.1-0.1,0.3-0.2,0.5-0.3c0.1,0,0.1,0,0.1,0.1
					c-0.1,0.2-0.1,0.3-0.2,0.5c-0.1,0.2-0.2,0.3-0.3,0.5c-0.2,0.3-0.4,0.6-0.6,0.9c-0.2,0.3-0.3,0.6-0.4,1c-0.1,0.2-0.1,0.4-0.2,0.5
					c0,0.2-0.1,0.4-0.2,0.5C56,91.3,55.8,91.3,55.8,91.2z M54,95.4C54,95.3,54,95.3,54,95.4c0.1-0.1,0.1-0.2,0.2-0.2
					c0.2,0,0.3,0.1,0.5,0.2c0.1,0.1,0.3,0.1,0.4,0.2c0.1,0.1,0.3,0.1,0.4,0.2c0.1,0.1,0.4,0.2,0.2,0.4c-0.1,0.1-0.3,0.1-0.4,0
					c-0.1,0-0.2-0.1-0.4-0.1c-0.1-0.1-0.3-0.1-0.4-0.2c-0.1-0.1-0.3-0.1-0.4-0.2C54,95.5,54,95.4,54,95.4z M51.9,89.8
					c0.4,0,0.8,0.3,1.1,0.5c0.4,0.2,0.7,0.5,1.1,0.8c0.3,0.3,0.6,0.6,0.9,0.9c0.3,0.3,0.6,0.6,0.7,1c0,0.1-0.1,0.1-0.2,0.1
					c-0.4-0.1-0.6-0.5-0.9-0.8c-0.3-0.3-0.6-0.6-0.9-0.8c-0.3-0.3-0.6-0.5-1-0.7c-0.2-0.1-0.4-0.2-0.5-0.3c-0.2-0.1-0.3-0.2-0.5-0.4
					C51.7,89.9,51.8,89.8,51.9,89.8z M51.2,84.7c0.2,0,0.4,0.1,0.6,0.2c0.2,0.1,0.3,0.2,0.5,0.3c0.3,0.2,0.6,0.4,0.9,0.7
					c0.3,0.2,0.6,0.5,0.8,0.8c0.3,0.3,0.5,0.6,0.6,1c0,0.1-0.1,0.2-0.2,0.1c-0.3-0.2-0.6-0.5-0.8-0.7c-0.3-0.3-0.5-0.5-0.8-0.8
					c-0.3-0.2-0.6-0.4-0.9-0.6c-0.2-0.1-0.3-0.2-0.5-0.3c-0.2-0.1-0.4-0.2-0.5-0.4C50.9,84.9,51,84.7,51.2,84.7z M50.9,80
					c0.1-0.1,0.2-0.1,0.3-0.1c0.2,0,0.4,0.1,0.5,0.2c0.1,0.1,0.3,0.2,0.4,0.2c0.3,0.2,0.6,0.4,0.8,0.7c0.3,0.2,0.5,0.5,0.7,0.8
					c0.1,0.1,0.2,0.3,0.3,0.4c0,0.1,0.1,0.3-0.1,0.4c-0.1,0-0.3-0.1-0.4-0.2c-0.1-0.1-0.2-0.2-0.3-0.3c-0.2-0.2-0.4-0.5-0.7-0.7
					c-0.2-0.2-0.5-0.4-0.7-0.5c-0.1-0.1-0.3-0.2-0.4-0.2c-0.1-0.1-0.3-0.1-0.4-0.3C50.9,80.2,50.9,80,50.9,80z"/>
				<path d="M80.2,75c0.2-0.1,4.8-3.2,4.8-3.2l-0.9,2.6L84,73.6c0,0-2.3,1.3-3.2,1.8c-0.9,0.5-1.2,1.5-1.2,1.5l0.1-1.7
					C79.7,75.2,79.9,75.1,80.2,75z"/>
				<path d="M83,66.8c0,0.3,8.1-4.9,8.2-4.9c0,0,0.5-0.2,0.3-0.6c-0.2-0.4-6.1,1-7,1.3C83.5,63.1,83,66.5,83,66.8z M84.6,65.2
					c0-0.4,0.2-1.1,0.5-1.3c0.3-0.2,2.1-0.6,3.2-0.9C87.2,63.7,85.8,64.6,84.6,65.2z M83.6,65.8c0.4-1.7,0.8-2.5,1-2.6
					c0.6-0.3,4-1.1,5.9-1.5c-0.2,0.1-0.5,0.3-0.8,0.5c-1.4,0.4-4.9,1.3-5.1,1.4c-0.1,0.1-0.5,1.3-0.6,2
					C83.9,65.7,83.7,65.8,83.6,65.8z"/>
				<path d="M68.6,76c0.2,0.1,0.4,0.9,0.4,0.9s-2.3-1.2-3.4-1.5c-1.1-0.3-1.3,0.5-1.3,0.5s-1.4-1.9-1.5-2.1
					C62.7,73.7,68.4,75.9,68.6,76z"/>
				<path d="M63.8,62.4c-1,0.2-1.5,0.3-1.5,0.3C62.7,62.6,63.2,62.5,63.8,62.4z"/>
				<path d="M69.9,54.8c0,0.3,0.2,1.4,0.3,1.5c0.1,0.1,2,1.4,2.5,1.4c0.5,0,3-0.3,3.6-0.8c0.5-0.4,1.4-1.6,1.4-1.6s-0.3-1.8-0.6-1.8
					C76.9,53.5,69.9,54.6,69.9,54.8z M70.6,56.1c0,0,0.1-0.3,0.4-0.4c0.2-0.1,4.4-0.8,5.1-0.8c0.7,0,1.2,0.4,1.2,0.4
					c-0.3,0.4-0.9,1.1-1.2,1.4c-0.3,0.3-2.5,0.7-3.2,0.7c0,0,0,0,0,0C72.4,57.3,70.9,56.4,70.6,56.1z M70.3,55.1
					c1.1-0.3,5.5-1,6.6-1.1c0,0.1,0.1,0.3,0.1,0.5c-0.6,0-2.9,0.1-4.4,0.4c-1.3,0.2-2,0.5-2.2,0.6C70.4,55.3,70.4,55.2,70.3,55.1z"
					/>
				<path d="M80.9,41.1c0,0,0.8,1.4,1.4,2.1c0.7,0.8,1.8,1.3,1.8,1.3C81.2,43.9,80.9,41.1,80.9,41.1z"/>
				<path d="M72,61.2c6.3-0.7,11.8-0.7,11.8-0.7s-14.4,1-20.1,1.9C65.3,62.2,68.1,61.7,72,61.2z"/>
				<path d="M64.1,68.5c0,0-1-2.9-1.3-3.1c-0.2-0.1-8.1,0.1-8.1,0.3c0,0.2,8.8,3.3,9.1,3.2C64.1,68.8,64.1,68.5,64.1,68.5z
					 M58.5,66.5c1.4,0,3.7-0.1,3.7,0c0,0.1,0.3,0.9,0.5,1.3C61.5,67.5,60,67,58.5,66.5z M63.6,68.1c-0.1,0-0.3-0.1-0.4-0.1
					c-0.2-0.5-0.8-1.7-0.9-1.8c-0.2,0-3.7-0.1-5-0.1c-0.2-0.1-0.4-0.1-0.6-0.2c1.7-0.1,3.7-0.1,5.1-0.1c0.4,0,0.6,0,0.8,0
					C62.8,66.3,63.2,67.2,63.6,68.1z"/>
				<path d="M69.5,71.4l-0.6-1.2c0,0,1.3,1,2.3,1.3c1,0.3,2.3,0.8,3.2,0.5c0.3-0.1,1.3-0.6,2-1.2c1.1-0.9,1.9-1.9,1.9-1.9l-0.3,1.6
					c0,0-3.1,2-4.3,2C72.4,72.6,69.5,71.4,69.5,71.4z"/>
			</g>
			
				<linearGradient id="SVGID_76_" gradientUnits="userSpaceOnUse" x1="86.1716" y1="31.7865" x2="83.862" y2="35.3697" gradientTransform="matrix(-1 0 0 1 155.8174 0)">
				<stop  offset="0" style="stop-color:#FFBC08;stop-opacity:0"/>
				<stop  offset="1" style="stop-color:#F47901"/>
			</linearGradient>
			<path class="st85" d="M73.7,35.6c0,0-0.9,0.2-1.3,0.2c-0.4,0-0.6-2.2-0.6-2.2l-0.3,2.1c0,0-0.5-0.3-0.6-0.6
				c0-0.3,0.2-1.8-0.4-2.2c0,0,0,0.5,0,1.2c0,0.7,0,1.6,0,1.6s1.1,0.8,1.5,0.8C72.4,36.6,73.7,35.6,73.7,35.6z"/>
		</g>
		<path d="M100,69.7c0,1-0.1,2-0.2,2.9c0.5,0.1,0.9,0.2,0.9,0.2c0.3,0.1,0.6,0.3,0.8,0.7c0.2-1.3,0.3-2.5,0.3-3.8
			c0-8.9-4.4-16.9-11.2-21.7c-0.2,0.6-0.3,1.3-0.5,1.7c0,0,0,0.1,0,0.2C96.1,54.4,100,61.6,100,69.7z M43.1,69.7
			c0,7,2.3,13.5,6.2,18.8c-0.1-0.6-0.2-1.1-0.3-1.7c-0.5-2.8-0.7-5.7-0.6-8c-1-2.9-1.5-5.9-1.5-9.1c0-11.5,7-21.5,16.9-25.8
			c0.2-0.1,0.3-0.3,0.4-0.3c0.1-0.2,0.2-0.6,0.5-1c0.3-0.5,2-1.5,2.7-2c-0.2-0.5-0.5-1-0.6-1.4c-0.5,0-0.7,0-0.7,0l-0.1,0
			C52.7,43.1,43.1,55.3,43.1,69.7z M48.9,75.6c0.3-0.9,0.8-1.6,1.5-1.7c0,0,0,0,0,0c-0.2-1.4-0.4-2.7-0.4-4.1c0-0.8,0-1.7,0.1-2.5
			c-0.4-0.5-0.7-1-0.7-1.4c0-0.9,0.6-1.5,0.7-1.6c0.1-0.1,0.1-0.1,0.5-0.2c1.3-5.7,4.6-10.6,9.1-14.1c0.1-0.4,0.3-0.9,0.4-1.1
			c-0.1-0.3-0.1-0.7,0.2-1.2c0.2-0.4,0.6-0.6,1-0.7c0.1-0.1,0.2-0.2,0.3-0.3c0.1-0.1,0.2-0.2,0.3-0.2c0,0,0,0,0,0
			c-8.2,4.6-13.8,13.4-13.8,23.4C48.2,71.7,48.5,73.7,48.9,75.6z M103.2,69.7c0,2-0.2,4-0.6,6c0.7,2,1.2,4.7,1.5,7.1
			c1.8-4,2.8-8.4,2.8-13.1c0-14.4-9.6-26.6-22.7-30.5c0.1,0.1,0.3,0.1,0.4,0.2c2.5,1.1,6.3,3.2,6.5,3.9c0.1,0.3,0.2,1.6,0,2.8
			c0,0.1,0,0.2-0.1,0.4C98.3,51.6,103.2,60.1,103.2,69.7z"/>
	</g>
</g>
</svg>
