<?xml version="1.0" encoding="utf-8"?>
<!-- Generator: Adobe Illustrator 23.0.2, SVG Export Plug-In . SVG Version: 6.00 Build 0)  -->
<svg version="1.1" id="Layer_1" xmlns="http://www.w3.org/2000/svg" xmlns:xlink="http://www.w3.org/1999/xlink" x="0px" y="0px"
	 viewBox="0 0 150 150" style="enable-background:new 0 0 150 150;" xml:space="preserve">
<style type="text/css">
	.st0{fill:none;filter:url(#Adobe_OpacityMaskFilter);}
	.st1{mask:url(#mask0_73_2432_1_);}
	.st2{fill:#54B0C7;}
	.st3{fill:#1E0020;}
	.st4{fill:#FFA457;}
</style>
<defs>
	<filter id="Adobe_OpacityMaskFilter" filterUnits="userSpaceOnUse" x="0" y="0" width="150" height="150">
		<feColorMatrix  type="matrix" values="1 0 0 0 0  0 1 0 0 0  0 0 1 0 0  0 0 0 1 0"/>
	</filter>
</defs>
<mask maskUnits="userSpaceOnUse" x="0" y="0" width="150" height="150" id="mask0_73_2432_1_">
	<rect class="st0" width="150" height="150"/>
</mask>
<g class="st1">
	<rect class="st2" width="150" height="150"/>
</g>
<g>
	<path class="st3" d="M18.7,67.3c0.3,0,0.5,0,0.7,0c2.8,0,5.6,0,8.3,0.1c0.9,0,1.7,0.2,2.6,0.4c2.7,0.7,4,2.5,4.1,5.1
		c0,1.9-0.4,3.6-2,4.8c1,1.9,2.1,3.8,3.1,5.7c-0.2,0-0.3,0-0.5,0c-1.6,0-3.2,0-4.9,0c-0.3,0-0.5-0.1-0.7-0.4c-0.6-1.2-1.3-2.4-2-3.6
		c-0.1-0.3-0.3-0.4-0.6-0.4c-0.9,0-1.7,0-2.6,0c0,1.5,0,2.9,0,4.3c-1.9,0-3.7,0-5.6,0C18.7,78.1,18.7,72.7,18.7,67.3z M24.3,74.5
		c1.2,0,2.3,0.1,3.5,0c0.8-0.1,1.1-0.6,1.1-1.3c0-0.7-0.4-1.2-1.2-1.3c-1.1-0.1-2.3,0-3.4,0C24.3,72.8,24.3,73.6,24.3,74.5z"/>
	<path class="st3" d="M87.5,73.2c0,1.4,0,2.6,0,3.9c-2.7,0-5.4,0-8.1,0c0,0.6,0,1.2,0,1.8c3.1,0,6.2,0,9.3,0c0,1.5,0,3,0,4.5
		c-5,0-9.9,0-14.9,0c0-5.4,0-10.7,0-16.1c4.8,0,9.6,0,14.4,0c0,1.5,0,3,0,4.5c-2.9,0-5.8,0-8.8,0c0,0.5,0,0.9,0,1.4
		C82.1,73.2,84.7,73.2,87.5,73.2z"/>
	<path class="st3" d="M55.2,83.5c-1.5,0-2.9,0-4.4,0c-1.4,0-1.4,0-1.8-1.3c-0.4-1.1-0.4-1.1-1.5-1.1c-1.6,0-3.2,0-4.9,0
		c-0.3,0-0.5,0.1-0.6,0.4c-0.2,0.5-0.4,1.1-0.6,1.6c-0.1,0.1-0.2,0.3-0.4,0.3c-1.8,0-3.6,0-5.5,0c0.1-0.2,0.1-0.4,0.1-0.5
		c1.8-5,3.7-10.1,5.5-15.1c0.2-0.4,0.4-0.5,0.8-0.5c2.3,0,4.6,0,6.9,0c0.3,0,0.5,0,0.6,0.4c1.9,5.2,3.8,10.4,5.7,15.7
		C55.2,83.3,55.2,83.4,55.2,83.5z M45.4,72.3c-0.6,1.7-1.2,3.3-1.8,4.9c1.2,0,2.3,0,3.6,0C46.6,75.5,46,74,45.4,72.3z"/>
	<path class="st3" d="M53.2,67.3c1.9,0,3.7,0,5.5,0c0.2,0,0.4,0.3,0.4,0.4c1.1,2.9,2.1,5.8,3.2,8.7c0.2,0.6,0.5,1.2,0.7,2
		c0.5-1.3,0.9-2.5,1.3-3.6c0.9-2.4,1.7-4.7,2.6-7.1c0.1-0.4,0.3-0.5,0.7-0.5c1.7,0,3.4,0,5.2,0c-0.1,0.4-0.2,0.7-0.3,1
		c-1.8,4.9-3.6,9.8-5.4,14.7c-0.1,0.3-0.3,0.5-0.7,0.5c-2.3,0-4.7,0-7,0c-0.4,0-0.6-0.1-0.7-0.5c-1.8-5.1-3.7-10.1-5.5-15.1
		C53.3,67.7,53.3,67.5,53.2,67.3z"/>
	<path class="st3" d="M12.3,83.5c-1.9,0-3.7,0-5.6,0c0-3.9,0-7.7,0-11.6c-1.8,0-3.5,0-5.3,0c0-1.5,0-3,0-4.5c5.4,0,10.8,0,16.2,0
		c0,1.5,0,2.9,0,4.5c-1.7,0-3.5,0-5.3,0C12.3,75.7,12.3,79.6,12.3,83.5z"/>
	<path class="st3" d="M90.2,83.5c0-5.4,0-10.7,0-16.1c1.9,0,3.7,0,5.6,0c0,3.8,0,7.7,0,11.6c2.9,0,5.7,0,8.5,0c0,1.5,0,3,0,4.5
		C99.6,83.5,94.9,83.5,90.2,83.5z"/>
	<path class="st3" d="M148.6,83.6c-1.3,0-2.6,0-3.9-0.1c-0.6,0-1.4,0.2-1.8-0.1c-0.4-0.3-0.5-1.1-0.7-1.6c-0.1-0.5-0.4-0.6-0.9-0.6
		c-1.8,0-3.5,0-5.3,0c-0.4,0-0.5,0.1-0.6,0.4c-0.2,0.5-0.4,1-0.6,1.5c-0.1,0.1-0.2,0.3-0.4,0.3c-1.8,0-3.6,0-5.6,0
		c0.4-1.2,0.8-2.3,1.2-3.4c1.5-4.1,3-8.2,4.5-12.3c0.1-0.4,0.3-0.5,0.8-0.5c2.3,0,4.5,0,6.8,0c0.5,0,0.7,0.1,0.8,0.5
		c1.8,5,3.6,10,5.5,15c0.1,0.2,0.2,0.3,0.2,0.5C148.6,83.4,148.6,83.5,148.6,83.6z M138.7,72.3c-0.6,1.7-1.2,3.3-1.8,4.9
		c1.2,0,2.3,0,3.5,0C139.9,75.6,139.3,74,138.7,72.3z"/>
	<path class="st3" d="M119.4,80c0,1.2,0,2.3,0,3.5c-1.9,0-3.7,0-5.6,0c0-5.4,0-10.7,0-16c0.1,0,0.1-0.1,0.1-0.1
		c3.3,0.1,6.6,0,9.9,0.2c2.2,0.1,4.2,1.1,5.1,3.2c0.6,1.3,0.7,2.6,0.5,4c-0.4,2.8-2.2,4.5-5.3,4.9c-1,0.1-2,0.2-3,0.2
		C120.6,80.1,120,80,119.4,80z M119.4,72c0,1.1,0,2.3,0,3.4c1.1,0,2.2,0.1,3.2,0c0.8-0.1,1.4-0.8,1.4-1.6c0-0.8-0.5-1.6-1.4-1.7
		C121.6,72,120.5,72,119.4,72z"/>
	<g>
		<path class="st3" d="M109.4,70.9c0,0.2,0,0.4,0,0.7c0,0.2,0.1,0.3,0.3,0.4c0.1,0.1,0.2,0.1,0.3,0.2c0.1,0.1,0.1,0.2,0,0.3
			c-0.1,0.1-0.2,0.1-0.3,0.1c-0.1,0-0.2-0.1-0.4-0.1c-0.2-0.1-0.3-0.1-0.5,0c-0.1,0.1-0.2,0.1-0.3,0.1c-0.1,0-0.2,0-0.3-0.1
			c-0.1-0.1,0-0.2,0-0.3c0.1-0.1,0.2-0.1,0.3-0.2c0.2-0.1,0.2-0.2,0.2-0.4c0-0.5,0-1.1,0-1.6c0-0.2-0.1-0.2-0.2-0.2
			c-0.7,0.2-1.5,0.4-2.2,0.6c-0.1,0-0.1,0-0.2,0c-0.1,0-0.1,0-0.2-0.1c0-0.1,0.1-0.1,0.1-0.1c0.1-0.1,0.1-0.1,0.2-0.1
			c0.3-0.2,0.4-0.4,0.3-0.7c0-0.1,0-0.2,0-0.3c0-0.1,0.1-0.1,0.1-0.1c0.1-0.1,0.2,0,0.2,0.1c0,0.1,0,0.1,0.1,0.2
			c0,0.1,0.1,0.2,0.2,0.1c0.3-0.2,0.4-0.3,0.4-0.7c0-0.1,0-0.2,0-0.3c0-0.1,0.1-0.2,0.2-0.2c0.1,0,0.2,0,0.2,0.1
			c0,0.1,0.1,0.1,0.1,0.2c0.1,0.2,0.2,0.2,0.4,0.1c0.2-0.2,0.3-0.4,0.3-0.6c0-0.3,0-0.6,0-0.9c0-0.1,0-0.3,0.1-0.4
			c0-0.1,0.1-0.2,0.3-0.2c0.1,0,0.2,0.1,0.3,0.2c0,0.1,0.1,0.2,0.1,0.3c0,0.4,0,0.8,0,1.2c0,0.2,0.1,0.4,0.3,0.5
			c0.1,0,0.2,0,0.3-0.1c0-0.1,0.1-0.2,0.1-0.3c0-0.1,0.1-0.1,0.2-0.1c0.1,0,0.2,0.1,0.2,0.2c0,0.1,0,0.3,0,0.4
			c0,0.3,0.1,0.5,0.4,0.6c0.1,0,0.2,0,0.2-0.1c0-0.1,0.1-0.2,0.1-0.2c0-0.1,0.1-0.1,0.2-0.1c0.1,0,0.2,0.1,0.2,0.3
			c0,0.1,0,0.2,0,0.3c0,0.2,0.1,0.3,0.2,0.5c0.1,0.1,0.2,0.2,0.3,0.3c0,0,0.1,0.1,0,0.1c0,0-0.1,0.1-0.1,0.1c-0.1,0-0.1,0-0.2,0
			c-0.7-0.2-1.5-0.4-2.2-0.6c-0.2-0.1-0.3,0-0.3,0.2C109.4,70.3,109.4,70.6,109.4,70.9C109.4,70.9,109.4,70.9,109.4,70.9z"/>
		<path class="st4" d="M109.8,71.7c0,0,0.1,0.1,0.1,0.1c0.1,0.1,0.2,0.2,0.4,0.3c0.2,0.2,0.2,0.5,0.1,0.7c-0.1,0.2-0.3,0.3-0.6,0.3
			c-0.2,0-0.3-0.1-0.5-0.2c-0.1,0-0.2,0-0.3,0c-0.1,0-0.2,0.1-0.3,0.1c-0.3,0.1-0.6,0-0.8-0.2c-0.2-0.3-0.1-0.6,0.1-0.8
			c0.1-0.1,0.2-0.1,0.3-0.2c0.1,0,0.1-0.1,0.1-0.2c0-0.4,0-0.8,0-1.3c0,0,0-0.1,0-0.1c-0.8,0.2-1.6,0.4-2.3,0.6c0,4.2,0,8.4,0,12.6
			h6.2c0-4.2,0-8.4,0-12.6c-0.8-0.2-1.6-0.4-2.4-0.6c0,0,0,0,0,0C109.8,70.7,109.8,71.2,109.8,71.7z"/>
	</g>
</g>
</svg>
