<svg width="40" height="555" viewBox="0 0 40 555" fill="none" xmlns="http://www.w3.org/2000/svg">
<g clip-path="url(#clip0_2364_9847)">
<g clip-path="url(#clip1_2364_9847)">
<g clip-path="url(#clip2_2364_9847)">
<path d="M14.1945 1.71696e-07C14.1945 1.71696e-07 20.5774 15.6076 21.0227 29.9323C21.4681 44.471 21.0227 56.8715 18.7962 74.617C15.8273 98.7768 3.80376 145.385 10.3351 170.187C16.8664 194.988 17.1632 196.057 21.3196 208.671C26.0696 222.782 35.5698 251.432 35.1244 286.923C34.6791 324.765 10.4835 393.397 11.671 421.618C11.8195 424.611 12.8585 435.73 14.6398 444.068C16.4211 452.192 20.2805 464.165 21.6165 480.415C22.2102 487.256 23.2493 498.16 22.9524 510.774C22.804 513.981 22.3587 524.244 20.5774 536.43C18.7962 548.617 15.9757 559.949 15.0851 570.211C13.4523 592.232 15.8273 606.13 15.8273 606.13H-0.204102L-0.204094 0L14.1945 1.71696e-07ZM16.5695 48.5331C15.0851 50.0298 15.9757 52.8092 15.9757 57.7266C15.9757 62.6442 14.1945 70.7686 14.3429 70.1272C14.4914 69.4858 16.5695 63.4993 17.1632 57.299C17.9054 50.8849 18.0539 47.2504 16.5695 48.5331ZM12.5617 87.8728C12.5617 87.8728 12.2648 93.0041 11.2257 99.8458C10.0382 106.687 7.06943 121.868 6.03035 132.13C4.39752 149.662 6.03035 165.911 6.17879 164.414C6.32723 162.704 5.28815 143.889 7.81162 126.785C8.85069 119.73 11.0773 106.901 11.8195 100.273C12.7101 93.2179 12.5617 87.8728 12.5617 87.8728ZM12.4132 210.168C11.3742 206.533 19.3899 238.603 21.468 249.722C22.3587 254.211 23.8431 262.977 24.4368 271.102C25.0306 279.44 25.0306 290.13 25.179 289.916C25.4759 289.916 26.3665 277.516 25.179 265.97C23.9915 254.425 23.5462 254.852 22.804 249.722C21.6165 241.596 13.4523 213.802 12.4132 210.168ZM10.0382 180.449C10.0382 180.022 9.44445 182.159 11.671 190.712C13.8976 199.264 16.8664 205.037 17.1632 205.464C17.3117 205.892 14.4914 197.981 12.7101 191.353C10.9289 184.939 10.0382 180.663 10.0382 180.449ZM8.70226 1.06901C8.85069 1.28281 10.3351 5.13123 12.4132 11.3315C14.4914 17.5318 16.5695 26.0839 16.4211 25.6563C16.4211 25.2287 15.5304 18.1732 12.7101 9.83492C9.88977 1.49664 8.55382 0.85521 8.70226 1.06901ZM17.0148 539.21C16.7179 538.996 16.7179 543.272 15.2335 548.831C13.7492 554.39 12.8585 560.376 12.2648 565.507C11.0773 574.06 12.4132 590.522 12.5617 589.668C12.7101 589.026 12.1164 572.135 13.6007 562.942C14.3429 558.239 14.3429 557.81 15.9757 550.755C17.6086 543.7 17.4601 539.423 17.0148 539.21ZM13.4523 450.055C13.3039 449.199 11.0773 442.571 9.59289 432.095C7.96006 421.618 8.85069 413.066 8.40537 413.066C7.96005 413.066 7.06942 415.204 7.96005 426.323C8.85069 437.44 13.6007 450.909 13.4523 450.055ZM9.74133 453.048C9.88976 452.62 7.81161 445.778 7.21786 440.861C6.77255 435.943 6.47566 436.799 6.32722 436.799C6.17878 436.799 6.03035 439.15 6.6241 442.571C7.3663 446.206 9.59289 453.475 9.74133 453.048ZM6.32722 406.011C6.6241 405.797 7.51474 398.527 8.99913 394.038C10.4835 389.548 9.88976 390.189 9.74133 389.976C9.59289 389.762 8.55381 391.686 7.81161 395.107C6.92098 398.527 6.03035 406.224 6.32722 406.011ZM16.2726 466.303C16.7179 466.517 17.0148 465.661 15.9757 462.241C14.9367 458.82 14.046 456.682 14.1945 457.537C14.3429 458.393 14.7882 459.462 15.382 462.882C15.9757 466.517 15.8273 466.09 16.2726 466.303ZM18.2023 532.368C18.2023 532.795 19.3899 527.879 19.5384 525.313C19.6868 522.747 19.6868 521.036 19.2415 521.036C18.7962 521.036 18.4993 521.251 18.6477 524.457C18.7962 527.879 18.2023 531.941 18.2023 532.368ZM31.1166 280.723C31.2651 280.936 30.6712 285.854 30.6712 296.758C30.6712 307.448 27.1087 325.835 25.4759 333.532C23.8431 341.229 31.2651 312.152 31.5619 298.254C31.8588 284.357 30.9682 280.509 31.1166 280.723Z" fill="#113D48"/>
<path d="M26.5155 29.7185C26.3671 29.9324 26.9608 39.5535 26.5155 45.1124C25.4764 60.72 21.7654 81.4588 22.2107 80.6036C22.656 79.7483 26.8124 51.3126 27.1093 44.2572C27.703 33.7808 26.5155 29.5048 26.5155 29.7185Z" fill="#113D48"/>
<path d="M14.3423 119.943C14.1939 120.371 12.8578 129.565 12.5609 140.255C12.2641 150.945 13.4516 167.408 13.3031 166.553C13.1547 165.911 10.6312 153.938 11.5219 138.117C12.4125 122.295 14.4907 119.516 14.3423 119.943Z" fill="#113D48"/>
<path d="M19.6875 168.905C19.539 169.118 18.2031 164.628 18.0547 162.062C17.9062 159.497 18.0547 157.787 18.5 157.787C18.9453 157.787 19.2422 158 19.0937 161.208C18.9453 164.842 19.8359 168.69 19.6875 168.905Z" fill="#113D48"/>
<path d="M15.5305 176.387C15.382 176.387 17.3118 185.794 18.7962 189.857C20.1321 193.919 23.3978 203.112 23.3978 202.899C23.5462 202.685 21.0228 193.919 19.5384 189.429C18.054 184.939 15.6789 176.387 15.5305 176.387Z" fill="#113D48"/>
<path d="M39.4286 275.805C39.2802 276.02 39.8739 285.64 39.4286 291.199C38.3894 306.807 34.6785 327.546 35.1238 326.69C35.5691 325.835 39.7255 297.4 40.0224 290.344C40.6161 279.868 39.577 275.591 39.4286 275.805Z" fill="#113D48"/>
<path d="M28.4441 516.547C28.4441 516.547 27.9988 513.981 28.2957 510.346C28.5926 506.712 29.6317 497.946 29.3348 492.815C28.741 483.835 25.327 476.993 25.4754 477.849C25.4754 478.703 28.741 487.042 28.2957 496.236C28.1473 500.084 27.5535 507.14 27.702 510.561C27.8504 513.981 28.4441 516.547 28.4441 516.547Z" fill="#113D48"/>
<path d="M18.4994 444.709C18.6478 444.282 17.3118 440.433 16.8664 435.515C16.5696 430.599 16.4211 431.026 16.1243 431.026C15.9758 431.026 15.5305 434.874 16.1243 438.296C16.8664 441.716 18.3508 445.137 18.4994 444.709Z" fill="#113D48"/>
<path d="M19.3896 572.777C19.2412 572.777 19.3896 563.584 20.1318 558.452C20.874 553.321 22.9521 547.762 23.1006 547.762C23.249 547.762 21.9131 553.535 21.0224 558.666C20.1318 563.584 19.5381 572.564 19.3896 572.777Z" fill="#113D48"/>
</g>
</g>
</g>
<defs>
<clipPath id="clip0_2364_9847">
<rect width="40" height="606.13" fill="white"/>
</clipPath>
<clipPath id="clip1_2364_9847">
<rect width="40" height="606.13" fill="white"/>
</clipPath>
<clipPath id="clip2_2364_9847">
<rect width="40.4087" height="606.13" fill="white" transform="translate(-0.204102)"/>
</clipPath>
</defs>
</svg>
